<?xml version="1.0" encoding="UTF-8" standalone="no"?>
<!-- Created with Inkscape (http://www.inkscape.org/) -->

<svg
   width="280.95471"
   height="97.623138"
   viewBox="0 0 74.335932 25.829455"
   version="1.1"
   id="svg1"
   inkscape:version="1.3.2 (091e20ef0f, 2023-11-25, custom)"
   sodipodi:docname="libre.svg"
   xmlns:inkscape="http://www.inkscape.org/namespaces/inkscape"
   xmlns:sodipodi="http://sodipodi.sourceforge.net/DTD/sodipodi-0.dtd"
   xmlns="http://www.w3.org/2000/svg"
   xmlns:svg="http://www.w3.org/2000/svg">
  <sodipodi:namedview
     id="namedview1"
     pagecolor="#ffffff"
     bordercolor="#666666"
     borderopacity="1.0"
     inkscape:showpageshadow="2"
     inkscape:pageopacity="0.0"
     inkscape:pagecheckerboard="0"
     inkscape:deskcolor="#d1d1d1"
     inkscape:document-units="mm"
     inkscape:zoom="1.5786571"
     inkscape:cx="58.910829"
     inkscape:cy="106.10284"
     inkscape:window-width="1916"
     inkscape:window-height="1029"
     inkscape:window-x="0"
     inkscape:window-y="0"
     inkscape:window-maximized="1"
     inkscape:current-layer="layer1"
     showgrid="false" />
  <defs
     id="defs1" />
  <g
     inkscape:label="Layer 1"
     inkscape:groupmode="layer"
     id="layer1"
     transform="translate(-91.474036,-124.88334)">
    <path
       id="path1"
       style="fill:#fff6e5;fill-opacity:1;stroke:none;stroke-width:0.2;stroke-linecap:round;stroke-linejoin:round"
       d="m 155.62272,138.25573 c -0.12565,-3.99471 -5.75386,-5.88374 -9.47062,-7.35316 -5.48468,-2.16836 -11.72096,-1.50391 -17.61716,-1.6393 -6.22253,-0.14289 -13.0132,-1.76034 -18.65203,0.87481 -3.52239,1.64609 -8.39108,4.73123 -7.89365,8.58732 0.57026,4.42077 6.9827,5.94372 11.25167,7.22602 10.59441,3.18233 22.81184,4.26911 33.18343,0.42218 3.83417,-1.42213 9.32692,-4.03048 9.19836,-8.11787 z"
       sodipodi:nodetypes="aaaaaaaa" />
    <path
       id="path8"
       style="fill:#ffe6b3;fill-opacity:1;stroke:none;stroke-width:0.2;stroke-linecap:round;stroke-linejoin:round"
       d="m 145.68948,143.15333 c 1.30934,-1.98831 1.12343,-5.012 0.0597,-7.14186 -0.67499,-1.35154 -2.23563,-2.15043 -3.64583,-2.69226 -3.53667,-1.35887 -7.52687,-0.94525 -11.31214,-1.10752 -3.94985,-0.16934 -7.90806,0.2651 -11.85961,0.14121 -1.69564,-0.0532 -3.54432,-1.11018 -5.07526,-0.37928 -1.52755,0.72928 -2.52394,2.52301 -2.88976,4.17572 -0.35929,1.62318 0.0357,3.46207 0.84229,4.91578 0.7893,1.4226 2.23648,2.43188 3.64541,3.24534 1.49119,0.86097 3.19863,1.38433 4.90376,1.62403 2.38847,0.33577 4.8195,-0.37877 7.22993,-0.2929 1.50111,0.0535 2.97737,0.4392 4.4781,0.50234 2.42652,0.10209 4.91365,0.33131 7.28322,-0.20117 2.2527,-0.50622 5.07031,-0.86111 6.34015,-2.78943 z"
       sodipodi:nodetypes="aaaaaaaaaaaaaa" />
    <path
       id="path69"
       style="fill:#ffdd99;fill-opacity:1;stroke:none;stroke-width:0.2;stroke-linecap:round;stroke-linejoin:round;stroke-opacity:1"
       d="m 116.2971,143.06055 c 2.75865,2.32512 7.17837,0.7656 10.78116,0.95604 3.5893,0.18972 7.20625,0.55643 10.78133,0.18516 1.62638,-0.1689 3.56875,0.005 4.78269,-1.09026 1.05034,-0.94782 1.48364,-2.61036 1.36189,-4.01989 -0.11931,-1.3813 -0.82576,-2.89991 -1.99036,-3.65218 -1.58777,-1.02561 -3.77633,-0.214 -5.6546,-0.42615 -2.82165,-0.31871 -5.58388,-1.27945 -8.42346,-1.27073 -4.56888,0.014 -11.04367,-1.6985 -13.54054,2.12779 -1.35484,2.07621 0.006,5.59248 1.90189,7.19022 z"
       inkscape:label="path69"
       sodipodi:nodetypes="aaaaaaaaaa" />
    <path
       style="fill:#fff6e5;fill-opacity:1;stroke:none;stroke-width:0.1;stroke-linecap:round;stroke-linejoin:round"
       d="m 148.63607,146.14912 c 0.64239,1.85032 2.11024,3.74008 3.98028,4.32256 1.88115,0.58593 4.37015,0.0862 5.7649,-1.30547 1.06503,-1.06266 1.11914,-2.89953 1.00665,-4.39983 -0.10593,-1.41285 -1.90139,-2.58182 -1.55523,-3.9557 0.21048,-0.83538 1.25277,-1.19648 1.97245,-1.67001 1.23416,-0.81203 3.04505,-0.81994 3.96866,-1.97298 1.39611,-1.74292 1.86298,-4.28764 1.60085,-6.50534 -0.22506,-1.90416 -1.02546,-4.07518 -2.63886,-5.11123 -1.4696,-0.94371 -3.56168,-0.75355 -5.23363,-0.24869 -0.83111,0.25097 -1.24359,1.39103 -2.0984,1.54284 -1.14683,0.20368 -2.33577,-1.5362 -3.35584,-0.97394 -0.36692,0.20224 -0.41307,0.79373 -0.34833,1.20766 0.14164,0.90559 1.29356,1.39829 1.53241,2.28323 0.32646,1.20955 0.45268,2.70682 -0.23987,3.75084 -0.285,0.42963 -1.2302,0.19896 -1.38368,0.69115 -0.2231,0.71541 0.88679,1.24667 1.08371,1.96972 0.20271,0.74431 0.34305,1.59309 0.0667,2.3133 -0.36949,0.96283 -1.10388,2.24774 -2.13513,2.23902 -1.11749,-0.009 -1.43408,-1.72596 -2.27233,-2.465 -0.49634,-0.4376 -1.05508,-1.50197 -1.61665,-1.15199 -0.73459,0.45782 0.20116,1.72521 0.42126,2.56233 0.40863,1.55414 1.43826,2.93474 1.65884,4.52649 0.10788,0.7785 -0.4365,1.60857 -0.17873,2.35104 z"
       id="path12834-1-7"
       sodipodi:nodetypes="aaaaaaaaaaaaaaaaaaaaaaaa" />
    <path
       style="fill:#ffeecc;fill-opacity:1;stroke:none;stroke-width:0.1;stroke-linecap:round;stroke-linejoin:round"
       d="m 152.23178,149.11701 c -1.13257,-0.93742 -2.12739,-2.14456 -2.66902,-3.51135 -0.22831,-0.57614 -0.0216,-1.2538 -0.19421,-1.849 -0.2255,-0.77747 -0.98239,-1.37232 -1.078,-2.17616 -0.0573,-0.48207 -0.12558,-1.23305 0.32233,-1.42029 0.62482,-0.26119 1.04963,1.0361 1.7259,1.07184 1.12517,0.0595 2.36604,-0.57033 3.04354,-1.47064 0.62761,-0.834 0.8183,-2.08372 0.52836,-3.08642 -0.14716,-0.50891 -0.95709,-0.66253 -1.06283,-1.18163 -0.0772,-0.37917 0.31535,-0.71596 0.37687,-1.098 0.12891,-0.80064 -0.0452,-1.62194 -0.0276,-2.4327 0.0199,-0.91469 -0.24693,-1.91653 0.15053,-2.74061 0.2523,-0.52311 0.83156,-0.81725 1.30197,-1.15786 1.12512,-0.81467 2.23635,-1.84475 3.60287,-2.09416 1.30742,-0.23863 2.74794,0.0543 3.93259,0.65669 1.20392,0.6122 2.46476,1.55558 2.89367,2.83631 0.58114,1.73533 0.008,3.79507 -0.81558,5.42924 -0.62218,1.23427 -1.80949,2.12503 -2.93017,2.93412 -0.9073,0.65505 -2.01954,0.9672 -3.00137,1.50413 -0.48152,0.26332 -1.25153,0.31746 -1.41529,0.84128 -0.43551,1.39301 1.63124,2.53535 1.81916,3.98271 0.17169,1.32231 0.1146,2.86991 -0.67769,3.94242 -0.86688,1.17346 -2.4462,1.97164 -3.90512,1.97645 -0.71528,0.002 -1.3699,-0.5003 -1.92092,-0.95637 z"
       id="path13582-7-7"
       sodipodi:nodetypes="aaaaaaaaaaaaaaaaaaaaaaaa" />
    <path
       id="path1042-9-6"
       style="fill:#ffffcc;fill-opacity:1;stroke-width:0.1;stroke-linecap:round;stroke-linejoin:round"
       d="m 160.39726,126.37952 c -0.27373,-0.0354 -0.55036,-0.0288 -0.81135,0.0277 -1.64394,0.3561 -3.24877,1.47697 -4.11774,2.91719 -0.69083,1.14498 -1.33506,2.91295 -0.52524,3.97712 0.39435,0.0329 0.79144,0.0195 1.18693,0.0331 0.73421,0.0253 1.46985,0.15237 2.20189,0.0905 0.33758,-0.0285 0.74699,0.0202 0.99407,-0.21156 0.34538,-0.32402 0.15793,-0.95196 0.3841,-1.36805 0.17189,-0.31623 0.54453,-0.49234 0.71347,-0.81016 0.39056,-0.73474 0.0912,-1.78156 0.6299,-2.41575 0.32852,-0.38674 1.26424,-0.12602 1.3916,-0.61723 0.12817,-0.49434 -0.4889,-0.95301 -0.92232,-1.2231 -0.33126,-0.20642 -0.72525,-0.34807 -1.12531,-0.39979 z" />
    <path
       id="path2309-2-4"
       style="fill:#fff4bd;fill-opacity:1;stroke-width:0.1;stroke-linecap:round;stroke-linejoin:round"
       d="m 160.59182,126.68994 c -0.66911,-0.0517 -1.33645,0.11861 -1.96916,0.3218 -1.51216,0.52743 -2.91038,1.55374 -3.64992,2.99976 -0.36146,0.75337 -0.63629,1.63201 -0.40406,2.46442 0.1036,0.27849 0.29154,0.7332 0.66325,0.62187 0.42377,-0.1313 0.83947,-0.47769 0.89592,-0.93748 -0.045,-0.34301 -0.37478,-0.79746 0.0459,-1.04192 0.48419,-0.31899 1.20435,-0.14469 1.58398,-0.64477 0.42356,-0.5631 0.27818,-1.3906 0.79378,-1.89918 0.37788,-0.34448 0.90782,-0.13428 1.34925,-0.0807 0.32308,0.0194 0.64783,0.0153 0.97169,0.0297 0.41728,0.0401 0.73019,-0.3272 0.77105,-0.71499 0.0899,-0.41394 -0.1627,-0.83883 -0.55579,-0.98381 -0.15704,-0.0702 -0.32553,-0.11299 -0.49591,-0.13465 z m -0.22464,2.00574 c -0.42229,-0.0231 -0.95333,-0.0751 -1.23353,0.31618 -0.33387,0.45664 -0.40265,1.08979 -0.23285,1.6223 0.1187,0.42379 0.63909,0.65689 1.02823,0.44673 0.62557,-0.42162 0.84888,-1.2589 0.75551,-1.9766 -0.0478,-0.16536 -0.16287,-0.33155 -0.31736,-0.40861 z"
       sodipodi:nodetypes="sssssssssssssaaaaaaaa" />
    <path
       style="fill:#ffffcc;fill-opacity:1;stroke-width:0.1;stroke-linecap:round;stroke-linejoin:round"
       d="m 154.31706,146.00897 c -0.21638,-0.10897 -0.33357,-0.40865 -0.32372,-0.65071 0.0198,-0.48704 0.48522,-0.84638 0.75552,-1.25201 0.2528,-0.37938 0.6637,-0.67077 0.80865,-1.10301 0.2344,-0.69892 -0.3426,-1.57647 0.0322,-2.21128 0.10991,-0.18619 0.35058,-0.3604 0.56328,-0.32159 0.96981,0.17695 1.30595,1.48106 1.88504,2.27888 0.22045,0.30372 0.57185,0.5771 0.60247,0.95115 0.0282,0.34457 -0.17878,0.69345 -0.40515,0.95475 -0.39195,0.45245 -0.97607,0.71899 -1.53626,0.92999 -0.7547,0.28427 -1.6617,0.78659 -2.38198,0.42383 z"
       id="path10275-0-3"
       sodipodi:nodetypes="aaaaaaaaaaa" />
    <path
       style="fill:#fff4bd;fill-opacity:1;stroke-width:0.1;stroke-linecap:round;stroke-linejoin:round"
       d="m 154.36563,145.62291 c -0.2521,-0.13088 -0.56255,-0.36444 -0.55303,-0.64833 0.0156,-0.46412 0.52626,-0.87059 0.97311,-0.99694 0.21944,-0.062 0.44343,0.22678 0.66346,0.16687 0.13866,-0.0377 0.25339,-0.16931 0.30707,-0.30261 0.0972,-0.24134 0.0543,-0.53124 -0.0211,-0.78021 -0.0981,-0.32381 -0.43584,-0.53744 -0.54046,-0.85921 -0.1079,-0.33185 -0.2607,-0.75203 -0.0703,-1.0445 0.14243,-0.21884 0.48422,-0.3377 0.73595,-0.26833 0.37798,0.10415 0.67139,0.52652 0.74269,0.91204 0.0447,0.24194 -0.30298,0.46606 -0.23056,0.70121 0.0966,0.31351 0.62419,0.31135 0.7801,0.59998 0.22652,0.4193 0.43585,1.08003 0.10772,1.42566 -0.29256,0.30818 -0.88285,-0.1949 -1.27444,-0.0299 -0.25339,0.10676 -0.36319,0.41389 -0.56217,0.60367 -0.20827,0.19864 -0.38445,0.47155 -0.65902,0.55788 -0.1274,0.0401 -0.28039,0.0242 -0.39893,-0.0373 z"
       id="path10570-2-8-0"
       sodipodi:nodetypes="aaaaaaaaaaaaaaaaa" />
    <path
       id="path14463-3-3"
       style="fill:#ffe6b3;fill-opacity:1;stroke:none;stroke-width:0.1;stroke-linecap:round;stroke-linejoin:round"
       d="m 159.24455,125.87243 c -1.61763,-0.16395 -3.14223,0.80264 -4.01648,2.11572 -0.93394,1.32807 -1.96825,2.82465 -1.85013,4.52102 0.18235,0.76606 0.37501,1.52513 0.40568,2.31554 0.5491,1.11124 1.35794,-0.54532 1.40266,-1.1758 0.1927,-1.18131 0.22628,-3.00991 1.28174,-3.73597 0.8934,-0.61459 0.81846,-1.6991 1.92879,-1.95055 0.78778,0.0213 2.4974,0.88358 2.4101,-0.55523 -0.13802,-0.7615 -0.76815,-1.45737 -1.56236,-1.53473 z m 1.2563,3.05496 c -1.05312,-0.17356 -1.48192,1.36801 -0.81098,2.02762 0.64514,0.66882 1.67273,0.64408 2.53063,0.80606 1.1101,0.0968 2.30531,0.1161 3.33217,-0.36131 0.72153,-0.71912 -0.20808,-2.00452 -1.14144,-1.55755 -0.7888,0.63688 -2.01428,0.52765 -2.66279,-0.25832 -0.29107,-0.38561 -0.79534,-0.55168 -1.24759,-0.6565 z m -4.70069,6.5246 c -1.06191,0.0869 -0.15026,1.51826 0.39631,1.83475 1.3884,1.18538 3.30898,1.28904 5.04072,1.13796 1.20824,-0.55949 -0.41174,-1.95741 -1.29557,-1.57958 -1.01339,0.2273 -1.93798,-0.26648 -2.72707,-0.84669 -0.43279,-0.26284 -0.92827,-0.41817 -1.41439,-0.54644 z m -0.0289,5.69794 c -0.8806,-0.24266 -2.03084,1.17392 -0.56896,1.13159 0.82146,0.40961 1.42344,-0.86593 0.56896,-1.13159 z m -2.37425,0.7225 c -1.0921,-0.17903 -1.2299,1.60767 -0.14647,1.70003 0.86956,0.0288 1.14986,-1.6336 0.14647,-1.70003 z m 3.35721,0.83714 c -1.19928,-0.24763 -1.16791,1.39221 -0.26846,1.75208 1.01583,0.50071 1.59507,-1.30946 0.57239,-1.66144 l -0.12735,-0.0528 -0.17657,-0.0378 z m -5.5464,-0.63408 c -0.80822,0.23441 -0.95449,1.36194 -1.09071,2.09264 -0.18237,1.10124 0.46198,2.05896 1.07908,2.89846 0.39825,0.79536 1.59785,2.49049 2.40222,1.19511 0.63483,-0.9331 0.58688,-2.22844 -0.14234,-3.09953 -0.72967,-0.81216 -1.16686,-1.7998 -1.68273,-2.7415 -0.13814,-0.17771 -0.33553,-0.3232 -0.56552,-0.34518 z m 3.67986,1.96885 c -1.00568,-0.16809 -1.29419,1.53055 -0.19166,1.52415 0.716,-0.0221 0.98145,-1.38797 0.19166,-1.52415 z m 3.52393,0.83867 c -1.38401,0.11403 -0.50193,1.98139 -1.64744,2.46126 -0.32861,0.50038 -2.13002,1.32472 -0.98576,1.78977 0.86799,-0.17213 1.60531,-0.79025 2.22544,-1.39676 0.55655,-0.66872 0.91279,-1.59206 0.78678,-2.46443 -0.0528,-0.17572 -0.18566,-0.35886 -0.37902,-0.38984 z"
       sodipodi:nodetypes="cccccsccccccccccccccccccccccsccccscccccccccccccccc" />
    <path
       style="fill:#ffe6b3;fill-opacity:1;stroke:none;stroke-width:0.1;stroke-linecap:round;stroke-linejoin:round"
       d="m 154.31423,140.40916 c -0.8952,-0.3105 0.23398,-1.88653 0.22116,-2.83397 -0.009,-0.62671 -0.77909,-1.6375 -0.19702,-1.86995 0.4855,-0.19388 0.80922,0.74189 0.95524,1.24386 0.21527,0.73999 0.0517,1.57617 -0.20484,2.3029 -0.15447,0.43769 -0.33602,1.30926 -0.77454,1.15716 z"
       id="path13710-7-0"
       sodipodi:nodetypes="aaaaaa" />
    <path
       id="path15154-5-9"
       style="fill:#ffdd99;fill-opacity:1;stroke:none;stroke-width:0.1;stroke-linecap:round;stroke-linejoin:round"
       d="m 156.31756,135.96314 c -0.6633,-0.14224 -0.8666,0.63279 -0.41022,1.02395 -0.009,0.432 -0.26948,0.84936 -0.22404,1.30541 0.0124,0.56762 0.71216,0.45894 1.04844,0.24975 0.49799,-0.13606 0.71439,-0.79897 1.28468,-0.74778 0.60247,5.4e-4 1.17392,0.48945 1.77605,0.25953 0.65446,-0.3458 0.10223,-1.20664 -0.52548,-1.02811 -0.55869,0.0338 -1.18788,0.13966 -1.65337,-0.2581 -0.41933,-0.28364 -0.77509,-0.71126 -1.29607,-0.80465 z m -0.63403,5.32453 c -0.51026,-0.17994 -1.2073,0.75135 -0.49336,0.89426 0.57726,0.0587 0.96824,-0.39776 0.49336,-0.89426 z m -2.0785,1.28791 c -0.42058,0.0117 -0.81271,0.93191 -0.17855,0.85805 0.53473,0.36643 0.70806,-0.82135 0.17855,-0.85805 z m 3.3923,0.73143 c -0.85138,-0.034 0.13656,1.31908 0.27666,0.41684 0.008,-0.17506 -0.0765,-0.3974 -0.27666,-0.41684 z m -2.22938,1.09249 c -0.58543,-0.14049 -1.08057,0.89654 -0.39143,1.06245 0.67361,0.24904 1.09808,-0.86352 0.39143,-1.06246 z m 3.60812,1.61956 c -0.80032,-0.0434 -0.46718,1.0001 -0.93084,1.39644 -0.3287,0.54356 0.46717,0.4725 0.54535,0.0353 0.16761,-0.44675 0.74352,-0.80507 0.5963,-1.31823 -0.046,-0.0706 -0.13051,-0.10347 -0.21081,-0.11353 z m -4.77426,0.335 c -0.5971,0.0113 -0.73291,1.13554 -1.40014,0.84036 -0.23538,-0.31531 -0.98413,-0.90853 -0.90342,-0.093 0.21862,0.66268 0.55234,1.33547 1.10115,1.78576 0.43982,0.38228 1.11777,0.12313 1.31919,-0.39327 0.29082,-0.58004 0.47654,-1.31157 0.18681,-1.92425 -0.0662,-0.10864 -0.1756,-0.19597 -0.30359,-0.21558 z" />
    <path
       style="fill:none;stroke:#000000;stroke-width:0.199999;stroke-linecap:round;stroke-linejoin:round;stroke-dasharray:none"
       d="m 152.59402,145.92909 c 0,0 -0.041,0.19172 0.0851,0.45343 0.12615,0.26171 0.28901,0.33191 0.28901,0.33191"
       id="path43701-4-4-3-2"
       sodipodi:nodetypes="czc" />
    <path
       style="fill:none;stroke:#000000;stroke-width:0.199999;stroke-linecap:round;stroke-linejoin:round;stroke-dasharray:none"
       d="m 151.79575,145.39273 c 0,0 -0.041,0.19171 0.0851,0.45342 0.12614,0.26171 0.28901,0.33191 0.28901,0.33191"
       id="path43725-6-1-5"
       sodipodi:nodetypes="czc" />
    <path
       style="fill:none;stroke:#000000;stroke-width:0.199999;stroke-linecap:round;stroke-linejoin:round;stroke-dasharray:none"
       d="m 151.00819,144.799 c 0,0 -0.041,0.19172 0.0851,0.45342 0.12614,0.26171 0.28901,0.33191 0.28901,0.33191"
       id="path43727-9-4-4"
       sodipodi:nodetypes="czc" />
    <path
       style="fill:none;stroke:#000000;stroke-width:0.199999;stroke-linecap:round;stroke-linejoin:round;stroke-dasharray:none"
       d="m 153.04818,145.75316 c 0.17091,0.27365 0.26521,0.59181 0.34478,0.90454 0.0444,0.17464 0.12029,0.36206 0.0723,0.53577 l -0.41193,1.49102 c -0.0231,0.0836 -0.15677,0.11845 -0.24093,0.0978 -0.14076,-0.0346 -0.20748,-0.20691 -0.28141,-0.33165 m -0.67193,-1.13371 -1.08971,-1.83863 c -0.0842,-0.14208 -0.15186,-0.29717 -0.18855,-0.45823 -0.0233,-0.10248 -0.026,-0.20998 -0.0182,-0.3148 v 0 l 0.0815,-1.08864 m 0.0528,-0.70519 c 0.008,-0.109 0.0836,-0.24132 0.18973,-0.26741 0.11719,-0.0288 0.25857,0.0622 0.32251,0.16455 l 0.81251,1.30096"
       id="path45027-4-9-0"
       sodipodi:nodetypes="cassaccsassccasc" />
    <path
       style="fill:none;stroke:#000000;stroke-width:0.199999;stroke-linecap:round;stroke-linejoin:round;stroke-dasharray:none"
       d="m 154.0101,133.64324 c -0.0102,0.21587 0.0711,0.45088 0.14222,0.65202 0.41509,1.17426 1.77693,1.78242 2.86933,2.3662 0.91918,0.49121 1.95268,0.96881 2.99388,0.89918 0.37359,-0.025 0.56967,-0.0273 0.93484,-0.15422 m 2.05071,-1.29833 c 1.16139,-1.16476 1.84946,-2.60022 2.00569,-4.25049 m -0.61369,-2.43345 c -0.23727,-0.43103 -0.37069,-0.54802 -0.69871,-0.88826 -1.0333,-1.07177 -2.45712,-2.08961 -3.94467,-2.07843 -0.63121,0.005 -1.08678,-0.0109 -1.73563,0.30549 m -2.0772,1.40353 c -0.35503,0.22395 -0.4725,0.42122 -0.71196,0.74677 -0.50638,0.68847 -0.99603,1.64694 -1.03875,2.55317"
       id="path37294-3-2-2-5"
       sodipodi:nodetypes="csasccccssccsc" />
    <path
       style="fill:none;stroke:#000000;stroke-width:0.199999;stroke-linecap:round;stroke-linejoin:round;stroke-dasharray:none"
       d="m 158.81148,137.88337 c -0.69714,0.0175 -1.34723,-0.50588 -2.0069,-0.79247 -0.51042,-0.22176 -1.07566,-0.36526 -1.50795,-0.71657 -0.21178,-0.17209 -0.43706,-0.3696 -0.59055,-0.60076"
       id="path37296-1-2-0-9"
       sodipodi:nodetypes="casc" />
    <path
       style="fill:none;stroke:#000000;stroke-width:0.199999;stroke-linecap:round;stroke-linejoin:round;stroke-dasharray:none"
       d="m 156.76532,137.57896 c -0.0747,0.12668 -0.18793,0.31786 -0.23113,0.42968 -0.0702,0.18162 0.0157,0.36373 -0.11304,0.44842 -0.15523,0.1021 -0.42183,0.0452 -0.55008,-0.0892 -0.10808,-0.1133 -0.11771,-0.324 -0.0535,-0.46686 0.0497,-0.11048 0.18856,-0.0927 0.2975,-0.20855 0.0681,-0.0724 0.14062,-0.24598 0.21564,-0.34234"
       id="path37298-9-6-6-4"
       sodipodi:nodetypes="csaaasc" />
    <path
       style="fill:none;stroke:#000000;stroke-width:0.199999;stroke-linecap:round;stroke-linejoin:round;stroke-dasharray:none"
       d="m 161.63949,136.93532 c 0,0 -0.1004,0.14415 -0.0681,0.20977 0.0604,0.12257 0.25114,0.15468 0.3857,0.13299 0.17539,-0.0282 0.34341,-0.16483 0.42684,-0.32313 0.0745,-0.14138 0.12695,-0.35859 0.0231,-0.47858 -0.0734,-0.0848 -0.33452,-0.0295 -0.33452,-0.0295"
       id="path37302-4-4-8-6"
       sodipodi:nodetypes="caaaac" />
    <path
       style="fill:none;stroke:#000000;stroke-width:0.199999;stroke-linecap:round;stroke-linejoin:round;stroke-dasharray:none"
       d="m 164.71508,130.39008 c 0,0 0.019,-0.17455 0.0861,-0.20603 0.1256,-0.059 0.29254,0.0319 0.39512,0.1247 0.0764,0.0691 0.11709,0.18125 0.1233,0.28485 0.01,0.16412 -0.0292,0.35218 -0.13987,0.47376 -0.0835,0.0917 -0.22909,0.17932 -0.34456,0.13678 -0.0537,-0.0197 -0.0807,-0.15225 -0.0807,-0.15225"
       id="path37304-7-1-9-9"
       sodipodi:nodetypes="caaaaac" />
    <path
       style="fill:none;stroke:#000000;stroke-width:0.199999;stroke-linecap:round;stroke-linejoin:round;stroke-dasharray:none"
       d="m 157.28547,127.60443 c 0,0 0.18085,-0.13429 0.16563,-0.22641 -0.0227,-0.13738 -0.20636,-0.20719 -0.3417,-0.23539 -0.1653,-0.0345 -0.35702,0.003 -0.49843,0.0967 -0.12287,0.0818 -0.2585,0.22133 -0.24734,0.36876 0.01,0.13265 0.14118,0.26064 0.26962,0.29093 0.0963,0.0227 0.27897,-0.10463 0.27897,-0.10463"
       id="path37306-8-2-2-2"
       sodipodi:nodetypes="caaaaac" />
    <path
       style="fill:none;stroke:#000000;stroke-width:0.199999;stroke-linecap:round;stroke-linejoin:round;stroke-dasharray:none"
       d="m 164.48167,130.78459 c 0,0 -0.18773,0.2766 -0.33649,0.31029 -0.19988,0.0453 -0.39839,-0.10125 -0.58739,-0.18146"
       id="path37310-4-8-6-2"
       sodipodi:nodetypes="cac" />
    <path
       style="fill:none;stroke:#000000;stroke-width:0.199999;stroke-linecap:round;stroke-linejoin:round;stroke-dasharray:none"
       d="m 163.36192,130.48535 c 0,0 -0.0671,-0.31034 -0.19348,-0.35825 -0.11542,-0.0438 -0.2552,0.0463 -0.34908,0.12786 -0.0519,0.0451 -0.0979,0.18199 -0.0979,0.18199"
       id="path37312-5-8-6-4"
       sodipodi:nodetypes="caac" />
    <path
       style="fill:none;stroke:#000000;stroke-width:0.199999;stroke-linecap:round;stroke-linejoin:round;stroke-dasharray:none"
       d="m 163.17028,131.14761 c 0,0 -0.17922,0.0896 -0.27324,0.0793 -0.0893,-0.01 -0.23646,-0.12938 -0.23646,-0.12938"
       id="path37314-0-9-4-7"
       sodipodi:nodetypes="cac" />
    <path
       style="fill:none;stroke:#000000;stroke-width:0.199999;stroke-linecap:round;stroke-linejoin:round;stroke-dasharray:none"
       d="m 162.40237,130.76758 c 0,0 -0.15509,0.0504 -0.23425,0.0439 -0.24218,-0.0202 -0.45132,-0.12354 -0.68459,-0.25076"
       id="path37316-3-2-9-7"
       sodipodi:nodetypes="cac" />
    <path
       style="fill:none;stroke:#000000;stroke-width:0.199999;stroke-linecap:round;stroke-linejoin:round;stroke-dasharray:none"
       d="m 161.28693,130.09111 c 0,0 0.0221,-0.37261 -0.0869,-0.50156 -0.0959,-0.11347 -0.27375,-0.17238 -0.41994,-0.14601 -0.1736,0.0313 -0.41092,0.3374 -0.41092,0.3374"
       id="path37318-6-8-5-5"
       sodipodi:nodetypes="caac" />
    <path
       style="fill:none;stroke:#000000;stroke-width:0.199999;stroke-linecap:round;stroke-linejoin:round;stroke-dasharray:none"
       d="m 160.00297,130.08958 c -0.23354,-0.07 -0.68857,-0.18969 -0.98032,-0.38503 -0.14907,-0.0998 -0.25191,-0.17545 -0.3728,-0.38827"
       id="path37320-1-8-0-4"
       sodipodi:nodetypes="cac" />
    <path
       style="fill:none;stroke:#000000;stroke-width:0.199999;stroke-linecap:round;stroke-linejoin:round;stroke-dasharray:none"
       d="m 161.07645,130.66682 c 0,0 -0.26767,0.12143 -0.40974,0.12079 -0.0936,-4.1e-4 -0.19749,-0.0208 -0.26831,-0.082 -0.0587,-0.0507 -0.10017,-0.2109 -0.10017,-0.2109"
       id="path37322-0-8-4-8"
       sodipodi:nodetypes="caac" />
    <path
       style="fill:none;stroke:#000000;stroke-width:0.199999;stroke-linecap:round;stroke-linejoin:round;stroke-dasharray:none"
       d="m 158.69494,128.9179 c 0,0 0.10276,-0.21305 0.0717,-0.31618 -0.0326,-0.10793 -0.13879,-0.19437 -0.24456,-0.23132 -0.10846,-0.0379 -0.24304,-0.0268 -0.34395,0.0294 -0.0598,0.0333 -0.12352,0.16479 -0.12352,0.16479"
       id="path37324-6-6-8-1"
       sodipodi:nodetypes="caaac" />
    <path
       style="fill:none;stroke:#000000;stroke-width:0.199999;stroke-linecap:round;stroke-linejoin:round;stroke-dasharray:none"
       d="m 157.57376,128.75141 c -0.17563,-0.0255 -0.25445,-0.053 -0.34358,-0.13851 -0.0854,-0.0819 -0.12601,-0.20656 -0.14634,-0.32341"
       id="path37326-3-8-7-2"
       sodipodi:nodetypes="cac" />
    <path
       style="fill:none;stroke:#000000;stroke-width:0.199999;stroke-linecap:round;stroke-linejoin:round;stroke-dasharray:none"
       d="m 158.23299,129.31851 c 0,0 -0.30056,0.0404 -0.42012,-0.0333 -0.0431,-0.0266 -0.0793,-0.13019 -0.0793,-0.13019"
       id="path37328-2-3-1-8"
       sodipodi:nodetypes="cac" />
    <path
       style="fill:none;stroke:#000000;stroke-width:0.199999;stroke-linecap:round;stroke-linejoin:round;stroke-dasharray:none"
       d="m 160.62877,136.1034 c 0,0 0.0614,-0.32115 -0.0322,-0.42848 -0.0848,-0.0973 -0.25683,-0.1235 -0.37817,-0.079 -0.11494,0.0422 -0.22821,0.29006 -0.22821,0.29006"
       id="path37330-0-8-7-9"
       sodipodi:nodetypes="caac" />
    <path
       style="fill:none;stroke:#000000;stroke-width:0.199999;stroke-linecap:round;stroke-linejoin:round;stroke-dasharray:none"
       d="m 161.60698,136.54103 c 0,0 -0.37563,0.15391 -0.57002,0.1353 -0.12362,-0.0119 -0.20565,0.002 -0.3396,-0.15326"
       id="path37332-6-3-2-3"
       sodipodi:nodetypes="cac" />
    <path
       style="fill:none;stroke:#000000;stroke-width:0.199999;stroke-linecap:round;stroke-linejoin:round;stroke-dasharray:none"
       d="m 160.28357,136.52189 c 0,0 -0.21,0.045 -0.30116,0.003 -0.0524,-0.024 -0.0914,-0.0783 -0.11191,-0.13259 -0.008,-0.0214 -0.002,-0.0687 -0.002,-0.0687"
       id="path37334-1-3-7-6"
       sodipodi:nodetypes="caac" />
    <path
       style="fill:none;stroke:#000000;stroke-width:0.199999;stroke-linecap:round;stroke-linejoin:round;stroke-dasharray:none"
       d="m 159.52329,136.08953 c 0,0 -0.51807,-0.01 -0.75745,-0.0964 -0.0996,-0.036 -0.16433,-0.0818 -0.26804,-0.17065"
       id="path37336-5-3-2-8"
       sodipodi:nodetypes="cac" />
    <path
       style="fill:none;stroke:#000000;stroke-width:0.199999;stroke-linecap:round;stroke-linejoin:round;stroke-dasharray:none"
       d="m 158.42132,135.45121 c 0,0 0.0715,-0.23144 0.0211,-0.32826 -0.0471,-0.0904 -0.1595,-0.15193 -0.26093,-0.15704 -0.0773,-0.004 -0.14549,0.057 -0.21097,0.099 -0.0454,0.0291 -0.12387,0.10449 -0.12387,0.10449"
       id="path37338-5-8-2-0"
       sodipodi:nodetypes="caaac" />
    <path
       style="fill:none;stroke:#000000;stroke-width:0.199999;stroke-linecap:round;stroke-linejoin:round;stroke-dasharray:none"
       d="m 158.11977,135.74439 c 0,0 -0.17848,0.0285 -0.25584,-0.007 -0.0625,-0.029 -0.10524,-0.0933 -0.13858,-0.15397 -0.0139,-0.0253 -0.0235,-0.0836 -0.0235,-0.0836"
       id="path37340-4-0-6-2"
       sodipodi:nodetypes="caac" />
    <path
       style="fill:none;stroke:#000000;stroke-width:0.199999;stroke-linecap:round;stroke-linejoin:round;stroke-dasharray:none"
       d="m 157.44341,135.19497 c 0,0 -0.19718,-0.0147 -0.2783,-0.0646 -0.099,-0.0609 -0.1633,-0.17249 -0.22364,-0.26767"
       id="path37342-7-4-1-1"
       sodipodi:nodetypes="cac" />
    <path
       style="fill:none;stroke:#000000;stroke-width:0.199999;stroke-linecap:round;stroke-linejoin:round;stroke-dasharray:none"
       d="m 156.83736,134.43031 c 0.007,-0.0225 -0.007,-0.11875 -0.0336,-0.16986 -0.0391,-0.0756 -0.0952,-0.15852 -0.17596,-0.18409 -0.0693,-0.0219 -0.15471,1e-5 -0.21443,0.0422 -0.0441,0.0312 -0.0832,0.13959 -0.0832,0.13959"
       id="path37344-6-7-0-0"
       sodipodi:nodetypes="caaac" />
    <path
       style="fill:none;stroke:#000000;stroke-width:0.199999;stroke-linecap:round;stroke-linejoin:round;stroke-dasharray:none"
       d="m 155.89365,134.26929 c -0.16105,-0.0455 -0.45891,-0.10507 -0.6469,-0.237 -0.40086,-0.28137 -0.57505,-0.65797 -0.94448,-1.12575"
       id="path37346-5-6-6-5"
       sodipodi:nodetypes="cac" />
    <path
       style="fill:none;stroke:#000000;stroke-width:0.199999;stroke-linecap:round;stroke-linejoin:round;stroke-dasharray:none"
       d="m 154.20805,132.52353 c 0.003,-0.0162 -0.0186,-0.19911 -0.0751,-0.2752 -0.0339,-0.0457 -0.0911,-0.0706 -0.14434,-0.0901 -0.0671,-0.0246 -0.14823,-0.0631 -0.21228,-0.0306 -0.056,0.0284 -0.073,0.10558 -0.0898,0.16634 -0.0345,0.12488 -0.0488,0.26282 -0.0169,0.388 0.0219,0.086 0.0651,0.17661 0.1374,0.22721 0.039,0.0273 0.14011,0.0274 0.14011,0.0274"
       id="path37348-6-8-1-1"
       sodipodi:nodetypes="caaaaaac" />
    <path
       style="fill:none;stroke:#000000;stroke-width:0.199999;stroke-linecap:round;stroke-linejoin:round;stroke-dasharray:none"
       d="m 156.58338,134.88201 c -0.0115,0.0205 -0.089,0.0814 -0.145,0.0943 -0.0721,0.0166 -0.15604,0.01 -0.21959,-0.0279 -0.0596,-0.0352 -0.10401,-0.10099 -0.12305,-0.16798 -0.013,-0.0458 0.0109,-0.1426 0.0109,-0.1426"
       id="path37350-9-9-5-1"
       sodipodi:nodetypes="caaac" />
    <path
       style="fill:none;stroke:#000000;stroke-width:0.199999;stroke-linecap:round;stroke-linejoin:round;stroke-dasharray:none"
       d="m 159.30593,138.26863 c 0,0 -1.0396,0.49724 -1.4993,0.83882 -0.30372,0.22568 -0.69825,0.59778 -1.04749,0.94663"
       id="path37775-3-0-9-0"
       sodipodi:nodetypes="csc" />
    <path
       style="fill:none;stroke:#000000;stroke-width:0.199999;stroke-linecap:round;stroke-linejoin:round;stroke-dasharray:none"
       d="m 154.55473,139.94213 c 0,0 0.28901,-1.42032 0.32161,-2.14138 0.0213,-0.47143 -0.0831,-1.41328 -0.0831,-1.41328"
       id="path37781-5-6-4-8"
       sodipodi:nodetypes="cac" />
    <path
       style="fill:none;stroke:#000000;stroke-width:0.199999;stroke-linecap:round;stroke-linejoin:round;stroke-dasharray:none"
       d="m 154.58487,143.99325 c 0.19694,0.0671 0.40124,0.23225 0.44764,0.43518 0.0392,0.17116 -0.0383,0.39189 -0.18045,0.4949 -0.15553,0.11271 -0.39714,0.0894 -0.57575,0.0189 -0.17942,-0.0708 -0.36794,-0.22047 -0.40959,-0.4089 -0.0366,-0.16555 0.0417,-0.37274 0.17484,-0.47763"
       id="path42371-8-9-5"
       sodipodi:nodetypes="caaaac" />
    <path
       style="fill:none;stroke:#000000;stroke-width:0.199999;stroke-linecap:round;stroke-linejoin:round;stroke-dasharray:none"
       d="m 156.22456,143.51398 c -0.0366,-0.16555 0.0417,-0.37274 0.17485,-0.47763 0.14323,-0.11285 0.37077,-0.12122 0.54331,-0.0624 0.19693,0.0671 0.40123,0.23224 0.44764,0.43517 0.0392,0.17117 -0.0383,0.3919 -0.18046,0.49491 -0.15552,0.11271 -0.39713,0.0893 -0.57574,0.0189"
       id="path42397-7-0-0"
       sodipodi:nodetypes="caaaac" />
    <path
       style="fill:none;stroke:#000000;stroke-width:0.199999;stroke-linecap:round;stroke-linejoin:round;stroke-dasharray:none"
       d="m 155.28856,142.07126 c -0.17942,-0.0708 -0.36794,-0.22047 -0.40959,-0.40891 -0.0366,-0.16554 0.0417,-0.37274 0.17484,-0.47763 0.14324,-0.11284 0.37077,-0.12121 0.54331,-0.0624 0.19694,0.0671 0.40124,0.23225 0.44764,0.43518 0.0392,0.17117 -0.0383,0.39189 -0.18045,0.49491"
       id="path42399-9-9-6"
       sodipodi:nodetypes="caaaac" />
    <path
       style="fill:none;stroke:#000000;stroke-width:0.199999;stroke-linecap:round;stroke-linejoin:round;stroke-dasharray:none"
       d="m 153.87416,142.64678 c 0.0392,0.17117 -0.0383,0.3919 -0.18045,0.49491 -0.15553,0.11271 -0.39714,0.0893 -0.57575,0.0189 -0.17942,-0.0708 -0.36794,-0.22048 -0.40959,-0.40891 -0.0366,-0.16554 0.0417,-0.37274 0.17484,-0.47763 0.14324,-0.11285 0.37077,-0.12121 0.54331,-0.0624"
       id="path42401-0-1-4"
       sodipodi:nodetypes="caaaac" />
    <path
       style="fill:none;stroke:#000000;stroke-width:0.199999;stroke-linecap:round;stroke-linejoin:round;stroke-dasharray:none"
       d="m 156.33372,145.32933 -1.49473,0.67682 c -0.19386,0.0878 -0.42804,0.11543 -0.63494,0.0658 -0.20619,-0.0495 -0.41572,-0.1697 -0.53409,-0.34571 m -0.40778,-0.60639 -1.09561,-1.6292 m -0.30658,-0.45589 c -0.13901,-0.20672 -0.1767,-0.48971 -0.13451,-0.7353 0.0306,-0.17829 0.10296,-0.40184 0.27019,-0.47061 l 1.43355,-0.58946 m 0.58065,-0.23877 1.27292,-0.52342 c 0.23231,-0.0955 0.51753,-0.0419 0.75188,0.0484 0.21766,0.0839 0.41673,0.24241 0.54797,0.43533 l 1.12799,1.65795 m 0.58718,0.86307 c 0.14665,0.21554 0.15619,0.54354 0.048,0.78081 -0.0864,0.18954 -0.30617,0.29415 -0.49584,0.38003"
       id="path42403-3-7-6"
       sodipodi:nodetypes="csaccccasccsasccac" />
    <path
       style="fill:none;stroke:#000000;stroke-width:0.199999;stroke-linecap:round;stroke-linejoin:round;stroke-dasharray:none"
       d="m 156.07692,139.90856 c 0,0 0.5276,-0.75096 0.83526,-1.0898 0.25775,-0.28388 0.84136,-0.78435 0.84136,-0.78435"
       id="path43047-3-7-2"
       sodipodi:nodetypes="cac" />
    <path
       style="fill:none;stroke:#000000;stroke-width:0.199999;stroke-linecap:round;stroke-linejoin:round;stroke-dasharray:none"
       d="m 155.47112,138.74375 c 0,0 -0.0401,0.29112 -0.0682,0.43527 -0.0413,0.212 -0.14729,0.63097 -0.14729,0.63097"
       id="path43049-3-1-5"
       sodipodi:nodetypes="cac" />
    <path
       style="fill:none;stroke:#000000;stroke-width:0.199999;stroke-linecap:round;stroke-linejoin:round;stroke-dasharray:none"
       d="m 155.89183,146.10845 1.97052,-0.92293 c 0.15797,-0.074 0.38145,-0.12721 0.52264,-0.0248 0.11543,0.0838 0.16526,0.27968 0.11358,0.41267 l -0.31631,0.814 m -0.30696,0.78995 c -0.0543,0.13968 -0.18152,0.24092 -0.29357,0.34037 -0.1615,0.14336 -0.34251,0.26869 -0.53727,0.36191 m -1.34043,0.64155 -1.41029,0.67498 c -0.17291,0.0828 -0.36046,0.2081 -0.5487,0.17205 -0.16034,-0.0307 -0.43003,-0.1533 -0.3802,-0.30887 l 0.5249,-1.63886 c 0.065,-0.20297 0.18361,-0.39871 0.34418,-0.53877 0.12359,-0.10779 0.2982,-0.13643 0.44668,-0.20597"
       id="path43051-7-1-8"
       sodipodi:nodetypes="csasccaccsassac" />
    <path
       style="fill:none;stroke:#000000;stroke-width:0.199999;stroke-linecap:round;stroke-linejoin:round;stroke-dasharray:none"
       d="m 155.51485,147.59994 c 0,0 0.23658,0.0295 0.5403,-0.15731 0.30373,-0.18687 0.37159,-0.39801 0.37159,-0.39801"
       id="path43701-3-5-6"
       sodipodi:nodetypes="czc" />
    <path
       style="fill:none;stroke:#000000;stroke-width:0.199999;stroke-linecap:round;stroke-linejoin:round;stroke-dasharray:none"
       d="m 149.90696,143.20613 c 0,0 -1.40617,-2.40434 -1.85539,-3.71311 -0.41963,-1.22259 -0.76242,-3.80235 -0.76242,-3.80235"
       id="path45029-2-9-2"
       sodipodi:nodetypes="cac" />
    <path
       style="fill:none;stroke:#000000;stroke-width:0.199999;stroke-linecap:round;stroke-linejoin:round;stroke-dasharray:none"
       d="m 153.69672,136.20246 c 0,0 -0.28279,-0.6601 -0.46253,-0.9699 -0.22062,-0.38026 -0.75167,-1.08363 -0.75167,-1.08363"
       id="path45031-6-7-8"
       sodipodi:nodetypes="cac" />
    <path
       style="fill:none;stroke:#000000;stroke-width:0.199999;stroke-linecap:round;stroke-linejoin:round;stroke-dasharray:none"
       d="m 154.72544,128.10812 c 0,0 -0.75855,-0.44293 -1.15012,-0.64127 -0.40097,-0.20311 -1.2262,-0.56098 -1.2262,-0.56098"
       id="path45033-5-7-4"
       sodipodi:nodetypes="cac" />
    <path
       style="fill:none;stroke:#000000;stroke-width:0.199999;stroke-linecap:round;stroke-linejoin:round;stroke-dasharray:none"
       d="m 163.10152,134.72198 c 0,0 0.59501,-0.85087 0.78847,-1.32795 0.17496,-0.43146 0.32479,-1.35848 0.32479,-1.35848"
       id="path45832-2-6-7"
       sodipodi:nodetypes="cac" />
    <path
       style="fill:none;stroke:#000000;stroke-width:0.199999;stroke-linecap:round;stroke-linejoin:round;stroke-dasharray:none"
       d="m 155.01841,131.3653 c 0,0 0.14218,-0.77072 0.29182,-1.1297 0.1685,-0.40424 0.67222,-1.1288 0.67222,-1.1288"
       id="path45834-6-7-2"
       sodipodi:nodetypes="cac" />
    <path
       style="fill:none;stroke:#000000;stroke-width:0.199999;stroke-linecap:round;stroke-linejoin:round;stroke-dasharray:none"
       d="m 159.42866,127.40271 c 0,0 1.20562,0.12155 1.7484,0.36648 0.68931,0.31103 1.81831,1.35696 1.81831,1.35696"
       id="path45836-5-3-4"
       sodipodi:nodetypes="cac" />
    <path
       style="fill:#fff6e5;fill-opacity:1;stroke:none;stroke-width:0.1;stroke-linecap:round;stroke-linejoin:round"
       d="m 108.64794,146.14912 c -0.6424,1.85032 -2.11024,3.74008 -3.98028,4.32256 -1.88115,0.58593 -4.37015,0.0862 -5.764909,-1.30547 -1.065029,-1.06266 -1.119138,-2.89953 -1.006649,-4.39983 0.105934,-1.41285 1.901397,-2.58182 1.555235,-3.9557 -0.210482,-0.83538 -1.252776,-1.19648 -1.972457,-1.67001 -1.234155,-0.81203 -3.045045,-0.81994 -3.968652,-1.97298 -1.396116,-1.74292 -1.862985,-4.28764 -1.600858,-6.50534 0.225068,-1.90416 1.025468,-4.07518 2.638869,-5.11123 1.469595,-0.94371 3.561678,-0.75355 5.233628,-0.24869 0.831113,0.25097 1.243593,1.39103 2.098393,1.54284 1.14683,0.20368 2.33577,-1.5362 3.35585,-0.97394 0.36692,0.20224 0.41306,0.79373 0.34833,1.20766 -0.14165,0.90559 -1.29357,1.39829 -1.53242,2.28323 -0.32646,1.20955 -0.45268,2.70682 0.23987,3.75084 0.285,0.42963 1.2302,0.19896 1.38369,0.69115 0.22309,0.71541 -0.8868,1.24667 -1.08372,1.96972 -0.2027,0.74431 -0.34304,1.59309 -0.0667,2.3133 0.36948,0.96283 1.10387,2.24774 2.13513,2.23902 1.11748,-0.009 1.43407,-1.72596 2.27233,-2.465 0.49633,-0.4376 1.05507,-1.50197 1.61664,-1.15199 0.7346,0.45782 -0.20115,1.72521 -0.42126,2.56233 -0.40863,1.55414 -1.43826,2.93474 -1.65883,4.52649 -0.10789,0.7785 0.4365,1.60857 0.17873,2.35104 z"
       id="path373"
       sodipodi:nodetypes="aaaaaaaaaaaaaaaaaaaaaaaa" />
    <path
       style="fill:#ffeecc;fill-opacity:1;stroke:none;stroke-width:0.1;stroke-linecap:round;stroke-linejoin:round"
       d="m 105.05223,149.11701 c 1.13257,-0.93742 2.12739,-2.14456 2.66902,-3.51135 0.22831,-0.57614 0.0216,-1.2538 0.1942,-1.849 0.2255,-0.77747 0.9824,-1.37232 1.078,-2.17616 0.0573,-0.48207 0.12559,-1.23305 -0.32232,-1.42029 -0.62483,-0.26119 -1.04964,1.0361 -1.7259,1.07184 -1.12518,0.0595 -2.36604,-0.57033 -3.04354,-1.47064 -0.62761,-0.834 -0.8183,-2.08372 -0.52836,-3.08642 0.14716,-0.50891 0.95708,-0.66253 1.06282,-1.18163 0.0772,-0.37917 -0.31535,-0.71596 -0.37686,-1.098 -0.12891,-0.80064 0.0452,-1.62194 0.0276,-2.4327 -0.0199,-0.91469 0.24692,-1.91653 -0.15053,-2.74061 -0.2523,-0.52311 -0.83156,-0.81725 -1.30198,-1.15786 -1.12512,-0.81467 -2.23635,-1.84475 -3.60287,-2.09416 -1.307414,-0.23863 -2.747933,0.0543 -3.932582,0.65669 -1.203926,0.6122 -2.464766,1.55558 -2.893671,2.83631 -0.581145,1.73533 -0.0082,3.79507 0.815575,5.42924 0.622186,1.23427 1.809491,2.12503 2.930171,2.93412 0.907307,0.65505 2.01954,0.9672 3.001372,1.50413 0.481518,0.26332 1.251525,0.31746 1.415295,0.84128 0.43551,1.39301 -1.631244,2.53535 -1.819165,3.98271 -0.171687,1.32231 -0.114602,2.86991 0.677692,3.94242 0.866873,1.17346 2.446203,1.97164 3.905123,1.97645 0.71527,0.002 1.3699,-0.5003 1.92091,-0.95637 z"
       id="path374"
       sodipodi:nodetypes="aaaaaaaaaaaaaaaaaaaaaaaa" />
    <path
       id="path375"
       style="fill:#ffffcc;fill-opacity:1;stroke-width:0.1;stroke-linecap:round;stroke-linejoin:round"
       d="m 96.886745,126.37952 c 0.273728,-0.0354 0.550355,-0.0288 0.811353,0.0277 1.643934,0.3561 3.248762,1.47697 4.117732,2.91719 0.69084,1.14498 1.33506,2.91295 0.52525,3.97712 -0.39436,0.0329 -0.79145,0.0195 -1.18694,0.0331 -0.73421,0.0253 -1.469847,0.15237 -2.20188,0.0905 -0.337581,-0.0285 -0.746995,0.0202 -0.994072,-0.21156 -0.345387,-0.32402 -0.157931,-0.95196 -0.384101,-1.36805 -0.171892,-0.31623 -0.544528,-0.49234 -0.713468,-0.81016 -0.390564,-0.73474 -0.09119,-1.78156 -0.629903,-2.41575 -0.328524,-0.38674 -1.264241,-0.12602 -1.391601,-0.61723 -0.128174,-0.49434 0.488901,-0.95301 0.922323,-1.2231 0.331253,-0.20642 0.725244,-0.34807 1.125308,-0.39979 z" />
    <path
       id="path376"
       style="fill:#fff4bd;fill-opacity:1;stroke-width:0.1;stroke-linecap:round;stroke-linejoin:round"
       d="m 96.692183,126.68994 c 0.669116,-0.0517 1.336454,0.11861 1.969161,0.3218 1.512156,0.52743 2.910376,1.55374 3.649916,2.99976 0.36147,0.75337 0.63629,1.63201 0.40406,2.46442 -0.10359,0.27849 -0.29153,0.7332 -0.66325,0.62187 -0.42376,-0.1313 -0.83947,-0.47769 -0.89591,-0.93748 0.045,-0.34301 0.37478,-0.79746 -0.0459,-1.04192 -0.48419,-0.31899 -1.204341,-0.14469 -1.583978,-0.64477 -0.423561,-0.5631 -0.278175,-1.3906 -0.793776,-1.89918 -0.377882,-0.34448 -0.907817,-0.13428 -1.349251,-0.0807 -0.323076,0.0194 -0.647829,0.0153 -0.971685,0.0297 -0.417282,0.0401 -0.730192,-0.3272 -0.771054,-0.71499 -0.08994,-0.41394 0.162696,-0.83883 0.55579,-0.98381 0.157043,-0.0702 0.325532,-0.11299 0.495904,-0.13465 z m 0.224639,2.00574 c 0.422292,-0.0231 0.953336,-0.0751 1.233535,0.31618 0.33387,0.45664 0.402649,1.08979 0.232849,1.6223 -0.1187,0.42379 -0.639087,0.65689 -1.028227,0.44673 -0.625573,-0.42162 -0.848887,-1.2589 -0.755516,-1.9766 0.04781,-0.16536 0.162869,-0.33155 0.317362,-0.40861 z"
       sodipodi:nodetypes="sssssssssssssaaaaaaaa" />
    <path
       style="fill:#ffffcc;fill-opacity:1;stroke-width:0.1;stroke-linecap:round;stroke-linejoin:round"
       d="m 102.96695,146.00897 c 0.21637,-0.10897 0.33356,-0.40865 0.32371,-0.65071 -0.0198,-0.48704 -0.48522,-0.84638 -0.75551,-1.25201 -0.2528,-0.37938 -0.6637,-0.67077 -0.80866,-1.10301 -0.23439,-0.69892 0.34261,-1.57647 -0.0322,-2.21128 -0.10992,-0.18619 -0.35059,-0.3604 -0.56329,-0.32159 -0.96981,0.17695 -1.305948,1.48106 -1.885032,2.27888 -0.220457,0.30372 -0.571857,0.5771 -0.602468,0.95115 -0.0282,0.34457 0.178775,0.69345 0.405142,0.95475 0.391951,0.45245 0.976078,0.71899 1.536258,0.92999 0.75471,0.28427 1.66171,0.78659 2.38198,0.42383 z"
       id="path377"
       sodipodi:nodetypes="aaaaaaaaaaa" />
    <path
       style="fill:#fff4bd;fill-opacity:1;stroke-width:0.1;stroke-linecap:round;stroke-linejoin:round"
       d="m 102.91838,145.62291 c 0.2521,-0.13088 0.56254,-0.36444 0.55302,-0.64833 -0.0156,-0.46412 -0.52625,-0.87059 -0.97311,-0.99694 -0.21944,-0.062 -0.44343,0.22678 -0.66346,0.16687 -0.13866,-0.0377 -0.25339,-0.16931 -0.30707,-0.30261 -0.0972,-0.24134 -0.0543,-0.53124 0.0212,-0.78021 0.0981,-0.32381 0.43583,-0.53744 0.54046,-0.85921 0.1079,-0.33185 0.26069,-0.75203 0.0703,-1.0445 -0.14243,-0.21884 -0.48421,-0.3377 -0.73594,-0.26833 -0.37798,0.10415 -0.67139,0.52652 -0.74269,0.91204 -0.0447,0.24194 0.30297,0.46606 0.23056,0.70121 -0.0966,0.31351 -0.62419,0.31135 -0.78011,0.59998 -0.226514,0.4193 -0.435845,1.08003 -0.10772,1.42566 0.29257,0.30818 0.88286,-0.1949 1.27445,-0.0299 0.25339,0.10676 0.36319,0.41389 0.56216,0.60367 0.20828,0.19864 0.38446,0.47155 0.65902,0.55788 0.12741,0.0401 0.28039,0.0242 0.39893,-0.0373 z"
       id="path378"
       sodipodi:nodetypes="aaaaaaaaaaaaaaaaa" />
    <path
       id="path379"
       style="fill:#ffe6b3;fill-opacity:1;stroke:none;stroke-width:0.1;stroke-linecap:round;stroke-linejoin:round"
       d="m 98.03945,125.87243 c 1.61763,-0.16395 3.14224,0.80264 4.01648,2.11572 0.93395,1.32807 1.96825,2.82465 1.85013,4.52102 -0.18235,0.76606 -0.375,1.52513 -0.40567,2.31554 -0.5491,1.11124 -1.35795,-0.54532 -1.40267,-1.1758 -0.19269,-1.18131 -0.22628,-3.00991 -1.28174,-3.73597 -0.893391,-0.61459 -0.818459,-1.6991 -1.928784,-1.95055 -0.787779,0.0213 -2.497399,0.88358 -2.410103,-0.55523 0.138017,-0.7615 0.76815,-1.45737 1.562357,-1.53473 z m -1.25629,3.05496 c 1.053113,-0.17356 1.481914,1.36801 0.810976,2.02762 -0.64514,0.66882 -1.672726,0.64408 -2.530633,0.80606 -1.110103,0.0968 -2.305308,0.1161 -3.332169,-0.36131 -0.721524,-0.71912 0.208078,-2.00452 1.141443,-1.55755 0.7888,0.63688 2.014278,0.52765 2.662789,-0.25832 0.29107,-0.38561 0.795335,-0.55168 1.247594,-0.6565 z m 4.70069,6.5246 c 1.06191,0.0869 0.15026,1.51826 -0.39632,1.83475 -1.388391,1.18538 -3.308973,1.28904 -5.040713,1.13796 -1.20824,-0.55949 0.411738,-1.95741 1.295571,-1.57958 1.013385,0.2273 1.937982,-0.26648 2.727072,-0.84669 0.43279,-0.26284 0.92827,-0.41817 1.41439,-0.54644 z m 0.0289,5.69794 c 0.88059,-0.24266 2.03083,1.17392 0.56895,1.13159 -0.82146,0.40961 -1.42343,-0.86593 -0.56895,-1.13159 z m 2.37424,0.7225 c 1.09211,-0.17903 1.22991,1.60767 0.14648,1.70003 -0.86957,0.0288 -1.14986,-1.6336 -0.14648,-1.70003 z m -3.3572,0.83714 c 1.19927,-0.24763 1.16791,1.39221 0.26846,1.75208 -1.015835,0.50071 -1.595073,-1.30946 -0.5724,-1.66144 l 0.12735,-0.0528 0.17658,-0.0378 z m 5.5464,-0.63408 c 0.80821,0.23441 0.95449,1.36194 1.0907,2.09264 0.18237,1.10124 -0.46198,2.05896 -1.07907,2.89846 -0.39826,0.79536 -1.59785,2.49049 -2.40223,1.19511 -0.63483,-0.9331 -0.58688,-2.22844 0.14234,-3.09953 0.72968,-0.81216 1.16686,-1.7998 1.68274,-2.7415 0.13814,-0.17771 0.33553,-0.3232 0.56552,-0.34518 z m -3.67987,1.96885 c 1.00568,-0.16809 1.29419,1.53055 0.19166,1.52415 -0.71599,-0.0221 -0.98145,-1.38797 -0.19166,-1.52415 z m -3.523925,0.83867 c 1.384005,0.11403 0.501929,1.98139 1.647435,2.46126 0.32862,0.50038 2.13003,1.32472 0.98576,1.78977 -0.86799,-0.17213 -1.605301,-0.79025 -2.225436,-1.39676 -0.556546,-0.66872 -0.912794,-1.59206 -0.78678,-2.46443 0.05277,-0.17572 0.185658,-0.35886 0.379021,-0.38984 z"
       sodipodi:nodetypes="cccccsccccccccccccccccccccccsccccscccccccccccccccc" />
    <path
       style="fill:#ffe6b3;fill-opacity:1;stroke:none;stroke-width:0.1;stroke-linecap:round;stroke-linejoin:round"
       d="m 102.96977,140.40916 c 0.89521,-0.3105 -0.23398,-1.88653 -0.22115,-2.83397 0.009,-0.62671 0.77908,-1.6375 0.19701,-1.86995 -0.48549,-0.19388 -0.80921,0.74189 -0.95524,1.24386 -0.21526,0.73999 -0.0517,1.57617 0.20485,2.3029 0.15447,0.43769 0.33601,1.30926 0.77453,1.15716 z"
       id="path380"
       sodipodi:nodetypes="aaaaaa" />
    <path
       id="path381"
       style="fill:#ffdd99;fill-opacity:1;stroke:none;stroke-width:0.1;stroke-linecap:round;stroke-linejoin:round"
       d="m 100.96645,135.96314 c 0.6633,-0.14224 0.86659,0.63279 0.41021,1.02395 0.009,0.432 0.26949,0.84936 0.22404,1.30541 -0.0124,0.56762 -0.71216,0.45894 -1.04843,0.24975 -0.498,-0.13606 -0.714394,-0.79897 -1.284686,-0.74778 -0.602468,5.4e-4 -1.173917,0.48945 -1.77605,0.25953 -0.654461,-0.3458 -0.102228,-1.20664 0.52548,-1.02811 0.55869,0.0338 1.18788,0.13966 1.653372,-0.2581 0.419334,-0.28364 0.775084,-0.71126 1.296064,-0.80465 z m 0.63402,5.32453 c 0.51026,-0.17994 1.20731,0.75135 0.49336,0.89426 -0.57726,0.0587 -0.96824,-0.39776 -0.49336,-0.89426 z m 2.07851,1.28791 c 0.42057,0.0117 0.81271,0.93191 0.17855,0.85805 -0.53473,0.36643 -0.70806,-0.82135 -0.17855,-0.85805 z m -3.39231,0.73143 c 0.85138,-0.034 -0.13656,1.31908 -0.27665,0.41684 -0.008,-0.17506 0.0765,-0.3974 0.27665,-0.41684 z m 2.22938,1.09249 c 0.58544,-0.14049 1.08058,0.89654 0.39143,1.06245 -0.67361,0.24904 -1.09808,-0.86352 -0.39143,-1.06246 z m -3.608112,1.61956 c 0.800315,-0.0434 0.467173,1.0001 0.930838,1.39644 0.328704,0.54356 -0.467176,0.4725 -0.545348,0.0353 -0.167618,-0.44675 -0.743523,-0.80507 -0.596303,-1.31823 0.04604,-0.0706 0.130515,-0.10347 0.210813,-0.11353 z m 4.774262,0.335 c 0.5971,0.0113 0.7329,1.13554 1.40013,0.84036 0.23539,-0.31531 0.98414,-0.90853 0.90342,-0.093 -0.21862,0.66268 -0.55233,1.33547 -1.10114,1.78576 -0.43983,0.38228 -1.11778,0.12313 -1.31919,-0.39327 -0.29083,-0.58004 -0.47655,-1.31157 -0.18681,-1.92425 0.0662,-0.10864 0.17559,-0.19597 0.30359,-0.21558 z" />
    <path
       style="fill:none;stroke:#000000;stroke-width:0.199999;stroke-linecap:round;stroke-linejoin:round;stroke-dasharray:none"
       d="m 104.68998,145.92909 c 0,0 0.041,0.19172 -0.0851,0.45343 -0.12614,0.26171 -0.28901,0.33191 -0.28901,0.33191"
       id="path382"
       sodipodi:nodetypes="czc" />
    <path
       style="fill:none;stroke:#000000;stroke-width:0.199999;stroke-linecap:round;stroke-linejoin:round;stroke-dasharray:none"
       d="m 105.48826,145.39273 c 0,0 0.041,0.19171 -0.0852,0.45342 -0.12614,0.26171 -0.289,0.33191 -0.289,0.33191"
       id="path383"
       sodipodi:nodetypes="czc" />
    <path
       style="fill:none;stroke:#000000;stroke-width:0.199999;stroke-linecap:round;stroke-linejoin:round;stroke-dasharray:none"
       d="m 106.27582,144.799 c 0,0 0.041,0.19172 -0.0851,0.45342 -0.12615,0.26171 -0.28902,0.33191 -0.28902,0.33191"
       id="path384"
       sodipodi:nodetypes="czc" />
    <path
       style="fill:none;stroke:#000000;stroke-width:0.199999;stroke-linecap:round;stroke-linejoin:round;stroke-dasharray:none"
       d="m 104.23583,145.75316 c -0.17091,0.27365 -0.26522,0.59181 -0.34479,0.90454 -0.0444,0.17464 -0.12028,0.36206 -0.0723,0.53577 l 0.41192,1.49102 c 0.0231,0.0836 0.15678,0.11845 0.24093,0.0978 0.14077,-0.0346 0.20749,-0.20691 0.28141,-0.33165 m 0.67194,-1.13371 1.08971,-1.83863 c 0.0842,-0.14208 0.15186,-0.29717 0.18855,-0.45823 0.0233,-0.10248 0.026,-0.20998 0.0182,-0.3148 v 0 l -0.0815,-1.08864 m -0.0528,-0.70519 c -0.008,-0.109 -0.0836,-0.24132 -0.18973,-0.26741 -0.1172,-0.0288 -0.25857,0.0622 -0.32252,0.16455 l -0.81251,1.30096"
       id="path385"
       sodipodi:nodetypes="cassaccsassccasc" />
    <path
       style="fill:none;stroke:#000000;stroke-width:0.199999;stroke-linecap:round;stroke-linejoin:round;stroke-dasharray:none"
       d="m 103.27391,133.64324 c 0.0102,0.21587 -0.0711,0.45088 -0.14222,0.65202 -0.4151,1.17426 -1.77694,1.78242 -2.86934,2.3662 -0.919171,0.49121 -1.952678,0.96881 -2.993879,0.89918 -0.373584,-0.025 -0.569662,-0.0273 -0.934834,-0.15422 m -2.050712,-1.29833 c -1.161392,-1.16476 -1.849455,-2.60022 -2.005688,-4.25049 m 0.613691,-2.43345 c 0.237266,-0.43103 0.370684,-0.54802 0.69871,-0.88826 1.033296,-1.07177 2.457112,-2.08961 3.944665,-2.07843 0.631208,0.005 1.086786,-0.0109 1.735635,0.30549 m 2.077202,1.40353 c 0.35502,0.22395 0.4725,0.42122 0.71195,0.74677 0.50639,0.68847 0.99603,1.64694 1.03875,2.55317"
       id="path386"
       sodipodi:nodetypes="csasccccssccsc" />
    <path
       style="fill:none;stroke:#000000;stroke-width:0.199999;stroke-linecap:round;stroke-linejoin:round;stroke-dasharray:none"
       d="m 98.472524,137.88337 c 0.697143,0.0175 1.347227,-0.50588 2.006906,-0.79247 0.51041,-0.22176 1.07565,-0.36526 1.50795,-0.71657 0.21177,-0.17209 0.43706,-0.3696 0.59054,-0.60076"
       id="path387"
       sodipodi:nodetypes="casc" />
    <path
       style="fill:none;stroke:#000000;stroke-width:0.199999;stroke-linecap:round;stroke-linejoin:round;stroke-dasharray:none"
       d="m 100.51869,137.57896 c 0.0747,0.12668 0.18792,0.31786 0.23112,0.42968 0.0702,0.18162 -0.0157,0.36373 0.11304,0.44842 0.15523,0.1021 0.42183,0.0452 0.55008,-0.0892 0.10808,-0.1133 0.11772,-0.324 0.0535,-0.46686 -0.0497,-0.11048 -0.18855,-0.0927 -0.2975,-0.20855 -0.0681,-0.0724 -0.14061,-0.24598 -0.21563,-0.34234"
       id="path388"
       sodipodi:nodetypes="csaaasc" />
    <path
       style="fill:none;stroke:#000000;stroke-width:0.199999;stroke-linecap:round;stroke-linejoin:round;stroke-dasharray:none"
       d="m 95.644515,136.93532 c 0,0 0.100405,0.14415 0.06808,0.20977 -0.06038,0.12257 -0.251139,0.15468 -0.385707,0.13299 -0.175383,-0.0282 -0.343408,-0.16483 -0.42684,-0.32313 -0.07451,-0.14138 -0.126948,-0.35859 -0.02312,-0.47858 0.07337,-0.0848 0.334525,-0.0295 0.334525,-0.0295"
       id="path389"
       sodipodi:nodetypes="caaaac" />
    <path
       style="fill:none;stroke:#000000;stroke-width:0.199999;stroke-linecap:round;stroke-linejoin:round;stroke-dasharray:none"
       d="m 92.568922,130.39008 c 0,0 -0.01901,-0.17455 -0.08604,-0.20603 -0.125604,-0.059 -0.292542,0.0319 -0.395123,0.1247 -0.07645,0.0691 -0.117088,0.18125 -0.1233,0.28485 -0.0098,0.16412 0.02917,0.35218 0.139867,0.47376 0.08354,0.0917 0.229089,0.17932 0.34456,0.13678 0.05366,-0.0197 0.08066,-0.15225 0.08066,-0.15225"
       id="path390"
       sodipodi:nodetypes="caaaaac" />
    <path
       style="fill:none;stroke:#000000;stroke-width:0.199999;stroke-linecap:round;stroke-linejoin:round;stroke-dasharray:none"
       d="m 99.998535,127.60443 c 0,0 -0.18085,-0.13429 -0.165631,-0.22641 0.02272,-0.13738 0.206366,-0.20719 0.341706,-0.23539 0.1653,-0.0345 0.35701,0.003 0.49843,0.0967 0.12287,0.0818 0.25849,0.22133 0.24733,0.36876 -0.01,0.13265 -0.14118,0.26064 -0.26962,0.29093 -0.0963,0.0227 -0.27896,-0.10463 -0.27896,-0.10463"
       id="path391"
       sodipodi:nodetypes="caaaaac" />
    <path
       style="fill:none;stroke:#000000;stroke-width:0.199999;stroke-linecap:round;stroke-linejoin:round;stroke-dasharray:none"
       d="m 92.802332,130.78459 c 0,0 0.187736,0.2766 0.336496,0.31029 0.199877,0.0453 0.398392,-0.10125 0.587388,-0.18146"
       id="path392"
       sodipodi:nodetypes="cac" />
    <path
       style="fill:none;stroke:#000000;stroke-width:0.199999;stroke-linecap:round;stroke-linejoin:round;stroke-dasharray:none"
       d="m 93.922081,130.48535 c 0,0 0.06713,-0.31034 0.193486,-0.35825 0.115414,-0.0438 0.2552,0.0463 0.349075,0.12786 0.0519,0.0451 0.09793,0.18199 0.09793,0.18199"
       id="path393"
       sodipodi:nodetypes="caac" />
    <path
       style="fill:none;stroke:#000000;stroke-width:0.199999;stroke-linecap:round;stroke-linejoin:round;stroke-dasharray:none"
       d="m 94.113726,131.14761 c 0,0 0.179216,0.0896 0.273239,0.0793 0.08935,-0.01 0.23646,-0.12938 0.23646,-0.12938"
       id="path394"
       sodipodi:nodetypes="cac" />
    <path
       style="fill:none;stroke:#000000;stroke-width:0.199999;stroke-linecap:round;stroke-linejoin:round;stroke-dasharray:none"
       d="m 94.881638,130.76758 c 0,0 0.155087,0.0504 0.234246,0.0439 0.24218,-0.0202 0.451321,-0.12354 0.684587,-0.25076"
       id="path395"
       sodipodi:nodetypes="cac" />
    <path
       style="fill:none;stroke:#000000;stroke-width:0.199999;stroke-linecap:round;stroke-linejoin:round;stroke-dasharray:none"
       d="m 95.997071,130.09111 c 0,0 -0.02212,-0.37261 0.08687,-0.50156 0.09589,-0.11347 0.273745,-0.17238 0.419941,-0.14601 0.173594,0.0313 0.410917,0.3374 0.410917,0.3374"
       id="path396"
       sodipodi:nodetypes="caac" />
    <path
       style="fill:none;stroke:#000000;stroke-width:0.199999;stroke-linecap:round;stroke-linejoin:round;stroke-dasharray:none"
       d="m 97.281039,130.08958 c 0.233534,-0.07 0.688568,-0.18969 0.980311,-0.38503 0.149076,-0.0998 0.251919,-0.17545 0.372802,-0.38827"
       id="path397"
       sodipodi:nodetypes="cac" />
    <path
       style="fill:none;stroke:#000000;stroke-width:0.199999;stroke-linecap:round;stroke-linejoin:round;stroke-dasharray:none"
       d="m 96.207553,130.66682 c 0,0 0.267676,0.12143 0.409744,0.12079 0.09362,-4.1e-4 0.197483,-0.0208 0.268306,-0.082 0.05866,-0.0507 0.100172,-0.2109 0.100172,-0.2109"
       id="path398"
       sodipodi:nodetypes="caac" />
    <path
       style="fill:none;stroke:#000000;stroke-width:0.199999;stroke-linecap:round;stroke-linejoin:round;stroke-dasharray:none"
       d="m 98.589067,128.9179 c 0,0 -0.102759,-0.21305 -0.07166,-0.31618 0.03255,-0.10793 0.138795,-0.19437 0.244561,-0.23132 0.10846,-0.0379 0.243037,-0.0268 0.343953,0.0294 0.05977,0.0333 0.123516,0.16479 0.123516,0.16479"
       id="path399"
       sodipodi:nodetypes="caaac" />
    <path
       style="fill:none;stroke:#000000;stroke-width:0.199999;stroke-linecap:round;stroke-linejoin:round;stroke-dasharray:none"
       d="m 99.710248,128.75141 c 0.175623,-0.0255 0.254448,-0.053 0.343572,-0.13851 0.0854,-0.0819 0.12601,-0.20656 0.14635,-0.32341"
       id="path400"
       sodipodi:nodetypes="cac" />
    <path
       style="fill:none;stroke:#000000;stroke-width:0.199999;stroke-linecap:round;stroke-linejoin:round;stroke-dasharray:none"
       d="m 99.051015,129.31851 c 0,0 0.300558,0.0404 0.420124,-0.0333 0.04311,-0.0266 0.07927,-0.13019 0.07927,-0.13019"
       id="path401"
       sodipodi:nodetypes="cac" />
    <path
       style="fill:none;stroke:#000000;stroke-width:0.199999;stroke-linecap:round;stroke-linejoin:round;stroke-dasharray:none"
       d="m 96.655231,136.1034 c 0,0 -0.06136,-0.32115 0.03222,-0.42848 0.08481,-0.0973 0.256834,-0.1235 0.378174,-0.079 0.11494,0.0422 0.228208,0.29006 0.228208,0.29006"
       id="path402"
       sodipodi:nodetypes="caac" />
    <path
       style="fill:none;stroke:#000000;stroke-width:0.199999;stroke-linecap:round;stroke-linejoin:round;stroke-dasharray:none"
       d="m 95.677024,136.54103 c 0,0 0.375636,0.15391 0.570016,0.1353 0.123621,-0.0119 0.205656,0.002 0.339604,-0.15326"
       id="path403"
       sodipodi:nodetypes="cac" />
    <path
       style="fill:none;stroke:#000000;stroke-width:0.199999;stroke-linecap:round;stroke-linejoin:round;stroke-dasharray:none"
       d="m 97.000435,136.52189 c 0,0 0.209996,0.045 0.301156,0.003 0.05245,-0.024 0.09142,-0.0783 0.111917,-0.13259 0.0081,-0.0214 0.0016,-0.0687 0.0016,-0.0687"
       id="path404"
       sodipodi:nodetypes="caac" />
    <path
       style="fill:none;stroke:#000000;stroke-width:0.199999;stroke-linecap:round;stroke-linejoin:round;stroke-dasharray:none"
       d="m 97.760714,136.08953 c 0,0 0.518073,-0.01 0.757449,-0.0964 0.0996,-0.036 0.164329,-0.0818 0.268045,-0.17065"
       id="path405"
       sodipodi:nodetypes="cac" />
    <path
       style="fill:none;stroke:#000000;stroke-width:0.199999;stroke-linecap:round;stroke-linejoin:round;stroke-dasharray:none"
       d="m 98.862686,135.45121 c 0,0 -0.07147,-0.23144 -0.02109,-0.32826 0.04706,-0.0904 0.159499,-0.15193 0.260929,-0.15704 0.07727,-0.004 0.145486,0.057 0.210971,0.099 0.04543,0.0291 0.123863,0.10449 0.123863,0.10449"
       id="path406"
       sodipodi:nodetypes="caaac" />
    <path
       style="fill:none;stroke:#000000;stroke-width:0.199999;stroke-linecap:round;stroke-linejoin:round;stroke-dasharray:none"
       d="m 99.16423,135.74439 c 0,0 0.178483,0.0285 0.255841,-0.007 0.0625,-0.029 0.105246,-0.0933 0.138588,-0.15397 0.0139,-0.0253 0.02346,-0.0836 0.02346,-0.0836"
       id="path407"
       sodipodi:nodetypes="caac" />
    <path
       style="fill:none;stroke:#000000;stroke-width:0.199999;stroke-linecap:round;stroke-linejoin:round;stroke-dasharray:none"
       d="m 99.840598,135.19497 c 0,0 0.197172,-0.0147 0.278302,-0.0646 0.099,-0.0609 0.16329,-0.17249 0.22364,-0.26767"
       id="path408"
       sodipodi:nodetypes="cac" />
    <path
       style="fill:none;stroke:#000000;stroke-width:0.199999;stroke-linecap:round;stroke-linejoin:round;stroke-dasharray:none"
       d="m 100.44665,134.43031 c -0.007,-0.0225 0.007,-0.11875 0.0336,-0.16986 0.0392,-0.0756 0.0952,-0.15852 0.17597,-0.18409 0.0693,-0.0219 0.15471,1e-5 0.21442,0.0422 0.0441,0.0312 0.0832,0.13959 0.0832,0.13959"
       id="path409"
       sodipodi:nodetypes="caaac" />
    <path
       style="fill:none;stroke:#000000;stroke-width:0.199999;stroke-linecap:round;stroke-linejoin:round;stroke-dasharray:none"
       d="m 101.39036,134.26929 c 0.16104,-0.0455 0.4589,-0.10507 0.64689,-0.237 0.40086,-0.28137 0.57506,-0.65797 0.94449,-1.12575"
       id="path410"
       sodipodi:nodetypes="cac" />
    <path
       style="fill:none;stroke:#000000;stroke-width:0.199999;stroke-linecap:round;stroke-linejoin:round;stroke-dasharray:none"
       d="m 103.07595,132.52353 c -0.003,-0.0162 0.0187,-0.19911 0.0751,-0.2752 0.0339,-0.0457 0.0911,-0.0706 0.14433,-0.0901 0.0671,-0.0246 0.14823,-0.0631 0.21228,-0.0306 0.056,0.0284 0.073,0.10558 0.0898,0.16634 0.0345,0.12488 0.0487,0.26282 0.0169,0.388 -0.0219,0.086 -0.0651,0.17661 -0.1374,0.22721 -0.039,0.0273 -0.1401,0.0274 -0.1401,0.0274"
       id="path411"
       sodipodi:nodetypes="caaaaaac" />
    <path
       style="fill:none;stroke:#000000;stroke-width:0.199999;stroke-linecap:round;stroke-linejoin:round;stroke-dasharray:none"
       d="m 100.70062,134.88201 c 0.0115,0.0205 0.089,0.0814 0.145,0.0943 0.0721,0.0166 0.15604,0.01 0.21959,-0.0279 0.0596,-0.0352 0.10402,-0.10099 0.12305,-0.16798 0.013,-0.0458 -0.0109,-0.1426 -0.0109,-0.1426"
       id="path412"
       sodipodi:nodetypes="caaac" />
    <path
       style="fill:none;stroke:#000000;stroke-width:0.199999;stroke-linecap:round;stroke-linejoin:round;stroke-dasharray:none"
       d="m 97.978075,138.26863 c 0,0 1.039604,0.49724 1.4993,0.83882 0.303717,0.22568 0.698245,0.59778 1.047495,0.94663"
       id="path413"
       sodipodi:nodetypes="csc" />
    <path
       style="fill:none;stroke:#000000;stroke-width:0.199999;stroke-linecap:round;stroke-linejoin:round;stroke-dasharray:none"
       d="m 102.72928,139.94213 c 0,0 -0.28902,-1.42032 -0.32162,-2.14138 -0.0213,-0.47143 0.0831,-1.41328 0.0831,-1.41328"
       id="path414"
       sodipodi:nodetypes="cac" />
    <path
       style="fill:none;stroke:#000000;stroke-width:0.199999;stroke-linecap:round;stroke-linejoin:round;stroke-dasharray:none"
       d="m 102.69913,143.99325 c -0.19693,0.0671 -0.40123,0.23225 -0.44764,0.43518 -0.0391,0.17116 0.0383,0.39189 0.18046,0.4949 0.15552,0.11271 0.39714,0.0894 0.57575,0.0189 0.17941,-0.0708 0.36793,-0.22047 0.40958,-0.4089 0.0366,-0.16555 -0.0417,-0.37274 -0.17484,-0.47763"
       id="path415"
       sodipodi:nodetypes="caaaac" />
    <path
       style="fill:none;stroke:#000000;stroke-width:0.199999;stroke-linecap:round;stroke-linejoin:round;stroke-dasharray:none"
       d="m 101.05944,143.51398 c 0.0366,-0.16555 -0.0417,-0.37274 -0.17485,-0.47763 -0.14323,-0.11285 -0.37076,-0.12122 -0.54331,-0.0624 -0.19693,0.0671 -0.401227,0.23224 -0.447633,0.43517 -0.03915,0.17117 0.03833,0.3919 0.180463,0.49491 0.15551,0.11271 0.39713,0.0893 0.57574,0.0189"
       id="path416"
       sodipodi:nodetypes="caaaac" />
    <path
       style="fill:none;stroke:#000000;stroke-width:0.199999;stroke-linecap:round;stroke-linejoin:round;stroke-dasharray:none"
       d="m 101.99544,142.07126 c 0.17942,-0.0708 0.36794,-0.22047 0.40959,-0.40891 0.0366,-0.16554 -0.0417,-0.37274 -0.17484,-0.47763 -0.14323,-0.11284 -0.37077,-0.12121 -0.54331,-0.0624 -0.19693,0.0671 -0.40123,0.23225 -0.44764,0.43518 -0.0391,0.17117 0.0383,0.39189 0.18046,0.49491"
       id="path417"
       sodipodi:nodetypes="caaaac" />
    <path
       style="fill:none;stroke:#000000;stroke-width:0.199999;stroke-linecap:round;stroke-linejoin:round;stroke-dasharray:none"
       d="m 103.40984,142.64678 c -0.0391,0.17117 0.0383,0.3919 0.18046,0.49491 0.15552,0.11271 0.39714,0.0893 0.57574,0.0189 0.17942,-0.0708 0.36794,-0.22048 0.40959,-0.40891 0.0366,-0.16554 -0.0417,-0.37274 -0.17484,-0.47763 -0.14323,-0.11285 -0.37077,-0.12121 -0.54331,-0.0624"
       id="path418"
       sodipodi:nodetypes="caaaac" />
    <path
       style="fill:none;stroke:#000000;stroke-width:0.199999;stroke-linecap:round;stroke-linejoin:round;stroke-dasharray:none"
       d="m 100.95029,145.32933 1.49473,0.67682 c 0.19385,0.0878 0.42804,0.11543 0.63493,0.0658 0.20619,-0.0495 0.41572,-0.1697 0.53409,-0.34571 m 0.40778,-0.60639 1.09562,-1.6292 m 0.30658,-0.45589 c 0.13901,-0.20672 0.17669,-0.48971 0.1345,-0.7353 -0.0306,-0.17829 -0.10295,-0.40184 -0.27018,-0.47061 l -1.43355,-0.58946 m -0.58066,-0.23877 -1.27292,-0.52342 c -0.23231,-0.0955 -0.51752,-0.0419 -0.75187,0.0484 -0.21766,0.0839 -0.41673,0.24241 -0.54798,0.43533 l -1.127989,1.65795 m -0.587181,0.86307 c -0.146645,0.21554 -0.156189,0.54354 -0.04805,0.78081 0.08638,0.18954 0.306169,0.29415 0.495844,0.38003"
       id="path419"
       sodipodi:nodetypes="csaccccasccsasccac" />
    <path
       style="fill:none;stroke:#000000;stroke-width:0.199999;stroke-linecap:round;stroke-linejoin:round;stroke-dasharray:none"
       d="m 101.20709,139.90856 c 0,0 -0.52761,-0.75096 -0.83526,-1.0898 -0.25775,-0.28388 -0.841362,-0.78435 -0.841362,-0.78435"
       id="path420"
       sodipodi:nodetypes="cac" />
    <path
       style="fill:none;stroke:#000000;stroke-width:0.199999;stroke-linecap:round;stroke-linejoin:round;stroke-dasharray:none"
       d="m 101.81289,138.74375 c 0,0 0.0401,0.29112 0.0682,0.43527 0.0413,0.212 0.14729,0.63097 0.14729,0.63097"
       id="path421"
       sodipodi:nodetypes="cac" />
    <path
       style="fill:none;stroke:#000000;stroke-width:0.199999;stroke-linecap:round;stroke-linejoin:round;stroke-dasharray:none"
       d="m 101.39218,146.10845 -1.970522,-0.92293 c -0.157969,-0.074 -0.381454,-0.12721 -0.522643,-0.0248 -0.115432,0.0838 -0.165258,0.27968 -0.113579,0.41267 l 0.316307,0.814 m 0.306961,0.78995 c 0.05428,0.13968 0.181526,0.24092 0.293569,0.34037 0.161499,0.14336 0.342517,0.26869 0.537277,0.36191 m 1.34043,0.64155 1.41029,0.67498 c 0.17291,0.0828 0.36045,0.2081 0.54869,0.17205 0.16035,-0.0307 0.43004,-0.1533 0.38021,-0.30887 l -0.52491,-1.63886 c -0.065,-0.20297 -0.1836,-0.39871 -0.34418,-0.53877 -0.12358,-0.10779 -0.2982,-0.13643 -0.44668,-0.20597"
       id="path422"
       sodipodi:nodetypes="csasccaccsassac" />
    <path
       style="fill:none;stroke:#000000;stroke-width:0.199999;stroke-linecap:round;stroke-linejoin:round;stroke-dasharray:none"
       d="m 101.76915,147.59994 c 0,0 -0.23658,0.0295 -0.54029,-0.15731 -0.30373,-0.18687 -0.37159,-0.39801 -0.37159,-0.39801"
       id="path423"
       sodipodi:nodetypes="czc" />
    <path
       style="fill:none;stroke:#000000;stroke-width:0.199999;stroke-linecap:round;stroke-linejoin:round;stroke-dasharray:none"
       d="m 107.37704,143.20613 c 0,0 1.40618,-2.40434 1.85539,-3.71311 0.41963,-1.22259 0.76242,-3.80235 0.76242,-3.80235"
       id="path424"
       sodipodi:nodetypes="cac" />
    <path
       style="fill:none;stroke:#000000;stroke-width:0.199999;stroke-linecap:round;stroke-linejoin:round;stroke-dasharray:none"
       d="m 103.58729,136.20246 c 0,0 0.28279,-0.6601 0.46253,-0.9699 0.22062,-0.38026 0.75166,-1.08363 0.75166,-1.08363"
       id="path425"
       sodipodi:nodetypes="cac" />
    <path
       style="fill:none;stroke:#000000;stroke-width:0.199999;stroke-linecap:round;stroke-linejoin:round;stroke-dasharray:none"
       d="m 102.55857,128.10812 c 0,0 0.75855,-0.44293 1.15011,-0.64127 0.40098,-0.20311 1.22621,-0.56098 1.22621,-0.56098"
       id="path426"
       sodipodi:nodetypes="cac" />
    <path
       style="fill:none;stroke:#000000;stroke-width:0.199999;stroke-linecap:round;stroke-linejoin:round;stroke-dasharray:none"
       d="m 94.182489,134.72198 c 0,0 -0.595018,-0.85087 -0.788478,-1.32795 -0.174957,-0.43146 -0.324786,-1.35848 -0.324786,-1.35848"
       id="path427"
       sodipodi:nodetypes="cac" />
    <path
       style="fill:none;stroke:#000000;stroke-width:0.199999;stroke-linecap:round;stroke-linejoin:round;stroke-dasharray:none"
       d="m 102.2656,131.3653 c 0,0 -0.14218,-0.77072 -0.29182,-1.1297 -0.16851,-0.40424 -0.67222,-1.1288 -0.67222,-1.1288"
       id="path428"
       sodipodi:nodetypes="cac" />
    <path
       style="fill:none;stroke:#000000;stroke-width:0.199999;stroke-linecap:round;stroke-linejoin:round;stroke-dasharray:none"
       d="m 97.85534,127.40271 c 0,0 -1.205616,0.12155 -1.748399,0.36648 -0.689304,0.31103 -1.818304,1.35696 -1.818304,1.35696"
       id="path429"
       sodipodi:nodetypes="cac" />
    <path
       id="text2"
       style="font-size:9.87777px;line-height:1.25;font-family:Tibet;-inkscape-font-specification:Tibet;text-align:justify;letter-spacing:0px;word-spacing:0px;stroke-width:0.264583"
       d="M 126.28328 133.00791 C 126.17074 133.00791 126.10126 133.08651 126.07554 133.24407 L 126.07554 142.21975 C 126.07554 142.3548 126.15466 142.43392 126.31222 142.45643 L 126.32669 142.45643 C 126.46174 142.45643 126.54034 142.3773 126.56285 142.21975 L 126.56285 138.84373 C 126.56285 138.78264 126.56767 138.71993 126.57732 138.65563 C 126.68021 138.20225 126.97925 137.97556 127.47442 137.97556 C 127.97281 137.97556 128.4696 138.05899 128.96477 138.22619 C 130.02586 138.67314 130.5564 139.24709 130.5564 139.94805 L 130.5564 139.99663 C 130.5564 140.42428 130.32972 140.83086 129.87634 141.21671 C 129.19789 141.71831 128.40207 141.96912 127.48889 141.96912 L 127.44548 141.96912 C 127.30079 141.96912 127.21736 142.05255 127.19485 142.21975 L 127.19485 142.23422 C 127.19485 142.35319 127.27346 142.42749 127.43101 142.45643 L 127.48889 142.45643 C 128.2413 142.45643 128.94404 142.29388 129.59677 141.96912 C 130.5614 141.42893 131.04371 140.77637 131.04371 140.0111 L 131.04371 139.93358 C 131.04371 139.51558 130.87152 139.09453 130.52747 138.6701 C 129.73004 137.88232 128.722 137.48826 127.50336 137.48826 L 127.43101 137.48826 C 127.12555 137.48826 126.83616 137.58667 126.56285 137.78281 L 126.56285 133.24407 C 126.53713 133.08651 126.46817 133.00791 126.35563 133.00791 L 126.28328 133.00791 z M 116.82959 135.5447 C 116.64953 135.56721 116.55984 135.65064 116.55984 135.79534 L 116.55984 140.52683 C 116.55984 140.73583 116.6288 140.92589 116.76707 141.0963 C 117.59343 142.00305 119.64665 142.45643 122.92638 142.45643 L 123.22042 142.45643 C 123.34904 142.45643 123.43246 142.37248 123.47105 142.20528 C 123.47105 142.07666 123.40209 141.98502 123.26383 141.93036 C 121.29599 141.93036 119.71739 141.77797 118.52768 141.47251 C 117.57913 141.15418 117.10451 140.86141 117.10451 140.59453 L 117.10451 135.90179 C 117.10451 135.66385 117.02108 135.5447 116.85388 135.5447 L 116.82959 135.5447 z M 124.66271 136.47075 C 124.52766 136.47075 124.44567 136.55274 124.41673 136.71673 L 124.41673 136.76479 C 124.41673 136.89983 124.49872 136.98183 124.66271 137.01077 L 124.71077 137.01077 C 124.84581 137.01077 124.92781 136.92877 124.95675 136.76479 L 124.95675 136.71673 C 124.95675 136.58168 124.87475 136.49969 124.71077 136.47075 L 124.66271 136.47075 z M 132.20127 137.52236 L 132.12375 137.53683 C 132.02729 137.58185 131.97906 137.68457 131.97906 137.84534 L 131.97906 142.13293 C 131.9887 142.34837 132.063 142.45643 132.20127 142.45643 L 132.25914 142.45643 C 132.35561 142.45643 132.42313 142.3889 132.46172 142.25386 L 132.46172 140.21832 C 132.46172 139.68135 132.58855 139.30514 132.84257 139.08971 C 133.04514 138.9 133.26557 138.74422 133.50351 138.62204 C 134.48421 138.21046 135.5371 138.0045 136.66249 138.0045 C 136.83934 137.97235 136.92759 137.89518 136.92759 137.77299 C 136.89544 137.60579 136.82309 137.52236 136.71055 137.52236 L 136.69143 137.52236 C 135.77825 137.52236 134.86185 137.65885 133.94224 137.93216 C 133.4117 138.08007 132.9183 138.3632 132.46172 138.7812 L 132.46172 137.72493 C 132.46172 137.62847 132.39419 137.56095 132.25914 137.52236 L 132.20127 137.52236 z M 140.27002 137.52236 C 139.52405 137.52236 138.82469 137.68296 138.17196 138.0045 C 137.21698 138.54148 136.73949 139.19117 136.73949 139.95322 L 136.73949 140.02557 C 136.73949 140.4275 136.89578 140.82782 137.20768 141.22653 C 137.98259 142.04646 139.00797 142.45643 140.28449 142.45643 L 141.43739 142.45643 C 141.59495 142.42749 141.67356 142.35319 141.67356 142.23422 L 141.67356 142.21975 C 141.67356 142.07827 141.59013 141.99628 141.42293 141.97377 L 140.28449 141.97377 C 139.78932 141.97377 139.29592 141.89034 138.80396 141.72314 C 137.74931 141.27941 137.22215 140.70884 137.22215 140.0111 L 137.22215 139.96769 C 137.22215 139.6365 137.35863 139.31479 137.63194 139.00289 C 138.30718 138.3373 139.18643 138.0045 140.27002 138.0045 L 140.3279 138.0045 C 140.43401 138.0045 140.56619 138.03344 140.72374 138.09132 C 141.03564 138.23601 141.19141 138.4902 141.19141 138.85355 C 141.19141 139.02396 141.12728 139.16527 140.99866 139.27781 C 140.55815 139.58971 139.96295 139.74548 139.21376 139.74548 C 139.08836 139.74548 138.9567 139.72137 138.81843 139.67313 C 138.49689 139.5606 138.33629 139.35176 138.33629 139.0463 C 138.32021 138.85016 138.24109 138.75226 138.09961 138.75226 C 137.93563 138.79085 137.85363 138.86463 137.85363 138.97395 L 137.85363 139.01736 C 137.85363 139.17813 137.8874 139.3532 137.95492 139.54291 C 138.23788 140.00271 138.64784 140.23279 139.18482 140.23279 C 139.26842 140.23279 139.39095 140.22797 139.55172 140.21832 C 140.9665 140.07684 141.67356 139.62685 141.67356 138.86802 L 141.67356 138.85355 C 141.67356 138.65741 141.63497 138.46253 141.5578 138.2696 C 141.28771 137.77121 140.87291 137.52236 140.31343 137.52236 L 140.27002 137.52236 z M 124.64824 137.53683 C 124.55178 137.53683 124.48425 137.60436 124.44567 137.7394 L 124.44567 142.25386 C 124.44567 142.35032 124.51319 142.41784 124.64824 142.45643 L 124.71077 142.45643 C 124.83938 142.45643 124.91173 142.35319 124.92781 142.1474 L 124.92781 137.82622 C 124.92781 137.6558 124.85546 137.55934 124.71077 137.53683 L 124.64824 137.53683 z " />
  </g>
</svg>
