<?xml version="1.0" encoding="UTF-8" standalone="no"?>
<!-- Created with Inkscape (http://www.inkscape.org/) -->

<svg
   width="7.9137487mm"
   height="7.748795mm"
   viewBox="0 0 7.9137488 7.7487951"
   version="1.1"
   id="svg1"
   sodipodi:docname="circle_c.svg"
   inkscape:version="1.3.2 (091e20ef0f, 2023-11-25, custom)"
   xmlns:inkscape="http://www.inkscape.org/namespaces/inkscape"
   xmlns:sodipodi="http://sodipodi.sourceforge.net/DTD/sodipodi-0.dtd"
   xmlns="http://www.w3.org/2000/svg"
   xmlns:svg="http://www.w3.org/2000/svg">
  <sodipodi:namedview
     id="namedview1"
     pagecolor="#ffffff"
     bordercolor="#666666"
     borderopacity="1.0"
     inkscape:showpageshadow="2"
     inkscape:pageopacity="0.0"
     inkscape:pagecheckerboard="0"
     inkscape:deskcolor="#d1d1d1"
     inkscape:document-units="mm"
     inkscape:zoom="1.2976492"
     inkscape:cx="13.485925"
     inkscape:cy="35.834029"
     inkscape:window-width="956"
     inkscape:window-height="1037"
     inkscape:window-x="960"
     inkscape:window-y="0"
     inkscape:window-maximized="1"
     inkscape:current-layer="g10" />
  <defs
     id="defs1">
    <rect
       x="326.97604"
       y="108.9039"
       width="189.39958"
       height="52.789734"
       id="rect5-3" />
  </defs>
  <g
     inkscape:label="Layer 1"
     inkscape:groupmode="layer"
     id="layer1"
     transform="translate(-109.11037,-117.34314)">
    <g
       id="g10"
       transform="translate(0,2.1431588)">
      <g
         id="g7"
         inkscape:label="colors">
        <path
           id="path7"
           style="fill:#fff6e5;fill-opacity:1;stroke:none;stroke-width:0.1;stroke-linecap:round;stroke-linejoin:round;stroke-dasharray:none"
           d="m 109.74007,115.43726 c -1.15646,0.90956 -0.3063,2.35335 -0.36075,3.59468 0.13489,1.13202 -0.57116,2.86914 0.4453,3.67013 1.57826,0.45069 3.36834,-0.2376 4.98028,0.0513 1.61654,0.72324 2.15852,-1.04322 1.85253,-2.18846 0.11716,-1.43495 0.5012,-3.43365 -7.4e-4,-4.84089 -1.06125,-1.05461 -1.89235,-0.0753 -3.23911,-0.38414 -0.88937,-0.0592 -2.78663,0.12384 -3.67751,0.0973 z"
           sodipodi:nodetypes="cccccccc" />
      </g>
      <path
         id="path15"
         style="fill:#ffe6b3;fill-opacity:1;stroke:none;stroke-width:0.2;stroke-linecap:round;stroke-linejoin:round;stroke-dasharray:none;stroke-opacity:1"
         d="m 112.49569,115.34726 c -1.66369,0.0868 -2.81265,1.73227 -3.12323,3.23761 -0.0445,1.34889 0.31722,2.94527 1.67979,3.54708 1.13227,0.67442 2.5725,0.98489 3.68145,0.087 1.61359,-0.36491 1.86624,-2.07605 1.96729,-3.4727 0.49392,-1.34017 -0.78131,-2.48796 -1.80314,-3.12189 -0.77496,-0.29201 -1.66235,0.15668 -2.40216,-0.27712 z m -0.6134,1.05678 c 1.18635,0.36133 3.3601,-0.44408 3.31551,1.56655 0.068,1.2598 0.55347,2.94068 -0.87605,3.5919 -0.99364,0.90649 -2.56938,0.48094 -3.46136,-0.34491 -0.5992,-1.17149 -0.3506,-2.80215 0.18904,-3.9869 0.19165,-0.36871 0.58755,-0.51675 0.83286,-0.82664 z" />
      <g
         id="g101121"
         inkscape:label="symbol"
         transform="translate(197.54111,-60.776279)"
         style="display:inline;stroke-width:0.2;stroke:#000000;stroke-dasharray:none">
        <circle
           style="fill:none;stroke:#000000;stroke-width:0.2;stroke-linecap:round;stroke-linejoin:round;stroke-dasharray:none"
           id="circle3412"
           cx="-84.464386"
           cy="179.9191"
           r="3.2731338" />
      </g>
    </g>
    <path
       id="path14"
       style="fill:#ffe6b3;fill-opacity:1;stroke:none;stroke-width:0.2;stroke-linecap:round;stroke-linejoin:round;stroke-dasharray:none;stroke-opacity:1"
       d="M 113.21968 119.42932 C 113.08436 119.4322 112.95386 119.50265 112.82177 119.4443 C 111.82995 119.4513 110.91145 120.30492 111.02757 121.33101 C 111.25382 122.31675 112.31191 123.0342 113.23002 123.24459 C 113.80094 123.20549 115.59131 122.72161 114.33486 122.21881 C 113.63298 122.12551 112.20569 122.20729 112.59698 121.07625 C 113.1149 120.81348 114.25696 119.99692 113.35662 119.45619 C 113.31014 119.43494 113.26479 119.42836 113.21968 119.42932 z " />
    <path
       style="fill:none;stroke:#000000;stroke-width:0.2;stroke-linecap:round;stroke-linejoin:round;stroke-dasharray:none;stroke-opacity:1"
       d="m 114.54017,122.59193 c 0,0 -1.48812,-0.002 -2.09979,-0.36306 -0.33825,-0.19963 -0.70803,-0.52775 -0.73674,-0.91935 -0.0366,-0.49861 0.36528,-0.98429 0.75727,-1.2948 0.20116,-0.15934 0.73595,-0.22632 0.73595,-0.22632"
       id="path53687"
       sodipodi:nodetypes="caaac" />
  </g>
</svg>
