<?xml version="1.0" encoding="UTF-8" standalone="no"?>
<!-- Created with Inkscape (http://www.inkscape.org/) -->

<svg
   width="40.000011"
   height="25"
   viewBox="0 0 10.583337 6.614584"
   version="1.1"
   id="svg5"
   inkscape:version="1.3.2 (091e20ef0f, 2023-11-25, custom)"
   sodipodi:docname="en.svg"
   xml:space="preserve"
   xmlns:inkscape="http://www.inkscape.org/namespaces/inkscape"
   xmlns:sodipodi="http://sodipodi.sourceforge.net/DTD/sodipodi-0.dtd"
   xmlns="http://www.w3.org/2000/svg"
   xmlns:svg="http://www.w3.org/2000/svg"><sodipodi:namedview
     id="namedview7"
     pagecolor="#ffffff"
     bordercolor="#666666"
     borderopacity="1.0"
     inkscape:pageshadow="2"
     inkscape:pageopacity="0"
     inkscape:pagecheckerboard="false"
     inkscape:document-units="mm"
     showgrid="false"
     inkscape:zoom="1.5363858"
     inkscape:cx="268.16181"
     inkscape:cy="112.92736"
     inkscape:window-width="1916"
     inkscape:window-height="1029"
     inkscape:window-x="0"
     inkscape:window-y="0"
     inkscape:window-maximized="1"
     inkscape:current-layer="g6"
     inkscape:showpageshadow="2"
     inkscape:deskcolor="#ffffff" /><defs
     id="defs2" /><g
     inkscape:label="Layer 1"
     inkscape:groupmode="layer"
     id="g6"
     transform="translate(158.70401,-112.98206)"><path
       id="rect214"
       style="fill:#4758aa;fill-opacity:1;stroke:none;stroke-width:0.00352777;stroke-linecap:round;stroke-linejoin:round"
       d="m -157.61984,112.98206 c -0.60065,0 -1.08417,0.45024 -1.08417,1.00976 v 4.59507 c 0,0.55952 0.48352,1.00975 1.08417,1.00975 h 8.41499 c 0.60065,0 1.08417,-0.45023 1.08417,-1.00975 v -4.59507 c 0,-0.55952 -0.48352,-1.00976 -1.08417,-1.00976 z"
       sodipodi:nodetypes="sssssssss" /><path
       id="path214"
       style="color:#000000;fill:#f9f9f9;stroke-linejoin:round;-inkscape-stroke:none"
       d="M -154.31151 112.98206 L -154.31203 115.20208 L -157.74541 112.98929 C -158.10975 113.02816 -158.41803 113.23358 -158.5805 113.5226 L -155.54245 115.47958 L -158.70401 115.47855 L -158.70401 117.27947 L -155.64632 117.27999 L -158.53244 119.13207 C -158.34004 119.41157 -158.00429 119.59664 -157.61984 119.59664 L -157.58935 119.59664 L -154.31306 117.49341 L -154.31358 119.59664 L -152.51317 119.59664 L -152.51266 117.43192 L -149.15627 119.59458 C -148.77657 119.57901 -148.44907 119.38379 -148.26899 119.09693 L -151.08639 117.28102 L -148.12068 117.28154 L -148.12068 115.48268 L -151.17889 115.48165 L -148.21524 113.57892 C -148.35507 113.28739 -148.63822 113.07008 -148.98264 113.00376 L -152.51266 115.26926 L -152.51214 112.98206 L -154.31151 112.98206 z " /><path
       id="path215"
       style="color:#000000;fill:#ed5565;stroke-linejoin:round;-inkscape-stroke:none"
       d="M -154.01231 112.98206 L -154.01282 115.57312 L -157.95625 113.03219 C -158.17577 113.09851 -158.36356 113.22814 -158.49627 113.39806 L -154.79882 115.78034 L -158.70401 115.77931 L -158.70401 116.97923 L -154.90269 116.98027 L -158.43788 119.24989 C -158.28426 119.41428 -158.07477 119.53186 -157.83585 119.57649 L -154.01282 117.12238 L -154.01334 119.59664 L -152.81341 119.59664 L -152.81238 117.06036 L -148.9289 119.56254 C -148.69968 119.50681 -148.50058 119.38394 -148.35735 119.21682 L -151.82691 116.98078 L -148.12068 116.98182 L -148.12068 115.78137 L -151.92303 115.78034 L -148.29069 113.4487 C -148.40993 113.27452 -148.58466 113.13677 -148.79247 113.05751 L -152.81238 115.63823 L -152.81135 112.98206 L -154.01231 112.98206 z " /></g></svg>
