<?xml version="1.0" encoding="UTF-8" standalone="no"?>
<svg
   xml:space="preserve"
   width="60mm"
   height="60mm"
   viewBox="0 0 59.999996 60"
   version="1.1"
   id="svg8"
   inkscape:version="1.3 (0e150ed6c4, 2023-07-21)"
   sodipodi:docname="logo.svg"
   inkscape:export-filename="logo.png"
   inkscape:export-xdpi="100"
   inkscape:export-ydpi="100"
   xmlns:inkscape="http://www.inkscape.org/namespaces/inkscape"
   xmlns:sodipodi="http://sodipodi.sourceforge.net/DTD/sodipodi-0.dtd"
   xmlns="http://www.w3.org/2000/svg"
   xmlns:svg="http://www.w3.org/2000/svg"
   xmlns:rdf="http://www.w3.org/1999/02/22-rdf-syntax-ns#"
   xmlns:cc="http://creativecommons.org/ns#"
   xmlns:dc="http://purl.org/dc/elements/1.1/"><defs
     id="defs2"><inkscape:perspective
       sodipodi:type="inkscape:persp3d"
       inkscape:vp_x="0 : 30 : 1"
       inkscape:vp_y="0 : 1000 : 0"
       inkscape:vp_z="59.999996 : 30 : 1"
       inkscape:persp3d-origin="29.999998 : 20 : 1"
       id="perspective1143" /></defs><sodipodi:namedview
     inkscape:snap-global="true"
     inkscape:snap-object-midpoints="true"
     inkscape:document-rotation="0"
     inkscape:window-maximized="1"
     inkscape:window-y="0"
     inkscape:window-x="0"
     inkscape:window-height="1080"
     inkscape:window-width="1920"
     fit-margin-bottom="1"
     fit-margin-right="1"
     fit-margin-top="1"
     fit-margin-left="1"
     showgrid="false"
     inkscape:current-layer="layer1"
     inkscape:document-units="mm"
     inkscape:cy="132.60794"
     inkscape:cx="90.685297"
     inkscape:zoom="2.2660785"
     inkscape:pageshadow="2"
     inkscape:pageopacity="0.0"
     borderopacity="1.0"
     bordercolor="#666666"
     pagecolor="#ffffff"
     id="base"
     inkscape:pagecheckerboard="0"
     inkscape:showpageshadow="2"
     inkscape:deskcolor="#d1d1d1" /><metadata
     id="metadata5"><rdf:RDF><cc:Work
         rdf:about=""><dc:format>image/svg+xml</dc:format><dc:type
           rdf:resource="http://purl.org/dc/dcmitype/StillImage" /></cc:Work></rdf:RDF></metadata><g
     transform="translate(-85.2379, -59.4404)"
     id="layer1"
     inkscape:label="Calque 1"
     inkscape:groupmode="layer"><g
       id="g1"><path
         style="fill:#fff6e5;fill-opacity:1;stroke:none;stroke-width:0.1;stroke-linecap:round;stroke-linejoin:round;stroke-dasharray:none"
         d="m 102.05715,110.63421 c 2.04376,3.99693 5.97375,7.82219 10.40307,8.55264 4.45562,0.73479 9.94749,-1.18728 12.67321,-4.78769 2.08132,-2.74925 1.62289,-6.93607 0.89277,-10.30613 -0.68754,-3.17364 -5.13316,-5.259043 -4.78213,-8.487274 0.21344,-1.962928 2.46517,-3.112448 3.949,-4.415086 2.54456,-2.233865 6.65278,-2.824867 8.38449,-5.734529 2.61765,-4.398218 2.97158,-10.349567 1.57536,-15.273685 -1.11235,-3.922942 -3.758,-7.978905 -7.4553,-9.698423 -3.60526,-1.676718 -8.20226,-0.885507 -11.91631,0.534077 -1.79785,0.687174 -2.61557,3.14013 -4.47017,3.654837 -2.57237,0.713909 -5.78832,-2.748041 -7.92596,-1.148906 -0.7689,0.575205 -0.68648,1.93247 -0.40854,2.851614 0.60809,2.010859 3.37887,2.764779 4.20109,4.698002 1.12382,2.642372 1.88414,6.00122 0.64242,8.590283 -0.51096,1.065469 -2.72959,0.840937 -2.92225,2.006777 -0.28002,1.694576 2.40752,2.549314 3.08334,4.128336 0.69568,1.625423 1.28284,3.507732 0.88336,5.230054 -0.53405,2.302554 -1.79452,5.451695 -4.13821,5.758241 -2.53968,0.332179 -3.80152,-3.46412 -5.938216,-4.876496 -1.265156,-0.836277 -2.8703,-3.075574 -4.034319,-2.103409 -1.522655,1.271685 1.002566,3.852547 1.767099,5.683171 1.419381,3.398578 4.193526,6.206716 5.197936,9.750166 0.49124,1.73307 -0.48183,3.78959 0.33826,5.39343 z"
         id="path12834"
         sodipodi:nodetypes="aaaaaaaaaaaaaaaaaaaaaaaa" /><path
         style="fill:#ffeecc;fill-opacity:1;stroke:none;stroke-width:0.1;stroke-linecap:round;stroke-linejoin:round;stroke-dasharray:none"
         d="m 111.15858,116.23346 c -2.86759,-1.76953 -5.50781,-4.19495 -7.16984,-7.12616 -0.70058,-1.23557 -0.44574,-2.8393 -1.02594,-4.13576 -0.7579,-1.69349 -2.6643,-2.80429 -3.135698,-4.59876 -0.282706,-1.076149 -0.675253,-2.759282 0.282238,-3.32604 1.3357,-0.790608 2.71053,2.019779 4.25697,1.886947 2.57295,-0.221044 5.19041,-2.043383 6.44344,-4.301452 1.16075,-2.091793 1.19815,-4.988998 0.22269,-7.173363 -0.4951,-1.108676 -2.38225,-1.201057 -2.78653,-2.345989 -0.29531,-0.836275 0.48928,-1.725015 0.50801,-2.611699 0.0393,-1.85824 -0.61594,-3.667475 -0.83244,-5.513489 -0.24425,-2.082652 -1.167,-4.27239 -0.52554,-6.268798 0.40722,-1.267294 1.62901,-2.118289 2.58907,-3.040349 2.29623,-2.205335 4.49275,-4.895266 7.51582,-5.893858 2.89231,-0.955392 6.25498,-0.746315 9.13476,0.246246 2.92664,1.008707 6.08726,2.751205 7.46615,5.522734 1.86833,3.755272 1.21953,8.612197 -0.1333,12.582424 -1.02178,2.998692 -3.43508,5.396425 -5.72299,7.587689 -1.85229,1.774074 -4.27827,2.834602 -6.33713,4.364123 -1.0097,0.750127 -2.74049,1.11669 -2.94649,2.357564 -0.5478,3.299951 4.50522,5.239058 5.3898,8.46507 0.80817,2.94733 1.16831,6.47845 -0.2908,9.16375 -1.59647,2.93807 -4.92894,5.24971 -8.23917,5.7223 -1.62292,0.23169 -3.26799,-0.70218 -4.66309,-1.5631 z"
         id="path13582"
         sodipodi:nodetypes="aaaaaaaaaaaaaaaaaaaaaaaa" /><path
         id="path1042"
         style="fill:#ffffcc;fill-opacity:1;stroke-width:0.1;stroke-linecap:round;stroke-linejoin:round;stroke-dasharray:none"
         d="m 122.49902,62.035528 c -0.63257,0.0063 -1.25843,0.108685 -1.833,0.319606 -3.61904,1.328568 -6.90732,4.380777 -8.42412,7.92504 -1.20585,2.817744 -2.10878,7.034885 0.0662,9.194281 0.90559,-0.05018 1.80274,-0.206187 2.70482,-0.300366 1.67468,-0.174811 3.38477,-0.119254 5.02691,-0.491359 0.75728,-0.171595 1.70207,-0.19046 2.1896,-0.79482 0.68149,-0.844818 0.0572,-2.210927 0.43898,-3.227013 0.29009,-0.772243 1.08028,-1.289911 1.36322,-2.064818 0.65411,-1.791441 -0.3568,-4.073016 0.66541,-5.683081 0.62336,-0.98186 2.82995,-0.686133 2.96362,-1.841469 0.13451,-1.162714 -1.41139,-2.008622 -2.48072,-2.484565 -0.81742,-0.363424 -1.75645,-0.560623 -2.68097,-0.551441 z" /><path
         id="path2309"
         style="fill:#fff4bd;fill-opacity:1;stroke-width:0.1;stroke-linecap:round;stroke-linejoin:round;stroke-dasharray:none"
         d="m 123.0389,62.67861 c -1.53524,0.09441 -2.9962,0.69215 -4.36814,1.353603 -3.2657,1.675786 -6.11488,4.447957 -7.33605,7.964449 -0.58214,1.824524 -0.92794,3.906002 -0.13736,5.722092 0.32329,0.599396 0.89379,1.572098 1.70236,1.201741 0.92038,-0.432134 1.75443,-1.350006 1.73707,-2.411581 -0.21075,-0.764361 -1.10311,-1.69163 -0.22549,-2.379679 0.99818,-0.87732 2.68807,-0.709558 3.3916,-1.964865 0.7833,-1.412256 0.19141,-3.244696 1.20089,-4.562318 0.74878,-0.90155 2.01824,-0.592099 3.03725,-0.610204 0.73951,-0.05821 1.47539,-0.170353 2.21511,-0.24013 0.9599,-0.0411 1.554,-0.973803 1.52404,-1.86699 0.0732,-0.968121 -0.63477,-1.852666 -1.57298,-2.057375 -0.37869,-0.109686 -0.7747,-0.153467 -1.1683,-0.148743 z m 0.12478,4.624095 c -0.96591,0.0812 -2.18784,0.131169 -2.70006,1.108087 -0.61335,1.142227 -0.56917,2.601242 -0.0152,3.756295 0.40355,0.924437 1.65859,1.288903 2.47544,0.68868 1.28662,-1.155027 1.52856,-3.126324 1.08953,-4.725936 -0.16083,-0.360231 -0.47463,-0.701086 -0.84971,-0.827126 z"
         sodipodi:nodetypes="sssssssssssssaaaaaaaa" /><path
         style="fill:#ffffcc;fill-opacity:1;stroke-width:0.1;stroke-linecap:round;stroke-linejoin:round;stroke-dasharray:none"
         d="m 114.90861,108.51836 c -0.52567,-0.17883 -0.8865,-0.8221 -0.94075,-1.3747 -0.10912,-1.11183 0.83371,-2.07479 1.31892,-3.08108 0.4538,-0.94119 1.29434,-1.73268 1.48662,-2.75972 0.3109,-1.660711 -1.27659,-3.470175 -0.62679,-5.029782 0.19023,-0.457567 0.68178,-0.929036 1.17688,-0.908256 2.25746,0.09477 3.43318,2.948736 5.00016,4.576533 0.59656,0.619695 1.48075,1.129065 1.66859,1.968465 0.17304,0.77325 -0.18638,1.6307 -0.61754,2.2955 -0.74656,1.15108 -1.98817,1.94098 -3.19303,2.5972 -1.62322,0.88411 -3.52315,2.31138 -5.27297,1.71588 z"
         id="path10275"
         sodipodi:nodetypes="aaaaaaaaaaa" /><path
         style="fill:#fff4bd;fill-opacity:1;stroke-width:0.1;stroke-linecap:round;stroke-linejoin:round;stroke-dasharray:none"
         d="m 114.89671,107.62663 c -0.61371,-0.21729 -1.3923,-0.64928 -1.46053,-1.29674 -0.11151,-1.05846 0.91916,-2.14273 1.89348,-2.57097 0.47849,-0.21027 1.07836,0.37447 1.55885,0.16886 0.30282,-0.12959 0.52162,-0.46452 0.60129,-0.7841 0.14418,-0.5786 -0.0448,-1.22309 -0.29491,-1.7644 -0.32525,-0.70396 -1.15942,-1.08206 -1.49873,-1.779373 -0.34995,-0.719151 -0.82973,-1.624605 -0.4902,-2.348725 0.25349,-0.54212 0.99231,-0.919807 1.58568,-0.842015 0.89096,0.11681 1.69066,0.982746 1.9745,1.835308 0.17813,0.535063 -0.54027,1.153834 -0.30146,1.664707 0.31839,0.681128 1.51543,0.509228 1.96068,1.115098 0.64688,0.88013 1.33114,2.31375 0.69569,3.20217 -0.56661,0.79213 -2.06575,-0.16305 -2.90247,0.33541 -0.54141,0.32253 -0.69346,1.05447 -1.08508,1.54822 -0.40992,0.51683 -0.7235,1.19208 -1.31943,1.47495 -0.27654,0.13124 -0.62883,0.14377 -0.91736,0.0416 z"
         id="path10570"
         sodipodi:nodetypes="aaaaaaaaaaaaaaaaa" /><path
         id="path14463"
         style="fill:#ffe6b3;fill-opacity:1;stroke:none;stroke-width:0.1;stroke-linecap:round;stroke-linejoin:round;stroke-dasharray:none"
         d="m 119.72191,61.249193 c -3.72389,0.139721 -6.87886,2.816332 -8.44788,6.073668 -1.69979,3.31026 -3.57409,7.034784 -2.76915,10.848166 0.65636,1.68124 1.33389,3.343358 1.65363,5.127876 1.5981,2.348763 2.90997,-1.667571 2.81198,-3.112914 0.0636,-2.742545 -0.43881,-6.90408 1.7273,-8.886246 1.83353,-1.677817 1.32024,-4.115947 3.76112,-5.038077 1.79499,-0.200904 5.94868,1.215424 5.29521,-2.023043 -0.55427,-1.684926 -2.20487,-3.065158 -4.03221,-2.98943 z m 3.8185,6.53719 c -2.44548,-0.06071 -2.93103,3.574338 -1.19928,4.859334 1.67612,1.314082 4.0009,0.932737 5.99961,1.028945 2.55057,-0.131513 5.26977,-0.46595 7.44966,-1.874619 1.41031,-1.860718 -1.10665,-4.484407 -3.08394,-3.174432 -1.58903,1.695316 -4.40543,1.835174 -6.12626,0.256252 -0.78275,-0.783226 -1.97996,-1.000686 -3.03979,-1.09548 z m -8.60585,16.298328 c -2.38303,0.533363 0.13935,3.494007 1.48023,4.039478 3.52675,2.251435 7.91926,1.879005 11.80249,0.988035 2.56566,-1.652354 -1.55405,-4.313002 -3.44077,-3.175642 -2.22847,0.836634 -4.48356,0.0083 -6.45839,-1.059031 -1.06558,-0.459759 -2.23948,-0.65547 -3.38356,-0.79284 z m 1.73749,12.94347 c -2.07575,-0.272199 -4.2385,3.307439 -0.93345,2.74873 1.99433,0.669879 2.95717,-2.416103 0.93345,-2.74873 z m -5.16091,2.391362 c -2.53572,-0.06078 -2.28315,4.038607 0.20548,3.905437 1.98301,-0.20985 2.09323,-4.072161 -0.20548,-3.905437 z m 7.88577,0.837947 c -2.80072,-0.18262 -2.2106,3.5299 -0.055,4.06217 2.46438,0.81514 3.20643,-3.47723 0.77358,-3.95259 l -0.30579,-0.0795 -0.41279,-0.0301 z m -12.79098,0.31577 c -1.76045,0.78787 -1.7357,3.39363 -1.81368,5.09543 -0.0655,2.55752 1.70023,4.52764 3.3667,6.23803 1.15573,1.67944 4.41521,5.14777 5.83123,1.95271 1.14582,-2.31899 0.62702,-5.24426 -1.30395,-6.99088 -1.91338,-1.61268 -3.2183,-3.71628 -4.68734,-5.69068 -0.3698,-0.35971 -0.86392,-0.6275 -1.39323,-0.60401 z m 8.97632,3.30479 c -2.33608,-0.0633 -2.45347,3.8839 0.0472,3.52048 1.61831,-0.27682 1.78868,-3.46127 -0.0472,-3.52048 z m 8.26469,0.78866 c -3.10561,0.69684 -0.51238,4.65658 -2.96081,6.10838 -0.58767,1.23983 -4.41596,3.68115 -1.67132,4.37472 1.91587,-0.6654 3.39396,-2.30186 4.60974,-3.87488 1.05175,-1.6941 1.56824,-3.90281 1.00613,-5.84322 -0.1754,-0.38217 -0.535,-0.75588 -0.98374,-0.765 z"
         sodipodi:nodetypes="cccccsccccccccccccccccccccccsccccscccccccccccccccc" /><path
         style="fill:#ffe6b3;fill-opacity:1;stroke:none;stroke-width:0.1;stroke-linecap:round;stroke-linejoin:round;stroke-dasharray:none"
         d="m 113.13018,95.807689 c -2.13037,-0.421552 -0.0658,-4.356445 -0.39479,-6.503071 -0.21758,-1.419942 -2.28668,-3.470605 -1.03895,-4.182453 1.04074,-0.593724 2.07169,1.428025 2.56202,2.521279 0.72282,1.611653 0.616,3.561558 0.26374,5.292405 -0.21216,1.042436 -0.34845,3.078346 -1.39201,2.871844 z"
         id="path13710"
         sodipodi:nodetypes="aaaaaa" /><path
         id="path15154"
         style="fill:#ffdd99;fill-opacity:1;stroke:none;stroke-width:0.1;stroke-linecap:round;stroke-linejoin:round;stroke-dasharray:none"
         d="m 116.27079,85.081312 c -1.5507,-0.112998 -1.76692,1.710649 -0.60715,2.454164 0.11571,0.983574 -0.34296,2.013322 -0.0955,3.034153 0.20783,1.284576 1.76182,0.816466 2.45897,0.235187 1.0874,-0.466474 1.36884,-2.039734 2.6796,-2.103996 1.36781,-0.189038 2.81967,0.739554 4.11376,0.0271 1.37619,-0.992061 -0.14979,-2.771412 -1.51819,-2.167533 -1.25751,0.253664 -2.65228,0.692951 -3.83482,-0.06268 -1.04161,-0.511203 -1.98452,-1.369281 -3.19661,-1.416593 z m 0.2457,12.287274 c -1.21525,-0.246982 -2.50282,2.087605 -0.83697,2.186112 1.32895,-0.04954 2.07203,-1.209329 0.83697,-2.186112 z m -4.31066,3.581294 c -0.95101,0.15958 -1.54994,2.37261 -0.13377,2.00428 1.32977,0.6626 1.34739,-2.08853 0.13377,-2.00428 z m 7.93197,0.58686 c -1.9434,0.19207 0.72742,2.95109 0.75992,0.85867 -0.0376,-0.39987 -0.29937,-0.87787 -0.75992,-0.85867 z m -4.71497,3.18542 c -1.37338,-0.13365 -2.16918,2.37709 -0.55233,2.53563 1.6079,0.35216 2.21937,-2.30766 0.55233,-2.53563 z m 8.70292,2.53463 c -1.83046,0.15466 -0.74401,2.41807 -1.67105,3.46451 -0.57471,1.33765 1.21,0.92474 1.24912,-0.0924 0.23911,-1.06715 1.43302,-2.06278 0.93646,-3.18105 -0.12688,-0.14562 -0.32898,-0.19368 -0.51447,-0.19104 z m -10.73155,2.27123 c -1.35184,0.21455 -1.30433,2.80962 -2.91238,2.35069 -0.6341,-0.64127 -2.52146,-1.75093 -2.08019,0.0748 0.70597,1.43507 1.67642,2.85671 3.0647,3.70521 1.11937,0.72859 2.57631,-0.0742 2.87011,-1.31018 0.47655,-1.40875 0.66669,-3.12807 -0.18487,-4.42715 -0.18463,-0.22565 -0.46061,-0.38929 -0.75735,-0.39335 z" /><path
         style="fill:none;stroke:#000000;stroke-width:0.2;stroke-linecap:round;stroke-linejoin:round;stroke-dasharray:none"
         d="m 110.97205,108.88228 c 0,0 -0.0323,0.44815 0.33679,1.00232 0.36915,0.55416 0.76108,0.66198 0.76108,0.66198"
         id="path43701-4-4"
         sodipodi:nodetypes="czc" /><path
         style="fill:none;stroke:#000000;stroke-width:0.2;stroke-linecap:round;stroke-linejoin:round;stroke-dasharray:none"
         d="m 108.99025,107.91733 c 0,0 -0.0323,0.44816 0.33678,1.00233 0.36917,0.55415 0.76107,0.66197 0.76107,0.66197"
         id="path43725-6"
         sodipodi:nodetypes="czc" /><path
         style="fill:none;stroke:#000000;stroke-width:0.2;stroke-linecap:round;stroke-linejoin:round;stroke-dasharray:none"
         d="m 107.0146,106.81878 c 0,0 -0.0323,0.44818 0.3368,1.00233 0.36914,0.55415 0.76107,0.66197 0.76107,0.66197"
         id="path43727-9"
         sodipodi:nodetypes="czc" /><path
         style="fill:none;stroke:#000000;stroke-width:0.2;stroke-linecap:round;stroke-linejoin:round;stroke-dasharray:none"
         d="m 111.94731,108.33919 c 0.47457,0.5671 0.78931,1.25948 1.0689,1.9442 0.15612,0.38235 0.38763,0.78381 0.33365,1.1933 l -0.46324,3.51497 c -0.0259,0.19705 -0.31839,0.31848 -0.51597,0.29819 -0.3305,-0.0339 -0.53646,-0.40404 -0.74375,-0.6638 m -1.88403,-2.3609 -3.05548,-3.82884 c -0.2361,-0.29586 -0.43876,-0.62653 -0.57301,-0.98051 -0.0854,-0.22524 -0.12545,-0.46845 -0.14082,-0.70885 v 0 l -0.15956,-2.49699 m -0.10337,-1.61748 c -0.0161,-0.25004 0.11344,-0.57427 0.34603,-0.66707 0.2569,-0.10252 0.60661,0.0592 0.78419,0.27142 l 2.25608,2.69605"
         id="path45027-4"
         sodipodi:nodetypes="cassaccsassccasc" /><path
         style="fill:none;stroke:#000000;stroke-width:0.2;stroke-linecap:round;stroke-linejoin:round;stroke-dasharray:none"
         d="m 110.29876,80.5453 c 0.0452,0.493262 0.30412,1.001014 0.52916,1.435091 1.31385,2.534197 4.59766,3.483782 7.26214,4.463288 2.24197,0.824179 4.73916,1.581269 7.08065,1.093739 0.84013,-0.174929 1.28448,-0.242285 2.07326,-0.645903 m 4.24427,-3.596144 c 2.26777,-3.011509 3.37542,-6.487742 3.20785,-10.283275 m -2.16312,-5.329734 c -0.675,-0.903357 -1.01487,-1.126715 -1.86716,-1.79526 -2.68474,-2.105921 -6.23888,-3.965837 -9.61207,-3.469738 -1.43134,0.210496 -2.47045,0.3192 -3.84322,1.242697 m -4.27111,3.843298 c -0.73503,0.620729 -0.93928,1.105719 -1.37981,1.920485 -0.93163,1.723062 -1.73982,4.053738 -1.55004,6.124372"
         id="path37294-3-2"
         sodipodi:nodetypes="csasccccssccsc" /><path
         style="fill:none;stroke:#000000;stroke-width:0.2;stroke-linecap:round;stroke-linejoin:round;stroke-dasharray:none"
         d="m 122.53963,88.651015 c -1.57696,0.260368 -3.21827,-0.722021 -4.80643,-1.163838 -1.22881,-0.341851 -2.55731,-0.488735 -3.64979,-1.149417 -0.5352,-0.323582 -1.1091,-0.700685 -1.53065,-1.176832"
         id="path37296-1-2"
         sodipodi:nodetypes="casc" /><path
         style="fill:none;stroke:#000000;stroke-width:0.2;stroke-linecap:round;stroke-linejoin:round;stroke-dasharray:none"
         d="m 117.79853,88.607504 c -0.12944,0.311164 -0.32607,0.780998 -0.38865,1.048531 -0.10183,0.4345 0.15074,0.820704 -0.11471,1.053674 -0.32005,0.280897 -0.94322,0.236177 -1.27688,-0.0284 -0.28117,-0.22306 -0.36976,-0.698235 -0.26915,-1.042836 0.0779,-0.266487 0.39867,-0.270184 0.60933,-0.567553 0.13174,-0.18592 0.24136,-0.602884 0.38027,-0.845743"
         id="path37298-9-6"
         sodipodi:nodetypes="csaaasc" /><path
         style="fill:none;stroke:#000000;stroke-width:0.2;stroke-linecap:round;stroke-linejoin:round;stroke-dasharray:none"
         d="m 128.6592,85.604034 c 0,0 -0.18223,0.359031 -0.0882,0.497726 0.17584,0.259128 0.61903,0.271661 0.91764,0.179831 0.38916,-0.11967 0.72736,-0.482846 0.86667,-0.868585 0.12446,-0.344485 0.1747,-0.854174 -0.099,-1.093697 -0.1934,-0.169243 -0.76871,0.03887 -0.76871,0.03887"
         id="path37302-4-4"
         sodipodi:nodetypes="caaaac" /><path
         style="fill:none;stroke:#000000;stroke-width:0.2;stroke-linecap:round;stroke-linejoin:round;stroke-dasharray:none"
         d="m 133.56958,69.773116 c 0,0 -0.0121,-0.402231 0.13009,-0.494928 0.26646,-0.173683 0.67417,-0.02009 0.93638,0.158024 0.19546,0.132701 0.32316,0.374407 0.37004,0.607596 0.0743,0.369446 0.0452,0.808706 -0.16757,1.1197 -0.16056,0.234704 -0.4633,0.47955 -0.73887,0.419534 -0.12808,-0.02793 -0.23128,-0.320083 -0.23128,-0.320083"
         id="path37304-7-1"
         sodipodi:nodetypes="caaaaac" /><path
         style="fill:none;stroke:#000000;stroke-width:0.2;stroke-linecap:round;stroke-linejoin:round;stroke-dasharray:none"
         d="m 115.82288,65.800771 c 0,0 0.36803,-0.362066 0.30429,-0.566383 -0.095,-0.30469 -0.53401,-0.405027 -0.85016,-0.426193 -0.3861,-0.02598 -0.80961,0.118801 -1.10084,0.377168 -0.25298,0.224506 -0.51674,0.584209 -0.44482,0.91535 0.0648,0.297907 0.40296,0.546956 0.7041,0.575078 0.22575,0.02113 0.60014,-0.325793 0.60014,-0.325793"
         id="path37306-8-2"
         sodipodi:nodetypes="caaaaac" /><path
         style="fill:none;stroke:#000000;stroke-width:0.2;stroke-linecap:round;stroke-linejoin:round;stroke-dasharray:none"
         d="m 133.16458,70.742525 c 0,0 -0.33864,0.687268 -0.66565,0.810836 -0.4394,0.166002 -0.93639,-0.103762 -1.39079,-0.226056"
         id="path37310-4-8"
         sodipodi:nodetypes="cac" /><path
         style="fill:none;stroke:#000000;stroke-width:0.2;stroke-linecap:round;stroke-linejoin:round;stroke-dasharray:none"
         d="m 130.52807,70.417585 c 0,0 -0.25059,-0.683224 -0.55258,-0.751995 -0.27587,-0.06276 -0.56465,0.185914 -0.75194,0.400696 -0.10366,0.118704 -0.16474,0.444094 -0.16474,0.444094"
         id="path37312-5-8"
         sodipodi:nodetypes="caac" /><path
         style="fill:none;stroke:#000000;stroke-width:0.2;stroke-linecap:round;stroke-linejoin:round;stroke-dasharray:none"
         d="m 130.3026,71.981548 c 0,0 -0.37848,0.260055 -0.59514,0.26658 -0.20594,0.0063 -0.57772,-0.218871 -0.57772,-0.218871"
         id="path37314-0-9"
         sodipodi:nodetypes="cac" /><path
         style="fill:none;stroke:#000000;stroke-width:0.2;stroke-linecap:round;stroke-linejoin:round;stroke-dasharray:none"
         d="m 128.43919,71.361891 c 0,0 -0.33609,0.163555 -0.51787,0.173659 -0.55613,0.03088 -1.06359,-0.137643 -1.63336,-0.35262"
         id="path37316-3-2"
         sodipodi:nodetypes="cac" /><path
         style="fill:none;stroke:#000000;stroke-width:0.2;stroke-linecap:round;stroke-linejoin:round;stroke-dasharray:none"
         d="m 125.69309,70.179279 c 0,0 -0.0677,-0.852809 -0.3559,-1.111059 -0.2536,-0.227202 -0.67605,-0.304417 -0.99948,-0.198544 -0.38415,0.125998 -0.826,0.895935 -0.826,0.895935"
         id="path37318-6-8"
         sodipodi:nodetypes="caac" /><path
         style="fill:none;stroke:#000000;stroke-width:0.2;stroke-linecap:round;stroke-linejoin:round;stroke-dasharray:none"
         d="m 122.778,70.582113 c -0.55226,-0.08502 -1.62307,-0.212718 -2.34714,-0.563802 -0.36996,-0.179448 -0.62736,-0.31859 -0.96913,-0.76341"
         id="path37320-1-8"
         sodipodi:nodetypes="cac" /><path
         style="fill:none;stroke:#000000;stroke-width:0.2;stroke-linecap:round;stroke-linejoin:round;stroke-dasharray:none"
         d="m 125.39747,71.552748 c 0,0 -0.56919,0.360354 -0.89189,0.403871 -0.21262,0.02863 -0.45486,0.01534 -0.63502,-0.101286 -0.1492,-0.09652 -0.29411,-0.447033 -0.29411,-0.447033"
         id="path37322-0-8"
         sodipodi:nodetypes="caac" /><path
         style="fill:none;stroke:#000000;stroke-width:0.2;stroke-linecap:round;stroke-linejoin:round;stroke-dasharray:none"
         d="m 119.43801,68.336321 c 0,0 0.16588,-0.516131 0.0626,-0.7404 -0.10803,-0.234707 -0.37656,-0.397303 -0.62835,-0.447705 -0.25816,-0.05169 -0.56015,0.01614 -0.77146,0.175625 -0.12523,0.09449 -0.22825,0.413147 -0.22825,0.413147"
         id="path37324-6-6"
         sodipodi:nodetypes="caaac" /><path
         style="fill:none;stroke:#000000;stroke-width:0.2;stroke-linecap:round;stroke-linejoin:round;stroke-dasharray:none"
         d="m 116.84026,68.313203 c -0.40673,-0.0022 -0.59437,-0.03986 -0.82373,-0.205767 -0.21971,-0.15885 -0.35141,-0.429003 -0.43453,-0.687819"
         id="path37326-3-8"
         sodipodi:nodetypes="cac" /><path
         style="fill:none;stroke:#000000;stroke-width:0.2;stroke-linecap:round;stroke-linejoin:round;stroke-dasharray:none"
         d="m 118.51616,69.391887 c 0,0 -0.66948,0.186828 -0.96421,0.0574 -0.1063,-0.04669 -0.22115,-0.270463 -0.22115,-0.270463"
         id="path37328-2-3"
         sodipodi:nodetypes="cac" /><path
         style="fill:none;stroke:#000000;stroke-width:0.2;stroke-linecap:round;stroke-linejoin:round;stroke-dasharray:none"
         d="m 126.10163,84.035418 c 0,0 0.0376,-0.748419 -0.20873,-0.962459 -0.22329,-0.193972 -0.62212,-0.199015 -0.88345,-0.05958 -0.24756,0.13214 -0.42627,0.73063 -0.42627,0.73063"
         id="path37330-0-8"
         sodipodi:nodetypes="caac" /><path
         style="fill:none;stroke:#000000;stroke-width:0.2;stroke-linecap:round;stroke-linejoin:round;stroke-dasharray:none"
         d="m 128.46064,84.719297 c 0,0 -0.80399,0.468238 -1.25112,0.487495 -0.28435,0.01218 -0.46637,0.06849 -0.81937,-0.240488"
         id="path37332-6-3"
         sodipodi:nodetypes="cac" /><path
         style="fill:none;stroke:#000000;stroke-width:0.2;stroke-linecap:round;stroke-linejoin:round;stroke-dasharray:none"
         d="m 125.45044,85.094637 c 0,0 -0.46245,0.168602 -0.6826,0.102579 -0.12663,-0.03788 -0.23233,-0.14878 -0.296,-0.265587 -0.025,-0.04587 -0.0253,-0.155432 -0.0253,-0.155432"
         id="path37334-1-3"
         sodipodi:nodetypes="caac" /><path
         style="fill:none;stroke:#000000;stroke-width:0.2;stroke-linecap:round;stroke-linejoin:round;stroke-dasharray:none"
         d="m 123.58779,84.353759 c 0,0 -1.17915,0.141516 -1.7499,0.02091 -0.23748,-0.05024 -0.3989,-0.133739 -0.66219,-0.303153"
         id="path37336-5-3"
         sodipodi:nodetypes="cac" /><path
         style="fill:none;stroke:#000000;stroke-width:0.2;stroke-linecap:round;stroke-linejoin:round;stroke-dasharray:none"
         d="m 120.88433,83.253485 c 0,0 0.089,-0.547958 -0.056,-0.751806 -0.1354,-0.190434 -0.41015,-0.294386 -0.64172,-0.27454 -0.17665,0.01566 -0.31222,0.175425 -0.44759,0.291395 -0.0939,0.08045 -0.24815,0.276374 -0.24815,0.276374"
         id="path37338-5-8"
         sodipodi:nodetypes="caaac" /><path
         style="fill:none;stroke:#000000;stroke-width:0.2;stroke-linecap:round;stroke-linejoin:round;stroke-dasharray:none"
         d="m 120.2926,84.014432 c 0,0 -0.39614,0.121122 -0.58308,0.06431 -0.15108,-0.04604 -0.26846,-0.178538 -0.3633,-0.305668 -0.0397,-0.05313 -0.0798,-0.182364 -0.0798,-0.182364"
         id="path37340-4-0"
         sodipodi:nodetypes="caac" /><path
         style="fill:none;stroke:#000000;stroke-width:0.2;stroke-linecap:round;stroke-linejoin:round;stroke-dasharray:none"
         d="m 118.58338,82.981278 c 0,0 -0.45223,0.02903 -0.65218,-0.05858 -0.24403,-0.106927 -0.42528,-0.339812 -0.59236,-0.536825"
         id="path37342-7-4"
         sodipodi:nodetypes="cac" /><path
         style="fill:none;stroke:#000000;stroke-width:0.2;stroke-linecap:round;stroke-linejoin:round;stroke-dasharray:none"
         d="m 116.96567,81.437303 c 0.009,-0.053 -0.0536,-0.267325 -0.12991,-0.374979 -0.11279,-0.159138 -0.26624,-0.329722 -0.45768,-0.362231 -0.16418,-0.02787 -0.35119,0.04899 -0.47338,0.163716 -0.0902,0.08468 -0.14465,0.343194 -0.14465,0.343194"
         id="path37344-6-7"
         sodipodi:nodetypes="caaac" /><path
         style="fill:none;stroke:#000000;stroke-width:0.2;stroke-linecap:round;stroke-linejoin:round;stroke-dasharray:none"
         d="m 114.77252,81.370405 c -0.37996,-0.05226 -1.07496,-0.09327 -1.54345,-0.333281 -0.999,-0.511813 -1.51358,-1.311618 -2.50021,-2.256578"
         id="path37346-5-6"
         sodipodi:nodetypes="cac" /><path
         style="fill:none;stroke:#000000;stroke-width:0.2;stroke-linecap:round;stroke-linejoin:round;stroke-dasharray:none"
         d="m 110.39378,77.940929 c 3e-4,-0.03765 -0.10533,-0.446069 -0.25758,-0.600929 -0.0913,-0.09285 -0.22909,-0.131556 -0.35627,-0.158607 -0.16011,-0.03455 -0.35644,-0.0963 -0.49157,-0.0024 -0.11815,0.08214 -0.1324,0.262797 -0.15124,0.40602 -0.0387,0.294411 -0.0275,0.612032 0.0846,0.886085 0.077,0.188305 0.2037,0.380309 0.38378,0.47229 0.0973,0.04942 0.32673,0.01773 0.32673,0.01773"
         id="path37348-6-8"
         sodipodi:nodetypes="caaaaaac" /><path
         style="fill:none;stroke:#000000;stroke-width:0.2;stroke-linecap:round;stroke-linejoin:round;stroke-dasharray:none"
         d="m 116.53212,82.543019 c -0.0189,0.05044 -0.17623,0.212994 -0.29933,0.25993 -0.15835,0.06036 -0.35119,0.07109 -0.5073,0.0061 -0.14636,-0.06121 -0.2681,-0.196299 -0.33248,-0.342395 -0.044,-0.0997 -0.0203,-0.327145 -0.0203,-0.327145"
         id="path37350-9-9"
         sodipodi:nodetypes="caaac" /><path
         style="fill:none;stroke:#000000;stroke-width:0.2;stroke-linecap:round;stroke-linejoin:round;stroke-dasharray:none"
         d="m 123.78395,89.369098 c 0,0 -2.20254,1.457708 -3.13796,2.378557 -0.61802,0.608395 -1.39586,1.577909 -2.07825,2.480313"
         id="path37775-3-0"
         sodipodi:nodetypes="csc" /><path
         style="fill:none;stroke:#000000;stroke-width:0.2;stroke-linecap:round;stroke-linejoin:round;stroke-dasharray:none"
         d="m 113.52831,94.671449 c 0,0 0.20661,-3.315605 0.0524,-4.962735 -0.1008,-1.076884 -0.63584,-3.181826 -0.63584,-3.181826"
         id="path37781-5-6"
         sodipodi:nodetypes="cac" /><path
         style="fill:none;stroke:#000000;stroke-width:0.2;stroke-linecap:round;stroke-linejoin:round;stroke-dasharray:none"
         d="m 114.8787,103.85791 c 0.4683,0.09 0.98429,0.40023 1.15385,0.8462 0.14301,0.37616 0.037,0.90173 -0.25304,1.18055 -0.31737,0.30507 -0.87321,0.3285 -1.30097,0.22498 -0.42969,-0.10397 -0.90497,-0.38407 -1.05916,-0.7986 -0.13545,-0.36419 -0.0233,-0.85931 0.24575,-1.13955"
         id="path42371-8"
         sodipodi:nodetypes="caaaac" /><path
         style="fill:none;stroke:#000000;stroke-width:0.2;stroke-linecap:round;stroke-linejoin:round;stroke-dasharray:none"
         d="m 118.44912,102.2511 c -0.13544,-0.36419 -0.0233,-0.85931 0.24577,-1.13955 0.28935,-0.30152 0.80327,-0.39248 1.21356,-0.31358 0.46829,0.09 0.98429,0.40023 1.15384,0.8462 0.14301,0.37616 0.037,0.90172 -0.25302,1.18054 -0.31737,0.30508 -0.87323,0.3285 -1.30097,0.22499"
         id="path42397-7"
         sodipodi:nodetypes="caaaac" /><path
         style="fill:none;stroke:#000000;stroke-width:0.2;stroke-linecap:round;stroke-linejoin:round;stroke-dasharray:none"
         d="m 115.86786,99.272325 c -0.42968,-0.103966 -0.90497,-0.384074 -1.05916,-0.798601 -0.13545,-0.364187 -0.0233,-0.85931 0.24574,-1.139548 0.28949,-0.301462 0.80329,-0.392472 1.21358,-0.313573 0.46829,0.09004 0.98426,0.400273 1.15383,0.846192 0.14303,0.376165 0.037,0.901732 -0.25302,1.180544"
         id="path42399-9"
         sodipodi:nodetypes="caaaac" /><path
         style="fill:none;stroke:#000000;stroke-width:0.2;stroke-linecap:round;stroke-linejoin:round;stroke-dasharray:none"
         d="m 112.8393,101.02635 c 0.14301,0.37615 0.037,0.9017 -0.25304,1.18053 -0.31735,0.30507 -0.87321,0.32851 -1.30095,0.22498 -0.42968,-0.10397 -0.90498,-0.38408 -1.05918,-0.79859 -0.13543,-0.3642 -0.0233,-0.85931 0.24577,-1.13956 0.28935,-0.30151 0.80327,-0.39247 1.21356,-0.31356"
         id="path42401-0"
         sodipodi:nodetypes="caaaac" /><path
         style="fill:none;stroke:#000000;stroke-width:0.2;stroke-linecap:round;stroke-linejoin:round;stroke-dasharray:none"
         d="m 119.27136,106.3374 -3.17885,2.00938 c -0.41229,0.2606 -0.93513,0.39747 -1.42049,0.35018 -0.48372,-0.0471 -0.99741,-0.25367 -1.32178,-0.61581 m -1.11755,-1.24744 -3.00259,-3.35157 m -0.84019,-0.93785 c -0.38097,-0.42527 -0.55608,-1.05574 -0.53803,-1.62657 0.0131,-0.41442 0.10656,-0.94476 0.46442,-1.153776 l 3.0676,-1.791729 m 1.24254,-0.725745 2.72389,-1.590979 c 0.49712,-0.290357 1.16151,-0.258926 1.72207,-0.128071 0.52065,0.121418 1.0227,0.418348 1.38165,0.814781 l 3.0852,3.40662 m 1.606,1.773329 c 0.40109,0.44288 0.52655,1.18441 0.35617,1.75725 -0.13615,0.45758 -0.60194,0.7646 -1.00532,1.01958"
         id="path42403-3"
         sodipodi:nodetypes="csaccccasccsasccac" /><path
         style="fill:none;stroke:#000000;stroke-width:0.2;stroke-linecap:round;stroke-linejoin:round;stroke-dasharray:none"
         d="m 116.97305,94.113532 c 0,0 0.96011,-1.871599 1.55118,-2.738148 0.49527,-0.725977 1.66168,-2.046715 1.66168,-2.046715"
         id="path43047-3"
         sodipodi:nodetypes="cac" /><path
         style="fill:none;stroke:#000000;stroke-width:0.2;stroke-linecap:round;stroke-linejoin:round;stroke-dasharray:none"
         d="m 115.22929,91.661133 c 0,0 0.001,0.67354 -0.017,1.009634 -0.0266,0.494309 -0.13469,1.478915 -0.13469,1.478915"
         id="path43049-3"
         sodipodi:nodetypes="cac" /><path
         style="fill:none;stroke:#000000;stroke-width:0.2;stroke-linecap:round;stroke-linejoin:round;stroke-dasharray:none"
         d="m 118.51481,108.24582 4.18102,-2.71859 c 0.33518,-0.21794 0.82565,-0.40948 1.17857,-0.22165 0.2885,0.15367 0.46364,0.58257 0.38841,0.90082 l -0.46045,1.94786 m -0.44682,1.89032 c -0.0791,0.33422 -0.33577,0.60435 -0.55869,0.86553 -0.32126,0.37652 -0.69248,0.71833 -1.10507,0.99156 m -2.83976,1.88048 -2.98775,1.97849 c -0.36634,0.24258 -0.7524,0.58645 -1.19112,0.56418 -0.37366,-0.019 -1.02467,-0.21189 -0.9608,-0.58081 l 0.67293,-3.8863 c 0.0834,-0.48129 0.29065,-0.96316 0.61076,-1.33192 0.24639,-0.28383 0.63374,-0.40407 0.94878,-0.60892"
         id="path43051-7"
         sodipodi:nodetypes="csasccaccsassac" /><path
         style="fill:none;stroke:#000000;stroke-width:0.2;stroke-linecap:round;stroke-linejoin:round;stroke-dasharray:none"
         d="m 118.13105,111.75079 c 0,0 0.54637,-0.008 1.17671,-0.52806 0.63032,-0.52031 0.71755,-1.02106 0.71755,-1.02106"
         id="path43701-3"
         sodipodi:nodetypes="czc" /><path
         style="fill:none;stroke:#000000;stroke-width:0.2;stroke-linecap:round;stroke-linejoin:round;stroke-dasharray:none"
         d="m 104.01078,103.55145 c 0,0 -3.95286,-5.012865 -5.386724,-7.841626 C 97.28461,93.067346 95.69014,87.319792 95.69014,87.319792"
         id="path45029-2"
         sodipodi:nodetypes="cac" /><path
         style="fill:none;stroke:#000000;stroke-width:0.2;stroke-linecap:round;stroke-linejoin:round;stroke-dasharray:none"
         d="m 110.39722,86.453898 c 0,0 -0.85082,-1.408934 -1.35686,-2.055295 -0.62112,-0.793386 -2.04917,-2.221989 -2.04917,-2.221989"
         id="path45031-6"
         sodipodi:nodetypes="cac" /><path
         style="fill:none;stroke:#000000;stroke-width:0.2;stroke-linecap:round;stroke-linejoin:round;stroke-dasharray:none"
         d="m 110.171,67.754259 c 0,0 -1.86208,-0.765375 -2.81364,-1.091788 -0.97453,-0.334089 -2.961,-0.885399 -2.961,-0.885399"
         id="path45033-5"
         sodipodi:nodetypes="cac" /><path
         style="fill:none;stroke:#000000;stroke-width:0.2;stroke-linecap:round;stroke-linejoin:round;stroke-dasharray:none"
         d="m 131.2776,80.11711 c 0,0 1.08147,-2.119731 1.36965,-3.263929 0.26062,-1.034761 0.30737,-3.186517 0.30737,-3.186517"
         id="path45832-2"
         sodipodi:nodetypes="cac" /><path
         style="fill:none;stroke:#000000;stroke-width:0.2;stroke-linecap:round;stroke-linejoin:round;stroke-dasharray:none"
         d="m 111.86677,75.055337 c 0,0 0.0789,-1.794531 0.30494,-2.656776 0.2546,-0.970918 1.16879,-2.775063 1.16879,-2.775063"
         id="path45834-6"
         sodipodi:nodetypes="cac" /><path
         style="fill:none;stroke:#000000;stroke-width:0.2;stroke-linecap:round;stroke-linejoin:round;stroke-dasharray:none"
         d="m 120.6241,64.664653 c 0,0 2.7752,-0.105567 4.08483,0.278646 1.66314,0.487919 4.55693,2.504892 4.55693,2.504892"
         id="path45836-5"
         sodipodi:nodetypes="cac" /></g></g></svg>
