<?xml version="1.0" encoding="UTF-8" standalone="no"?>
<!-- Created with Inkscape (http://www.inkscape.org/) -->

<svg
   width="304.08929"
   height="62.206779"
   viewBox="0 0 80.456953 16.458877"
   version="1.1"
   id="svg1"
   inkscape:version="1.3.2 (091e20ef0f, 2023-11-25, custom)"
   sodipodi:docname="autres-versions.svg"
   xmlns:inkscape="http://www.inkscape.org/namespaces/inkscape"
   xmlns:sodipodi="http://sodipodi.sourceforge.net/DTD/sodipodi-0.dtd"
   xmlns="http://www.w3.org/2000/svg"
   xmlns:svg="http://www.w3.org/2000/svg">
  <sodipodi:namedview
     id="namedview1"
     pagecolor="#ffffff"
     bordercolor="#666666"
     borderopacity="1.0"
     inkscape:showpageshadow="2"
     inkscape:pageopacity="0.0"
     inkscape:pagecheckerboard="0"
     inkscape:deskcolor="#d1d1d1"
     inkscape:document-units="mm"
     inkscape:zoom="1.8807208"
     inkscape:cx="160.57673"
     inkscape:cy="6.1146768"
     inkscape:window-width="1916"
     inkscape:window-height="1029"
     inkscape:window-x="0"
     inkscape:window-y="0"
     inkscape:window-maximized="1"
     inkscape:current-layer="layer1"
     showgrid="false" />
  <defs
     id="defs1">
    <style
       transform="translate(-130.185, 41.1648)"
       id="style111"><![CDATA[
polygon {
shape-rendering:crispEdges;
stroke-width:0.098900;
}
.s0 {
stroke:#000000;
stroke-width:0.080355;
stroke-linecap:round;
stroke-linejoin:round;
fill:none;
}
.s1 {
stroke:#000000;
stroke-width:0.080355;
stroke-linecap:round;
stroke-linejoin:round;
fill:none;
}
.s2 {
stroke:#19b219;
stroke-width:0.080355;
stroke-linecap:round;
stroke-linejoin:round;
fill:none;
}
.s3 {
stroke:#7f4c00;
stroke-width:0.080355;
stroke-linecap:round;
stroke-linejoin:round;
fill:none;
}
.s4 {
stroke:#00cc00;
stroke-width:0.080355;
stroke-linecap:round;
stroke-linejoin:round;
fill:none;
}
.s5 {
stroke:#000000;
stroke-width:0.053570;
stroke-linecap:round;
stroke-linejoin:round;
fill:none;
}
.s6 {
stroke:#ff19ff;
stroke-width:0.053570;
stroke-linecap:round;
stroke-linejoin:round;
fill:none;
}
.s7 {
stroke:#ff0000;
stroke-width:0.080355;
stroke-linecap:round;
stroke-linejoin:round;
fill:none;
}
.s8 {
stroke:#ffff00;
stroke-width:0.080355;
stroke-linecap:round;
stroke-linejoin:round;
fill:none;
}
.s9 {
stroke:#001919;
stroke-width:0.053570;
stroke-linecap:round;
stroke-linejoin:round;
fill:none;
}
.sa {
stroke:#006666;
stroke-width:0.053570;
stroke-linecap:round;
stroke-linejoin:round;
fill:none;
}
.sb {
stroke:#00ffff;
stroke-width:0.160711;
stroke-linecap:round;
stroke-linejoin:round;
fill:none;
}
.sc {
stroke:#ff0000;
stroke-width:0.428562;
stroke-linecap:round;
stroke-linejoin:round;
fill:none;
}
.sd {
stroke:#191919;
stroke-width:0.053570;
stroke-linecap:round;
stroke-linejoin:round;
fill:none;
}
.se {
stroke:#000000;
stroke-width:0.053570;
stroke-linecap:round;
stroke-linejoin:round;
stroke-dasharray:0.804,0.804;
fill:none;
}
.sf {
stroke:#000000;
stroke-width:0.160711;
stroke-linecap:round;
stroke-linejoin:round;
fill:none;
}
.s100 {
stroke:#ff0000;
stroke-width:0.500000;
stroke-linecap:round;
stroke-linejoin:round;
fill:none;
}
]]></style>
  </defs>
  <g
     inkscape:label="Layer 1"
     inkscape:groupmode="layer"
     id="layer1"
     transform="translate(-25.588038,-130.17679)">
    <g
       id="g4">
      <g
         id="g1"
         inkscape:label="colors"
         transform="translate(-76.715223,-0.66212293)">
        <path
           id="path1"
           style="fill:#fff6e5;fill-opacity:1;stroke:none;stroke-width:0.2;stroke-linecap:round;stroke-linejoin:round"
           d="m 177.89106,133.74866 c -5.14295,-3.42908 -12.17516,-2.33843 -18.3456,-2.70465 -11.26288,-0.66845 -22.56213,0.47079 -33.83502,0.94127 -6.90766,0.2883 -15.52163,-3.41778 -20.70897,1.15283 -2.50319,2.20559 -3.61204,7.03598 -1.81006,9.84373 1.9219,2.99461 6.82009,2.16037 10.34881,2.61809 11.56396,1.49998 23.34212,1.07714 34.98068,0.35673 11.3997,-0.70563 29.01119,5.7224 33.95814,-4.57221 1.28611,-2.6764 -2.1174,-5.98853 -4.58798,-7.63579 z"
           sodipodi:nodetypes="aaaaaaaaa" />
        <path
           id="path8"
           style="fill:#ffe6b3;fill-opacity:1;stroke:none;stroke-width:0.2;stroke-linecap:round;stroke-linejoin:round"
           d="m 180.17018,141.51748 c 0.89442,-3.08943 -2.31834,-6.66745 -5.17621,-8.14297 -3.15813,-1.63055 -7.10032,0.75277 -10.64859,0.54733 -3.92563,-0.22729 -7.70087,-1.89144 -11.63246,-1.96114 -3.80354,-0.0674 -7.52194,1.19172 -11.3138,1.49718 -6.97722,0.56207 -13.9907,0.62083 -20.99052,0.61312 -3.70294,-0.004 -7.63656,-1.65003 -11.10335,-0.34881 -2.72127,1.0214 -6.85013,3.07203 -6.383,5.94089 0.44689,2.74457 4.87826,2.8555 7.59409,3.4527 6.9528,1.5289 14.24077,-0.0863 21.35634,0.13209 6.73134,0.20657 13.45212,0.68248 20.17278,1.11411 3.8515,0.24736 7.69265,0.65514 11.54738,0.84562 2.76649,0.1367 5.59649,0.78413 8.30685,0.21309 2.98294,-0.62847 7.42275,-0.97503 8.27049,-3.90321 z"
           sodipodi:nodetypes="aaaaaaaaaaaaaa" />
        <path
           id="path141"
           style="opacity:1;fill:#ffdd99;fill-opacity:1;stroke-width:1;stroke-linecap:round;stroke-linejoin:round"
           d="m 143.60735,135.27282 c -2.54841,0.41068 -5.15148,0.43762 -7.73267,0.41595 -1.74148,-0.0146 -3.47021,-0.38908 -5.21162,-0.3682 -1.71118,0.0205 -3.40316,0.59352 -5.11099,0.48449 -2.6144,-0.16692 -5.06,-1.99597 -7.66625,-1.73065 -1.56893,0.15972 -3.64306,0.52153 -4.31035,1.95043 -0.87071,1.86449 -0.009,4.74059 1.65893,5.94628 1.58072,1.1429 3.89485,-0.27472 5.84547,-0.27321 1.59484,0.001 3.18603,0.15266 4.77896,0.23077 3.3023,0.16193 6.60516,0.3135 9.90655,0.49318 2.99492,0.163 5.98306,0.53412 8.98242,0.53057 4.59331,-0.005 9.16115,-0.90978 13.75401,-0.8451 3.8956,0.0549 7.75781,1.3588 11.64115,1.04504 2.52686,-0.20417 6.3416,0.43101 7.36739,-1.88728 0.92151,-2.08262 -1.22259,-4.90238 -3.19647,-6.0383 -2.80222,-1.61262 -6.45867,0.3976 -9.69175,0.38346 -2.62546,-0.0115 -5.25654,-0.10227 -7.86726,-0.38022 -2.71541,-0.2891 -5.35535,-1.4754 -8.08256,-1.33623 -1.7475,0.0892 -3.33748,1.1006 -5.06496,1.37898 z m -34.93266,-1.8944 c -2.16639,-0.44941 -4.27309,2.43431 -4.80156,4.58278 -0.30177,1.22682 0.37968,2.64231 1.21502,3.59012 0.68021,0.77181 1.79165,1.6482 2.77592,1.3489 1.77397,-0.53943 2.68378,-2.95443 2.80279,-4.80477 0.10956,-1.7033 -0.32093,-4.37033 -1.99217,-4.71703 z"
           sodipodi:nodetypes="aaaaaaaaaaaaaaaaaaaaaaaaaa" />
      </g>
      <path
         id="text2"
         style="font-size:7.76111px;line-height:1.25;font-family:Tibet;-inkscape-font-specification:Tibet;text-align:justify;letter-spacing:0px;word-spacing:0px;stroke-width:0.264583"
         d="M 49.493039 132.85673 C 49.369245 132.85673 49.30752 132.93361 49.30752 133.08772 L 49.30752 135.3465 C 48.824978 135.43998 48.363736 135.48654 47.924142 135.48654 L 47.75361 135.48654 C 47.647501 135.48654 47.581987 135.55097 47.556723 135.67981 C 47.556723 135.77834 47.622237 135.84058 47.75361 135.86585 L 47.924142 135.86585 C 48.399106 135.86585 48.860348 135.82037 49.30752 135.72942 L 49.30752 140.0041 C 49.30752 140.15821 49.369245 140.23509 49.493039 140.23509 L 49.527145 140.23509 C 49.605464 140.23509 49.660126 140.18095 49.690443 140.07231 L 49.690443 135.64571 C 50.074456 135.5396 50.370046 135.4324 50.57721 135.32376 C 51.15323 135.01049 51.44124 134.77932 51.44124 134.63026 L 51.44124 134.59616 C 51.44124 134.51026 51.380606 134.45721 51.259339 134.437 L 51.232468 134.437 C 51.141517 134.46226 51.096042 134.48879 51.096042 134.51658 C 50.722134 134.85511 50.25383 135.10144 49.690443 135.25555 L 49.690443 133.01951 C 49.690443 132.94119 49.63578 132.88705 49.527145 132.85673 L 49.493039 132.85673 z M 31.621261 134.33829 C 31.5101 134.36608 31.454863 134.42184 31.454863 134.50521 L 31.454863 134.58117 C 32.212783 135.71805 32.591745 136.8295 32.591745 137.91585 C 32.591745 138.82536 32.343812 139.73974 31.848638 140.65935 C 31.585892 141.07874 31.454863 141.30123 31.454863 141.3265 L 31.454863 141.37197 C 31.482654 141.48313 31.53789 141.53889 31.621261 141.53889 L 31.666737 141.53889 C 31.694527 141.53889 31.724844 141.52861 31.757687 141.5084 C 32.566135 140.3311 32.970533 139.16389 32.970533 138.0068 L 32.970533 137.87038 C 32.970533 137.16299 32.80379 136.40994 32.470305 135.6116 C 32.053449 134.76273 31.785478 134.33829 31.666737 134.33829 L 31.621261 134.33829 z M 29.779513 134.77444 C 29.607718 134.77444 29.470201 134.80206 29.366619 134.85764 C 28.699649 135.14312 28.351005 136.02231 28.320688 137.49521 C 28.320688 137.60132 28.39269 137.67332 28.536695 137.71121 C 28.657962 137.71121 28.729965 137.62893 28.752703 137.46472 L 28.752703 137.38152 C 28.752703 137.23751 28.757583 137.08214 28.767689 136.9154 C 28.911694 135.76336 29.248969 135.18734 29.779513 135.18734 C 30.499538 135.18734 30.859551 135.66971 30.859551 136.63479 C 30.798917 137.05165 30.290018 137.8036 29.332512 138.88995 C 28.956079 139.28407 28.767689 139.48871 28.767689 139.50387 C 28.469574 139.76914 28.320688 139.94076 28.320688 140.01908 C 28.343425 140.16309 28.410547 140.23509 28.521709 140.23509 L 31.075558 140.23509 C 31.219563 140.21741 31.291566 140.15028 31.291566 140.03407 C 31.271355 139.89259 31.210721 139.8222 31.109665 139.8222 L 29.051909 139.8222 L 29.051909 139.80308 C 30.545012 138.23671 31.291566 137.16913 31.291566 136.60069 C 31.268828 136.28994 31.24121 136.04631 31.208367 135.86947 C 30.965832 135.13934 30.517567 134.77444 29.863229 134.77444 L 29.779513 134.77444 z M 40.280681 134.79305 C 39.555604 134.79305 38.935199 135.09512 38.419813 135.69893 C 38.013062 136.20169 37.738028 136.81182 37.594024 137.52931 C 37.594024 137.64805 37.670907 137.71518 37.825017 137.73033 L 40.280681 137.73033 C 40.434792 137.71265 40.511675 137.65202 40.511675 137.54843 L 40.511675 137.48022 C 40.511675 137.37664 40.434792 137.316 40.280681 137.29832 L 38.071514 137.29832 C 38.506055 135.90375 39.248819 135.20646 40.299802 135.20646 C 40.986982 135.20646 41.568975 135.89347 42.046465 137.26783 C 42.243524 137.86659 42.419454 138.66889 42.573565 139.6744 C 42.573565 140.04831 42.645567 140.23509 42.789572 140.23509 L 42.838665 140.23509 C 42.942247 140.23509 43.002881 140.17446 43.020566 140.05319 C 43.020566 139.74497 42.932314 139.16246 42.755466 138.30601 C 42.214816 135.96404 41.412509 134.79305 40.348894 134.79305 L 40.280681 134.79305 z M 72.401201 134.80441 C 72.330462 134.80441 72.269828 134.85368 72.2193 134.95221 C 72.2193 137.11481 71.320071 138.58518 69.521274 139.36331 C 68.692614 139.6589 68.062447 139.80669 67.630433 139.80669 L 67.630433 136.25239 C 67.630433 136.14628 67.563311 136.08025 67.429412 136.05498 C 67.287933 136.0752 67.217022 136.13583 67.217022 136.23689 L 67.217022 140.05319 C 67.217022 140.15677 67.277655 140.21741 67.398923 140.23509 L 67.414426 140.23509 C 68.061184 140.23509 68.779603 140.0873 69.570366 139.79171 C 71.611698 138.92263 72.632712 137.34724 72.632712 135.0659 L 72.632712 134.98632 C 72.602395 134.86505 72.541761 134.80441 72.450811 134.80441 L 72.401201 134.80441 z M 85.127039 135.53202 C 85.020931 135.53202 84.956507 135.59644 84.93377 135.72529 L 84.93377 135.76353 C 84.93377 135.86964 84.998193 135.93406 85.127039 135.9568 L 85.164763 135.9568 C 85.270872 135.9568 85.335296 135.89238 85.358033 135.76353 L 85.358033 135.72529 C 85.358033 135.61918 85.29361 135.55476 85.164763 135.53202 L 85.127039 135.53202 z M 51.043332 136.35832 L 50.982354 136.36969 C 50.906562 136.40506 50.868665 136.48574 50.868665 136.61206 L 50.868665 139.98136 C 50.876245 140.15063 50.934697 140.23509 51.043332 140.23509 L 51.088807 140.23509 C 51.164599 140.23509 51.217654 140.18204 51.24797 140.07593 L 51.24797 138.47654 C 51.24797 138.05463 51.347591 137.75904 51.547177 137.58977 C 51.70634 137.44072 51.879572 137.31836 52.066525 137.22235 C 52.837077 136.89898 53.664304 136.73711 54.548544 136.73711 C 54.687496 136.71185 54.7568 136.65122 54.7568 136.55521 C 54.731536 136.42384 54.674692 136.35832 54.586268 136.35832 L 54.571282 136.35832 C 53.853784 136.35832 53.133757 136.46552 52.411207 136.68027 C 51.994351 136.79648 51.606719 137.01898 51.24797 137.34741 L 51.24797 136.51749 C 51.24797 136.4417 51.194916 136.38864 51.088807 136.35832 L 51.043332 136.35832 z M 57.382996 136.35832 C 56.796872 136.35832 56.247378 136.48447 55.734518 136.73711 C 54.984177 137.15902 54.609006 137.66953 54.609006 138.26829 L 54.609006 138.32513 C 54.609006 138.64093 54.731881 138.95547 54.976942 139.26874 C 55.585804 139.91297 56.391384 140.23509 57.394365 140.23509 L 58.300253 140.23509 C 58.424047 140.21235 58.485772 140.15442 58.485772 140.06094 L 58.485772 140.04957 C 58.485772 139.93841 58.420257 139.87399 58.288884 139.8563 L 57.394365 139.8563 C 57.0053 139.8563 56.617668 139.79027 56.231129 139.6589 C 55.402469 139.31026 54.988311 138.86199 54.988311 138.31376 L 54.988311 138.27965 C 54.988311 138.01944 55.095511 137.76662 55.310255 137.52156 C 55.840799 136.9986 56.5316 136.73711 57.382996 136.73711 L 57.428472 136.73711 C 57.511843 136.73711 57.61577 136.75985 57.739564 136.80533 C 57.984625 136.91901 58.106983 137.11877 58.106983 137.40426 C 58.106983 137.53816 58.056627 137.64914 57.955571 137.73757 C 57.609455 137.98263 57.141724 138.10551 56.553073 138.10551 C 56.454543 138.10551 56.351133 138.08656 56.242498 138.04866 C 55.989858 137.96024 55.863709 137.79568 55.863709 137.55567 C 55.851077 137.40156 55.788836 137.32467 55.677674 137.32467 C 55.548828 137.35499 55.484404 137.41293 55.484404 137.49882 L 55.484404 137.53293 C 55.484404 137.65925 55.510932 137.79728 55.563986 137.94634 C 55.786309 138.30762 56.108426 138.48791 56.530335 138.48791 C 56.596022 138.48791 56.69237 138.48412 56.81869 138.47654 C 57.930306 138.36538 58.485772 138.01186 58.485772 137.41562 L 58.485772 137.40426 C 58.485772 137.25015 58.455455 137.09747 58.394821 136.94589 C 58.182603 136.55429 57.856697 136.35832 57.417103 136.35832 L 57.382996 136.35832 z M 62.449871 136.35832 C 60.663706 136.35832 59.770448 136.75733 59.770448 137.55567 L 59.770448 137.60114 C 59.770448 137.91189 60.049788 138.18744 60.608123 138.42745 C 61.214459 138.65988 61.517628 138.9062 61.517628 139.16642 C 61.517628 139.26243 61.456994 139.35447 61.335727 139.44289 C 60.810236 139.71827 60.062591 139.8563 59.092453 139.8563 C 58.96108 139.87399 58.895049 139.93462 58.895049 140.0382 L 58.895049 140.07593 C 58.895049 140.15172 58.948103 140.20477 59.054212 140.23509 C 59.640337 140.23509 60.227727 140.17337 60.816379 140.04957 C 61.536403 139.85251 61.896416 139.56938 61.896416 139.20053 C 61.896416 138.80136 61.63654 138.47924 61.116102 138.23418 C 60.47187 137.97901 60.149753 137.7641 60.149753 137.58977 L 60.149753 137.5443 C 60.149753 137.47356 60.17249 137.3891 60.217966 137.29057 C 60.49587 136.92171 61.243514 136.73711 62.461239 136.73711 L 62.540821 136.73711 C 62.694932 136.72195 62.771815 136.66511 62.771815 136.56658 C 62.759183 136.42763 62.697458 136.35832 62.586296 136.35832 L 62.449871 136.35832 z M 75.588604 136.35832 C 75.002479 136.35832 74.452985 136.48447 73.940125 136.73711 C 73.189784 137.15902 72.814613 137.66953 72.814613 138.26829 L 72.814613 138.32513 C 72.814613 138.64093 72.936971 138.95547 73.182032 139.26874 C 73.790895 139.91297 74.596991 140.23509 75.599972 140.23509 L 76.505344 140.23509 C 76.629137 140.21235 76.691379 140.15442 76.691379 140.06094 L 76.691379 140.04957 C 76.691379 139.93841 76.625348 139.87399 76.493975 139.8563 L 75.599972 139.8563 C 75.210907 139.8563 74.822758 139.79027 74.436219 139.6589 C 73.60756 139.31026 73.193401 138.86199 73.193401 138.31376 L 73.193401 138.27965 C 73.193401 138.01944 73.300601 137.76662 73.515345 137.52156 C 74.045889 136.9986 74.737207 136.73711 75.588604 136.73711 L 75.634079 136.73711 C 75.71745 136.73711 75.820861 136.75985 75.944654 136.80533 C 76.189715 136.91901 76.312074 137.11877 76.312074 137.40426 C 76.312074 137.53816 76.261718 137.64914 76.160662 137.73757 C 75.814545 137.98263 75.347331 138.10551 74.75868 138.10551 C 74.66015 138.10551 74.556223 138.08656 74.447588 138.04866 C 74.194948 137.96024 74.0688 137.79568 74.0688 137.55567 C 74.056168 137.40156 73.994443 137.32467 73.883281 137.32467 C 73.754435 137.35499 73.690011 137.41293 73.690011 137.49882 L 73.690011 137.53293 C 73.690011 137.65925 73.716539 137.79728 73.769593 137.94634 C 73.991916 138.30762 74.314034 138.48791 74.735942 138.48791 C 74.801629 138.48791 74.89746 138.48412 75.02378 138.47654 C 76.135396 138.36538 76.691379 138.01186 76.691379 137.41562 L 76.691379 137.40426 C 76.691379 137.25015 76.661062 137.09747 76.600428 136.94589 C 76.388211 136.55429 76.062304 136.35832 75.62271 136.35832 L 75.588604 136.35832 z M 77.517168 136.35832 L 77.456707 136.36969 C 77.380915 136.40506 77.343018 136.48574 77.343018 136.61206 L 77.343018 139.98136 C 77.350598 140.15063 77.408533 140.23509 77.517168 140.23509 L 77.562643 140.23509 C 77.638435 140.23509 77.69149 140.18204 77.721807 140.07593 L 77.721807 138.47654 C 77.721807 138.05463 77.821944 137.75904 78.02153 137.58977 C 78.180693 137.44072 78.353408 137.31836 78.540361 137.22235 C 79.310914 136.89898 80.138657 136.73711 81.022897 136.73711 C 81.161849 136.71185 81.231153 136.65122 81.231153 136.55521 C 81.205889 136.42384 81.149045 136.35832 81.060621 136.35832 L 81.045635 136.35832 C 80.328137 136.35832 79.60811 136.46552 78.88556 136.68027 C 78.468704 136.79648 78.080556 137.01898 77.721807 137.34741 L 77.721807 136.51749 C 77.721807 136.4417 77.668752 136.38864 77.562643 136.35832 L 77.517168 136.35832 z M 84.266627 136.35832 C 82.480462 136.35832 81.587204 136.75733 81.587204 137.55567 L 81.587204 137.60114 C 81.587204 137.91189 81.866544 138.18744 82.424879 138.42745 C 83.031215 138.65988 83.334384 138.9062 83.334384 139.16642 C 83.334384 139.26243 83.27375 139.35447 83.152483 139.44289 C 82.626992 139.71827 81.879347 139.8563 80.909209 139.8563 C 80.777836 139.87399 80.711805 139.93462 80.711805 140.0382 L 80.711805 140.07593 C 80.711805 140.15172 80.76486 140.20477 80.870969 140.23509 C 81.457093 140.23509 82.044484 140.17337 82.633135 140.04957 C 83.353159 139.85251 83.713172 139.56938 83.713172 139.20053 C 83.713172 138.80136 83.453297 138.47924 82.932858 138.23418 C 82.288626 137.97901 81.966509 137.7641 81.966509 137.58977 L 81.966509 137.5443 C 81.966509 137.47356 81.989247 137.3891 82.034722 137.29057 C 82.312626 136.92171 83.060271 136.73711 84.277996 136.73711 L 84.357577 136.73711 C 84.511688 136.72195 84.588571 136.66511 84.588571 136.56658 C 84.575939 136.42763 84.514214 136.35832 84.403053 136.35832 L 84.266627 136.35832 z M 87.95374 136.35832 C 87.413091 136.35832 86.949667 136.59977 86.563128 137.08231 C 86.201852 137.59264 86.021042 138.10642 86.021042 138.62434 C 86.021042 138.87192 86.087073 139.11716 86.218446 139.35969 C 86.473612 139.94329 87.025288 140.23509 87.874159 140.23509 L 88.044691 140.23509 C 88.608078 140.23509 89.041702 140.10894 89.34487 139.8563 C 89.713724 139.45966 89.897808 139.05635 89.897808 138.64707 C 89.897808 138.35654 89.839873 138.05716 89.723658 137.74894 C 89.327013 136.82175 88.740714 136.35832 87.965109 136.35832 L 87.95374 136.35832 z M 90.852788 136.35832 C 90.759311 136.35832 90.706257 136.44658 90.693625 136.62342 L 90.693625 139.96999 C 90.701204 140.14684 90.759656 140.23509 90.868291 140.23509 L 90.913766 140.23509 C 91.019875 140.2073 91.07293 140.14937 91.07293 140.06094 L 91.07293 138.71529 C 91.07293 138.34896 91.084299 138.07014 91.107036 137.87813 C 91.218198 137.11768 91.432598 136.73711 91.750925 136.73711 L 91.762293 136.73711 C 91.921457 136.73711 92.17915 136.94824 92.535373 137.37015 C 93.038126 138.03712 93.543753 138.84701 94.051559 139.79946 C 94.1703 140.08999 94.273711 140.23509 94.362135 140.23509 L 94.411227 140.23509 C 94.497125 140.23509 94.553969 140.17337 94.58176 140.04957 C 94.58176 140.01926 94.559022 139.96241 94.513547 139.87904 C 93.28319 137.53201 92.373682 136.35832 91.785031 136.35832 L 91.762293 136.35832 C 91.497021 136.35832 91.267463 136.48447 91.07293 136.73711 L 91.07293 136.51749 C 91.07293 136.43159 91.012296 136.37854 90.891029 136.35832 L 90.852788 136.35832 z M 98.667298 136.35832 C 96.881133 136.35832 95.987875 136.75733 95.987875 137.55567 L 95.987875 137.60114 C 95.987875 137.91189 96.267216 138.18744 96.82555 138.42745 C 97.431886 138.65988 97.735055 138.9062 97.735055 139.16642 C 97.735055 139.26243 97.674422 139.35447 97.553154 139.44289 C 97.027663 139.71827 96.279501 139.8563 95.309364 139.8563 C 95.177991 139.87399 95.112476 139.93462 95.112476 140.0382 L 95.112476 140.07593 C 95.112476 140.15172 95.165531 140.20477 95.27164 140.23509 C 95.857765 140.23509 96.445155 140.17337 97.033806 140.04957 C 97.75383 139.85251 98.113844 139.56938 98.113844 139.20053 C 98.113844 138.80136 97.853451 138.47924 97.333013 138.23418 C 96.688781 137.97901 96.366663 137.7641 96.366663 137.58977 L 96.366663 137.5443 C 96.366663 137.47356 96.389401 137.3891 96.434876 137.29057 C 96.71278 136.92171 97.460942 136.73711 98.678667 136.73711 L 98.758249 136.73711 C 98.912359 136.72195 98.989242 136.66511 98.989242 136.56658 C 98.97661 136.42763 98.914886 136.35832 98.803724 136.35832 L 98.667298 136.35832 z M 43.751787 136.36969 C 43.66589 136.36969 43.609045 136.43033 43.581255 136.55159 C 43.581255 137.23878 43.688972 137.94634 43.903716 138.67395 C 44.249833 139.71482 44.772799 140.23509 45.472612 140.23509 L 45.612656 140.23509 C 46.224044 140.23509 46.709115 140.10515 47.067864 139.84493 L 47.067864 139.98136 C 47.067864 140.15063 47.124708 140.23509 47.238396 140.23509 L 47.287489 140.23509 C 47.363281 140.23509 47.416335 140.18204 47.446652 140.07593 L 47.446652 139.27236 C 47.446652 139.22688 47.450442 139.20036 47.458021 139.19278 C 47.450442 139.14983 47.446652 139.11463 47.446652 139.08684 L 47.446652 136.52886 C 47.446652 136.44296 47.386018 136.3899 47.264751 136.36969 L 47.238396 136.36969 C 47.13734 136.36969 47.080496 136.45037 47.067864 136.61206 L 47.067864 139.18141 L 47.056495 139.26099 C 46.867015 139.65763 46.378155 139.8563 45.589918 139.8563 L 45.483981 139.8563 C 45.067125 139.8563 44.719572 139.58075 44.441668 139.03 C 44.120815 138.2645 43.96056 137.42699 43.96056 136.51749 C 43.96056 136.44422 43.898318 136.39496 43.774525 136.36969 L 43.751787 136.36969 z M 85.115671 136.36969 C 85.039879 136.36969 84.986824 136.42275 84.956507 136.52886 L 84.956507 140.07593 C 84.956507 140.15172 85.009562 140.20477 85.115671 140.23509 L 85.164763 140.23509 C 85.265819 140.23509 85.322663 140.15442 85.335295 139.99273 L 85.335295 136.59707 C 85.335295 136.46317 85.278451 136.38738 85.164763 136.36969 L 85.115671 136.36969 z M 87.95374 136.73711 C 88.355438 136.73711 88.700293 136.90277 88.988302 137.23372 C 89.341999 137.68848 89.519019 138.1519 89.519019 138.62434 L 89.519019 138.63571 C 89.519019 138.81255 89.468664 138.99336 89.367607 139.17779 C 89.198339 139.63002 88.749557 139.8563 88.021953 139.8563 L 87.896896 139.8563 C 87.406775 139.8563 87.04946 139.75995 86.82461 139.56795 C 86.541653 139.25973 86.400347 138.94898 86.400347 138.63571 L 86.400347 138.62434 C 86.400347 138.41212 86.443123 138.19014 86.529021 137.95771 C 86.839768 137.14421 87.314561 136.73711 87.95374 136.73711 z " />
    </g>
  </g>
</svg>
