<?xml version="1.0" encoding="UTF-8" standalone="no"?>
<!-- Created with Inkscape (http://www.inkscape.org/) -->

<svg
   width="304.08929"
   height="62.206779"
   viewBox="0 0 80.456953 16.458877"
   version="1.1"
   id="svg1"
   inkscape:version="1.3.2 (091e20ef0f, 2023-11-25, custom)"
   sodipodi:docname="autres-versions.svg"
   xmlns:inkscape="http://www.inkscape.org/namespaces/inkscape"
   xmlns:sodipodi="http://sodipodi.sourceforge.net/DTD/sodipodi-0.dtd"
   xmlns="http://www.w3.org/2000/svg"
   xmlns:svg="http://www.w3.org/2000/svg">
  <sodipodi:namedview
     id="namedview1"
     pagecolor="#ffffff"
     bordercolor="#666666"
     borderopacity="1.0"
     inkscape:showpageshadow="2"
     inkscape:pageopacity="0.0"
     inkscape:pagecheckerboard="0"
     inkscape:deskcolor="#d1d1d1"
     inkscape:document-units="mm"
     inkscape:zoom="1.8807208"
     inkscape:cx="160.84259"
     inkscape:cy="6.1146769"
     inkscape:window-width="1916"
     inkscape:window-height="1029"
     inkscape:window-x="0"
     inkscape:window-y="0"
     inkscape:window-maximized="1"
     inkscape:current-layer="layer1"
     showgrid="false" />
  <defs
     id="defs1">
    <style
       transform="translate(-130.185, 41.1648)"
       id="style111"><![CDATA[
polygon {
shape-rendering:crispEdges;
stroke-width:0.098900;
}
.s0 {
stroke:#000000;
stroke-width:0.080355;
stroke-linecap:round;
stroke-linejoin:round;
fill:none;
}
.s1 {
stroke:#000000;
stroke-width:0.080355;
stroke-linecap:round;
stroke-linejoin:round;
fill:none;
}
.s2 {
stroke:#19b219;
stroke-width:0.080355;
stroke-linecap:round;
stroke-linejoin:round;
fill:none;
}
.s3 {
stroke:#7f4c00;
stroke-width:0.080355;
stroke-linecap:round;
stroke-linejoin:round;
fill:none;
}
.s4 {
stroke:#00cc00;
stroke-width:0.080355;
stroke-linecap:round;
stroke-linejoin:round;
fill:none;
}
.s5 {
stroke:#000000;
stroke-width:0.053570;
stroke-linecap:round;
stroke-linejoin:round;
fill:none;
}
.s6 {
stroke:#ff19ff;
stroke-width:0.053570;
stroke-linecap:round;
stroke-linejoin:round;
fill:none;
}
.s7 {
stroke:#ff0000;
stroke-width:0.080355;
stroke-linecap:round;
stroke-linejoin:round;
fill:none;
}
.s8 {
stroke:#ffff00;
stroke-width:0.080355;
stroke-linecap:round;
stroke-linejoin:round;
fill:none;
}
.s9 {
stroke:#001919;
stroke-width:0.053570;
stroke-linecap:round;
stroke-linejoin:round;
fill:none;
}
.sa {
stroke:#006666;
stroke-width:0.053570;
stroke-linecap:round;
stroke-linejoin:round;
fill:none;
}
.sb {
stroke:#00ffff;
stroke-width:0.160711;
stroke-linecap:round;
stroke-linejoin:round;
fill:none;
}
.sc {
stroke:#ff0000;
stroke-width:0.428562;
stroke-linecap:round;
stroke-linejoin:round;
fill:none;
}
.sd {
stroke:#191919;
stroke-width:0.053570;
stroke-linecap:round;
stroke-linejoin:round;
fill:none;
}
.se {
stroke:#000000;
stroke-width:0.053570;
stroke-linecap:round;
stroke-linejoin:round;
stroke-dasharray:0.804,0.804;
fill:none;
}
.sf {
stroke:#000000;
stroke-width:0.160711;
stroke-linecap:round;
stroke-linejoin:round;
fill:none;
}
.s100 {
stroke:#ff0000;
stroke-width:0.500000;
stroke-linecap:round;
stroke-linejoin:round;
fill:none;
}
]]></style>
  </defs>
  <g
     inkscape:label="Layer 1"
     inkscape:groupmode="layer"
     id="layer1"
     transform="translate(-25.588038,-130.17679)">
    <path
       id="path1"
       style="fill:#fff6e5;fill-opacity:1;stroke:none;stroke-width:0.2;stroke-linecap:round;stroke-linejoin:round"
       d="m 101.17584,133.08654 c -5.142953,-3.42908 -12.175163,-2.33843 -18.345603,-2.70465 -11.26288,-0.66845 -22.56213,0.47079 -33.83502,0.94127 -6.90766,0.2883 -15.52163,-3.41778 -20.70897,1.15283 -2.50319,2.20559 -3.61204,7.03598 -1.81006,9.84373 1.9219,2.99461 6.82009,2.16037 10.34881,2.61809 11.56396,1.49998 23.34212,1.07714 34.98068,0.35673 11.3997,-0.70563 29.011193,5.7224 33.958143,-4.57221 1.28611,-2.6764 -2.1174,-5.98853 -4.58798,-7.63579 z"
       sodipodi:nodetypes="aaaaaaaaa" />
    <path
       id="path8"
       style="fill:#ffe6b3;fill-opacity:1;stroke:none;stroke-width:0.2;stroke-linecap:round;stroke-linejoin:round"
       d="m 103.45496,140.85536 c 0.89442,-3.08943 -2.31834,-6.66745 -5.176213,-8.14297 -3.15813,-1.63055 -7.10032,0.75277 -10.64859,0.54733 -3.92563,-0.22729 -7.70087,-1.89144 -11.63246,-1.96114 -3.80354,-0.0674 -7.52194,1.19172 -11.3138,1.49718 -6.97722,0.56207 -13.9907,0.62083 -20.99052,0.61312 -3.70294,-0.004 -7.63656,-1.65003 -11.10335,-0.34881 -2.72127,1.0214 -6.85013,3.07203 -6.383,5.94089 0.44689,2.74457 4.87826,2.8555 7.59409,3.4527 6.9528,1.5289 14.24077,-0.0863 21.35634,0.13209 6.73134,0.20657 13.45212,0.68248 20.17278,1.11411 3.8515,0.24736 7.69265,0.65514 11.54738,0.84562 2.76649,0.1367 5.59649,0.78413 8.30685,0.21309 2.98294,-0.62847 7.422753,-0.97503 8.270493,-3.90321 z"
       sodipodi:nodetypes="aaaaaaaaaaaaaa" />
    <path
       id="path141"
       style="fill:#ffdd99;fill-opacity:1;stroke-width:1;stroke-linecap:round;stroke-linejoin:round"
       d="m 66.892127,134.6107 c -2.54841,0.41068 -5.15148,0.43762 -7.73267,0.41595 -1.74148,-0.0146 -3.47021,-0.38908 -5.21162,-0.3682 -1.71118,0.0205 -3.40316,0.59352 -5.11099,0.48449 -2.6144,-0.16692 -5.06,-1.99597 -7.66625,-1.73065 -1.56893,0.15972 -3.64306,0.52153 -4.31035,1.95043 -0.87071,1.86449 -0.009,4.74059 1.65893,5.94628 1.58072,1.1429 3.89485,-0.27472 5.84547,-0.27321 1.59484,0.001 3.18603,0.15266 4.77896,0.23077 3.3023,0.16193 6.60516,0.3135 9.90655,0.49318 2.99492,0.163 5.98306,0.53412 8.98242,0.53057 4.59331,-0.005 9.16115,-0.90978 13.75401,-0.8451 3.8956,0.0549 7.75781,1.3588 11.64115,1.04504 2.52686,-0.20417 6.3416,0.43101 7.367393,-1.88728 0.92151,-2.08262 -1.222593,-4.90238 -3.196473,-6.0383 -2.80222,-1.61262 -6.45867,0.3976 -9.69175,0.38346 -2.62546,-0.0115 -5.25654,-0.10227 -7.86726,-0.38022 -2.71541,-0.2891 -5.35535,-1.4754 -8.08256,-1.33623 -1.7475,0.0892 -3.33748,1.1006 -5.06496,1.37898 z m -34.93266,-1.8944 c -2.16639,-0.44941 -4.27309,2.43431 -4.80156,4.58278 -0.30177,1.22682 0.37968,2.64231 1.21502,3.59012 0.68021,0.77181 1.79165,1.6482 2.77592,1.3489 1.77397,-0.53943 2.68378,-2.95443 2.80279,-4.80477 0.10956,-1.7033 -0.32093,-4.37033 -1.99217,-4.71703 z"
       sodipodi:nodetypes="aaaaaaaaaaaaaaaaaaaaaaaaaa" />
    <path
       id="text2"
       style="font-size:7.76111px;line-height:1.25;font-family:Tibet;-inkscape-font-specification:Tibet;text-align:justify;letter-spacing:0px;word-spacing:0px;stroke-width:0.264583"
       d="m 49.493039,132.85673 c -0.123794,0 -0.185519,0.0769 -0.185519,0.23099 v 2.25878 c -0.482542,0.0935 -0.943784,0.14004 -1.383378,0.14004 H 47.75361 c -0.106109,0 -0.171623,0.0644 -0.196887,0.19327 0,0.0985 0.06551,0.16077 0.196887,0.18604 h 0.170532 c 0.474964,0 0.936206,-0.0455 1.383378,-0.13643 v 4.27468 c 0,0.15411 0.06173,0.23099 0.185519,0.23099 h 0.03411 c 0.07832,0 0.132981,-0.0541 0.163298,-0.16278 v -4.4266 c 0.384013,-0.10611 0.679603,-0.21331 0.886767,-0.32195 0.57602,-0.31327 0.86403,-0.54444 0.86403,-0.6935 v -0.0341 c 0,-0.0859 -0.06063,-0.13895 -0.181901,-0.15916 h -0.02687 c -0.09095,0.0253 -0.136426,0.0518 -0.136426,0.0796 -0.373908,0.33853 -0.842212,0.58486 -1.405599,0.73897 v -2.23604 c 0,-0.0783 -0.05466,-0.13246 -0.163298,-0.16278 z m -17.871778,1.48156 c -0.111161,0.0278 -0.166398,0.0836 -0.166398,0.16692 v 0.076 c 0.75792,1.13688 1.136882,2.24833 1.136882,3.33468 0,0.90951 -0.247933,1.82389 -0.743107,2.7435 -0.262746,0.41939 -0.393775,0.64188 -0.393775,0.66715 v 0.0455 c 0.02779,0.11116 0.08303,0.16692 0.166398,0.16692 h 0.04548 c 0.02779,0 0.05811,-0.0103 0.09095,-0.0305 0.808448,-1.1773 1.212846,-2.34451 1.212846,-3.5016 v -0.13642 c 0,-0.70739 -0.166743,-1.46044 -0.500228,-2.25878 -0.416856,-0.84887 -0.684827,-1.27331 -0.803568,-1.27331 z m -1.841748,0.43615 c -0.171795,0 -0.309312,0.0276 -0.412894,0.0832 -0.66697,0.28548 -1.015614,1.16467 -1.045931,2.63757 0,0.10611 0.072,0.17811 0.216007,0.216 0.121267,0 0.19327,-0.0823 0.216008,-0.24649 v -0.0832 c 0,-0.14401 0.0049,-0.29938 0.01499,-0.46612 0.144005,-1.15204 0.48128,-1.72806 1.011824,-1.72806 0.720025,0 1.080038,0.48237 1.080038,1.44745 -0.06063,0.41686 -0.569533,1.16881 -1.527039,2.25516 -0.376433,0.39412 -0.564823,0.59876 -0.564823,0.61392 -0.298115,0.26527 -0.447001,0.43689 -0.447001,0.51521 0.02274,0.14401 0.08986,0.21601 0.201021,0.21601 h 2.553849 c 0.144005,-0.0177 0.216008,-0.0848 0.216008,-0.20102 -0.02021,-0.14148 -0.08085,-0.21187 -0.181901,-0.21187 h -2.057756 v -0.0191 c 1.493103,-1.56637 2.239657,-2.63395 2.239657,-3.20239 -0.02274,-0.31075 -0.05036,-0.55438 -0.0832,-0.73122 -0.242535,-0.73013 -0.6908,-1.09503 -1.345138,-1.09503 z m 10.501168,0.0186 c -0.725077,0 -1.345482,0.30207 -1.860868,0.90588 -0.406751,0.50276 -0.681785,1.11289 -0.825789,1.83038 0,0.11874 0.07688,0.18587 0.230993,0.20102 h 2.455664 c 0.154111,-0.0177 0.230994,-0.0783 0.230994,-0.1819 v -0.0682 c 0,-0.10358 -0.07688,-0.16422 -0.230994,-0.1819 h -2.209167 c 0.434541,-1.39457 1.177305,-2.09186 2.228288,-2.09186 0.68718,0 1.269173,0.68701 1.746663,2.06137 0.197059,0.59876 0.372989,1.40106 0.5271,2.40657 0,0.37391 0.072,0.56069 0.216007,0.56069 h 0.04909 c 0.103582,0 0.164216,-0.0606 0.181901,-0.1819 0,-0.30822 -0.08825,-0.89073 -0.2651,-1.74718 -0.54065,-2.34197 -1.342957,-3.51296 -2.406572,-3.51296 z m 32.12052,0.0114 c -0.07074,0 -0.131373,0.0493 -0.181901,0.1478 0,2.1626 -0.899229,3.63297 -2.698026,4.4111 -0.82866,0.29559 -1.458827,0.44338 -1.890841,0.44338 v -3.5543 c 0,-0.10611 -0.06712,-0.17214 -0.201021,-0.19741 -0.141479,0.0202 -0.21239,0.0808 -0.21239,0.18191 v 3.8163 c 0,0.10358 0.06063,0.16422 0.181901,0.1819 h 0.0155 c 0.646758,0 1.365177,-0.14779 2.15594,-0.44338 2.041332,-0.86908 3.062346,-2.44447 3.062346,-4.72581 v -0.0796 c -0.03032,-0.12127 -0.09095,-0.18191 -0.181901,-0.18191 z m 12.725838,0.72761 c -0.106108,0 -0.170532,0.0644 -0.193269,0.19327 v 0.0382 c 0,0.10611 0.06442,0.17053 0.193269,0.19327 h 0.03772 c 0.106109,0 0.170533,-0.0644 0.19327,-0.19327 v -0.0382 c 0,-0.10611 -0.06442,-0.17053 -0.19327,-0.19327 z m -34.083707,0.8263 -0.06098,0.0114 c -0.07579,0.0354 -0.113689,0.11605 -0.113689,0.24237 v 3.3693 c 0.0076,0.16927 0.06603,0.25373 0.174667,0.25373 h 0.04548 c 0.07579,0 0.128847,-0.0531 0.159163,-0.15916 v -1.59939 c 0,-0.42191 0.09962,-0.7175 0.299207,-0.88677 0.159163,-0.14905 0.332395,-0.27141 0.519348,-0.36742 0.770552,-0.32337 1.597779,-0.48524 2.482019,-0.48524 0.138952,-0.0253 0.208256,-0.0859 0.208256,-0.1819 -0.02526,-0.13137 -0.08211,-0.19689 -0.170532,-0.19689 h -0.01499 c -0.717498,0 -1.437525,0.1072 -2.160075,0.32195 -0.416856,0.11621 -0.804488,0.33871 -1.163237,0.66714 v -0.82992 c 0,-0.0758 -0.05305,-0.12885 -0.159163,-0.15917 z m 6.339664,0 c -0.586124,0 -1.135618,0.12615 -1.648478,0.37879 -0.750341,0.42191 -1.125512,0.93242 -1.125512,1.53118 v 0.0568 c 0,0.3158 0.122875,0.63034 0.367936,0.94361 0.608862,0.64423 1.414442,0.96635 2.417423,0.96635 h 0.905888 c 0.123794,-0.0227 0.185519,-0.0807 0.185519,-0.17415 v -0.0114 c 0,-0.11116 -0.06551,-0.17558 -0.196888,-0.19327 h -0.894519 c -0.389065,0 -0.776697,-0.066 -1.163236,-0.1974 -0.82866,-0.34864 -1.242818,-0.79691 -1.242818,-1.34514 v -0.0341 c 0,-0.26021 0.1072,-0.51303 0.321944,-0.75809 0.530544,-0.52296 1.221345,-0.78445 2.072741,-0.78445 h 0.04548 c 0.08337,0 0.187298,0.0227 0.311092,0.0682 0.245061,0.11368 0.367419,0.31344 0.367419,0.59893 0,0.1339 -0.05036,0.24488 -0.151412,0.33331 -0.346116,0.24506 -0.813847,0.36794 -1.402498,0.36794 -0.09853,0 -0.20194,-0.019 -0.310575,-0.0568 -0.25264,-0.0884 -0.378789,-0.25298 -0.378789,-0.49299 -0.01263,-0.15411 -0.07487,-0.231 -0.186035,-0.231 -0.128846,0.0303 -0.19327,0.0883 -0.19327,0.17415 v 0.0341 c 0,0.12632 0.02653,0.26435 0.07958,0.41341 0.222323,0.36128 0.54444,0.54157 0.966349,0.54157 0.06569,0 0.162035,-0.004 0.288355,-0.0114 1.111616,-0.11116 1.667082,-0.46468 1.667082,-1.06092 v -0.0114 c 0,-0.15411 -0.03032,-0.30679 -0.09095,-0.45837 -0.212218,-0.3916 -0.538124,-0.58757 -0.977718,-0.58757 z m 5.066875,0 c -1.786165,0 -2.679423,0.39901 -2.679423,1.19735 v 0.0455 c 0,0.31075 0.27934,0.5863 0.837675,0.82631 0.606336,0.23243 0.909505,0.47875 0.909505,0.73897 0,0.096 -0.06063,0.18805 -0.181901,0.27647 -0.525491,0.27538 -1.273136,0.41341 -2.243274,0.41341 -0.131373,0.0177 -0.197404,0.0783 -0.197404,0.1819 v 0.0377 c 0,0.0758 0.05305,0.12884 0.159163,0.15916 0.586125,0 1.173515,-0.0617 1.762167,-0.18552 0.720024,-0.19706 1.080037,-0.48019 1.080037,-0.84904 0,-0.39917 -0.259876,-0.72129 -0.780314,-0.96635 -0.644232,-0.25517 -0.966349,-0.47008 -0.966349,-0.64441 v -0.0455 c 0,-0.0707 0.02274,-0.1552 0.06821,-0.25373 0.277904,-0.36886 1.025548,-0.55346 2.243273,-0.55346 h 0.07958 c 0.154111,-0.0152 0.230994,-0.072 0.230994,-0.17053 -0.01263,-0.13895 -0.07436,-0.20826 -0.185519,-0.20826 z m 13.138733,0 c -0.586125,0 -1.135619,0.12615 -1.648479,0.37879 -0.750341,0.42191 -1.125512,0.93242 -1.125512,1.53118 v 0.0568 c 0,0.3158 0.122358,0.63034 0.367419,0.94361 0.608863,0.64423 1.414959,0.96635 2.41794,0.96635 h 0.905372 c 0.123793,-0.0227 0.186035,-0.0807 0.186035,-0.17415 v -0.0114 c 0,-0.11116 -0.06603,-0.17558 -0.197404,-0.19327 h -0.894003 c -0.389065,0 -0.777214,-0.066 -1.163753,-0.1974 -0.828659,-0.34864 -1.242818,-0.79691 -1.242818,-1.34514 v -0.0341 c 0,-0.26021 0.1072,-0.51303 0.321944,-0.75809 0.530544,-0.52296 1.221862,-0.78445 2.073259,-0.78445 h 0.04547 c 0.08337,0 0.186782,0.0227 0.310575,0.0682 0.245061,0.11368 0.36742,0.31344 0.36742,0.59893 0,0.1339 -0.05036,0.24488 -0.151412,0.33331 -0.346117,0.24506 -0.813331,0.36794 -1.401982,0.36794 -0.09853,0 -0.202457,-0.019 -0.311092,-0.0568 -0.25264,-0.0884 -0.378788,-0.25298 -0.378788,-0.49299 -0.01263,-0.15411 -0.07436,-0.231 -0.185519,-0.231 -0.128846,0.0303 -0.19327,0.0883 -0.19327,0.17415 v 0.0341 c 0,0.12632 0.02653,0.26435 0.07958,0.41341 0.222323,0.36128 0.544441,0.54157 0.966349,0.54157 0.06569,0 0.161518,-0.004 0.287838,-0.0114 1.111616,-0.11116 1.667599,-0.46468 1.667599,-1.06092 v -0.0114 c 0,-0.15411 -0.03032,-0.30679 -0.09095,-0.45837 -0.212217,-0.3916 -0.538124,-0.58757 -0.977718,-0.58757 z m 1.928564,0 -0.06046,0.0114 c -0.07579,0.0354 -0.113689,0.11605 -0.113689,0.24237 v 3.3693 c 0.0076,0.16927 0.06552,0.25373 0.17415,0.25373 h 0.04547 c 0.07579,0 0.128847,-0.0531 0.159164,-0.15916 v -1.59939 c 0,-0.42191 0.100137,-0.7175 0.299723,-0.88677 0.159163,-0.14905 0.331878,-0.27141 0.518831,-0.36742 0.770553,-0.32337 1.598296,-0.48524 2.482536,-0.48524 0.138952,-0.0253 0.208256,-0.0859 0.208256,-0.1819 -0.02526,-0.13137 -0.08211,-0.19689 -0.170532,-0.19689 h -0.01499 c -0.717498,0 -1.437525,0.1072 -2.160075,0.32195 -0.416856,0.11621 -0.805004,0.33871 -1.163753,0.66714 v -0.82992 c 0,-0.0758 -0.05306,-0.12885 -0.159164,-0.15917 z m 6.749459,0 c -1.786165,0 -2.679423,0.39901 -2.679423,1.19735 v 0.0455 c 0,0.31075 0.27934,0.5863 0.837675,0.82631 0.606336,0.23243 0.909505,0.47875 0.909505,0.73897 0,0.096 -0.06063,0.18805 -0.181901,0.27647 -0.525491,0.27538 -1.273136,0.41341 -2.243274,0.41341 -0.131373,0.0177 -0.197404,0.0783 -0.197404,0.1819 v 0.0377 c 0,0.0758 0.05306,0.12884 0.159164,0.15916 0.586124,0 1.173515,-0.0617 1.762166,-0.18552 0.720024,-0.19706 1.080037,-0.48019 1.080037,-0.84904 0,-0.39917 -0.259875,-0.72129 -0.780314,-0.96635 -0.644232,-0.25517 -0.966349,-0.47008 -0.966349,-0.64441 v -0.0455 c 0,-0.0707 0.02274,-0.1552 0.06821,-0.25373 0.277904,-0.36886 1.025549,-0.55346 2.243274,-0.55346 h 0.07958 c 0.154111,-0.0152 0.230994,-0.072 0.230994,-0.17053 -0.01263,-0.13895 -0.07436,-0.20826 -0.185518,-0.20826 z m 3.687113,0 c -0.540649,0 -1.004073,0.24145 -1.390612,0.72399 -0.361276,0.51033 -0.542086,1.02411 -0.542086,1.54203 0,0.24758 0.06603,0.49282 0.197404,0.73535 0.255166,0.5836 0.806842,0.8754 1.655713,0.8754 h 0.170532 c 0.563387,0 0.997011,-0.12615 1.300179,-0.37879 0.368854,-0.39664 0.552938,-0.79995 0.552938,-1.20923 0,-0.29053 -0.05794,-0.58991 -0.17415,-0.89813 -0.396645,-0.92719 -0.982944,-1.39062 -1.758549,-1.39062 z m 2.899048,0 c -0.09348,0 -0.146531,0.0883 -0.159163,0.2651 v 3.34657 c 0.0076,0.17685 0.06603,0.2651 0.174666,0.2651 h 0.04547 c 0.106109,-0.0278 0.159164,-0.0857 0.159164,-0.17415 v -1.34565 c 0,-0.36633 0.01137,-0.64515 0.03411,-0.83716 0.111162,-0.76045 0.325562,-1.14102 0.643889,-1.14102 h 0.01137 c 0.159164,0 0.416857,0.21113 0.77308,0.63304 0.502753,0.66697 1.00838,1.47686 1.516186,2.42931 0.118741,0.29053 0.222152,0.43563 0.310576,0.43563 h 0.04909 c 0.0859,0 0.142742,-0.0617 0.170533,-0.18552 0,-0.0303 -0.02274,-0.0872 -0.06821,-0.17053 -1.230357,-2.34703 -2.139865,-3.52072 -2.728516,-3.52072 h -0.02274 c -0.265272,0 -0.49483,0.12615 -0.689363,0.37879 v -0.21962 c 0,-0.0859 -0.06063,-0.13895 -0.181901,-0.15917 z m 7.81451,0 c -1.786165,0 -2.679423,0.39901 -2.679423,1.19735 v 0.0455 c 0,0.31075 0.279341,0.5863 0.837675,0.82631 0.606336,0.23243 0.909505,0.47875 0.909505,0.73897 0,0.096 -0.06063,0.18805 -0.181901,0.27647 -0.525491,0.27538 -1.273653,0.41341 -2.24379,0.41341 -0.131373,0.0177 -0.196888,0.0783 -0.196888,0.1819 v 0.0377 c 0,0.0758 0.05306,0.12884 0.159164,0.15916 0.586125,0 1.173515,-0.0617 1.762166,-0.18552 0.720024,-0.19706 1.080038,-0.48019 1.080038,-0.84904 0,-0.39917 -0.260393,-0.72129 -0.780831,-0.96635 -0.644232,-0.25517 -0.96635,-0.47008 -0.96635,-0.64441 v -0.0455 c 0,-0.0707 0.02274,-0.1552 0.06821,-0.25373 0.277904,-0.36886 1.026066,-0.55346 2.243791,-0.55346 h 0.07958 c 0.15411,-0.0152 0.230993,-0.072 0.230993,-0.17053 -0.01263,-0.13895 -0.07436,-0.20826 -0.185518,-0.20826 z m -54.915511,0.0114 c -0.0859,0 -0.142742,0.0606 -0.170532,0.1819 0,0.68719 0.107717,1.39475 0.322461,2.12236 0.346117,1.04087 0.869083,1.56114 1.568896,1.56114 h 0.140044 c 0.611388,0 1.096459,-0.12994 1.455208,-0.39016 v 0.13643 c 0,0.16927 0.05684,0.25373 0.170532,0.25373 h 0.04909 c 0.07579,0 0.128846,-0.0531 0.159163,-0.15916 v -0.80357 c 0,-0.0455 0.0038,-0.072 0.01137,-0.0796 -0.0076,-0.0429 -0.01137,-0.0781 -0.01137,-0.10594 v -2.55798 c 0,-0.0859 -0.06063,-0.13896 -0.181901,-0.15917 h -0.02635 c -0.101056,0 -0.1579,0.0807 -0.170532,0.24237 v 2.56935 l -0.01137,0.0796 c -0.18948,0.39664 -0.67834,0.59531 -1.466577,0.59531 h -0.105937 c -0.416856,0 -0.764409,-0.27555 -1.042313,-0.8263 -0.320853,-0.7655 -0.481108,-1.60301 -0.481108,-2.51251 0,-0.0733 -0.06224,-0.12253 -0.186035,-0.1478 z m 41.363884,0 c -0.07579,0 -0.128847,0.0531 -0.159164,0.15917 v 3.54707 c 0,0.0758 0.05306,0.12884 0.159164,0.15916 h 0.04909 c 0.101056,0 0.1579,-0.0807 0.170532,-0.24236 v -3.39566 c 0,-0.1339 -0.05684,-0.20969 -0.170532,-0.22738 z m 2.838069,0.36742 c 0.401698,0 0.746553,0.16566 1.034562,0.49661 0.353697,0.45476 0.530717,0.91818 0.530717,1.39062 v 0.0114 c 0,0.17684 -0.05035,0.35765 -0.151412,0.54208 -0.169268,0.45223 -0.61805,0.67851 -1.345654,0.67851 h -0.125057 c -0.490121,0 -0.847436,-0.0964 -1.072286,-0.28835 -0.282957,-0.30822 -0.424263,-0.61897 -0.424263,-0.93224 v -0.0114 c 0,-0.21222 0.04278,-0.4342 0.128674,-0.66663 0.310747,-0.8135 0.78554,-1.2206 1.424719,-1.2206 z" />
  </g>
</svg>
