<?xml version="1.0" encoding="UTF-8" standalone="no"?>
<!-- Created with Inkscape (http://www.inkscape.org/) -->

<svg
   width="300.13568"
   height="68.886292"
   viewBox="0 0 79.410893 18.226164"
   version="1.1"
   id="svg1"
   inkscape:version="1.3.2 (091e20ef0f, 2023-11-25, custom)"
   sodipodi:docname="decoupe.svg"
   xmlns:inkscape="http://www.inkscape.org/namespaces/inkscape"
   xmlns:sodipodi="http://sodipodi.sourceforge.net/DTD/sodipodi-0.dtd"
   xmlns="http://www.w3.org/2000/svg"
   xmlns:svg="http://www.w3.org/2000/svg">
  <sodipodi:namedview
     id="namedview1"
     pagecolor="#ffffff"
     bordercolor="#666666"
     borderopacity="1.0"
     inkscape:showpageshadow="2"
     inkscape:pageopacity="0.0"
     inkscape:pagecheckerboard="0"
     inkscape:deskcolor="#d1d1d1"
     inkscape:document-units="mm"
     inkscape:zoom="1.406319"
     inkscape:cx="349.8495"
     inkscape:cy="88.528988"
     inkscape:window-width="1916"
     inkscape:window-height="1029"
     inkscape:window-x="0"
     inkscape:window-y="0"
     inkscape:window-maximized="1"
     inkscape:current-layer="layer1"
     showgrid="false" />
  <defs
     id="defs1">
    <style
       transform="translate(-130.185, 41.1648)"
       id="style111"><![CDATA[
polygon {
shape-rendering:crispEdges;
stroke-width:0.098900;
}
.s0 {
stroke:#000000;
stroke-width:0.080355;
stroke-linecap:round;
stroke-linejoin:round;
fill:none;
}
.s1 {
stroke:#000000;
stroke-width:0.080355;
stroke-linecap:round;
stroke-linejoin:round;
fill:none;
}
.s2 {
stroke:#19b219;
stroke-width:0.080355;
stroke-linecap:round;
stroke-linejoin:round;
fill:none;
}
.s3 {
stroke:#7f4c00;
stroke-width:0.080355;
stroke-linecap:round;
stroke-linejoin:round;
fill:none;
}
.s4 {
stroke:#00cc00;
stroke-width:0.080355;
stroke-linecap:round;
stroke-linejoin:round;
fill:none;
}
.s5 {
stroke:#000000;
stroke-width:0.053570;
stroke-linecap:round;
stroke-linejoin:round;
fill:none;
}
.s6 {
stroke:#ff19ff;
stroke-width:0.053570;
stroke-linecap:round;
stroke-linejoin:round;
fill:none;
}
.s7 {
stroke:#ff0000;
stroke-width:0.080355;
stroke-linecap:round;
stroke-linejoin:round;
fill:none;
}
.s8 {
stroke:#ffff00;
stroke-width:0.080355;
stroke-linecap:round;
stroke-linejoin:round;
fill:none;
}
.s9 {
stroke:#001919;
stroke-width:0.053570;
stroke-linecap:round;
stroke-linejoin:round;
fill:none;
}
.sa {
stroke:#006666;
stroke-width:0.053570;
stroke-linecap:round;
stroke-linejoin:round;
fill:none;
}
.sb {
stroke:#00ffff;
stroke-width:0.160711;
stroke-linecap:round;
stroke-linejoin:round;
fill:none;
}
.sc {
stroke:#ff0000;
stroke-width:0.428562;
stroke-linecap:round;
stroke-linejoin:round;
fill:none;
}
.sd {
stroke:#191919;
stroke-width:0.053570;
stroke-linecap:round;
stroke-linejoin:round;
fill:none;
}
.se {
stroke:#000000;
stroke-width:0.053570;
stroke-linecap:round;
stroke-linejoin:round;
stroke-dasharray:0.804,0.804;
fill:none;
}
.sf {
stroke:#000000;
stroke-width:0.160711;
stroke-linecap:round;
stroke-linejoin:round;
fill:none;
}
.s100 {
stroke:#ff0000;
stroke-width:0.500000;
stroke-linecap:round;
stroke-linejoin:round;
fill:none;
}
]]></style>
  </defs>
  <g
     inkscape:label="Layer 1"
     inkscape:groupmode="layer"
     id="layer1"
     transform="translate(-24.563481,-129.82472)">
    <path
       id="path1"
       style="fill:#fff6e5;fill-opacity:1;stroke:none;stroke-width:0.2;stroke-linecap:round;stroke-linejoin:round"
       d="m 99.455347,133.00846 c -5.76877,-4.3128 -14.28183,-1.99727 -21.47207,-2.4209 -9.87602,-0.58186 -19.8512,-1.29621 -29.679,-0.161 -8.08411,0.9338 -23.85885,-2.44232 -23.74013,5.69467 0.21359,14.63895 28.38217,8.0269 42.99066,8.99463 11.96843,0.79283 29.62785,7.57418 35.885643,-2.65871 1.78334,-2.91616 -1.24739,-7.40193 -3.985103,-9.44869 z"
       sodipodi:nodetypes="aaaaaaa" />
    <path
       id="path8"
       style="fill:#ffe6b3;fill-opacity:1;stroke:none;stroke-width:0.2;stroke-linecap:round;stroke-linejoin:round"
       d="m 100.76418,140.9257 c 0.89393,-3.30234 -3.054893,-6.76602 -6.154873,-8.21331 -3.05699,-1.42722 -6.73892,0.75249 -10.10643,0.54733 -3.73076,-0.22729 -7.30317,-1.8915 -11.0402,-1.96114 -3.61326,-0.0673 -7.13683,1.19162 -10.73778,1.49718 -6.61995,0.56174 -13.29001,1.01143 -19.92181,0.61312 -3.8061,-0.22859 -7.79266,-3.1919 -11.30914,-1.7178 -2.77332,1.16257 -5.66871,4.32708 -5.28692,7.30988 0.29104,2.27379 3.13302,3.64099 5.3038,4.3776 7.00338,2.37647 14.77751,-0.87558 22.17265,-0.79281 6.3923,0.0716 12.79833,0.3543 19.14572,1.11411 3.56556,0.42681 7.01021,1.79596 10.59872,1.93028 2.7616,0.10337 5.56851,-0.18211 8.24466,-0.87157 3.18484,-0.82051 8.23225,-0.65829 9.091603,-3.83287 z"
       sodipodi:nodetypes="aaaaaaaaaaaaaa" />
    <path
       id="path141"
       style="fill:#ffdd99;fill-opacity:1;stroke-width:1;stroke-linecap:round;stroke-linejoin:round"
       d="m 65.345977,134.42232 c -2.31525,0.2837 -4.63903,0.58874 -6.97155,0.60433 -1.6805,0.0112 -3.34774,-0.38907 -5.02815,-0.3682 -1.65147,0.0205 -3.28304,0.59334 -4.93105,0.48449 -2.52655,-0.16688 -4.8781,-1.99439 -7.39637,-1.73065 -1.52277,0.15948 -3.51387,0.56171 -4.15861,1.95043 -0.86436,1.86177 -0.0584,4.73743 1.60053,5.94628 1.52109,1.10842 3.75758,-0.27472 5.63968,-0.27321 1.53883,0.001 3.07388,0.15266 4.61072,0.23077 3.18606,0.16193 6.37208,0.32471 9.5578,0.49318 3.07086,0.1624 6.14513,0.27292 9.21197,0.49899 3.0702,0.22632 6.1172,0.8363 9.19565,0.85811 4.75113,0.0337 9.4978,-0.51073 14.20941,-1.12315 2.57288,-0.33442 6.50771,0.93475 7.65835,-1.39068 1.00231,-2.02567 -1.09585,-4.96339 -3.08395,-6.0383 -2.81209,-1.52043 -6.33846,1.02069 -9.53526,1.02698 -2.24018,0.004 -4.49079,-0.24033 -6.68469,-0.69339 -1.94188,-0.40101 -3.69839,-1.63508 -5.67592,-1.78024 -2.76636,-0.20306 -5.46535,0.9669 -8.21856,1.30426 z m -33.38651,-1.70602 c -2.16639,-0.44941 -4.82298,2.37037 -4.80156,4.58278 0.0131,1.35205 2.1933,1.64937 2.988,2.74329 0.47293,0.651 0.19929,2.15567 1.00294,2.19573 1.85187,0.0923 2.68378,-2.95443 2.80279,-4.80477 0.10956,-1.7033 -0.32093,-4.37033 -1.99217,-4.71703 z"
       sodipodi:nodetypes="aaaaaaaaaaaaaaaaaaaaaaaaa" />
    <path
       id="text2"
       style="font-size:7.76111px;line-height:1.25;font-family:Tibet;-inkscape-font-specification:Tibet;text-align:justify;letter-spacing:0px;word-spacing:0px;stroke-width:0.264583"
       d="m 31.621448,134.33866 c -0.111161,0.0278 -0.166915,0.083 -0.166915,0.16639 v 0.076 c 0.75792,1.13688 1.136882,2.24833 1.136882,3.33468 0,0.9095 -0.247416,1.82441 -0.742591,2.74402 -0.262745,0.41938 -0.394291,0.64136 -0.394291,0.66662 v 0.0455 c 0.02779,0.11116 0.08354,0.16691 0.166915,0.16691 h 0.04547 c 0.02779,0 0.05811,-0.0103 0.09095,-0.0305 0.808448,-1.1773 1.212846,-2.3445 1.212846,-3.50159 v -0.13643 c 0,-0.70739 -0.166743,-1.45991 -0.500228,-2.25826 -0.416856,-0.84887 -0.684828,-1.2733 -0.803569,-1.2733 z m -0.731221,0.45837 c -0.04295,0 -0.0987,0.033 -0.166915,0.0987 -0.01011,0.29306 -0.202285,0.65686 -0.576192,1.0914 -0.482543,0.47244 -0.945967,0.83624 -1.390613,1.09141 -0.373908,0.17938 -0.56069,0.31689 -0.56069,0.4129 v 0.0491 c 0.03032,0.12127 0.09095,0.1819 0.181901,0.1819 h 0.04909 c 0.277904,-0.11622 0.641707,-0.33062 1.091406,-0.64389 0.404224,-0.26022 0.795646,-0.62942 1.174606,-1.10691 h 0.0155 v 4.08141 c 0.03032,0.12126 0.09095,0.1819 0.181901,0.1819 h 0.04909 c 0.121267,-0.0303 0.181901,-0.0909 0.181901,-0.1819 v -5.07411 c -0.03032,-0.12127 -0.09095,-0.1819 -0.181901,-0.1819 z m 7.541141,0.008 c -0.116214,0 -0.181728,0.0769 -0.196887,0.23099 v 4.96817 c 0.02021,0.15411 0.08084,0.231 0.181901,0.231 0.565914,-0.12127 1.229096,-0.31833 1.989543,-0.59118 1.098984,-0.40928 1.845538,-0.78284 2.239656,-1.12138 0.679602,-0.4497 1.01906,-1.108 1.01906,-1.97456 0,-0.28548 -0.104502,-0.57079 -0.314193,-0.85627 -0.56844,-0.59118 -1.215373,-0.88677 -1.94045,-0.88677 z m 8.537981,0 c -0.07579,0 -0.19706,0.1413 -0.363803,0.42426 -0.242534,0.33349 -0.363802,0.53543 -0.363802,0.60617 v 0.0155 c 0,0.0935 0.05575,0.14871 0.166915,0.1664 h 0.02997 c 0.02779,0 0.05811,-0.01 0.09095,-0.03 0.434541,-0.60381 0.652157,-0.93241 0.652157,-0.98547 0,-0.11874 -0.06603,-0.18425 -0.197404,-0.19688 z m 28.743981,0 c -0.141478,0.0177 -0.211873,0.0832 -0.211873,0.19688 v 3.71761 c 0,0.16421 0.05415,0.3131 0.162781,0.447 0.649285,0.71244 2.262569,1.06867 4.839498,1.06867 h 0.230993 c 0.101056,0 0.166571,-0.0655 0.196888,-0.19689 0,-0.10106 -0.05415,-0.17306 -0.162781,-0.21601 -1.546157,0 -2.786452,-0.12017 -3.72122,-0.36018 -0.745288,-0.25012 -1.118278,-0.47967 -1.118278,-0.68937 v -3.68763 c 0,-0.18695 -0.06551,-0.28008 -0.196887,-0.28008 z m -37.050968,0.41289 h 2.550749 c 0.53307,0 0.977546,0.11478 1.333768,0.34468 0.459805,0.30317 0.689881,0.61553 0.689881,0.93638 v 0.28009 c 0,0.6897 -0.526757,1.31499 -1.580265,1.87585 -0.82866,0.40675 -1.826936,0.77434 -2.994133,1.10278 z m 8.280632,1.1405 c -0.586125,0 -1.135619,0.12667 -1.648479,0.37931 -0.750341,0.42191 -1.125512,0.9319 -1.125512,1.53065 v 0.0568 c 0,0.3158 0.122358,0.63033 0.367419,0.94361 0.608863,0.64423 1.414959,0.96635 2.41794,0.96635 h 0.905371 c 0.123794,-0.0227 0.186036,-0.0807 0.186036,-0.17415 v -0.0114 c 0,-0.11116 -0.06603,-0.17559 -0.197404,-0.19327 h -0.894003 c -0.389065,0 -0.777214,-0.0655 -1.163753,-0.19689 -0.828659,-0.34864 -1.242818,-0.79742 -1.242818,-1.34565 v -0.0341 c 0,-0.26022 0.1072,-0.51251 0.321944,-0.75758 0.530544,-0.52296 1.221862,-0.78444 2.073259,-0.78444 h 0.04548 c 0.08337,0 0.186782,0.0227 0.310575,0.0682 0.245061,0.11369 0.36742,0.31293 0.36742,0.59841 0,0.1339 -0.05036,0.24541 -0.151412,0.33383 -0.346117,0.24506 -0.813331,0.36742 -1.401982,0.36742 -0.09853,0 -0.202457,-0.0189 -0.311092,-0.0568 -0.25264,-0.0884 -0.378788,-0.25247 -0.378788,-0.49248 -0.01263,-0.15411 -0.07436,-0.23151 -0.185519,-0.23151 -0.128846,0.0303 -0.19327,0.0888 -0.19327,0.17467 v 0.0341 c 0,0.12632 0.02653,0.26384 0.07958,0.4129 0.222323,0.36127 0.544441,0.54208 0.966349,0.54208 0.06569,0 0.161518,-0.004 0.287838,-0.0114 1.111616,-0.11117 1.667599,-0.46521 1.667599,-1.06144 v -0.0114 c 0,-0.15411 -0.03032,-0.30678 -0.09095,-0.45837 -0.212218,-0.39159 -0.538124,-0.58756 -0.977718,-0.58756 z m 3.565673,0 c -0.293062,0 -0.600021,0.085 -0.920874,0.25425 -0.629073,0.43707 -0.943611,0.99632 -0.943611,1.67845 0,0.60634 0.356223,1.08544 1.068668,1.4366 0.800869,0.33854 1.675179,0.50747 2.622579,0.50747 h 0.02636 c 0.106109,-0.0278 0.159164,-0.0857 0.159164,-0.17415 v -0.0455 c 0,-0.0808 -0.06172,-0.1339 -0.185519,-0.15916 -0.386539,0 -0.823436,-0.0428 -1.311031,-0.12868 -1.333939,-0.25516 -2.000911,-0.73426 -2.000911,-1.4366 0,-0.42949 0.168925,-0.81712 0.507462,-1.16324 0.32338,-0.25264 0.59893,-0.37878 0.826306,-0.37878 0.245061,0 0.36742,-0.0644 0.36742,-0.19327 v -0.0383 c 0,-0.0859 -0.06063,-0.13895 -0.181901,-0.15916 z m 4.096908,0 c -0.54065,0 -1.00459,0.24145 -1.39113,0.72399 -0.361275,0.51033 -0.541569,1.02463 -0.541569,1.54254 0,0.24759 0.06551,0.4923 0.196888,0.73484 0.255166,0.5836 0.807359,0.8754 1.656229,0.8754 h 0.170532 c 0.563388,0 0.996495,-0.12615 1.299663,-0.37879 0.368854,-0.39665 0.553454,-0.79944 0.553454,-1.20871 0,-0.29054 -0.05845,-0.58992 -0.174666,-0.89814 -0.396645,-0.92719 -0.982427,-1.39113 -1.758032,-1.39113 z m 7.435205,0 c -0.09853,0 -0.158072,0.0682 -0.178284,0.20464 v 7.25744 c 0.02526,0.13642 0.0886,0.20464 0.189653,0.20464 0.113688,0 0.181901,-0.0682 0.204638,-0.20464 v -3.66489 h 0.01137 c 0.22485,0.15158 0.452227,0.22737 0.682129,0.22737 h 0.07183 c 0.601284,0 1.177305,-0.13482 1.72806,-0.40514 0.75792,-0.44465 1.136882,-0.96652 1.136882,-1.56528 v -0.0832 c 0,-0.37138 -0.167834,-0.73788 -0.503845,-1.09916 -0.6316,-0.58107 -1.431209,-0.87178 -2.39882,-0.87178 h -0.03411 c -0.08842,0 -0.149058,0.0595 -0.181901,0.17829 v 0.0114 c 0,0.11874 0.06821,0.18696 0.204639,0.20464 h 0.01137 c 0.366328,0 0.736102,0.0558 1.110009,0.16692 0.932242,0.35117 1.398365,0.83245 1.398365,1.44384 v 0.0377 c 0,0.22485 -0.09204,0.4636 -0.276469,0.71624 -0.555808,0.58107 -1.287204,0.87178 -2.194182,0.87178 h -0.03772 c -0.131373,0 -0.255339,-0.0281 -0.371554,-0.0837 -0.237482,-0.10863 -0.356051,-0.32303 -0.356051,-0.64389 v -2.71353 c 0,-0.1061 -0.06333,-0.16944 -0.189652,-0.18965 z m 7.344255,0 c -0.586125,0 -1.135619,0.12667 -1.648479,0.37931 -0.750341,0.42191 -1.125512,0.9319 -1.125512,1.53065 v 0.0568 c 0,0.3158 0.122358,0.63033 0.367419,0.94361 0.608863,0.64423 1.414959,0.96635 2.41794,0.96635 h 0.905371 c 0.123794,-0.0227 0.186036,-0.0807 0.186036,-0.17415 v -0.0114 c 0,-0.11116 -0.06603,-0.17559 -0.197404,-0.19327 h -0.894003 c -0.389065,0 -0.777214,-0.0655 -1.163753,-0.19689 -0.828659,-0.34864 -1.242818,-0.79742 -1.242818,-1.34565 v -0.0341 c 0,-0.26022 0.1072,-0.51251 0.321944,-0.75758 0.530544,-0.52296 1.221862,-0.78444 2.073259,-0.78444 h 0.04547 c 0.08337,0 0.186782,0.0227 0.310575,0.0682 0.245061,0.11369 0.36742,0.31293 0.36742,0.59841 0,0.1339 -0.05036,0.24541 -0.151412,0.33383 -0.346117,0.24506 -0.813331,0.36742 -1.401982,0.36742 -0.09853,0 -0.202457,-0.0189 -0.311092,-0.0568 -0.25264,-0.0884 -0.378788,-0.25247 -0.378788,-0.49248 -0.01263,-0.15411 -0.07436,-0.23151 -0.185519,-0.23151 -0.128846,0.0303 -0.19327,0.0888 -0.19327,0.17467 v 0.0341 c 0,0.12632 0.02653,0.26384 0.07958,0.4129 0.222323,0.36127 0.544441,0.54208 0.966349,0.54208 0.06569,0 0.161518,-0.004 0.287838,-0.0114 1.111616,-0.11117 1.667599,-0.46521 1.667599,-1.06144 v -0.0114 c 0,-0.15411 -0.03032,-0.30678 -0.09095,-0.45837 -0.212218,-0.39159 -0.538124,-0.58756 -0.977718,-0.58756 z m 14.195515,0 c -0.576019,0 -1.129302,0.12667 -1.659847,0.37931 -0.742761,0.42948 -1.114143,0.93568 -1.114143,1.51928 v 0.0796 c 0,0.36127 0.160771,0.7137 0.481624,1.05729 0.611389,0.56087 1.379073,0.8413 2.303735,0.8413 h 0.03411 c 0.121267,-0.0227 0.181901,-0.0807 0.181901,-0.17415 -0.01516,-0.13643 -0.07958,-0.20464 -0.19327,-0.20464 h -0.02274 c -0.44212,0 -0.867647,-0.0807 -1.276924,-0.24236 -0.752868,-0.34865 -1.12913,-0.77848 -1.12913,-1.28881 v -0.0568 c 0,-0.21727 0.08825,-0.44683 0.2651,-0.68936 0.538123,-0.56086 1.247872,-0.84129 2.129585,-0.84129 h 0.04548 c 0.09348,0 0.204983,0.0265 0.33383,0.0796 0.229902,0.10611 0.344681,0.31293 0.344681,0.62115 v 2.61121 c 0,0.10611 0.06063,0.16783 0.181901,0.18552 h 0.01137 c 0.106109,0 0.167834,-0.0655 0.185519,-0.19689 v -3.48247 c -0.01769,-0.13138 -0.07941,-0.19741 -0.185519,-0.19741 h -0.01137 c -0.121267,0 -0.181901,0.0774 -0.181901,0.23151 -0.209691,-0.15411 -0.439766,-0.23151 -0.68988,-0.23151 z m 5.066875,0 c -1.786165,0 -2.679423,0.39952 -2.679423,1.19786 v 0.0455 c 0,0.31074 0.27934,0.58578 0.837675,0.82579 0.606336,0.23242 0.909505,0.47875 0.909505,0.73897 0,0.096 -0.06063,0.18856 -0.181901,0.27698 -0.525491,0.27538 -1.273136,0.4129 -2.243274,0.4129 -0.131373,0.0177 -0.197404,0.0783 -0.197404,0.1819 v 0.0377 c 0,0.0758 0.05306,0.12885 0.159163,0.15917 0.586125,0 1.173515,-0.0617 1.762167,-0.18552 0.720024,-0.19706 1.080037,-0.48019 1.080037,-0.84904 0,-0.39918 -0.259876,-0.72129 -0.780314,-0.96635 -0.644232,-0.25517 -0.966349,-0.46957 -0.966349,-0.64389 v -0.0455 c 0,-0.0707 0.02274,-0.15572 0.06821,-0.25425 0.277904,-0.36885 1.025549,-0.55293 2.243273,-0.55293 h 0.07958 c 0.154111,-0.0152 0.230994,-0.072 0.230994,-0.17054 -0.01263,-0.13895 -0.07436,-0.20877 -0.185519,-0.20877 z m 2.906799,0 c -0.586125,0 -1.135619,0.12667 -1.648478,0.37931 -0.750341,0.42191 -1.125513,0.9319 -1.125513,1.53065 v 0.0568 c 0,0.3158 0.122359,0.63033 0.36742,0.94361 0.608862,0.64423 1.414959,0.96635 2.41794,0.96635 h 0.905371 c 0.123794,-0.0227 0.186035,-0.0807 0.186035,-0.17415 v -0.0114 c 0,-0.11116 -0.06603,-0.17559 -0.197404,-0.19327 h -0.894002 c -0.389066,0 -0.777214,-0.0655 -1.163753,-0.19689 -0.82866,-0.34864 -1.242819,-0.79742 -1.242819,-1.34565 v -0.0341 c 0,-0.26022 0.107201,-0.51251 0.321945,-0.75758 0.530544,-0.52296 1.221861,-0.78444 2.073258,-0.78444 h 0.04547 c 0.08337,0 0.186782,0.0227 0.310576,0.0682 0.24506,0.11369 0.367419,0.31293 0.367419,0.59841 0,0.1339 -0.05036,0.24541 -0.151412,0.33383 -0.346117,0.24506 -0.81333,0.36742 -1.401982,0.36742 -0.09853,0 -0.202456,-0.0189 -0.311092,-0.0568 -0.25264,-0.0884 -0.378788,-0.25247 -0.378788,-0.49248 -0.01263,-0.15411 -0.07436,-0.23151 -0.185518,-0.23151 -0.128847,0.0303 -0.19327,0.0888 -0.19327,0.17467 v 0.0341 c 0,0.12632 0.02653,0.26384 0.07958,0.4129 0.222323,0.36127 0.54444,0.54208 0.966349,0.54208 0.06569,0 0.161518,-0.004 0.287838,-0.0114 1.111616,-0.11117 1.667598,-0.46521 1.667598,-1.06144 v -0.0114 c 0,-0.15411 -0.03032,-0.30678 -0.09095,-0.45837 -0.212218,-0.39159 -0.538125,-0.58756 -0.977719,-0.58756 z m 1.928564,0 -0.06046,0.0114 c -0.07579,0.0354 -0.113688,0.11656 -0.113688,0.24288 v 3.36879 c 0.0076,0.16926 0.06551,0.25373 0.174149,0.25373 h 0.04548 c 0.07579,0 0.128846,-0.0531 0.159163,-0.15917 v -1.59886 c 0,-0.42191 0.100138,-0.7175 0.299723,-0.88677 0.159164,-0.14906 0.331878,-0.27194 0.518832,-0.36794 0.770552,-0.32338 1.598295,-0.48472 2.482536,-0.48472 0.138952,-0.0253 0.208256,-0.0859 0.208256,-0.1819 -0.02526,-0.13138 -0.08211,-0.19741 -0.170533,-0.19741 h -0.01499 c -0.717497,0 -1.437524,0.10772 -2.160075,0.32246 -0.416856,0.11622 -0.805004,0.3382 -1.163753,0.66663 v -0.82993 c 0,-0.0758 -0.05305,-0.12884 -0.159163,-0.15916 z m -36.175569,0.0114 c -0.0859,0 -0.142742,0.0606 -0.170532,0.1819 0,0.68718 0.107716,1.39475 0.322461,2.12235 0.346116,1.04088 0.869083,1.56115 1.568896,1.56115 h 0.140043 c 0.611389,0 1.09646,-0.12994 1.455208,-0.39016 v 0.13643 c 0,0.16926 0.05685,0.25373 0.170533,0.25373 h 0.04909 c 0.07579,0 0.128847,-0.0531 0.159164,-0.15917 V 139.273 c 0,-0.0455 0.0038,-0.072 0.01137,-0.0796 -0.0076,-0.0429 -0.01137,-0.0787 -0.01137,-0.10645 v -2.55799 c 0,-0.0859 -0.06063,-0.13895 -0.181901,-0.15916 h -0.02636 c -0.101056,0 -0.157901,0.0812 -0.170533,0.24288 v 2.56935 l -0.01137,0.0796 c -0.18948,0.39665 -0.678341,0.5948 -1.466578,0.5948 h -0.105936 c -0.416856,0 -0.76441,-0.27555 -1.042314,-0.82631 -0.320853,-0.7655 -0.481107,-1.603 -0.481107,-2.51251 0,-0.0733 -0.06224,-0.12253 -0.186036,-0.14779 z m -2.701644,0.36794 c 0.401698,0 0.746552,0.16513 1.034562,0.49609 0.353696,0.45475 0.5302,0.91869 0.5302,1.39113 v 0.0114 c 0,0.17685 -0.05036,0.35714 -0.151412,0.54157 -0.169268,0.45222 -0.617534,0.67851 -1.345137,0.67851 h -0.125057 c -0.490122,0 -0.847953,-0.0958 -1.072803,-0.28784 -0.282957,-0.30822 -0.424263,-0.61897 -0.424263,-0.93224 v -0.0114 c 0,-0.21222 0.04278,-0.43471 0.128674,-0.66714 0.310747,-0.8135 0.786057,-1.22008 1.425236,-1.22008 z" />
  </g>
</svg>
