<?xml version="1.0" encoding="UTF-8" standalone="no"?>
<!-- Created with Inkscape (http://www.inkscape.org/) -->

<svg
   width="382.54956"
   height="69.382195"
   viewBox="0 0 101.21623 18.357372"
   version="1.1"
   id="svg1"
   inkscape:version="1.3.2 (091e20ef0f, 2023-11-25, custom)"
   sodipodi:docname="personnaliser-les-des.svg"
   xmlns:inkscape="http://www.inkscape.org/namespaces/inkscape"
   xmlns:sodipodi="http://sodipodi.sourceforge.net/DTD/sodipodi-0.dtd"
   xmlns="http://www.w3.org/2000/svg"
   xmlns:svg="http://www.w3.org/2000/svg">
  <sodipodi:namedview
     id="namedview1"
     pagecolor="#ffffff"
     bordercolor="#666666"
     borderopacity="1.0"
     inkscape:showpageshadow="2"
     inkscape:pageopacity="0.0"
     inkscape:pagecheckerboard="0"
     inkscape:deskcolor="#d1d1d1"
     inkscape:document-units="mm"
     inkscape:zoom="0.9078525"
     inkscape:cx="587.09978"
     inkscape:cy="155.86232"
     inkscape:window-width="1916"
     inkscape:window-height="1029"
     inkscape:window-x="0"
     inkscape:window-y="0"
     inkscape:window-maximized="1"
     inkscape:current-layer="layer1"
     showgrid="false" />
  <defs
     id="defs1">
    <style
       transform="translate(-130.185, 41.1648)"
       id="style111"><![CDATA[
polygon {
shape-rendering:crispEdges;
stroke-width:0.098900;
}
.s0 {
stroke:#000000;
stroke-width:0.080355;
stroke-linecap:round;
stroke-linejoin:round;
fill:none;
}
.s1 {
stroke:#000000;
stroke-width:0.080355;
stroke-linecap:round;
stroke-linejoin:round;
fill:none;
}
.s2 {
stroke:#19b219;
stroke-width:0.080355;
stroke-linecap:round;
stroke-linejoin:round;
fill:none;
}
.s3 {
stroke:#7f4c00;
stroke-width:0.080355;
stroke-linecap:round;
stroke-linejoin:round;
fill:none;
}
.s4 {
stroke:#00cc00;
stroke-width:0.080355;
stroke-linecap:round;
stroke-linejoin:round;
fill:none;
}
.s5 {
stroke:#000000;
stroke-width:0.053570;
stroke-linecap:round;
stroke-linejoin:round;
fill:none;
}
.s6 {
stroke:#ff19ff;
stroke-width:0.053570;
stroke-linecap:round;
stroke-linejoin:round;
fill:none;
}
.s7 {
stroke:#ff0000;
stroke-width:0.080355;
stroke-linecap:round;
stroke-linejoin:round;
fill:none;
}
.s8 {
stroke:#ffff00;
stroke-width:0.080355;
stroke-linecap:round;
stroke-linejoin:round;
fill:none;
}
.s9 {
stroke:#001919;
stroke-width:0.053570;
stroke-linecap:round;
stroke-linejoin:round;
fill:none;
}
.sa {
stroke:#006666;
stroke-width:0.053570;
stroke-linecap:round;
stroke-linejoin:round;
fill:none;
}
.sb {
stroke:#00ffff;
stroke-width:0.160711;
stroke-linecap:round;
stroke-linejoin:round;
fill:none;
}
.sc {
stroke:#ff0000;
stroke-width:0.428562;
stroke-linecap:round;
stroke-linejoin:round;
fill:none;
}
.sd {
stroke:#191919;
stroke-width:0.053570;
stroke-linecap:round;
stroke-linejoin:round;
fill:none;
}
.se {
stroke:#000000;
stroke-width:0.053570;
stroke-linecap:round;
stroke-linejoin:round;
stroke-dasharray:0.804,0.804;
fill:none;
}
.sf {
stroke:#000000;
stroke-width:0.160711;
stroke-linecap:round;
stroke-linejoin:round;
fill:none;
}
.s100 {
stroke:#ff0000;
stroke-width:0.500000;
stroke-linecap:round;
stroke-linejoin:round;
fill:none;
}
]]></style>
  </defs>
  <g
     inkscape:label="Layer 1"
     inkscape:groupmode="layer"
     id="layer1"
     transform="translate(-24.937099,-128.2276)">
    <path
       id="path1"
       style="fill:#fff6e5;fill-opacity:1;stroke:none;stroke-width:0.2;stroke-linecap:round;stroke-linejoin:round"
       d="m 125.90855,141.08255 c 1.59659,-4.30835 -4.98146,-8.39391 -9.16341,-10.29715 -11.59694,-5.27785 -25.487483,-0.81862 -38.222223,-0.40498 -7.68241,0.24954 -15.30763,1.82499 -22.99362,1.74014 -7.39185,-0.0816 -15.06228,-4.5106 -22.07134,-2.1613 -3.65855,1.22628 -8.73872,3.99124 -8.51363,7.84327 0.24047,4.11549 6.08311,6.00846 10.01,7.26332 9.70162,3.10021 20.36863,-0.30472 30.55352,-0.27821 9.90664,0.0258 19.82798,1.01689 29.71697,0.42534 10.301753,-0.61625 27.097593,5.54662 30.683733,-4.13043 z"
       sodipodi:nodetypes="aaaaaaaaaa" />
    <path
       id="path8"
       style="fill:#ffe6b3;fill-opacity:1;stroke:none;stroke-width:0.2;stroke-linecap:round;stroke-linejoin:round"
       d="m 124.12573,138.01627 c -1.82504,-5.88883 -10.84816,-6.35375 -16.90527,-7.50289 -6.02049,-1.14219 -12.255653,0.33358 -18.366873,0.7852 -4.7575,0.35158 -9.46272,1.19172 -14.23288,1.49718 -8.77746,0.56208 -17.60523,0.858 -26.4063,0.61312 -5.96712,-0.16603 -12.55429,-4.16039 -17.85265,-1.41058 -2.40761,1.24954 -4.6984,4.34708 -4.14538,7.00266 0.5396,2.59115 3.91097,3.85705 6.4361,4.65012 9.09441,2.85627 19.06103,-0.5736 28.59303,-0.48737 7.93047,0.0717 15.84745,0.74176 23.77769,0.83578 5.82657,0.0691 11.65307,-0.2524 17.479823,-0.19973 5.91506,0.0535 12.53186,3.33151 17.73818,0.52349 2.17316,-1.17209 4.61544,-3.94856 3.88453,-6.30698 z"
       sodipodi:nodetypes="aaaaaaaaaaaaa" />
    <path
       id="path141"
       style="fill:#ffdd99;fill-opacity:1;stroke-width:1;stroke-linecap:round;stroke-linejoin:round"
       d="m 78.583187,134.25926 c -3.94046,0.50963 -7.9219,0.74424 -11.89511,0.76739 -2.32692,0.0136 -4.6443,-0.38912 -6.97116,-0.3682 -2.28447,0.0205 -4.55464,0.59461 -6.83654,0.48449 -3.46249,-0.1671 -6.79896,-2.00596 -10.25452,-1.73065 -2.02245,0.16113 -4.89463,0.11804 -5.76561,1.95043 -0.90822,1.91074 0.4603,4.77038 2.21901,5.94628 2.16797,1.44954 5.21108,-0.27472 7.81901,-0.27321 2.1322,0.001 4.26166,0.15266 6.39243,0.23077 4.41715,0.16193 8.83174,0.41518 13.25117,0.49318 4.31757,0.0762 8.63777,-0.13092 12.9547,-0.0247 4.02795,0.0991 8.04311,0.55035 12.07171,0.61751 6.7317,0.11223 13.480503,0.13891 20.194703,-0.35886 3.55971,-0.26391 9.53375,2.01022 10.61773,-1.39068 1.22101,-3.83078 -5.03208,-6.92997 -8.8474,-8.19849 -3.7228,-1.23776 -7.78475,1.40803 -11.70425,1.238 -3.413923,-0.14809 -6.645723,-1.95831 -10.062853,-1.95707 -4.47731,0.002 -8.7427,1.99954 -13.18302,2.57381 z m -46.62372,-1.54296 c -2.16639,-0.44941 -4.82298,2.37037 -4.80156,4.58278 0.0131,1.35205 2.1933,1.64937 2.988,2.74329 0.47293,0.651 0.19929,2.15567 1.00294,2.19573 1.85187,0.0923 2.68378,-2.95443 2.80279,-4.80477 0.10956,-1.7033 -0.32093,-4.37033 -1.99217,-4.71703 z"
       sodipodi:nodetypes="aaaaaaaaaaaaaaaaaaaaaaaa" />
    <path
       id="text2"
       style="font-size:7.76111px;line-height:1.25;font-family:Tibet;-inkscape-font-specification:Tibet;text-align:justify;letter-spacing:0px;word-spacing:0px;stroke-width:0.264583"
       d="m 73.246295,132.91724 c -0.108635,0 -0.173059,0.0682 -0.19327,0.20463 v 6.92 c 0.01769,0.12884 0.07832,0.19327 0.181901,0.19327 h 0.03411 c 0.0859,0 0.138952,-0.0606 0.159163,-0.18191 v -6.96546 c 0,-0.0783 -0.06063,-0.13516 -0.181901,-0.17053 z m 18.894971,0 c -0.108636,0 -0.173059,0.0682 -0.19327,0.20463 v 6.92 c 0.01769,0.12884 0.07832,0.19327 0.181901,0.19327 h 0.03411 c 0.0859,0 0.138953,-0.0606 0.159164,-0.18191 v -6.96546 c 0,-0.0783 -0.06063,-0.13516 -0.181901,-0.17053 z m -60.51982,1.4211 c -0.111162,0.0278 -0.166915,0.0835 -0.166915,0.16691 v 0.0755 c 0.75792,1.13688 1.136881,2.24885 1.136881,3.3352 0,0.9095 -0.247416,1.82389 -0.74259,2.7435 -0.262746,0.41938 -0.394291,0.64188 -0.394291,0.66714 v 0.0455 c 0.02779,0.11116 0.08354,0.1664 0.166915,0.1664 h 0.04547 c 0.02779,0 0.05811,-0.01 0.09095,-0.03 0.808448,-1.1773 1.212846,-2.3445 1.212846,-3.50159 v -0.13643 c 0,-0.70739 -0.166743,-1.46043 -0.500228,-2.25877 -0.416856,-0.84888 -0.684827,-1.27331 -0.803568,-1.27331 z m -1.841749,0.43563 c -0.171795,0 -0.309312,0.0281 -0.412894,0.0837 -0.66697,0.28548 -1.015614,1.16467 -1.045931,2.63756 0,0.10611 0.072,0.17811 0.216007,0.21601 0.121267,0 0.19327,-0.0823 0.216008,-0.2465 v -0.0832 c 0,-0.144 0.0049,-0.29938 0.01499,-0.46612 0.144005,-1.15204 0.48128,-1.72806 1.011824,-1.72806 0.720025,0 1.080038,0.48237 1.080038,1.44746 -0.06063,0.41685 -0.569533,1.16829 -1.527039,2.25464 -0.376433,0.39412 -0.564823,0.59876 -0.564823,0.61392 -0.298115,0.26527 -0.447001,0.43741 -0.447001,0.51573 0.02274,0.144 0.08934,0.21601 0.200504,0.21601 h 2.554366 c 0.144005,-0.0177 0.216008,-0.0848 0.216008,-0.20103 -0.02021,-0.14147 -0.08085,-0.21239 -0.181901,-0.21239 h -2.057756 v -0.0186 c 1.493103,-1.56637 2.239657,-2.63395 2.239657,-3.20239 -0.02274,-0.31074 -0.05036,-0.55437 -0.0832,-0.73122 -0.242535,-0.73013 -0.691317,-1.09554 -1.345654,-1.09554 z m 8.636683,0.0305 c -0.121268,0.0303 -0.181901,0.0909 -0.181901,0.1819 v 5.06687 c 0,0.096 0.06063,0.15664 0.181901,0.18191 h 0.04909 c 0.101056,0 0.16169,-0.0709 0.181901,-0.21239 v -4.8054 h 2.482019 c 0.376434,0 0.711528,0.0216 1.00459,0.0646 0.735183,0.1819 1.102775,0.34594 1.102775,0.49248 0,0.12126 -0.04438,0.19866 -0.132808,0.23151 -0.399171,0.23495 -1.39205,0.61879 -2.97863,1.15186 -0.426961,0.10106 -0.640271,0.21096 -0.640271,0.3297 v 0.0646 c 0,0.0909 0.06551,0.15158 0.196887,0.1819 1.288465,-0.40675 2.337097,-0.77974 3.145545,-1.11828 0.548229,-0.20211 0.822172,-0.44953 0.822172,-0.74259 v -0.1478 c 0,-0.0682 -0.03899,-0.16186 -0.117306,-0.2806 -0.492648,-0.42696 -1.195334,-0.64027 -2.107365,-0.64027 z m 67.66305,0 c -0.11621,0 -0.18173,0.0769 -0.19688,0.23099 v 4.96818 c 0.0202,0.15411 0.0808,0.23151 0.1819,0.23151 0.56591,-0.12127 1.22909,-0.31833 1.98954,-0.59118 1.09898,-0.40928 1.84554,-0.78336 2.23966,-1.1219 0.6796,-0.4497 1.01957,-1.108 1.01957,-1.97455 0,-0.28549 -0.10502,-0.5708 -0.31471,-0.85628 -0.56844,-0.59118 -1.21537,-0.88677 -1.94045,-0.88677 z m 8.53798,0 c -0.0758,0 -0.19706,0.14131 -0.3638,0.42426 -0.24253,0.33349 -0.3638,0.53595 -0.3638,0.60668 v 0.015 c 0,0.0935 0.0558,0.14923 0.16691,0.16692 h 0.0305 c 0.0278,0 0.0581,-0.0103 0.091,-0.0305 0.43454,-0.60381 0.65164,-0.93242 0.65164,-0.98547 0,-0.11874 -0.0655,-0.18426 -0.19688,-0.19689 z m -8.30647,0.41289 h 2.55024 c 0.53307,0 0.97754,0.1153 1.33376,0.3452 0.45981,0.30317 0.68988,0.61501 0.68988,0.93586 v 0.28061 c 0,0.6897 -0.52675,1.31499 -1.58026,1.87585 -0.82866,0.40675 -1.82642,0.77434 -2.99362,1.10278 z m -31.605303,0.31471 c -0.106108,0 -0.170532,0.0644 -0.193269,0.19327 v 0.0377 c 0,0.10611 0.06442,0.17053 0.193269,0.19327 h 0.03772 c 0.106109,0 0.170532,-0.0644 0.19327,-0.19327 v -0.0377 c 0,-0.10611 -0.06442,-0.17053 -0.19327,-0.19327 z m -28.53986,0.82631 c -0.586125,0 -1.135619,0.12615 -1.648478,0.37879 -0.750341,0.42191 -1.125513,0.93241 -1.125513,1.53117 v 0.0568 c 0,0.3158 0.122876,0.63034 0.367937,0.94362 0.608862,0.64423 1.414442,0.96635 2.417423,0.96635 h 0.905888 c 0.123794,-0.0227 0.185518,-0.0812 0.185518,-0.17467 v -0.0114 c 0,-0.11116 -0.06551,-0.17558 -0.196887,-0.19327 h -0.894519 c -0.389065,0 -0.776697,-0.0655 -1.163236,-0.19689 -0.82866,-0.34864 -1.242818,-0.79691 -1.242818,-1.34513 v -0.0341 c 0,-0.26022 0.1072,-0.51303 0.321944,-0.75809 0.530544,-0.52297 1.221344,-0.78445 2.072741,-0.78445 h 0.04548 c 0.08337,0 0.187298,0.0227 0.311092,0.0682 0.245061,0.11369 0.367419,0.31345 0.367419,0.59893 0,0.1339 -0.05036,0.24489 -0.151412,0.33331 -0.346117,0.24506 -0.813847,0.36742 -1.402498,0.36742 -0.09853,0 -0.20194,-0.0189 -0.310575,-0.0568 -0.252641,-0.0884 -0.378789,-0.25247 -0.378789,-0.49248 -0.01263,-0.15411 -0.07487,-0.23099 -0.186035,-0.23099 -0.128846,0.0303 -0.19327,0.0882 -0.19327,0.17415 v 0.0341 c 0,0.12632 0.02653,0.26383 0.07958,0.41289 0.222323,0.36128 0.54444,0.54209 0.966349,0.54209 0.06569,0 0.162035,-0.004 0.288355,-0.0114 1.111616,-0.11116 1.667081,-0.46469 1.667081,-1.06092 v -0.0114 c 0,-0.15411 -0.03032,-0.3073 -0.09095,-0.45889 -0.212218,-0.39159 -0.538124,-0.58704 -0.977718,-0.58704 z m 1.929082,0 -0.06046,0.0114 c -0.07579,0.0354 -0.113688,0.11604 -0.113688,0.24236 v 3.36879 c 0.0076,0.16927 0.06551,0.25425 0.17415,0.25425 h 0.04548 c 0.07579,0 0.128846,-0.0531 0.159163,-0.15917 v -1.59938 c 0,-0.42191 0.09962,-0.7175 0.299207,-0.88677 0.159163,-0.14906 0.332394,-0.27142 0.519348,-0.36742 0.770552,-0.32338 1.597779,-0.48524 2.482019,-0.48524 0.138952,-0.0253 0.208773,-0.0859 0.208773,-0.1819 -0.02526,-0.13138 -0.08211,-0.19689 -0.170532,-0.19689 h -0.0155 c -0.717498,0 -1.437525,0.1072 -2.160075,0.32194 -0.416856,0.11622 -0.804488,0.33871 -1.163237,0.66715 v -0.82993 c 0,-0.0758 -0.05305,-0.12884 -0.159163,-0.15916 z m 6.749458,0 c -1.786165,0 -2.679423,0.399 -2.679423,1.19734 v 0.0455 c 0,0.31075 0.279341,0.5863 0.837675,0.8263 0.606336,0.23243 0.909506,0.47876 0.909506,0.73898 0,0.096 -0.06063,0.18804 -0.181901,0.27647 -0.525492,0.27537 -1.273653,0.41289 -2.243791,0.41289 -0.131373,0.0177 -0.196887,0.0783 -0.196887,0.1819 v 0.0382 c 0,0.0758 0.05305,0.12885 0.159163,0.15917 0.586125,0 1.173515,-0.0623 1.762166,-0.18604 0.720025,-0.19706 1.080038,-0.47967 1.080038,-0.84853 0,-0.39917 -0.260393,-0.72128 -0.780831,-0.96635 -0.644232,-0.25516 -0.966349,-0.47008 -0.966349,-0.6444 v -0.0455 c 0,-0.0707 0.02274,-0.1552 0.06821,-0.25373 0.277904,-0.36885 1.026065,-0.55345 2.24379,-0.55345 h 0.07958 c 0.15411,-0.0152 0.230994,-0.072 0.230994,-0.17053 -0.01263,-0.13896 -0.07436,-0.20826 -0.185519,-0.20826 z m 2.18643,0 c -0.540649,0 -1.004073,0.24093 -1.390613,0.72347 -0.361275,0.51033 -0.542085,1.02463 -0.542085,1.54254 0,0.24759 0.06551,0.49282 0.196887,0.73536 0.255166,0.5836 0.807359,0.8754 1.65623,0.8754 h 0.170532 c 0.563387,0 0.996494,-0.12667 1.299662,-0.37931 0.368855,-0.39664 0.553455,-0.79943 0.553455,-1.20871 0,-0.29054 -0.05794,-0.58992 -0.17415,-0.89814 -0.396645,-0.92719 -0.982944,-1.39061 -1.758549,-1.39061 z m 2.899048,0 c -0.09348,0 -0.146531,0.0882 -0.159163,0.2651 v 3.34605 c 0.0076,0.17685 0.06551,0.26562 0.174149,0.26562 h 0.04548 c 0.106108,-0.0278 0.159163,-0.0863 0.159163,-0.17467 v -1.34514 c 0,-0.36633 0.01137,-0.64567 0.03411,-0.83767 0.111162,-0.76045 0.326079,-1.1405 0.644406,-1.1405 h 0.01137 c 0.159164,0 0.416857,0.21113 0.77308,0.63303 0.502753,0.66697 1.007863,1.47634 1.51567,2.4288 0.11874,0.29053 0.222668,0.43615 0.311092,0.43615 h 0.04909 c 0.0859,0 0.142742,-0.0623 0.170532,-0.18604 0,-0.0303 -0.02274,-0.0872 -0.06821,-0.17053 -1.230357,-2.34703 -2.139865,-3.5202 -2.728516,-3.5202 H 60.8393 c -0.265272,0 -0.495347,0.12615 -0.68988,0.37879 v -0.21963 c 0,-0.0859 -0.06063,-0.13895 -0.181901,-0.15916 z m 4.407483,0 c -0.09348,0 -0.146531,0.0882 -0.159163,0.2651 v 3.34605 c 0.0076,0.17685 0.06551,0.26562 0.174149,0.26562 h 0.04547 c 0.106109,-0.0278 0.159164,-0.0863 0.159164,-0.17467 v -1.34514 c 0,-0.36633 0.01137,-0.64567 0.03411,-0.83767 0.111162,-0.76045 0.326079,-1.1405 0.644405,-1.1405 h 0.01137 c 0.159163,0 0.416857,0.21113 0.77308,0.63303 0.502753,0.66697 1.007863,1.47634 1.515669,2.4288 0.118741,0.29053 0.222152,0.43615 0.310576,0.43615 h 0.04961 c 0.0859,0 0.142742,-0.0623 0.170532,-0.18604 0,-0.0303 -0.02274,-0.0872 -0.06821,-0.17053 -1.230357,-2.34703 -2.139864,-3.5202 -2.728515,-3.5202 h -0.02274 c -0.265272,0 -0.495347,0.12615 -0.68988,0.37879 v -0.21963 c 0,-0.0859 -0.06063,-0.13895 -0.181901,-0.15916 z m 6.593913,0 c -0.576019,0 -1.129303,0.12615 -1.659847,0.37879 -0.742762,0.42949 -1.114144,0.9362 -1.114144,1.5198 v 0.0796 c 0,0.36128 0.160255,0.71371 0.481107,1.0573 0.611389,0.56086 1.37959,0.8413 2.304253,0.8413 h 0.03411 c 0.121267,-0.0227 0.181901,-0.0812 0.181901,-0.17467 -0.01516,-0.13643 -0.07958,-0.20464 -0.19327,-0.20464 h -0.02274 c -0.44212,0 -0.868165,-0.0807 -1.277442,-0.24236 -0.752867,-0.34864 -1.12913,-0.77796 -1.12913,-1.2883 v -0.0568 c 0,-0.21727 0.08825,-0.44735 0.2651,-0.68988 0.538124,-0.56086 1.248389,-0.84129 2.130103,-0.84129 h 0.04547 c 0.09348,0 0.204467,0.0265 0.333313,0.0796 0.229902,0.10611 0.344682,0.31345 0.344682,0.62167 v 2.61069 c 0,0.10611 0.06063,0.16835 0.181901,0.18604 h 0.01137 c 0.106109,0 0.16835,-0.066 0.186035,-0.19741 v -3.48247 c -0.01769,-0.13138 -0.07993,-0.19689 -0.186035,-0.19689 h -0.01137 c -0.121267,0 -0.181901,0.0769 -0.181901,0.23099 -0.209691,-0.15411 -0.43925,-0.23099 -0.689364,-0.23099 z m 7.813993,0 c -1.786165,0 -2.679423,0.399 -2.679423,1.19734 v 0.0455 c 0,0.31075 0.279341,0.5863 0.837675,0.8263 0.606336,0.23243 0.909505,0.47876 0.909505,0.73898 0,0.096 -0.06063,0.18804 -0.181901,0.27647 -0.525491,0.27537 -1.273136,0.41289 -2.243274,0.41289 -0.131373,0.0177 -0.197404,0.0783 -0.197404,0.1819 v 0.0382 c 0,0.0758 0.05306,0.12885 0.159164,0.15917 0.586125,0 1.173515,-0.0623 1.762166,-0.18604 0.720024,-0.19706 1.080038,-0.47967 1.080038,-0.84853 0,-0.39917 -0.259876,-0.72128 -0.780315,-0.96635 -0.644232,-0.25516 -0.966349,-0.47008 -0.966349,-0.6444 v -0.0455 c 0,-0.0707 0.02274,-0.1552 0.06821,-0.25373 0.277904,-0.36885 1.025549,-0.55345 2.243274,-0.55345 h 0.07958 c 0.15411,-0.0152 0.230993,-0.072 0.230993,-0.17053 -0.01263,-0.13896 -0.07436,-0.20826 -0.185518,-0.20826 z m 2.906799,0 c -0.586124,0 -1.135618,0.12615 -1.648478,0.37879 -0.750341,0.42191 -1.125512,0.93241 -1.125512,1.53117 v 0.0568 c 0,0.3158 0.122358,0.63034 0.367419,0.94362 0.608862,0.64423 1.414959,0.96635 2.41794,0.96635 h 0.905371 c 0.123794,-0.0227 0.186036,-0.0812 0.186036,-0.17467 v -0.0114 c 0,-0.11116 -0.06603,-0.17558 -0.197404,-0.19327 h -0.894003 c -0.389065,0 -0.777214,-0.0655 -1.163753,-0.19689 -0.828659,-0.34864 -1.242818,-0.79691 -1.242818,-1.34513 v -0.0341 c 0,-0.26022 0.1072,-0.51303 0.321944,-0.75809 0.530544,-0.52297 1.221862,-0.78445 2.073258,-0.78445 h 0.04548 c 0.08337,0 0.186781,0.0227 0.310575,0.0682 0.245061,0.11369 0.367419,0.31345 0.367419,0.59893 0,0.1339 -0.05035,0.24489 -0.151411,0.33331 -0.346117,0.24506 -0.813331,0.36742 -1.401982,0.36742 -0.09853,0 -0.202457,-0.0189 -0.311092,-0.0568 -0.25264,-0.0884 -0.378788,-0.25247 -0.378788,-0.49248 -0.01263,-0.15411 -0.07436,-0.23099 -0.185519,-0.23099 -0.128846,0.0303 -0.19327,0.0882 -0.19327,0.17415 v 0.0341 c 0,0.12632 0.02653,0.26383 0.07958,0.41289 0.222323,0.36128 0.54444,0.54209 0.966349,0.54209 0.06569,0 0.161518,-0.004 0.287838,-0.0114 1.111616,-0.11116 1.667599,-0.46469 1.667599,-1.06092 v -0.0114 c 0,-0.15411 -0.03032,-0.3073 -0.09095,-0.45889 -0.212218,-0.39159 -0.538124,-0.58704 -0.977718,-0.58704 z m 1.928565,0 -0.06046,0.0114 c -0.07579,0.0354 -0.113688,0.11604 -0.113688,0.24236 v 3.36879 c 0.0076,0.16927 0.06552,0.25425 0.17415,0.25425 h 0.04548 c 0.07579,0 0.128847,-0.0531 0.159164,-0.15917 v -1.59938 c 0,-0.42191 0.100137,-0.7175 0.299723,-0.88677 0.159163,-0.14906 0.331878,-0.27142 0.518831,-0.36742 0.770552,-0.32338 1.598296,-0.48524 2.482536,-0.48524 0.138952,-0.0253 0.208256,-0.0859 0.208256,-0.1819 -0.02526,-0.13138 -0.08211,-0.19689 -0.170532,-0.19689 h -0.01499 c -0.717498,0 -1.437525,0.1072 -2.160075,0.32194 -0.416856,0.11622 -0.805005,0.33871 -1.163753,0.66715 v -0.82993 c 0,-0.0758 -0.05306,-0.12884 -0.159164,-0.15916 z m 12.301058,0 c -0.586125,0 -1.135619,0.12615 -1.648478,0.37879 -0.750341,0.42191 -1.125513,0.93241 -1.125513,1.53117 v 0.0568 c 0,0.3158 0.122875,0.63034 0.367936,0.94362 0.608863,0.64423 1.414443,0.96635 2.417424,0.96635 h 0.905888 c 0.123793,-0.0227 0.185518,-0.0812 0.185518,-0.17467 v -0.0114 c 0,-0.11116 -0.06551,-0.17558 -0.196887,-0.19327 h -0.894519 c -0.389066,0 -0.776698,-0.0655 -1.163237,-0.19689 -0.828659,-0.34864 -1.242818,-0.79691 -1.242818,-1.34513 v -0.0341 c 0,-0.26022 0.1072,-0.51303 0.321944,-0.75809 0.530544,-0.52297 1.221345,-0.78445 2.072742,-0.78445 h 0.04547 c 0.08337,0 0.187299,0.0227 0.311092,0.0682 0.245061,0.11369 0.36742,0.31345 0.36742,0.59893 0,0.1339 -0.05036,0.24489 -0.151412,0.33331 -0.346117,0.24506 -0.813847,0.36742 -1.402499,0.36742 -0.09853,0 -0.20194,-0.0189 -0.310575,-0.0568 -0.25264,-0.0884 -0.378788,-0.25247 -0.378788,-0.49248 -0.01263,-0.15411 -0.07487,-0.23099 -0.186035,-0.23099 -0.128847,0.0303 -0.19327,0.0882 -0.19327,0.17415 v 0.0341 c 0,0.12632 0.02653,0.26383 0.07958,0.41289 0.222324,0.36128 0.544441,0.54209 0.96635,0.54209 0.06569,0 0.162034,-0.004 0.288354,-0.0114 1.111616,-0.11116 1.667082,-0.46469 1.667082,-1.06092 v -0.0114 c 0,-0.15411 -0.03032,-0.3073 -0.09095,-0.45889 -0.212217,-0.39159 -0.538124,-0.58704 -0.977718,-0.58704 z m 5.066874,0 c -1.786165,0 -2.679423,0.399 -2.679423,1.19734 v 0.0455 c 0,0.31075 0.27934,0.5863 0.837675,0.8263 0.606336,0.23243 0.909508,0.47876 0.909508,0.73898 0,0.096 -0.06064,0.18804 -0.181904,0.27647 -0.525491,0.27537 -1.273136,0.41289 -2.243274,0.41289 -0.131373,0.0177 -0.197404,0.0783 -0.197404,0.1819 v 0.0382 c 0,0.0758 0.05306,0.12885 0.159164,0.15917 0.586125,0 1.173515,-0.0623 1.762166,-0.18604 0.720022,-0.19706 1.080042,-0.47967 1.080042,-0.84853 0,-0.39917 -0.25988,-0.72128 -0.780319,-0.96635 -0.644232,-0.25516 -0.966349,-0.47008 -0.966349,-0.6444 v -0.0455 c 0,-0.0707 0.02274,-0.1552 0.06821,-0.25373 0.277904,-0.36885 1.025549,-0.55345 2.243278,-0.55345 h 0.0796 c 0.15411,-0.0152 0.23099,-0.072 0.23099,-0.17053 -0.0126,-0.13896 -0.0743,-0.20826 -0.18551,-0.20826 z m 13.64258,0 c -0.58613,0 -1.13562,0.12615 -1.64848,0.37879 -0.75034,0.42191 -1.12551,0.93241 -1.12551,1.53117 v 0.0568 c 0,0.3158 0.12236,0.63034 0.36742,0.94362 0.60886,0.64423 1.41496,0.96635 2.41794,0.96635 h 0.90588 c 0.1238,-0.0227 0.18552,-0.0812 0.18552,-0.17467 v -0.0114 c 0,-0.11116 -0.0655,-0.17558 -0.19688,-0.19327 h -0.89452 c -0.38907,0 -0.7767,-0.0655 -1.16324,-0.19689 -0.82866,-0.34864 -1.24333,-0.79691 -1.24333,-1.34513 v -0.0341 c 0,-0.26022 0.10771,-0.51303 0.32246,-0.75809 0.53054,-0.52297 1.22134,-0.78445 2.07274,-0.78445 h 0.0455 c 0.0834,0 0.18679,0.0227 0.31058,0.0682 0.24506,0.11369 0.36793,0.31345 0.36793,0.59893 0,0.1339 -0.0509,0.24489 -0.15192,0.33331 -0.34612,0.24506 -0.81333,0.36742 -1.40199,0.36742 -0.0985,0 -0.20194,-0.0189 -0.31057,-0.0568 -0.25264,-0.0884 -0.37931,-0.25247 -0.37931,-0.49248 -0.0126,-0.15411 -0.0744,-0.23099 -0.18551,-0.23099 -0.12885,0.0303 -0.19327,0.0882 -0.19327,0.17415 v 0.0341 c 0,0.12632 0.0265,0.26383 0.0796,0.41289 0.22232,0.36128 0.54444,0.54209 0.96635,0.54209 0.0657,0 0.16151,-0.004 0.28783,-0.0114 1.11162,-0.11116 1.6676,-0.46469 1.6676,-1.06092 v -0.0114 c 0,-0.15411 -0.0303,-0.3073 -0.091,-0.45889 -0.21221,-0.39159 -0.53812,-0.58704 -0.97772,-0.58704 z m 5.06687,0 c -1.78616,0 -2.67942,0.399 -2.67942,1.19734 v 0.0455 c 0,0.31075 0.27934,0.5863 0.83767,0.8263 0.60634,0.23243 0.90951,0.47876 0.90951,0.73898 0,0.096 -0.0606,0.18804 -0.1819,0.27647 -0.52549,0.27537 -1.27365,0.41289 -2.24379,0.41289 -0.13138,0.0177 -0.19689,0.0783 -0.19689,0.1819 v 0.0382 c 0,0.0758 0.0531,0.12885 0.15916,0.15917 0.58613,0 1.17352,-0.0623 1.76217,-0.18604 0.72002,-0.19706 1.08004,-0.47967 1.08004,-0.84853 0,-0.39917 -0.26039,-0.72128 -0.78083,-0.96635 -0.64424,-0.25516 -0.96635,-0.47008 -0.96635,-0.6444 v -0.0455 c 0,-0.0707 0.0227,-0.1552 0.0682,-0.25373 0.2779,-0.36885 1.02607,-0.55345 2.24379,-0.55345 h 0.0796 c 0.15411,-0.0152 0.231,-0.072 0.231,-0.17053 -0.0126,-0.13896 -0.0744,-0.20826 -0.18552,-0.20826 z m -44.963661,0.0114 c -0.07579,0 -0.128847,0.053 -0.159164,0.15916 v 3.54707 c 0,0.0758 0.05306,0.12885 0.159164,0.15917 h 0.04909 c 0.101056,0 0.1579,-0.0812 0.170532,-0.24288 v -3.39515 c 0,-0.13389 -0.05684,-0.20969 -0.170532,-0.22737 z m -17.663522,0.36742 c 0.401698,0 0.746553,0.16565 1.034562,0.49661 0.353697,0.45475 0.530717,0.91817 0.530717,1.39061 v 0.0114 c 0,0.17685 -0.05087,0.35766 -0.151928,0.54209 -0.169269,0.45222 -0.617535,0.67799 -1.345138,0.67799 h -0.125057 c -0.490121,0 -0.847436,-0.0958 -1.072286,-0.28784 -0.282957,-0.30822 -0.42478,-0.61897 -0.42478,-0.93224 v -0.0114 c 0,-0.21222 0.04329,-0.43471 0.129191,-0.66714 0.310747,-0.8135 0.78554,-1.22008 1.424719,-1.22008 z" />
  </g>
</svg>
