<?xml version="1.0" encoding="UTF-8" standalone="no"?>
<!-- Created with Inkscape (http://www.inkscape.org/) -->

<svg
   width="311.12302"
   height="59.742123"
   viewBox="0 0 82.317959 15.80677"
   version="1.1"
   id="svg1"
   inkscape:version="1.3.2 (091e20ef0f, 2023-11-25, custom)"
   sodipodi:docname="version-officielle.svg"
   xmlns:inkscape="http://www.inkscape.org/namespaces/inkscape"
   xmlns:sodipodi="http://sodipodi.sourceforge.net/DTD/sodipodi-0.dtd"
   xmlns="http://www.w3.org/2000/svg"
   xmlns:svg="http://www.w3.org/2000/svg">
  <sodipodi:namedview
     id="namedview1"
     pagecolor="#ffffff"
     bordercolor="#666666"
     borderopacity="1.0"
     inkscape:showpageshadow="2"
     inkscape:pageopacity="0.0"
     inkscape:pagecheckerboard="0"
     inkscape:deskcolor="#d1d1d1"
     inkscape:document-units="mm"
     inkscape:zoom="1.5669974"
     inkscape:cx="281.42995"
     inkscape:cy="17.549487"
     inkscape:window-width="1916"
     inkscape:window-height="1029"
     inkscape:window-x="0"
     inkscape:window-y="0"
     inkscape:window-maximized="1"
     inkscape:current-layer="layer1"
     showgrid="false" />
  <defs
     id="defs1">
    <style
       transform="translate(-130.185, 41.1648)"
       id="style111"><![CDATA[
polygon {
shape-rendering:crispEdges;
stroke-width:0.098900;
}
.s0 {
stroke:#000000;
stroke-width:0.080355;
stroke-linecap:round;
stroke-linejoin:round;
fill:none;
}
.s1 {
stroke:#000000;
stroke-width:0.080355;
stroke-linecap:round;
stroke-linejoin:round;
fill:none;
}
.s2 {
stroke:#19b219;
stroke-width:0.080355;
stroke-linecap:round;
stroke-linejoin:round;
fill:none;
}
.s3 {
stroke:#7f4c00;
stroke-width:0.080355;
stroke-linecap:round;
stroke-linejoin:round;
fill:none;
}
.s4 {
stroke:#00cc00;
stroke-width:0.080355;
stroke-linecap:round;
stroke-linejoin:round;
fill:none;
}
.s5 {
stroke:#000000;
stroke-width:0.053570;
stroke-linecap:round;
stroke-linejoin:round;
fill:none;
}
.s6 {
stroke:#ff19ff;
stroke-width:0.053570;
stroke-linecap:round;
stroke-linejoin:round;
fill:none;
}
.s7 {
stroke:#ff0000;
stroke-width:0.080355;
stroke-linecap:round;
stroke-linejoin:round;
fill:none;
}
.s8 {
stroke:#ffff00;
stroke-width:0.080355;
stroke-linecap:round;
stroke-linejoin:round;
fill:none;
}
.s9 {
stroke:#001919;
stroke-width:0.053570;
stroke-linecap:round;
stroke-linejoin:round;
fill:none;
}
.sa {
stroke:#006666;
stroke-width:0.053570;
stroke-linecap:round;
stroke-linejoin:round;
fill:none;
}
.sb {
stroke:#00ffff;
stroke-width:0.160711;
stroke-linecap:round;
stroke-linejoin:round;
fill:none;
}
.sc {
stroke:#ff0000;
stroke-width:0.428562;
stroke-linecap:round;
stroke-linejoin:round;
fill:none;
}
.sd {
stroke:#191919;
stroke-width:0.053570;
stroke-linecap:round;
stroke-linejoin:round;
fill:none;
}
.se {
stroke:#000000;
stroke-width:0.053570;
stroke-linecap:round;
stroke-linejoin:round;
stroke-dasharray:0.804,0.804;
fill:none;
}
.sf {
stroke:#000000;
stroke-width:0.160711;
stroke-linecap:round;
stroke-linejoin:round;
fill:none;
}
.s100 {
stroke:#ff0000;
stroke-width:0.500000;
stroke-linecap:round;
stroke-linejoin:round;
fill:none;
}
]]></style>
  </defs>
  <g
     inkscape:label="Layer 1"
     inkscape:groupmode="layer"
     id="layer1"
     transform="translate(-24.501132,-129.7114)">
    <path
       id="path1"
       style="fill:#fff6e5;fill-opacity:1;stroke:none;stroke-width:0.2;stroke-linecap:round;stroke-linejoin:round"
       d="m 106.69993,139.77219 c 0.96,-3.65924 -4.09342,-6.87705 -7.503683,-8.51467 -5.97972,-2.87149 -13.24553,-0.84642 -19.87839,-0.93381 -8.90299,-0.11729 -17.8783,-0.61419 -26.70562,0.55002 -9.56772,1.26186 -28.24606,-2.72081 -28.11037,6.9288 0.14389,10.23228 19.83115,5.3824 30.00256,6.50611 5.92062,0.6541 11.91477,-0.0328 17.86954,0.11646 6.21698,0.15583 12.48615,1.71706 18.63906,0.81326 5.47854,-0.80474 14.281753,-0.11009 15.686903,-5.46617 z"
       sodipodi:nodetypes="aaaaaaaaa" />
    <path
       id="path8"
       style="fill:#ffe6b3;fill-opacity:1;stroke:none;stroke-width:0.2;stroke-linecap:round;stroke-linejoin:round"
       d="m 104.82756,140.9257 c 0.89648,-3.37227 -3.4031,-6.58697 -6.490313,-8.21331 -3.15017,-1.65951 -7.10385,-0.49628 -10.65723,-0.72222 -3.87964,-0.24669 -7.75695,-0.83176 -11.6419,-0.69159 -3.8047,0.13727 -7.52808,1.19172 -11.32298,1.49718 -6.98292,0.56208 -14.00206,0.62083 -21.00756,0.61312 -3.70594,-0.004 -7.64252,-1.65043 -11.11237,-0.34881 -2.72264,1.02132 -6.85537,3.07076 -6.38818,5.94089 0.44705,2.74644 4.88251,2.85552 7.60026,3.4527 6.95868,1.52906 14.25232,-0.0863 21.37367,0.13209 6.73679,0.20657 13.45263,0.89916 20.18916,1.11411 3.84046,0.12254 7.68466,0.14413 11.52682,0.0999 3.90403,-0.0449 7.88608,0.43154 11.707,-0.37102 2.188283,-0.45964 5.649153,-0.34208 6.223623,-2.50306 z"
       sodipodi:nodetypes="aaaaaaaaaaaaaa" />
    <path
       id="path141"
       style="fill:#ffdd99;fill-opacity:1;stroke-width:1;stroke-linecap:round;stroke-linejoin:round"
       d="m 68.663967,134.25926 c -2.99069,0.50594 -6.03405,0.74426 -9.06716,0.76739 -1.77548,0.0135 -3.53843,-0.38908 -5.31384,-0.3682 -1.74444,0.0205 -3.47007,0.59362 -5.21122,0.48449 -2.66341,-0.16693 -5.16128,-1.99679 -7.81661,-1.73065 -1.59476,0.15984 -3.71513,0.49897 -4.39489,1.95043 -0.87399,1.86621 0.019,4.74235 1.69146,5.94628 1.61409,1.1619 3.97133,-0.27472 5.96012,-0.27321 1.62605,0.001 3.24852,0.15266 4.87269,0.23077 3.36707,0.16193 6.73079,0.41517 10.10084,0.49318 3.29075,0.0762 6.58494,-0.13085 9.87485,-0.0247 3.07256,0.0991 6.12836,0.55035 9.20178,0.61751 5.13137,0.11214 10.28501,0.13688 15.39361,-0.35886 2.72456,-0.26439 7.139083,1.17492 8.093473,-1.39068 1.23375,-3.31659 -3.447783,-6.91137 -6.744023,-8.19849 -2.79674,-1.09207 -5.924,1.40594 -8.92168,1.238 -2.63462,-0.1476 -5.03176,-1.95829 -7.67051,-1.95707 -3.45775,0.002 -6.63957,1.99704 -10.04889,2.57381 z m -36.7045,-1.54296 c -2.16639,-0.44941 -4.82298,2.37037 -4.80156,4.58278 0.0131,1.35205 2.1933,1.64937 2.988,2.74329 0.47293,0.651 0.19929,2.15567 1.00294,2.19573 1.85187,0.0923 2.68378,-2.95443 2.80279,-4.80477 0.10956,-1.7033 -0.32093,-4.37033 -1.99217,-4.71703 z"
       sodipodi:nodetypes="aaaaaaaaaaaaaaaaaaaaaaaa" />
    <path
       id="text2"
       style="font-size:7.76111px;line-height:1.25;font-family:Tibet;-inkscape-font-specification:Tibet;text-align:justify;letter-spacing:0px;word-spacing:0px;stroke-width:0.264583"
       d="m 77.884954,132.74687 c -0.06063,0 -0.185691,0.11369 -0.375171,0.34107 -1.04593,1.25562 -1.568897,2.37465 -1.568897,3.35742 v 3.62665 c 0,0.0783 0.05415,0.13246 0.162781,0.16278 h 0.03411 c 0.12632,0 0.189653,-0.078 0.189653,-0.23461 v -3.32383 h 1.614372 c 0.08084,0 0.13499,-0.0617 0.16278,-0.18552 -0.02779,-0.12379 -0.08194,-0.18552 -0.16278,-0.18552 h -1.591634 l -0.02274,-0.0114 c 0.04042,-0.50528 0.238573,-1.08239 0.594796,-1.73167 0.199585,-0.34865 0.492993,-0.75953 0.879533,-1.23197 0.202112,-0.19706 0.302823,-0.3297 0.302823,-0.39791 0,-0.10358 -0.06172,-0.16531 -0.185518,-0.18552 z m 2.736267,0 c -0.06063,0 -0.185691,0.11369 -0.375171,0.34107 -1.04593,1.25562 -1.568897,2.37465 -1.568897,3.35742 v 3.62665 c 0,0.0783 0.05415,0.13246 0.162781,0.16278 h 0.03411 c 0.12632,0 0.189652,-0.078 0.189652,-0.23461 v -3.32383 h 1.614372 c 0.08084,0 0.13499,-0.0617 0.162781,-0.18552 -0.02779,-0.12379 -0.08194,-0.18552 -0.162781,-0.18552 h -1.591634 l -0.02274,-0.0114 c 0.04042,-0.50528 0.238573,-1.08239 0.594796,-1.73167 0.199585,-0.34865 0.492477,-0.75953 0.879016,-1.23197 0.202112,-0.19706 0.303341,-0.3297 0.303341,-0.39791 0,-0.10358 -0.06172,-0.16531 -0.185519,-0.18552 z m 12.497945,0.17054 c -0.108635,0 -0.173059,0.0682 -0.19327,0.20463 v 6.91948 c 0.01769,0.12885 0.07832,0.19327 0.181901,0.19327 h 0.03411 c 0.0859,0 0.138953,-0.0606 0.159164,-0.1819 v -6.96495 c 0,-0.0783 -0.06063,-0.13516 -0.181901,-0.17053 z m 1.652095,0 c -0.108635,0 -0.173058,0.0682 -0.193269,0.20463 v 6.91948 c 0.01768,0.12885 0.07832,0.19327 0.181901,0.19327 h 0.03411 c 0.0859,0 0.138952,-0.0606 0.159163,-0.1819 v -6.96495 c 0,-0.0783 -0.06063,-0.13516 -0.181901,-0.17053 z m -63.149633,1.4211 c -0.111162,0.0278 -0.166915,0.0835 -0.166915,0.16691 v 0.0755 c 0.75792,1.13688 1.136881,2.24833 1.136881,3.33468 0,0.9095 -0.247416,1.82441 -0.74259,2.74402 -0.262746,0.41938 -0.394291,0.64136 -0.394291,0.66662 v 0.0455 c 0.02779,0.11116 0.08354,0.16692 0.166915,0.16692 h 0.04547 c 0.02779,0 0.05811,-0.0103 0.09095,-0.0305 0.808449,-1.17731 1.212329,-2.34451 1.212329,-3.5016 v -0.13642 c 0,-0.7074 -0.166743,-1.45992 -0.500227,-2.25826 -0.416856,-0.84888 -0.684311,-1.27331 -0.803052,-1.27331 z m -0.731739,0.45837 c -0.04295,0 -0.09819,0.033 -0.166398,0.0987 -0.0101,0.29306 -0.202285,0.65687 -0.576192,1.09141 -0.482542,0.47243 -0.945966,0.83624 -1.390613,1.0914 -0.373907,0.17938 -0.561206,0.31689 -0.561206,0.4129 v 0.0491 c 0.03032,0.12127 0.09095,0.1819 0.181901,0.1819 h 0.04961 c 0.277904,-0.11621 0.641707,-0.33061 1.091406,-0.64389 0.404224,-0.26022 0.795645,-0.6289 1.174605,-1.10639 h 0.01499 v 4.08089 c 0.03032,0.12126 0.09095,0.1819 0.181901,0.1819 h 0.04961 c 0.121267,-0.0303 0.181901,-0.0909 0.181901,-0.1819 v -5.07411 c -0.03032,-0.12127 -0.09095,-0.1819 -0.181901,-0.1819 z m 12.362036,0.008 c -0.07074,0 -0.131373,0.0493 -0.181901,0.14779 0,2.1626 -0.899746,3.63297 -2.698543,4.4111 -0.828659,0.29559 -1.458826,0.44339 -1.890841,0.44339 v -3.55482 c 0,-0.10611 -0.06712,-0.17163 -0.201021,-0.19689 -0.141478,0.0202 -0.211873,0.0808 -0.211873,0.1819 v 3.81579 c 0,0.10358 0.06063,0.16421 0.181901,0.1819 h 0.01499 c 0.646758,0 1.365694,-0.1478 2.156457,-0.44339 2.041332,-0.86908 3.061829,-2.44395 3.061829,-4.72529 v -0.0796 c -0.03032,-0.12127 -0.09095,-0.1819 -0.181901,-0.1819 z m 29.005465,0 c -0.636653,0 -1.211583,0.26906 -1.724442,0.80719 -0.626548,0.76297 -0.939478,1.5523 -0.939478,2.36833 0,0.36885 0.109899,0.74781 0.329696,1.13688 0.361275,0.74529 1.11759,1.11776 2.269629,1.11776 h 0.23151 c 0.795816,0 1.392967,-0.17053 1.792139,-0.5116 0.538123,-0.5457 0.807186,-1.12172 0.807186,-1.72806 0,-0.38401 -0.08716,-0.81063 -0.261483,-1.28054 -0.570967,-1.27331 -1.371666,-1.90996 -2.402438,-1.90996 z m 0.05323,0.41289 c 0.550755,0 1.049376,0.23496 1.496549,0.70487 0.525492,0.68213 0.788583,1.35668 0.788583,2.02365 v 0.1173 c 0,0.22991 -0.0774,0.4876 -0.231511,0.77308 -0.255166,0.65687 -0.939479,0.98547 -2.053621,0.98547 -0.795816,0 -1.355588,-0.15267 -1.678967,-0.45837 -0.406751,-0.44212 -0.610299,-0.87574 -0.610299,-1.30018 v -0.16639 c 0,-0.24506 0.06603,-0.5623 0.197404,-0.95137 0.480016,-1.15203 1.177305,-1.72806 2.091862,-1.72806 z m -16.33337,0.31471 c -0.106109,0 -0.170532,0.0644 -0.19327,0.19327 v 0.0377 c 0,0.10611 0.06442,0.17053 0.19327,0.19327 h 0.03772 c 0.106109,0 0.170532,-0.0644 0.19327,-0.19327 v -0.0377 c 0,-0.10611 -0.06442,-0.17053 -0.19327,-0.19327 z m 25.773104,0 c -0.106109,0 -0.170533,0.0644 -0.19327,0.19327 v 0.0377 c 0,0.10611 0.06442,0.17053 0.19327,0.19327 h 0.03772 c 0.106108,0 0.170532,-0.0644 0.193269,-0.19327 v -0.0377 c 0,-0.10611 -0.06442,-0.17053 -0.193269,-0.19327 z m 5.604826,0 c -0.106109,0 -0.170533,0.0644 -0.19327,0.19327 v 0.0377 c 0,0.10611 0.06442,0.17053 0.19327,0.19327 h 0.03772 c 0.106109,0 0.170533,-0.0644 0.19327,-0.19327 v -0.0377 c 0,-0.10611 -0.06442,-0.17053 -0.19327,-0.19327 z m -40.916366,0.82579 c -0.586125,0 -1.135619,0.12667 -1.648478,0.37931 -0.750341,0.42191 -1.125513,0.9319 -1.125513,1.53065 v 0.0568 c 0,0.3158 0.122359,0.63034 0.36742,0.94361 0.608862,0.64423 1.414959,0.96635 2.41794,0.96635 h 0.905888 c 0.123793,-0.0227 0.185518,-0.0807 0.185518,-0.17415 v -0.0114 c 0,-0.11116 -0.06551,-0.17558 -0.196887,-0.19327 H 46.45018 c -0.389066,0 -0.776697,-0.0655 -1.163237,-0.19689 -0.828659,-0.34864 -1.243335,-0.79742 -1.243335,-1.34565 v -0.0341 c 0,-0.26022 0.107717,-0.51251 0.322461,-0.75757 0.530544,-0.52297 1.221345,-0.78445 2.072742,-0.78445 h 0.04547 c 0.08337,0 0.186782,0.0227 0.310576,0.0682 0.24506,0.11369 0.367936,0.31293 0.367936,0.59841 0,0.1339 -0.05087,0.24541 -0.151929,0.33383 -0.346117,0.24506 -0.81333,0.36742 -1.401981,0.36742 -0.09853,0 -0.201941,-0.0189 -0.310576,-0.0568 -0.25264,-0.0884 -0.379305,-0.25247 -0.379305,-0.49248 -0.01263,-0.15411 -0.07436,-0.23151 -0.185518,-0.23151 -0.128847,0.0303 -0.19327,0.0888 -0.19327,0.17467 v 0.0341 c 0,0.12632 0.02653,0.26384 0.07958,0.4129 0.222323,0.36127 0.54444,0.54209 0.966349,0.54209 0.06569,0 0.161518,-0.004 0.287838,-0.0114 1.111616,-0.11117 1.667598,-0.46521 1.667598,-1.06144 v -0.0114 c 0,-0.15411 -0.03032,-0.30678 -0.09095,-0.45837 -0.212218,-0.39159 -0.538125,-0.58756 -0.977719,-0.58756 z m 1.929081,0 -0.06098,0.0114 c -0.07579,0.0354 -0.113688,0.11656 -0.113688,0.24288 v 3.36879 c 0.0076,0.16927 0.06603,0.25373 0.174666,0.25373 h 0.04548 c 0.07579,0 0.128846,-0.0531 0.159163,-0.15916 v -1.59887 c 0,-0.42191 0.09962,-0.7175 0.299206,-0.88677 0.159164,-0.14906 0.332395,-0.27193 0.519349,-0.36794 0.770552,-0.32338 1.597779,-0.48472 2.482019,-0.48472 0.138952,-0.0253 0.208256,-0.0859 0.208256,-0.1819 -0.02526,-0.13138 -0.08211,-0.19741 -0.170533,-0.19741 h -0.01499 c -0.717497,0 -1.437524,0.10772 -2.160075,0.32246 -0.416856,0.11622 -0.804487,0.3382 -1.163236,0.66663 v -0.82992 c 0,-0.0758 -0.05306,-0.12885 -0.159163,-0.15917 z m 6.748942,0 c -1.786165,0 -2.678906,0.39952 -2.678906,1.19786 v 0.0455 c 0,0.31074 0.278824,0.58578 0.837158,0.82579 0.606336,0.23243 0.909505,0.47875 0.909505,0.73897 0,0.096 -0.06063,0.18856 -0.181901,0.27699 -0.525491,0.27537 -1.273136,0.41289 -2.243273,0.41289 -0.131373,0.0177 -0.196888,0.0783 -0.196888,0.1819 v 0.0377 c 0,0.0758 0.05306,0.12884 0.159164,0.15916 0.586125,0 1.173515,-0.0617 1.762166,-0.18552 0.720024,-0.19706 1.080037,-0.48019 1.080037,-0.84904 0,-0.39917 -0.260392,-0.72129 -0.78083,-0.96635 -0.644233,-0.25517 -0.96635,-0.46957 -0.96635,-0.64389 v -0.0455 c 0,-0.0707 0.02274,-0.15571 0.06821,-0.25424 0.277904,-0.36886 1.025549,-0.55294 2.243274,-0.55294 h 0.07958 c 0.15411,-0.0152 0.23151,-0.072 0.23151,-0.17053 -0.01263,-0.13896 -0.07487,-0.20878 -0.186035,-0.20878 z m 3.687631,0 c -0.54065,0 -1.004591,0.24145 -1.39113,0.72399 -0.361275,0.51033 -0.541569,1.02463 -0.541569,1.54254 0,0.24759 0.06551,0.49231 0.196887,0.73484 0.255167,0.5836 0.807359,0.8754 1.65623,0.8754 h 0.170532 c 0.563387,0 0.996494,-0.12615 1.299662,-0.37879 0.368855,-0.39664 0.553455,-0.79943 0.553455,-1.20871 0,-0.29054 -0.05845,-0.58992 -0.174666,-0.89814 -0.396645,-0.92719 -0.982428,-1.39113 -1.758033,-1.39113 z m 2.899047,0 c -0.09348,0 -0.146531,0.0888 -0.159163,0.26562 v 3.34605 c 0.0076,0.17685 0.06551,0.2651 0.17415,0.2651 h 0.04547 c 0.106109,-0.0278 0.159163,-0.0857 0.159163,-0.17415 v -1.34514 c 0,-0.36633 0.01137,-0.64567 0.03411,-0.83767 0.111161,-0.76045 0.326078,-1.1405 0.644405,-1.1405 h 0.01137 c 0.159163,0 0.416857,0.21061 0.773079,0.63252 0.502754,0.66697 1.007863,1.47685 1.51567,2.42931 0.118741,0.29053 0.222151,0.43563 0.310575,0.43563 h 0.04961 c 0.0859,0 0.142742,-0.0617 0.170533,-0.18552 0,-0.0303 -0.02274,-0.0872 -0.06821,-0.17053 -1.230357,-2.34703 -2.139864,-3.52072 -2.728516,-3.52072 h -0.02274 c -0.265272,0 -0.495348,0.12667 -0.689881,0.37931 v -0.22014 c 0,-0.0859 -0.06063,-0.13896 -0.181901,-0.15917 z m 22.794475,0 c -0.293063,0 -0.600022,0.085 -0.920874,0.25425 -0.629074,0.43707 -0.943612,0.99632 -0.943612,1.67845 0,0.60634 0.356224,1.08544 1.068669,1.43661 0.800869,0.33853 1.674662,0.50746 2.622062,0.50746 h 0.02687 c 0.106108,-0.0278 0.159163,-0.0857 0.159163,-0.17415 v -0.0455 c 0,-0.0808 -0.06224,-0.1339 -0.186035,-0.15916 -0.386539,0 -0.823436,-0.0428 -1.311031,-0.12867 -1.33394,-0.25517 -2.000912,-0.73427 -2.000912,-1.43661 0,-0.42949 0.169442,-0.81712 0.50798,-1.16324 0.323379,-0.25264 0.598413,-0.37878 0.825789,-0.37878 0.245061,0 0.367936,-0.0644 0.367936,-0.19327 v -0.0382 c 0,-0.0859 -0.06063,-0.13896 -0.181901,-0.15917 z m 6.491593,0 c -0.586125,0 -1.135619,0.12667 -1.648478,0.37931 -0.750341,0.42191 -1.125513,0.9319 -1.125513,1.53065 v 0.0568 c 0,0.3158 0.122359,0.63034 0.36742,0.94361 0.608862,0.64423 1.414959,0.96635 2.41794,0.96635 h 0.905371 c 0.123794,-0.0227 0.186035,-0.0807 0.186035,-0.17415 v -0.0114 c 0,-0.11116 -0.06603,-0.17558 -0.197404,-0.19327 h -0.894002 c -0.389066,0 -0.777214,-0.0655 -1.163753,-0.19689 -0.82866,-0.34864 -1.242819,-0.79742 -1.242819,-1.34565 v -0.0341 c 0,-0.26022 0.107201,-0.51251 0.321945,-0.75757 0.530544,-0.52297 1.221861,-0.78445 2.073258,-0.78445 h 0.04547 c 0.08337,0 0.186782,0.0227 0.310576,0.0682 0.245061,0.11369 0.367419,0.31293 0.367419,0.59841 0,0.1339 -0.05036,0.24541 -0.151412,0.33383 -0.346117,0.24506 -0.81333,0.36742 -1.401981,0.36742 -0.09853,0 -0.202457,-0.0189 -0.311093,-0.0568 -0.25264,-0.0884 -0.378788,-0.25247 -0.378788,-0.49248 -0.01263,-0.15411 -0.07436,-0.23151 -0.185518,-0.23151 -0.128847,0.0303 -0.19327,0.0888 -0.19327,0.17467 v 0.0341 c 0,0.12632 0.02653,0.26384 0.07958,0.4129 0.222323,0.36127 0.54444,0.54209 0.966349,0.54209 0.06569,0 0.161518,-0.004 0.287838,-0.0114 1.111616,-0.11117 1.667598,-0.46521 1.667598,-1.06144 v -0.0114 c 0,-0.15411 -0.03032,-0.30678 -0.09095,-0.45837 -0.212218,-0.39159 -0.538125,-0.58756 -0.977718,-0.58756 z m 7.522022,0 c -0.586125,0 -1.135619,0.12667 -1.648479,0.37931 -0.750341,0.42191 -1.125512,0.9319 -1.125512,1.53065 v 0.0568 c 0,0.3158 0.122875,0.63034 0.367936,0.94361 0.608862,0.64423 1.414442,0.96635 2.417423,0.96635 h 0.905888 c 0.123794,-0.0227 0.185519,-0.0807 0.185519,-0.17415 v -0.0114 c 0,-0.11116 -0.06552,-0.17558 -0.196888,-0.19327 H 98.52297 c -0.389065,0 -0.776697,-0.0655 -1.163236,-0.19689 -0.828659,-0.34864 -1.242818,-0.79742 -1.242818,-1.34565 v -0.0341 c 0,-0.26022 0.1072,-0.51251 0.321944,-0.75757 0.530544,-0.52297 1.221345,-0.78445 2.072742,-0.78445 h 0.04548 c 0.08337,0 0.187298,0.0227 0.311092,0.0682 0.245061,0.11369 0.367419,0.31293 0.367419,0.59841 0,0.1339 -0.05036,0.24541 -0.151412,0.33383 -0.346116,0.24506 -0.813847,0.36742 -1.402498,0.36742 -0.09853,0 -0.20194,-0.0189 -0.310575,-0.0568 -0.25264,-0.0884 -0.378789,-0.25247 -0.378789,-0.49248 -0.01263,-0.15411 -0.07487,-0.23151 -0.186035,-0.23151 -0.128846,0.0303 -0.19327,0.0888 -0.19327,0.17467 v 0.0341 c 0,0.12632 0.02653,0.26384 0.07958,0.4129 0.222323,0.36127 0.544441,0.54209 0.966349,0.54209 0.06569,0 0.162035,-0.004 0.288355,-0.0114 1.111616,-0.11117 1.667082,-0.46521 1.667082,-1.06144 v -0.0114 c 0,-0.15411 -0.03032,-0.30678 -0.09095,-0.45837 -0.212218,-0.39159 -0.538124,-0.58756 -0.977718,-0.58756 z m -42.545724,0.0114 c -0.07579,0 -0.128847,0.0531 -0.159163,0.15916 v 3.54708 c 0,0.0758 0.05305,0.12884 0.159163,0.15916 h 0.04909 c 0.101056,0 0.1579,-0.0807 0.170532,-0.24236 v -3.39566 c 0,-0.1339 -0.05684,-0.20969 -0.170532,-0.22738 z m 25.773104,0 c -0.07579,0 -0.128847,0.0531 -0.159163,0.15916 v 3.54708 c 0,0.0758 0.05305,0.12884 0.159163,0.15916 h 0.04909 c 0.101056,0 0.1579,-0.0807 0.170532,-0.24236 v -3.39566 c 0,-0.1339 -0.05684,-0.20969 -0.170532,-0.22738 z m 5.604826,0 c -0.07579,0 -0.128847,0.0531 -0.159164,0.15916 v 3.54708 c 0,0.0758 0.05306,0.12884 0.159164,0.15916 h 0.04909 c 0.101056,0 0.157901,-0.0807 0.170533,-0.24236 v -3.39566 c 0,-0.1339 -0.05685,-0.20969 -0.170533,-0.22738 z m -28.539343,0.36794 c 0.401697,0 0.746552,0.16513 1.034562,0.49609 0.353696,0.45475 0.5302,0.91869 0.5302,1.39113 v 0.0114 c 0,0.17685 -0.05036,0.35714 -0.151412,0.54157 -0.169269,0.45222 -0.617534,0.67851 -1.345138,0.67851 h -0.12506 c -0.490121,0 -0.847953,-0.0958 -1.072802,-0.28784 -0.282957,-0.30822 -0.424264,-0.61897 -0.424264,-0.93224 v -0.0114 c 0,-0.21222 0.04278,-0.43471 0.128675,-0.66714 0.310747,-0.8135 0.786056,-1.22008 1.425236,-1.22008 z" />
  </g>
</svg>
