<?xml version="1.0" encoding="UTF-8" standalone="no"?>
<!-- Created with Inkscape (http://www.inkscape.org/) -->

<svg
   width="275.42899"
   height="68.671722"
   viewBox="0 0 72.873914 18.169393"
   version="1.1"
   id="svg1"
   inkscape:version="1.3.2 (091e20ef0f, 2023-11-25, custom)"
   sodipodi:docname="arrimage.svg"
   xmlns:inkscape="http://www.inkscape.org/namespaces/inkscape"
   xmlns:sodipodi="http://sodipodi.sourceforge.net/DTD/sodipodi-0.dtd"
   xmlns="http://www.w3.org/2000/svg"
   xmlns:svg="http://www.w3.org/2000/svg">
  <sodipodi:namedview
     id="namedview1"
     pagecolor="#ffffff"
     bordercolor="#666666"
     borderopacity="1.0"
     inkscape:showpageshadow="2"
     inkscape:pageopacity="0.0"
     inkscape:pagecheckerboard="0"
     inkscape:deskcolor="#d1d1d1"
     inkscape:document-units="mm"
     inkscape:zoom="0.49320318"
     inkscape:cx="306.16185"
     inkscape:cy="171.32898"
     inkscape:window-width="956"
     inkscape:window-height="1029"
     inkscape:window-x="960"
     inkscape:window-y="0"
     inkscape:window-maximized="1"
     inkscape:current-layer="layer1"
     showgrid="false" />
  <defs
     id="defs1">
    <style
       transform="translate(-130.185, 41.1648)"
       id="style111"><![CDATA[
polygon {
shape-rendering:crispEdges;
stroke-width:0.098900;
}
.s0 {
stroke:#000000;
stroke-width:0.080355;
stroke-linecap:round;
stroke-linejoin:round;
fill:none;
}
.s1 {
stroke:#000000;
stroke-width:0.080355;
stroke-linecap:round;
stroke-linejoin:round;
fill:none;
}
.s2 {
stroke:#19b219;
stroke-width:0.080355;
stroke-linecap:round;
stroke-linejoin:round;
fill:none;
}
.s3 {
stroke:#7f4c00;
stroke-width:0.080355;
stroke-linecap:round;
stroke-linejoin:round;
fill:none;
}
.s4 {
stroke:#00cc00;
stroke-width:0.080355;
stroke-linecap:round;
stroke-linejoin:round;
fill:none;
}
.s5 {
stroke:#000000;
stroke-width:0.053570;
stroke-linecap:round;
stroke-linejoin:round;
fill:none;
}
.s6 {
stroke:#ff19ff;
stroke-width:0.053570;
stroke-linecap:round;
stroke-linejoin:round;
fill:none;
}
.s7 {
stroke:#ff0000;
stroke-width:0.080355;
stroke-linecap:round;
stroke-linejoin:round;
fill:none;
}
.s8 {
stroke:#ffff00;
stroke-width:0.080355;
stroke-linecap:round;
stroke-linejoin:round;
fill:none;
}
.s9 {
stroke:#001919;
stroke-width:0.053570;
stroke-linecap:round;
stroke-linejoin:round;
fill:none;
}
.sa {
stroke:#006666;
stroke-width:0.053570;
stroke-linecap:round;
stroke-linejoin:round;
fill:none;
}
.sb {
stroke:#00ffff;
stroke-width:0.160711;
stroke-linecap:round;
stroke-linejoin:round;
fill:none;
}
.sc {
stroke:#ff0000;
stroke-width:0.428562;
stroke-linecap:round;
stroke-linejoin:round;
fill:none;
}
.sd {
stroke:#191919;
stroke-width:0.053570;
stroke-linecap:round;
stroke-linejoin:round;
fill:none;
}
.se {
stroke:#000000;
stroke-width:0.053570;
stroke-linecap:round;
stroke-linejoin:round;
stroke-dasharray:0.804,0.804;
fill:none;
}
.sf {
stroke:#000000;
stroke-width:0.160711;
stroke-linecap:round;
stroke-linejoin:round;
fill:none;
}
.s100 {
stroke:#ff0000;
stroke-width:0.500000;
stroke-linecap:round;
stroke-linejoin:round;
fill:none;
}
]]></style>
  </defs>
  <g
     inkscape:label="Layer 1"
     inkscape:groupmode="layer"
     id="layer1"
     transform="translate(-25.394572,-128.26123)">
    <path
       style="fill:#fff6e5;fill-opacity:1;stroke:none;stroke-width:0.2;stroke-linecap:round;stroke-linejoin:round;stroke-dasharray:none"
       d="m 96.123585,145.02971 c -1.982287,1.8484 -5.333967,1.29628 -8.042507,1.19688 -1.935401,-0.071 -4.070551,-0.18017 -5.668676,-1.27416 -1.434991,-0.98232 -2.492144,-2.64269 -2.908334,-4.33116 -0.69637,-2.82516 -0.514611,-6.15875 0.940839,-8.67829 0.983034,-1.70174 2.838589,-3.06631 4.760078,-3.47881 2.831963,-0.60796 6.087223,0.19619 8.501853,1.79595 2.096417,1.38894 3.825297,3.72243 4.313937,6.18929 0.569159,2.87335 0.24514,6.58266 -1.89719,8.5803 z"
       id="path2"
       sodipodi:nodetypes="aaaaaaaaa" />
    <path
       id="path277"
       style="fill:#ffe6b3;fill-opacity:1;stroke:none;stroke-width:0.2;stroke-linecap:round;stroke-linejoin:round;stroke-dasharray:none;stroke-opacity:1"
       d="m 88.098075,129.0689 c -0.0261,-0.005 -0.0581,0.008 -0.0925,0.0512 -0.0351,0.0442 -0.003,0.0964 0.0724,0.15761 -0.0117,0.005 -0.0117,0.007 0.006,0.004 -0.72151,0.20654 -3.12644,0.45608 -4.07934,1.97094 -0.953405,1.51566 -1.895387,3.59843 -1.899621,5.3759 -0.0042,1.77746 -0.166378,3.46903 0.445967,4.81986 0.612346,1.35083 1.974904,0.67429 2.973984,0.79116 0.99907,0.11687 1.99331,-0.81454 2.5585,0.15769 0.5652,0.97222 0.92683,2.04149 2.47395,1.57215 1.54713,-0.46933 0.98953,0.27089 2.34983,-0.27853 1.360291,-0.54942 3.074831,-1.26948 2.384911,-2.00025 -0.33987,-0.36001 -0.22344,-1.0203 -0.006,-1.89909 0.25479,-1.02809 0.08,-1.737 -0.19674,-2.52376 -0.27678,-0.78676 -1.374001,-0.74514 -1.890321,-1.62884 -0.51633,-0.8837 -0.27074,-1.74757 -0.19947,-2.64842 0.0713,-0.90084 -0.486,-0.8409 -1.40095,-0.87694 -0.91495,-0.036 -1.69974,-1.53764 -2.27687,-2.03244 -0.4266,-0.36575 -1.01436,-0.62116 -1.23765,-0.79943 0.001,-1.7e-4 -2.5e-4,2e-4 0.001,0 0.52737,-0.15132 0.19999,-0.0682 0.0475,-0.0222 0.0588,-0.0528 0.0303,-0.17789 -0.0346,-0.19069 z"
       sodipodi:nodetypes="ccccscsssssssssscsccccc" />
    <path
       id="path278"
       style="fill:#ffdd99;fill-opacity:1;stroke:none;stroke-width:0.2;stroke-linecap:round;stroke-linejoin:round;stroke-dasharray:none;stroke-opacity:1"
       d="m 87.306916,129.41352 c -0.33805,-0.0196 -1.24789,0.32774 -1.849181,0.62752 -0.60128,0.29978 -1.2506,0.52308 -1.61772,1.19564 -0.36712,0.67256 -1.047526,1.2977 -1.385585,1.97967 -0.338059,0.68197 -0.897771,1.56492 -0.450494,2.04733 0.447277,0.48241 0.664813,0.85983 0.368859,1.29098 -0.295954,0.43115 -0.25447,0.96427 -0.455041,1.58449 -0.200571,0.62022 0.05194,1.52739 0.396376,2.17482 0.344439,0.64743 0.625392,1.24723 1.164655,1.82721 0.53926,0.57998 1.57218,0.3284 2.25985,0.18327 0.68767,-0.14513 1.79682,-1.02548 1.37556,-1.57182 -0.42126,-0.54634 -1.17142,0.0134 -1.5477,0.46123 -0.37627,0.44781 -0.44772,0.31994 -1.12354,0.0742 -0.67582,-0.24574 -1.00325,-1.04352 -1.241777,-1.64845 -0.23853,-0.60493 -0.726115,-1.18967 -0.396503,-1.71709 0.329612,-0.52742 0.316086,-0.94679 0.333703,-1.56941 0.01762,-0.62262 0.05089,-1.51779 0.194077,-2.02469 0.14319,-0.5069 0.50118,0.35879 0.86141,0.713 0.36023,0.35421 0.88985,0.92528 0.70306,1.49603 -0.18678,0.57075 -0.22757,1.35501 -0.52012,0.83934 -0.29254,-0.51567 0.0652,-1.83706 -0.60639,-1.74718 -0.671585,0.0899 -0.564754,0.97404 -0.45207,1.58912 0.11269,0.61508 0.73275,0.82324 1.22829,1.28386 0.49553,0.46062 1.13532,1.75832 1.62545,1.26714 0.49012,-0.49118 0.5624,0.44964 0.5285,-0.0767 -0.0339,-0.52634 -0.17799,-0.0869 -0.45857,-0.42779 -0.28058,-0.34093 -0.58783,-1.37426 -0.43483,-1.92925 0.153,-0.55499 -0.23312,-0.97242 0.61547,-0.82115 0.8486,0.15127 2.28161,-0.11019 2.93523,-0.49299 0.65361,-0.3828 1.1639,0.33562 1.67435,-0.1216 0.51046,-0.45722 -0.0647,-0.58598 -0.45014,-0.78592 -0.38542,-0.19994 -0.53168,0.52174 -0.91984,0.16471 -0.38816,-0.35703 -0.3533,-1.14492 -0.9467,-1.41333 -0.59341,-0.26841 -1.39302,0.20373 -0.88883,0.67485 0.50419,0.47112 -0.79828,0.4352 -1.21338,0.60435 -0.41509,0.16915 -1.03952,0.7767 -0.97283,0.0757 0.0667,-0.701 -0.75521,-1.27093 -0.73264,-1.56757 0.0226,-0.29664 0.86933,-0.76557 0.6245,-0.26468 -0.24483,0.50089 0.4006,0.77884 0.80038,1.19708 0.39978,0.41824 1.04133,-0.71879 0.71158,-1.06609 -0.32975,-0.3473 -0.88266,-0.49261 -0.22108,-0.43449 0.66158,0.0581 1.13934,-0.31549 1.74304,-0.15616 0.60369,0.15933 1.14222,0.96039 1.21152,1.59984 0.0693,0.63945 1.22758,0.68031 1.04413,-0.12175 -0.18345,-0.80206 -0.68789,-1.59136 -1.12087,-1.91676 -0.43297,-0.3254 -0.2397,-0.47548 -0.58103,-0.5424 -0.34132,-0.0669 -0.91351,0.30577 -1.53726,0.31364 -0.62374,0.008 -1.6879,0.0523 -2.0624,0.2462 -0.3745,0.19391 -0.52213,0.19296 -0.94051,0.30987 -0.41837,0.11691 -1.14379,1.36485 -1.111,0.93035 0.0328,-0.4345 0.43896,-1.67283 1.05217,-2.08126 0.61321,-0.40843 0.76031,-1.14063 1.48005,-1.02016 0.71975,0.12047 1.29471,-0.57221 1.92074,-0.4515 0.62602,0.12071 1.02175,0.23051 1.4262,0.77632 0.40445,0.54581 0.53576,0.95452 0.96484,1.47494 0.42908,0.52042 0.84721,1.43348 1.02471,1.83158 0.1775,0.3981 -0.68628,0.1763 -0.37256,0.63362 0.31373,0.45732 0.32935,1.3318 1.07824,1.34907 0.74889,0.0173 -0.0781,-1.46572 0.13508,-1.17584 0.21324,0.28988 0.8208,0.60331 0.8034,-0.007 -0.0174,-0.61031 -0.26274,-0.41059 -0.68614,-0.92841 -0.4234,-0.51782 -0.47576,-1.39515 -0.97301,-1.84588 -0.49725,-0.45073 -0.5832,-0.97791 -1.09916,-1.45579 -0.51597,-0.47788 -1.28143,-1.36965 -1.68905,-1.38888 -0.40763,-0.0192 -0.88942,-0.0253 -1.22747,-0.045 z m -1.54668,4.11965 c 0.20153,0.0599 -0.20152,-0.0599 0,0 z m -1.25109,0.31161 c 0.1092,0.20853 -0.10919,-0.20853 0,0 z m 1.7322,0.0114 c 0.0466,-0.0174 -0.0466,0.0174 0,0 z m 6.8833,2.09445 c -0.10787,0.0685 -0.0993,0.69698 -0.48008,0.60894 -0.38081,-0.088 -0.17447,-0.04 -0.70798,-0.0235 -0.53352,0.0165 -0.11126,0.39776 0.36484,0.72036 0.47609,0.3226 -0.79777,0.19387 -0.59596,0.39941 0.201809,0.20554 0.0893,0.55139 -0.13627,0.15285 -0.22559,-0.39854 -1.04041,0.19669 -0.48994,0.63871 0.55047,0.44202 1.38521,0.30377 1.347729,-0.41438 -0.0375,-0.71815 1.364981,1.04631 1.48105,0.50908 0.116061,-0.53723 -0.363159,-0.2445 -0.0274,-0.36481 0.335762,-0.12031 -0.30941,-1.03708 -0.0832,-0.49657 0.226201,0.54051 0.260761,1.62063 0.864701,1.24083 0.60393,-0.3798 -0.13669,-1.20403 -0.38003,-1.68052 -0.24334,-0.47649 -0.791681,-1.2925 -1.157571,-1.29053 -0.3659,0.002 0.10797,-0.0684 1e-4,1.3e-4 z m -1.96267,0.17622 c -0.23572,0.12519 -1.11694,-0.0371 -1.52657,0.20832 -0.409631,0.24547 -1.01189,0.007 -1.151301,0.43096 -0.13942,0.42424 -1.043059,0.35549 -1.164,1.06429 -0.12093,0.7088 0.19891,1.32455 -0.0318,1.9775 -0.23075,0.65295 0.48798,1.33204 0.78412,1.91438 0.29613,0.58234 0.90735,0.2186 0.61632,-0.38999 -0.29103,-0.60859 -0.72709,-1.41191 -0.43006,-1.87272 0.297021,-0.46081 -0.0545,-0.85147 0.40379,-0.33466 0.45827,0.51681 0.887141,-0.272 0.64563,-0.78169 -0.2415,-0.50969 -0.71702,-1.09709 -0.14045,-1.05987 0.576581,0.0372 0.10472,0.0976 0.12977,0.30385 0.0251,0.20625 0.75489,0.51214 0.35502,0.89499 -0.39986,0.38285 0.84637,0.54552 0.2181,0.85699 -0.62828,0.31147 -0.71083,0.88373 -0.70258,1.53853 0.008,0.6548 -0.37761,1.55489 -0.0565,2.16248 0.32106,0.60759 1.3104,0.66578 1.04128,0.007 -0.26912,-0.65878 -0.38568,-0.94148 -0.28209,-1.52698 0.10359,-0.5855 -0.0962,-1.26897 0.5165,-1.35243 0.61268,-0.0835 1.8716,0.31501 2.43917,0.003 0.56757,-0.31201 0.86328,-0.27969 1.310621,-0.51349 0.44733,-0.2338 -0.063,-0.63018 -0.456771,-0.5596 -0.39376,0.0706 -1.22913,-0.28052 -1.76014,-0.32555 -0.53102,-0.045 -1.01043,0.41446 -0.95491,-0.28123 0.0555,-0.69569 -0.54122,-0.7587 -0.816,-1.0805 -0.27478,-0.3218 -0.62187,-0.48175 -0.0995,-0.4396 0.52238,0.0421 1.39241,-0.36636 1.23501,-0.68088 -0.1574,-0.31452 -0.0753,-0.18343 -0.12259,-0.16328 -0.0473,0.0202 0.23571,-0.12501 0,1.8e-4 z m 1.90841,0.52296 c 0.36331,-0.21108 0.62103,0.81596 0.27251,0.42604 -0.34852,-0.38992 -0.63582,-0.21496 -0.27251,-0.42604 z m -4.98574,0.5085 c 0.20827,-0.12372 -0.20828,0.12372 0,0 z m -0.14728,0.13953 c 0.24803,0.0223 -0.24803,-0.0223 0,0 z m 2.4939,0.78444 c 0.28291,-0.0512 -0.2829,0.0512 0,0 z m 0.28991,0.14987 0.0796,0.0289 z m 0.90175,0.15141 c 0.0121,0.0307 -0.0121,-0.0307 0,0 z m -0.85421,0.33486 c 0.18937,0.18644 -0.18937,-0.18644 0,0 z m -2.85305,0.85369 0.01,0.009 z m -0.0651,0.35502 c 0.21506,0.0729 -0.21507,-0.0729 0,0 z m 6.726721,0.15762 c -0.663171,-0.10558 -0.43647,0.90192 -0.37095,1.33952 0.0655,0.4376 0.2573,0.72856 -0.311381,0.88703 -0.56869,0.15847 -1.12782,-0.0859 -1.62199,0.11575 -0.49417,0.2017 -1.38415,0.26669 -1.217,0.85587 0.16714,0.58918 1.11632,0.40419 1.66546,0.32967 0.54914,-0.0745 1.18276,-0.43151 1.270291,-0.82281 0.0875,-0.3913 -0.343201,0.30842 0.18348,0.1108 0.52668,-0.19762 0.96447,-0.69934 0.80923,-1.27126 -0.15524,-0.57192 0.25603,-1.43899 -0.40714,-1.54457 z m -0.0119,0.006 c 0.24198,0.1 -0.14599,0.26907 -0.24546,0.0733 -0.0995,-0.19577 0.003,-0.1733 0.24546,-0.0733 z"
       sodipodi:nodetypes="zzzzzzzzzzzzzzzzzzzzzzzzzzzzzzzzzzzzzzzzzzzzzzzzzzzzzzzzzzzzzzzzzzzzzzzzzzzzzzzzzzzzzzzzzzzzzzzzzzzzzzzzzzzzzzzzzzzzzzzzzzzzzzzzzzzzzzzzzzzzzzzzzzzzz" />
    <path
       id="path305"
       style="fill:#ffd580;fill-opacity:1;stroke:none;stroke-width:0.2;stroke-linecap:round;stroke-linejoin:round;stroke-dasharray:none;stroke-opacity:1"
       d="m 86.814955,129.58819 c -0.90821,-0.54534 -1.01945,1.20039 -0.0751,0.81416 0.79382,-0.32464 1.65856,0.13083 2.31942,0.56647 0.68423,0.45105 0.90216,1.57355 1.63012,1.72292 1.03416,0.2122 0.49814,-1.06335 0.0676,-1.50409 -0.55521,-0.5683 -1.23571,-0.83564 -1.91428,-1.15454 -0.63989,-0.30072 -1.31986,-0.47776 -2.02777,-0.44492 z m 2.79001,1.4149 c -0.0163,0.0658 0.011,-0.0443 0,0 z m -3.22565,1.91874 c -0.86596,0.0713 -0.87804,1.02638 -0.27223,1.49933 0.75384,0.58851 0.93661,-0.26461 0.92772,-0.8607 -0.006,-0.39706 -0.27639,-0.66983 -0.65549,-0.63863 z m 2.04432,0.5178 c -0.8348,-0.0487 -0.81869,1.03532 -0.34687,1.50144 0.55198,0.54531 1.42704,-0.21256 1.1531,-0.84375 -0.14284,-0.32912 -0.43794,-0.6362 -0.80623,-0.65769 z m 3.74189,0.51573 c -0.75742,-0.15285 -1.32614,0.60427 -1.24737,1.41377 0.0758,0.77887 1.0032,1.47701 0.60369,2.11621 -0.51281,0.8205 -1.39565,-0.14832 -1.99552,-0.39964 -0.86977,-0.3644 -0.95821,0.82363 -0.35646,1.34437 1.06997,0.92594 2.5235,1.59302 3.85538,0.9866 0.84136,-0.38308 1.319301,0.63365 1.150651,1.3694 -0.18158,0.79216 -0.722331,1.62956 -1.643691,1.60103 -1.11462,-0.0345 -2.96947,-0.76753 -3.33482,0.28815 -0.39764,1.14899 2.05352,0.9993 3.11854,0.82891 1.03938,-0.16628 2.178061,-0.006 3.109691,-0.58989 0.79284,-0.49711 -0.2086,-1.10886 -0.15493,-1.65396 0.10138,-1.02964 0.61255,-2.09803 0.31172,-3.08782 -0.20899,-0.68765 -1.41047,0.0776 -1.925941,-0.3761 -0.3404,-0.2996 -0.14166,-0.66232 -0.61137,-0.97312 -0.77316,-0.51158 -1.0186,-1.69362 -0.76556,-2.57105 0.0673,-0.23332 0.0534,-0.26308 -0.11401,-0.29686 z m -3.94136,0.10387 c 0.19525,-0.3402 -0.2091,0.36434 0,0 z m -6.105051,1.06919 c -0.844294,-0.0435 -0.315877,1.3878 0.522672,1.41191 0.872889,0.0251 1.016159,-1.33265 0.329092,-1.36804 z m 1.519291,0.29094 c -0.810402,0.24865 -0.21993,1.65802 0.21041,2.29392 0.5616,0.82984 1.16259,-0.3252 0.72852,-0.94606 -0.31655,-0.45276 -0.41286,-1.50927 -0.93893,-1.34786 z m 1.76991,0.51986 c 0,-1.0627 -0.58568,2.15852 -0.10261,3.12303 0.24055,0.4803 0.79542,0.71759 0.7846,-0.0459 -0.0147,-1.03983 -0.68199,-1.92441 -0.68199,-3.07709 z m 0.37259,0.18862 0.005,0.006 z m 6.75928,0.61908 c 0.0632,0.13042 -0.0755,-0.15569 0,0 z m -9.912575,0.47078 c -0.930519,-0.40081 -1.143412,1.48581 -0.923669,2.34646 0.246856,0.96684 0.699833,2.03324 1.665774,2.46877 0.75097,0.3386 1.71101,0.60861 2.45488,0.14456 0.47067,-0.29361 0.49203,-0.90831 -0.23992,-0.81593 -1.14641,0.14468 -2.44668,-0.65505 -2.708041,-1.87468 -0.160198,-0.74756 0.450171,-1.96801 -0.249024,-2.26918 z m 9.657295,0.42736 c 0.79806,-0.29304 -0.87047,0.31962 0,0 z m -1.58285,0.55604 c 0.58982,-0.0936 0.0823,0.89129 -0.0313,0.30524 -0.0196,-0.10116 -0.0699,-0.28919 0.0313,-0.30524 z"
       sodipodi:nodetypes="ssssssssssssssssssssssssssssssssssssssssssssssssssssssssssssssssss" />
    <path
       style="fill:none;stroke:#1a1a1a;stroke-width:0.2;stroke-linecap:round;stroke-linejoin:round;stroke-dasharray:none"
       d="m 89.058796,142.69939 -0.750991,-1.19195 -0.21227,-0.35728 c 0,0 -0.16414,-0.3232 -0.192049,-0.44271 -0.0306,-0.13101 -0.0454,-0.22686 -0.0531,-0.32197 l -0.0333,-0.38718 0.0175,-2.32083"
       id="path323330-6"
       sodipodi:nodetypes="cccsccc" />
    <path
       style="fill:none;stroke:#1a1a1a;stroke-width:0.2;stroke-linecap:round;stroke-linejoin:round;stroke-dasharray:none"
       d="m 89.253535,139.59976 c -0.32792,-0.71407 -0.737179,-1.39953 -1.00803,-2.1344 -0.033,-0.52873 0.53815,-0.74355 0.9825,-0.80011 0.71537,-0.091 1.42623,-0.21273 2.13819,-0.32662"
       id="path323340-3"
       sodipodi:nodetypes="ccss" />
    <path
       style="fill:none;stroke:#1a1a1a;stroke-width:0.2;stroke-linecap:round;stroke-linejoin:round;stroke-dasharray:none"
       d="m 89.284655,137.57448 c -0.134439,-0.0114 -0.29325,-0.0241 -0.385819,-0.12116 -0.0733,-0.0769 -0.11847,-0.20902 -0.0789,-0.30711 0.0492,-0.12186 0.20724,-0.18108 0.33668,-0.21 0.18006,-0.0402 0.3945,-0.0338 0.54996,0.0646 0.0915,0.058 0.17674,0.1677 0.17034,0.27498 -0.006,0.10357 -0.10386,0.19283 -0.194909,0.24439 -0.116021,0.0657 -0.264121,0.0655 -0.397361,0.0543 z"
       id="path323342-7"
       sodipodi:nodetypes="aaaaaaaa" />
    <path
       style="fill:none;stroke:#1a1a1a;stroke-width:0.2;stroke-linecap:round;stroke-linejoin:round;stroke-dasharray:none"
       d="m 90.026535,137.78419 0.0658,0.17207 -0.328,0.1069 -0.13626,-0.1572"
       id="path323344-2"
       sodipodi:nodetypes="cccc" />
    <path
       style="fill:none;stroke:#1a1a1a;stroke-width:0.2;stroke-linecap:round;stroke-linejoin:round;stroke-dasharray:none"
       d="m 93.241545,138.39478 c -0.134439,-0.0114 -0.293239,-0.0241 -0.385819,-0.12116 -0.0733,-0.0769 -0.11846,-0.20902 -0.0789,-0.30711 0.0492,-0.12186 0.20724,-0.18108 0.336681,-0.20999 0.180059,-0.0402 0.394499,-0.0338 0.549959,0.0646 0.0915,0.058 0.17675,0.16769 0.17034,0.27498 -0.006,0.10358 -0.103849,0.19284 -0.194909,0.2444 -0.116021,0.0657 -0.264121,0.0655 -0.397361,0.0542 z"
       id="path323362-5"
       sodipodi:nodetypes="aaaaaaaa" />
    <path
       style="fill:none;stroke:#1a1a1a;stroke-width:0.2;stroke-linecap:round;stroke-linejoin:round;stroke-dasharray:none"
       d="m 93.983426,138.60448 0.0658,0.17209 -0.328001,0.10689 -0.13625,-0.15721"
       id="path323364-2"
       sodipodi:nodetypes="cccc" />
    <path
       style="fill:none;stroke:#1a1a1a;stroke-width:0.2;stroke-linecap:round;stroke-linejoin:round;stroke-dasharray:none"
       d="m 92.785345,136.18524 c 0.47604,0.0181 0.80387,0.41698 0.95808,0.83159 0.288811,0.58639 0.627321,1.17436 0.791621,1.80546"
       id="path323378-6"
       sodipodi:nodetypes="csccccac" />
    <path
       style="fill:none;stroke:#1a1a1a;stroke-width:0.2;stroke-linecap:round;stroke-linejoin:round;stroke-dasharray:none"
       d="m 94.138806,142.83977 c 0.328001,-0.0836 0.563591,-0.38114 0.596501,-0.71398 0.0154,-0.50086 -0.0157,-1.00339 -0.0132,-1.50508 -0.0141,-0.41431 0.005,-0.83298 -0.0541,-1.24391 -0.0537,-0.28111 -0.390691,-0.27273 -0.60753,-0.21662 -1.412581,0.20072 -2.816721,0.46429 -4.230051,0.65845 -0.25782,0.0283 -0.39038,0.28266 -0.405691,0.51737 -0.0156,0.36319 0.0141,0.72729 -0.009,1.09092 -0.006,0.45127 -0.0297,0.91155 0.0686,1.35458 0.11604,0.33496 0.41771,0.65045 0.79534,0.63182 0.60727,0.0198 1.19976,-0.14259 1.79875,-0.21791 0.6863,-0.11859 1.3828,-0.19294 2.060271,-0.35564 z"
       id="path323388-3"
       sodipodi:nodetypes="caaccccaaccccaaccccaacccc" />
    <path
       style="fill:none;stroke:#1a1a1a;stroke-width:0.2;stroke-linecap:round;stroke-linejoin:round;stroke-dasharray:none"
       d="m 91.400475,138.09718 c -0.13445,-0.0113 -0.29325,-0.0241 -0.385819,-0.12116 -0.0733,-0.0769 -0.11847,-0.20903 -0.0789,-0.30711 0.0492,-0.12186 0.20724,-0.18108 0.33668,-0.21 0.18005,-0.0402 0.3945,-0.0338 0.54996,0.0646 0.0915,0.058 0.17674,0.1677 0.170331,0.27497 -0.006,0.10358 -0.10385,0.19284 -0.1949,0.2444 -0.116021,0.0657 -0.26413,0.0655 -0.39737,0.0542 z"
       id="path378491"
       sodipodi:nodetypes="aaaaaaaa" />
    <path
       style="fill:none;stroke:#1a1a1a;stroke-width:0.2;stroke-linecap:round;stroke-linejoin:round;stroke-dasharray:none"
       d="m 92.142355,138.30689 0.0658,0.17208 -0.328,0.10688 -0.13626,-0.1572"
       id="path378493"
       sodipodi:nodetypes="cccc" />
    <path
       style="fill:none;stroke:#1a1a1a;stroke-width:0.2;stroke-linecap:round;stroke-linejoin:round;stroke-dasharray:none"
       d="m 90.322835,138.87581 c -0.13444,-0.0114 -0.29324,-0.0241 -0.38582,-0.12116 -0.0733,-0.0769 -0.118459,-0.20903 -0.0789,-0.30711 0.0492,-0.12186 0.20725,-0.18108 0.33668,-0.21 0.18006,-0.0402 0.39451,-0.0338 0.54996,0.0647 0.0915,0.058 0.17675,0.16769 0.17034,0.27498 -0.006,0.10358 -0.10385,0.19283 -0.19491,0.2444 -0.11601,0.0657 -0.26412,0.0655 -0.39736,0.0542 z"
       id="path378539"
       sodipodi:nodetypes="aaaaaaaa" />
    <path
       style="fill:none;stroke:#1a1a1a;stroke-width:0.2;stroke-linecap:round;stroke-linejoin:round;stroke-dasharray:none"
       d="m 91.064725,139.08552 0.0658,0.17207 -0.32801,0.10689 -0.13625,-0.1572"
       id="path378541"
       sodipodi:nodetypes="cccc" />
    <path
       style="fill:none;stroke:#1a1a1a;stroke-width:0.2;stroke-linecap:round;stroke-linejoin:round;stroke-dasharray:none"
       d="m 92.737635,136.53946 c 0.0915,0.058 0.17675,0.16769 0.17034,0.27498 -0.006,0.10358 -0.10385,0.19283 -0.1949,0.2444 -0.11602,0.0656 -0.26413,0.0655 -0.39737,0.0542 v -1e-5 c -0.13444,-0.0113 -0.29328,-0.0241 -0.38582,-0.12116 -0.0415,-0.0434 -0.0739,-0.10464 -0.0871,-0.16731"
       id="path378555"
       sodipodi:nodetypes="caaaasc" />
    <path
       style="fill:none;stroke:#1a1a1a;stroke-width:0.2;stroke-linecap:round;stroke-linejoin:round;stroke-dasharray:none"
       d="m 92.795435,137.60178 -0.13625,-0.15721 0.39841,-0.12176 0.0658,0.17207 z"
       id="path378557" />
    <path
       style="fill:none;stroke:#1a1a1a;stroke-width:0.2;stroke-linecap:round;stroke-linejoin:round;stroke-dasharray:none"
       d="m 84.971225,138.79237 -0.48518,-0.79916 m -0.61084,-1.7513 0.008,-2.42986"
       id="path378571"
       sodipodi:nodetypes="cccc" />
    <path
       style="fill:none;stroke:#1a1a1a;stroke-width:0.2;stroke-linecap:round;stroke-linejoin:round;stroke-dasharray:none"
       d="m 85.422015,132.89997 2.637231,-0.39697 m 1.77168,0.8736 0.56344,1.14184"
       id="path378575"
       sodipodi:nodetypes="cccc" />
    <path
       style="fill:none;stroke:#1a1a1a;stroke-width:0.2;stroke-linecap:round;stroke-linejoin:round;stroke-dasharray:none"
       d="m 85.469566,138.23395 0.008,-1.16201"
       id="path378577"
       sodipodi:nodetypes="cc" />
    <path
       style="fill:none;stroke:#1a1a1a;stroke-width:0.2;stroke-linecap:round;stroke-linejoin:round;stroke-dasharray:none"
       d="m 86.537585,135.95601 3.24915,-0.49141"
       id="path378579"
       sodipodi:nodetypes="cc" />
    <path
       style="fill:none;stroke:#1a1a1a;stroke-width:0.2;stroke-linecap:round;stroke-linejoin:round;stroke-dasharray:none"
       d="m 85.442595,135.96615 c -0.0575,-0.1229 -0.93879,-1.69363 -0.99856,-1.82198"
       id="path378581"
       sodipodi:nodetypes="cc" />
    <path
       style="fill:none;stroke:#1a1a1a;stroke-width:0.2;stroke-linecap:round;stroke-linejoin:round;stroke-dasharray:none"
       d="m 84.330866,133.85486 c 0,0 -0.0941,-0.28561 0.0818,-0.54239 0.20156,-0.29422 0.61949,-0.35353 0.61949,-0.35353"
       id="path378599"
       sodipodi:nodetypes="csc" />
    <path
       style="fill:none;stroke:#1a1a1a;stroke-width:0.2;stroke-linecap:round;stroke-linejoin:round;stroke-dasharray:none"
       d="m 87.822896,134.45819 c -0.0733,-0.0769 -0.11846,-0.20901 -0.0789,-0.3071 0.0492,-0.12187 0.20872,-0.17659 0.336691,-0.20999 0.15672,-0.0409 0.329899,-0.0757 0.48536,0.0228 m 0.23493,0.31679 c -0.006,0.10358 -0.10385,0.19283 -0.1949,0.2444 -0.116021,0.0656 -0.26413,0.0655 -0.39737,0.0542 l 10e-6,-10e-6"
       id="path378603"
       sodipodi:nodetypes="caaccaac" />
    <path
       style="fill:none;stroke:#1a1a1a;stroke-width:0.2;stroke-linecap:round;stroke-linejoin:round;stroke-dasharray:none"
       d="m 88.950605,134.78906 0.0658,0.17208 -0.328,0.10689 -0.13626,-0.1572"
       id="path378605"
       sodipodi:nodetypes="cccc" />
    <path
       style="fill:none;stroke:#1a1a1a;stroke-width:0.2;stroke-linecap:round;stroke-linejoin:round;stroke-dasharray:none"
       d="m 88.372745,132.44428 c 0,0 0.42133,-0.10961 0.91755,0.13056 0.237081,0.11478 0.42103,0.54318 0.42103,0.54318"
       id="path378619"
       sodipodi:nodetypes="csc" />
    <path
       style="fill:none;stroke:#1a1a1a;stroke-width:0.2;stroke-linecap:round;stroke-linejoin:round;stroke-dasharray:none"
       d="m 84.153625,137.40087 c 0,0 -0.16414,-0.32321 -0.19205,-0.44272 -0.0306,-0.131 -0.0454,-0.22685 -0.0531,-0.32197"
       id="path378621"
       sodipodi:nodetypes="csc" />
    <path
       style="fill:none;stroke:#1a1a1a;stroke-width:0.2;stroke-linecap:round;stroke-linejoin:round;stroke-dasharray:none"
       d="m 86.611875,139.69487 c 0,0 -0.41867,0.006 -0.5954,-0.0898 -0.197819,-0.10666 -0.360259,-0.29588 -0.450869,-0.50181 -0.0757,-0.17199 -0.0548,-0.56121 -0.0548,-0.56121"
       id="path378623"
       sodipodi:nodetypes="caac" />
    <path
       style="fill:none;stroke:#1a1a1a;stroke-width:0.2;stroke-linecap:round;stroke-linejoin:round;stroke-dasharray:none"
       d="m 90.251086,135.39254 c 0,0 0.19898,-0.0314 0.287559,0.006 0.0714,0.0296 0.131551,0.0924 0.16711,0.16119 0.043,0.0832 0.0423,0.27808 0.0423,0.27808"
       id="path378631"
       sodipodi:nodetypes="caac" />
    <path
       style="fill:none;stroke:#1a1a1a;stroke-width:0.2;stroke-linecap:round;stroke-linejoin:round;stroke-dasharray:none"
       d="m 90.572845,134.92283 c -0.0163,-0.0595 -0.072,-0.17041 -0.072,-0.17041"
       id="path378633"
       sodipodi:nodetypes="cc" />
    <path
       style="fill:none;stroke:#1a1a1a;stroke-width:0.2;stroke-linecap:round;stroke-linejoin:round;stroke-dasharray:none"
       d="m 85.474105,136.70761 c 0,0 0.006,-0.19002 0.0366,-0.27849 0.0351,-0.1015 0.0803,-0.21012 0.164181,-0.27693 0.0872,-0.0695 0.3186,-0.10164 0.3186,-0.10164"
       id="path378635"
       sodipodi:nodetypes="caac" />
    <path
       style="fill:none;stroke:#1a1a1a;stroke-width:0.2;stroke-linecap:round;stroke-linejoin:round;stroke-dasharray:none"
       d="m 86.645375,133.48979 c 0.0915,0.058 0.17674,0.16769 0.17034,0.27497 -0.006,0.10358 -0.10386,0.19283 -0.194909,0.2444 m -0.397361,0.0543 v -1e-5 c -0.13445,-0.0114 -0.29325,-0.0241 -0.385819,-0.12116 -0.0733,-0.0769 -0.118471,-0.20902 -0.0789,-0.30711 0.0492,-0.12186 0.20724,-0.18108 0.33668,-0.21"
       id="path378641"
       sodipodi:nodetypes="caccaaac" />
    <path
       style="fill:none;stroke:#1a1a1a;stroke-width:0.2;stroke-linecap:round;stroke-linejoin:round;stroke-dasharray:none"
       d="m 86.965325,134.27312 0.0658,0.17209 -0.328,0.10688 -0.13626,-0.1572"
       id="path378643"
       sodipodi:nodetypes="cccc" />
    <path
       style="display:inline;fill:none;stroke:#1a1a1a;stroke-width:0.2;stroke-linecap:round;stroke-linejoin:round;stroke-dasharray:none;stroke-opacity:1"
       d="m 92.649105,134.29845 -1.53751,0.39323 1.17165,1.71151 0.32836,-1.49095"
       id="path129231-7"
       sodipodi:nodetypes="cccc" />
    <path
       style="fill:none;stroke:#1a1a1a;stroke-width:0.2;stroke-linecap:round;stroke-linejoin:round;stroke-dasharray:none"
       d="m 87.099405,140.42548 c 0,0 -0.48704,0.94975 -0.92277,1.20841 m -1.87821,-0.077 c -0.39064,-0.27418 -0.71395,-0.67645 -0.98148,-1.06528 -0.395738,-0.57516 -0.587526,-1.28196 -0.717156,-1.96808 -0.195647,-1.03554 -0.229005,-2.11803 -0.07598,-3.16073 0.163694,-1.11539 0.447426,-2.26196 1.049316,-3.21501 0.53836,-0.85248 1.28751,-1.6397 2.19289,-2.08276 0.50831,-0.24875 1.11924,-0.34134 1.6784,-0.25449 0.96209,0.14943 1.86849,0.673 2.61925,1.29323 0.5204,0.42992 0.90042,1.02119 1.22333,1.61411 0.20293,0.37259 0.38141,0.81378 0.43515,1.19622"
       id="path423240"
       sodipodi:nodetypes="cccsaaaaaaac" />
    <path
       style="fill:none;stroke:#1a1a1a;stroke-width:0.2;stroke-linecap:round;stroke-linejoin:round;stroke-dasharray:none"
       d="m 84.777006,141.72389 c 0.341679,0.18192 0.68169,0.12225 0.936999,0.0448"
       id="path198594"
       sodipodi:nodetypes="cc" />
    <path
       id="path1"
       style="fill:#fff6e5;fill-opacity:1;stroke:none;stroke-width:0.2;stroke-linecap:round;stroke-linejoin:round"
       d="m 74.655977,132.57352 c -4.81408,-3.87325 -12.18131,-2.34328 -18.35542,-2.58372 -9.09175,-0.35407 -20.0937,-3.93614 -27.2435,1.69108 -2.65511,2.08969 -4.80711,6.83888 -2.98784,9.68611 5.25919,8.23083 19.27081,3.95949 29.03834,3.92755 7.76283,-0.0254 19.08566,3.39746 23.05756,-3.27233 1.71903,-2.88668 -0.89145,-7.34259 -3.50914,-9.44869 z"
       sodipodi:nodetypes="aaaaaaa" />
    <path
       id="path8"
       style="fill:#ffe6b3;fill-opacity:1;stroke:none;stroke-width:0.2;stroke-linecap:round;stroke-linejoin:round"
       d="m 76.899327,140.9257 c 0.82628,-2.95947 -1.5032,-6.7132 -4.18477,-8.21331 -2.0053,-1.1218 -4.58263,0.74934 -6.87148,0.54733 -2.5761,-0.22737 -4.92118,-1.89225 -7.50637,-1.96114 -2.48334,-0.0662 -4.83551,1.19054 -7.30074,1.49718 -4.48508,0.55788 -9.02543,0.62083 -13.54508,0.61312 -2.39114,-0.004 -5.02019,-1.40599 -7.16494,-0.34881 -2.16139,1.06537 -4.5394,3.56816 -4.11892,5.94089 0.34867,1.96755 2.9985,2.83992 4.90043,3.4527 4.37258,1.40879 9.19239,-0.0859 13.78114,0.13209 4.35009,0.20671 8.72782,0.36209 13.0174,1.11411 2.44939,0.42941 4.72304,1.79671 7.2062,1.93028 1.88826,0.10156 3.83231,-0.21492 5.60564,-0.87157 2.27358,-0.8419 5.52951,-1.49773 6.18149,-3.83287 z"
       sodipodi:nodetypes="aaaaaaaaaaaaaa" />
    <path
       id="path141"
       style="fill:#ffdd99;fill-opacity:1;stroke-width:1;stroke-linecap:round;stroke-linejoin:round"
       d="m 54.090017,134.13146 c -1.41712,0.0666 -2.74366,0.82999 -4.16085,0.89519 -1.02441,0.0471 -2.02909,-0.38891 -3.05438,-0.3682 -1.01124,0.0204 -1.98939,0.58915 -2.9954,0.48449 -1.59631,-0.16607 -2.90487,-1.9624 -4.49297,-1.73065 -1.05268,0.15362 -2.1359,0.96076 -2.52617,1.95043 -0.73678,1.86839 -0.60873,4.70765 0.97225,5.94628 0.90178,0.7065 2.28028,-0.27472 3.42586,-0.27321 0.93677,0.001 1.86731,0.15266 2.80081,0.23077 1.93552,0.16194 3.86523,0.41514 5.80594,0.49318 1.8905,0.076 3.78697,-0.13048 5.67604,-0.0247 1.77225,0.0992 3.5154,0.55035 5.28916,0.61751 2.94971,0.11169 5.93672,0.12746 8.84821,-0.35886 1.59639,-0.26666 3.89076,0.0376 4.65211,-1.39068 0.99132,-1.8597 -0.0737,-4.94175 -1.87336,-6.0383 -1.67451,-1.02031 -3.83196,1.07431 -5.79225,1.02698 -1.53742,-0.0371 -2.97023,-0.8529 -4.49858,-1.02374 -1.44259,-0.16125 -2.90564,0.0897 -4.35474,0.005 -1.24712,-0.073 -2.4738,-0.49999 -3.72168,-0.44138 z m -22.13055,-1.41516 c -2.16639,-0.44941 -4.82298,2.37037 -4.80156,4.58278 0.0131,1.35205 2.1933,1.64937 2.988,2.74329 0.47293,0.651 0.19929,2.15567 1.00294,2.19573 1.85187,0.0923 2.68378,-2.95443 2.80279,-4.80477 0.10956,-1.7033 -0.32093,-4.37033 -1.99217,-4.71703 z"
       sodipodi:nodetypes="aaaaaaaaaaaaaaaaaaaaaaaaa" />
    <path
       id="text2"
       style="font-size:7.76111px;line-height:1.25;font-family:Tibet;-inkscape-font-specification:Tibet;text-align:justify;letter-spacing:0px;word-spacing:0px;stroke-width:0.264583"
       d="m 31.621582,134.33838 c -0.111162,0.0278 -0.166915,0.0835 -0.166915,0.16691 v 0.0754 c 0.75792,1.13688 1.136882,2.24885 1.136882,3.3352 0,0.9095 -0.247416,1.82389 -0.742591,2.7435 -0.262745,0.41938 -0.394291,0.64188 -0.394291,0.66714 v 0.0455 c 0.02779,0.11116 0.08354,0.1664 0.166915,0.1664 h 0.04547 c 0.02779,0 0.05811,-0.01 0.09095,-0.03 0.808448,-1.1773 1.212329,-2.3445 1.212329,-3.50159 v -0.13643 c 0,-0.70739 -0.166743,-1.46043 -0.500228,-2.25877 -0.416856,-0.84887 -0.684311,-1.27331 -0.803052,-1.27331 z m -1.914095,0.43563 c -0.151584,0 -0.306958,0.0227 -0.466121,0.0682 -0.608863,0.20969 -0.913123,0.64711 -0.913123,1.31155 v 0.11369 c 0.03032,0.12127 0.09095,0.1819 0.181901,0.1819 h 0.04909 c 0.04547,0 0.101228,-0.033 0.166915,-0.0987 0.02274,-0.28043 0.05035,-0.4737 0.0832,-0.57981 0.131372,-0.38907 0.457279,-0.58343 0.977718,-0.58343 0.293062,0 0.520439,0.0552 0.682129,0.1664 0.255166,0.15411 0.382922,0.47026 0.382922,0.94775 v 0.13229 c 0,0.56339 -0.276642,0.84542 -0.829923,0.84542 -0.28801,0 -0.432015,0.0666 -0.432015,0.20051 v 0.0496 c 0,0.0429 0.03302,0.0982 0.0987,0.1664 0.184427,0.0227 0.339801,0.0509 0.466121,0.0837 0.464858,0.15411 0.697115,0.48002 0.697115,0.97772 0,0.32085 -0.05575,0.58073 -0.166915,0.78031 -0.106109,0.18948 -0.387631,0.28422 -0.84491,0.28422 -0.232428,0 -0.432187,-0.0341 -0.598929,-0.10231 -0.320853,-0.17685 -0.481108,-0.44701 -0.481108,-0.81081 0,-0.30064 -0.072,-0.45113 -0.216007,-0.45113 -0.144005,0.0227 -0.216008,0.0899 -0.216008,0.20102 v 0.13281 c 0,0.0581 0.0049,0.15124 0.01499,0.28008 0.146531,0.77561 0.618051,1.16376 1.413867,1.16376 h 0.216008 c 0.861502,0 1.291911,-0.46504 1.291911,-1.39475 v -0.1478 c 0,-0.47749 -0.193271,-0.84887 -0.57981,-1.11414 v -0.0341 c 0.386539,-0.16674 0.57981,-0.53703 0.57981,-1.11052 v -0.2651 c 0,-0.16674 -0.0325,-0.3665 -0.09819,-0.59893 -0.24506,-0.53055 -0.671105,-0.79582 -1.277441,-0.79582 z m 10.572998,0.0191 c -0.725077,0 -1.344966,0.30208 -1.860351,0.90589 -0.406751,0.50275 -0.682302,1.11288 -0.826307,1.83038 0,0.11874 0.07688,0.18534 0.230994,0.2005 h 2.455664 c 0.154111,-0.0177 0.231511,-0.0783 0.231511,-0.1819 v -0.0682 c 0,-0.10358 -0.0774,-0.16422 -0.231511,-0.1819 h -2.209167 c 0.43454,-1.39458 1.177305,-2.09186 2.228287,-2.09186 0.687181,0 1.269691,0.68752 1.747181,2.06189 0.197059,0.59875 0.372472,1.40054 0.526582,2.40605 0,0.37391 0.072,0.56121 0.216008,0.56121 h 0.04909 c 0.103583,0 0.164217,-0.0606 0.181902,-0.1819 0,-0.30823 -0.08825,-0.89074 -0.265101,-1.74719 -0.540649,-2.34197 -1.342956,-3.51296 -2.406571,-3.51296 z m 12.934094,0.73897 c -0.106108,0 -0.170532,0.0644 -0.19327,0.19327 v 0.0377 c 0,0.10611 0.06442,0.17053 0.19327,0.19327 h 0.03772 c 0.106109,0 0.170532,-0.0644 0.19327,-0.19327 v -0.0377 c 0,-0.1061 -0.06442,-0.17053 -0.19327,-0.19327 z m -9.114172,0.82631 -0.06046,0.0114 c -0.07579,0.0354 -0.113689,0.11604 -0.113689,0.24236 v 3.36879 c 0.0076,0.16927 0.06551,0.25425 0.17415,0.25425 h 0.04548 c 0.07579,0 0.128847,-0.0531 0.159164,-0.15917 v -1.59938 c 0,-0.42191 0.100137,-0.7175 0.299723,-0.88677 0.159163,-0.14906 0.331878,-0.27142 0.518831,-0.36742 0.770552,-0.32338 1.598296,-0.48524 2.482536,-0.48524 0.138952,-0.0253 0.208256,-0.0859 0.208256,-0.1819 -0.02526,-0.13138 -0.08211,-0.19689 -0.170532,-0.19689 h -0.01499 c -0.717498,0 -1.437525,0.1072 -2.160075,0.32194 -0.416856,0.11622 -0.805005,0.33872 -1.163753,0.66715 v -0.82993 c 0,-0.0758 -0.05306,-0.12884 -0.159164,-0.15916 z m 4.502051,0 -0.06046,0.0114 c -0.07579,0.0354 -0.113688,0.11604 -0.113688,0.24236 v 3.36879 c 0.0076,0.16927 0.06551,0.25425 0.17415,0.25425 h 0.04548 c 0.07579,0 0.128847,-0.0531 0.159163,-0.15917 v -1.59938 c 0,-0.42191 0.100138,-0.7175 0.299724,-0.88677 0.159163,-0.14906 0.331877,-0.27142 0.518831,-0.36742 0.770552,-0.32338 1.598296,-0.48524 2.482536,-0.48524 0.138952,-0.0253 0.208256,-0.0859 0.208256,-0.1819 -0.02526,-0.13138 -0.08211,-0.19689 -0.170532,-0.19689 h -0.01499 c -0.717498,0 -1.437525,0.1072 -2.160075,0.32194 -0.416856,0.11622 -0.805005,0.33872 -1.163754,0.66715 v -0.82993 c 0,-0.0758 -0.05305,-0.12884 -0.159163,-0.15916 z m 5.896797,0 c -0.106108,0 -0.167833,0.0655 -0.185518,0.19689 v 3.50521 c 0,0.096 0.06172,0.15445 0.185518,0.17467 h 0.01137 c 0.103583,0 0.164216,-0.0623 0.181901,-0.18604 v -1.80351 c 0.07074,-1.0055 0.297025,-1.50843 0.678512,-1.50843 h 0.01137 c 0.179374,0 0.482543,0.27285 0.909505,0.81855 0.520438,0.73519 0.996322,1.51694 1.428336,2.3456 0.08337,0.22232 0.174322,0.33383 0.272852,0.33383 h 0.03824 c 0.0859,0 0.138952,-0.0623 0.159163,-0.18604 v -0.0114 l -0.01137,-0.0682 c -0.522965,-1.02067 -1.05242,-1.90204 -1.588017,-2.6448 0.118741,-0.39159 0.295762,-0.58756 0.530717,-0.58756 h 0.01137 c 0.151584,0 0.403881,0.20734 0.757577,0.62167 0.570966,0.76802 1.096632,1.61529 1.576648,2.54248 0.0859,0.22232 0.177939,0.33383 0.276469,0.33383 h 0.03411 c 0.07579,0 0.128847,-0.0531 0.159163,-0.15917 v -0.0723 c -1.250568,-2.4304 -2.184995,-3.64526 -2.803963,-3.64526 h -0.03411 c -0.328432,0 -0.589916,0.20682 -0.784449,0.62115 -0.363801,-0.41433 -0.674549,-0.62115 -0.932242,-0.62115 h -0.03411 c -0.242534,0 -0.461241,0.12615 -0.655774,0.37879 v -0.19327 c 0,-0.10358 -0.06063,-0.16531 -0.181901,-0.18552 z m 8.302853,0 c -0.576019,0 -1.129303,0.12615 -1.659847,0.37879 -0.742762,0.42949 -1.114144,0.9362 -1.114144,1.5198 v 0.0796 c 0,0.36128 0.160771,0.71371 0.481624,1.0573 0.611389,0.56086 1.379073,0.8413 2.303736,0.8413 h 0.03411 c 0.121267,-0.0227 0.181901,-0.0812 0.181901,-0.17467 -0.01516,-0.13643 -0.07958,-0.20464 -0.19327,-0.20464 h -0.02274 c -0.44212,0 -0.867648,-0.0807 -1.276925,-0.24236 -0.752867,-0.34864 -1.12913,-0.77796 -1.12913,-1.28829 v -0.0568 c 0,-0.21727 0.08825,-0.44734 0.2651,-0.68988 0.538123,-0.56086 1.247872,-0.84129 2.129586,-0.84129 h 0.04548 c 0.09348,0 0.204983,0.0265 0.33383,0.0796 0.229902,0.10611 0.344682,0.31345 0.344682,0.62167 v 2.61069 c 0,0.10611 0.06063,0.16835 0.181901,0.18604 h 0.01137 c 0.106109,0 0.167834,-0.066 0.185519,-0.19741 v -3.48247 c -0.01769,-0.13138 -0.07941,-0.19689 -0.185519,-0.19689 h -0.01137 c -0.121268,0 -0.181901,0.0769 -0.181901,0.23099 -0.209692,-0.15411 -0.439767,-0.23099 -0.689881,-0.23099 z m 4.638476,0 c -0.646758,0 -1.241728,0.15268 -1.784904,0.45837 -0.649285,0.41938 -0.973584,0.88441 -0.973584,1.39475 v 0.15141 c 0,0.36633 0.186782,0.73122 0.56069,1.09502 0.611389,0.50528 1.336296,0.7581 2.175061,0.7581 h 0.07958 c 0.08842,0 0.146876,-0.0617 0.174667,-0.18552 0,-0.0606 -0.0395,-0.12127 -0.117822,-0.1819 -0.601284,0 -1.137801,-0.12288 -1.610238,-0.36794 -0.588651,-0.33348 -0.88315,-0.71842 -0.88315,-1.15548 v -0.0796 c 0,-0.24506 0.1072,-0.4892 0.321944,-0.73173 0.522965,-0.51792 1.208885,-0.7767 2.057755,-0.7767 0.199586,0 0.364147,0.053 0.492994,0.15916 0.15411,0.0682 0.230993,0.30047 0.230993,0.69712 v 2.18694 c 0,0.47749 -0.03141,0.9079 -0.09457,1.29191 -0.229902,1.50321 -0.721461,2.25516 -1.474328,2.25516 -0.472437,0 -0.850308,-0.15319 -1.133264,-0.45888 -0.179375,-0.17432 -0.309313,-0.47479 -0.390158,-0.90176 0,-0.26022 -0.06821,-0.39015 -0.204638,-0.39015 -0.123794,0.0278 -0.185519,0.0808 -0.185519,0.15916 v 0.0946 c 0,0.16421 0.03899,0.36615 0.117306,0.60616 0.303168,0.84635 0.905717,1.26969 1.807642,1.26969 0.401697,0 0.76062,-0.17162 1.07642,-0.51521 0.570966,-0.73518 0.856278,-1.87965 0.856278,-3.43338 v -3.18327 c 0,-0.1238 -0.05684,-0.1958 -0.170532,-0.21601 h -0.02274 c -0.121267,0 -0.181901,0.0758 -0.181901,0.22738 -0.222323,-0.15159 -0.448609,-0.22738 -0.678511,-0.22738 z m 4.649846,0 c -0.586125,0 -1.135619,0.12615 -1.648478,0.37879 -0.750341,0.42191 -1.125513,0.93241 -1.125513,1.53117 v 0.0568 c 0,0.3158 0.122875,0.63033 0.367936,0.94361 0.608863,0.64423 1.414443,0.96635 2.417424,0.96635 h 0.905887 c 0.123794,-0.0227 0.185519,-0.0812 0.185519,-0.17467 v -0.0114 c 0,-0.11116 -0.06552,-0.17558 -0.196887,-0.19327 h -0.894519 c -0.389066,0 -0.776698,-0.0655 -1.163237,-0.19689 -0.828659,-0.34864 -1.242818,-0.7969 -1.242818,-1.34513 v -0.0341 c 0,-0.26022 0.1072,-0.51303 0.321944,-0.75809 0.530544,-0.52297 1.221345,-0.78445 2.072742,-0.78445 h 0.04547 c 0.08337,0 0.187299,0.0227 0.311092,0.0682 0.245061,0.11369 0.36742,0.31345 0.36742,0.59893 0,0.1339 -0.05036,0.24489 -0.151412,0.33331 -0.346117,0.24506 -0.813847,0.36742 -1.402499,0.36742 -0.09853,0 -0.20194,-0.0189 -0.310575,-0.0568 -0.25264,-0.0884 -0.378788,-0.25247 -0.378788,-0.49248 -0.01263,-0.15411 -0.07487,-0.23099 -0.186036,-0.23099 -0.128846,0.0303 -0.193269,0.0883 -0.193269,0.17415 v 0.0341 c 0,0.12632 0.02653,0.26383 0.07958,0.41289 0.222324,0.36128 0.544441,0.54209 0.96635,0.54209 0.06569,0 0.162034,-0.004 0.288354,-0.0114 1.111616,-0.11116 1.667082,-0.46469 1.667082,-1.06092 v -0.0114 c 0,-0.15411 -0.03032,-0.3073 -0.09095,-0.45889 -0.212217,-0.39159 -0.538124,-0.58704 -0.977718,-0.58704 z m -18.887219,0.0114 c -0.07579,0 -0.128847,0.0531 -0.159164,0.15916 v 3.54707 c 0,0.0758 0.05306,0.12885 0.159164,0.15917 h 0.04909 c 0.101056,0 0.1579,-0.0812 0.170532,-0.24288 v -3.39514 c 0,-0.1339 -0.05684,-0.2097 -0.170532,-0.22738 z" />
  </g>
</svg>
