<?xml version="1.0" encoding="UTF-8" standalone="no"?>
<!-- Created with Inkscape (http://www.inkscape.org/) -->

<svg
   width="300.92966"
   height="74.263206"
   viewBox="0 0 79.620965 19.648806"
   version="1.1"
   id="svg1"
   inkscape:version="1.3.2 (091e20ef0f, 2023-11-25, custom)"
   sodipodi:docname="atterrissage2.svg"
   xmlns:inkscape="http://www.inkscape.org/namespaces/inkscape"
   xmlns:sodipodi="http://sodipodi.sourceforge.net/DTD/sodipodi-0.dtd"
   xmlns="http://www.w3.org/2000/svg"
   xmlns:svg="http://www.w3.org/2000/svg">
  <sodipodi:namedview
     id="namedview1"
     pagecolor="#ffffff"
     bordercolor="#666666"
     borderopacity="1.0"
     inkscape:showpageshadow="2"
     inkscape:pageopacity="0.0"
     inkscape:pagecheckerboard="0"
     inkscape:deskcolor="#d1d1d1"
     inkscape:document-units="mm"
     inkscape:zoom="0.36654008"
     inkscape:cx="485.6222"
     inkscape:cy="432.42202"
     inkscape:window-width="956"
     inkscape:window-height="1029"
     inkscape:window-x="960"
     inkscape:window-y="0"
     inkscape:window-maximized="1"
     inkscape:current-layer="layer1"
     showgrid="false" />
  <defs
     id="defs1">
    <style
       transform="translate(-130.185, 41.1648)"
       id="style111"><![CDATA[
polygon {
shape-rendering:crispEdges;
stroke-width:0.098900;
}
.s0 {
stroke:#000000;
stroke-width:0.080355;
stroke-linecap:round;
stroke-linejoin:round;
fill:none;
}
.s1 {
stroke:#000000;
stroke-width:0.080355;
stroke-linecap:round;
stroke-linejoin:round;
fill:none;
}
.s2 {
stroke:#19b219;
stroke-width:0.080355;
stroke-linecap:round;
stroke-linejoin:round;
fill:none;
}
.s3 {
stroke:#7f4c00;
stroke-width:0.080355;
stroke-linecap:round;
stroke-linejoin:round;
fill:none;
}
.s4 {
stroke:#00cc00;
stroke-width:0.080355;
stroke-linecap:round;
stroke-linejoin:round;
fill:none;
}
.s5 {
stroke:#000000;
stroke-width:0.053570;
stroke-linecap:round;
stroke-linejoin:round;
fill:none;
}
.s6 {
stroke:#ff19ff;
stroke-width:0.053570;
stroke-linecap:round;
stroke-linejoin:round;
fill:none;
}
.s7 {
stroke:#ff0000;
stroke-width:0.080355;
stroke-linecap:round;
stroke-linejoin:round;
fill:none;
}
.s8 {
stroke:#ffff00;
stroke-width:0.080355;
stroke-linecap:round;
stroke-linejoin:round;
fill:none;
}
.s9 {
stroke:#001919;
stroke-width:0.053570;
stroke-linecap:round;
stroke-linejoin:round;
fill:none;
}
.sa {
stroke:#006666;
stroke-width:0.053570;
stroke-linecap:round;
stroke-linejoin:round;
fill:none;
}
.sb {
stroke:#00ffff;
stroke-width:0.160711;
stroke-linecap:round;
stroke-linejoin:round;
fill:none;
}
.sc {
stroke:#ff0000;
stroke-width:0.428562;
stroke-linecap:round;
stroke-linejoin:round;
fill:none;
}
.sd {
stroke:#191919;
stroke-width:0.053570;
stroke-linecap:round;
stroke-linejoin:round;
fill:none;
}
.se {
stroke:#000000;
stroke-width:0.053570;
stroke-linecap:round;
stroke-linejoin:round;
stroke-dasharray:0.804,0.804;
fill:none;
}
.sf {
stroke:#000000;
stroke-width:0.160711;
stroke-linecap:round;
stroke-linejoin:round;
fill:none;
}
.s100 {
stroke:#ff0000;
stroke-width:0.500000;
stroke-linecap:round;
stroke-linejoin:round;
fill:none;
}
]]></style>
  </defs>
  <g
     inkscape:label="Layer 1"
     inkscape:groupmode="layer"
     id="layer1"
     transform="translate(-25.668503,-128.0231)">
    <path
       id="path1"
       style="fill:#fff6e5;fill-opacity:1;stroke:none;stroke-width:0.2;stroke-linecap:round;stroke-linejoin:round"
       d="m 83.289497,133.64028 c -5.60323,-6.20831 -16.5041,-3.00133 -24.85762,-3.39879 -9.94567,-0.47321 -22.43166,-5.42762 -29.8459,1.21838 -2.82596,2.53315 -3.99677,8.23554 -1.70106,11.25756 5.72141,7.53154 18.70782,3.33848 28.16554,3.43951 9.56825,0.10221 22.26337,4.33276 28.56253,-2.87019 2.11796,-2.42183 1.83212,-7.25809 -0.32349,-9.64647 z"
       sodipodi:nodetypes="aaaaaaa" />
    <path
       id="path8"
       style="fill:#ffe6b3;fill-opacity:1;stroke:none;stroke-width:0.2;stroke-linecap:round;stroke-linejoin:round"
       d="m 83.265737,141.62431 c 0.95375,-2.81864 -0.77041,-6.54054 -3.12273,-8.36288 -1.04456,-0.80922 -2.62697,-0.28857 -3.94227,-0.41474 -5.94968,-0.57072 -11.89706,-1.89405 -17.86403,-1.54811 -2.48006,0.14379 -4.83551,1.19054 -7.30074,1.49718 -4.48508,0.55788 -9.02958,0.80674 -13.54508,0.61312 -2.61042,-0.11193 -5.56324,-2.42023 -7.77135,-1.02343 -2.35612,1.49043 -3.31763,5.27593 -2.56579,7.9606 0.40241,1.43692 1.97597,2.44076 3.38646,2.92781 4.52606,1.56286 9.56094,-0.77778 14.34839,-0.68811 4.35423,0.0816 8.68775,0.64494 13.0174,1.11411 4.02564,0.43622 8.00124,1.35826 12.04432,1.58079 2.5793,0.14197 5.27316,0.5813 7.74798,-0.1591 2.09962,-0.62815 4.865,-1.42128 5.56744,-3.49724 z"
       sodipodi:nodetypes="aaaaaaaaaaaaaa" />
    <path
       id="path141"
       style="fill:#ffdd99;fill-opacity:1;stroke-width:1;stroke-linecap:round;stroke-linejoin:round"
       d="m 54.090017,134.13146 c -1.41712,0.0666 -2.74366,0.82999 -4.16085,0.89519 -1.02441,0.0471 -2.02909,-0.38891 -3.05438,-0.3682 -1.01124,0.0204 -1.98939,0.58915 -2.9954,0.48449 -1.59631,-0.16607 -2.90487,-1.9624 -4.49297,-1.73065 -1.05268,0.15362 -2.1359,0.96076 -2.52617,1.95043 -0.73678,1.86839 -0.60873,4.70765 0.97225,5.94628 0.90178,0.7065 2.28028,-0.27472 3.42586,-0.27321 0.93677,0.001 1.86731,0.15266 2.80081,0.23077 1.93552,0.16194 3.86523,0.41514 5.80594,0.49318 1.8905,0.076 3.78697,-0.13048 5.67604,-0.0247 1.77225,0.0992 3.52879,0.38989 5.28916,0.61751 4.37913,0.56622 8.73837,2.44336 13.11538,1.86096 2.64088,-0.3514 6.22827,-0.73382 7.34426,-3.15296 0.88278,-1.9136 -0.15298,-4.82115 -1.87336,-6.0383 -2.43633,-1.72368 -5.96344,0.43023 -8.94664,0.34456 -2.77947,-0.0798 -5.52601,-0.66716 -8.30351,-0.79886 -1.44995,-0.0688 -2.90564,0.0897 -4.35474,0.005 -1.24712,-0.073 -2.4738,-0.49999 -3.72168,-0.44138 z m -22.13055,-1.41516 c -1.94811,-0.27686 -3.64757,2.61646 -3.72079,4.58278 -0.0414,1.11294 1.35579,1.77568 1.90723,2.74329 0.39841,0.69909 0.19929,2.15567 1.00294,2.19573 1.85187,0.0923 2.68378,-2.95443 2.80279,-4.80477 0.10956,-1.7033 -0.30233,-4.47687 -1.99217,-4.71703 z"
       sodipodi:nodetypes="aaaaaaaaaaaaaaaaaaaaaaaaaa" />
    <path
       id="text2"
       style="font-size:7.76111px;line-height:1.25;font-family:Tibet;-inkscape-font-specification:Tibet;text-align:justify;letter-spacing:0px;word-spacing:0px;stroke-width:0.264583"
       d="m 44.555205,132.85647 c -0.123793,0 -0.185518,0.0774 -0.185518,0.23151 v 2.25826 c -0.482542,0.0935 -0.943784,0.14056 -1.383378,0.14056 h -0.170532 c -0.106109,0 -0.171623,0.0644 -0.196887,0.19327 0,0.0985 0.06551,0.16025 0.196887,0.18551 h 0.170532 c 0.474963,0 0.936205,-0.0455 1.383378,-0.13642 v 4.27467 c 0,0.15411 0.06173,0.231 0.185518,0.231 h 0.03411 c 0.07832,0 0.132981,-0.0541 0.163297,-0.16278 v -4.42609 c 0.384013,-0.10611 0.679603,-0.21383 0.886768,-0.32246 0.576019,-0.31328 0.86403,-0.54444 0.86403,-0.6935 v -0.0341 c 0,-0.0859 -0.06063,-0.13895 -0.181901,-0.15916 h -0.02687 c -0.09095,0.0253 -0.136426,0.0518 -0.136426,0.0796 -0.373907,0.33854 -0.842211,0.58486 -1.405599,0.73898 v -2.23553 c 0,-0.0783 -0.05466,-0.13298 -0.163297,-0.16329 z m 3.892269,0 c -0.123793,0 -0.186035,0.0774 -0.186035,0.23151 v 2.25826 c -0.482542,0.0935 -0.943267,0.14056 -1.382861,0.14056 h -0.170532 c -0.106109,0 -0.17214,0.0644 -0.197404,0.19327 0,0.0985 0.06603,0.16025 0.197404,0.18551 h 0.170532 c 0.474963,0 0.935688,-0.0455 1.382861,-0.13642 v 4.27467 c 0,0.15411 0.06224,0.231 0.186035,0.231 h 0.03411 c 0.07832,0 0.132464,-0.0541 0.162781,-0.16278 v -4.42609 c 0.384012,-0.10611 0.679602,-0.21383 0.886767,-0.32246 0.576019,-0.31328 0.86403,-0.54444 0.86403,-0.6935 v -0.0341 c 0,-0.0859 -0.06063,-0.13895 -0.181901,-0.15916 h -0.02636 c -0.09095,0.0253 -0.136426,0.0518 -0.136426,0.0796 -0.373907,0.33854 -0.842728,0.58486 -1.406115,0.73898 v -2.23553 c 0,-0.0783 -0.05415,-0.13298 -0.162781,-0.16329 z m -16.825846,1.48208 c -0.111162,0.0278 -0.166915,0.083 -0.166915,0.16639 v 0.076 c 0.75792,1.13688 1.136882,2.24833 1.136882,3.33468 0,0.9095 -0.247416,1.82441 -0.742591,2.74402 -0.262745,0.41938 -0.394291,0.64136 -0.394291,0.66662 v 0.0455 c 0.02779,0.11116 0.08354,0.16691 0.166915,0.16691 h 0.04547 c 0.02779,0 0.05811,-0.0103 0.09095,-0.0305 0.808448,-1.1773 1.212329,-2.3445 1.212329,-3.50159 v -0.13643 c 0,-0.70739 -0.166743,-1.45991 -0.500228,-2.25826 -0.416856,-0.84887 -0.684311,-1.2733 -0.803052,-1.2733 z m -1.914095,0.43563 c -0.151584,0 -0.306958,0.0227 -0.466121,0.0682 -0.608863,0.20969 -0.913123,0.64659 -0.913123,1.31103 v 0.11369 c 0.03032,0.12127 0.09095,0.1819 0.181901,0.1819 h 0.04909 c 0.04547,0 0.101228,-0.0325 0.166914,-0.0982 0.02274,-0.28043 0.05036,-0.47371 0.0832,-0.57981 0.131372,-0.38907 0.457279,-0.58395 0.977718,-0.58395 0.293062,0 0.520439,0.0558 0.682129,0.16692 0.255166,0.15411 0.382922,0.46974 0.382922,0.94723 v 0.1328 c 0,0.56339 -0.276642,0.84491 -0.829924,0.84491 -0.288009,0 -0.432015,0.0671 -0.432015,0.20103 v 0.0491 c 0,0.0429 0.03302,0.0987 0.0987,0.16691 0.184428,0.0227 0.339802,0.0504 0.466122,0.0832 0.464858,0.15411 0.697115,0.48002 0.697115,0.97772 0,0.32085 -0.05575,0.58125 -0.166915,0.78083 -0.106109,0.18948 -0.387631,0.28422 -0.84491,0.28422 -0.232428,0 -0.432187,-0.0341 -0.598929,-0.10232 -0.320853,-0.17685 -0.481108,-0.447 -0.481108,-0.8108 0,-0.30064 -0.072,-0.45114 -0.216008,-0.45114 -0.144004,0.0227 -0.216007,0.0899 -0.216007,0.20103 v 0.13229 c 0,0.0581 0.0049,0.15175 0.01499,0.2806 0.146531,0.7756 0.618051,1.16324 1.413867,1.16324 h 0.216008 c 0.861502,0 1.291911,-0.46452 1.291911,-1.39423 v -0.1478 c 0,-0.47749 -0.193271,-0.84887 -0.57981,-1.11414 v -0.0341 c 0.386539,-0.16674 0.57981,-0.53703 0.57981,-1.11053 v -0.2651 c 0,-0.16674 -0.0325,-0.3665 -0.09819,-0.59893 -0.24506,-0.53054 -0.671105,-0.79581 -1.277441,-0.79581 z m 10.572998,0.0191 c -0.725077,0 -1.344966,0.30156 -1.860352,0.90537 -0.40675,0.50275 -0.682301,1.11288 -0.826306,1.83038 0,0.11874 0.07688,0.18586 0.230994,0.20102 h 2.455664 c 0.15411,-0.0177 0.23151,-0.0783 0.23151,-0.1819 v -0.0682 c 0,-0.10359 -0.0774,-0.16422 -0.23151,-0.18191 h -2.209167 c 0.43454,-1.39457 1.177305,-2.09186 2.228287,-2.09186 0.687181,0 1.269691,0.68701 1.74718,2.06138 0.19706,0.59875 0.372473,1.40106 0.526583,2.40657 0,0.3739 0.072,0.56069 0.216008,0.56069 h 0.04909 c 0.103583,0 0.164217,-0.0606 0.181901,-0.1819 0,-0.30823 -0.08825,-0.89022 -0.2651,-1.74667 -0.540649,-2.34197 -1.342957,-3.51296 -2.406571,-3.51296 z m 18.61075,0.73897 c -0.106108,0 -0.170532,0.0644 -0.19327,0.19327 v 0.0377 c 0,0.10611 0.06442,0.17054 0.19327,0.19327 h 0.03824 c 0.106109,0 0.170532,-0.0644 0.19327,-0.19327 v -0.0377 c 0,-0.10611 -0.06442,-0.17053 -0.19327,-0.19327 z m -6.540686,0.82579 c -0.586125,0 -1.135619,0.12667 -1.648478,0.37931 -0.750341,0.4219 -1.125513,0.93189 -1.125513,1.53065 v 0.0568 c 0,0.3158 0.122359,0.63033 0.36742,0.94361 0.608862,0.64423 1.414959,0.96635 2.41794,0.96635 h 0.905888 c 0.123794,-0.0227 0.185518,-0.0807 0.185518,-0.17415 v -0.0114 c 0,-0.11116 -0.06551,-0.17559 -0.196887,-0.19327 h -0.894519 c -0.389066,0 -0.776697,-0.0655 -1.163236,-0.19689 -0.82866,-0.34864 -1.243335,-0.79742 -1.243335,-1.34565 v -0.0341 c 0,-0.26022 0.107717,-0.51252 0.322461,-0.75758 0.530544,-0.52296 1.221344,-0.78444 2.072741,-0.78444 h 0.04548 c 0.08337,0 0.186781,0.0227 0.310575,0.0682 0.245061,0.11369 0.367936,0.31293 0.367936,0.59841 0,0.1339 -0.05087,0.24541 -0.151929,0.33383 -0.346116,0.24506 -0.81333,0.36742 -1.401981,0.36742 -0.09853,0 -0.20194,-0.019 -0.310576,-0.0568 -0.25264,-0.0884 -0.379305,-0.25247 -0.379305,-0.49248 -0.01263,-0.15411 -0.07436,-0.23151 -0.185518,-0.23151 -0.128846,0.0303 -0.19327,0.0888 -0.19327,0.17467 v 0.0341 c 0,0.12632 0.02653,0.26384 0.07958,0.4129 0.222323,0.36127 0.54444,0.54208 0.966349,0.54208 0.06569,0 0.161518,-0.004 0.287838,-0.0114 1.111616,-0.11116 1.667598,-0.4652 1.667598,-1.06143 v -0.0114 c 0,-0.15411 -0.03032,-0.30678 -0.09095,-0.45837 -0.212218,-0.39159 -0.538125,-0.58756 -0.977718,-0.58756 z m 1.929082,0 -0.06098,0.0114 c -0.07579,0.0354 -0.113688,0.11656 -0.113688,0.24288 v 3.36879 c 0.0076,0.16926 0.06603,0.25373 0.174667,0.25373 h 0.04548 c 0.07579,0 0.128846,-0.0531 0.159163,-0.15917 v -1.59887 c 0,-0.4219 0.09962,-0.71749 0.299207,-0.88676 0.159163,-0.14906 0.332394,-0.27194 0.519348,-0.36794 0.770552,-0.32338 1.597779,-0.48472 2.482019,-0.48472 0.138952,-0.0253 0.208256,-0.0859 0.208256,-0.18191 -0.02526,-0.13137 -0.08211,-0.1974 -0.170532,-0.1974 h -0.01499 c -0.717498,0 -1.437525,0.10772 -2.160075,0.32246 -0.416856,0.11622 -0.804488,0.3382 -1.163237,0.66663 v -0.82993 c 0,-0.0758 -0.05305,-0.12884 -0.159163,-0.15916 z m 8.651668,0 c -1.786165,0 -2.679423,0.39952 -2.679423,1.19786 v 0.0455 c 0,0.31074 0.27934,0.58578 0.837675,0.82578 0.606336,0.23243 0.909505,0.47876 0.909505,0.73898 0,0.096 -0.06063,0.18856 -0.181901,0.27698 -0.525491,0.27538 -1.273653,0.4129 -2.243791,0.4129 -0.131373,0.0177 -0.196887,0.0783 -0.196887,0.1819 v 0.0377 c 0,0.0758 0.05306,0.12885 0.159163,0.15917 0.586125,0 1.173515,-0.0617 1.762167,-0.18552 0.720024,-0.19706 1.080037,-0.48019 1.080037,-0.84905 0,-0.39917 -0.260392,-0.72128 -0.780831,-0.96635 -0.644232,-0.25516 -0.966349,-0.46956 -0.966349,-0.64388 v -0.0455 c 0,-0.0707 0.02274,-0.15572 0.06821,-0.25425 0.277904,-0.36885 1.026066,-0.55293 2.243791,-0.55293 h 0.07958 c 0.154111,-0.0152 0.230994,-0.072 0.230994,-0.17054 -0.01263,-0.13895 -0.07436,-0.20877 -0.185518,-0.20877 z m 3.512964,0 c -1.786165,0 -2.679423,0.39952 -2.679423,1.19786 v 0.0455 c 0,0.31074 0.27934,0.58578 0.837675,0.82578 0.606336,0.23243 0.909505,0.47876 0.909505,0.73898 0,0.096 -0.06063,0.18856 -0.181901,0.27698 -0.525492,0.27538 -1.273653,0.4129 -2.243791,0.4129 -0.131373,0.0177 -0.196887,0.0783 -0.196887,0.1819 v 0.0377 c 0,0.0758 0.05305,0.12885 0.159163,0.15917 0.586125,0 1.173515,-0.0617 1.762167,-0.18552 0.720024,-0.19706 1.080037,-0.48019 1.080037,-0.84905 0,-0.39917 -0.260392,-0.72128 -0.780831,-0.96635 -0.644232,-0.25516 -0.966349,-0.46956 -0.966349,-0.64388 v -0.0455 c 0,-0.0707 0.02274,-0.15572 0.06821,-0.25425 0.277904,-0.36885 1.026065,-0.55293 2.24379,-0.55293 h 0.07958 c 0.154111,-0.0152 0.230994,-0.072 0.230994,-0.17054 -0.01263,-0.13895 -0.07436,-0.20877 -0.185519,-0.20877 z m 2.906282,0 c -0.576019,0 -1.129303,0.12667 -1.659847,0.37931 -0.742762,0.42948 -1.114144,0.93568 -1.114144,1.51928 v 0.0796 c 0,0.36128 0.160772,0.71371 0.481625,1.0573 0.611389,0.56086 1.379072,0.8413 2.303735,0.8413 h 0.03411 c 0.121268,-0.0227 0.181902,-0.0807 0.181902,-0.17415 -0.01516,-0.13643 -0.07958,-0.20464 -0.19327,-0.20464 h -0.02274 c -0.44212,0 -0.867648,-0.0807 -1.276925,-0.24236 -0.752867,-0.34865 -1.12913,-0.77848 -1.12913,-1.28881 v -0.0568 c 0,-0.21727 0.08825,-0.44683 0.2651,-0.68936 0.538124,-0.56086 1.247872,-0.84129 2.129586,-0.84129 h 0.04548 c 0.09348,0 0.204984,0.0265 0.33383,0.0796 0.229903,0.10611 0.344682,0.31293 0.344682,0.62115 v 2.61121 c 0,0.10611 0.06063,0.16783 0.181901,0.18552 h 0.01137 c 0.106109,0 0.167833,-0.0655 0.185518,-0.19689 v -3.48248 c -0.01769,-0.13137 -0.07941,-0.1974 -0.185518,-0.1974 h -0.01137 c -0.121267,0 -0.181901,0.0774 -0.181901,0.23151 -0.209691,-0.15411 -0.439767,-0.23151 -0.68988,-0.23151 z m 4.638477,0 c -0.646759,0 -1.241728,0.15319 -1.784904,0.45889 -0.649285,0.41938 -0.973584,0.88389 -0.973584,1.39423 v 0.15193 c 0,0.36632 0.186782,0.73122 0.560689,1.09502 0.611389,0.50528 1.336296,0.75809 2.175061,0.75809 h 0.07958 c 0.08842,0 0.146876,-0.0622 0.174666,-0.18603 0,-0.0606 -0.0395,-0.12127 -0.117822,-0.1819 -0.601283,0 -1.137801,-0.12236 -1.610238,-0.36742 -0.588651,-0.33349 -0.88315,-0.71894 -0.88315,-1.156 v -0.0796 c 0,-0.24506 0.1072,-0.48868 0.321944,-0.73122 0.522965,-0.51791 1.208885,-0.77669 2.057756,-0.77669 0.199585,0 0.364147,0.0531 0.492993,0.15916 0.15411,0.0682 0.230994,0.30047 0.230994,0.69711 v 2.18643 c 0,0.47749 -0.03141,0.90842 -0.09457,1.29243 -0.229903,1.50321 -0.721462,2.25464 -1.474329,2.25464 -0.472437,0 -0.850307,-0.15267 -1.133264,-0.45837 -0.179374,-0.17432 -0.309312,-0.47479 -0.390157,-0.90175 0,-0.26022 -0.06821,-0.39067 -0.204639,-0.39067 -0.123793,0.0278 -0.185518,0.0808 -0.185518,0.15916 v 0.0951 c 0,0.16422 0.03899,0.36616 0.117305,0.60617 0.303168,0.84634 0.905717,1.26969 1.807642,1.26969 0.401698,0 0.76062,-0.17214 1.07642,-0.51573 0.570967,-0.73518 0.856278,-1.87965 0.856278,-3.43338 v -3.18327 c 0,-0.1238 -0.05684,-0.1958 -0.170532,-0.21601 h -0.02274 c -0.121268,0 -0.181901,0.0758 -0.181901,0.22738 -0.222324,-0.15159 -0.44861,-0.22738 -0.678512,-0.22738 z m 4.649845,0 c -0.586125,0 -1.135619,0.12667 -1.648478,0.37931 -0.750341,0.4219 -1.125513,0.93189 -1.125513,1.53065 v 0.0568 c 0,0.3158 0.122876,0.63033 0.367936,0.94361 0.608863,0.64423 1.414443,0.96635 2.417424,0.96635 h 0.905888 c 0.123793,-0.0227 0.185518,-0.0807 0.185518,-0.17415 v -0.0114 c 0,-0.11116 -0.06551,-0.17559 -0.196887,-0.19327 h -0.894519 c -0.389066,0 -0.776697,-0.0655 -1.163237,-0.19689 -0.828659,-0.34864 -1.242818,-0.79742 -1.242818,-1.34565 v -0.0341 c 0,-0.26022 0.1072,-0.51252 0.321944,-0.75758 0.530545,-0.52296 1.221345,-0.78444 2.072742,-0.78444 h 0.04547 c 0.08337,0 0.187299,0.0227 0.311093,0.0682 0.24506,0.11369 0.367419,0.31293 0.367419,0.59841 0,0.1339 -0.05036,0.24541 -0.151412,0.33383 -0.346117,0.24506 -0.813847,0.36742 -1.402498,0.36742 -0.09853,0 -0.20194,-0.019 -0.310576,-0.0568 -0.25264,-0.0884 -0.378788,-0.25247 -0.378788,-0.49248 -0.01263,-0.15411 -0.07487,-0.23151 -0.186035,-0.23151 -0.128847,0.0303 -0.19327,0.0888 -0.19327,0.17467 v 0.0341 c 0,0.12632 0.02653,0.26384 0.07958,0.4129 0.222323,0.36127 0.54444,0.54208 0.966349,0.54208 0.06569,0 0.162034,-0.004 0.288355,-0.0114 1.111616,-0.11116 1.667081,-0.4652 1.667081,-1.06143 v -0.0114 c 0,-0.15411 -0.03032,-0.30678 -0.09095,-0.45837 -0.212218,-0.39159 -0.538125,-0.58756 -0.977718,-0.58756 z m -19.759,0.0114 c -0.07579,0 -0.128847,0.0531 -0.159164,0.15916 v 3.54707 c 0,0.0758 0.05306,0.12885 0.159164,0.15917 h 0.04961 c 0.101056,0 0.1579,-0.0807 0.170532,-0.24237 v -3.39565 c 0,-0.1339 -0.05684,-0.2097 -0.170532,-0.22738 z" />
    <path
       id="path8957-9"
       style="fill:#ffedcc;fill-opacity:1;stroke:none;stroke-width:0.199999;stroke-linecap:round;stroke-linejoin:round;stroke-dasharray:none"
       d="m 85.633491,137.95228 c 0.367862,1.55555 0.367514,3.37408 1.414366,4.58204 0.577898,0.66683 1.520189,1.001 2.392742,1.13247 1.263145,0.19032 2.645368,0.0147 3.793121,-0.54596 0.635187,-0.31032 1.163257,-0.86492 1.528538,-1.47018 0.264279,-0.4379 0.249091,-0.99416 0.425733,-1.47416 0.335128,-0.91065 0.25483,-2.42477 1.197927,-2.65318 1.272572,-0.30821 2.41595,1.31258 3.075359,2.44378 1.271893,2.18189 -1.032054,6.26337 1.178713,7.48439 1.32587,0.73228 3.40659,-0.48711 4.1757,-1.79195 1.0961,-1.85962 0.039,-4.39693 -0.64786,-6.44335 -0.97278,-2.89834 -2.30222,-6.03197 -4.773782,-7.83145 -0.506957,-0.36911 -1.202536,-0.4536 -1.829445,-0.43853 -0.660037,0.0159 -1.252855,0.6757 -1.901715,0.55371 -0.614798,-0.1156 -0.946439,-0.83064 -1.488308,-1.14324 -0.974242,-0.56202 -2.020739,-1.04448 -3.118911,-1.28745 -0.799874,-0.17698 -1.64585,-0.23441 -2.455271,-0.10811 -0.456034,0.0711 -0.857296,0.34555 -1.298994,0.47947 -0.973296,0.29508 -2.405295,-0.13686 -2.967163,0.71089 -1.456311,2.19729 0.69259,5.23548 1.29925,7.80081 z"
       sodipodi:nodetypes="aaaaaaaaaaaaaaaaaaaa" />
    <path
       id="path10038-1"
       style="fill:#ffe6b3;fill-opacity:1;stroke:none;stroke-width:0.199999;stroke-linecap:round;stroke-linejoin:round;stroke-dasharray:none"
       d="m 102.91874,147.08332 c 1.18759,-0.31401 0.8524,-1.78142 0.68695,-2.66697 0.15339,-0.50186 1.18375,-0.61616 0.78747,-1.33322 -0.35162,-0.96134 -1.55902,-1.59883 -1.30613,-2.75228 -0.15722,-1.56323 -0.57799,-3.12908 -1.41526,-4.4524 -0.23824,-1.38845 -2.28953,-1.51547 -2.303961,-3.00639 -0.473009,-1.18568 -2.72324,-0.84055 -2.420905,0.5591 0.235366,1.02261 0.04267,2.23161 0.673229,3.11558 0.597028,0.68426 1.67825,-0.29022 2.12651,0.50006 0.434477,1.3513 0.477687,2.83007 1.179427,4.10654 0.43395,0.60712 0.36516,1.34325 -0.20204,1.83102 -0.70601,1.05517 -4.1e-4,2.47895 0.76525,3.30847 0.39021,0.38011 0.87904,0.72567 1.42946,0.79049 z m -1.23752,-4.43738 c 0.0618,0.0411 -0.0915,0.0341 0,0 z"
       sodipodi:nodetypes="ccccccccccccccc" />
    <path
       id="path11320-5"
       style="fill:#ffdd99;fill-opacity:1;stroke:none;stroke-width:0.199999;stroke-linecap:round;stroke-linejoin:round;stroke-dasharray:none"
       d="m 101.65452,145.11345 c 2.78175,-1.43456 1.30717,-5.04891 0.54459,-7.29961 -1.10398,-1.65719 -2.591719,-5.52885 -4.949483,-4.49845 -1.121411,1.85326 0.729802,3.33209 2.405582,3.45001 1.548061,2.04565 2.365741,4.89162 1.726671,7.42056 -10e-4,0.32772 0.0901,0.65568 0.27264,0.92749 z"
       sodipodi:nodetypes="cccccc" />
    <path
       id="path23759-29"
       style="display:inline;fill:#ffe6b3;fill-opacity:1;stroke-width:0.3;stroke-linecap:round;stroke-linejoin:round;stroke-dasharray:none"
       d="m 92.807844,131.14328 c -0.992695,-0.60913 -2.349591,-1.26868 -3.581367,-1.22957 -1.231779,0.0392 -2.021579,0.82385 -2.949106,0.87938 -0.927526,0.0551 -1.218534,0.0286 -1.557981,0.93244 -0.339446,0.90381 0.581369,1.61098 1.085373,2.40353 0.504004,0.79256 0.06465,1.387 1.208513,2.31418 1.143419,0.9272 4.102392,2.17725 5.755595,2.25944 1.653216,0.0821 2.100867,-0.2773 3.004963,-0.91985 0.904083,-0.64256 0.978616,-0.98802 0.976302,-1.87698 -0.0026,-0.88898 -0.06599,-2.38404 -0.826679,-2.85081 m -1.963957,5.74374 c -0.349881,0.0252 -1.12829,0.60181 -1.985123,0.57168 -0.856821,-0.0301 -2.122023,-0.25008 -2.710943,-0.89465 -0.588899,-0.64457 -1.587519,-1.28707 -1.897664,-1.10171 -0.310133,0.18535 -0.04241,1.51244 0.569524,2.05565 0.612002,0.54318 0.01694,1.23077 0.01435,2.06643 -0.0026,0.83568 0.452682,1.05441 1.445267,1.30023 0.992569,0.24583 2.385966,0.24275 3.44668,-0.3741 1.060714,-0.61687 1.443129,-1.84191 1.326364,-2.61305 -0.116765,-0.77116 -0.02741,-1.00933 -0.208393,-1.01048 -0.181018,-0.001 0.349882,-0.0252 -1.3e-5,0 z"
       sodipodi:nodetypes="czzzzzzzzczzzzzzzzzzzz" />
    <path
       id="path23992-9"
       style="display:inline;fill:#ffdd99;fill-opacity:1;stroke-width:0.3;stroke-linecap:round;stroke-linejoin:round;stroke-dasharray:none"
       d="m 90.273304,130.1368 c -0.463246,0.0332 -0.861761,0.13652 -1.299288,0.38884 -0.43753,0.25232 -0.02961,0.75532 0.435445,1.07186 0.465031,0.31654 1.521477,0.35125 2.073842,0.57433 0.552366,0.22308 1.024211,0.11224 1.127502,-0.47293 0.103317,-0.58517 -0.484323,-0.95773 -0.978047,-1.12905 -0.493711,-0.17132 -0.896221,-0.4662 -1.359454,-0.43305 z m -2.508451,0.65935 c -0.248633,0.0484 -1.124165,0.12077 -1.432823,0.43247 -0.308659,0.31171 -0.614446,0.19197 -1.019426,0.31432 -0.40498,0.12233 -0.425036,0.75256 -0.243254,1.21097 0.181781,0.45843 0.875118,0.96061 1.427832,0.61363 0.552714,-0.34697 1.058774,-1.01243 1.171686,-1.5604 0.112886,-0.54795 0.604347,-0.57476 0.447651,-0.83923 -0.156669,-0.26447 -0.284115,-0.17384 -0.351679,-0.17176 -0.0675,0.003 0.248647,-0.0484 1.3e-5,0 z m -1.258516,3.56546 c -0.0026,0.55522 0.128532,1.43418 0.613243,1.88001 0.484737,0.44582 0.856472,0.84249 1.279904,1.31215 0.423406,0.46966 0.727219,0.51256 1.711396,0.8607 0.984189,0.34815 3.112651,0.46972 4.285462,-0.0203 1.172798,-0.49002 1.904203,-1.31529 2.10101,-2.13385 0.196819,-0.81856 -0.0052,-1.22785 -0.542965,-1.38289 -0.537417,-0.15505 -0.90844,0.44416 -1.153169,0.9006 -0.244741,0.4564 -0.286327,0.90764 -1.151268,1.17613 -0.864954,0.26848 -2.579501,0.34696 -3.553048,-0.24391 -0.973548,-0.59089 -1.298606,-1.92951 -1.695517,-2.56251 -0.927514,-1.4792 -1.891712,-0.67979 -1.895048,0.21391 z m 1.481896,3.44479 c -0.248608,0.009 -0.519456,0.5476 -0.122067,0.85935 0.397441,0.31173 1.143035,0.65082 1.450711,1.12958 0.307688,0.47876 0.851752,0.15369 0.961922,-0.31441 0.110171,-0.46812 -0.561042,-0.48049 -0.953259,-0.73013 -0.392221,-0.24965 -1.03311,-0.93862 -1.33732,-0.94439 -0.304223,-0.005 0.24862,-0.009 0,0 z m 5.319852,1.65613 c -0.316416,0.006 -0.395682,0.59788 -0.813451,1.18004 -0.417781,0.58216 -1.883436,0.97808 -2.566027,0.79387 -0.682604,-0.18421 -0.911156,-0.10875 -1.240132,-0.58785 -0.328986,-0.47908 -0.73725,-0.26073 -0.563434,0.4081 0.173828,0.66883 0.398488,1.19953 1.388888,1.32346 0.990383,0.124 2.353626,0.15643 3.09394,-0.3976 0.740328,-0.55403 1.060572,-1.20704 1.24428,-1.68483 0.183708,-0.4778 -0.168333,-1.07508 -0.480535,-1.03391 -0.312214,0.0411 -0.05327,-0.001 -0.06362,-0.001 -0.01035,1.8e-4 0.316404,-0.006 0,-3e-5 z"
       sodipodi:nodetypes="zzzzzzzzzzzzzzzzzzzzzzzzzzzzzzzzzzzzzzzzzzzzzz" />
    <path
       id="path24167-6"
       style="display:inline;fill:#fff1d6;fill-opacity:1;stroke-width:0.3;stroke-linecap:round;stroke-linejoin:round;stroke-dasharray:none"
       d="m 90.285652,132.88724 c -0.598928,-0.038 -0.7065,0.7605 -0.362502,1.12179 0.259534,0.44343 0.798646,0.4672 1.250745,0.51843 0.503461,0.0406 0.773223,0.50305 0.979211,0.90562 0.292288,0.58702 0.567624,1.20561 1.072365,1.64602 0.424259,0.41611 0.881027,0.90152 1.500076,0.98199 0.606946,0.0974 0.721785,-0.61988 0.697009,-1.06775 -0.01306,-0.6979 -0.416773,-1.41287 -1.094644,-1.65574 -0.794507,-0.39784 -1.333657,-1.1429 -2.104928,-1.5745 -0.498767,-0.2907 -0.993422,-0.60246 -1.530593,-0.81592 -0.131248,-0.0409 -0.268857,-0.0658 -0.406739,-0.0599 z"
       sodipodi:nodetypes="cccccccccccc" />
    <path
       id="path1-3-0"
       style="fill:#ffd580;fill-opacity:1;stroke-width:0.200001;stroke-linecap:round;stroke-linejoin:round;stroke-dasharray:none"
       d="m 90.090876,130.07704 c -0.05573,0.003 -0.111334,0.0142 -0.167325,0.0347 -0.447923,0.16649 -0.417458,0.40451 -0.363304,0.64536 0.153644,0.6833 1.076399,1.50063 1.715207,1.2135 0.422565,-0.18992 0.394053,-0.98587 0.152906,-1.38146 -0.248491,-0.4076 -0.947,-0.53189 -1.337484,-0.51206 z m -3.081789,1.00862 c -0.167118,0.004 -0.324033,0.18451 -0.530241,0.25214 -0.299956,0.0984 -0.01875,0.72053 -0.68466,0.30697 -0.665898,-0.41356 -0.30968,0.53825 -0.06569,0.91452 0.24394,0.37629 0.212906,1.16879 0.669894,1.19944 0.37626,0.0253 0.540753,-0.554 0.678492,-0.90506 0.200298,-0.51054 0.446591,-1.32036 0.171863,-1.63625 -0.08586,-0.0987 -0.163652,-0.13347 -0.239608,-0.13176 z m 6.704832,-0.12965 c -0.07565,0.0129 -0.174799,0.0597 -0.305141,0.15362 -0.521383,0.37578 -0.498302,1.11765 0.03,1.78577 0.528301,0.66812 1.302313,0.9561 1.81083,1.44917 0.508504,0.49306 0.222112,1.08237 0.172419,1.6408 -0.04965,0.55844 0.02353,1.2992 0.615222,0.75151 0.591739,-0.54767 0.312253,-0.79095 0.228914,-1.49729 -0.0834,-0.70636 0.0039,-1.51103 -0.65898,-1.93176 -0.662885,-0.42072 -0.826524,-0.52888 -1.452336,-0.8355 -0.625812,-0.30661 -0.200065,-0.55725 -0.200039,-0.96468 2.5e-5,-0.30556 -0.01397,-0.58811 -0.24085,-0.55164 z m -1.912414,4.06351 c -0.381756,0.0473 -0.448854,1.13514 -0.293258,1.63785 0.177837,0.57454 0.767495,0.72093 1.298434,0.52444 0.530938,-0.1965 0.496607,0.30886 -0.03427,0.25654 -0.530861,-0.0524 -1.137743,0.11496 -1.702314,-0.006 -0.564572,-0.12129 -1.069611,-0.45065 -1.634997,-0.56261 -0.506258,-0.10021 -1.367527,-0.57656 -1.545481,-0.0921 -0.258396,0.70335 1.11826,1.02507 1.79692,1.3507 0.678661,0.32563 1.393825,0.22702 2.217491,0.31429 0.823666,0.0873 1.773098,-0.33029 2.627358,-0.62838 0.854274,-0.29808 0.35592,-0.68944 -0.122713,-0.88673 -0.47866,-0.19733 -0.922432,-0.69426 -1.450397,-0.83661 -0.527977,-0.14235 -0.432289,-0.69907 -0.973379,-1.02261 -0.06763,-0.0405 -0.128791,-0.0551 -0.183372,-0.0482 z m -1.526055,4.58106 c -0.382222,0.0537 -0.832627,0.64483 -0.4506,1.08997 0.407489,0.47484 1.162428,0.47731 1.578528,0.43505 0.4161,-0.0423 1.340071,-0.0415 0.666493,0.26061 -0.673579,0.3021 -1.426113,0.22045 -2.052753,0.22281 -0.626652,0.003 -1.321402,-0.53449 -1.690783,0.0163 -0.369382,0.55076 0.766386,1.1473 1.278627,0.92056 0.512228,-0.22673 1.012922,0.14637 1.609174,0.008 0.596239,-0.13872 0.993292,-0.0994 1.578489,-0.78307 0.585183,-0.68363 0.989155,-0.83952 0.763525,-1.62225 -0.225617,-0.78273 -0.609519,-0.21294 -1.140161,-0.10642 -0.530654,0.10642 -1.185625,-0.41779 -1.558123,-0.43358 -0.37251,-0.0158 -0.113532,0.0116 -0.507223,-0.0104 -0.0247,-0.001 -0.04966,-3.8e-4 -0.07513,0.003 z m 0.871821,1.90522 0.0039,0.005 z"
       sodipodi:nodetypes="ssaaassssssssssssssscssssscsssssaassssssssscsssssssccsccc" />
    <path
       style="display:inline;fill:none;stroke:#1a1a1a;stroke-width:0.200001;stroke-linecap:round;stroke-linejoin:round;stroke-dasharray:none;stroke-opacity:1"
       d="m 103.54848,143.10146 -2.24648,0.009 1.22862,2.66938 0.81032,-2.00556"
       id="path129231-7-1-3-9"
       sodipodi:nodetypes="cccc" />
    <path
       style="fill:none;fill-opacity:1;stroke:#1a1a1a;stroke-width:0.200001;stroke-linecap:round;stroke-linejoin:round;stroke-dasharray:none;stroke-opacity:1"
       d="m 99.513914,134.71327 c 0,0 0.910656,0.37209 2.004776,1.95292 1.10273,1.59323 0.95607,5.50245 0.95607,5.50245"
       id="path196-93"
       sodipodi:nodetypes="csc" />
    <path
       style="fill:none;fill-opacity:1;stroke:#1a1a1a;stroke-width:0.200001;stroke-linecap:round;stroke-linejoin:round;stroke-dasharray:none;stroke-opacity:1"
       d="m 98.305155,132.90594 c 0,0 0.455695,1.08061 0.458203,1.65209 0.0026,0.5934 -0.460763,1.71955 -0.460763,1.71955"
       id="path239-6-60"
       sodipodi:nodetypes="cac" />
    <path
       style="fill:none;stroke:#000000;stroke-width:0.199999;stroke-linecap:round;stroke-linejoin:round;stroke-dasharray:none;stroke-opacity:1"
       d="m 88.972297,139.00701 c 0,0 -0.230805,0.79234 -0.235756,1.19993 -0.004,0.28019 -0.03107,0.60818 0.14202,0.82853 0.115212,0.14667 0.331652,0.18123 0.513634,0.22242 0.208184,0.0471 0.427627,0.001 0.639958,0.0234 0.304673,0.0315 0.599457,0.14958 0.90571,0.15506 0.259272,0.005 0.526445,-0.0175 0.77101,-0.10371 0.227342,-0.0802 0.439806,-0.21281 0.618733,-0.37431 0.176386,-0.15922 0.304515,-0.36687 0.429286,-0.56907 0.04055,-0.0657 0.102835,-0.2078 0.102835,-0.2078"
       id="path14385-8"
       sodipodi:nodetypes="caaaaaaaac" />
    <path
       style="fill:none;stroke:#000000;stroke-width:0.199999;stroke-linecap:round;stroke-linejoin:round;stroke-dasharray:none;stroke-opacity:1"
       d="m 89.610176,139.05305 3.466346,0.72935 -0.05675,0.18616 -3.205902,-0.63694 c 0,0 -0.130881,0.21404 -0.235835,0.27241 -0.134502,0.0748 -0.312441,0.12803 -0.456028,0.0726 -0.12219,-0.0472 -0.245632,-0.30649 -0.245632,-0.30649"
       id="path14387-4"
       sodipodi:nodetypes="ccccaac" />
    <path
       style="fill:none;stroke:#000000;stroke-width:0.199999;stroke-linecap:round;stroke-linejoin:round;stroke-dasharray:none;stroke-opacity:1"
       d="m 89.610176,139.05305 c 0,0 0.0066,0.18944 -0.15869,0.24988 -0.241312,0.0883 -0.340566,-0.0661 -0.340566,-0.0661 l -0.644554,-1.06876 c 0,0 -0.101254,-0.18289 0.01185,-0.26261 0.114027,-0.0802 0.259351,0.0338 0.259351,0.0338 l 0.827431,0.91862"
       id="path14389-5"
       sodipodi:nodetypes="csccscc" />
    <path
       style="fill:none;stroke:#000000;stroke-width:0.199999;stroke-linecap:round;stroke-linejoin:round;stroke-dasharray:none;stroke-opacity:1"
       d="m 86.470135,132.3517 c 0.004,0.0367 0.0092,0.0727 0.02159,0.0975 0.03226,0.0665 0.09546,0.11829 0.160967,0.15243 0.04069,0.0213 0.08914,0.0309 0.134884,0.0279 0.05201,-0.004 0.147642,-0.0509 0.147642,-0.0509"
       id="path14732-0"
       sodipodi:nodetypes="csaac" />
    <path
       style="fill:none;stroke:#000000;stroke-width:0.199999;stroke-linecap:round;stroke-linejoin:round;stroke-dasharray:none;stroke-opacity:1"
       d="m 86.407934,132.14338 c 0,0 0.420266,0.29368 0.663396,0.30503 0.08348,0.004 0.153501,-0.0733 0.236493,-0.0831 0.06781,-0.008 0.159625,-0.0304 0.203734,0.0218 0.06254,0.0739 0.03318,0.20728 -0.01738,0.28979 -0.04371,0.0712 -0.132724,0.13117 -0.216177,0.12697 -0.04358,-0.003 -0.08638,-0.0383 -0.105732,-0.0774 -0.01527,-0.031 0.0026,-0.10384 0.0026,-0.10384"
       id="path14734-3"
       sodipodi:nodetypes="caaaaaac" />
    <path
       style="fill:none;stroke:#000000;stroke-width:0.199999;stroke-linecap:round;stroke-linejoin:round;stroke-dasharray:none;stroke-opacity:1"
       d="m 87.652906,133.22851 c 0.158096,-0.12592 0.264763,-0.31509 0.337182,-0.50371 0.06399,-0.1667 0.103756,-0.35371 0.0765,-0.5302 -0.01435,-0.0931 -0.0079,-0.2111 -0.122717,-0.25458"
       id="path14736-6"
       sodipodi:nodetypes="caac" />
    <path
       style="fill:none;stroke:#000000;stroke-width:0.199999;stroke-linecap:round;stroke-linejoin:round;stroke-dasharray:none;stroke-opacity:1"
       d="m 88.437952,131.61109 c 0.08822,-0.052 0.17266,-0.0969 0.248528,-0.12987 0.148103,-0.0644 0.314245,-0.0751 0.472619,-0.10686 0.09612,-0.0193 0.192225,-0.0414 0.289885,-0.0506 0.128116,-0.0118 0.257627,-0.0147 0.386072,-0.007 0.198256,0.0131 0.397197,0.0369 0.589765,0.0857 0.129696,0.0329 0.273717,0.0531 0.376789,0.13835 0.111657,0.0924 0.120874,0.27062 0.223603,0.37284 0.102176,0.10174 0.233821,0.18 0.372206,0.2207 0.133014,0.0392 0.280722,0.0472 0.415698,0.0154 0.100728,-0.0237 0.206775,-0.0687 0.272492,-0.14872 0.0237,-0.0288 0.04385,-0.0709 0.03358,-0.10673 -0.04411,-0.15365 -0.224722,-0.2342 -0.364622,-0.31161 -0.154805,-0.0857 -0.319973,-0.16892 -0.490658,-0.22745"
       id="path15040-1"
       sodipodi:nodetypes="csaaaaaaaaaasc" />
    <path
       style="fill:none;stroke:#000000;stroke-width:0.199999;stroke-linecap:round;stroke-linejoin:round;stroke-dasharray:none;stroke-opacity:1"
       d="m 89.167907,137.99922 c -0.04227,-0.33606 -0.03832,-0.65573 -0.05017,-1.05694"
       id="path15044-0"
       sodipodi:nodetypes="cc" />
    <path
       style="fill:none;stroke:#000000;stroke-width:0.199999;stroke-linecap:round;stroke-linejoin:round;stroke-dasharray:none;stroke-opacity:1"
       d="m 90.192278,138.74495 c 0.02344,-0.40739 0.06162,-1.04446 0.103756,-1.62738"
       id="path15046-6"
       sodipodi:nodetypes="cc" />
    <path
       style="fill:none;stroke:#000000;stroke-width:0.199999;stroke-linecap:round;stroke-linejoin:round;stroke-dasharray:none;stroke-opacity:1"
       d="m 93.141462,139.72983 0.320249,-0.2552 c 0,0 0.09941,-0.0886 0.06847,-0.15142 -0.05254,-0.10712 -0.170777,-0.0406 -0.170777,-0.0406 l -0.207842,0.11961 -0.440227,0.30329"
       id="path15425-3"
       sodipodi:nodetypes="ccscc" />
    <path
       style="fill:none;stroke:#000000;stroke-width:0.199999;stroke-linecap:round;stroke-linejoin:round;stroke-dasharray:none;stroke-opacity:1"
       d="m 93.813943,138.95991 c 0.454567,-0.586 0.564169,-0.75628 1.067282,-1.52508"
       id="path15427-2"
       sodipodi:nodetypes="cc" />
    <path
       style="fill:none;stroke:#000000;stroke-width:0.199999;stroke-linecap:round;stroke-linejoin:round;stroke-dasharray:none;stroke-opacity:1"
       d="m 92.151602,139.14021 c 0.177663,-0.37419 0.313745,-0.74837 0.400529,-1.12255"
       id="path16081-0"
       sodipodi:nodetypes="cc" />
    <path
       style="fill:none;stroke:#000000;stroke-width:0.199999;stroke-linecap:round;stroke-linejoin:round;stroke-dasharray:none;stroke-opacity:1"
       d="m 92.526179,132.13205 c 0.127457,0.0761 0.278141,0.1229 0.409495,0.19893 0.406243,0.23505 0.808997,0.48504 1.164626,0.79137 0.413446,0.35613 0.801492,0.75304 1.110536,1.20282 0.181271,0.26384 0.364873,0.54675 0.425059,0.86116 0.06505,0.33971 0.0039,0.69941 -0.08322,1.03431 -0.07097,0.27499 -0.200759,0.53543 -0.351416,0.77618 -0.151474,0.24203 -0.327188,0.47707 -0.547355,0.65883 -0.138175,0.11409 -0.301525,0.2008 -0.470985,0.25896 -0.179823,0.0618 -0.373958,0.0719 -0.563221,0.09 -0.168894,0.0162 -0.339078,0.0154 -0.508736,0.0164 -0.281222,0.001 -0.562878,0.001 -0.843495,-0.0164 -0.333706,-0.022 -0.66832,-0.0502 -0.997009,-0.11185 -0.265159,-0.0497 -0.63963,-0.1544 -0.945026,-0.27396 -0.306846,-0.12014 -0.657708,-0.29318 -0.883945,-0.44253 -0.271267,-0.17908 -0.525168,-0.38748 -0.754116,-0.61817 -0.121006,-0.12184 -0.236349,-0.24951 -0.34665,-0.38154 -0.171013,-0.20468 -0.329848,-0.41994 -0.478464,-0.64078 -0.15973,-0.23737 -0.299959,-0.48929 -0.415724,-0.75092 -0.11587,-0.26197 -0.214136,-0.53412 -0.276442,-0.81373 -0.07268,-0.32608 -0.09941,-0.66217 -0.110998,-0.99605 -9.48e-4,-0.0325 1.97e-4,-0.0652 0.0039,-0.0975 0.004,-0.0271 0.01593,-0.0802 0.01593,-0.0802"
       id="path16083-6"
       sodipodi:nodetypes="caaaaaaaaaaaaaasssaaaac" />
    <path
       style="fill:none;stroke:#000000;stroke-width:0.199999;stroke-linecap:round;stroke-linejoin:round;stroke-dasharray:none"
       d="m 90.966211,140.02807 1.405874,0.28513"
       id="path11453-1"
       sodipodi:nodetypes="cc" />
    <path
       style="fill:none;stroke:#000000;stroke-width:0.199999;stroke-linecap:round;stroke-linejoin:round;stroke-dasharray:none"
       d="m 89.869672,140.77368 1.429495,0.2533"
       id="path11461-5"
       sodipodi:nodetypes="cc" />
    <path
       style="fill:none;stroke:#000000;stroke-width:0.199999;stroke-linecap:round;stroke-linejoin:round;stroke-dasharray:none"
       d="m 89.327637,140.11748 1.405873,0.28514"
       id="path11467-54"
       sodipodi:nodetypes="cc" />
    <path
       style="fill:none;stroke:#000000;stroke-width:0.199999;stroke-linecap:round;stroke-linejoin:round;stroke-dasharray:none"
       d="m 86.582806,133.0234 c 0,0 0.150051,1.41207 0.381673,2.10167 0.292704,0.87142 1.247776,2.38834 1.247776,2.38834"
       id="path1-7"
       sodipodi:nodetypes="csc" />
    <path
       style="fill:none;stroke:#000000;stroke-width:0.199999;stroke-linecap:round;stroke-linejoin:round;stroke-dasharray:none;stroke-opacity:1"
       d="m 88.810316,141.97288 c -0.357959,-0.14741 -0.760042,-0.33258 -0.947817,-0.67117 -0.367453,-0.66257 0.05741,-1.53562 -0.132105,-2.26922 -0.363385,-1.40664 -1.502967,-2.52776 -1.885773,-3.92924 -0.274046,-1.00336 -0.64034,-2.13796 -0.26741,-3.10891 0.152277,-0.39649 0.542944,-0.69717 0.930898,-0.86984 0.39538,-0.17598 0.867077,-0.0375 1.293453,-0.11146 0.716472,-0.12435 1.382778,-0.52983 2.109481,-0.55629 0.8668,-0.0315 1.774788,0.10542 2.55774,0.47871 1.513317,0.72159 3.037944,1.78175 3.831377,3.25894 0.354905,0.66073 0.438661,1.50337 0.269161,2.23403 -0.274572,1.18363 -1.268448,2.07584 -1.984749,3.05722 -0.658287,0.90191 -1.134948,2.06776 -2.119778,2.59373 -0.565815,0.30218 -1.274479,0.20562 -1.915504,0.18326 -0.587304,-0.0205 -1.195582,-0.066 -1.738974,-0.28978 z"
       id="path27"
       sodipodi:nodetypes="aaaaaaaaaaaaaaa" />
  </g>
</svg>
