<?xml version="1.0" encoding="UTF-8" standalone="no"?>
<!-- Created with Inkscape (http://www.inkscape.org/) -->

<svg
   width="343.1348"
   height="83.976372"
   viewBox="0 0 90.78774 22.218748"
   version="1.1"
   id="svg1"
   inkscape:version="1.3.2 (091e20ef0f, 2023-11-25, custom)"
   sodipodi:docname="decollage.svg"
   xmlns:inkscape="http://www.inkscape.org/namespaces/inkscape"
   xmlns:sodipodi="http://sodipodi.sourceforge.net/DTD/sodipodi-0.dtd"
   xmlns="http://www.w3.org/2000/svg"
   xmlns:svg="http://www.w3.org/2000/svg">
  <sodipodi:namedview
     id="namedview1"
     pagecolor="#ffffff"
     bordercolor="#666666"
     borderopacity="1.0"
     inkscape:showpageshadow="2"
     inkscape:pageopacity="0.0"
     inkscape:pagecheckerboard="0"
     inkscape:deskcolor="#d1d1d1"
     inkscape:document-units="mm"
     inkscape:zoom="0.45088264"
     inkscape:cx="237.31231"
     inkscape:cy="-36.594888"
     inkscape:window-width="956"
     inkscape:window-height="1029"
     inkscape:window-x="960"
     inkscape:window-y="0"
     inkscape:window-maximized="1"
     inkscape:current-layer="layer1"
     showgrid="false" />
  <defs
     id="defs1">
    <style
       transform="translate(-130.185, 41.1648)"
       id="style111"><![CDATA[
polygon {
shape-rendering:crispEdges;
stroke-width:0.098900;
}
.s0 {
stroke:#000000;
stroke-width:0.080355;
stroke-linecap:round;
stroke-linejoin:round;
fill:none;
}
.s1 {
stroke:#000000;
stroke-width:0.080355;
stroke-linecap:round;
stroke-linejoin:round;
fill:none;
}
.s2 {
stroke:#19b219;
stroke-width:0.080355;
stroke-linecap:round;
stroke-linejoin:round;
fill:none;
}
.s3 {
stroke:#7f4c00;
stroke-width:0.080355;
stroke-linecap:round;
stroke-linejoin:round;
fill:none;
}
.s4 {
stroke:#00cc00;
stroke-width:0.080355;
stroke-linecap:round;
stroke-linejoin:round;
fill:none;
}
.s5 {
stroke:#000000;
stroke-width:0.053570;
stroke-linecap:round;
stroke-linejoin:round;
fill:none;
}
.s6 {
stroke:#ff19ff;
stroke-width:0.053570;
stroke-linecap:round;
stroke-linejoin:round;
fill:none;
}
.s7 {
stroke:#ff0000;
stroke-width:0.080355;
stroke-linecap:round;
stroke-linejoin:round;
fill:none;
}
.s8 {
stroke:#ffff00;
stroke-width:0.080355;
stroke-linecap:round;
stroke-linejoin:round;
fill:none;
}
.s9 {
stroke:#001919;
stroke-width:0.053570;
stroke-linecap:round;
stroke-linejoin:round;
fill:none;
}
.sa {
stroke:#006666;
stroke-width:0.053570;
stroke-linecap:round;
stroke-linejoin:round;
fill:none;
}
.sb {
stroke:#00ffff;
stroke-width:0.160711;
stroke-linecap:round;
stroke-linejoin:round;
fill:none;
}
.sc {
stroke:#ff0000;
stroke-width:0.428562;
stroke-linecap:round;
stroke-linejoin:round;
fill:none;
}
.sd {
stroke:#191919;
stroke-width:0.053570;
stroke-linecap:round;
stroke-linejoin:round;
fill:none;
}
.se {
stroke:#000000;
stroke-width:0.053570;
stroke-linecap:round;
stroke-linejoin:round;
stroke-dasharray:0.804,0.804;
fill:none;
}
.sf {
stroke:#000000;
stroke-width:0.160711;
stroke-linecap:round;
stroke-linejoin:round;
fill:none;
}
.s100 {
stroke:#ff0000;
stroke-width:0.500000;
stroke-linecap:round;
stroke-linejoin:round;
fill:none;
}
]]></style>
  </defs>
  <g
     inkscape:label="Layer 1"
     inkscape:groupmode="layer"
     id="layer1"
     transform="translate(-26.25587,-126.75816)">
    <path
       id="path1"
       style="fill:#fff6e5;fill-opacity:1;stroke:none;stroke-width:0.2;stroke-linecap:round;stroke-linejoin:round"
       d="m 72.936137,131.90223 c -8.10891,-5.45709 -19.54584,-0.37277 -29.32,-0.38244 -4.85332,-0.005 -10.92371,-3.05431 -14.55908,0.16109 -2.80089,2.47732 -3.8634,8.22577 -1.49332,11.11797 3.56931,4.35562 11.22781,1.12316 16.85897,1.08512 10.86545,-0.0734 26.84752,6.74754 32.49853,-2.53305 1.77774,-2.91958 -1.14924,-7.54023 -3.9851,-9.44869 z"
       sodipodi:nodetypes="aaaaaaa" />
    <path
       id="path8"
       style="fill:#ffe6b3;fill-opacity:1;stroke:none;stroke-width:0.2;stroke-linecap:round;stroke-linejoin:round"
       d="m 75.361427,140.42377 c 0.73981,-1.88001 0.0992,-4.52261 -1.3763,-5.90268 -2.03034,-1.89899 -5.50868,-0.78142 -8.23052,-1.34715 -2.49706,-0.51902 -4.86812,-1.81753 -7.4179,-1.87536 -2.48358,-0.0563 -4.83551,1.19054 -7.30074,1.49718 -4.48508,0.55788 -9.02543,0.62083 -13.54508,0.61312 -2.39114,-0.004 -5.10373,-1.56083 -7.16494,-0.34881 -2.01698,1.18601 -3.61969,4.00917 -3.1102,6.29286 0.36116,1.61885 2.32866,2.54576 3.89171,3.10073 4.32915,1.53709 9.19239,-0.0859 13.78114,0.13209 4.35009,0.20671 8.7248,0.3796 13.0174,1.11411 2.41584,0.41338 4.66832,1.93115 7.11773,1.8445 1.91289,-0.0677 3.72623,-0.98317 5.44296,-1.82967 1.76335,-0.86949 4.1748,-1.46141 4.89474,-3.29092 z"
       sodipodi:nodetypes="aaaaaaaaaaaaaa" />
    <path
       id="path141"
       style="fill:#ffdd99;fill-opacity:1;stroke-width:1;stroke-linecap:round;stroke-linejoin:round"
       d="m 53.445967,134.81421 c -1.10643,0.39373 -2.35261,0.36697 -3.5168,0.21244 -1.00097,-0.13287 -1.86164,-0.96702 -2.87139,-0.96515 -1.11911,0.002 -2.07034,1.2384 -3.17839,1.08144 -1.30057,-0.18423 -1.91793,-2.23542 -3.23132,-2.2555 -1.50812,-0.0231 -3.17976,1.09499 -3.78782,2.47528 -0.80968,1.83797 -0.60873,4.70765 0.97225,5.94628 0.90178,0.7065 2.28028,-0.27472 3.42586,-0.27321 0.93677,0.001 1.86731,0.15266 2.80081,0.23077 1.93552,0.16194 3.86523,0.41514 5.80594,0.49318 1.8905,0.076 3.81699,-0.37643 5.67604,-0.0247 1.26549,0.23942 2.33939,1.12174 3.5906,1.4271 2.8742,0.70146 6.08329,1.98697 8.83095,0.88995 0.91184,-0.36406 1.09759,-1.69832 1.92136,-2.23254 1.35795,-0.88064 3.91994,0.0528 4.65211,-1.39068 0.77005,-1.5181 -0.33604,-3.80708 -1.71008,-4.81187 -1.60333,-1.17246 -4.02706,0.27629 -5.95553,-0.19945 -2.11154,-0.5209 -3.749,-2.37775 -5.87427,-2.83942 -1.49346,-0.32443 -3.13443,-0.38212 -4.58372,0.10288 -1.15503,0.38652 -1.8191,1.72489 -2.9666,2.13322 z m -21.76595,-1.18573 c -1.92967,-0.20685 -4.06803,2.3143 -3.97628,4.25284 0.0514,1.0858 1.79526,1.2875 2.44217,2.16105 0.47887,0.64664 0.19929,2.15567 1.00294,2.19573 1.85187,0.0923 2.81221,-2.95063 2.80279,-4.80477 -0.007,-1.47711 -0.80291,-3.64742 -2.27162,-3.80485 z"
       sodipodi:nodetypes="aaaaaaaaaaaaaaaaaaaaaaaaaaa" />
    <path
       id="text2"
       style="font-size:7.76111px;line-height:1.25;font-family:Tibet;-inkscape-font-specification:Tibet;text-align:justify;letter-spacing:0px;word-spacing:0px;stroke-width:0.264583"
       d="m 57.508226,132.91747 c -0.108635,0 -0.173059,0.0682 -0.19327,0.20464 v 6.91948 c 0.01769,0.12884 0.07832,0.19327 0.181901,0.19327 h 0.03411 c 0.0859,0 0.138952,-0.0606 0.159163,-0.1819 v -6.96495 c 0,-0.0783 -0.06063,-0.13517 -0.181901,-0.17054 z m 1.652095,0 c -0.108635,0 -0.173058,0.0682 -0.193269,0.20464 v 6.91948 c 0.01768,0.12884 0.07832,0.19327 0.181901,0.19327 h 0.03411 c 0.0859,0 0.138952,-0.0606 0.159164,-0.1819 v -6.96495 c 0,-0.0783 -0.06063,-0.13517 -0.181902,-0.17054 z m -27.538887,1.42111 c -0.111162,0.0278 -0.166915,0.083 -0.166915,0.16639 v 0.076 c 0.75792,1.13688 1.136882,2.24833 1.136882,3.33468 0,0.9095 -0.247416,1.82441 -0.742591,2.74402 -0.262745,0.41938 -0.394291,0.64136 -0.394291,0.66662 v 0.0455 c 0.02779,0.11116 0.08354,0.16691 0.166915,0.16691 h 0.04547 c 0.02779,0 0.05811,-0.0103 0.09095,-0.0305 0.808448,-1.1773 1.212846,-2.3445 1.212846,-3.50159 v -0.13643 c 0,-0.70739 -0.166743,-1.45991 -0.500228,-2.25826 -0.416856,-0.84887 -0.684828,-1.2733 -0.803569,-1.2733 z m -0.731222,0.45837 c -0.04295,0 -0.0987,0.033 -0.166914,0.0987 -0.01011,0.29306 -0.202285,0.65686 -0.576193,1.0914 -0.482542,0.47244 -0.945966,0.83624 -1.390612,1.09141 -0.373908,0.17937 -0.56069,0.31689 -0.56069,0.41289 v 0.0491 c 0.03032,0.12126 0.09095,0.1819 0.181901,0.1819 h 0.04909 c 0.277904,-0.11622 0.641707,-0.33062 1.091406,-0.64389 0.404224,-0.26022 0.795645,-0.62942 1.174605,-1.10691 h 0.0155 v 4.08141 c 0.03032,0.12126 0.09095,0.1819 0.181901,0.1819 h 0.04909 c 0.121267,-0.0303 0.181901,-0.0909 0.181901,-0.1819 v -5.07411 c -0.03032,-0.12127 -0.09095,-0.1819 -0.181901,-0.1819 z m 7.541142,0.008 c -0.116214,0 -0.181729,0.0769 -0.196887,0.23099 v 4.96817 c 0.02021,0.15411 0.08084,0.231 0.181901,0.231 0.565914,-0.12127 1.229096,-0.31833 1.989543,-0.59118 1.098984,-0.40928 1.845538,-0.78284 2.239656,-1.12138 0.679602,-0.4497 1.01906,-1.108 1.01906,-1.97456 0,-0.28548 -0.104502,-0.57079 -0.314193,-0.85628 -0.56844,-0.59117 -1.215373,-0.88676 -1.94045,-0.88676 z m 8.53798,0 c -0.07579,0 -0.197059,0.1413 -0.363802,0.42426 -0.242534,0.33349 -0.363802,0.53543 -0.363802,0.60617 v 0.0155 c 0,0.0935 0.05575,0.14871 0.166915,0.1664 h 0.02997 c 0.02779,0 0.05811,-0.01 0.09095,-0.03 0.434541,-0.60381 0.652156,-0.93241 0.652156,-0.98547 0,-0.11874 -0.06603,-0.18425 -0.197403,-0.19688 z m -8.306986,0.41289 h 2.550749 c 0.53307,0 0.977546,0.11478 1.333768,0.34468 0.459805,0.30317 0.689881,0.61553 0.689881,0.93638 v 0.28009 c 0,0.6897 -0.526757,1.31499 -1.580266,1.87585 -0.828659,0.40675 -1.826935,0.77434 -2.994132,1.10278 z m 8.280631,1.1405 c -0.586125,0 -1.135619,0.12667 -1.648478,0.37931 -0.750341,0.4219 -1.125513,0.93189 -1.125513,1.53065 v 0.0569 c 0,0.3158 0.122359,0.63033 0.36742,0.94361 0.608862,0.64423 1.414959,0.96635 2.41794,0.96635 h 0.905371 c 0.123794,-0.0227 0.186035,-0.0807 0.186035,-0.17415 v -0.0114 c 0,-0.11116 -0.06603,-0.17559 -0.197404,-0.19327 h -0.894002 c -0.389065,0 -0.777214,-0.0655 -1.163753,-0.19689 -0.828659,-0.34864 -1.242818,-0.79742 -1.242818,-1.34565 v -0.0341 c 0,-0.26022 0.1072,-0.51252 0.321944,-0.75758 0.530544,-0.52296 1.221861,-0.78444 2.073258,-0.78444 h 0.04548 c 0.08337,0 0.186781,0.0227 0.310575,0.0682 0.245061,0.11369 0.367419,0.31293 0.367419,0.59841 0,0.1339 -0.05036,0.24541 -0.151412,0.33383 -0.346116,0.24506 -0.81333,0.36742 -1.401981,0.36742 -0.09853,0 -0.202457,-0.0189 -0.311092,-0.0568 -0.25264,-0.0884 -0.378788,-0.25247 -0.378788,-0.49248 -0.01263,-0.15411 -0.07436,-0.23151 -0.185519,-0.23151 -0.128846,0.0303 -0.19327,0.0888 -0.19327,0.17467 v 0.0341 c 0,0.12632 0.02653,0.26384 0.07958,0.4129 0.222323,0.36127 0.54444,0.54208 0.966349,0.54208 0.06569,0 0.161518,-0.004 0.287838,-0.0114 1.111616,-0.11116 1.667598,-0.4652 1.667598,-1.06143 v -0.0114 c 0,-0.15411 -0.03032,-0.30678 -0.09095,-0.45837 -0.212218,-0.39159 -0.538125,-0.58756 -0.977718,-0.58756 z m 3.565674,0 c -0.293062,0 -0.600021,0.085 -0.920874,0.25425 -0.629074,0.43707 -0.943611,0.99632 -0.943611,1.67845 0,0.60634 0.356223,1.08543 1.068668,1.4366 0.800869,0.33854 1.675179,0.50747 2.622579,0.50747 h 0.02636 c 0.106109,-0.0278 0.159163,-0.0857 0.159163,-0.17415 v -0.0455 c 0,-0.0808 -0.06172,-0.1339 -0.185518,-0.15916 -0.386539,0 -0.823436,-0.0428 -1.311031,-0.12868 -1.333939,-0.25516 -2.000911,-0.73426 -2.000911,-1.4366 0,-0.42949 0.168924,-0.81712 0.507462,-1.16324 0.323379,-0.25264 0.59893,-0.37879 0.826306,-0.37879 0.245061,0 0.36742,-0.0644 0.36742,-0.19327 v -0.0382 c 0,-0.0859 -0.06063,-0.13895 -0.181901,-0.15916 z m 4.096908,0 c -0.54065,0 -1.004591,0.24145 -1.39113,0.72399 -0.361275,0.51033 -0.541569,1.02463 -0.541569,1.54254 0,0.24759 0.06551,0.4923 0.196887,0.73484 0.255167,0.5836 0.80736,0.8754 1.65623,0.8754 h 0.170532 c 0.563388,0 0.996494,-0.12615 1.299663,-0.37879 0.368854,-0.39665 0.553454,-0.79944 0.553454,-1.20871 0,-0.29054 -0.05845,-0.58992 -0.174666,-0.89814 -0.396645,-0.92719 -0.982428,-1.39113 -1.758032,-1.39113 z m 8.295101,0 c -0.57602,0 -1.129303,0.12667 -1.659847,0.37931 -0.742762,0.42948 -1.114144,0.93568 -1.114144,1.51928 v 0.0796 c 0,0.36128 0.160771,0.71371 0.481624,1.0573 0.611389,0.56087 1.379073,0.8413 2.303735,0.8413 h 0.03411 c 0.121267,-0.0227 0.181901,-0.0807 0.181901,-0.17415 -0.01516,-0.13643 -0.07958,-0.20464 -0.19327,-0.20464 h -0.02274 c -0.44212,0 -0.867647,-0.0807 -1.276924,-0.24236 -0.752867,-0.34865 -1.12913,-0.77848 -1.12913,-1.28881 v -0.0569 c 0,-0.21727 0.08825,-0.44683 0.2651,-0.68936 0.538123,-0.56086 1.247872,-0.84129 2.129586,-0.84129 h 0.04548 c 0.09348,0 0.204983,0.0265 0.33383,0.0796 0.229902,0.10611 0.344681,0.31293 0.344681,0.62115 v 2.61121 c 0,0.10611 0.06063,0.16783 0.181902,0.18552 h 0.01137 c 0.106109,0 0.167834,-0.0655 0.185519,-0.19689 v -3.48248 c -0.01769,-0.13137 -0.07941,-0.1974 -0.185519,-0.1974 h -0.01137 c -0.121268,0 -0.181902,0.0774 -0.181902,0.23151 -0.209691,-0.15411 -0.439766,-0.23151 -0.68988,-0.23151 z m 4.638476,0 c -0.646758,0 -1.241728,0.15319 -1.784904,0.45889 -0.649285,0.41938 -0.973584,0.88389 -0.973584,1.39423 v 0.15193 c 0,0.36632 0.186782,0.73122 0.56069,1.09502 0.611388,0.50528 1.336296,0.75809 2.175061,0.75809 h 0.07958 c 0.08842,0 0.146876,-0.0622 0.174667,-0.18603 0,-0.0606 -0.0395,-0.12127 -0.117823,-0.1819 -0.601283,0 -1.1378,-0.12236 -1.610237,-0.36742 -0.588652,-0.33349 -0.88315,-0.71894 -0.88315,-1.156 v -0.0796 c 0,-0.24506 0.1072,-0.48868 0.321944,-0.73122 0.522965,-0.51791 1.208885,-0.77669 2.057755,-0.77669 0.199586,0 0.364147,0.053 0.492993,0.15916 0.154111,0.0682 0.230994,0.30047 0.230994,0.69711 v 2.18643 c 0,0.47749 -0.03141,0.90842 -0.09457,1.29243 -0.229902,1.50321 -0.721461,2.25464 -1.474328,2.25464 -0.472437,0 -0.850308,-0.15267 -1.133265,-0.45837 -0.179374,-0.17432 -0.309312,-0.47479 -0.390157,-0.90175 0,-0.26022 -0.06821,-0.39067 -0.204638,-0.39067 -0.123794,0.0278 -0.185519,0.0808 -0.185519,0.15916 v 0.0951 c 0,0.16421 0.03899,0.36615 0.117306,0.60616 0.303168,0.84634 0.905716,1.26969 1.807641,1.26969 0.401698,0 0.76062,-0.17214 1.07642,-0.51573 0.570967,-0.73518 0.856279,-1.87965 0.856279,-3.43338 v -3.18327 c 0,-0.1238 -0.05684,-0.1958 -0.170532,-0.21601 h -0.02274 c -0.121267,0 -0.181901,0.0758 -0.181901,0.22738 -0.222323,-0.15159 -0.448609,-0.22738 -0.678512,-0.22738 z m 4.649846,0 c -0.586125,0 -1.135619,0.12667 -1.648479,0.37931 -0.750341,0.4219 -1.125512,0.93189 -1.125512,1.53065 v 0.0569 c 0,0.3158 0.122875,0.63033 0.367936,0.94361 0.608862,0.64423 1.414442,0.96635 2.417423,0.96635 h 0.905888 c 0.123794,-0.0227 0.185519,-0.0807 0.185519,-0.17415 v -0.0114 c 0,-0.11116 -0.06552,-0.17559 -0.196888,-0.19327 h -0.894519 c -0.389065,0 -0.776697,-0.0655 -1.163236,-0.19689 -0.828659,-0.34864 -1.242818,-0.79742 -1.242818,-1.34565 v -0.0341 c 0,-0.26022 0.1072,-0.51252 0.321944,-0.75758 0.530544,-0.52296 1.221345,-0.78444 2.072742,-0.78444 h 0.04547 c 0.08337,0 0.187298,0.0227 0.311092,0.0682 0.245061,0.11369 0.367419,0.31293 0.367419,0.59841 0,0.1339 -0.05036,0.24541 -0.151412,0.33383 -0.346116,0.24506 -0.813847,0.36742 -1.402498,0.36742 -0.09853,0 -0.20194,-0.0189 -0.310575,-0.0568 -0.25264,-0.0884 -0.378789,-0.25247 -0.378789,-0.49248 -0.01263,-0.15411 -0.07487,-0.23151 -0.186035,-0.23151 -0.128846,0.0303 -0.19327,0.0888 -0.19327,0.17467 v 0.0341 c 0,0.12632 0.02653,0.26384 0.07958,0.4129 0.222323,0.36127 0.544441,0.54208 0.966349,0.54208 0.06569,0 0.162035,-0.004 0.288355,-0.0114 1.111616,-0.11116 1.667082,-0.4652 1.667082,-1.06143 v -0.0114 c 0,-0.15411 -0.03032,-0.30678 -0.09095,-0.45837 -0.212217,-0.39159 -0.538124,-0.58756 -0.977718,-0.58756 z m -17.583423,0.37931 c 0.401697,0 0.746552,0.16513 1.034562,0.49609 0.353696,0.45475 0.5302,0.91869 0.5302,1.39113 v 0.0114 c 0,0.17685 -0.05036,0.35714 -0.151412,0.54157 -0.169269,0.45222 -0.617534,0.67851 -1.345137,0.67851 h -0.125057 c -0.490122,0 -0.847953,-0.0958 -1.072803,-0.28784 -0.282957,-0.30822 -0.424264,-0.61897 -0.424264,-0.93224 v -0.0114 c 0,-0.21222 0.04278,-0.43471 0.128675,-0.66714 0.310747,-0.8135 0.786056,-1.22008 1.425236,-1.22008 z" />
    <path
       id="path8957-2"
       style="fill:#fff6e5;fill-opacity:1;stroke:none;stroke-width:0.199999;stroke-linecap:round;stroke-linejoin:round;stroke-dasharray:none"
       d="m 92.466127,129.47152 c -0.589215,0.65518 -0.990989,1.59558 -0.929647,2.47459 0.101082,1.44848 1.094274,2.76251 2.083437,3.82546 1.250933,1.34424 2.886907,2.41668 4.636081,2.97544 2.584462,0.8256 6.069332,2.15377 8.130082,0.38902 1.71466,-1.46836 1.27012,-4.54431 0.7208,-6.73391 -0.54651,-2.17842 -1.66489,-4.85462 -3.79464,-5.56761 -1.27482,-0.42677 -2.49533,1.0645 -3.820065,1.29338 -1.475089,0.25482 -3.036399,-0.28597 -4.490255,0.0706 -0.918579,0.22531 -1.903346,0.56981 -2.535793,1.27306 z"
       sodipodi:nodetypes="aaaaaaaaaa" />
    <path
       id="path10038-9"
       style="fill:#ffe6b3;fill-opacity:1;stroke:none;stroke-width:0.199999;stroke-linecap:round;stroke-linejoin:round;stroke-dasharray:none"
       d="m 102.72113,127.7418 c -1.16882,0.41125 -1.3081,2.0135 -0.73983,2.90907 -1.04669,0.14841 -1.49913,-1.35019 -2.583299,-1.20272 -0.699185,0.0418 -1.276993,0.55126 -1.976403,0.58454 0.339716,-0.53783 -0.52715,-0.67865 -0.848547,-0.59649 -1.238049,-0.18391 -2.847931,-0.10582 -3.493102,1.16383 -0.897176,1.44282 -0.04475,3.71062 1.677433,4.02084 0.487767,1.19884 1.891499,1.49195 3.014813,1.76558 0.575017,0.82892 1.583703,1.85305 2.678455,1.32219 0.85913,-0.6847 1.94003,0.12315 2.73206,0.53188 0.7639,0.5279 2.02549,0.94714 2.66755,0.0149 0.56932,-0.75198 0.49232,-1.87029 -0.0568,-2.61123 0.81633,-1.335 0.11785,-2.8899 -0.37169,-4.20059 -0.37728,-1.2642 -0.47282,-2.94886 -1.79257,-3.61797 -0.28258,-0.1195 -0.60942,-0.18243 -0.90805,-0.0838 z m -2.64547,6.68333 c -0.140102,0.0757 -0.0374,-0.0522 0,0 z m 0.48368,0.11228 c 0.0124,0.0697 -0.0844,-0.0181 0,0 z"
       sodipodi:nodetypes="ccccccccccccccccccc" />
    <path
       id="path11320-3"
       style="fill:#ffdd99;fill-opacity:1;stroke:none;stroke-width:0.199999;stroke-linecap:round;stroke-linejoin:round;stroke-dasharray:none"
       d="m 96.228161,129.21113 c -1.665426,0.22011 -2.643429,1.42268 -0.424762,2.05237 1.188883,0.2918 3.187322,0.1545 4.565351,0.90506 1.37803,0.75055 3.23161,1.64018 3.35561,3.05018 0.12399,1.40999 -1.45519,0.0673 -1.8829,-0.61035 -0.42771,-0.67762 -1.40664,-1.66677 -2.32847,-1.52781 -0.92184,0.13898 -1.647577,0.79879 -1.374842,1.48674 0.272726,0.68795 1.637159,1.9962 0.40569,1.03455 -1.231466,-0.96164 -2.309276,-3.06156 -3.566754,-3.69571 -1.257488,-0.63414 -2.01094,1.21508 -0.801546,1.5237 1.209391,0.30863 1.463418,1.41558 2.221303,2.22164 0.757887,0.80606 1.605091,2.00092 2.703696,2.2568 1.098613,0.25585 1.585513,-1.09608 1.899003,-1.86226 0.31351,-0.76618 0.66451,0.51267 1.41358,0.81656 0.74908,0.30388 2.62205,0.6852 2.8461,-0.52997 0.22406,-1.21512 -0.58113,-1.82588 -0.92267,-2.84579 -0.34153,-1.01991 -0.51572,-2.46768 -0.13416,-3.38741 0.38156,-0.91974 -1.31893,-1.79082 -1.29542,-0.85594 0.0235,0.93487 0.001,2.28873 -0.81898,2.44417 -0.82007,0.15545 -1.00738,-0.81063 -2.279527,-1.04985 -0.979477,-1.26761 -2.4408,-1.57732 -3.58031,-1.42673 z"
       sodipodi:nodetypes="ccssscsssssssscssscccc" />
    <path
       style="fill:none;stroke:#000000;stroke-width:0.2;stroke-linecap:round;stroke-linejoin:round;stroke-dasharray:none;stroke-opacity:1"
       d="m 95.995231,134.47727 c 0,0 -0.252765,-0.35217 -0.357695,-0.54094 -0.110511,-0.2019 -0.127519,-0.45879 -0.280523,-0.63085 -0.307273,-0.34597 -0.744725,-0.59588 -1.192632,-0.70916 -0.204626,-0.0518 -0.6317,0.0264 -0.6317,0.0264"
       id="path25534-6-1"
       sodipodi:nodetypes="caaac" />
    <path
       style="fill:none;stroke:#000000;stroke-width:0.2;stroke-linecap:round;stroke-linejoin:round;stroke-dasharray:none;stroke-opacity:1"
       d="m 101.70848,132.07517 c 0,0 1.65962,1.22564 2.26691,2.04117 0.28198,0.37868 0.47383,0.8269 0.60636,1.28004 0.0608,0.20801 0.0821,0.64497 0.0821,0.64497"
       id="path25656-7-2"
       sodipodi:nodetypes="caac" />
    <path
       style="fill:none;stroke:#000000;stroke-width:0.2;stroke-linecap:round;stroke-linejoin:round;stroke-dasharray:none;stroke-opacity:1"
       d="m 94.422922,129.77286 c 0,0 0.925883,0.76536 1.468055,1.00473 0.313182,0.13828 0.660902,0.18402 0.999066,0.23506 0.879416,0.13271 2.660869,0.18235 2.660869,0.18235"
       id="path25536-5-7"
       sodipodi:nodetypes="caac" />
    <path
       style="fill:none;stroke:#000000;stroke-width:0.2;stroke-linecap:round;stroke-linejoin:round;stroke-dasharray:none;stroke-opacity:1"
       d="m 104.77689,136.67358 c 0,0 0.0195,0.2131 -0.0358,0.29514 -0.0688,0.10195 -0.20007,0.18078 -0.32322,0.17778 -0.076,-0.002 -0.14134,-0.0654 -0.19513,-0.11953 -0.18464,-0.18565 -0.2907,-0.43724 -0.40665,-0.67191 -0.14397,-0.29117 -0.17357,-0.63794 -0.3559,-0.90689 -0.19639,-0.28971 -0.47773,-0.51965 -0.76553,-0.71869 -0.59899,-0.41417 -1.24938,-0.80996 -1.96057,-0.96184 -0.47035,-0.10044 -1.440341,0.0516 -1.440341,0.0516"
       id="path25538-3-0"
       sodipodi:nodetypes="caaaaaaac" />
    <path
       style="fill:none;stroke:#000000;stroke-width:0.2;stroke-linecap:round;stroke-linejoin:round;stroke-dasharray:none;stroke-opacity:1"
       d="m 102.52646,136.4272 c -0.077,-0.0257 -0.14306,-0.0891 -0.18514,-0.1584 -0.15166,-0.25023 -0.11227,-0.57475 -0.19671,-0.8546 -0.0512,-0.16969 -0.0995,-0.30358 -0.18724,-0.49767"
       id="path25544-5-9"
       sodipodi:nodetypes="caac" />
    <path
       style="fill:none;stroke:#000000;stroke-width:0.2;stroke-linecap:round;stroke-linejoin:round;stroke-dasharray:none;stroke-opacity:1"
       d="m 101.69553,136.02602 c -0.0825,-0.0175 -0.18226,-0.0219 -0.23808,-0.0851 -0.0708,-0.0801 -0.0701,-0.31289 -0.0701,-0.31289"
       id="path25548-6-3"
       sodipodi:nodetypes="cac" />
    <path
       style="fill:none;stroke:#000000;stroke-width:0.2;stroke-linecap:round;stroke-linejoin:round;stroke-dasharray:none;stroke-opacity:1"
       d="m 101.34576,135.0835 c 0,0 -0.0115,-0.11905 -0.0192,-0.17834 -0.008,-0.0614 -0.0133,-0.12359 -0.0293,-0.18339 -0.0166,-0.064 -0.0706,-0.18565 -0.0706,-0.18565"
       id="path25550-2-6"
       sodipodi:nodetypes="caac" />
    <path
       style="fill:none;stroke:#000000;stroke-width:0.2;stroke-linecap:round;stroke-linejoin:round;stroke-dasharray:none;stroke-opacity:1"
       d="m 96.530894,135.00178 c 0,0 0.104859,0.1713 0.172173,0.24501 0.120763,0.13314 0.262798,0.24672 0.40923,0.35057 0.330303,0.2344 0.719339,0.37597 1.050369,0.60937 0.185513,0.13072 0.519894,0.4401 0.519894,0.4401"
       id="path25552-9-0"
       sodipodi:nodetypes="caaac" />
    <path
       style="fill:none;stroke:#000000;stroke-width:0.2;stroke-linecap:round;stroke-linejoin:round;stroke-dasharray:none;stroke-opacity:1"
       d="m 99.445378,137.02439 c 0,0 0.315406,0.28771 0.508548,0.36771 0.146014,0.0607 0.337254,0.16325 0.467784,0.075 0.18143,-0.12376 0.17649,-0.42556 0.14541,-0.64369 -0.0653,-0.45813 -0.3737,-0.86189 -0.671418,-1.21703 -0.226861,-0.27065 -0.824128,-0.66563 -0.824128,-0.66563"
       id="path25554-1-6"
       sodipodi:nodetypes="caaaac" />
    <path
       style="fill:none;stroke:#000000;stroke-width:0.2;stroke-linecap:round;stroke-linejoin:round;stroke-dasharray:none;stroke-opacity:1"
       d="m 98.419866,134.68501 c 0,0 -0.157254,-0.11393 -0.18946,-0.20201 -0.04568,-0.12461 -0.03245,-0.2768 0.01829,-0.39689 0.03421,-0.0808 0.104702,-0.14506 0.179195,-0.18575 0.0795,-0.0434 0.265202,-0.0518 0.265202,-0.0518"
       id="path25556-2-2"
       sodipodi:nodetypes="caaac" />
    <path
       style="fill:none;stroke:#000000;stroke-width:0.2;stroke-linecap:round;stroke-linejoin:round;stroke-dasharray:none"
       d="m 103.65294,132.30915 c 0,0 0.44927,-1.23065 0.40664,-1.86567 -0.0949,-1.41323 -0.69157,-2.16362 -0.69157,-2.16362"
       id="path32943-7-6"
       sodipodi:nodetypes="csc" />
    <path
       style="fill:none;stroke:#000000;stroke-width:0.2;stroke-linecap:round;stroke-linejoin:round;stroke-dasharray:none"
       d="m 102.822,131.34439 c 0,0 0.29424,-0.75452 0.27611,-1.14748 -0.053,-1.15014 -0.46664,-1.70819 -0.46664,-1.70819"
       id="path32945-0-1"
       sodipodi:nodetypes="csc" />
    <path
       style="fill:none;stroke:#000000;stroke-width:0.2;stroke-linecap:round;stroke-linejoin:round;stroke-dasharray:none"
       d="m 100.23077,131.25426 c 0,0 0.25385,-0.0285 0.37166,0.0101 0.21464,0.0701 0.55731,0.38511 0.55731,0.38511"
       id="path188321-9-8"
       sodipodi:nodetypes="cac" />
    <path
       style="fill:none;stroke:#000000;stroke-width:0.2;stroke-linecap:round;stroke-linejoin:round;stroke-dasharray:none"
       d="m 103.48455,136.80338 c 0,0 -0.20657,-0.0904 -0.27526,-0.17463 -0.25129,-0.30802 -0.42362,-1.11478 -0.42362,-1.11478"
       id="path188323-3-7"
       sodipodi:nodetypes="cac" />
    <path
       style="fill:#fff6e5;fill-opacity:1;stroke:none;stroke-width:0.1;stroke-linecap:round;stroke-linejoin:round"
       d="m 105.69632,146.09996 c 0.73362,1.35079 2.11146,2.62675 3.63387,2.83909 1.53145,0.21359 3.39501,-0.4911 4.29739,-1.74675 0.68906,-0.95881 0.49649,-2.38809 0.21788,-3.53548 -0.26237,-1.08052 -1.8019,-1.75652 -1.70922,-2.86456 0.0563,-0.67375 0.81736,-1.08641 1.3142,-1.54494 0.85201,-0.78634 2.25325,-1.02362 2.82126,-2.03436 0.85861,-1.52783 0.8953,-3.55792 0.40924,-5.24173 -0.41733,-1.44575 -1.31424,-3.0247 -2.69582,-3.62102 -1.25844,-0.54317 -2.85416,-0.12887 -4.08438,0.47548 -0.61154,0.30042 -0.78541,1.23588 -1.42795,1.46254 -0.86205,0.30411 -2.00479,-0.8914 -2.72291,-0.3258 -0.25831,0.20344 -0.21854,0.66734 -0.11557,0.97961 0.22527,0.68316 1.18015,0.91764 1.47806,1.5724 0.40719,0.89494 0.69605,2.03824 0.29304,2.93506 -0.16585,0.36907 -0.92721,0.3111 -0.98323,0.71182 -0.0814,0.58245 0.84582,0.85216 1.0906,1.38691 0.25197,0.55048 0.46898,1.18981 0.3469,1.78279 -0.16321,0.79272 -0.56787,1.88143 -1.36753,2.00632 -0.86652,0.13533 -1.33078,-1.15344 -2.07421,-1.61872 -0.4402,-0.2755 -1.00872,-1.02836 -1.3989,-0.68568 -0.51039,0.44828 0.37598,1.31023 0.65328,1.93036 0.5148,1.15128 1.48831,2.08892 1.8623,3.29333 0.18291,0.58906 -0.13268,1.30131 0.1617,1.84333 z"
       id="path12834-1-7"
       sodipodi:nodetypes="aaaaaaaaaaaaaaaaaaaaaaaa" />
    <path
       style="fill:#ffeecc;fill-opacity:1;stroke:none;stroke-width:0.1;stroke-linecap:round;stroke-linejoin:round"
       d="m 108.85948,147.93916 c -0.99666,-0.58132 -1.92108,-1.38908 -2.51495,-2.37832 -0.25034,-0.41698 -0.17676,-0.96812 -0.3864,-1.40697 -0.27386,-0.57324 -0.93589,-0.93725 -1.11253,-1.5475 -0.10593,-0.36597 -0.25463,-0.93878 0.0683,-1.14094 0.45049,-0.282 0.94504,0.66832 1.47326,0.60968 0.87887,-0.0976 1.75934,-0.74366 2.16903,-1.52728 0.37953,-0.72593 0.36767,-1.71798 0.0152,-2.4574 -0.17891,-0.3753 -0.82569,-0.39087 -0.97383,-0.77934 -0.1082,-0.28375 0.15281,-0.59465 0.15167,-0.89833 -0.002,-0.63643 -0.24205,-1.25017 -0.33189,-1.88023 -0.10135,-0.71083 -0.43585,-1.45254 -0.23327,-2.14139 0.1286,-0.43728 0.5396,-0.73898 0.86039,-1.06278 0.76724,-0.77445 1.49623,-1.71394 2.52256,-2.0815 0.98193,-0.35166 2.13478,-0.30872 3.129,0.007 1.0104,0.32038 2.10715,0.88994 2.60275,1.82692 0.67151,1.26957 0.49077,2.93765 0.0615,4.30822 -0.32424,1.03517 -1.12992,1.87648 -1.89444,2.64605 -0.61895,0.62305 -1.44036,1.00673 -2.13211,1.54783 -0.33925,0.26536 -0.92859,0.40557 -0.98854,0.83209 -0.15942,1.13426 1.58678,1.75502 1.91704,2.85179 0.30173,1.00201 0.45508,2.20768 -0.0215,3.1393 -0.52148,1.01932 -1.64254,1.83899 -2.77163,2.02894 -0.5536,0.093 -1.12464,-0.21255 -1.60953,-0.49537 z"
       id="path13582-7-7"
       sodipodi:nodetypes="aaaaaaaaaaaaaaaaaaaaaaaa" />
    <path
       id="path1042-9-6"
       style="fill:#ffffcc;fill-opacity:1;stroke-width:0.1;stroke-linecap:round;stroke-linejoin:round"
       d="m 112.28005,129.29018 c -0.21648,0.008 -0.42985,0.0479 -0.62473,0.12502 -1.22752,0.48559 -2.32715,1.55838 -2.81619,2.78453 -0.38879,0.9748 -0.66197,2.42605 0.10094,3.14672 0.30957,-0.0249 0.61535,-0.0859 0.92333,-0.12586 0.57177,-0.0741 1.15762,-0.0696 1.71657,-0.21099 0.25776,-0.0652 0.58101,-0.0797 0.74275,-0.29071 0.22609,-0.29499 7.8e-4,-0.75731 0.1228,-1.10837 0.0927,-0.26682 0.35881,-0.45075 0.44906,-0.71842 0.20864,-0.6188 -0.1568,-1.39119 0.1794,-1.95103 0.20503,-0.34141 0.96288,-0.25896 0.9988,-0.65558 0.0362,-0.39915 -0.50023,-0.67555 -0.87032,-0.82937 -0.28286,-0.11756 -0.60602,-0.17695 -0.92241,-0.16594 z" />
    <path
       id="path2309-2-4"
       style="fill:#fff4bd;fill-opacity:1;stroke-width:0.1;stroke-linecap:round;stroke-linejoin:round"
       d="m 112.47033,129.50572 c -0.52472,0.0454 -1.01974,0.26244 -1.48374,0.50053 -1.10361,0.60144 -2.05531,1.57464 -2.44339,2.78876 -0.18373,0.62951 -0.28439,1.34496 0.002,1.95989 0.11577,0.20242 0.31934,0.53053 0.59296,0.39688 0.31138,-0.15576 0.58907,-0.47706 0.57409,-0.8403 -0.0786,-0.25986 -0.392,-0.56966 -0.0974,-0.81267 0.33422,-0.30881 0.91411,-0.26577 1.14425,-0.70146 0.25611,-0.49009 0.0379,-1.11231 0.37223,-1.57194 0.24865,-0.31498 0.68583,-0.21986 1.03449,-0.23473 0.25265,-0.0262 0.50359,-0.0709 0.75621,-0.10107 0.32823,-0.0222 0.52365,-0.34657 0.50579,-0.65207 0.0168,-0.33202 -0.23305,-0.62877 -0.55595,-0.69086 -0.13057,-0.0343 -0.2665,-0.0459 -0.40119,-0.041 z m 0.0821,1.58181 c -0.32995,0.036 -0.7478,0.0635 -0.91483,0.40229 -0.20024,0.39621 -0.17268,0.89527 0.0268,1.28594 0.14602,0.31301 0.57873,0.42709 0.85323,0.21468 0.43059,-0.40634 0.49664,-1.08318 0.33273,-1.62701 -0.0581,-0.12195 -0.16844,-0.23595 -0.29791,-0.2759 z"
       sodipodi:nodetypes="sssssssssssssaaaaaaaa" />
    <path
       style="fill:#ffffcc;fill-opacity:1;stroke-width:0.1;stroke-linecap:round;stroke-linejoin:round"
       d="m 110.07748,145.26629 c -0.18146,-0.0568 -0.31045,-0.27387 -0.33373,-0.46256 -0.0468,-0.37966 0.2677,-0.71733 0.42522,-1.06593 0.14733,-0.32604 0.42831,-0.60413 0.48539,-0.95733 0.0923,-0.57112 -0.46653,-1.177 -0.25737,-1.7164 0.0614,-0.15821 0.22547,-0.32383 0.39513,-0.32093 0.77356,0.0132 1.20031,0.98016 1.75056,1.52403 0.20948,0.20705 0.51648,0.37388 0.58793,0.65962 0.0658,0.26321 -0.0499,0.55979 -0.19185,0.79102 -0.24575,0.40038 -0.66404,0.68134 -1.07089,0.91623 -0.54812,0.31646 -1.18633,0.8212 -1.79038,0.63224 z"
       id="path10275-0-3"
       sodipodi:nodetypes="aaaaaaaaaaa" />
    <path
       style="fill:#fff4bd;fill-opacity:1;stroke-width:0.1;stroke-linecap:round;stroke-linejoin:round"
       d="m 110.06581,144.96114 c -0.21192,-0.0692 -0.48212,-0.2104 -0.51099,-0.43144 -0.0472,-0.36138 0.29638,-0.74132 0.62627,-0.89619 0.162,-0.0761 0.37232,0.119 0.53505,0.0445 0.10256,-0.0469 0.1746,-0.16345 0.19915,-0.27353 0.0444,-0.19928 -0.0258,-0.41829 -0.11596,-0.60145 -0.11733,-0.23821 -0.40609,-0.36053 -0.52818,-0.59634 -0.12591,-0.24319 -0.29786,-0.54905 -0.1878,-0.79982 0.0824,-0.18764 0.33185,-0.32331 0.53563,-0.30173 0.30598,0.0324 0.58709,0.32201 0.69151,0.61144 0.0655,0.18164 -0.17511,0.39957 -0.089,0.57241 0.11479,0.23044 0.52308,0.16142 0.68066,0.36501 0.22892,0.29577 0.47535,0.78069 0.26539,1.09021 -0.18721,0.27598 -0.70852,-0.0382 -0.99068,0.13954 -0.18258,0.11502 -0.2284,0.36686 -0.35825,0.53921 -0.13592,0.18041 -0.23751,0.41422 -0.4391,0.51612 -0.0935,0.0473 -0.21403,0.0546 -0.31367,0.022 z"
       id="path10570-2-8-0"
       sodipodi:nodetypes="aaaaaaaaaaaaaaaaa" />
    <path
       id="path14463-3-3"
       style="fill:#ffe6b3;fill-opacity:1;stroke:none;stroke-width:0.1;stroke-linecap:round;stroke-linejoin:round"
       d="m 111.32273,129.04465 c -1.27354,0.0795 -2.33073,1.02262 -2.84009,2.15099 -0.55367,1.1476 -1.16355,2.4385 -0.85555,3.737 0.23899,0.56991 0.48506,1.13311 0.6097,1.74124 0.56704,0.7904 0.98191,-0.5956 0.93606,-1.08952 -0.002,-0.93933 -0.20898,-2.35959 0.51563,-3.05654 0.61335,-0.58994 0.41689,-1.42017 1.24457,-1.7566 0.61274,-0.0841 2.04664,0.36541 1.79538,-0.73758 -0.20407,-0.57205 -0.78084,-1.03046 -1.4057,-0.98899 z m 1.36275,2.20524 c -0.83762,3e-5 -0.97289,1.24848 -0.36916,1.6736 0.58494,0.43555 1.37749,0.28523 2.06248,0.30114 0.87196,-0.0667 1.79993,-0.20436 2.53413,-0.70511 0.46692,-0.64895 -0.41699,-1.52563 -1.08268,-1.06039 -0.52951,0.59386 -1.4924,0.6657 -2.0949,0.13987 -0.27461,-0.26144 -0.68628,-0.32567 -1.04987,-0.34911 z m -2.80712,5.65232 c -0.81119,0.20286 0.0774,1.19484 0.54108,1.37015 1.22641,0.74067 2.72684,0.57578 4.04852,0.23774 0.86418,-0.58746 -0.56868,-1.46315 -1.20485,-1.05776 -0.7557,0.30536 -1.53468,0.041 -2.21977,-0.30753 -0.36868,-0.14829 -0.77218,-0.20532 -1.16498,-0.2426 z m 0.70494,4.41587 c -0.71286,-0.0755 -1.42272,1.16825 -0.29612,0.94887 0.68837,0.21232 0.99169,-0.85223 0.29612,-0.94887 z m -1.74627,0.86253 c -0.86851,7.7e-4 -0.74716,1.40188 0.10358,1.33511 0.67702,-0.0887 0.68187,-1.41175 -0.10358,-1.33511 z m 2.7065,0.2197 c -0.96026,-0.0387 -0.72666,1.22714 0.0158,1.39099 0.85052,0.25805 1.06799,-1.21759 0.23115,-1.3596 l -0.10535,-0.0246 -0.14156,-0.007 z m -4.37577,0.21698 c -0.59592,0.28468 -0.56526,1.17645 -0.57747,1.75965 -6.4e-4,0.87602 0.62055,1.53538 1.20556,2.10667 0.40991,0.56505 1.55519,1.72455 2.0127,0.6188 0.37247,-0.80358 0.17,-1.8005 -0.50586,-2.38195 -0.66869,-0.53574 -1.13329,-1.24472 -1.65296,-1.90807 -0.12965,-0.11998 -0.30107,-0.20744 -0.48197,-0.1951 z m 3.10081,1.05485 c -0.80021,-0.002 -0.80679,1.35037 0.0461,1.20469 0.5516,-0.10853 0.58281,-1.20005 -0.0461,-1.20469 z m 2.83579,0.19961 c -1.05715,0.26496 -0.13575,1.59835 -0.96152,2.11615 -0.19059,0.42942 -1.48028,1.29769 -0.53486,1.51173 0.65015,-0.24408 1.14219,-0.81683 1.54497,-1.36564 0.3456,-0.58886 0.5036,-1.34932 0.29466,-2.00875 -0.0633,-0.12933 -0.18957,-0.25419 -0.34325,-0.25349 z"
       sodipodi:nodetypes="cccccsccccccccccccccccccccccsccccscccccccccccccccc" />
    <path
       style="fill:#ffe6b3;fill-opacity:1;stroke:none;stroke-width:0.1;stroke-linecap:round;stroke-linejoin:round"
       d="m 109.3605,140.93045 c -0.73283,-0.12617 -0.0596,-1.49069 -0.19049,-2.2227 -0.0866,-0.4842 -0.8123,-1.16855 -0.39125,-1.42284 0.35119,-0.2121 0.72131,0.47118 0.89846,0.84124 0.26115,0.54554 0.2412,1.21391 0.13533,1.8094 -0.0637,0.35864 -0.0931,1.05671 -0.45205,0.9949 z"
       id="path13710-7-0"
       sodipodi:nodetypes="aaaaaa" />
    <path
       id="path15154-5-9"
       style="fill:#ffdd99;fill-opacity:1;stroke:none;stroke-width:0.1;stroke-linecap:round;stroke-linejoin:round"
       d="m 110.34425,137.23198 c -0.53178,-0.0255 -0.59027,0.60061 -0.18694,0.84525 0.048,0.3357 -0.10026,0.6921 -0.007,1.03944 0.0821,0.43795 0.61005,0.26447 0.84373,0.0596 0.36826,-0.16892 0.45121,-0.70987 0.89934,-0.74302 0.46659,-0.0765 0.9715,0.22915 1.40841,-0.0257 0.46264,-0.35131 -0.0749,-0.9474 -0.53814,-0.72904 -0.4283,0.0975 -0.902,0.25978 -1.31323,0.0112 -0.36091,-0.16611 -0.69097,-0.45182 -1.10631,-0.45763 z m 0.1887,4.20395 c -0.41809,-0.0742 -0.83896,0.73592 -0.26788,0.75545 0.45448,-0.0283 0.69898,-0.4316 0.26788,-0.75545 z m -1.44508,1.26261 c -0.32419,0.0627 -0.51037,0.82536 -0.0287,0.68722 0.46084,0.21549 0.44345,-0.72639 0.0287,-0.68722 z m 2.72018,0.13337 c -0.66361,0.0823 0.27412,1.00399 0.26743,0.28746 -0.0163,-0.13656 -0.10995,-0.29796 -0.26743,-0.28746 z m -1.58686,1.13053 c -0.47126,-0.0341 -0.7223,0.83217 -0.16749,0.87267 0.5534,0.10686 0.74007,-0.80883 0.16749,-0.87267 z m 3.00066,0.79354 c -0.62527,0.0685 -0.2341,0.83406 -0.54254,1.20015 -0.18515,0.46286 0.42207,0.30624 0.42679,-0.0423 0.0728,-0.36734 0.47298,-0.71831 0.29348,-1.09688 -0.0447,-0.0488 -0.11427,-0.0635 -0.17773,-0.061 z m -3.65417,0.86882 c -0.46092,0.085 -0.42258,0.97285 -0.97692,0.82945 -0.22252,-0.21411 -0.87803,-0.57789 -0.71144,0.0433 0.25388,0.48524 0.59817,0.96361 1.08062,1.24224 0.38937,0.23987 0.88126,-0.0473 0.97131,-0.47292 0.15116,-0.48627 0.20159,-1.07644 -0.10097,-1.51388 -0.0651,-0.0757 -0.16099,-0.12933 -0.2626,-0.12818 z" />
    <path
       style="fill:none;stroke:#000000;stroke-width:0.199999;stroke-linecap:round;stroke-linejoin:round;stroke-dasharray:none"
       d="m 108.73306,145.42437 c 0,0 -0.007,0.15369 0.12381,0.34024 0.13109,0.18655 0.26616,0.22012 0.26616,0.22012"
       id="path43701-4-4-3-2"
       sodipodi:nodetypes="czc" />
    <path
       style="fill:none;stroke:#000000;stroke-width:0.199999;stroke-linecap:round;stroke-linejoin:round;stroke-dasharray:none"
       d="m 108.04646,145.11093 c 0,0 -0.007,0.15369 0.12381,0.34024 0.13108,0.18655 0.26616,0.22012 0.26616,0.22012"
       id="path43725-6-1-5"
       sodipodi:nodetypes="czc" />
    <path
       style="fill:none;stroke:#000000;stroke-width:0.199999;stroke-linecap:round;stroke-linejoin:round;stroke-dasharray:none"
       d="m 107.36082,144.75171 c 0,0 -0.007,0.15369 0.12382,0.34023 0.13108,0.18656 0.26616,0.22013 0.26616,0.22013"
       id="path43727-9-4-4"
       sodipodi:nodetypes="czc" />
    <path
       style="fill:none;stroke:#000000;stroke-width:0.199999;stroke-linecap:round;stroke-linejoin:round;stroke-dasharray:none"
       d="m 109.06228,145.23016 c 0.16727,0.19009 0.28091,0.42442 0.38244,0.65642 0.0567,0.12956 0.13936,0.26501 0.12437,0.40564 l -0.12865,1.20715 c -0.007,0.0677 -0.10628,0.11173 -0.17408,0.10647 -0.11342,-0.009 -0.18708,-0.13375 -0.26025,-0.2209 m -0.66502,-0.79212 -1.07851,-1.28463 c -0.0833,-0.0993 -0.15552,-0.21073 -0.20449,-0.33076 -0.0311,-0.0764 -0.0469,-0.15929 -0.0543,-0.24145 v 0 l -0.0759,-0.85338 m -0.0492,-0.5528 c -0.008,-0.0854 0.034,-0.19754 0.11279,-0.23128 0.0871,-0.0373 0.20815,0.0151 0.27074,0.0862 l 0.79522,0.90368"
       id="path45027-4-9-0"
       sodipodi:nodetypes="cassaccsassccasc" />
    <path
       style="fill:none;stroke:#000000;stroke-width:0.199999;stroke-linecap:round;stroke-linejoin:round;stroke-dasharray:none"
       d="m 108.26136,135.73011 c 0.0197,0.16846 0.11262,0.34006 0.19335,0.48673 0.47132,0.8563 1.60348,1.15339 2.5239,1.466 0.77445,0.26304 1.63571,0.50095 2.43307,0.31412 0.28609,-0.067 0.43763,-0.0939 0.7042,-0.23874 m 1.42224,-1.26712 c 0.75064,-1.05018 1.10021,-2.24955 1.01054,-3.54737 m -0.78583,-1.806 c -0.23875,-0.30348 -0.35699,-0.37705 -0.65443,-0.59864 -0.93693,-0.69802 -2.16938,-1.30443 -3.31984,-1.1059 -0.48815,0.0844 -0.84294,0.13028 -1.30499,0.45811 m -1.42931,1.35195 c -0.24633,0.21874 -0.31212,0.38649 -0.45598,0.66914 -0.30424,0.59775 -0.56105,1.40244 -0.47845,2.10963"
       id="path37294-3-2-2-5"
       sodipodi:nodetypes="csasccccssccsc" />
    <path
       style="fill:none;stroke:#000000;stroke-width:0.199999;stroke-linecap:round;stroke-linejoin:round;stroke-dasharray:none"
       d="m 112.52052,138.40056 c -0.53759,0.10255 -1.10779,-0.21976 -1.65519,-0.35748 -0.42355,-0.10656 -0.87955,-0.14553 -1.25914,-0.36238 -0.18596,-0.10623 -0.38562,-0.23041 -0.53397,-0.38981"
       id="path37296-1-2-0-9"
       sodipodi:nodetypes="casc" />
    <path
       style="fill:none;stroke:#000000;stroke-width:0.199999;stroke-linecap:round;stroke-linejoin:round;stroke-dasharray:none"
       d="m 110.89723,138.42602 c -0.0416,0.10763 -0.10495,0.27013 -0.12413,0.36223 -0.0312,0.1496 0.0586,0.27965 -0.0303,0.36166 -0.10717,0.0989 -0.32087,0.0889 -0.43734,0.001 -0.0982,-0.0739 -0.13251,-0.23586 -0.10099,-0.35468 0.0244,-0.0919 0.13417,-0.0959 0.20375,-0.19946 0.0435,-0.0648 0.0775,-0.20843 0.12328,-0.29262"
       id="path37298-9-6-6-4"
       sodipodi:nodetypes="csaaasc" />
    <path
       style="fill:none;stroke:#000000;stroke-width:0.199999;stroke-linecap:round;stroke-linejoin:round;stroke-dasharray:none"
       d="m 114.58937,137.30546 c 0,0 -0.0594,0.12444 -0.026,0.17112 0.0624,0.0872 0.21422,0.0877 0.31565,0.0537 0.1322,-0.0443 0.24488,-0.17147 0.28927,-0.3047 0.0396,-0.11899 0.0525,-0.29388 -0.0432,-0.37354 -0.0676,-0.0563 -0.26281,0.0199 -0.26281,0.0199"
       id="path37302-4-4-8-6"
       sodipodi:nodetypes="caaaac" />
    <path
       style="fill:none;stroke:#000000;stroke-width:0.199999;stroke-linecap:round;stroke-linejoin:round;stroke-dasharray:none"
       d="m 116.13547,131.84459 c 0,0 -0.008,-0.13759 0.0403,-0.17052 0.0897,-0.0617 0.2306,-0.0126 0.32188,0.0461 0.068,0.0438 0.1138,0.12541 0.13183,0.20484 0.0286,0.12583 0.0224,0.27643 -0.0478,0.38471 -0.053,0.0817 -0.1545,0.16809 -0.24935,0.14989 -0.0441,-0.008 -0.0819,-0.10759 -0.0819,-0.10759"
       id="path37304-7-1-9-9"
       sodipodi:nodetypes="caaaaac" />
    <path
       style="fill:none;stroke:#000000;stroke-width:0.199999;stroke-linecap:round;stroke-linejoin:round;stroke-dasharray:none"
       d="m 110.0268,130.63589 c 0,0 0.1229,-0.12707 0.0994,-0.19646 -0.0351,-0.10348 -0.18625,-0.1341 -0.29465,-0.13865 -0.1324,-0.006 -0.27611,0.0477 -0.37362,0.13848 -0.0847,0.079 -0.17191,0.20438 -0.14445,0.31712 0.0247,0.10143 0.1426,0.1838 0.24592,0.19086 0.0774,0.005 0.20266,-0.11663 0.20266,-0.11663"
       id="path37306-8-2-2-2"
       sodipodi:nodetypes="caaaaac" />
    <path
       style="fill:none;stroke:#000000;stroke-width:0.199999;stroke-linecap:round;stroke-linejoin:round;stroke-dasharray:none"
       d="m 116.00509,132.17988 c 0,0 -0.11007,0.23814 -0.22096,0.28321 -0.149,0.0606 -0.32142,-0.0275 -0.47801,-0.0655"
       id="path37310-4-8-6-2"
       sodipodi:nodetypes="cac" />
    <path
       style="fill:none;stroke:#000000;stroke-width:0.199999;stroke-linecap:round;stroke-linejoin:round;stroke-dasharray:none"
       d="m 115.09982,132.09109 c 0,0 -0.0916,-0.23174 -0.19556,-0.25272 -0.0949,-0.0191 -0.1917,0.0684 -0.25398,0.14357 -0.0344,0.0415 -0.0526,0.15342 -0.0526,0.15342"
       id="path37312-5-8-6-4"
       sodipodi:nodetypes="caac" />
    <path
       style="fill:none;stroke:#000000;stroke-width:0.199999;stroke-linecap:round;stroke-linejoin:round;stroke-dasharray:none"
       d="m 115.03595,132.62837 c 0,0 -0.12734,0.0922 -0.20145,0.0963 -0.0704,0.004 -0.19962,-0.07 -0.19962,-0.07"
       id="path37314-0-9-4-7"
       sodipodi:nodetypes="cac" />
    <path
       style="fill:none;stroke:#000000;stroke-width:0.199999;stroke-linecap:round;stroke-linejoin:round;stroke-dasharray:none"
       d="m 114.39281,132.43211 c 0,0 -0.11365,0.0589 -0.17579,0.0639 -0.1901,0.0153 -0.36525,-0.0381 -0.56211,-0.10679"
       id="path37316-3-2-9-7"
       sodipodi:nodetypes="cac" />
    <path
       style="fill:none;stroke:#000000;stroke-width:0.199999;stroke-linecap:round;stroke-linejoin:round;stroke-dasharray:none"
       d="m 113.44273,132.05067 c 0,0 -0.0304,-0.29135 -0.13129,-0.37729 -0.0887,-0.0756 -0.23397,-0.0985 -0.34381,-0.0595 -0.13043,0.0464 -0.27513,0.31372 -0.27513,0.31372"
       id="path37318-6-8-5-5"
       sodipodi:nodetypes="caac" />
    <path
       style="fill:none;stroke:#000000;stroke-width:0.199999;stroke-linecap:round;stroke-linejoin:round;stroke-dasharray:none"
       d="m 112.4483,132.21338 c -0.18977,-0.0244 -0.5574,-0.059 -0.80825,-0.17301 -0.12817,-0.0583 -0.21746,-0.10371 -0.33824,-0.25308"
       id="path37320-1-8-0-4"
       sodipodi:nodetypes="cac" />
    <path
       style="fill:none;stroke:#000000;stroke-width:0.199999;stroke-linecap:round;stroke-linejoin:round;stroke-dasharray:none"
       d="m 113.35323,132.52334 c 0,0 -0.19177,0.1282 -0.30186,0.14584 -0.0726,0.0116 -0.15557,0.009 -0.21823,-0.0293 -0.0519,-0.0318 -0.10449,-0.15052 -0.10449,-0.15052"
       id="path37322-0-8-4-8"
       sodipodi:nodetypes="caac" />
    <path
       style="fill:none;stroke:#000000;stroke-width:0.199999;stroke-linecap:round;stroke-linejoin:round;stroke-dasharray:none"
       d="m 111.28587,131.47306 c 0,0 0.0524,-0.17809 0.0151,-0.25398 -0.039,-0.0794 -0.13229,-0.13279 -0.2189,-0.1479 -0.0888,-0.0155 -0.19162,0.0103 -0.26258,0.0667 -0.042,0.0334 -0.0746,0.14337 -0.0746,0.14337"
       id="path37324-6-6-8-1"
       sodipodi:nodetypes="caaac" />
    <path
       style="fill:none;stroke:#000000;stroke-width:0.199999;stroke-linecap:round;stroke-linejoin:round;stroke-dasharray:none"
       d="m 110.39644,131.48726 c -0.13925,0.003 -0.2038,-0.009 -0.28372,-0.0634 -0.0766,-0.0525 -0.12395,-0.14387 -0.15461,-0.23175"
       id="path37326-3-8-7-2"
       sodipodi:nodetypes="cac" />
    <path
       style="fill:none;stroke:#000000;stroke-width:0.199999;stroke-linecap:round;stroke-linejoin:round;stroke-dasharray:none"
       d="m 110.9793,131.84224 c 0,0 -0.22758,0.0696 -0.32957,0.0279 -0.0368,-0.0151 -0.078,-0.0907 -0.078,-0.0907"
       id="path37328-2-3-1-8"
       sodipodi:nodetypes="cac" />
    <path
       style="fill:none;stroke:#000000;stroke-width:0.199999;stroke-linecap:round;stroke-linejoin:round;stroke-dasharray:none"
       d="m 113.70053,136.79028 c 0,0 0.007,-0.25651 -0.0796,-0.32768 -0.0781,-0.0645 -0.21465,-0.0628 -0.30292,-0.0129 -0.0836,0.0473 -0.13969,0.25374 -0.13969,0.25374"
       id="path37330-0-8-7-9"
       sodipodi:nodetypes="caac" />
    <path
       style="fill:none;stroke:#000000;stroke-width:0.199999;stroke-linecap:round;stroke-linejoin:round;stroke-dasharray:none"
       d="m 114.51386,137.00429 c 0,0 -0.27122,0.16713 -0.42412,0.17753 -0.0972,0.007 -0.15904,0.0275 -0.28253,-0.0753"
       id="path37332-6-3-2-3"
       sodipodi:nodetypes="cac" />
    <path
       style="fill:none;stroke:#000000;stroke-width:0.199999;stroke-linecap:round;stroke-linejoin:round;stroke-dasharray:none"
       d="m 113.48664,137.1584 c 0,0 -0.15686,0.0616 -0.23278,0.041 -0.0437,-0.0119 -0.0808,-0.049 -0.10359,-0.0884 -0.009,-0.0155 -0.01,-0.053 -0.01,-0.053"
       id="path37334-1-3-7-6"
       sodipodi:nodetypes="caac" />
    <path
       style="fill:none;stroke:#000000;stroke-width:0.199999;stroke-linecap:round;stroke-linejoin:round;stroke-dasharray:none"
       d="m 112.84273,136.92065 c 0,0 -0.40242,0.0585 -0.59883,0.0221 -0.0817,-0.0152 -0.13769,-0.0424 -0.22934,-0.0979"
       id="path37336-5-3-2-8"
       sodipodi:nodetypes="cac" />
    <path
       style="fill:none;stroke:#000000;stroke-width:0.199999;stroke-linecap:round;stroke-linejoin:round;stroke-dasharray:none"
       d="m 111.90795,136.56703 c 0,0 0.0258,-0.18833 -0.0256,-0.25688 -0.048,-0.064 -0.1429,-0.0973 -0.2221,-0.0883 -0.0603,0.007 -0.10538,0.0627 -0.15073,0.10356 -0.0315,0.0283 -0.0826,0.0967 -0.0826,0.0967"
       id="path37338-5-8-2-0"
       sodipodi:nodetypes="caaac" />
    <path
       style="fill:none;stroke:#000000;stroke-width:0.199999;stroke-linecap:round;stroke-linejoin:round;stroke-dasharray:none"
       d="m 111.71187,136.83254 c 0,0 -0.13457,0.0448 -0.19904,0.027 -0.0521,-0.0145 -0.0934,-0.0588 -0.12697,-0.10153 -0.014,-0.0178 -0.0288,-0.0617 -0.0288,-0.0617"
       id="path37340-4-0-6-2"
       sodipodi:nodetypes="caac" />
    <path
       style="fill:none;stroke:#000000;stroke-width:0.199999;stroke-linecap:round;stroke-linejoin:round;stroke-dasharray:none"
       d="m 111.118,136.49344 c 0,0 -0.15456,0.0138 -0.22375,-0.0145 -0.0845,-0.0345 -0.14846,-0.11272 -0.20734,-0.17872"
       id="path37342-7-4-1-1"
       sodipodi:nodetypes="cac" />
    <path
       style="fill:none;stroke:#000000;stroke-width:0.199999;stroke-linecap:round;stroke-linejoin:round;stroke-dasharray:none"
       d="m 110.5511,135.97869 c 0.002,-0.0183 -0.0206,-0.0911 -0.0477,-0.12725 -0.04,-0.0535 -0.0939,-0.1106 -0.15976,-0.12009 -0.0564,-0.008 -0.1198,0.0198 -0.16065,0.0601 -0.0302,0.0298 -0.0466,0.11871 -0.0466,0.11871"
       id="path37344-6-7-0-0"
       sodipodi:nodetypes="caaac" />
    <path
       style="fill:none;stroke:#000000;stroke-width:0.199999;stroke-linecap:round;stroke-linejoin:round;stroke-dasharray:none"
       d="m 109.79979,135.97446 c -0.13051,-0.0147 -0.36876,-0.0228 -0.53117,-0.10095 -0.34633,-0.16671 -0.52928,-0.43609 -0.87506,-0.75116"
       id="path37346-5-6-6-5"
       sodipodi:nodetypes="cac" />
    <path
       style="fill:none;stroke:#000000;stroke-width:0.199999;stroke-linecap:round;stroke-linejoin:round;stroke-dasharray:none"
       d="m 108.27171,134.8378 c 3e-5,-0.0129 -0.0399,-0.1518 -0.0933,-0.20352 -0.0321,-0.031 -0.0796,-0.0431 -0.12327,-0.0513 -0.0551,-0.0104 -0.12283,-0.0299 -0.16829,0.003 -0.0397,0.0291 -0.0431,0.0911 -0.0483,0.14027 -0.0108,0.1011 -0.004,0.20973 0.0365,0.3026 0.0279,0.0638 0.073,0.12845 0.13539,0.1584 0.0337,0.0162 0.11199,0.003 0.11199,0.003"
       id="path37348-6-8-1-1"
       sodipodi:nodetypes="caaaaaac" />
    <path
       style="fill:none;stroke:#000000;stroke-width:0.199999;stroke-linecap:round;stroke-linejoin:round;stroke-dasharray:none"
       d="m 110.41209,136.36088 c -0.006,0.0173 -0.0585,0.0744 -0.10024,0.0915 -0.0537,0.022 -0.11961,0.0273 -0.1736,0.006 -0.0507,-0.0196 -0.0934,-0.0649 -0.11673,-0.11437 -0.0159,-0.0338 -0.01,-0.11181 -0.01,-0.11181"
       id="path37350-9-9-5-1"
       sodipodi:nodetypes="caaac" />
    <path
       style="fill:none;stroke:#000000;stroke-width:0.199999;stroke-linecap:round;stroke-linejoin:round;stroke-dasharray:none"
       d="m 112.95257,138.63577 c 0,0 -0.74154,0.51774 -1.0539,0.84092 -0.20638,0.21352 -0.46438,0.55201 -0.69029,0.86672"
       id="path37775-3-0-9-0"
       sodipodi:nodetypes="csc" />
    <path
       style="fill:none;stroke:#000000;stroke-width:0.199999;stroke-linecap:round;stroke-linejoin:round;stroke-dasharray:none"
       d="m 109.48711,140.53811 c 0,0 0.0425,-1.13671 -0.0243,-1.69922 -0.0437,-0.36777 -0.24474,-1.08376 -0.24474,-1.08376"
       id="path37781-5-6-4-8"
       sodipodi:nodetypes="cac" />
    <path
       style="fill:none;stroke:#000000;stroke-width:0.199999;stroke-linecap:round;stroke-linejoin:round;stroke-dasharray:none"
       d="m 110.02756,143.67123 c 0.16107,0.0268 0.34035,0.12863 0.40218,0.27984 0.0522,0.12755 0.0203,0.30836 -0.0766,0.40626 -0.10604,0.10713 -0.29612,0.11989 -0.44342,0.0881 -0.14797,-0.0319 -0.31305,-0.12376 -0.36936,-0.26435 -0.0495,-0.12352 -0.0153,-0.29396 0.0744,-0.39218"
       id="path42371-8-9-5"
       sodipodi:nodetypes="caaaac" />
    <path
       style="fill:none;stroke:#000000;stroke-width:0.199999;stroke-linecap:round;stroke-linejoin:round;stroke-dasharray:none"
       d="m 111.23608,143.09081 c -0.0495,-0.12352 -0.0153,-0.29395 0.0744,-0.39217 0.0965,-0.10567 0.27163,-0.14119 0.41275,-0.11767 0.16106,0.0268 0.34033,0.12862 0.40217,0.27984 0.0522,0.12754 0.0203,0.30835 -0.0766,0.40626 -0.10604,0.10713 -0.29612,0.11988 -0.44342,0.0881"
       id="path42397-7-0-0"
       sodipodi:nodetypes="caaaac" />
    <path
       style="fill:none;stroke:#000000;stroke-width:0.199999;stroke-linecap:round;stroke-linejoin:round;stroke-dasharray:none"
       d="m 110.32713,142.09312 c -0.14797,-0.0319 -0.31305,-0.12375 -0.36936,-0.26435 -0.0495,-0.12351 -0.0153,-0.29395 0.0744,-0.39217 0.0965,-0.10566 0.27163,-0.14119 0.41274,-0.11767 0.16107,0.0268 0.34035,0.12862 0.40218,0.27984 0.0522,0.12755 0.0203,0.30835 -0.0766,0.40627"
       id="path42399-9-9-6"
       sodipodi:nodetypes="caaaac" />
    <path
       style="fill:none;stroke:#000000;stroke-width:0.199999;stroke-linecap:round;stroke-linejoin:round;stroke-dasharray:none"
       d="m 109.30536,142.71932 c 0.0522,0.12754 0.0203,0.30835 -0.0766,0.40626 -0.10605,0.10713 -0.29612,0.11989 -0.44342,0.0881 -0.14797,-0.0319 -0.31306,-0.12375 -0.36936,-0.26435 -0.0495,-0.12351 -0.0153,-0.29395 0.0744,-0.39217 0.0965,-0.10566 0.27163,-0.14119 0.41274,-0.11766"
       id="path42401-0-1-4"
       sodipodi:nodetypes="caaaac" />
    <path
       style="fill:none;stroke:#000000;stroke-width:0.199999;stroke-linecap:round;stroke-linejoin:round;stroke-dasharray:none"
       d="m 111.55232,144.48259 -1.07104,0.71489 c -0.13891,0.0927 -0.31672,0.14402 -0.48327,0.13196 -0.16598,-0.012 -0.34358,-0.0783 -0.4577,-0.19953 m -0.39317,-0.4175 -1.05634,-1.12171 m -0.29559,-0.31389 c -0.13403,-0.14233 -0.19934,-0.35665 -0.19802,-0.55221 9.7e-4,-0.14196 0.0284,-0.3243 0.14915,-0.3989 l 1.03482,-0.63944 m 0.41915,-0.259 0.91887,-0.56779 c 0.1677,-0.10363 0.39539,-0.0985 0.58839,-0.0585 0.17925,0.0371 0.35363,0.13452 0.47989,0.26715 l 1.08508,1.13985 m 0.56485,0.59335 c 0.14107,0.14819 0.19033,0.40095 0.13688,0.59849 -0.0427,0.1578 -0.19954,0.26685 -0.33545,0.35757"
       id="path42403-3-7-6"
       sodipodi:nodetypes="csaccccasccsasccac" />
    <path
       style="fill:none;stroke:#000000;stroke-width:0.199999;stroke-linecap:round;stroke-linejoin:round;stroke-dasharray:none"
       d="m 110.66153,140.31782 c 0,0 0.31269,-0.64885 0.50767,-0.9505 0.16335,-0.25273 0.55139,-0.71476 0.55139,-0.71476"
       id="path43047-3-7-2"
       sodipodi:nodetypes="cac" />
    <path
       style="fill:none;stroke:#000000;stroke-width:0.199999;stroke-linecap:round;stroke-linejoin:round;stroke-dasharray:none"
       d="m 110.04375,139.49318 c 0,0 0.006,0.23055 0.003,0.34575 -0.005,0.16943 -0.0335,0.50739 -0.0335,0.50739"
       id="path43049-3-1-5"
       sodipodi:nodetypes="cac" />
    <path
       style="fill:none;stroke:#000000;stroke-width:0.199999;stroke-linecap:round;stroke-linejoin:round;stroke-dasharray:none"
       d="m 111.3096,145.1423 1.40805,-0.96619 c 0.11288,-0.0775 0.27914,-0.1472 0.40155,-0.0859 0.10007,0.0501 0.16366,0.19547 0.14062,0.30505 l -0.14103,0.67069 m -0.13686,0.65087 c -0.0242,0.11509 -0.10981,0.20973 -0.18387,0.30104 -0.10676,0.13163 -0.23093,0.25179 -0.36984,0.34883 m -0.95607,0.66788 -1.00589,0.70268 c -0.12333,0.0862 -0.25256,0.20716 -0.40292,0.20327 -0.12808,-0.003 -0.35257,-0.0638 -0.33384,-0.19064 l 0.19727,-1.33604 c 0.0244,-0.16547 0.0913,-0.33218 0.19774,-0.46113 0.0819,-0.0992 0.21349,-0.14371 0.31959,-0.21652"
       id="path43051-7-1-8"
       sodipodi:nodetypes="csasccaccsassac" />
    <path
       style="fill:none;stroke:#000000;stroke-width:0.199999;stroke-linecap:round;stroke-linejoin:round;stroke-dasharray:none"
       d="m 111.20807,146.34535 c 0,0 0.18696,-0.007 0.3983,-0.19078 0.21133,-0.18347 0.23693,-0.35563 0.23693,-0.35563"
       id="path43701-3-5-6"
       sodipodi:nodetypes="czc" />
    <path
       style="fill:none;stroke:#000000;stroke-width:0.199999;stroke-linecap:round;stroke-linejoin:round;stroke-dasharray:none"
       d="m 106.30477,143.65884 c 0,0 -1.39577,-1.6823 -1.91068,-2.6384 -0.481,-0.89314 -1.07573,-2.84701 -1.07573,-2.84701"
       id="path45029-2-9-2"
       sodipodi:nodetypes="cac" />
    <path
       style="fill:none;stroke:#000000;stroke-width:0.199999;stroke-linecap:round;stroke-linejoin:round;stroke-dasharray:none"
       d="m 108.34536,137.75183 c 0,0 -0.30323,-0.47505 -0.48196,-0.692 -0.21937,-0.26629 -0.72037,-0.74316 -0.72037,-0.74316"
       id="path45031-6-7-8"
       sodipodi:nodetypes="cac" />
    <path
       style="fill:none;stroke:#000000;stroke-width:0.199999;stroke-linecap:round;stroke-linejoin:round;stroke-dasharray:none"
       d="m 108.10874,131.3527 c 0,0 -0.64392,-0.24616 -0.97244,-0.34976 -0.33642,-0.10609 -1.02112,-0.27787 -1.02112,-0.27787"
       id="path45033-5-7-4"
       sodipodi:nodetypes="cac" />
    <path
       style="fill:none;stroke:#000000;stroke-width:0.199999;stroke-linecap:round;stroke-linejoin:round;stroke-dasharray:none"
       d="m 115.43896,135.40494 c 0,0 0.35214,-0.73481 0.44104,-1.12893 0.0804,-0.35643 0.0781,-1.09339 0.0781,-1.09339"
       id="path45832-2-6-7"
       sodipodi:nodetypes="cac" />
    <path
       style="fill:none;stroke:#000000;stroke-width:0.199999;stroke-linecap:round;stroke-linejoin:round;stroke-dasharray:none"
       d="m 108.75137,133.83749 c 0,0 0.0117,-0.61495 0.0818,-0.91203 0.0789,-0.33453 0.37644,-0.95989 0.37644,-0.95989"
       id="path45834-6-7-2"
       sodipodi:nodetypes="cac" />
    <path
       style="fill:none;stroke:#000000;stroke-width:0.199999;stroke-linecap:round;stroke-linejoin:round;stroke-dasharray:none"
       d="m 111.66063,130.20612 c 0,0 0.94908,-0.0598 1.40064,0.0606 0.57346,0.15286 1.58121,0.81865 1.58121,0.81865"
       id="path45836-5-3-4"
       sodipodi:nodetypes="cac" />
    <path
       id="path8957-9"
       style="fill:#ffedcc;fill-opacity:1;stroke:none;stroke-width:0.199999;stroke-linecap:round;stroke-linejoin:round;stroke-dasharray:none"
       d="m 79.447393,127.77407 c -1.720607,0.0244 -2.821245,2.4144 -3.126508,4.10788 -0.49187,2.72872 1.442556,5.36283 2.409511,7.96146 0.65379,1.75701 0.737966,4.08114 2.285972,5.1386 0.674622,0.46084 1.70608,-0.22769 2.448365,0.11366 0.735709,0.33829 1.010216,1.29257 1.665081,1.76888 0.713612,0.51903 1.520193,1.001 2.392742,1.13247 1.263145,0.19032 2.64537,0.0147 3.793121,-0.54596 0.635187,-0.31032 1.163255,-0.86492 1.528538,-1.47018 0.264279,-0.4379 0.265922,-0.9883 0.425733,-1.47416 0.13289,-0.404 0.192385,-0.85282 0.44279,-1.1966 0.361455,-0.49622 1.154294,-0.59902 1.447991,-1.13812 0.473604,-0.86933 0.445402,-1.9817 0.275853,-2.95704 -0.133704,-0.76922 -0.597002,-1.44832 -0.99178,-2.12191 -0.195798,-0.33408 -0.430621,-0.64539 -0.677845,-0.94344 -0.265948,-0.32065 -0.517155,-0.67153 -0.86264,-0.90429 -0.564727,-0.38048 -1.287378,-0.45334 -1.899496,-0.75163 -0.648506,-0.31602 -1.175307,-0.89 -1.867195,-1.09424 -0.785702,-0.23193 -1.645846,-0.23439 -2.455271,-0.10811 -0.456032,0.0711 -0.849598,0.37423 -1.298994,0.47947 -1.000601,0.2343 -2.273247,0.98201 -3.065553,0.32753 -0.796112,-0.65763 0.125791,-2.12854 -0.258382,-3.08701 -0.515854,-1.28701 -1.225627,-3.25692 -2.612033,-3.23726 z"
       sodipodi:nodetypes="aaaaaaaaaaaaaaaaaaaaaaa" />
    <path
       id="path10038-1"
       style="fill:#ffe6b3;fill-opacity:1;stroke:none;stroke-width:0.199999;stroke-linecap:round;stroke-linejoin:round;stroke-dasharray:none"
       d="m 78.709097,128.82519 c -1.18759,0.31401 -0.852398,1.78142 -0.686948,2.66697 -0.153399,0.50186 -1.183751,0.61616 -0.787473,1.33322 0.351614,0.96134 1.559015,1.59883 1.306127,2.75228 0.157226,1.56324 0.577994,3.12908 1.415263,4.4524 0.238238,1.38845 2.289528,1.51547 2.303959,3.00639 0.473009,1.18568 2.72324,0.84055 2.420905,-0.5591 -0.235366,-1.02261 -0.04267,-2.23161 -0.673229,-3.11558 -0.597028,-0.68426 -1.67825,0.29022 -2.126509,-0.50006 -0.434475,-1.3513 -0.47769,-2.83007 -1.179432,-4.10653 -0.433945,-0.60713 -0.365153,-1.34326 0.202044,-1.83103 0.706009,-1.05517 4.14e-4,-2.47895 -0.765245,-3.30846 -0.390213,-0.38012 -0.879049,-0.72568 -1.429462,-0.7905 z m 1.237517,4.43738 c -0.06181,-0.0411 0.09155,-0.0341 0,0 z"
       sodipodi:nodetypes="ccccccccccccccc" />
    <path
       id="path11320-5"
       style="fill:#ffdd99;fill-opacity:1;stroke:none;stroke-width:0.199999;stroke-linecap:round;stroke-linejoin:round;stroke-dasharray:none"
       d="m 79.973316,130.79507 c -2.781752,1.43455 -1.307175,5.0489 -0.544594,7.2996 1.103981,1.65719 2.591721,5.52885 4.949485,4.49845 1.121411,-1.85326 -0.729801,-3.33209 -2.405582,-3.45001 -1.548063,-2.04565 -2.365742,-4.89162 -1.726676,-7.42056 0.0013,-0.32772 -0.09013,-0.65568 -0.272633,-0.92748 z"
       sodipodi:nodetypes="cccccc" />
    <path
       id="path23759-29"
       style="display:inline;fill:#ffe6b3;fill-opacity:1;stroke-width:0.3;stroke-linecap:round;stroke-linejoin:round;stroke-dasharray:none"
       d="m 90.889801,135.47351 c -0.992695,-0.60913 -2.349591,-1.26868 -3.581367,-1.22957 -1.231779,0.0392 -2.021579,0.82385 -2.949106,0.87938 -0.927526,0.0551 -1.218534,0.0286 -1.557981,0.93244 -0.339446,0.90381 0.581369,1.61098 1.085373,2.40353 0.504004,0.79256 0.06465,1.387 1.208513,2.31418 1.143419,0.9272 4.102392,2.17725 5.755595,2.25944 1.653216,0.0821 2.100867,-0.2773 3.004963,-0.91985 0.904083,-0.64256 0.978616,-0.98802 0.976302,-1.87698 -0.0026,-0.88898 -0.06599,-2.38404 -0.826679,-2.85081 m -1.963957,5.74374 c -0.349881,0.0252 -1.12829,0.60181 -1.985123,0.57168 -0.856821,-0.0301 -2.122023,-0.25008 -2.710943,-0.89465 -0.588899,-0.64457 -1.587519,-1.28707 -1.897664,-1.10171 -0.310133,0.18535 -0.04241,1.51244 0.569524,2.05565 0.612002,0.54318 0.01694,1.23077 0.01435,2.06643 -0.0026,0.83568 0.452682,1.05441 1.445267,1.30023 0.992569,0.24583 2.385966,0.24275 3.44668,-0.3741 1.060714,-0.61687 1.443129,-1.84191 1.326364,-2.61305 -0.116765,-0.77116 -0.02741,-1.00933 -0.208393,-1.01048 -0.181018,-0.001 0.349882,-0.0252 -1.3e-5,0 z"
       sodipodi:nodetypes="czzzzzzzzczzzzzzzzzzzz" />
    <path
       id="path23992-9"
       style="display:inline;fill:#ffdd99;fill-opacity:1;stroke-width:0.3;stroke-linecap:round;stroke-linejoin:round;stroke-dasharray:none"
       d="m 88.355261,134.46703 c -0.463246,0.0332 -0.861761,0.13652 -1.299288,0.38884 -0.43753,0.25232 -0.02961,0.75532 0.435445,1.07186 0.465031,0.31654 1.521477,0.35125 2.073842,0.57433 0.552366,0.22308 1.024211,0.11224 1.127502,-0.47293 0.103317,-0.58517 -0.484323,-0.95773 -0.978047,-1.12905 -0.493711,-0.17132 -0.896221,-0.4662 -1.359454,-0.43305 z m -2.508451,0.65935 c -0.248633,0.0484 -1.124165,0.12077 -1.432823,0.43247 -0.308659,0.31171 -0.614446,0.19197 -1.019426,0.31432 -0.40498,0.12233 -0.425036,0.75256 -0.243254,1.21097 0.181781,0.45843 0.875118,0.96061 1.427832,0.61363 0.552714,-0.34697 1.058774,-1.01243 1.171686,-1.5604 0.112886,-0.54795 0.604347,-0.57476 0.447651,-0.83923 -0.156669,-0.26447 -0.284115,-0.17384 -0.351679,-0.17176 -0.0675,0.003 0.248647,-0.0484 1.3e-5,0 z m -1.258516,3.56546 c -0.0026,0.55522 0.128532,1.43418 0.613243,1.88001 0.484737,0.44582 0.856472,0.84249 1.279904,1.31215 0.423406,0.46966 0.727219,0.51256 1.711396,0.8607 0.984189,0.34815 3.112651,0.46972 4.285462,-0.0203 1.172798,-0.49002 1.904203,-1.31529 2.10101,-2.13385 0.196819,-0.81856 -0.0052,-1.22785 -0.542965,-1.38289 -0.537417,-0.15505 -0.90844,0.44416 -1.153169,0.9006 -0.244741,0.4564 -0.286327,0.90764 -1.151268,1.17613 -0.864954,0.26848 -2.579501,0.34696 -3.553048,-0.24391 -0.973548,-0.59089 -1.298606,-1.92951 -1.695517,-2.56251 -0.927514,-1.4792 -1.891712,-0.67979 -1.895048,0.21391 z m 1.481896,3.44479 c -0.248608,0.009 -0.519456,0.5476 -0.122067,0.85935 0.397441,0.31173 1.143035,0.65082 1.450711,1.12958 0.307688,0.47876 0.851752,0.15369 0.961922,-0.31441 0.110171,-0.46812 -0.561042,-0.48049 -0.953259,-0.73013 -0.392221,-0.24965 -1.03311,-0.93862 -1.33732,-0.94439 -0.304223,-0.005 0.24862,-0.009 0,0 z m 5.319852,1.65613 c -0.316416,0.006 -0.395682,0.59788 -0.813451,1.18004 -0.417781,0.58216 -1.883436,0.97808 -2.566027,0.79387 -0.682604,-0.18421 -0.911156,-0.10875 -1.240132,-0.58785 -0.328986,-0.47908 -0.73725,-0.26073 -0.563434,0.4081 0.173828,0.66883 0.398488,1.19953 1.388888,1.32346 0.990383,0.124 2.353626,0.15643 3.09394,-0.3976 0.740328,-0.55403 1.060572,-1.20704 1.24428,-1.68483 0.183708,-0.4778 -0.168333,-1.07508 -0.480535,-1.03391 -0.312214,0.0411 -0.05327,-0.001 -0.06362,-0.001 -0.01035,1.8e-4 0.316404,-0.006 0,-3e-5 z"
       sodipodi:nodetypes="zzzzzzzzzzzzzzzzzzzzzzzzzzzzzzzzzzzzzzzzzzzzzz" />
    <path
       id="path24167-6"
       style="display:inline;fill:#fff1d6;fill-opacity:1;stroke-width:0.3;stroke-linecap:round;stroke-linejoin:round;stroke-dasharray:none"
       d="m 88.367609,137.21747 c -0.598928,-0.038 -0.7065,0.7605 -0.362502,1.12179 0.259534,0.44343 0.798646,0.4672 1.250745,0.51843 0.503461,0.0406 0.773223,0.50305 0.979211,0.90562 0.292288,0.58702 0.567624,1.20561 1.072365,1.64602 0.424259,0.41611 0.881027,0.90152 1.500076,0.98199 0.606946,0.0974 0.721785,-0.61988 0.697009,-1.06775 -0.01306,-0.6979 -0.416773,-1.41287 -1.094644,-1.65574 -0.794507,-0.39784 -1.333657,-1.1429 -2.104928,-1.5745 -0.498767,-0.2907 -0.993422,-0.60246 -1.530593,-0.81592 -0.131248,-0.0409 -0.268857,-0.0658 -0.406739,-0.0599 z"
       sodipodi:nodetypes="cccccccccccc" />
    <path
       id="path1-3-0"
       style="fill:#ffd580;fill-opacity:1;stroke-width:0.200001;stroke-linecap:round;stroke-linejoin:round;stroke-dasharray:none"
       d="m 88.172833,134.40727 c -0.05573,0.003 -0.111334,0.0142 -0.167325,0.0347 -0.447923,0.16649 -0.417458,0.40451 -0.363304,0.64536 0.153644,0.6833 1.076399,1.50063 1.715207,1.2135 0.422565,-0.18992 0.394053,-0.98587 0.152906,-1.38146 -0.248491,-0.4076 -0.947,-0.53189 -1.337484,-0.51206 z m -3.081789,1.00862 c -0.167118,0.004 -0.324033,0.18451 -0.530241,0.25214 -0.299956,0.0984 -0.01875,0.72053 -0.68466,0.30697 -0.665898,-0.41356 -0.30968,0.53825 -0.06569,0.91452 0.24394,0.37629 0.212906,1.16879 0.669894,1.19944 0.37626,0.0253 0.540753,-0.554 0.678492,-0.90506 0.200298,-0.51054 0.446591,-1.32036 0.171863,-1.63625 -0.08586,-0.0987 -0.163652,-0.13347 -0.239608,-0.13176 z m 6.704832,-0.12965 c -0.07565,0.0129 -0.174799,0.0597 -0.305141,0.15362 -0.521383,0.37578 -0.498302,1.11765 0.03,1.78577 0.528301,0.66812 1.302313,0.9561 1.81083,1.44917 0.508504,0.49306 0.222112,1.08237 0.172419,1.6408 -0.04965,0.55844 0.02353,1.2992 0.615222,0.75151 0.591739,-0.54767 0.312253,-0.79095 0.228914,-1.49729 -0.0834,-0.70636 0.0039,-1.51103 -0.65898,-1.93176 -0.662885,-0.42072 -0.826524,-0.52888 -1.452336,-0.8355 -0.625812,-0.30661 -0.200065,-0.55725 -0.200039,-0.96468 2.5e-5,-0.30556 -0.01397,-0.58811 -0.24085,-0.55164 z m -1.912414,4.06351 c -0.381756,0.0473 -0.448854,1.13514 -0.293258,1.63785 0.177837,0.57454 0.767495,0.72093 1.298434,0.52444 0.530938,-0.1965 0.496607,0.30886 -0.03427,0.25654 -0.530861,-0.0524 -1.137743,0.11496 -1.702314,-0.006 -0.564572,-0.12129 -1.069611,-0.45065 -1.634997,-0.56261 -0.506258,-0.10021 -1.367527,-0.57656 -1.545481,-0.0921 -0.258396,0.70335 1.11826,1.02507 1.79692,1.3507 0.678661,0.32563 1.393825,0.22702 2.217491,0.31429 0.823666,0.0873 1.773098,-0.33029 2.627358,-0.62838 0.854274,-0.29808 0.35592,-0.68944 -0.122713,-0.88673 -0.47866,-0.19733 -0.922432,-0.69426 -1.450397,-0.83661 -0.527977,-0.14235 -0.432289,-0.69907 -0.973379,-1.02261 -0.06763,-0.0405 -0.128791,-0.0551 -0.183372,-0.0482 z m -1.526055,4.58106 c -0.382222,0.0537 -0.832627,0.64483 -0.4506,1.08997 0.407489,0.47484 1.162428,0.47731 1.578528,0.43505 0.4161,-0.0423 1.340071,-0.0415 0.666493,0.26061 -0.673579,0.3021 -1.426113,0.22045 -2.052753,0.22281 -0.626652,0.003 -1.321402,-0.53449 -1.690783,0.0163 -0.369382,0.55076 0.766386,1.1473 1.278627,0.92056 0.512228,-0.22673 1.012922,0.14637 1.609174,0.008 0.596239,-0.13872 0.993292,-0.0994 1.578489,-0.78307 0.585183,-0.68363 0.989155,-0.83952 0.763525,-1.62225 -0.225617,-0.78273 -0.609519,-0.21294 -1.140161,-0.10642 -0.530654,0.10642 -1.185625,-0.41779 -1.558123,-0.43358 -0.37251,-0.0158 -0.113532,0.0116 -0.507223,-0.0103 -0.0247,-0.001 -0.04965,-3.8e-4 -0.07513,0.003 z m 0.871821,1.90522 0.0039,0.005 z"
       sodipodi:nodetypes="ssaaassssssssssssssscssssscsssssaassssssssscsssssssccsccc" />
    <path
       style="display:inline;fill:none;stroke:#1a1a1a;stroke-width:0.200001;stroke-linecap:round;stroke-linejoin:round;stroke-dasharray:none;stroke-opacity:1"
       d="m 78.079354,132.80705 2.246482,-0.009 -1.228621,-2.66938 -0.810321,2.00556"
       id="path129231-7-1-3-9"
       sodipodi:nodetypes="cccc" />
    <path
       style="fill:none;fill-opacity:1;stroke:#1a1a1a;stroke-width:0.200001;stroke-linecap:round;stroke-linejoin:round;stroke-dasharray:none;stroke-opacity:1"
       d="m 82.11392,141.19525 c 0,0 -0.910652,-0.3721 -2.004779,-1.95293 -1.102726,-1.59323 -0.956064,-5.50245 -0.956064,-5.50245"
       id="path196-93"
       sodipodi:nodetypes="csc" />
    <path
       style="fill:none;fill-opacity:1;stroke:#1a1a1a;stroke-width:0.200001;stroke-linecap:round;stroke-linejoin:round;stroke-dasharray:none;stroke-opacity:1"
       d="m 83.322679,143.00257 c 0,0 -0.455695,-1.08061 -0.458203,-1.65209 -0.0026,-0.59339 0.460763,-1.71955 0.460763,-1.71955"
       id="path239-6-60"
       sodipodi:nodetypes="cac" />
    <path
       style="fill:none;stroke:#000000;stroke-width:0.199999;stroke-linecap:round;stroke-linejoin:round;stroke-dasharray:none;stroke-opacity:1"
       d="m 87.054254,143.33724 c 0,0 -0.230805,0.79234 -0.235756,1.19993 -0.004,0.28019 -0.03107,0.60818 0.14202,0.82853 0.115212,0.14667 0.331652,0.18123 0.513634,0.22242 0.208184,0.0471 0.427627,0.001 0.639958,0.0234 0.304673,0.0315 0.599457,0.14958 0.90571,0.15506 0.259272,0.005 0.526445,-0.0175 0.77101,-0.10371 0.227342,-0.0802 0.439806,-0.21281 0.618733,-0.37431 0.176386,-0.15922 0.304515,-0.36687 0.429286,-0.56907 0.04055,-0.0657 0.102835,-0.2078 0.102835,-0.2078"
       id="path14385-8"
       sodipodi:nodetypes="caaaaaaaac" />
    <path
       style="fill:none;stroke:#000000;stroke-width:0.199999;stroke-linecap:round;stroke-linejoin:round;stroke-dasharray:none;stroke-opacity:1"
       d="m 87.692133,143.38328 3.466346,0.72935 -0.05675,0.18616 -3.205902,-0.63694 c 0,0 -0.130881,0.21404 -0.235835,0.27241 -0.134502,0.0748 -0.312441,0.12803 -0.456028,0.0726 -0.12219,-0.0472 -0.245632,-0.30649 -0.245632,-0.30649"
       id="path14387-4"
       sodipodi:nodetypes="ccccaac" />
    <path
       style="fill:none;stroke:#000000;stroke-width:0.199999;stroke-linecap:round;stroke-linejoin:round;stroke-dasharray:none;stroke-opacity:1"
       d="m 87.692133,143.38328 c 0,0 0.0066,0.18944 -0.15869,0.24988 -0.241312,0.0883 -0.340566,-0.0661 -0.340566,-0.0661 l -0.644554,-1.06876 c 0,0 -0.101254,-0.18289 0.01185,-0.26261 0.114027,-0.0802 0.259351,0.0338 0.259351,0.0338 l 0.827431,0.91862"
       id="path14389-5"
       sodipodi:nodetypes="csccscc" />
    <path
       style="fill:none;stroke:#000000;stroke-width:0.199999;stroke-linecap:round;stroke-linejoin:round;stroke-dasharray:none;stroke-opacity:1"
       d="m 84.552092,136.68193 c 0.004,0.0367 0.0092,0.0727 0.02159,0.0975 0.03226,0.0665 0.09546,0.11829 0.160967,0.15243 0.04069,0.0213 0.08914,0.0309 0.134884,0.0279 0.05201,-0.004 0.147642,-0.0509 0.147642,-0.0509"
       id="path14732-0"
       sodipodi:nodetypes="csaac" />
    <path
       style="fill:none;stroke:#000000;stroke-width:0.199999;stroke-linecap:round;stroke-linejoin:round;stroke-dasharray:none;stroke-opacity:1"
       d="m 84.489891,136.47361 c 0,0 0.420266,0.29368 0.663396,0.30503 0.08348,0.004 0.153501,-0.0733 0.236493,-0.0831 0.06781,-0.008 0.159625,-0.0304 0.203734,0.0218 0.06254,0.0739 0.03318,0.20728 -0.01738,0.28979 -0.04371,0.0712 -0.132724,0.13117 -0.216177,0.12697 -0.04358,-0.003 -0.08638,-0.0383 -0.105732,-0.0774 -0.01527,-0.031 0.0026,-0.10384 0.0026,-0.10384"
       id="path14734-3"
       sodipodi:nodetypes="caaaaaac" />
    <path
       style="fill:none;stroke:#000000;stroke-width:0.199999;stroke-linecap:round;stroke-linejoin:round;stroke-dasharray:none;stroke-opacity:1"
       d="m 85.734863,137.55874 c 0.158096,-0.12592 0.264763,-0.31509 0.337182,-0.50371 0.06399,-0.1667 0.103756,-0.35371 0.0765,-0.5302 -0.01435,-0.0931 -0.0079,-0.2111 -0.122717,-0.25458"
       id="path14736-6"
       sodipodi:nodetypes="caac" />
    <path
       style="fill:none;stroke:#000000;stroke-width:0.199999;stroke-linecap:round;stroke-linejoin:round;stroke-dasharray:none;stroke-opacity:1"
       d="m 86.519909,135.94132 c 0.08822,-0.052 0.17266,-0.0969 0.248528,-0.12987 0.148103,-0.0644 0.314245,-0.0751 0.472619,-0.10686 0.09612,-0.0193 0.192225,-0.0414 0.289885,-0.0506 0.128116,-0.0118 0.257627,-0.0147 0.386072,-0.007 0.198256,0.0131 0.397197,0.0369 0.589765,0.0857 0.129696,0.0329 0.273717,0.0531 0.376789,0.13835 0.111657,0.0924 0.120874,0.27062 0.223603,0.37284 0.102176,0.10174 0.233821,0.18 0.372206,0.2207 0.133014,0.0392 0.280722,0.0472 0.415698,0.0154 0.100728,-0.0237 0.206775,-0.0687 0.272492,-0.14872 0.0237,-0.0288 0.04385,-0.0709 0.03358,-0.10673 -0.04411,-0.15365 -0.224722,-0.2342 -0.364622,-0.31161 -0.154805,-0.0857 -0.319973,-0.16892 -0.490658,-0.22745"
       id="path15040-1"
       sodipodi:nodetypes="csaaaaaaaaaasc" />
    <path
       style="fill:none;stroke:#000000;stroke-width:0.199999;stroke-linecap:round;stroke-linejoin:round;stroke-dasharray:none;stroke-opacity:1"
       d="m 87.249864,142.32945 c -0.04227,-0.33606 -0.03832,-0.65573 -0.05017,-1.05694"
       id="path15044-0"
       sodipodi:nodetypes="cc" />
    <path
       style="fill:none;stroke:#000000;stroke-width:0.199999;stroke-linecap:round;stroke-linejoin:round;stroke-dasharray:none;stroke-opacity:1"
       d="m 88.274235,143.07518 c 0.02344,-0.40739 0.06162,-1.04446 0.103756,-1.62738"
       id="path15046-6"
       sodipodi:nodetypes="cc" />
    <path
       style="fill:none;stroke:#000000;stroke-width:0.199999;stroke-linecap:round;stroke-linejoin:round;stroke-dasharray:none;stroke-opacity:1"
       d="m 91.223419,144.06006 0.320249,-0.2552 c 0,0 0.09941,-0.0886 0.06847,-0.15142 -0.05254,-0.10712 -0.170777,-0.0406 -0.170777,-0.0406 l -0.207842,0.11961 -0.440227,0.30329"
       id="path15425-3"
       sodipodi:nodetypes="ccscc" />
    <path
       style="fill:none;stroke:#000000;stroke-width:0.199999;stroke-linecap:round;stroke-linejoin:round;stroke-dasharray:none;stroke-opacity:1"
       d="m 91.8959,143.29014 c 0.454567,-0.586 0.564169,-0.75628 1.067282,-1.52508"
       id="path15427-2"
       sodipodi:nodetypes="cc" />
    <path
       style="fill:none;stroke:#000000;stroke-width:0.199999;stroke-linecap:round;stroke-linejoin:round;stroke-dasharray:none;stroke-opacity:1"
       d="m 90.233559,143.47044 c 0.177663,-0.37419 0.313745,-0.74837 0.400529,-1.12255"
       id="path16081-0"
       sodipodi:nodetypes="cc" />
    <path
       style="fill:none;stroke:#000000;stroke-width:0.199999;stroke-linecap:round;stroke-linejoin:round;stroke-dasharray:none;stroke-opacity:1"
       d="m 90.608136,136.46228 c 0.127457,0.0761 0.278141,0.1229 0.409495,0.19893 0.406243,0.23505 0.808997,0.48504 1.164626,0.79137 0.413446,0.35613 0.801492,0.75304 1.110536,1.20282 0.181271,0.26384 0.364873,0.54675 0.425059,0.86116 0.06505,0.33971 0.004,0.69941 -0.08321,1.03431 -0.07097,0.27499 -0.200759,0.53543 -0.351416,0.77618 -0.151474,0.24203 -0.327188,0.47707 -0.547355,0.65883 -0.138175,0.11409 -0.301525,0.2008 -0.470985,0.25896 -0.179823,0.0618 -0.373958,0.0719 -0.563221,0.09 -0.168894,0.0162 -0.339078,0.0154 -0.508736,0.0164 -0.281222,0.001 -0.562878,0.001 -0.843495,-0.0164 -0.333706,-0.022 -0.66832,-0.0502 -0.997009,-0.11185 -0.265159,-0.0497 -0.63963,-0.1544 -0.945026,-0.27396 -0.306846,-0.12014 -0.657708,-0.29318 -0.883945,-0.44253 -0.271267,-0.17908 -0.525168,-0.38748 -0.754116,-0.61817 -0.121006,-0.12184 -0.236349,-0.24951 -0.34665,-0.38154 -0.171013,-0.20468 -0.329848,-0.41994 -0.478464,-0.64078 -0.15973,-0.23737 -0.299959,-0.48929 -0.415724,-0.75092 -0.11587,-0.26197 -0.214136,-0.53412 -0.276442,-0.81373 -0.07268,-0.32608 -0.09941,-0.66217 -0.110998,-0.99605 -9.48e-4,-0.0325 1.97e-4,-0.0652 0.004,-0.0975 0.004,-0.0271 0.01593,-0.0802 0.01593,-0.0802"
       id="path16083-6"
       sodipodi:nodetypes="caaaaaaaaaaaaaasssaaaac" />
    <path
       style="fill:none;stroke:#000000;stroke-width:0.199999;stroke-linecap:round;stroke-linejoin:round;stroke-dasharray:none"
       d="m 89.048168,144.3583 1.405874,0.28513"
       id="path11453-1"
       sodipodi:nodetypes="cc" />
    <path
       style="fill:none;stroke:#000000;stroke-width:0.199999;stroke-linecap:round;stroke-linejoin:round;stroke-dasharray:none"
       d="m 87.951629,145.10391 1.429495,0.2533"
       id="path11461-5"
       sodipodi:nodetypes="cc" />
    <path
       style="fill:none;stroke:#000000;stroke-width:0.199999;stroke-linecap:round;stroke-linejoin:round;stroke-dasharray:none"
       d="m 87.409594,144.44771 1.405873,0.28514"
       id="path11467-54"
       sodipodi:nodetypes="cc" />
    <path
       style="fill:none;stroke:#000000;stroke-width:0.199999;stroke-linecap:round;stroke-linejoin:round;stroke-dasharray:none"
       d="m 84.664763,137.35363 c 0,0 0.150051,1.41207 0.381673,2.10167 0.292704,0.87142 1.247776,2.38834 1.247776,2.38834"
       id="path1-7"
       sodipodi:nodetypes="csc" />
    <path
       style="fill:none;stroke:#000000;stroke-width:0.199999;stroke-linecap:round;stroke-linejoin:round;stroke-dasharray:none;stroke-opacity:1"
       d="m 86.892273,146.30311 c -0.357959,-0.14741 -0.760042,-0.33258 -0.947817,-0.67117 -0.367453,-0.66257 0.05741,-1.53562 -0.132105,-2.26922 -0.363385,-1.40664 -1.502967,-2.52776 -1.885773,-3.92924 -0.274046,-1.00336 -0.64034,-2.13796 -0.26741,-3.10891 0.152277,-0.39649 0.542944,-0.69717 0.930898,-0.86984 0.39538,-0.17598 0.867077,-0.0375 1.293453,-0.11146 0.716472,-0.12435 1.382778,-0.52983 2.109481,-0.55629 0.8668,-0.0315 1.774788,0.10542 2.55774,0.47871 1.513317,0.72159 3.037944,1.78175 3.831377,3.25894 0.354905,0.66073 0.438661,1.50337 0.269161,2.23403 -0.274572,1.18363 -1.268448,2.07584 -1.984749,3.05722 -0.658287,0.90191 -1.134948,2.06776 -2.119778,2.59373 -0.565815,0.30218 -1.274479,0.20562 -1.915504,0.18326 -0.587304,-0.0205 -1.195582,-0.066 -1.738974,-0.28978 z"
       id="path27"
       sodipodi:nodetypes="aaaaaaaaaaaaaaa" />
  </g>
</svg>
