<?xml version="1.0" encoding="UTF-8" standalone="no"?>
<!-- Created with Inkscape (http://www.inkscape.org/) -->

<svg
   width="435.90045"
   height="107.9036"
   viewBox="0 0 115.33199 28.549494"
   version="1.1"
   id="svg1"
   inkscape:version="1.3.2 (091e20ef0f, 2023-11-25, custom)"
   sodipodi:docname="mise-en-place-avance.svg"
   xmlns:inkscape="http://www.inkscape.org/namespaces/inkscape"
   xmlns:sodipodi="http://sodipodi.sourceforge.net/DTD/sodipodi-0.dtd"
   xmlns="http://www.w3.org/2000/svg"
   xmlns:svg="http://www.w3.org/2000/svg">
  <sodipodi:namedview
     id="namedview1"
     pagecolor="#ffffff"
     bordercolor="#666666"
     borderopacity="1.0"
     inkscape:showpageshadow="2"
     inkscape:pageopacity="0.0"
     inkscape:pagecheckerboard="0"
     inkscape:deskcolor="#d1d1d1"
     inkscape:document-units="mm"
     inkscape:zoom="0.57161228"
     inkscape:cx="220.42913"
     inkscape:cy="-273.78698"
     inkscape:window-width="956"
     inkscape:window-height="1029"
     inkscape:window-x="960"
     inkscape:window-y="0"
     inkscape:window-maximized="1"
     inkscape:current-layer="layer1" />
  <defs
     id="defs1" />
  <g
     inkscape:label="Layer 1"
     inkscape:groupmode="layer"
     id="layer1"
     transform="translate(-50.198144,-124.02657)">
    <path
       id="path1"
       style="fill:#fff6e5;fill-opacity:1;stroke:none;stroke-width:0.2;stroke-linecap:round;stroke-linejoin:round"
       d="m 149.97767,147.39033 c 2.87944,-2.30913 6.11154,-6.86073 4.43181,-10.14734 -8.39274,-16.42148 -35.69848,-10.06394 -54.06283,-11.75327 -9.895344,-0.91027 -20.753931,-3.20623 -29.797409,0.91226 -2.963864,1.34977 -5.642546,4.06917 -6.636246,7.17061 -1.247882,3.89477 -1.117353,9.07006 1.548963,12.17122 3.777752,4.39386 10.994578,3.86728 16.7207,4.75548 14.772078,2.29136 29.925452,2.58646 44.825092,1.37591 7.7756,-0.63175 16.88395,0.3957 22.96992,-4.48487 z"
       sodipodi:nodetypes="aaaaaaaaa" />
    <path
       id="path8"
       style="fill:#ffe6b3;fill-opacity:1;stroke:none;stroke-width:0.2;stroke-linecap:round;stroke-linejoin:round"
       d="m 145.84452,139.20392 c 0.72628,-2.10312 0.23527,-4.86835 -1.20346,-6.5656 -2.58242,-3.04642 -7.41335,-3.03073 -11.27192,-4.06079 -4.06595,-1.08543 -8.22227,-2.1425 -12.43007,-2.21005 -4.58916,-0.0737 -9.04833,1.65547 -13.62701,1.97399 -7.502049,0.52188 -15.040086,-0.12385 -22.560249,-0.11169 -3.872864,0.006 -8.554313,-2.27378 -11.618218,0.0951 -2.830487,2.18841 -3.272483,6.82059 -2.787006,10.36532 0.33697,2.4604 1.83914,4.88264 3.797646,6.40953 3.74695,2.92119 8.967355,3.34002 13.664377,4.05484 12.33516,1.87726 25.67262,4.69058 37.4281,0.50862 2.49297,-0.88687 3.6679,-4.02194 6.08588,-5.09656 3.09281,-1.37454 6.98144,0.007 10.05518,-1.40947 1.80574,-0.83225 3.81774,-2.07385 4.46675,-3.95324 z"
       sodipodi:nodetypes="aaaaaaaaaaaaaa" />
    <path
       style="fill:#fff6e5;fill-opacity:1;stroke:none;stroke-width:0.1;stroke-linecap:round;stroke-linejoin:round"
       d="m 148.35624,146.65237 c 0.64239,1.85032 2.11024,3.74008 3.98028,4.32256 1.88115,0.58593 4.37015,0.0862 5.7649,-1.30547 1.06503,-1.06266 1.11914,-2.89953 1.00665,-4.39983 -0.10593,-1.41285 -1.90139,-2.58182 -1.55523,-3.95569 0.21048,-0.83539 1.25277,-1.19649 1.97245,-1.67001 1.23416,-0.81204 3.04505,-0.81995 3.96866,-1.97299 1.39611,-1.74292 1.86298,-4.28764 1.60085,-6.50534 -0.22506,-1.90416 -1.02546,-4.07517 -2.63886,-5.11123 -1.4696,-0.94371 -3.56168,-0.75355 -5.23363,-0.24868 -0.83111,0.25096 -1.24359,1.39102 -2.0984,1.54283 -1.14683,0.20368 -2.33577,-1.5362 -3.35584,-0.97394 -0.36692,0.20225 -0.41307,0.79373 -0.34833,1.20766 0.14164,0.9056 1.29356,1.3983 1.53241,2.28323 0.32646,1.20955 0.45268,2.70683 -0.23987,3.75084 -0.285,0.42963 -1.2302,0.19896 -1.38368,0.69115 -0.2231,0.71541 0.88679,1.24667 1.08371,1.96972 0.20271,0.74431 0.34305,1.59309 0.0667,2.3133 -0.36949,0.96283 -1.10388,2.24774 -2.13513,2.23903 -1.11749,-0.009 -1.43408,-1.72597 -2.27233,-2.46501 -0.49634,-0.4376 -1.05508,-1.50197 -1.61665,-1.15199 -0.73459,0.45782 0.20116,1.72521 0.42126,2.56233 0.40863,1.55414 1.43826,2.93475 1.65884,4.52649 0.10788,0.7785 -0.4365,1.60857 -0.17873,2.35104 z"
       id="path12834-1-7"
       sodipodi:nodetypes="aaaaaaaaaaaaaaaaaaaaaaaa" />
    <path
       style="fill:#ffeecc;fill-opacity:1;stroke:none;stroke-width:0.1;stroke-linecap:round;stroke-linejoin:round"
       d="m 151.95195,149.62026 c -1.13257,-0.93742 -2.12739,-2.14456 -2.66902,-3.51135 -0.22831,-0.57614 -0.0216,-1.2538 -0.19421,-1.849 -0.2255,-0.77747 -0.98239,-1.37232 -1.078,-2.17616 -0.0573,-0.48207 -0.12558,-1.23305 0.32233,-1.42029 0.62482,-0.26118 1.04963,1.0361 1.7259,1.07185 1.12517,0.0595 2.36604,-0.57034 3.04354,-1.47064 0.62761,-0.83401 0.8183,-2.08373 0.52836,-3.08642 -0.14716,-0.50892 -0.95709,-0.66254 -1.06283,-1.18164 -0.0772,-0.37917 0.31535,-0.71596 0.37687,-1.098 0.12891,-0.80064 -0.0452,-1.62193 -0.0276,-2.43269 0.0199,-0.9147 -0.24693,-1.91654 0.15053,-2.74062 0.2523,-0.52311 0.83156,-0.81724 1.30197,-1.15786 1.12512,-0.81467 2.23635,-1.84475 3.60287,-2.09416 1.30742,-0.23862 2.74794,0.0543 3.93259,0.65669 1.20392,0.6122 2.46476,1.55558 2.89367,2.83631 0.58114,1.73533 0.008,3.79507 -0.81558,5.42924 -0.62218,1.23428 -1.80949,2.12503 -2.93017,2.93412 -0.9073,0.65506 -2.01954,0.9672 -3.00137,1.50413 -0.48152,0.26332 -1.25153,0.31746 -1.41529,0.84128 -0.43551,1.39301 1.63124,2.53535 1.81916,3.98271 0.17169,1.32231 0.1146,2.86992 -0.67769,3.94242 -0.86688,1.17346 -2.4462,1.97165 -3.90512,1.97645 -0.71528,0.002 -1.3699,-0.5003 -1.92092,-0.95637 z"
       id="path13582-7-7"
       sodipodi:nodetypes="aaaaaaaaaaaaaaaaaaaaaaaa" />
    <path
       id="path1042-9-6"
       style="fill:#ffffcc;fill-opacity:1;stroke-width:0.1;stroke-linecap:round;stroke-linejoin:round"
       d="m 160.11743,126.88278 c -0.27373,-0.0354 -0.55036,-0.0288 -0.81135,0.0277 -1.64394,0.3561 -3.24877,1.47697 -4.11774,2.91719 -0.69083,1.14499 -1.33506,2.91296 -0.52524,3.97713 0.39435,0.0328 0.79144,0.0195 1.18693,0.0331 0.73421,0.0253 1.46985,0.15236 2.20189,0.0905 0.33758,-0.0285 0.74699,0.0202 0.99407,-0.21156 0.34538,-0.32402 0.15793,-0.95196 0.3841,-1.36805 0.17189,-0.31623 0.54453,-0.49233 0.71347,-0.81015 0.39056,-0.73475 0.0912,-1.78157 0.6299,-2.41575 0.32852,-0.38675 1.26424,-0.12603 1.3916,-0.61724 0.12817,-0.49434 -0.4889,-0.95301 -0.92232,-1.2231 -0.33126,-0.20642 -0.72525,-0.34806 -1.12531,-0.39979 z" />
    <path
       id="path2309-2-4"
       style="fill:#fff4bd;fill-opacity:1;stroke-width:0.1;stroke-linecap:round;stroke-linejoin:round"
       d="m 160.31199,127.19319 c -0.66911,-0.0517 -1.33645,0.11862 -1.96916,0.3218 -1.51216,0.52743 -2.91038,1.55374 -3.64992,2.99976 -0.36146,0.75338 -0.63629,1.63201 -0.40406,2.46443 0.1036,0.27849 0.29154,0.73319 0.66325,0.62186 0.42377,-0.13129 0.83947,-0.47769 0.89592,-0.93748 -0.045,-0.34301 -0.37478,-0.79745 0.0459,-1.04192 0.48419,-0.31899 1.20435,-0.14469 1.58398,-0.64477 0.42356,-0.56309 0.27818,-1.3906 0.79378,-1.89918 0.37788,-0.34448 0.90782,-0.13428 1.34925,-0.0807 0.32308,0.0194 0.64783,0.0153 0.97169,0.0297 0.41728,0.0401 0.73019,-0.3272 0.77105,-0.71499 0.0899,-0.41394 -0.1627,-0.83882 -0.55579,-0.98381 -0.15704,-0.0702 -0.32553,-0.11299 -0.49591,-0.13465 z m -0.22464,2.00574 c -0.42229,-0.0231 -0.95333,-0.0751 -1.23353,0.31619 -0.33387,0.45663 -0.40265,1.08979 -0.23285,1.62229 0.1187,0.42379 0.63909,0.65689 1.02823,0.44673 0.62557,-0.42162 0.84888,-1.25889 0.75551,-1.9766 -0.0478,-0.16535 -0.16287,-0.33155 -0.31736,-0.40861 z"
       sodipodi:nodetypes="sssssssssssssaaaaaaaa" />
    <path
       style="fill:#ffffcc;fill-opacity:1;stroke-width:0.1;stroke-linecap:round;stroke-linejoin:round"
       d="m 154.03723,146.51223 c -0.21638,-0.10897 -0.33357,-0.40866 -0.32372,-0.65072 0.0198,-0.48704 0.48522,-0.84638 0.75552,-1.25201 0.2528,-0.37938 0.6637,-0.67077 0.80865,-1.103 0.2344,-0.69892 -0.3426,-1.57648 0.0322,-2.21129 0.10991,-0.18619 0.35058,-0.3604 0.56328,-0.32159 0.96981,0.17695 1.30595,1.48106 1.88504,2.27888 0.22045,0.30373 0.57185,0.5771 0.60247,0.95115 0.0282,0.34457 -0.17878,0.69345 -0.40515,0.95475 -0.39195,0.45245 -0.97607,0.71899 -1.53626,0.93 -0.7547,0.28426 -1.6617,0.78658 -2.38198,0.42383 z"
       id="path10275-0-3"
       sodipodi:nodetypes="aaaaaaaaaaa" />
    <path
       style="fill:#fff4bd;fill-opacity:1;stroke-width:0.1;stroke-linecap:round;stroke-linejoin:round"
       d="m 154.0858,146.12617 c -0.2521,-0.13089 -0.56255,-0.36445 -0.55303,-0.64834 0.0156,-0.46412 0.52626,-0.87059 0.97311,-0.99694 0.21944,-0.062 0.44343,0.22678 0.66346,0.16687 0.13866,-0.0377 0.25339,-0.1693 0.30707,-0.30261 0.0972,-0.24134 0.0543,-0.53123 -0.0211,-0.78021 -0.0982,-0.32381 -0.43584,-0.53744 -0.54046,-0.85921 -0.1079,-0.33185 -0.2607,-0.75203 -0.0703,-1.04449 0.14243,-0.21885 0.48422,-0.33771 0.73595,-0.26834 0.37798,0.10415 0.67139,0.52652 0.74269,0.91204 0.0447,0.24194 -0.30298,0.46607 -0.23056,0.70121 0.0966,0.31352 0.62419,0.31135 0.7801,0.59998 0.22652,0.4193 0.43585,1.08004 0.10772,1.42566 -0.29256,0.30818 -0.88285,-0.19489 -1.27444,-0.0299 -0.25339,0.10676 -0.36319,0.4139 -0.56217,0.60367 -0.20827,0.19865 -0.38445,0.47156 -0.65902,0.55788 -0.1274,0.0401 -0.28039,0.0242 -0.39893,-0.0373 z"
       id="path10570-2-8-0"
       sodipodi:nodetypes="aaaaaaaaaaaaaaaaa" />
    <path
       id="path14463-3-3"
       style="fill:#ffe6b3;fill-opacity:1;stroke:none;stroke-width:0.1;stroke-linecap:round;stroke-linejoin:round"
       d="m 158.96472,126.37568 c -1.61763,-0.16395 -3.14223,0.80264 -4.01648,2.11572 -0.93394,1.32807 -1.96825,2.82465 -1.85013,4.52102 0.18235,0.76606 0.37501,1.52513 0.40568,2.31554 0.5491,1.11124 1.35794,-0.54532 1.40266,-1.1758 0.1927,-1.18131 0.22628,-3.0099 1.28174,-3.73597 0.8934,-0.61459 0.81846,-1.6991 1.92879,-1.95055 0.78778,0.0213 2.4974,0.88358 2.4101,-0.55523 -0.13802,-0.7615 -0.76815,-1.45737 -1.56236,-1.53473 z m 1.2563,3.05496 c -1.05312,-0.17356 -1.48192,1.36801 -0.81098,2.02762 0.64514,0.66883 1.67273,0.64409 2.53063,0.80606 1.1101,0.0968 2.30531,0.1161 3.33217,-0.36131 0.72153,-0.71911 -0.20808,-2.00452 -1.14144,-1.55755 -0.7888,0.63688 -2.01428,0.52765 -2.66279,-0.25831 -0.29107,-0.38562 -0.79534,-0.55169 -1.24759,-0.65651 z m -4.70069,6.5246 c -1.06191,0.0869 -0.15026,1.51826 0.39631,1.83476 1.3884,1.18537 3.30898,1.28903 5.04072,1.13795 1.20824,-0.55948 -0.41174,-1.95741 -1.29557,-1.57957 -1.01339,0.22729 -1.93798,-0.26649 -2.72707,-0.8467 -0.43279,-0.26284 -0.92827,-0.41816 -1.41439,-0.54644 z m -0.0289,5.69794 c -0.8806,-0.24266 -2.03084,1.17393 -0.56896,1.13159 0.82146,0.40961 1.42344,-0.86593 0.56896,-1.13159 z m -2.37425,0.7225 c -1.0921,-0.17902 -1.2299,1.60767 -0.14647,1.70004 0.86956,0.0288 1.14986,-1.63361 0.14647,-1.70004 z m 3.35721,0.83715 c -1.19928,-0.24764 -1.16791,1.39221 -0.26846,1.75207 1.01583,0.50071 1.59507,-1.30946 0.57239,-1.66144 l -0.12735,-0.0528 -0.17657,-0.0378 z m -5.5464,-0.63409 c -0.80822,0.23441 -0.95449,1.36194 -1.09071,2.09264 -0.18237,1.10124 0.46198,2.05896 1.07908,2.89846 0.39825,0.79536 1.59785,2.49049 2.40222,1.19511 0.63483,-0.9331 0.58688,-2.22844 -0.14234,-3.09953 -0.72967,-0.81215 -1.16686,-1.7998 -1.68273,-2.7415 -0.13814,-0.17771 -0.33553,-0.3232 -0.56552,-0.34518 z m 3.67986,1.96885 c -1.00568,-0.16809 -1.29419,1.53055 -0.19166,1.52416 0.716,-0.0221 0.98145,-1.38798 0.19166,-1.52416 z m 3.52393,0.83867 c -1.38401,0.11404 -0.50193,1.98139 -1.64744,2.46126 -0.32861,0.50039 -2.13002,1.32473 -0.98576,1.78977 0.86799,-0.17213 1.60531,-0.79025 2.22544,-1.39676 0.55655,-0.66871 0.91279,-1.59206 0.78678,-2.46443 -0.0528,-0.17571 -0.18566,-0.35886 -0.37902,-0.38984 z"
       sodipodi:nodetypes="cccccsccccccccccccccccccccccsccccscccccccccccccccc" />
    <path
       style="fill:#ffe6b3;fill-opacity:1;stroke:none;stroke-width:0.1;stroke-linecap:round;stroke-linejoin:round"
       d="m 154.0344,140.91241 c -0.8952,-0.3105 0.23398,-1.88652 0.22116,-2.83397 -0.009,-0.6267 -0.77909,-1.6375 -0.19702,-1.86995 0.4855,-0.19388 0.80922,0.74189 0.95524,1.24386 0.21527,0.73999 0.0517,1.57617 -0.20484,2.30291 -0.15447,0.43768 -0.33602,1.30926 -0.77454,1.15715 z"
       id="path13710-7-0"
       sodipodi:nodetypes="aaaaaa" />
    <path
       id="path15154-5-9"
       style="fill:#ffdd99;fill-opacity:1;stroke:none;stroke-width:0.1;stroke-linecap:round;stroke-linejoin:round"
       d="m 156.03773,136.46639 c -0.6633,-0.14224 -0.8666,0.63279 -0.41022,1.02395 -0.009,0.43201 -0.26948,0.84936 -0.22404,1.30541 0.0124,0.56762 0.71216,0.45894 1.04844,0.24975 0.49799,-0.13606 0.71439,-0.79897 1.28468,-0.74778 0.60247,5.4e-4 1.17392,0.48945 1.77605,0.25953 0.65446,-0.3458 0.10223,-1.20663 -0.52548,-1.02811 -0.55869,0.0338 -1.18788,0.13966 -1.65337,-0.2581 -0.41933,-0.28364 -0.77509,-0.71126 -1.29607,-0.80465 z m -0.63403,5.32453 c -0.51026,-0.17994 -1.2073,0.75135 -0.49336,0.89427 0.57726,0.0587 0.96824,-0.39777 0.49336,-0.89427 z m -2.0785,1.28791 c -0.42058,0.0117 -0.81271,0.93191 -0.17855,0.85806 0.53473,0.36642 0.70806,-0.82136 0.17855,-0.85806 z m 3.3923,0.73143 c -0.85138,-0.0341 0.13656,1.31908 0.27666,0.41684 0.008,-0.17506 -0.0765,-0.39739 -0.27666,-0.41684 z m -2.22938,1.09249 c -0.58543,-0.14049 -1.08057,0.89655 -0.39143,1.06245 0.67361,0.24904 1.09808,-0.86352 0.39143,-1.06245 z m 3.60812,1.61956 c -0.80032,-0.0434 -0.46718,1.00011 -0.93084,1.39644 -0.3287,0.54356 0.46717,0.4725 0.54535,0.0353 0.16761,-0.44675 0.74352,-0.80507 0.5963,-1.31822 -0.046,-0.0706 -0.13051,-0.10348 -0.21081,-0.11354 z m -4.77426,0.335 c -0.5971,0.0113 -0.73291,1.13554 -1.40014,0.84036 -0.23538,-0.31531 -0.98413,-0.90853 -0.90342,-0.093 0.21862,0.66267 0.55234,1.33546 1.10115,1.78576 0.43982,0.38227 1.11777,0.12312 1.31919,-0.39328 0.29082,-0.58003 0.47654,-1.31157 0.18681,-1.92425 -0.0662,-0.10863 -0.1756,-0.19597 -0.30359,-0.21558 z" />
    <path
       style="fill:none;stroke:#000000;stroke-width:0.199999;stroke-linecap:round;stroke-linejoin:round;stroke-dasharray:none"
       d="m 152.31419,146.43234 c 0,0 -0.041,0.19173 0.0851,0.45343 0.12615,0.26171 0.28901,0.33191 0.28901,0.33191"
       id="path43701-4-4-3-2"
       sodipodi:nodetypes="czc" />
    <path
       style="fill:none;stroke:#000000;stroke-width:0.199999;stroke-linecap:round;stroke-linejoin:round;stroke-dasharray:none"
       d="m 151.51592,145.89598 c 0,0 -0.041,0.19172 0.0851,0.45342 0.12614,0.26171 0.28901,0.33191 0.28901,0.33191"
       id="path43725-6-1-5"
       sodipodi:nodetypes="czc" />
    <path
       style="fill:none;stroke:#000000;stroke-width:0.199999;stroke-linecap:round;stroke-linejoin:round;stroke-dasharray:none"
       d="m 150.72836,145.30225 c 0,0 -0.041,0.19172 0.0851,0.45342 0.12614,0.26171 0.28901,0.33191 0.28901,0.33191"
       id="path43727-9-4-4"
       sodipodi:nodetypes="czc" />
    <path
       style="fill:none;stroke:#000000;stroke-width:0.199999;stroke-linecap:round;stroke-linejoin:round;stroke-dasharray:none"
       d="m 152.76835,146.25641 c 0.17091,0.27365 0.26521,0.59182 0.34478,0.90454 0.0444,0.17464 0.12029,0.36206 0.0723,0.53577 l -0.41193,1.49102 c -0.0231,0.0836 -0.15677,0.11845 -0.24093,0.0978 -0.14076,-0.0346 -0.20748,-0.20692 -0.28141,-0.33165 m -0.67193,-1.13372 -1.08971,-1.83863 c -0.0842,-0.14207 -0.15186,-0.29717 -0.18855,-0.45823 -0.0233,-0.10247 -0.026,-0.20998 -0.0182,-0.3148 v 0 l 0.0815,-1.08863 m 0.0528,-0.7052 c 0.008,-0.109 0.0836,-0.24132 0.18973,-0.26741 0.11719,-0.0288 0.25857,0.0621 0.32251,0.16455 l 0.81251,1.30096"
       id="path45027-4-9-0"
       sodipodi:nodetypes="cassaccsassccasc" />
    <path
       style="fill:none;stroke:#000000;stroke-width:0.199999;stroke-linecap:round;stroke-linejoin:round;stroke-dasharray:none"
       d="m 153.73027,134.14649 c -0.0102,0.21587 0.0711,0.45089 0.14222,0.65202 0.41509,1.17426 1.77693,1.78242 2.86933,2.3662 0.91918,0.49121 1.95268,0.96881 2.99388,0.89918 0.37359,-0.025 0.56967,-0.0273 0.93484,-0.15421 m 2.05071,-1.29833 c 1.16139,-1.16476 1.84946,-2.60023 2.00569,-4.25049 m -0.61369,-2.43346 c -0.23727,-0.43103 -0.37069,-0.54802 -0.69871,-0.88826 -1.0333,-1.07177 -2.45712,-2.0896 -3.94467,-2.07843 -0.63121,0.005 -1.08678,-0.0109 -1.73563,0.3055 m -2.0772,1.40352 c -0.35503,0.22395 -0.4725,0.42123 -0.71196,0.74677 -0.50638,0.68847 -0.99603,1.64694 -1.03875,2.55317"
       id="path37294-3-2-2-5"
       sodipodi:nodetypes="csasccccssccsc" />
    <path
       style="fill:none;stroke:#000000;stroke-width:0.199999;stroke-linecap:round;stroke-linejoin:round;stroke-dasharray:none"
       d="m 158.53165,138.38662 c -0.69714,0.0175 -1.34723,-0.50588 -2.0069,-0.79247 -0.51042,-0.22175 -1.07566,-0.36526 -1.50795,-0.71657 -0.21178,-0.17209 -0.43706,-0.3696 -0.59055,-0.60075"
       id="path37296-1-2-0-9"
       sodipodi:nodetypes="casc" />
    <path
       style="fill:none;stroke:#000000;stroke-width:0.199999;stroke-linecap:round;stroke-linejoin:round;stroke-dasharray:none"
       d="m 156.48549,138.08221 c -0.0747,0.12668 -0.18793,0.31787 -0.23113,0.42968 -0.0702,0.18162 0.0157,0.36373 -0.11304,0.44842 -0.15523,0.1021 -0.42183,0.0452 -0.55008,-0.0892 -0.10808,-0.1133 -0.11771,-0.324 -0.0535,-0.46685 0.0497,-0.11049 0.18856,-0.0927 0.2975,-0.20855 0.0681,-0.0724 0.14062,-0.24599 0.21564,-0.34235"
       id="path37298-9-6-6-4"
       sodipodi:nodetypes="csaaasc" />
    <path
       style="fill:none;stroke:#000000;stroke-width:0.199999;stroke-linecap:round;stroke-linejoin:round;stroke-dasharray:none"
       d="m 161.35966,137.43857 c 0,0 -0.1004,0.14415 -0.0681,0.20977 0.0604,0.12258 0.25114,0.15468 0.3857,0.13299 0.17539,-0.0282 0.34341,-0.16483 0.42684,-0.32313 0.0745,-0.14138 0.12695,-0.35859 0.0231,-0.47858 -0.0734,-0.0848 -0.33452,-0.0295 -0.33452,-0.0295"
       id="path37302-4-4-8-6"
       sodipodi:nodetypes="caaaac" />
    <path
       style="fill:none;stroke:#000000;stroke-width:0.199999;stroke-linecap:round;stroke-linejoin:round;stroke-dasharray:none"
       d="m 164.43525,130.89333 c 0,0 0.019,-0.17455 0.0861,-0.20603 0.1256,-0.059 0.29254,0.0319 0.39512,0.1247 0.0765,0.0691 0.11709,0.18125 0.1233,0.28485 0.01,0.16413 -0.0292,0.35219 -0.13987,0.47376 -0.0835,0.0917 -0.22909,0.17932 -0.34456,0.13678 -0.0537,-0.0197 -0.0807,-0.15225 -0.0807,-0.15225"
       id="path37304-7-1-9-9"
       sodipodi:nodetypes="caaaaac" />
    <path
       style="fill:none;stroke:#000000;stroke-width:0.199999;stroke-linecap:round;stroke-linejoin:round;stroke-dasharray:none"
       d="m 157.00564,128.10768 c 0,0 0.18085,-0.13429 0.16563,-0.2264 -0.0227,-0.13739 -0.20636,-0.2072 -0.3417,-0.23539 -0.1653,-0.0345 -0.35702,0.003 -0.49843,0.0967 -0.12287,0.0818 -0.2585,0.22133 -0.24734,0.36876 0.01,0.13265 0.14118,0.26064 0.26962,0.29093 0.0963,0.0227 0.27897,-0.10463 0.27897,-0.10463"
       id="path37306-8-2-2-2"
       sodipodi:nodetypes="caaaaac" />
    <path
       style="fill:none;stroke:#000000;stroke-width:0.199999;stroke-linecap:round;stroke-linejoin:round;stroke-dasharray:none"
       d="m 164.20184,131.28785 c 0,0 -0.18773,0.27659 -0.33649,0.31028 -0.19988,0.0453 -0.39839,-0.10124 -0.58739,-0.18146"
       id="path37310-4-8-6-2"
       sodipodi:nodetypes="cac" />
    <path
       style="fill:none;stroke:#000000;stroke-width:0.199999;stroke-linecap:round;stroke-linejoin:round;stroke-dasharray:none"
       d="m 163.08209,130.9886 c 0,0 -0.0671,-0.31033 -0.19348,-0.35825 -0.11542,-0.0437 -0.2552,0.0463 -0.34908,0.12786 -0.0519,0.0451 -0.0979,0.18199 -0.0979,0.18199"
       id="path37312-5-8-6-4"
       sodipodi:nodetypes="caac" />
    <path
       style="fill:none;stroke:#000000;stroke-width:0.199999;stroke-linecap:round;stroke-linejoin:round;stroke-dasharray:none"
       d="m 162.89045,131.65086 c 0,0 -0.17922,0.0896 -0.27324,0.0793 -0.0893,-0.01 -0.23646,-0.12938 -0.23646,-0.12938"
       id="path37314-0-9-4-7"
       sodipodi:nodetypes="cac" />
    <path
       style="fill:none;stroke:#000000;stroke-width:0.199999;stroke-linecap:round;stroke-linejoin:round;stroke-dasharray:none"
       d="m 162.12254,131.27083 c 0,0 -0.15509,0.0504 -0.23425,0.0439 -0.24218,-0.0202 -0.45132,-0.12355 -0.68459,-0.25077"
       id="path37316-3-2-9-7"
       sodipodi:nodetypes="cac" />
    <path
       style="fill:none;stroke:#000000;stroke-width:0.199999;stroke-linecap:round;stroke-linejoin:round;stroke-dasharray:none"
       d="m 161.0071,130.59436 c 0,0 0.0221,-0.3726 -0.0869,-0.50156 -0.0959,-0.11347 -0.27375,-0.17237 -0.41994,-0.14601 -0.1736,0.0313 -0.41092,0.33741 -0.41092,0.33741"
       id="path37318-6-8-5-5"
       sodipodi:nodetypes="caac" />
    <path
       style="fill:none;stroke:#000000;stroke-width:0.199999;stroke-linecap:round;stroke-linejoin:round;stroke-dasharray:none"
       d="m 159.72314,130.59283 c -0.23354,-0.07 -0.68857,-0.18969 -0.98032,-0.38503 -0.14907,-0.0998 -0.25191,-0.17545 -0.3728,-0.38827"
       id="path37320-1-8-0-4"
       sodipodi:nodetypes="cac" />
    <path
       style="fill:none;stroke:#000000;stroke-width:0.199999;stroke-linecap:round;stroke-linejoin:round;stroke-dasharray:none"
       d="m 160.79662,131.17007 c 0,0 -0.26767,0.12144 -0.40974,0.1208 -0.0936,-4.2e-4 -0.19749,-0.0208 -0.26831,-0.082 -0.0587,-0.0507 -0.10017,-0.21089 -0.10017,-0.21089"
       id="path37322-0-8-4-8"
       sodipodi:nodetypes="caac" />
    <path
       style="fill:none;stroke:#000000;stroke-width:0.199999;stroke-linecap:round;stroke-linejoin:round;stroke-dasharray:none"
       d="m 158.41511,129.42115 c 0,0 0.10276,-0.21305 0.0717,-0.31617 -0.0326,-0.10794 -0.13879,-0.19438 -0.24456,-0.23133 -0.10846,-0.0379 -0.24304,-0.0268 -0.34395,0.0294 -0.0598,0.0333 -0.12352,0.16479 -0.12352,0.16479"
       id="path37324-6-6-8-1"
       sodipodi:nodetypes="caaac" />
    <path
       style="fill:none;stroke:#000000;stroke-width:0.199999;stroke-linecap:round;stroke-linejoin:round;stroke-dasharray:none"
       d="m 157.29393,129.25467 c -0.17563,-0.0255 -0.25445,-0.053 -0.34358,-0.13851 -0.0854,-0.0819 -0.12601,-0.20656 -0.14634,-0.32341"
       id="path37326-3-8-7-2"
       sodipodi:nodetypes="cac" />
    <path
       style="fill:none;stroke:#000000;stroke-width:0.199999;stroke-linecap:round;stroke-linejoin:round;stroke-dasharray:none"
       d="m 157.95316,129.82177 c 0,0 -0.30056,0.0404 -0.42012,-0.0333 -0.0431,-0.0266 -0.0793,-0.1302 -0.0793,-0.1302"
       id="path37328-2-3-1-8"
       sodipodi:nodetypes="cac" />
    <path
       style="fill:none;stroke:#000000;stroke-width:0.199999;stroke-linecap:round;stroke-linejoin:round;stroke-dasharray:none"
       d="m 160.34894,136.60665 c 0,0 0.0614,-0.32114 -0.0322,-0.42848 -0.0848,-0.0973 -0.25683,-0.1235 -0.37817,-0.079 -0.11494,0.0422 -0.22821,0.29006 -0.22821,0.29006"
       id="path37330-0-8-7-9"
       sodipodi:nodetypes="caac" />
    <path
       style="fill:none;stroke:#000000;stroke-width:0.199999;stroke-linecap:round;stroke-linejoin:round;stroke-dasharray:none"
       d="m 161.32715,137.04428 c 0,0 -0.37563,0.15391 -0.57002,0.1353 -0.12362,-0.0119 -0.20565,0.002 -0.3396,-0.15326"
       id="path37332-6-3-2-3"
       sodipodi:nodetypes="cac" />
    <path
       style="fill:none;stroke:#000000;stroke-width:0.199999;stroke-linecap:round;stroke-linejoin:round;stroke-dasharray:none"
       d="m 160.00374,137.02515 c 0,0 -0.21,0.045 -0.30116,0.003 -0.0525,-0.024 -0.0914,-0.0783 -0.11191,-0.13258 -0.008,-0.0214 -0.002,-0.0687 -0.002,-0.0687"
       id="path37334-1-3-7-6"
       sodipodi:nodetypes="caac" />
    <path
       style="fill:none;stroke:#000000;stroke-width:0.199999;stroke-linecap:round;stroke-linejoin:round;stroke-dasharray:none"
       d="m 159.24346,136.59278 c 0,0 -0.51807,-0.01 -0.75745,-0.0964 -0.0996,-0.036 -0.16433,-0.0818 -0.26804,-0.17065"
       id="path37336-5-3-2-8"
       sodipodi:nodetypes="cac" />
    <path
       style="fill:none;stroke:#000000;stroke-width:0.199999;stroke-linecap:round;stroke-linejoin:round;stroke-dasharray:none"
       d="m 158.14149,135.95446 c 0,0 0.0715,-0.23143 0.0211,-0.32825 -0.0471,-0.0904 -0.1595,-0.15193 -0.26093,-0.15705 -0.0773,-0.004 -0.14549,0.057 -0.21097,0.099 -0.0454,0.0291 -0.12387,0.10448 -0.12387,0.10448"
       id="path37338-5-8-2-0"
       sodipodi:nodetypes="caaac" />
    <path
       style="fill:none;stroke:#000000;stroke-width:0.199999;stroke-linecap:round;stroke-linejoin:round;stroke-dasharray:none"
       d="m 157.83994,136.24764 c 0,0 -0.17848,0.0285 -0.25584,-0.007 -0.0625,-0.029 -0.10524,-0.0933 -0.13858,-0.15397 -0.0139,-0.0253 -0.0235,-0.0836 -0.0235,-0.0836"
       id="path37340-4-0-6-2"
       sodipodi:nodetypes="caac" />
    <path
       style="fill:none;stroke:#000000;stroke-width:0.199999;stroke-linecap:round;stroke-linejoin:round;stroke-dasharray:none"
       d="m 157.16358,135.69822 c 0,0 -0.19718,-0.0147 -0.2783,-0.0646 -0.099,-0.0609 -0.1633,-0.17249 -0.22364,-0.26767"
       id="path37342-7-4-1-1"
       sodipodi:nodetypes="cac" />
    <path
       style="fill:none;stroke:#000000;stroke-width:0.199999;stroke-linecap:round;stroke-linejoin:round;stroke-dasharray:none"
       d="m 156.55753,134.93357 c 0.007,-0.0225 -0.007,-0.11876 -0.0336,-0.16987 -0.0391,-0.0756 -0.0952,-0.15852 -0.17596,-0.18409 -0.0693,-0.0219 -0.15471,1e-5 -0.21443,0.0422 -0.0441,0.0312 -0.0832,0.13959 -0.0832,0.13959"
       id="path37344-6-7-0-0"
       sodipodi:nodetypes="caaac" />
    <path
       style="fill:none;stroke:#000000;stroke-width:0.199999;stroke-linecap:round;stroke-linejoin:round;stroke-dasharray:none"
       d="m 155.61382,134.77254 c -0.16105,-0.0455 -0.45891,-0.10506 -0.6469,-0.237 -0.40086,-0.28137 -0.57505,-0.65797 -0.94448,-1.12575"
       id="path37346-5-6-6-5"
       sodipodi:nodetypes="cac" />
    <path
       style="fill:none;stroke:#000000;stroke-width:0.199999;stroke-linecap:round;stroke-linejoin:round;stroke-dasharray:none"
       d="m 153.92822,133.02678 c 0.003,-0.0162 -0.0187,-0.19911 -0.0751,-0.2752 -0.0339,-0.0456 -0.0911,-0.0706 -0.14434,-0.0901 -0.0671,-0.0246 -0.14823,-0.0631 -0.21228,-0.0306 -0.056,0.0284 -0.073,0.10558 -0.0898,0.16634 -0.0345,0.12488 -0.0487,0.26282 -0.0169,0.388 0.0219,0.086 0.0651,0.17661 0.1374,0.22721 0.039,0.0273 0.14011,0.0274 0.14011,0.0274"
       id="path37348-6-8-1-1"
       sodipodi:nodetypes="caaaaaac" />
    <path
       style="fill:none;stroke:#000000;stroke-width:0.199999;stroke-linecap:round;stroke-linejoin:round;stroke-dasharray:none"
       d="m 156.30355,135.38526 c -0.0115,0.0205 -0.089,0.0814 -0.145,0.0943 -0.0721,0.0166 -0.15604,0.01 -0.21959,-0.0279 -0.0596,-0.0352 -0.10401,-0.10099 -0.12305,-0.16798 -0.013,-0.0458 0.0109,-0.1426 0.0109,-0.1426"
       id="path37350-9-9-5-1"
       sodipodi:nodetypes="caaac" />
    <path
       style="fill:none;stroke:#000000;stroke-width:0.199999;stroke-linecap:round;stroke-linejoin:round;stroke-dasharray:none"
       d="m 159.0261,138.77188 c 0,0 -1.0396,0.49724 -1.4993,0.83882 -0.30372,0.22568 -0.69825,0.59778 -1.04749,0.94663"
       id="path37775-3-0-9-0"
       sodipodi:nodetypes="csc" />
    <path
       style="fill:none;stroke:#000000;stroke-width:0.199999;stroke-linecap:round;stroke-linejoin:round;stroke-dasharray:none"
       d="m 154.2749,140.44539 c 0,0 0.28901,-1.42033 0.32161,-2.14139 0.0213,-0.47143 -0.0831,-1.41328 -0.0831,-1.41328"
       id="path37781-5-6-4-8"
       sodipodi:nodetypes="cac" />
    <path
       style="fill:none;stroke:#000000;stroke-width:0.199999;stroke-linecap:round;stroke-linejoin:round;stroke-dasharray:none"
       d="m 154.30504,144.4965 c 0.19694,0.0671 0.40124,0.23225 0.44764,0.43518 0.0392,0.17116 -0.0383,0.39189 -0.18045,0.4949 -0.15553,0.11272 -0.39714,0.0894 -0.57575,0.0189 -0.17942,-0.0708 -0.36794,-0.22047 -0.40959,-0.4089 -0.0366,-0.16554 0.0417,-0.37274 0.17484,-0.47763"
       id="path42371-8-9-5"
       sodipodi:nodetypes="caaaac" />
    <path
       style="fill:none;stroke:#000000;stroke-width:0.199999;stroke-linecap:round;stroke-linejoin:round;stroke-dasharray:none"
       d="m 155.94473,144.01723 c -0.0366,-0.16554 0.0417,-0.37274 0.17485,-0.47763 0.14323,-0.11285 0.37077,-0.12122 0.54331,-0.0624 0.19693,0.0671 0.40123,0.23225 0.44764,0.43517 0.0391,0.17117 -0.0383,0.3919 -0.18046,0.49491 -0.15552,0.11271 -0.39713,0.0894 -0.57574,0.0189"
       id="path42397-7-0-0"
       sodipodi:nodetypes="caaaac" />
    <path
       style="fill:none;stroke:#000000;stroke-width:0.199999;stroke-linecap:round;stroke-linejoin:round;stroke-dasharray:none"
       d="m 155.00873,142.57451 c -0.17942,-0.0708 -0.36794,-0.22047 -0.40959,-0.40891 -0.0366,-0.16553 0.0417,-0.37273 0.17484,-0.47763 0.14324,-0.11284 0.37077,-0.12121 0.54331,-0.0624 0.19694,0.0671 0.40124,0.23224 0.44764,0.43517 0.0392,0.17117 -0.0383,0.39189 -0.18045,0.49491"
       id="path42399-9-9-6"
       sodipodi:nodetypes="caaaac" />
    <path
       style="fill:none;stroke:#000000;stroke-width:0.199999;stroke-linecap:round;stroke-linejoin:round;stroke-dasharray:none"
       d="m 153.59433,143.15003 c 0.0391,0.17117 -0.0383,0.3919 -0.18045,0.49491 -0.15553,0.11271 -0.39714,0.0893 -0.57575,0.0189 -0.17942,-0.0708 -0.36794,-0.22047 -0.40959,-0.4089 -0.0366,-0.16555 0.0417,-0.37274 0.17484,-0.47764 0.14324,-0.11284 0.37077,-0.12121 0.54331,-0.0624"
       id="path42401-0-1-4"
       sodipodi:nodetypes="caaaac" />
    <path
       style="fill:none;stroke:#000000;stroke-width:0.199999;stroke-linecap:round;stroke-linejoin:round;stroke-dasharray:none"
       d="m 156.05389,145.83258 -1.49473,0.67682 c -0.19386,0.0878 -0.42804,0.11544 -0.63494,0.0658 -0.20619,-0.0495 -0.41572,-0.1697 -0.53409,-0.34571 m -0.40778,-0.60638 -1.09561,-1.6292 m -0.30658,-0.45589 c -0.13901,-0.20673 -0.1767,-0.48972 -0.13451,-0.73531 0.0306,-0.17829 0.10296,-0.40184 0.27019,-0.47061 l 1.43355,-0.58946 m 0.58065,-0.23876 1.27292,-0.52343 c 0.23231,-0.0955 0.51753,-0.0419 0.75188,0.0484 0.21766,0.0839 0.41673,0.24241 0.54797,0.43533 l 1.12799,1.65796 m 0.58718,0.86306 c 0.14665,0.21555 0.15619,0.54354 0.0481,0.78081 -0.0864,0.18954 -0.30617,0.29415 -0.49584,0.38004"
       id="path42403-3-7-6"
       sodipodi:nodetypes="csaccccasccsasccac" />
    <path
       style="fill:none;stroke:#000000;stroke-width:0.199999;stroke-linecap:round;stroke-linejoin:round;stroke-dasharray:none"
       d="m 155.79709,140.41181 c 0,0 0.5276,-0.75096 0.83526,-1.0898 0.25775,-0.28388 0.84136,-0.78435 0.84136,-0.78435"
       id="path43047-3-7-2"
       sodipodi:nodetypes="cac" />
    <path
       style="fill:none;stroke:#000000;stroke-width:0.199999;stroke-linecap:round;stroke-linejoin:round;stroke-dasharray:none"
       d="m 155.19129,139.247 c 0,0 -0.0401,0.29113 -0.0682,0.43528 -0.0413,0.21199 -0.14729,0.63097 -0.14729,0.63097"
       id="path43049-3-1-5"
       sodipodi:nodetypes="cac" />
    <path
       style="fill:none;stroke:#000000;stroke-width:0.199999;stroke-linecap:round;stroke-linejoin:round;stroke-dasharray:none"
       d="m 155.612,146.6117 1.97052,-0.92292 c 0.15797,-0.074 0.38145,-0.12722 0.52264,-0.0248 0.11543,0.0838 0.16526,0.27967 0.11358,0.41266 l -0.31631,0.814 m -0.30696,0.78995 c -0.0543,0.13968 -0.18152,0.24092 -0.29357,0.34037 -0.1615,0.14336 -0.34251,0.26869 -0.53727,0.36191 m -1.34043,0.64155 -1.41029,0.67498 c -0.17291,0.0828 -0.36046,0.2081 -0.5487,0.17205 -0.16034,-0.0307 -0.43003,-0.1533 -0.3802,-0.30887 l 0.5249,-1.63886 c 0.065,-0.20297 0.18361,-0.39871 0.34418,-0.53877 0.12359,-0.10778 0.2982,-0.13643 0.44668,-0.20597"
       id="path43051-7-1-8"
       sodipodi:nodetypes="csasccaccsassac" />
    <path
       style="fill:none;stroke:#000000;stroke-width:0.199999;stroke-linecap:round;stroke-linejoin:round;stroke-dasharray:none"
       d="m 155.23502,148.10319 c 0,0 0.23658,0.0295 0.5403,-0.15731 0.30373,-0.18687 0.37159,-0.39801 0.37159,-0.39801"
       id="path43701-3-5-6"
       sodipodi:nodetypes="czc" />
    <path
       style="fill:none;stroke:#000000;stroke-width:0.199999;stroke-linecap:round;stroke-linejoin:round;stroke-dasharray:none"
       d="m 149.62713,143.70938 c 0,0 -1.40617,-2.40434 -1.85539,-3.71311 -0.41963,-1.22259 -0.76242,-3.80235 -0.76242,-3.80235"
       id="path45029-2-9-2"
       sodipodi:nodetypes="cac" />
    <path
       style="fill:none;stroke:#000000;stroke-width:0.199999;stroke-linecap:round;stroke-linejoin:round;stroke-dasharray:none"
       d="m 153.41689,136.70571 c 0,0 -0.28279,-0.6601 -0.46253,-0.9699 -0.22062,-0.38026 -0.75167,-1.08363 -0.75167,-1.08363"
       id="path45031-6-7-8"
       sodipodi:nodetypes="cac" />
    <path
       style="fill:none;stroke:#000000;stroke-width:0.199999;stroke-linecap:round;stroke-linejoin:round;stroke-dasharray:none"
       d="m 154.44561,128.61138 c 0,0 -0.75855,-0.44294 -1.15012,-0.64128 -0.40097,-0.2031 -1.2262,-0.56098 -1.2262,-0.56098"
       id="path45033-5-7-4"
       sodipodi:nodetypes="cac" />
    <path
       style="fill:none;stroke:#000000;stroke-width:0.199999;stroke-linecap:round;stroke-linejoin:round;stroke-dasharray:none"
       d="m 162.82169,135.22523 c 0,0 0.59501,-0.85087 0.78847,-1.32795 0.17496,-0.43145 0.32479,-1.35848 0.32479,-1.35848"
       id="path45832-2-6-7"
       sodipodi:nodetypes="cac" />
    <path
       style="fill:none;stroke:#000000;stroke-width:0.199999;stroke-linecap:round;stroke-linejoin:round;stroke-dasharray:none"
       d="m 154.73858,131.86856 c 0,0 0.14218,-0.77073 0.29182,-1.12971 0.1685,-0.40424 0.67222,-1.1288 0.67222,-1.1288"
       id="path45834-6-7-2"
       sodipodi:nodetypes="cac" />
    <path
       style="fill:none;stroke:#000000;stroke-width:0.199999;stroke-linecap:round;stroke-linejoin:round;stroke-dasharray:none"
       d="m 159.14883,127.90596 c 0,0 1.20562,0.12156 1.7484,0.36648 0.68931,0.31103 1.81831,1.35696 1.81831,1.35696"
       id="path45836-5-3-4"
       sodipodi:nodetypes="cac" />
    <path
       style="fill:#fff6e5;fill-opacity:1;stroke:none;stroke-width:0.1;stroke-linecap:round;stroke-linejoin:round"
       d="m 67.372044,146.65237 c -0.642395,1.85032 -2.110237,3.74008 -3.980281,4.32256 -1.881148,0.58593 -4.370148,0.0862 -5.764905,-1.30547 -1.065028,-1.06266 -1.119138,-2.89953 -1.006648,-4.39983 0.105933,-1.41285 1.901396,-2.58182 1.555235,-3.95569 -0.210483,-0.83539 -1.252777,-1.19649 -1.972457,-1.67001 -1.234156,-0.81204 -3.045046,-0.81995 -3.968652,-1.97299 -1.396117,-1.74292 -1.862986,-4.28764 -1.600859,-6.50534 0.225068,-1.90416 1.025468,-4.07517 2.638869,-5.11123 1.469595,-0.94371 3.561679,-0.75355 5.233629,-0.24868 0.831112,0.25096 1.243589,1.39102 2.098395,1.54283 1.146829,0.20368 2.33577,-1.5362 3.355844,-0.97394 0.366921,0.20225 0.413067,0.79373 0.348329,1.20766 -0.141644,0.9056 -1.293563,1.3983 -1.532412,2.28323 -0.326463,1.20955 -0.452681,2.70683 0.239868,3.75084 0.285,0.42963 1.230202,0.19896 1.383687,0.69115 0.223093,0.71541 -0.886796,1.24667 -1.083716,1.96972 -0.202706,0.74431 -0.343043,1.59309 -0.06666,2.3133 0.369486,0.96283 1.103876,2.24774 2.13513,2.23903 1.117485,-0.009 1.434074,-1.72597 2.272327,-2.46501 0.496338,-0.4376 1.055078,-1.50197 1.616648,-1.15199 0.734596,0.45782 -0.201155,1.72521 -0.42126,2.56233 -0.408632,1.55414 -1.43826,2.93475 -1.658836,4.52649 -0.107887,0.7785 0.436501,1.60857 0.178729,2.35104 z"
       id="path373"
       sodipodi:nodetypes="aaaaaaaaaaaaaaaaaaaaaaaa" />
    <path
       style="fill:#ffeecc;fill-opacity:1;stroke:none;stroke-width:0.1;stroke-linecap:round;stroke-linejoin:round"
       d="m 63.776333,149.62026 c 1.132574,-0.93742 2.127392,-2.14456 2.66902,-3.51135 0.228314,-0.57614 0.02158,-1.2538 0.194205,-1.849 0.225499,-0.77747 0.982396,-1.37232 1.078002,-2.17616 0.05734,-0.48207 0.125583,-1.23305 -0.322326,-1.42029 -0.624822,-0.26118 -1.049634,1.0361 -1.7259,1.07185 -1.125174,0.0595 -2.366041,-0.57034 -3.043538,-1.47064 -0.62761,-0.83401 -0.818301,-2.08373 -0.528361,-3.08642 0.147158,-0.50892 0.957087,-0.66254 1.062826,-1.18164 0.07723,-0.37917 -0.315353,-0.71596 -0.376865,-1.098 -0.128913,-0.80064 0.04522,-1.62193 0.0276,-2.43269 -0.0199,-0.9147 0.246928,-1.91654 -0.15053,-2.74062 -0.252301,-0.52311 -0.831557,-0.81724 -1.301973,-1.15786 -1.125119,-0.81467 -2.236353,-1.84475 -3.602874,-2.09416 -1.307413,-0.23862 -2.747933,0.0543 -3.932582,0.65669 -1.203926,0.6122 -2.464766,1.55558 -2.893671,2.83631 -0.581145,1.73533 -0.0082,3.79507 0.815575,5.42924 0.622187,1.23428 1.809491,2.12503 2.930171,2.93412 0.907307,0.65506 2.019541,0.9672 3.001373,1.50413 0.481518,0.26332 1.251527,0.31746 1.415292,0.84128 0.43551,1.39301 -1.631241,2.53535 -1.819163,3.98271 -0.171687,1.32231 -0.114601,2.86992 0.677692,3.94242 0.866876,1.17346 2.446199,1.97165 3.905122,1.97645 0.715272,0.002 1.369899,-0.5003 1.920912,-0.95637 z"
       id="path374"
       sodipodi:nodetypes="aaaaaaaaaaaaaaaaaaaaaaaa" />
    <path
       id="path375"
       style="fill:#ffffcc;fill-opacity:1;stroke-width:0.1;stroke-linecap:round;stroke-linejoin:round"
       d="m 55.610852,126.88278 c 0.273728,-0.0354 0.550356,-0.0288 0.811354,0.0277 1.643934,0.3561 3.248766,1.47697 4.117735,2.91719 0.690835,1.14499 1.335058,2.91296 0.525243,3.97713 -0.394357,0.0328 -0.791446,0.0195 -1.186935,0.0331 -0.734211,0.0253 -1.469848,0.15236 -2.201882,0.0905 -0.337581,-0.0285 -0.746994,0.0202 -0.994071,-0.21156 -0.345387,-0.32402 -0.157932,-0.95196 -0.384102,-1.36805 -0.171891,-0.31623 -0.544528,-0.49233 -0.713467,-0.81015 -0.390565,-0.73475 -0.09119,-1.78157 -0.629903,-2.41575 -0.328525,-0.38675 -1.264241,-0.12603 -1.391602,-0.61724 -0.128173,-0.49434 0.488902,-0.95301 0.922324,-1.2231 0.331253,-0.20642 0.725243,-0.34806 1.125308,-0.39979 z" />
    <path
       id="path376"
       style="fill:#fff4bd;fill-opacity:1;stroke-width:0.1;stroke-linecap:round;stroke-linejoin:round"
       d="m 55.41629,127.19319 c 0.669116,-0.0517 1.336454,0.11862 1.969162,0.3218 1.512157,0.52743 2.910376,1.55374 3.649916,2.99976 0.361467,0.75338 0.636291,1.63201 0.404062,2.46443 -0.103598,0.27849 -0.291534,0.73319 -0.663248,0.62186 -0.423765,-0.13129 -0.839473,-0.47769 -0.895916,-0.93748 0.045,-0.34301 0.374777,-0.79745 -0.04592,-1.04192 -0.484193,-0.31899 -1.204345,-0.14469 -1.583983,-0.64477 -0.42356,-0.56309 -0.278175,-1.3906 -0.793775,-1.89918 -0.377883,-0.34448 -0.907817,-0.13428 -1.349251,-0.0807 -0.323077,0.0194 -0.64783,0.0153 -0.971686,0.0297 -0.417282,0.0401 -0.730192,-0.3272 -0.771053,-0.71499 -0.08994,-0.41394 0.162696,-0.83882 0.55579,-0.98381 0.157043,-0.0702 0.325532,-0.11299 0.495904,-0.13465 z m 0.224639,2.00574 c 0.422293,-0.0231 0.953337,-0.0751 1.233535,0.31619 0.33387,0.45663 0.40265,1.08979 0.23285,1.62229 -0.118701,0.42379 -0.639088,0.65689 -1.028228,0.44673 -0.625572,-0.42162 -0.848887,-1.25889 -0.755515,-1.9766 0.0478,-0.16535 0.162869,-0.33155 0.317361,-0.40861 z"
       sodipodi:nodetypes="sssssssssssssaaaaaaaa" />
    <path
       style="fill:#ffffcc;fill-opacity:1;stroke-width:0.1;stroke-linecap:round;stroke-linejoin:round"
       d="m 61.691053,146.51223 c 0.216375,-0.10897 0.333565,-0.40866 0.323719,-0.65072 -0.01979,-0.48704 -0.485223,-0.84638 -0.75552,-1.25201 -0.252799,-0.37938 -0.663698,-0.67077 -0.808654,-1.103 -0.234392,-0.69892 0.342609,-1.57648 -0.03215,-2.21129 -0.109914,-0.18619 -0.350584,-0.3604 -0.563283,-0.32159 -0.969812,0.17695 -1.305953,1.48106 -1.885036,2.27888 -0.220458,0.30373 -0.571857,0.5771 -0.602469,0.95115 -0.0282,0.34457 0.178775,0.69345 0.405142,0.95475 0.391952,0.45245 0.976075,0.71899 1.536262,0.93 0.754706,0.28426 1.661705,0.78658 2.381981,0.42383 z"
       id="path377"
       sodipodi:nodetypes="aaaaaaaaaaa" />
    <path
       style="fill:#fff4bd;fill-opacity:1;stroke-width:0.1;stroke-linecap:round;stroke-linejoin:round"
       d="m 61.642483,146.12617 c 0.2521,-0.13089 0.562546,-0.36445 0.553025,-0.64834 -0.01556,-0.46412 -0.526251,-0.87059 -0.973109,-0.99694 -0.219438,-0.062 -0.44343,0.22678 -0.663459,0.16687 -0.138662,-0.0377 -0.253391,-0.1693 -0.307068,-0.30261 -0.09718,-0.24134 -0.05431,-0.53123 0.02115,-0.78021 0.09814,-0.32381 0.435835,-0.53744 0.540457,-0.85921 0.107903,-0.33185 0.260694,-0.75203 0.07035,-1.04449 -0.14243,-0.21885 -0.484215,-0.33771 -0.735946,-0.26834 -0.377977,0.10415 -0.671387,0.52652 -0.742686,0.91204 -0.04473,0.24194 0.302975,0.46607 0.230559,0.70121 -0.09656,0.31352 -0.624189,0.31135 -0.780108,0.59998 -0.226514,0.4193 -0.435846,1.08004 -0.107719,1.42566 0.292565,0.30818 0.882855,-0.19489 1.274446,-0.0299 0.25339,0.10676 0.363191,0.4139 0.562166,0.60367 0.208275,0.19865 0.384456,0.47156 0.659019,0.55788 0.127406,0.0401 0.280392,0.0242 0.398928,-0.0373 z"
       id="path378"
       sodipodi:nodetypes="aaaaaaaaaaaaaaaaa" />
    <path
       id="path379"
       style="fill:#ffe6b3;fill-opacity:1;stroke:none;stroke-width:0.1;stroke-linecap:round;stroke-linejoin:round"
       d="m 56.763557,126.37568 c 1.617631,-0.16395 3.142235,0.80264 4.016485,2.11572 0.933941,1.32807 1.968247,2.82465 1.850129,4.52102 -0.182352,0.76606 -0.375005,1.52513 -0.405677,2.31554 -0.5491,1.11124 -1.357944,-0.54532 -1.402665,-1.1758 -0.192697,-1.18131 -0.22628,-3.0099 -1.281738,-3.73597 -0.893395,-0.61459 -0.818463,-1.6991 -1.928788,-1.95055 -0.787779,0.0213 -2.497398,0.88358 -2.410102,-0.55523 0.138017,-0.7615 0.76815,-1.45737 1.562356,-1.53473 z m -1.25629,3.05496 c 1.053113,-0.17356 1.481914,1.36801 0.810977,2.02762 -0.645141,0.66883 -1.672727,0.64409 -2.530634,0.80606 -1.110102,0.0968 -2.305308,0.1161 -3.332168,-0.36131 -0.721525,-0.71911 0.208077,-2.00452 1.141442,-1.55755 0.788801,0.63688 2.014279,0.52765 2.662789,-0.25831 0.29107,-0.38562 0.795335,-0.55169 1.247594,-0.65651 z m 4.700687,6.5246 c 1.061909,0.0869 0.150259,1.51826 -0.396314,1.83476 -1.388394,1.18537 -3.308975,1.28903 -5.040715,1.13795 -1.208241,-0.55948 0.411737,-1.95741 1.295571,-1.57957 1.013385,0.22729 1.937981,-0.26649 2.727071,-0.8467 0.432787,-0.26284 0.928269,-0.41816 1.414387,-0.54644 z m 0.0289,5.69794 c 0.880599,-0.24266 2.030838,1.17393 0.568954,1.13159 -0.821456,0.40961 -1.42343,-0.86593 -0.568954,-1.13159 z m 2.374249,0.7225 c 1.092105,-0.17902 1.229904,1.60767 0.146475,1.70004 -0.869565,0.0288 -1.14986,-1.63361 -0.146475,-1.70004 z m -3.35721,0.83715 c 1.199276,-0.24764 1.167915,1.39221 0.268464,1.75207 -1.015834,0.50071 -1.595071,-1.30946 -0.572398,-1.66144 l 0.127352,-0.0528 0.176577,-0.0378 z m 5.546402,-0.63409 c 0.808216,0.23441 0.95449,1.36194 1.090706,2.09264 0.182368,1.10124 -0.461979,2.05896 -1.079076,2.89846 -0.398254,0.79536 -1.59785,2.49049 -2.402226,1.19511 -0.634827,-0.9331 -0.58688,-2.22844 0.142343,-3.09953 0.729672,-0.81215 1.166857,-1.7998 1.682736,-2.7415 0.138136,-0.17771 0.335528,-0.3232 0.565517,-0.34518 z m -3.679866,1.96885 c 1.005684,-0.16809 1.294193,1.53055 0.191662,1.52416 -0.715994,-0.0221 -0.981448,-1.38798 -0.191662,-1.52416 z m -3.523925,0.83867 c 1.384008,0.11404 0.501928,1.98139 1.647435,2.46126 0.328615,0.50039 2.130027,1.32473 0.985763,1.78977 -0.867993,-0.17213 -1.605305,-0.79025 -2.22544,-1.39676 -0.556545,-0.66871 -0.912793,-1.59206 -0.786779,-2.46443 0.05277,-0.17571 0.185657,-0.35886 0.379021,-0.38984 z"
       sodipodi:nodetypes="cccccsccccccccccccccccccccccsccccscccccccccccccccc" />
    <path
       style="fill:#ffe6b3;fill-opacity:1;stroke:none;stroke-width:0.1;stroke-linecap:round;stroke-linejoin:round"
       d="m 61.693878,140.91241 c 0.895206,-0.3105 -0.23398,-1.88652 -0.221152,-2.83397 0.0085,-0.6267 0.779084,-1.6375 0.197013,-1.86995 -0.485494,-0.19388 -0.809213,0.74189 -0.955238,1.24386 -0.215268,0.73999 -0.05167,1.57617 0.204843,2.30291 0.154472,0.43768 0.336016,1.30926 0.774534,1.15715 z"
       id="path380"
       sodipodi:nodetypes="aaaaaa" />
    <path
       id="path381"
       style="fill:#ffdd99;fill-opacity:1;stroke:none;stroke-width:0.1;stroke-linecap:round;stroke-linejoin:round"
       d="m 59.690556,136.46639 c 0.663297,-0.14224 0.866594,0.63279 0.410216,1.02395 0.0092,0.43201 0.269483,0.84936 0.224036,1.30541 -0.01242,0.56762 -0.71216,0.45894 -1.048431,0.24975 -0.497997,-0.13606 -0.714393,-0.79897 -1.284685,-0.74778 -0.602468,5.4e-4 -1.173918,0.48945 -1.77605,0.25953 -0.654462,-0.3458 -0.102229,-1.20663 0.52548,-1.02811 0.55869,0.0338 1.187879,0.13966 1.653371,-0.2581 0.41933,-0.28364 0.775088,-0.71126 1.296069,-0.80465 z m 0.634024,5.32453 c 0.510262,-0.17994 1.207306,0.75135 0.493362,0.89427 -0.577261,0.0587 -0.96824,-0.39777 -0.493362,-0.89427 z m 2.078503,1.28791 c 0.420577,0.0117 0.81271,0.93191 0.178551,0.85806 -0.534731,0.36642 -0.708061,-0.82136 -0.178551,-0.85806 z m -3.392301,0.73143 c 0.85138,-0.0341 -0.136563,1.31908 -0.276656,0.41684 -0.0079,-0.17506 0.07649,-0.39739 0.276656,-0.41684 z m 2.22938,1.09249 c 0.585432,-0.14049 1.080572,0.89655 0.391428,1.06245 -0.673609,0.24904 -1.098079,-0.86352 -0.391428,-1.06245 z m -3.608116,1.61956 c 0.800314,-0.0434 0.467172,1.00011 0.930838,1.39644 0.328701,0.54356 -0.467177,0.4725 -0.545348,0.0353 -0.167619,-0.44675 -0.743524,-0.80507 -0.596304,-1.31822 0.04604,-0.0706 0.130515,-0.10348 0.210814,-0.11354 z m 4.774257,0.335 c 0.597101,0.0113 0.732905,1.13554 1.400138,0.84036 0.235384,-0.31531 0.984132,-0.90853 0.90342,-0.093 -0.218619,0.66267 -0.552336,1.33546 -1.101148,1.78576 -0.439825,0.38227 -1.117773,0.12312 -1.319188,-0.39328 -0.290824,-0.58003 -0.476543,-1.31157 -0.186809,-1.92425 0.06619,-0.10863 0.175596,-0.19597 0.303587,-0.21558 z" />
    <path
       style="fill:none;stroke:#000000;stroke-width:0.199999;stroke-linecap:round;stroke-linejoin:round;stroke-dasharray:none"
       d="m 63.414091,146.43234 c 0,0 0.04099,0.19173 -0.08515,0.45343 -0.126142,0.26171 -0.289008,0.33191 -0.289008,0.33191"
       id="path382"
       sodipodi:nodetypes="czc" />
    <path
       style="fill:none;stroke:#000000;stroke-width:0.199999;stroke-linecap:round;stroke-linejoin:round;stroke-dasharray:none"
       d="m 64.212363,145.89598 c 0,0 0.04099,0.19172 -0.08515,0.45342 -0.126143,0.26171 -0.289008,0.33191 -0.289008,0.33191"
       id="path383"
       sodipodi:nodetypes="czc" />
    <path
       style="fill:none;stroke:#000000;stroke-width:0.199999;stroke-linecap:round;stroke-linejoin:round;stroke-dasharray:none"
       d="m 64.999926,145.30225 c 0,0 0.04099,0.19172 -0.08515,0.45342 -0.126142,0.26171 -0.289013,0.33191 -0.289013,0.33191"
       id="path384"
       sodipodi:nodetypes="czc" />
    <path
       style="fill:none;stroke:#000000;stroke-width:0.199999;stroke-linecap:round;stroke-linejoin:round;stroke-dasharray:none"
       d="m 62.959936,146.25641 c -0.170912,0.27365 -0.265216,0.59182 -0.344784,0.90454 -0.04441,0.17464 -0.120286,0.36206 -0.0723,0.53577 l 0.411923,1.49102 c 0.0231,0.0836 0.156777,0.11845 0.240931,0.0978 0.140765,-0.0346 0.207483,-0.20692 0.281411,-0.33165 m 0.671935,-1.13372 1.089708,-1.83863 c 0.08421,-0.14207 0.151858,-0.29717 0.188549,-0.45823 0.02331,-0.10247 0.02597,-0.20998 0.01816,-0.3148 v 0 l -0.08147,-1.08863 m -0.05276,-0.7052 c -0.0081,-0.109 -0.08364,-0.24132 -0.189732,-0.26741 -0.117195,-0.0288 -0.258568,0.0621 -0.322515,0.16455 l -0.81251,1.30096"
       id="path385"
       sodipodi:nodetypes="cassaccsassccasc" />
    <path
       style="fill:none;stroke:#000000;stroke-width:0.199999;stroke-linecap:round;stroke-linejoin:round;stroke-dasharray:none"
       d="m 61.998013,134.14649 c 0.01019,0.21587 -0.07112,0.45089 -0.142219,0.65202 -0.415095,1.17426 -1.776932,1.78242 -2.869335,2.3662 -0.919172,0.49121 -1.95268,0.96881 -2.99388,0.89918 -0.373584,-0.025 -0.569662,-0.0273 -0.934834,-0.15421 m -2.050712,-1.29833 c -1.161392,-1.16476 -1.849456,-2.60023 -2.005688,-4.25049 m 0.61369,-2.43346 c 0.237266,-0.43103 0.370684,-0.54802 0.698711,-0.88826 1.033296,-1.07177 2.457112,-2.0896 3.944664,-2.07843 0.631208,0.005 1.086787,-0.0109 1.735635,0.3055 m 2.077199,1.40352 c 0.355025,0.22395 0.472503,0.42123 0.711954,0.74677 0.506385,0.68847 0.996033,1.64694 1.038752,2.55317"
       id="path386"
       sodipodi:nodetypes="csasccccssccsc" />
    <path
       style="fill:none;stroke:#000000;stroke-width:0.199999;stroke-linecap:round;stroke-linejoin:round;stroke-dasharray:none"
       d="m 57.196632,138.38662 c 0.697143,0.0175 1.347226,-0.50588 2.006901,-0.79247 0.510419,-0.22175 1.075654,-0.36526 1.507954,-0.71657 0.211771,-0.17209 0.43706,-0.3696 0.590545,-0.60075"
       id="path387"
       sodipodi:nodetypes="casc" />
    <path
       style="fill:none;stroke:#000000;stroke-width:0.199999;stroke-linecap:round;stroke-linejoin:round;stroke-dasharray:none"
       d="m 59.242794,138.08221 c 0.07466,0.12668 0.187925,0.31787 0.231127,0.42968 0.07018,0.18162 -0.01572,0.36373 0.113038,0.44842 0.155231,0.1021 0.421829,0.0452 0.550081,-0.0892 0.108081,-0.1133 0.117716,-0.324 0.05346,-0.46685 -0.04966,-0.11049 -0.188554,-0.0927 -0.297498,-0.20855 -0.06812,-0.0724 -0.140619,-0.24599 -0.215637,-0.34235"
       id="path388"
       sodipodi:nodetypes="csaaasc" />
    <path
       style="fill:none;stroke:#000000;stroke-width:0.199999;stroke-linecap:round;stroke-linejoin:round;stroke-dasharray:none"
       d="m 54.368622,137.43857 c 0,0 0.100405,0.14415 0.06808,0.20977 -0.06038,0.12258 -0.251139,0.15468 -0.385706,0.13299 -0.175383,-0.0282 -0.343409,-0.16483 -0.42684,-0.32313 -0.07451,-0.14138 -0.126949,-0.35859 -0.02312,-0.47858 0.07337,-0.0848 0.334525,-0.0295 0.334525,-0.0295"
       id="path389"
       sodipodi:nodetypes="caaaac" />
    <path
       style="fill:none;stroke:#000000;stroke-width:0.199999;stroke-linecap:round;stroke-linejoin:round;stroke-dasharray:none"
       d="m 51.29303,130.89333 c 0,0 -0.01902,-0.17455 -0.08604,-0.20603 -0.125604,-0.059 -0.292542,0.0319 -0.395123,0.1247 -0.07645,0.0691 -0.117088,0.18125 -0.123299,0.28485 -0.0098,0.16413 0.02916,0.35219 0.139866,0.47376 0.08354,0.0917 0.229089,0.17932 0.34456,0.13678 0.05366,-0.0197 0.08066,-0.15225 0.08066,-0.15225"
       id="path390"
       sodipodi:nodetypes="caaaaac" />
    <path
       style="fill:none;stroke:#000000;stroke-width:0.199999;stroke-linecap:round;stroke-linejoin:round;stroke-dasharray:none"
       d="m 58.722642,128.10768 c 0,0 -0.18085,-0.13429 -0.16563,-0.2264 0.02272,-0.13739 0.206365,-0.2072 0.341703,-0.23539 0.1653,-0.0345 0.357015,0.003 0.498431,0.0967 0.122868,0.0818 0.258493,0.22133 0.247334,0.36876 -0.01003,0.13265 -0.141182,0.26064 -0.269618,0.29093 -0.09627,0.0227 -0.278966,-0.10463 -0.278966,-0.10463"
       id="path391"
       sodipodi:nodetypes="caaaaac" />
    <path
       style="fill:none;stroke:#000000;stroke-width:0.199999;stroke-linecap:round;stroke-linejoin:round;stroke-dasharray:none"
       d="m 51.52644,131.28785 c 0,0 0.187735,0.27659 0.336495,0.31028 0.199877,0.0453 0.398392,-0.10124 0.587389,-0.18146"
       id="path392"
       sodipodi:nodetypes="cac" />
    <path
       style="fill:none;stroke:#000000;stroke-width:0.199999;stroke-linecap:round;stroke-linejoin:round;stroke-dasharray:none"
       d="m 52.646188,130.9886 c 0,0 0.06713,-0.31033 0.193486,-0.35825 0.115414,-0.0437 0.255201,0.0463 0.349076,0.12786 0.0519,0.0451 0.09793,0.18199 0.09793,0.18199"
       id="path393"
       sodipodi:nodetypes="caac" />
    <path
       style="fill:none;stroke:#000000;stroke-width:0.199999;stroke-linecap:round;stroke-linejoin:round;stroke-dasharray:none"
       d="m 52.837833,131.65086 c 0,0 0.179216,0.0896 0.273239,0.0793 0.08935,-0.01 0.236461,-0.12938 0.236461,-0.12938"
       id="path394"
       sodipodi:nodetypes="cac" />
    <path
       style="fill:none;stroke:#000000;stroke-width:0.199999;stroke-linecap:round;stroke-linejoin:round;stroke-dasharray:none"
       d="m 53.605745,131.27083 c 0,0 0.155087,0.0504 0.234247,0.0439 0.242179,-0.0202 0.45132,-0.12355 0.684586,-0.25077"
       id="path395"
       sodipodi:nodetypes="cac" />
    <path
       style="fill:none;stroke:#000000;stroke-width:0.199999;stroke-linecap:round;stroke-linejoin:round;stroke-dasharray:none"
       d="m 54.721179,130.59436 c 0,0 -0.02212,-0.3726 0.08687,-0.50156 0.0959,-0.11347 0.273746,-0.17237 0.419941,-0.14601 0.173594,0.0313 0.410917,0.33741 0.410917,0.33741"
       id="path396"
       sodipodi:nodetypes="caac" />
    <path
       style="fill:none;stroke:#000000;stroke-width:0.199999;stroke-linecap:round;stroke-linejoin:round;stroke-dasharray:none"
       d="m 56.005146,130.59283 c 0.233535,-0.07 0.688568,-0.18969 0.980312,-0.38503 0.149076,-0.0998 0.251919,-0.17545 0.372801,-0.38827"
       id="path397"
       sodipodi:nodetypes="cac" />
    <path
       style="fill:none;stroke:#000000;stroke-width:0.199999;stroke-linecap:round;stroke-linejoin:round;stroke-dasharray:none"
       d="m 54.931661,131.17007 c 0,0 0.267676,0.12144 0.409743,0.1208 0.09362,-4.2e-4 0.197484,-0.0208 0.268307,-0.082 0.05866,-0.0507 0.100172,-0.21089 0.100172,-0.21089"
       id="path398"
       sodipodi:nodetypes="caac" />
    <path
       style="fill:none;stroke:#000000;stroke-width:0.199999;stroke-linecap:round;stroke-linejoin:round;stroke-dasharray:none"
       d="m 57.313175,129.42115 c 0,0 -0.102759,-0.21305 -0.07167,-0.31617 0.03255,-0.10794 0.138796,-0.19438 0.244562,-0.23133 0.108459,-0.0379 0.243036,-0.0268 0.343953,0.0294 0.05977,0.0333 0.123516,0.16479 0.123516,0.16479"
       id="path399"
       sodipodi:nodetypes="caaac" />
    <path
       style="fill:none;stroke:#000000;stroke-width:0.199999;stroke-linecap:round;stroke-linejoin:round;stroke-dasharray:none"
       d="m 58.434356,129.25467 c 0.175623,-0.0255 0.254448,-0.053 0.343574,-0.13851 0.08537,-0.0819 0.126012,-0.20656 0.146344,-0.32341"
       id="path400"
       sodipodi:nodetypes="cac" />
    <path
       style="fill:none;stroke:#000000;stroke-width:0.199999;stroke-linecap:round;stroke-linejoin:round;stroke-dasharray:none"
       d="m 57.775122,129.82177 c 0,0 0.300558,0.0404 0.420125,-0.0333 0.04311,-0.0266 0.07927,-0.1302 0.07927,-0.1302"
       id="path401"
       sodipodi:nodetypes="cac" />
    <path
       style="fill:none;stroke:#000000;stroke-width:0.199999;stroke-linecap:round;stroke-linejoin:round;stroke-dasharray:none"
       d="m 55.379339,136.60665 c 0,0 -0.06136,-0.32114 0.03222,-0.42848 0.08481,-0.0973 0.256835,-0.1235 0.378175,-0.079 0.11494,0.0422 0.228207,0.29006 0.228207,0.29006"
       id="path402"
       sodipodi:nodetypes="caac" />
    <path
       style="fill:none;stroke:#000000;stroke-width:0.199999;stroke-linecap:round;stroke-linejoin:round;stroke-dasharray:none"
       d="m 54.401132,137.04428 c 0,0 0.375635,0.15391 0.570015,0.1353 0.123621,-0.0119 0.205656,0.002 0.339604,-0.15326"
       id="path403"
       sodipodi:nodetypes="cac" />
    <path
       style="fill:none;stroke:#000000;stroke-width:0.199999;stroke-linecap:round;stroke-linejoin:round;stroke-dasharray:none"
       d="m 55.724543,137.02515 c 0,0 0.209995,0.045 0.301155,0.003 0.05245,-0.024 0.09142,-0.0783 0.111918,-0.13258 0.0081,-0.0214 0.0016,-0.0687 0.0016,-0.0687"
       id="path404"
       sodipodi:nodetypes="caac" />
    <path
       style="fill:none;stroke:#000000;stroke-width:0.199999;stroke-linecap:round;stroke-linejoin:round;stroke-dasharray:none"
       d="m 56.484821,136.59278 c 0,0 0.518073,-0.01 0.757449,-0.0964 0.0996,-0.036 0.16433,-0.0818 0.268045,-0.17065"
       id="path405"
       sodipodi:nodetypes="cac" />
    <path
       style="fill:none;stroke:#000000;stroke-width:0.199999;stroke-linecap:round;stroke-linejoin:round;stroke-dasharray:none"
       d="m 57.586793,135.95446 c 0,0 -0.07146,-0.23143 -0.02109,-0.32825 0.04706,-0.0904 0.159499,-0.15193 0.260928,-0.15705 0.07727,-0.004 0.145486,0.057 0.210971,0.099 0.04543,0.0291 0.123863,0.10448 0.123863,0.10448"
       id="path406"
       sodipodi:nodetypes="caaac" />
    <path
       style="fill:none;stroke:#000000;stroke-width:0.199999;stroke-linecap:round;stroke-linejoin:round;stroke-dasharray:none"
       d="m 57.888338,136.24764 c 0,0 0.178482,0.0285 0.255841,-0.007 0.0625,-0.029 0.105246,-0.0933 0.138587,-0.15397 0.0139,-0.0253 0.02346,-0.0836 0.02346,-0.0836"
       id="path407"
       sodipodi:nodetypes="caac" />
    <path
       style="fill:none;stroke:#000000;stroke-width:0.199999;stroke-linecap:round;stroke-linejoin:round;stroke-dasharray:none"
       d="m 58.564705,135.69822 c 0,0 0.197176,-0.0147 0.278299,-0.0646 0.09902,-0.0609 0.163294,-0.17249 0.223641,-0.26767"
       id="path408"
       sodipodi:nodetypes="cac" />
    <path
       style="fill:none;stroke:#000000;stroke-width:0.199999;stroke-linecap:round;stroke-linejoin:round;stroke-dasharray:none"
       d="m 59.170757,134.93357 c -0.0067,-0.0225 0.007,-0.11876 0.03356,-0.16987 0.03915,-0.0756 0.09519,-0.15852 0.175965,-0.18409 0.06928,-0.0219 0.154711,1e-5 0.214428,0.0422 0.04408,0.0312 0.08319,0.13959 0.08319,0.13959"
       id="path409"
       sodipodi:nodetypes="caaac" />
    <path
       style="fill:none;stroke:#000000;stroke-width:0.199999;stroke-linecap:round;stroke-linejoin:round;stroke-dasharray:none"
       d="m 60.114463,134.77254 c 0.161048,-0.0455 0.458904,-0.10506 0.646895,-0.237 0.400863,-0.28137 0.575055,-0.65797 0.944486,-1.12575"
       id="path410"
       sodipodi:nodetypes="cac" />
    <path
       style="fill:none;stroke:#000000;stroke-width:0.199999;stroke-linecap:round;stroke-linejoin:round;stroke-dasharray:none"
       d="m 61.800062,133.02678 c -0.0027,-0.0162 0.01865,-0.19911 0.07511,-0.2752 0.03389,-0.0456 0.0911,-0.0706 0.144333,-0.0901 0.06711,-0.0246 0.148231,-0.0631 0.212281,-0.0306 0.05596,0.0284 0.07305,0.10558 0.08982,0.16634 0.03448,0.12488 0.04874,0.26282 0.01686,0.388 -0.02191,0.086 -0.06512,0.17661 -0.137398,0.22721 -0.03898,0.0273 -0.140104,0.0274 -0.140104,0.0274"
       id="path411"
       sodipodi:nodetypes="caaaaaac" />
    <path
       style="fill:none;stroke:#000000;stroke-width:0.199999;stroke-linecap:round;stroke-linejoin:round;stroke-dasharray:none"
       d="m 59.424728,135.38526 c 0.01149,0.0205 0.089,0.0814 0.145,0.0943 0.07207,0.0166 0.156044,0.01 0.21959,-0.0279 0.05962,-0.0352 0.104015,-0.10099 0.123051,-0.16798 0.01301,-0.0458 -0.0109,-0.1426 -0.0109,-0.1426"
       id="path412"
       sodipodi:nodetypes="caaac" />
    <path
       style="fill:none;stroke:#000000;stroke-width:0.199999;stroke-linecap:round;stroke-linejoin:round;stroke-dasharray:none"
       d="m 56.702182,138.77188 c 0,0 1.039605,0.49724 1.499301,0.83882 0.303716,0.22568 0.698246,0.59778 1.047492,0.94663"
       id="path413"
       sodipodi:nodetypes="csc" />
    <path
       style="fill:none;stroke:#000000;stroke-width:0.199999;stroke-linecap:round;stroke-linejoin:round;stroke-dasharray:none"
       d="m 61.453386,140.44539 c 0,0 -0.289018,-1.42033 -0.321615,-2.14139 -0.02131,-0.47143 0.08309,-1.41328 0.08309,-1.41328"
       id="path414"
       sodipodi:nodetypes="cac" />
    <path
       style="fill:none;stroke:#000000;stroke-width:0.199999;stroke-linecap:round;stroke-linejoin:round;stroke-dasharray:none"
       d="m 61.42324,144.4965 c -0.196937,0.0671 -0.401237,0.23225 -0.447638,0.43518 -0.03915,0.17116 0.03833,0.39189 0.180454,0.4949 0.155524,0.11272 0.397138,0.0894 0.575749,0.0189 0.179413,-0.0708 0.367935,-0.22047 0.409586,-0.4089 0.0366,-0.16554 -0.04169,-0.37274 -0.174842,-0.47763"
       id="path415"
       sodipodi:nodetypes="caaaac" />
    <path
       style="fill:none;stroke:#000000;stroke-width:0.199999;stroke-linecap:round;stroke-linejoin:round;stroke-dasharray:none"
       d="m 59.783549,144.01723 c 0.0366,-0.16554 -0.0417,-0.37274 -0.174848,-0.47763 -0.143232,-0.11285 -0.370765,-0.12122 -0.543309,-0.0624 -0.196931,0.0671 -0.401231,0.23225 -0.447638,0.43517 -0.03915,0.17117 0.03833,0.3919 0.18046,0.49491 0.155518,0.11271 0.397132,0.0894 0.575743,0.0189"
       id="path416"
       sodipodi:nodetypes="caaaac" />
    <path
       style="fill:none;stroke:#000000;stroke-width:0.199999;stroke-linecap:round;stroke-linejoin:round;stroke-dasharray:none"
       d="m 60.719549,142.57451 c 0.179419,-0.0708 0.367941,-0.22047 0.409592,-0.40891 0.0366,-0.16553 -0.04169,-0.37273 -0.174842,-0.47763 -0.143232,-0.11284 -0.370771,-0.12121 -0.543309,-0.0624 -0.196937,0.0671 -0.401237,0.23224 -0.447638,0.43517 -0.03915,0.17117 0.03833,0.39189 0.180454,0.49491"
       id="path417"
       sodipodi:nodetypes="caaaac" />
    <path
       style="fill:none;stroke:#000000;stroke-width:0.199999;stroke-linecap:round;stroke-linejoin:round;stroke-dasharray:none"
       d="m 62.133952,143.15003 c -0.03915,0.17117 0.03833,0.3919 0.180454,0.49491 0.155524,0.11271 0.397138,0.0893 0.575743,0.0189 0.179419,-0.0708 0.367941,-0.22047 0.409593,-0.4089 0.0366,-0.16555 -0.0417,-0.37274 -0.174843,-0.47764 -0.143232,-0.11284 -0.370771,-0.12121 -0.543309,-0.0624"
       id="path418"
       sodipodi:nodetypes="caaaac" />
    <path
       style="fill:none;stroke:#000000;stroke-width:0.199999;stroke-linecap:round;stroke-linejoin:round;stroke-dasharray:none"
       d="m 59.674394,145.83258 1.494729,0.67682 c 0.193857,0.0878 0.428043,0.11544 0.634935,0.0658 0.206192,-0.0495 0.415724,-0.1697 0.534091,-0.34571 m 0.407781,-0.60638 1.095613,-1.6292 m 0.30658,-0.45589 c 0.139014,-0.20673 0.176697,-0.48972 0.134508,-0.73531 -0.03063,-0.17829 -0.102957,-0.40184 -0.270187,-0.47061 l -1.433548,-0.58946 m -0.580656,-0.23876 -1.272922,-0.52343 c -0.23231,-0.0955 -0.517522,-0.0419 -0.751876,0.0484 -0.217659,0.0839 -0.416727,0.24241 -0.547971,0.43533 l -1.127992,1.65796 m -0.587181,0.86306 c -0.146645,0.21555 -0.156189,0.54354 -0.04805,0.78081 0.08638,0.18954 0.306169,0.29415 0.495844,0.38004"
       id="path419"
       sodipodi:nodetypes="csaccccasccsasccac" />
    <path
       style="fill:none;stroke:#000000;stroke-width:0.199999;stroke-linecap:round;stroke-linejoin:round;stroke-dasharray:none"
       d="m 59.931194,140.41181 c 0,0 -0.527606,-0.75096 -0.83526,-1.0898 -0.25775,-0.28388 -0.841358,-0.78435 -0.841358,-0.78435"
       id="path420"
       sodipodi:nodetypes="cac" />
    <path
       style="fill:none;stroke:#000000;stroke-width:0.199999;stroke-linecap:round;stroke-linejoin:round;stroke-dasharray:none"
       d="m 60.536997,139.247 c 0,0 0.04012,0.29113 0.06818,0.43528 0.04126,0.21199 0.147293,0.63097 0.147293,0.63097"
       id="path421"
       sodipodi:nodetypes="cac" />
    <path
       style="fill:none;stroke:#000000;stroke-width:0.199999;stroke-linecap:round;stroke-linejoin:round;stroke-dasharray:none"
       d="m 60.116284,146.6117 -1.970518,-0.92292 c -0.15797,-0.074 -0.381454,-0.12722 -0.522644,-0.0248 -0.115431,0.0838 -0.165258,0.27967 -0.113579,0.41266 l 0.316307,0.814 m 0.306962,0.78995 c 0.05428,0.13968 0.181525,0.24092 0.293568,0.34037 0.161499,0.14336 0.342517,0.26869 0.537274,0.36191 m 1.340431,0.64155 1.410288,0.67498 c 0.172912,0.0828 0.360458,0.2081 0.548698,0.17205 0.160344,-0.0307 0.430033,-0.1533 0.380205,-0.30887 l -0.524906,-1.63886 c -0.065,-0.20297 -0.183605,-0.39871 -0.344182,-0.53877 -0.123583,-0.10778 -0.298198,-0.13643 -0.446678,-0.20597"
       id="path422"
       sodipodi:nodetypes="csasccaccsassac" />
    <path
       style="fill:none;stroke:#000000;stroke-width:0.199999;stroke-linecap:round;stroke-linejoin:round;stroke-dasharray:none"
       d="m 60.493258,148.10319 c 0,0 -0.236577,0.0295 -0.540294,-0.15731 -0.303728,-0.18687 -0.37159,-0.39801 -0.37159,-0.39801"
       id="path423"
       sodipodi:nodetypes="czc" />
    <path
       style="fill:none;stroke:#000000;stroke-width:0.199999;stroke-linecap:round;stroke-linejoin:round;stroke-dasharray:none"
       d="m 66.10115,143.70938 c 0,0 1.406173,-2.40434 1.855389,-3.71311 0.419633,-1.22259 0.762421,-3.80235 0.762421,-3.80235"
       id="path424"
       sodipodi:nodetypes="cac" />
    <path
       style="fill:none;stroke:#000000;stroke-width:0.199999;stroke-linecap:round;stroke-linejoin:round;stroke-dasharray:none"
       d="m 62.311397,136.70571 c 0,0 0.282789,-0.6601 0.462527,-0.9699 0.22062,-0.38026 0.751664,-1.08363 0.751664,-1.08363"
       id="path425"
       sodipodi:nodetypes="cac" />
    <path
       style="fill:none;stroke:#000000;stroke-width:0.199999;stroke-linecap:round;stroke-linejoin:round;stroke-dasharray:none"
       d="m 61.282675,128.61138 c 0,0 0.758551,-0.44294 1.150115,-0.64128 0.400976,-0.2031 1.226206,-0.56098 1.226206,-0.56098"
       id="path426"
       sodipodi:nodetypes="cac" />
    <path
       style="fill:none;stroke:#000000;stroke-width:0.199999;stroke-linecap:round;stroke-linejoin:round;stroke-dasharray:none"
       d="m 52.906596,135.22523 c 0,0 -0.595018,-0.85087 -0.788477,-1.32795 -0.174957,-0.43145 -0.324787,-1.35848 -0.324787,-1.35848"
       id="path427"
       sodipodi:nodetypes="cac" />
    <path
       style="fill:none;stroke:#000000;stroke-width:0.199999;stroke-linecap:round;stroke-linejoin:round;stroke-dasharray:none"
       d="m 60.989705,131.86856 c 0,0 -0.142181,-0.77073 -0.291822,-1.12971 -0.168504,-0.40424 -0.672216,-1.1288 -0.672216,-1.1288"
       id="path428"
       sodipodi:nodetypes="cac" />
    <path
       style="fill:none;stroke:#000000;stroke-width:0.199999;stroke-linecap:round;stroke-linejoin:round;stroke-dasharray:none"
       d="m 56.579448,127.90596 c 0,0 -1.205617,0.12156 -1.748399,0.36648 -0.689305,0.31103 -1.818305,1.35696 -1.818305,1.35696"
       id="path429"
       sodipodi:nodetypes="cac" />
    <path
       id="path5"
       style="fill:#ffdd99;fill-opacity:1;stroke-width:1;stroke-linecap:round;stroke-linejoin:round"
       d="m 123.48695,127.77843 c -3.17696,-0.21133 -6.25851,1.1987 -9.34115,1.99562 -2.14817,0.55534 -4.15464,1.78157 -6.36788,1.93838 -1.4611,0.10352 -2.87839,-0.62312 -4.34226,-0.67414 -2.04659,-0.0713 -4.073816,0.52156 -6.121636,0.51758 -3.118906,-0.006 -6.201469,-0.80771 -9.320337,-0.82454 -1.263042,-0.007 -2.524579,0.45036 -3.777823,0.29318 -0.952945,-0.11951 -1.771249,-0.84855 -2.728582,-0.92538 -2.264049,-0.18168 -5.145144,-0.50584 -6.719391,1.13143 -1.832451,1.90582 -2.452752,5.65223 -1.009092,7.86715 1.339169,2.05461 5.382542,0.29534 7.054567,2.08953 0.962991,1.03335 -0.06994,3.12466 0.914422,4.13768 1.25895,1.29559 3.496597,0.91157 5.256155,1.32081 1.843596,0.4288 3.676092,0.94102 5.552654,1.18846 2.587424,0.34117 5.212331,0.27656 7.819143,0.40186 2.72987,0.13121 5.45884,0.43964 8.19088,0.36646 5.62384,-0.15064 12.2157,1.61057 16.79614,-1.6559 1.87645,-1.33816 1.03847,-4.90249 2.88289,-6.28447 3.98348,-2.98474 12.3736,2.19667 14.77536,-2.16318 1.29592,-2.35246 -1.09579,-5.79059 -3.27361,-7.3624 -2.56406,-1.85058 -6.35545,-0.23546 -9.44093,-0.92744 -2.34863,-0.52674 -4.39786,-2.27092 -6.79952,-2.43069 z"
       sodipodi:nodetypes="aaaaaaaaaaaaaaaaaaaaaa" />
    <path
       id="text1"
       style="font-size:9.87778px;line-height:1.25;font-family:sans-serif;-inkscape-font-specification:sans-serif;text-align:justify;letter-spacing:0px;word-spacing:0px;stroke-width:0.264582"
       d="m 124.05048,128.73973 c -0.13826,0 -0.22026,0.0868 -0.24598,0.26045 v 8.8067 c 0.0225,0.16399 0.0997,0.24598 0.23151,0.24598 h 0.0434 c 0.10932,0 0.17685,-0.0772 0.20257,-0.23151 v -8.86458 c 0,-0.0997 -0.0772,-0.17203 -0.23151,-0.21704 z m -35.376951,11.19019 c -0.92283,0 -1.71238,0.38442 -2.36833,1.1529 -0.51768,0.63987 -0.86834,1.4164 -1.05162,2.32958 0,0.1511 0.0984,0.23598 0.29456,0.25528 h 3.12539 c 0.19614,-0.0225 0.29404,-0.0997 0.29404,-0.23151 v -0.0868 c 0,-0.13183 -0.0979,-0.209 -0.29404,-0.23151 h -2.81223 c 0.55306,-1.77491 1.49838,-2.66237 2.836,-2.66237 0.87459,0 1.61593,0.87494 2.22364,2.62413 0.25081,0.76205 0.4741,1.78263 0.67024,3.06234 0,0.47589 0.0916,0.71417 0.27492,0.71417 h 0.063 c 0.13183,0 0.209,-0.0772 0.23151,-0.23151 0,-0.39228 -0.11288,-1.13363 -0.33796,-2.22363 -0.6881,-2.9807 -1.70867,-4.47074 -3.06234,-4.47105 z m -7.119686,-8.78847 c -0.0547,0 -0.117362,0.0352 -0.188102,0.10594 -0.30868,0.89389 -0.665596,1.74419 -1.070736,2.55126 -0.762048,1.41157 -1.367819,2.1177 -1.817977,2.1177 h -0.149861 c -0.684883,0 -1.549666,-0.83779 -2.594674,-2.51302 -0.199356,-0.44695 -0.368166,-0.67024 -0.506429,-0.67024 -0.180062,0.0257 -0.270268,0.1029 -0.270268,0.23151 v 4.85655 c 0.03858,0.15434 0.115756,0.23151 0.231511,0.23151 h 0.06305 c 0.128617,0 0.205786,-0.0897 0.23151,-0.26975 v -3.77187 h 0.01912 c 1.035362,1.63343 1.991786,2.44998 2.869592,2.44998 0.94855,0 1.926209,-1.19419 2.932637,-3.58324 h 0.01912 v 3.31349 c 0.0225,0.18006 0.106447,0.26975 0.251147,0.26975 0.18327,-0.0257 0.274919,-0.10289 0.274919,-0.23151 v -4.85655 c -0.0386,-0.15434 -0.115751,-0.23151 -0.231511,-0.23151 z m 34.587047,0 c -0.15434,0.0386 -0.23151,0.11575 -0.23151,0.23151 v 6.44819 c 0,0.12219 0.0772,0.19936 0.23151,0.23151 h 0.0625 c 0.12862,0 0.2058,-0.0897 0.23152,-0.26975 v -6.11571 h 3.15898 c 0.47908,0 0.90548,0.0275 1.27847,0.0822 0.93569,0.23151 1.40353,0.44085 1.40353,0.62735 0,0.15434 -0.0564,0.25224 -0.16898,0.29404 -0.50804,0.29903 -1.7717,0.78761 -3.79098,1.46606 -0.54341,0.12862 -0.81494,0.269 -0.81494,0.42013 v 0.0811 c 0,0.11575 0.0834,0.19292 0.25063,0.23151 1.63986,-0.51769 2.97444,-0.99178 4.00337,-1.42265 0.69775,-0.25723 1.04645,-0.5722 1.04645,-0.94516 v -0.18811 c 0,-0.0868 -0.0497,-0.20596 -0.14934,-0.35708 -0.62701,-0.54341 -1.52125,-0.81494 -2.68201,-0.81494 z m 1.2637,8.80247 c -0.0965,0 -0.2508,0.17989 -0.46302,0.54002 -0.30868,0.42443 -0.46302,0.68202 -0.46302,0.77205 v 0.0191 c 0,0.11898 0.0709,0.18989 0.21239,0.21239 h 0.0388 c 0.0354,0 0.074,-0.0131 0.11575,-0.0388 0.55305,-0.76849 0.82941,-1.18667 0.82941,-1.25419 0,-0.15112 -0.0834,-0.23455 -0.25063,-0.25063 z m -33.945437,-7.87669 c -0.13505,0 -0.21704,0.082 -0.24598,0.24598 v 0.0481 c 0,0.13505 0.082,0.21704 0.24598,0.24598 h 0.04806 c 0.13505,0 0.21704,-0.082 0.24598,-0.24598 v -0.0481 c 0,-0.13505 -0.082,-0.21704 -0.24598,-0.24598 z m 39.319267,9.66883 c -0.74597,0 -1.44533,0.1606 -2.09806,0.48214 -0.95498,0.53698 -1.43247,1.18667 -1.43247,1.94872 v 0.0724 c 0,0.40193 0.15578,0.80225 0.46767,1.20096 0.77492,0.81993 1.80081,1.2299 3.07733,1.2299 h 1.1529 c 0.15756,-0.0289 0.23617,-0.10272 0.23617,-0.22169 v -0.0145 c 0,-0.14148 -0.0834,-0.22348 -0.25063,-0.24598 h -1.13844 c -0.49517,0 -0.98857,-0.0839 -1.48053,-0.25115 -1.05465,-0.44373 -1.58233,-1.0143 -1.58233,-1.71204 v -0.0434 c 0,-0.33119 0.137,-0.6529 0.41031,-0.9648 0.67524,-0.66559 1.55449,-0.99839 2.63808,-0.99839 h 0.0579 c 0.10611,0 0.23777,0.0289 0.39533,0.0868 0.31189,0.14469 0.46818,0.39888 0.46818,0.76223 0,0.17041 -0.0647,0.31172 -0.19326,0.42426 -0.44052,0.3119 -1.0352,0.46819 -1.78439,0.46819 -0.1254,0 -0.25706,-0.0241 -0.39533,-0.0724 -0.32154,-0.11254 -0.48265,-0.32189 -0.48265,-0.62735 -0.0161,-0.19614 -0.0947,-0.29404 -0.23617,-0.29404 -0.16398,0.0386 -0.24598,0.11237 -0.24598,0.22169 v 0.0434 c 0,0.16077 0.0338,0.33636 0.10129,0.52607 0.28296,0.4598 0.69292,0.68936 1.2299,0.68936 0.0836,0 0.20561,-0.005 0.36638,-0.0145 1.41479,-0.14148 2.12236,-0.59147 2.12236,-1.3503 v -0.0145 c 0,-0.19614 -0.0386,-0.39051 -0.11576,-0.58343 -0.27009,-0.49839 -0.68489,-0.74776 -1.24437,-0.74776 z m -34.177979,-8.61773 c -2.273294,0 -3.409611,0.50838 -3.409611,1.52445 v 0.0579 c 0,0.3955 0.35497,0.74563 1.065568,1.0511 0.7717,0.29582 1.157552,0.60932 1.157552,0.94051 0,0.12219 -0.0772,0.23989 -0.23151,0.35243 -0.668808,0.35048 -1.620405,0.52555 -2.855123,0.52555 -0.1672,0.0225 -0.250631,0.0997 -0.250631,0.23151 v 0.0486 c 0,0.0965 0.0675,0.16399 0.202572,0.20257 0.745978,0 1.493569,-0.0786 2.242757,-0.23616 0.916398,-0.2508 1.374593,-0.61111 1.374593,-1.08056 0,-0.50804 -0.331369,-0.918 -0.993737,-1.2299 -0.81994,-0.32476 -1.2299,-0.59772 -1.2299,-0.81959 v -0.0584 c 0,-0.09 0.02892,-0.19809 0.08682,-0.32349 0.3537,-0.46945 1.305295,-0.70332 2.855123,-0.70332 H 88.7162 c 0.196138,-0.0193 0.294555,-0.0916 0.294555,-0.21704 -0.0161,-0.17685 -0.0952,-0.26613 -0.236678,-0.26613 z m 3.699516,0 c -0.745968,0 -1.445335,0.1611 -2.098063,0.48265 -0.954978,0.53697 -1.432471,1.18616 -1.432471,1.9482 v 0.0724 c 0,0.40193 0.155772,0.80225 0.467672,1.20096 0.774918,0.81994 1.800814,1.2299 3.077332,1.2299 h 1.152901 c 0.15756,-0.0289 0.236161,-0.10272 0.236161,-0.22169 v -0.0145 c 0,-0.14148 -0.0834,-0.22347 -0.250631,-0.24598 h -1.138431 c -0.49517,0 -0.988572,-0.0834 -1.48053,-0.25063 -1.054658,-0.44373 -1.582333,-1.01482 -1.582333,-1.71256 v -0.0434 c 0,-0.33119 0.137003,-0.65238 0.410311,-0.96428 0.67524,-0.66559 1.554494,-0.99839 2.638082,-0.99839 h 0.05788 c 0.10611,0 0.237776,0.0289 0.395324,0.0868 0.3119,0.1447 0.468189,0.39837 0.468189,0.76171 0,0.17042 -0.0647,0.31224 -0.19327,0.42478 -0.440508,0.3119 -1.035199,0.46767 -1.784387,0.46767 -0.12541,0 -0.257065,-0.024 -0.395325,-0.0724 -0.321538,-0.11252 -0.482658,-0.32136 -0.482658,-0.62683 -0.0161,-0.19614 -0.0947,-0.29456 -0.236161,-0.29456 -0.16398,0.0386 -0.24598,0.11288 -0.24598,0.22221 v 0.0434 c 0,0.16078 0.0338,0.33584 0.101286,0.52555 0.28296,0.45981 0.692921,0.68988 1.229899,0.68988 0.0836,0 0.205616,-0.005 0.366386,-0.0145 1.414788,-0.14147 2.122351,-0.59198 2.122351,-1.35082 v -0.0145 c 0,-0.19614 -0.0386,-0.39051 -0.115755,-0.58343 -0.2701,-0.49839 -0.684889,-0.74775 -1.244369,-0.74775 z m 10.494973,0 c -0.74598,0 -1.44534,0.1611 -2.09807,0.48265 -0.954967,0.53697 -1.432467,1.18616 -1.432467,1.9482 v 0.0724 c 0,0.40193 0.1563,0.80225 0.46819,1.20096 0.774897,0.81994 1.800287,1.2299 3.076817,1.2299 h 1.1529 c 0.15756,-0.0289 0.23616,-0.10272 0.23616,-0.22169 v -0.0145 c 0,-0.14148 -0.0834,-0.22347 -0.25063,-0.24598 h -1.13843 c -0.49518,0 -0.98857,-0.0834 -1.48054,-0.25063 -1.05466,-0.44373 -1.581817,-1.01482 -1.581817,-1.71256 v -0.0434 c 0,-0.33119 0.13649,-0.65238 0.409797,-0.96428 0.67523,-0.66559 1.55449,-0.99839 2.63809,-0.99839 h 0.0579 c 0.10611,0 0.23828,0.0289 0.39584,0.0868 0.31189,0.1447 0.46767,0.39837 0.46767,0.76171 0,0.17042 -0.0641,0.31224 -0.19275,0.42478 -0.44052,0.3119 -1.03571,0.46767 -1.78491,0.46767 -0.12541,0 -0.25707,-0.024 -0.39533,-0.0724 -0.32154,-0.11252 -0.48214,-0.32136 -0.48214,-0.62683 -0.0161,-0.19614 -0.0952,-0.29456 -0.23668,-0.29456 -0.16399,0.0386 -0.24598,0.11288 -0.24598,0.22221 v 0.0434 c 0,0.16078 0.0338,0.33584 0.10129,0.52555 0.28296,0.45981 0.69293,0.68988 1.22991,0.68988 0.0836,0 0.20614,-0.005 0.3669,-0.0145 1.41478,-0.14147 2.12183,-0.59198 2.12183,-1.35082 v -0.0145 c 0,-0.19614 -0.0386,-0.39051 -0.11575,-0.58343 -0.2701,-0.49839 -0.6849,-0.74775 -1.24437,-0.74775 z m 2.43603,0 c -0.11897,0 -0.18649,0.11288 -0.20257,0.33796 v 4.25865 c 0.01,0.22508 0.0834,0.33745 0.22169,0.33745 h 0.0579 c 0.13505,-0.0354 0.20257,-0.10915 0.20257,-0.22169 v -1.71204 c 0,-0.46623 0.0145,-0.82172 0.0434,-1.06609 0.14148,-0.96784 0.41496,-1.45159 0.8201,-1.45159 h 0.0145 c 0.20257,0 0.53054,0.26815 0.98392,0.80512 0.63987,0.84888 1.28278,1.87958 1.92908,3.0918 0.15112,0.36977 0.28279,0.55449 0.39533,0.55449 h 0.0636 c 0.10932,0 0.18167,-0.0786 0.21704,-0.23616 0,-0.0386 -0.0289,-0.11093 -0.0868,-0.21704 -1.56591,-2.98712 -2.72349,-4.48086 -3.47265,-4.48086 h -0.0289 c -0.33762,0 -0.63041,0.1611 -0.87799,0.48265 v -0.28008 c 0,-0.10932 -0.0772,-0.17685 -0.23151,-0.20257 z m 23.57995,0 c -0.73311,0 -1.43729,0.1611 -2.11253,0.48265 -0.94533,0.54662 -1.418,1.19098 -1.418,1.93374 v 0.10128 c 0,0.45981 0.20452,0.90836 0.61288,1.34566 0.77813,0.7138 1.75528,1.07073 2.93212,1.07073 h 0.0434 c 0.15434,-0.0289 0.23151,-0.10272 0.23151,-0.22169 -0.0193,-0.17363 -0.10129,-0.26045 -0.24598,-0.26045 h -0.0289 c -0.5627,0 -1.10432,-0.10272 -1.62522,-0.30851 -0.9582,-0.44372 -1.43712,-0.99069 -1.43712,-1.64021 v -0.0718 c 0,-0.27653 0.11237,-0.5693 0.33745,-0.87798 0.68487,-0.71382 1.58824,-1.07022 2.71042,-1.07022 h 0.0584 c 0.11897,0 0.26027,0.0333 0.42426,0.10077 0.2926,0.13505 0.43873,0.39838 0.43873,0.79065 v 3.32331 c 0,0.13505 0.0772,0.21366 0.23152,0.23616 h 0.015 c 0.13505,0 0.21366,-0.0834 0.23616,-0.25063 v -4.43177 c -0.0225,-0.16721 -0.10111,-0.25166 -0.23616,-0.25166 h -0.015 c -0.15434,0 -0.23152,0.0984 -0.23152,0.29455 -0.26688,-0.19614 -0.55965,-0.29455 -0.87798,-0.29455 z m 4.79919,0 c -0.37299,0 -0.76366,0.10806 -1.17202,0.32349 -0.80064,0.55627 -1.20096,1.26813 -1.20096,2.1363 0,0.7717 0.45339,1.38138 1.36013,1.82832 1.01929,0.43084 2.13199,0.64595 3.33778,0.64595 h 0.0336 c 0.13505,-0.0354 0.20257,-0.10915 0.20257,-0.22169 v -0.0579 c 0,-0.10289 -0.0786,-0.17041 -0.23616,-0.20257 -0.49196,0 -1.04858,-0.0545 -1.66915,-0.16381 -1.69774,-0.32476 -2.54662,-0.93444 -2.54662,-1.82832 0,-0.54662 0.21562,-1.04002 0.64648,-1.48053 0.41158,-0.32155 0.76222,-0.48214 1.05161,-0.48214 0.3119,0 0.46767,-0.082 0.46767,-0.24598 v -0.0486 c 0,-0.10932 -0.0772,-0.17685 -0.23151,-0.20257 z m 5.75883,0 c -0.74597,0 -1.44534,0.1611 -2.09807,0.48265 -0.95498,0.53697 -1.43247,1.18616 -1.43247,1.9482 v 0.0724 c 0,0.40193 0.15578,0.80225 0.46767,1.20096 0.77492,0.81994 1.80082,1.2299 3.07734,1.2299 h 1.1529 c 0.15756,-0.0289 0.23616,-0.10272 0.23616,-0.22169 v -0.0145 c 0,-0.14148 -0.0834,-0.22347 -0.25063,-0.24598 h -1.13843 c -0.49517,0 -0.98859,-0.0834 -1.48053,-0.25063 -1.05465,-0.44373 -1.58234,-1.01482 -1.58234,-1.71256 v -0.0434 c 0,-0.33119 0.137,-0.65238 0.41031,-0.96428 0.67524,-0.66559 1.5545,-0.99839 2.63809,-0.99839 h 0.0579 c 0.10611,0 0.23777,0.0289 0.39533,0.0868 0.31189,0.1447 0.46819,0.39837 0.46819,0.76171 0,0.17042 -0.0647,0.31224 -0.19327,0.42478 -0.44052,0.3119 -1.0352,0.46767 -1.78439,0.46767 -0.1254,0 -0.25706,-0.024 -0.39533,-0.0724 -0.32152,-0.11252 -0.48265,-0.32136 -0.48265,-0.62683 -0.0161,-0.19614 -0.0947,-0.29456 -0.23616,-0.29456 -0.16398,0.0386 -0.24598,0.11288 -0.24598,0.22221 v 0.0434 c 0,0.16078 0.0338,0.33584 0.10128,0.52555 0.28296,0.45981 0.69292,0.68988 1.2299,0.68988 0.0836,0 0.20562,-0.005 0.36639,-0.0145 1.41479,-0.14147 2.12235,-0.59198 2.12235,-1.35082 v -0.0145 c 0,-0.19614 -0.0386,-0.39051 -0.11576,-0.58343 -0.27009,-0.49839 -0.68488,-0.74775 -1.24437,-0.74775 z m -41.517151,8.80347 -0.0625,5.2e-4 c -0.0161,0 -0.0595,0.014 -0.13022,0.0429 -0.35691,0.66238 -0.67862,1.24742 -0.9648,1.75545 -1.07394,1.76846 -1.8119,2.65255 -2.21382,2.65255 h -0.0145 c -0.0482,0 -0.1061,-0.01 -0.17363,-0.0284 -0.4598,-0.2701 -0.68988,-0.98197 -0.68988,-2.13631 v -1.97765 c 0,-0.13827 -0.0772,-0.21687 -0.23151,-0.23617 h -0.0289 c -0.12218,0 -0.19596,0.0834 -0.22169,0.25063 v 1.97766 c 0,0.28296 0.0193,0.58486 0.0579,0.90641 0.20579,1.15112 0.6254,1.72702 1.25884,1.72702 h 0.0434 c 0.61414,0 1.49339,-0.96658 2.63808,-2.89905 0.62379,-1.10286 0.93586,-1.69757 0.93586,-1.78438 v -0.0486 c 0,-0.0965 -0.06401,-0.17947 -0.20257,-0.20257 z m 13.808461,0 -0.0434,5.2e-4 c -0.37299,0 -0.76367,0.10703 -1.17202,0.32246 -0.80064,0.55627 -1.20096,1.26866 -1.20096,2.13682 0,0.77171 0.45337,1.38085 1.36012,1.82779 1.01929,0.43087 2.13202,0.64648 3.33778,0.64648 h 0.0336 c 0.13505,-0.0354 0.20258,-0.10967 0.20258,-0.22221 v -0.0579 c 0,-0.1029 -0.0786,-0.17041 -0.23617,-0.20257 -0.49196,0 -1.04806,-0.0545 -1.66863,-0.16382 -1.69774,-0.32476 -2.54661,-0.9339 -2.54661,-1.82779 0,-0.54662 0.21508,-1.04054 0.64595,-1.48105 0.41157,-0.32154 0.76224,-0.48214 1.05162,-0.48214 0.3119,0 0.46767,-0.082 0.46767,-0.24598 v -0.0481 c 0,-0.10933 -0.0772,-0.17685 -0.23151,-0.20257 z m 5.75417,0 -0.0434,5.2e-4 c -0.74598,0 -1.44533,0.1606 -2.09806,0.48214 -0.95498,0.53697 -1.43247,1.18666 -1.43247,1.94872 v 0.0718 c 0,0.40193 0.15577,0.80225 0.46767,1.20096 0.77491,0.81993 1.80081,1.2299 3.07733,1.2299 h 1.1529 c 0.15755,-0.0289 0.23616,-0.10324 0.23616,-0.22221 v -0.0145 c 0,-0.14147 -0.0834,-0.22347 -0.25063,-0.24598 h -1.13843 c -0.49518,0 -0.98857,-0.0834 -1.48053,-0.25063 -1.05466,-0.44372 -1.58233,-1.01429 -1.58233,-1.71204 v -0.0434 c 0,-0.33119 0.137,-0.65291 0.41031,-0.9648 0.67523,-0.66559 1.55448,-0.99839 2.63808,-0.99839 h 0.0579 c 0.10611,0 0.23777,0.0289 0.39532,0.0868 0.3119,0.1447 0.46819,0.3989 0.46819,0.76222 0,0.17042 -0.0647,0.31173 -0.19327,0.42427 -0.44051,0.31189 -1.03519,0.46767 -1.78438,0.46767 -0.1254,0 -0.25707,-0.024 -0.39533,-0.0724 -0.32154,-0.11254 -0.48266,-0.32136 -0.48266,-0.62683 -0.0161,-0.19614 -0.0947,-0.29404 -0.23616,-0.29404 -0.16399,0.0386 -0.24598,0.11236 -0.24598,0.22169 v 0.0434 c 0,0.16077 0.0338,0.33584 0.10129,0.52555 0.28296,0.4598 0.69293,0.68988 1.2299,0.68988 0.0836,0 0.20561,-0.005 0.36638,-0.0145 1.41478,-0.14148 2.12235,-0.59147 2.12235,-1.35031 v -0.0145 c 0,-0.19612 -0.0386,-0.39102 -0.11575,-0.58394 -0.2701,-0.49839 -0.68489,-0.74724 -1.24437,-0.74724 z m -15.56442,5.2e-4 c -0.73311,0 -1.4373,0.1606 -2.112541,0.48214 -0.94533,0.54662 -1.418,1.19149 -1.418,1.93425 v 0.10077 c 0,0.45981 0.20452,0.90887 0.61288,1.34617 0.77813,0.71382 1.755291,1.07022 2.932131,1.07022 h 0.0434 c 0.15434,-0.0289 0.23151,-0.10324 0.23151,-0.22221 -0.0193,-0.17363 -0.10129,-0.26045 -0.24598,-0.26045 h -0.0289 c -0.5627,0 -1.10433,-0.10221 -1.62523,-0.30799 -0.958201,-0.44373 -1.437121,-0.99069 -1.437121,-1.64021 v -0.0718 c 0,-0.27653 0.11237,-0.56931 0.33745,-0.87799 0.68489,-0.71382 1.588251,-1.07073 2.710431,-1.07073 h 0.0579 c 0.11897,0 0.26079,0.0338 0.42478,0.10128 0.2926,0.13505 0.43874,0.39889 0.43874,0.79117 v 3.32279 c 0,0.13505 0.0772,0.21417 0.23151,0.23668 h 0.015 c 0.13505,0 0.21366,-0.0839 0.23616,-0.25114 v -4.43229 c -0.0225,-0.1672 -0.10111,-0.25063 -0.23616,-0.25063 h -0.015 c -0.15434,0 -0.23151,0.0979 -0.23151,0.29404 -0.26688,-0.19614 -0.55966,-0.29404 -0.87799,-0.29404 z m 2.67218,0 c -0.11897,0 -0.18649,0.11185 -0.20257,0.33693 v 4.25865 c 0.01,0.22508 0.0834,0.33797 0.22169,0.33797 h 0.0579 c 0.13505,-0.0354 0.20257,-0.10967 0.20257,-0.22221 v -1.71204 c 0,-0.46623 0.0145,-0.82172 0.0434,-1.06609 0.14148,-0.96784 0.41497,-1.45107 0.82011,-1.45107 h 0.0145 c 0.20257,0 0.53055,0.26815 0.98392,0.80512 0.63985,0.84887 1.28278,1.87959 1.92908,3.0918 0.15113,0.36977 0.28331,0.55449 0.39584,0.55449 h 0.0625 c 0.10933,0 0.18167,-0.0791 0.21704,-0.23668 0,-0.0386 -0.0289,-0.11093 -0.0868,-0.21704 -1.56591,-2.98712 -2.72347,-4.47983 -3.47266,-4.47983 h -0.0284 c -0.33762,0 -0.63039,0.1606 -0.87798,0.48214 v -0.28009 c 0,-0.10933 -0.0772,-0.17633 -0.23151,-0.20205 z m -21.077486,-8.78847 c -0.0965,0 -0.163992,0.0675 -0.202572,0.20257 v 4.51446 c 0,0.0965 0.0675,0.16399 0.202572,0.20257 h 0.06253 c 0.12861,0 0.200961,-0.10273 0.217041,-0.30851 v -4.3217 c 0,-0.17042 -0.0724,-0.26688 -0.217041,-0.28939 z"
       sodipodi:nodetypes="cccsscssccccccssccsccssccscsccssccscsscccsccccscsscsscsccscsccssccsscccccsscscsccscscscscsccsscscsscscsscsscscscccsscscssccccsscsccssccscsscsccccccsscscsscscsscsscscscccsscscsscccccsscscsscscsscsscscscccsscscsscccsccscsscssccssccsscscsccsscsccsscsscsscsscsccsscccccscscssccscsssccccsscscsscscsscsscscscccsscscsscccccccsscsscscscsscsssccccscscssccscssscccccsscscsscscsscsscscssccsscscsscccccsscsccsscsscsscsscsccsscccsccscsscssccssccsscscsscscscscs" />
  </g>
</svg>
