<?xml version="1.0" encoding="UTF-8" standalone="no"?>
<!-- Created with Inkscape (http://www.inkscape.org/) -->

<svg
   width="396.68759"
   height="97.623138"
   viewBox="0 0 104.95692 25.829455"
   version="1.1"
   id="svg1"
   inkscape:version="1.3.2 (091e20ef0f, 2023-11-25, custom)"
   sodipodi:docname="mode-duel.svg"
   xmlns:inkscape="http://www.inkscape.org/namespaces/inkscape"
   xmlns:sodipodi="http://sodipodi.sourceforge.net/DTD/sodipodi-0.dtd"
   xmlns="http://www.w3.org/2000/svg"
   xmlns:svg="http://www.w3.org/2000/svg">
  <sodipodi:namedview
     id="namedview1"
     pagecolor="#ffffff"
     bordercolor="#666666"
     borderopacity="1.0"
     inkscape:showpageshadow="2"
     inkscape:pageopacity="0.0"
     inkscape:pagecheckerboard="0"
     inkscape:deskcolor="#d1d1d1"
     inkscape:document-units="mm"
     inkscape:zoom="0.57579896"
     inkscape:cx="197.98577"
     inkscape:cy="9.5519449"
     inkscape:window-width="956"
     inkscape:window-height="1029"
     inkscape:window-x="960"
     inkscape:window-y="0"
     inkscape:window-maximized="1"
     inkscape:current-layer="layer1"
     showgrid="false" />
  <defs
     id="defs1" />
  <g
     inkscape:label="Layer 1"
     inkscape:groupmode="layer"
     id="layer1"
     transform="translate(-77.542673,-124.88334)">
    <path
       id="path1"
       style="fill:#fff6e5;fill-opacity:1;stroke:none;stroke-width:0.2;stroke-linecap:round;stroke-linejoin:round"
       d="m 172.84041,141.24979 c 1.25489,-14.79412 -27.77672,-12.32468 -42.60966,-12.97631 -14.1668,-0.62237 -35.651991,-4.08358 -41.62613,8.77703 -1.695323,3.64955 2.251539,8.58619 5.716039,10.63327 8.698801,5.13988 20.229641,0.38048 30.309931,-0.3089 16.16137,-1.10525 46.84066,10.01606 48.20982,-6.12509 z"
       sodipodi:nodetypes="aaaaaa" />
    <path
       id="path8"
       style="fill:#ffe6b3;fill-opacity:1;stroke:none;stroke-width:0.2;stroke-linecap:round;stroke-linejoin:round"
       d="m 163.09051,140.33803 c 0.47755,-3.20944 -1.18799,-6.933 -3.67895,-9.01234 -2.08475,-1.74025 -5.26044,-1.52304 -7.97143,-1.68175 -7.65885,-0.44837 -15.25632,1.7502 -22.92071,2.09087 -4.90294,0.21793 -9.81683,0.082 -14.7233,-0.0314 -3.38187,-0.0781 -6.84055,-1.19999 -10.13846,-0.44703 -1.36724,0.31216 -2.69111,1.02355 -3.706251,1.99116 -1.4647,1.39612 -3.17326,3.18085 -3.12589,5.20378 0.0603,2.57377 2.10687,5.05108 4.282621,6.42732 3.41893,2.16259 7.96414,1.69111 12.00914,1.75315 4.25301,0.0652 8.42586,-1.32182 12.67728,-1.45522 8.90465,-0.27941 17.78258,1.39717 26.69159,1.3773 1.94044,-0.004 4.08384,0.55619 5.8122,-0.32591 2.25441,-1.15059 4.41965,-3.38644 4.79216,-5.88993 z"
       sodipodi:nodetypes="aaaaaaaaaaaaaa" />
    <path
       id="path69"
       style="fill:#ffdd99;fill-opacity:1;stroke:none;stroke-width:0.2;stroke-linecap:round;stroke-linejoin:round;stroke-opacity:1"
       d="m 103.89627,143.23006 c 3.60203,2.72246 9.02434,0.55455 13.53813,0.44429 4.36338,-0.10659 8.68578,-1.08817 13.05041,-1.06795 5.90884,0.0274 11.74524,1.52189 17.6535,1.60937 3.35766,0.0497 7.35232,1.37556 10.05515,-0.61718 1.02388,-0.75488 1.62133,-2.32687 1.34963,-3.56959 -0.59111,-2.70365 -3.31016,-4.88138 -5.90928,-5.83205 -7.28974,-2.66636 -15.45573,1.95655 -23.21629,1.80324 -7.10469,-0.14036 -14.0768,-2.87426 -21.17243,-2.48902 -2.68961,0.14603 -6.5423,-0.53332 -7.87614,1.80681 -1.371011,2.40535 0.31858,6.24269 2.52732,7.91208 z"
       inkscape:label="path69"
       sodipodi:nodetypes="aaaaaaaaaaa" />
    <path
       style="fill:#fff6e5;fill-opacity:1;stroke:none;stroke-width:0.1;stroke-linecap:round;stroke-linejoin:round"
       d="m 165.3257,146.14912 c 0.64239,1.85032 2.11024,3.74008 3.98028,4.32256 1.88115,0.58593 4.37015,0.0862 5.7649,-1.30547 1.06503,-1.06266 1.11914,-2.89953 1.00665,-4.39983 -0.10593,-1.41285 -1.90139,-2.58182 -1.55523,-3.9557 0.21048,-0.83538 1.25277,-1.19648 1.97245,-1.67001 1.23416,-0.81203 3.04505,-0.81994 3.96866,-1.97298 1.39611,-1.74292 1.86298,-4.28764 1.60085,-6.50534 -0.22506,-1.90416 -1.02546,-4.07518 -2.63886,-5.11123 -1.4696,-0.94371 -3.56168,-0.75355 -5.23363,-0.24869 -0.83111,0.25097 -1.24359,1.39103 -2.0984,1.54284 -1.14683,0.20368 -2.33577,-1.5362 -3.35584,-0.97394 -0.36692,0.20224 -0.41307,0.79373 -0.34833,1.20766 0.14164,0.90559 1.29356,1.39829 1.53241,2.28323 0.32646,1.20955 0.45268,2.70682 -0.23987,3.75084 -0.285,0.42963 -1.2302,0.19896 -1.38368,0.69115 -0.2231,0.71541 0.88679,1.24667 1.08371,1.96972 0.20271,0.74431 0.34305,1.59309 0.0667,2.3133 -0.36949,0.96283 -1.10388,2.24774 -2.13513,2.23902 -1.11749,-0.009 -1.43408,-1.72596 -2.27233,-2.465 -0.49634,-0.4376 -1.05508,-1.50197 -1.61665,-1.15199 -0.73459,0.45782 0.20116,1.72521 0.42126,2.56233 0.40863,1.55414 1.43826,2.93474 1.65884,4.52649 0.10788,0.7785 -0.4365,1.60857 -0.17873,2.35104 z"
       id="path12834-1-7"
       sodipodi:nodetypes="aaaaaaaaaaaaaaaaaaaaaaaa" />
    <path
       style="fill:#ffeecc;fill-opacity:1;stroke:none;stroke-width:0.1;stroke-linecap:round;stroke-linejoin:round"
       d="m 168.92141,149.11701 c -1.13257,-0.93742 -2.12739,-2.14456 -2.66902,-3.51135 -0.22831,-0.57614 -0.0216,-1.2538 -0.19421,-1.849 -0.2255,-0.77747 -0.98239,-1.37232 -1.078,-2.17616 -0.0573,-0.48207 -0.12558,-1.23305 0.32233,-1.42029 0.62482,-0.26119 1.04963,1.0361 1.7259,1.07184 1.12517,0.0595 2.36604,-0.57033 3.04354,-1.47064 0.62761,-0.834 0.8183,-2.08372 0.52836,-3.08642 -0.14716,-0.50891 -0.95709,-0.66253 -1.06283,-1.18163 -0.0772,-0.37917 0.31535,-0.71596 0.37687,-1.098 0.12891,-0.80064 -0.0452,-1.62194 -0.0276,-2.4327 0.0199,-0.91469 -0.24693,-1.91653 0.15053,-2.74061 0.2523,-0.52311 0.83156,-0.81725 1.30197,-1.15786 1.12512,-0.81467 2.23635,-1.84475 3.60287,-2.09416 1.30742,-0.23863 2.74794,0.0543 3.93259,0.65669 1.20392,0.6122 2.46476,1.55558 2.89367,2.83631 0.58114,1.73533 0.008,3.79507 -0.81558,5.42924 -0.62218,1.23427 -1.80949,2.12503 -2.93017,2.93412 -0.9073,0.65505 -2.01954,0.9672 -3.00137,1.50413 -0.48152,0.26332 -1.25153,0.31746 -1.41529,0.84128 -0.43551,1.39301 1.63124,2.53535 1.81916,3.98271 0.17169,1.32231 0.1146,2.86991 -0.67769,3.94242 -0.86688,1.17346 -2.4462,1.97164 -3.90512,1.97645 -0.71528,0.002 -1.3699,-0.5003 -1.92092,-0.95637 z"
       id="path13582-7-7"
       sodipodi:nodetypes="aaaaaaaaaaaaaaaaaaaaaaaa" />
    <path
       id="path1042-9-6"
       style="fill:#ffffcc;fill-opacity:1;stroke-width:0.1;stroke-linecap:round;stroke-linejoin:round"
       d="m 177.08689,126.37952 c -0.27373,-0.0354 -0.55036,-0.0288 -0.81135,0.0277 -1.64394,0.3561 -3.24877,1.47697 -4.11774,2.91719 -0.69083,1.14498 -1.33506,2.91295 -0.52524,3.97712 0.39435,0.0329 0.79144,0.0195 1.18693,0.0331 0.73421,0.0253 1.46985,0.15237 2.20189,0.0905 0.33758,-0.0285 0.74699,0.0202 0.99407,-0.21156 0.34538,-0.32402 0.15793,-0.95196 0.3841,-1.36805 0.17189,-0.31623 0.54453,-0.49234 0.71347,-0.81016 0.39056,-0.73474 0.0912,-1.78156 0.6299,-2.41575 0.32852,-0.38674 1.26424,-0.12602 1.3916,-0.61723 0.12817,-0.49434 -0.4889,-0.95301 -0.92232,-1.2231 -0.33126,-0.20642 -0.72525,-0.34807 -1.12531,-0.39979 z" />
    <path
       id="path2309-2-4"
       style="fill:#fff4bd;fill-opacity:1;stroke-width:0.1;stroke-linecap:round;stroke-linejoin:round"
       d="m 177.28145,126.68994 c -0.66911,-0.0517 -1.33645,0.11861 -1.96916,0.3218 -1.51216,0.52743 -2.91038,1.55374 -3.64992,2.99976 -0.36146,0.75337 -0.63629,1.63201 -0.40406,2.46442 0.1036,0.27849 0.29154,0.7332 0.66325,0.62187 0.42377,-0.1313 0.83947,-0.47769 0.89592,-0.93748 -0.045,-0.34301 -0.37478,-0.79746 0.0459,-1.04192 0.48419,-0.31899 1.20435,-0.14469 1.58398,-0.64477 0.42356,-0.5631 0.27818,-1.3906 0.79378,-1.89918 0.37788,-0.34448 0.90782,-0.13428 1.34925,-0.0807 0.32308,0.0194 0.64783,0.0153 0.97169,0.0297 0.41728,0.0401 0.73019,-0.3272 0.77105,-0.71499 0.0899,-0.41394 -0.1627,-0.83883 -0.55579,-0.98381 -0.15704,-0.0702 -0.32553,-0.11299 -0.49591,-0.13465 z m -0.22464,2.00574 c -0.42229,-0.0231 -0.95333,-0.0751 -1.23353,0.31618 -0.33387,0.45664 -0.40265,1.08979 -0.23285,1.6223 0.1187,0.42379 0.63909,0.65689 1.02823,0.44673 0.62557,-0.42162 0.84888,-1.2589 0.75551,-1.9766 -0.0478,-0.16536 -0.16287,-0.33155 -0.31736,-0.40861 z"
       sodipodi:nodetypes="sssssssssssssaaaaaaaa" />
    <path
       style="fill:#ffffcc;fill-opacity:1;stroke-width:0.1;stroke-linecap:round;stroke-linejoin:round"
       d="m 171.00669,146.00897 c -0.21638,-0.10897 -0.33357,-0.40865 -0.32372,-0.65071 0.0198,-0.48704 0.48522,-0.84638 0.75552,-1.25201 0.2528,-0.37938 0.6637,-0.67077 0.80865,-1.10301 0.2344,-0.69892 -0.3426,-1.57647 0.0322,-2.21128 0.10991,-0.18619 0.35058,-0.3604 0.56328,-0.32159 0.96981,0.17695 1.30595,1.48106 1.88504,2.27888 0.22045,0.30372 0.57185,0.5771 0.60247,0.95115 0.0282,0.34457 -0.17878,0.69345 -0.40515,0.95475 -0.39195,0.45245 -0.97607,0.71899 -1.53626,0.92999 -0.7547,0.28427 -1.6617,0.78659 -2.38198,0.42383 z"
       id="path10275-0-3"
       sodipodi:nodetypes="aaaaaaaaaaa" />
    <path
       style="fill:#fff4bd;fill-opacity:1;stroke-width:0.1;stroke-linecap:round;stroke-linejoin:round"
       d="m 171.05526,145.62291 c -0.2521,-0.13088 -0.56255,-0.36444 -0.55303,-0.64833 0.0156,-0.46412 0.52626,-0.87059 0.97311,-0.99694 0.21944,-0.062 0.44343,0.22678 0.66346,0.16687 0.13866,-0.0377 0.25339,-0.16931 0.30707,-0.30261 0.0972,-0.24134 0.0543,-0.53124 -0.0211,-0.78021 -0.0982,-0.32381 -0.43584,-0.53744 -0.54046,-0.85921 -0.1079,-0.33185 -0.2607,-0.75203 -0.0703,-1.0445 0.14243,-0.21884 0.48422,-0.3377 0.73595,-0.26833 0.37798,0.10415 0.67139,0.52652 0.74269,0.91204 0.0447,0.24194 -0.30298,0.46606 -0.23056,0.70121 0.0966,0.31351 0.62419,0.31135 0.7801,0.59998 0.22652,0.4193 0.43585,1.08003 0.10772,1.42566 -0.29256,0.30818 -0.88285,-0.1949 -1.27444,-0.0299 -0.25339,0.10676 -0.36319,0.41389 -0.56217,0.60367 -0.20827,0.19864 -0.38445,0.47155 -0.65902,0.55788 -0.1274,0.0401 -0.28039,0.0242 -0.39893,-0.0373 z"
       id="path10570-2-8-0"
       sodipodi:nodetypes="aaaaaaaaaaaaaaaaa" />
    <path
       id="path14463-3-3"
       style="fill:#ffe6b3;fill-opacity:1;stroke:none;stroke-width:0.1;stroke-linecap:round;stroke-linejoin:round"
       d="m 175.93418,125.87243 c -1.61763,-0.16395 -3.14223,0.80264 -4.01648,2.11572 -0.93394,1.32807 -1.96825,2.82465 -1.85013,4.52102 0.18235,0.76606 0.37501,1.52513 0.40568,2.31554 0.5491,1.11124 1.35794,-0.54532 1.40266,-1.1758 0.1927,-1.18131 0.22628,-3.00991 1.28174,-3.73597 0.8934,-0.61459 0.81846,-1.6991 1.92879,-1.95055 0.78778,0.0213 2.4974,0.88358 2.4101,-0.55523 -0.13802,-0.7615 -0.76815,-1.45737 -1.56236,-1.53473 z m 1.2563,3.05496 c -1.05312,-0.17356 -1.48192,1.36801 -0.81098,2.02762 0.64514,0.66882 1.67273,0.64408 2.53063,0.80606 1.1101,0.0968 2.30531,0.1161 3.33217,-0.36131 0.72153,-0.71912 -0.20808,-2.00452 -1.14144,-1.55755 -0.7888,0.63688 -2.01428,0.52765 -2.66279,-0.25832 -0.29107,-0.38561 -0.79534,-0.55168 -1.24759,-0.6565 z m -4.70069,6.5246 c -1.06191,0.0869 -0.15026,1.51826 0.39631,1.83475 1.3884,1.18538 3.30898,1.28904 5.04072,1.13796 1.20824,-0.55949 -0.41174,-1.95741 -1.29557,-1.57958 -1.01339,0.2273 -1.93798,-0.26648 -2.72707,-0.84669 -0.43279,-0.26284 -0.92827,-0.41817 -1.41439,-0.54644 z m -0.0289,5.69794 c -0.8806,-0.24266 -2.03084,1.17392 -0.56896,1.13159 0.82146,0.40961 1.42344,-0.86593 0.56896,-1.13159 z m -2.37425,0.7225 c -1.0921,-0.17903 -1.2299,1.60767 -0.14647,1.70003 0.86956,0.0288 1.14986,-1.6336 0.14647,-1.70003 z m 3.35721,0.83714 c -1.19928,-0.24763 -1.16791,1.39221 -0.26846,1.75208 1.01583,0.50071 1.59507,-1.30946 0.57239,-1.66144 l -0.12735,-0.0528 -0.17657,-0.0378 z m -5.5464,-0.63408 c -0.80822,0.23441 -0.95449,1.36194 -1.09071,2.09264 -0.18237,1.10124 0.46198,2.05896 1.07908,2.89846 0.39825,0.79536 1.59785,2.49049 2.40222,1.19511 0.63483,-0.9331 0.58688,-2.22844 -0.14234,-3.09953 -0.72967,-0.81216 -1.16686,-1.7998 -1.68273,-2.7415 -0.13814,-0.17771 -0.33553,-0.3232 -0.56552,-0.34518 z m 3.67986,1.96885 c -1.00568,-0.16809 -1.29419,1.53055 -0.19166,1.52415 0.716,-0.0221 0.98145,-1.38797 0.19166,-1.52415 z m 3.52393,0.83867 c -1.38401,0.11403 -0.50193,1.98139 -1.64744,2.46126 -0.32861,0.50038 -2.13002,1.32472 -0.98576,1.78977 0.86799,-0.17213 1.60531,-0.79025 2.22544,-1.39676 0.55655,-0.66872 0.91279,-1.59206 0.78678,-2.46443 -0.0528,-0.17572 -0.18566,-0.35886 -0.37902,-0.38984 z"
       sodipodi:nodetypes="cccccsccccccccccccccccccccccsccccscccccccccccccccc" />
    <path
       style="fill:#ffe6b3;fill-opacity:1;stroke:none;stroke-width:0.1;stroke-linecap:round;stroke-linejoin:round"
       d="m 171.00386,140.40916 c -0.8952,-0.3105 0.23398,-1.88653 0.22116,-2.83397 -0.009,-0.62671 -0.77909,-1.6375 -0.19702,-1.86995 0.4855,-0.19388 0.80922,0.74189 0.95524,1.24386 0.21527,0.73999 0.0517,1.57617 -0.20484,2.3029 -0.15447,0.43769 -0.33602,1.30926 -0.77454,1.15716 z"
       id="path13710-7-0"
       sodipodi:nodetypes="aaaaaa" />
    <path
       id="path15154-5-9"
       style="fill:#ffdd99;fill-opacity:1;stroke:none;stroke-width:0.1;stroke-linecap:round;stroke-linejoin:round"
       d="m 173.00719,135.96314 c -0.6633,-0.14224 -0.8666,0.63279 -0.41022,1.02395 -0.009,0.432 -0.26948,0.84936 -0.22404,1.30541 0.0124,0.56762 0.71216,0.45894 1.04844,0.24975 0.49799,-0.13606 0.71439,-0.79897 1.28468,-0.74778 0.60247,5.4e-4 1.17392,0.48945 1.77605,0.25953 0.65446,-0.3458 0.10223,-1.20664 -0.52548,-1.02811 -0.55869,0.0338 -1.18788,0.13966 -1.65337,-0.2581 -0.41933,-0.28364 -0.77509,-0.71126 -1.29607,-0.80465 z m -0.63403,5.32453 c -0.51026,-0.17994 -1.2073,0.75135 -0.49336,0.89426 0.57726,0.0587 0.96824,-0.39776 0.49336,-0.89426 z m -2.0785,1.28791 c -0.42058,0.0117 -0.81271,0.93191 -0.17855,0.85805 0.53473,0.36643 0.70806,-0.82135 0.17855,-0.85805 z m 3.3923,0.73143 c -0.85138,-0.034 0.13656,1.31908 0.27666,0.41684 0.008,-0.17506 -0.0765,-0.3974 -0.27666,-0.41684 z m -2.22938,1.09249 c -0.58543,-0.14049 -1.08057,0.89654 -0.39143,1.06245 0.67361,0.24904 1.09808,-0.86352 0.39143,-1.06246 z m 3.60812,1.61956 c -0.80032,-0.0434 -0.46718,1.0001 -0.93084,1.39644 -0.3287,0.54356 0.46717,0.4725 0.54535,0.0353 0.16761,-0.44675 0.74352,-0.80507 0.5963,-1.31823 -0.046,-0.0706 -0.13051,-0.10347 -0.21081,-0.11353 z m -4.77426,0.335 c -0.5971,0.0113 -0.73291,1.13554 -1.40014,0.84036 -0.23538,-0.31531 -0.98413,-0.90853 -0.90342,-0.093 0.21862,0.66268 0.55234,1.33547 1.10115,1.78576 0.43982,0.38228 1.11777,0.12313 1.31919,-0.39327 0.29082,-0.58004 0.47654,-1.31157 0.18681,-1.92425 -0.0662,-0.10864 -0.1756,-0.19597 -0.30359,-0.21558 z" />
    <path
       style="fill:none;stroke:#000000;stroke-width:0.199999;stroke-linecap:round;stroke-linejoin:round;stroke-dasharray:none"
       d="m 169.28365,145.92909 c 0,0 -0.041,0.19172 0.0851,0.45343 0.12615,0.26171 0.28901,0.33191 0.28901,0.33191"
       id="path43701-4-4-3-2"
       sodipodi:nodetypes="czc" />
    <path
       style="fill:none;stroke:#000000;stroke-width:0.199999;stroke-linecap:round;stroke-linejoin:round;stroke-dasharray:none"
       d="m 168.48538,145.39273 c 0,0 -0.041,0.19171 0.0851,0.45342 0.12614,0.26171 0.28901,0.33191 0.28901,0.33191"
       id="path43725-6-1-5"
       sodipodi:nodetypes="czc" />
    <path
       style="fill:none;stroke:#000000;stroke-width:0.199999;stroke-linecap:round;stroke-linejoin:round;stroke-dasharray:none"
       d="m 167.69782,144.799 c 0,0 -0.041,0.19172 0.0851,0.45342 0.12614,0.26171 0.28901,0.33191 0.28901,0.33191"
       id="path43727-9-4-4"
       sodipodi:nodetypes="czc" />
    <path
       style="fill:none;stroke:#000000;stroke-width:0.199999;stroke-linecap:round;stroke-linejoin:round;stroke-dasharray:none"
       d="m 169.73781,145.75316 c 0.17091,0.27365 0.26521,0.59181 0.34478,0.90454 0.0444,0.17464 0.12029,0.36206 0.0723,0.53577 l -0.41193,1.49102 c -0.0231,0.0836 -0.15677,0.11845 -0.24093,0.0978 -0.14076,-0.0346 -0.20748,-0.20691 -0.28141,-0.33165 m -0.67193,-1.13371 -1.08971,-1.83863 c -0.0842,-0.14208 -0.15186,-0.29717 -0.18855,-0.45823 -0.0233,-0.10248 -0.026,-0.20998 -0.0182,-0.3148 v 0 l 0.0815,-1.08864 m 0.0528,-0.70519 c 0.008,-0.109 0.0836,-0.24132 0.18973,-0.26741 0.11719,-0.0288 0.25857,0.0622 0.32251,0.16455 l 0.81251,1.30096"
       id="path45027-4-9-0"
       sodipodi:nodetypes="cassaccsassccasc" />
    <path
       style="fill:none;stroke:#000000;stroke-width:0.199999;stroke-linecap:round;stroke-linejoin:round;stroke-dasharray:none"
       d="m 170.69973,133.64324 c -0.0102,0.21587 0.0711,0.45088 0.14222,0.65202 0.41509,1.17426 1.77693,1.78242 2.86933,2.3662 0.91918,0.49121 1.95268,0.96881 2.99388,0.89918 0.37359,-0.025 0.56967,-0.0273 0.93484,-0.15422 m 2.05071,-1.29833 c 1.16139,-1.16476 1.84946,-2.60022 2.00569,-4.25049 m -0.61369,-2.43345 c -0.23727,-0.43103 -0.37069,-0.54802 -0.69871,-0.88826 -1.0333,-1.07177 -2.45712,-2.08961 -3.94467,-2.07843 -0.63121,0.005 -1.08678,-0.0109 -1.73563,0.30549 m -2.0772,1.40353 c -0.35503,0.22395 -0.4725,0.42122 -0.71196,0.74677 -0.50638,0.68847 -0.99603,1.64694 -1.03875,2.55317"
       id="path37294-3-2-2-5"
       sodipodi:nodetypes="csasccccssccsc" />
    <path
       style="fill:none;stroke:#000000;stroke-width:0.199999;stroke-linecap:round;stroke-linejoin:round;stroke-dasharray:none"
       d="m 175.50111,137.88337 c -0.69714,0.0175 -1.34723,-0.50588 -2.0069,-0.79247 -0.51042,-0.22176 -1.07566,-0.36526 -1.50795,-0.71657 -0.21178,-0.17209 -0.43706,-0.3696 -0.59055,-0.60076"
       id="path37296-1-2-0-9"
       sodipodi:nodetypes="casc" />
    <path
       style="fill:none;stroke:#000000;stroke-width:0.199999;stroke-linecap:round;stroke-linejoin:round;stroke-dasharray:none"
       d="m 173.45495,137.57896 c -0.0747,0.12668 -0.18793,0.31786 -0.23113,0.42968 -0.0702,0.18162 0.0157,0.36373 -0.11304,0.44842 -0.15523,0.1021 -0.42183,0.0452 -0.55008,-0.0892 -0.10808,-0.1133 -0.11771,-0.324 -0.0535,-0.46686 0.0497,-0.11048 0.18856,-0.0927 0.2975,-0.20855 0.0681,-0.0724 0.14062,-0.24598 0.21564,-0.34234"
       id="path37298-9-6-6-4"
       sodipodi:nodetypes="csaaasc" />
    <path
       style="fill:none;stroke:#000000;stroke-width:0.199999;stroke-linecap:round;stroke-linejoin:round;stroke-dasharray:none"
       d="m 178.32912,136.93532 c 0,0 -0.1004,0.14415 -0.0681,0.20977 0.0604,0.12257 0.25114,0.15468 0.3857,0.13299 0.17539,-0.0282 0.34341,-0.16483 0.42684,-0.32313 0.0745,-0.14138 0.12695,-0.35859 0.0231,-0.47858 -0.0734,-0.0848 -0.33452,-0.0295 -0.33452,-0.0295"
       id="path37302-4-4-8-6"
       sodipodi:nodetypes="caaaac" />
    <path
       style="fill:none;stroke:#000000;stroke-width:0.199999;stroke-linecap:round;stroke-linejoin:round;stroke-dasharray:none"
       d="m 181.40471,130.39008 c 0,0 0.019,-0.17455 0.0861,-0.20603 0.1256,-0.059 0.29254,0.0319 0.39512,0.1247 0.0765,0.0691 0.11709,0.18125 0.1233,0.28485 0.01,0.16412 -0.0292,0.35218 -0.13987,0.47376 -0.0835,0.0917 -0.22909,0.17932 -0.34456,0.13678 -0.0537,-0.0197 -0.0807,-0.15225 -0.0807,-0.15225"
       id="path37304-7-1-9-9"
       sodipodi:nodetypes="caaaaac" />
    <path
       style="fill:none;stroke:#000000;stroke-width:0.199999;stroke-linecap:round;stroke-linejoin:round;stroke-dasharray:none"
       d="m 173.9751,127.60443 c 0,0 0.18085,-0.13429 0.16563,-0.22641 -0.0227,-0.13738 -0.20636,-0.20719 -0.3417,-0.23539 -0.1653,-0.0345 -0.35702,0.003 -0.49843,0.0967 -0.12287,0.0818 -0.2585,0.22133 -0.24734,0.36876 0.01,0.13265 0.14118,0.26064 0.26962,0.29093 0.0963,0.0227 0.27897,-0.10463 0.27897,-0.10463"
       id="path37306-8-2-2-2"
       sodipodi:nodetypes="caaaaac" />
    <path
       style="fill:none;stroke:#000000;stroke-width:0.199999;stroke-linecap:round;stroke-linejoin:round;stroke-dasharray:none"
       d="m 181.1713,130.78459 c 0,0 -0.18773,0.2766 -0.33649,0.31029 -0.19988,0.0453 -0.39839,-0.10125 -0.58739,-0.18146"
       id="path37310-4-8-6-2"
       sodipodi:nodetypes="cac" />
    <path
       style="fill:none;stroke:#000000;stroke-width:0.199999;stroke-linecap:round;stroke-linejoin:round;stroke-dasharray:none"
       d="m 180.05155,130.48535 c 0,0 -0.0671,-0.31034 -0.19348,-0.35825 -0.11542,-0.0438 -0.2552,0.0463 -0.34908,0.12786 -0.0519,0.0451 -0.0979,0.18199 -0.0979,0.18199"
       id="path37312-5-8-6-4"
       sodipodi:nodetypes="caac" />
    <path
       style="fill:none;stroke:#000000;stroke-width:0.199999;stroke-linecap:round;stroke-linejoin:round;stroke-dasharray:none"
       d="m 179.85991,131.14761 c 0,0 -0.17922,0.0896 -0.27324,0.0793 -0.0893,-0.01 -0.23646,-0.12938 -0.23646,-0.12938"
       id="path37314-0-9-4-7"
       sodipodi:nodetypes="cac" />
    <path
       style="fill:none;stroke:#000000;stroke-width:0.199999;stroke-linecap:round;stroke-linejoin:round;stroke-dasharray:none"
       d="m 179.092,130.76758 c 0,0 -0.15509,0.0504 -0.23425,0.0439 -0.24218,-0.0202 -0.45132,-0.12354 -0.68459,-0.25076"
       id="path37316-3-2-9-7"
       sodipodi:nodetypes="cac" />
    <path
       style="fill:none;stroke:#000000;stroke-width:0.199999;stroke-linecap:round;stroke-linejoin:round;stroke-dasharray:none"
       d="m 177.97656,130.09111 c 0,0 0.0221,-0.37261 -0.0869,-0.50156 -0.0959,-0.11347 -0.27375,-0.17238 -0.41994,-0.14601 -0.1736,0.0313 -0.41092,0.3374 -0.41092,0.3374"
       id="path37318-6-8-5-5"
       sodipodi:nodetypes="caac" />
    <path
       style="fill:none;stroke:#000000;stroke-width:0.199999;stroke-linecap:round;stroke-linejoin:round;stroke-dasharray:none"
       d="m 176.6926,130.08958 c -0.23354,-0.07 -0.68857,-0.18969 -0.98032,-0.38503 -0.14907,-0.0998 -0.25191,-0.17545 -0.3728,-0.38827"
       id="path37320-1-8-0-4"
       sodipodi:nodetypes="cac" />
    <path
       style="fill:none;stroke:#000000;stroke-width:0.199999;stroke-linecap:round;stroke-linejoin:round;stroke-dasharray:none"
       d="m 177.76608,130.66682 c 0,0 -0.26767,0.12143 -0.40974,0.12079 -0.0936,-4.1e-4 -0.19749,-0.0208 -0.26831,-0.082 -0.0587,-0.0507 -0.10017,-0.2109 -0.10017,-0.2109"
       id="path37322-0-8-4-8"
       sodipodi:nodetypes="caac" />
    <path
       style="fill:none;stroke:#000000;stroke-width:0.199999;stroke-linecap:round;stroke-linejoin:round;stroke-dasharray:none"
       d="m 175.38457,128.9179 c 0,0 0.10276,-0.21305 0.0717,-0.31618 -0.0326,-0.10793 -0.13879,-0.19437 -0.24456,-0.23132 -0.10846,-0.0379 -0.24304,-0.0268 -0.34395,0.0294 -0.0598,0.0333 -0.12352,0.16479 -0.12352,0.16479"
       id="path37324-6-6-8-1"
       sodipodi:nodetypes="caaac" />
    <path
       style="fill:none;stroke:#000000;stroke-width:0.199999;stroke-linecap:round;stroke-linejoin:round;stroke-dasharray:none"
       d="m 174.26339,128.75141 c -0.17563,-0.0255 -0.25445,-0.053 -0.34358,-0.13851 -0.0854,-0.0819 -0.12601,-0.20656 -0.14634,-0.32341"
       id="path37326-3-8-7-2"
       sodipodi:nodetypes="cac" />
    <path
       style="fill:none;stroke:#000000;stroke-width:0.199999;stroke-linecap:round;stroke-linejoin:round;stroke-dasharray:none"
       d="m 174.92262,129.31851 c 0,0 -0.30056,0.0404 -0.42012,-0.0333 -0.0431,-0.0266 -0.0793,-0.13019 -0.0793,-0.13019"
       id="path37328-2-3-1-8"
       sodipodi:nodetypes="cac" />
    <path
       style="fill:none;stroke:#000000;stroke-width:0.199999;stroke-linecap:round;stroke-linejoin:round;stroke-dasharray:none"
       d="m 177.3184,136.1034 c 0,0 0.0614,-0.32115 -0.0322,-0.42848 -0.0848,-0.0973 -0.25683,-0.1235 -0.37817,-0.079 -0.11494,0.0422 -0.22821,0.29006 -0.22821,0.29006"
       id="path37330-0-8-7-9"
       sodipodi:nodetypes="caac" />
    <path
       style="fill:none;stroke:#000000;stroke-width:0.199999;stroke-linecap:round;stroke-linejoin:round;stroke-dasharray:none"
       d="m 178.29661,136.54103 c 0,0 -0.37563,0.15391 -0.57002,0.1353 -0.12362,-0.0119 -0.20565,0.002 -0.3396,-0.15326"
       id="path37332-6-3-2-3"
       sodipodi:nodetypes="cac" />
    <path
       style="fill:none;stroke:#000000;stroke-width:0.199999;stroke-linecap:round;stroke-linejoin:round;stroke-dasharray:none"
       d="m 176.9732,136.52189 c 0,0 -0.21,0.045 -0.30116,0.003 -0.0525,-0.024 -0.0914,-0.0783 -0.11191,-0.13259 -0.008,-0.0214 -0.002,-0.0687 -0.002,-0.0687"
       id="path37334-1-3-7-6"
       sodipodi:nodetypes="caac" />
    <path
       style="fill:none;stroke:#000000;stroke-width:0.199999;stroke-linecap:round;stroke-linejoin:round;stroke-dasharray:none"
       d="m 176.21292,136.08953 c 0,0 -0.51807,-0.01 -0.75745,-0.0964 -0.0996,-0.036 -0.16433,-0.0818 -0.26804,-0.17065"
       id="path37336-5-3-2-8"
       sodipodi:nodetypes="cac" />
    <path
       style="fill:none;stroke:#000000;stroke-width:0.199999;stroke-linecap:round;stroke-linejoin:round;stroke-dasharray:none"
       d="m 175.11095,135.45121 c 0,0 0.0715,-0.23144 0.0211,-0.32826 -0.0471,-0.0904 -0.1595,-0.15193 -0.26093,-0.15704 -0.0773,-0.004 -0.14549,0.057 -0.21097,0.099 -0.0454,0.0291 -0.12387,0.10449 -0.12387,0.10449"
       id="path37338-5-8-2-0"
       sodipodi:nodetypes="caaac" />
    <path
       style="fill:none;stroke:#000000;stroke-width:0.199999;stroke-linecap:round;stroke-linejoin:round;stroke-dasharray:none"
       d="m 174.8094,135.74439 c 0,0 -0.17848,0.0285 -0.25584,-0.007 -0.0625,-0.029 -0.10524,-0.0933 -0.13858,-0.15397 -0.0139,-0.0253 -0.0235,-0.0836 -0.0235,-0.0836"
       id="path37340-4-0-6-2"
       sodipodi:nodetypes="caac" />
    <path
       style="fill:none;stroke:#000000;stroke-width:0.199999;stroke-linecap:round;stroke-linejoin:round;stroke-dasharray:none"
       d="m 174.13304,135.19497 c 0,0 -0.19718,-0.0147 -0.2783,-0.0646 -0.099,-0.0609 -0.1633,-0.17249 -0.22364,-0.26767"
       id="path37342-7-4-1-1"
       sodipodi:nodetypes="cac" />
    <path
       style="fill:none;stroke:#000000;stroke-width:0.199999;stroke-linecap:round;stroke-linejoin:round;stroke-dasharray:none"
       d="m 173.52699,134.43031 c 0.007,-0.0225 -0.007,-0.11875 -0.0336,-0.16986 -0.0391,-0.0756 -0.0952,-0.15852 -0.17596,-0.18409 -0.0693,-0.0219 -0.15471,1e-5 -0.21443,0.0422 -0.0441,0.0312 -0.0832,0.13959 -0.0832,0.13959"
       id="path37344-6-7-0-0"
       sodipodi:nodetypes="caaac" />
    <path
       style="fill:none;stroke:#000000;stroke-width:0.199999;stroke-linecap:round;stroke-linejoin:round;stroke-dasharray:none"
       d="m 172.58328,134.26929 c -0.16105,-0.0455 -0.45891,-0.10507 -0.6469,-0.237 -0.40086,-0.28137 -0.57505,-0.65797 -0.94448,-1.12575"
       id="path37346-5-6-6-5"
       sodipodi:nodetypes="cac" />
    <path
       style="fill:none;stroke:#000000;stroke-width:0.199999;stroke-linecap:round;stroke-linejoin:round;stroke-dasharray:none"
       d="m 170.89768,132.52353 c 0.003,-0.0162 -0.0187,-0.19911 -0.0751,-0.2752 -0.0339,-0.0457 -0.0911,-0.0706 -0.14434,-0.0901 -0.0671,-0.0246 -0.14823,-0.0631 -0.21228,-0.0306 -0.056,0.0284 -0.073,0.10558 -0.0898,0.16634 -0.0345,0.12488 -0.0487,0.26282 -0.0169,0.388 0.0219,0.086 0.0651,0.17661 0.1374,0.22721 0.039,0.0273 0.14011,0.0274 0.14011,0.0274"
       id="path37348-6-8-1-1"
       sodipodi:nodetypes="caaaaaac" />
    <path
       style="fill:none;stroke:#000000;stroke-width:0.199999;stroke-linecap:round;stroke-linejoin:round;stroke-dasharray:none"
       d="m 173.27301,134.88201 c -0.0115,0.0205 -0.089,0.0814 -0.145,0.0943 -0.0721,0.0166 -0.15604,0.01 -0.21959,-0.0279 -0.0596,-0.0352 -0.10401,-0.10099 -0.12305,-0.16798 -0.013,-0.0458 0.0109,-0.1426 0.0109,-0.1426"
       id="path37350-9-9-5-1"
       sodipodi:nodetypes="caaac" />
    <path
       style="fill:none;stroke:#000000;stroke-width:0.199999;stroke-linecap:round;stroke-linejoin:round;stroke-dasharray:none"
       d="m 175.99556,138.26863 c 0,0 -1.0396,0.49724 -1.4993,0.83882 -0.30372,0.22568 -0.69825,0.59778 -1.04749,0.94663"
       id="path37775-3-0-9-0"
       sodipodi:nodetypes="csc" />
    <path
       style="fill:none;stroke:#000000;stroke-width:0.199999;stroke-linecap:round;stroke-linejoin:round;stroke-dasharray:none"
       d="m 171.24436,139.94213 c 0,0 0.28901,-1.42032 0.32161,-2.14138 0.0213,-0.47143 -0.0831,-1.41328 -0.0831,-1.41328"
       id="path37781-5-6-4-8"
       sodipodi:nodetypes="cac" />
    <path
       style="fill:none;stroke:#000000;stroke-width:0.199999;stroke-linecap:round;stroke-linejoin:round;stroke-dasharray:none"
       d="m 171.2745,143.99325 c 0.19694,0.0671 0.40124,0.23225 0.44764,0.43518 0.0392,0.17116 -0.0383,0.39189 -0.18045,0.4949 -0.15553,0.11271 -0.39714,0.0894 -0.57575,0.0189 -0.17942,-0.0708 -0.36794,-0.22047 -0.40959,-0.4089 -0.0366,-0.16555 0.0417,-0.37274 0.17484,-0.47763"
       id="path42371-8-9-5"
       sodipodi:nodetypes="caaaac" />
    <path
       style="fill:none;stroke:#000000;stroke-width:0.199999;stroke-linecap:round;stroke-linejoin:round;stroke-dasharray:none"
       d="m 172.91419,143.51398 c -0.0366,-0.16555 0.0417,-0.37274 0.17485,-0.47763 0.14323,-0.11285 0.37077,-0.12122 0.54331,-0.0624 0.19693,0.0671 0.40123,0.23224 0.44764,0.43517 0.0391,0.17117 -0.0383,0.3919 -0.18046,0.49491 -0.15552,0.11271 -0.39713,0.0893 -0.57574,0.0189"
       id="path42397-7-0-0"
       sodipodi:nodetypes="caaaac" />
    <path
       style="fill:none;stroke:#000000;stroke-width:0.199999;stroke-linecap:round;stroke-linejoin:round;stroke-dasharray:none"
       d="m 171.97819,142.07126 c -0.17942,-0.0708 -0.36794,-0.22047 -0.40959,-0.40891 -0.0366,-0.16554 0.0417,-0.37274 0.17484,-0.47763 0.14324,-0.11284 0.37077,-0.12121 0.54331,-0.0624 0.19694,0.0671 0.40124,0.23225 0.44764,0.43518 0.0392,0.17117 -0.0383,0.39189 -0.18045,0.49491"
       id="path42399-9-9-6"
       sodipodi:nodetypes="caaaac" />
    <path
       style="fill:none;stroke:#000000;stroke-width:0.199999;stroke-linecap:round;stroke-linejoin:round;stroke-dasharray:none"
       d="m 170.56379,142.64678 c 0.0391,0.17117 -0.0383,0.3919 -0.18045,0.49491 -0.15553,0.11271 -0.39714,0.0893 -0.57575,0.0189 -0.17942,-0.0708 -0.36794,-0.22048 -0.40959,-0.40891 -0.0366,-0.16554 0.0417,-0.37274 0.17484,-0.47763 0.14324,-0.11285 0.37077,-0.12121 0.54331,-0.0624"
       id="path42401-0-1-4"
       sodipodi:nodetypes="caaaac" />
    <path
       style="fill:none;stroke:#000000;stroke-width:0.199999;stroke-linecap:round;stroke-linejoin:round;stroke-dasharray:none"
       d="m 173.02335,145.32933 -1.49473,0.67682 c -0.19386,0.0878 -0.42804,0.11543 -0.63494,0.0658 -0.20619,-0.0495 -0.41572,-0.1697 -0.53409,-0.34571 m -0.40778,-0.60639 -1.09561,-1.6292 m -0.30658,-0.45589 c -0.13901,-0.20672 -0.1767,-0.48971 -0.13451,-0.7353 0.0306,-0.17829 0.10296,-0.40184 0.27019,-0.47061 l 1.43355,-0.58946 m 0.58065,-0.23877 1.27292,-0.52342 c 0.23231,-0.0955 0.51753,-0.0419 0.75188,0.0484 0.21766,0.0839 0.41673,0.24241 0.54797,0.43533 l 1.12799,1.65795 m 0.58718,0.86307 c 0.14665,0.21554 0.15619,0.54354 0.0481,0.78081 -0.0864,0.18954 -0.30617,0.29415 -0.49584,0.38003"
       id="path42403-3-7-6"
       sodipodi:nodetypes="csaccccasccsasccac" />
    <path
       style="fill:none;stroke:#000000;stroke-width:0.199999;stroke-linecap:round;stroke-linejoin:round;stroke-dasharray:none"
       d="m 172.76655,139.90856 c 0,0 0.5276,-0.75096 0.83526,-1.0898 0.25775,-0.28388 0.84136,-0.78435 0.84136,-0.78435"
       id="path43047-3-7-2"
       sodipodi:nodetypes="cac" />
    <path
       style="fill:none;stroke:#000000;stroke-width:0.199999;stroke-linecap:round;stroke-linejoin:round;stroke-dasharray:none"
       d="m 172.16075,138.74375 c 0,0 -0.0401,0.29112 -0.0682,0.43527 -0.0413,0.212 -0.14729,0.63097 -0.14729,0.63097"
       id="path43049-3-1-5"
       sodipodi:nodetypes="cac" />
    <path
       style="fill:none;stroke:#000000;stroke-width:0.199999;stroke-linecap:round;stroke-linejoin:round;stroke-dasharray:none"
       d="m 172.58146,146.10845 1.97052,-0.92293 c 0.15797,-0.074 0.38145,-0.12721 0.52264,-0.0248 0.11543,0.0838 0.16526,0.27968 0.11358,0.41267 l -0.31631,0.814 m -0.30696,0.78995 c -0.0543,0.13968 -0.18152,0.24092 -0.29357,0.34037 -0.1615,0.14336 -0.34251,0.26869 -0.53727,0.36191 m -1.34043,0.64155 -1.41029,0.67498 c -0.17291,0.0828 -0.36046,0.2081 -0.5487,0.17205 -0.16034,-0.0307 -0.43003,-0.1533 -0.3802,-0.30887 l 0.5249,-1.63886 c 0.065,-0.20297 0.18361,-0.39871 0.34418,-0.53877 0.12359,-0.10779 0.2982,-0.13643 0.44668,-0.20597"
       id="path43051-7-1-8"
       sodipodi:nodetypes="csasccaccsassac" />
    <path
       style="fill:none;stroke:#000000;stroke-width:0.199999;stroke-linecap:round;stroke-linejoin:round;stroke-dasharray:none"
       d="m 172.20448,147.59994 c 0,0 0.23658,0.0295 0.5403,-0.15731 0.30373,-0.18687 0.37159,-0.39801 0.37159,-0.39801"
       id="path43701-3-5-6"
       sodipodi:nodetypes="czc" />
    <path
       style="fill:none;stroke:#000000;stroke-width:0.199999;stroke-linecap:round;stroke-linejoin:round;stroke-dasharray:none"
       d="m 166.59659,143.20613 c 0,0 -1.40617,-2.40434 -1.85539,-3.71311 -0.41963,-1.22259 -0.76242,-3.80235 -0.76242,-3.80235"
       id="path45029-2-9-2"
       sodipodi:nodetypes="cac" />
    <path
       style="fill:none;stroke:#000000;stroke-width:0.199999;stroke-linecap:round;stroke-linejoin:round;stroke-dasharray:none"
       d="m 170.38635,136.20246 c 0,0 -0.28279,-0.6601 -0.46253,-0.9699 -0.22062,-0.38026 -0.75167,-1.08363 -0.75167,-1.08363"
       id="path45031-6-7-8"
       sodipodi:nodetypes="cac" />
    <path
       style="fill:none;stroke:#000000;stroke-width:0.199999;stroke-linecap:round;stroke-linejoin:round;stroke-dasharray:none"
       d="m 171.41507,128.10812 c 0,0 -0.75855,-0.44293 -1.15012,-0.64127 -0.40097,-0.20311 -1.2262,-0.56098 -1.2262,-0.56098"
       id="path45033-5-7-4"
       sodipodi:nodetypes="cac" />
    <path
       style="fill:none;stroke:#000000;stroke-width:0.199999;stroke-linecap:round;stroke-linejoin:round;stroke-dasharray:none"
       d="m 179.79115,134.72198 c 0,0 0.59501,-0.85087 0.78847,-1.32795 0.17496,-0.43146 0.32479,-1.35848 0.32479,-1.35848"
       id="path45832-2-6-7"
       sodipodi:nodetypes="cac" />
    <path
       style="fill:none;stroke:#000000;stroke-width:0.199999;stroke-linecap:round;stroke-linejoin:round;stroke-dasharray:none"
       d="m 171.70804,131.3653 c 0,0 0.14218,-0.77072 0.29182,-1.1297 0.1685,-0.40424 0.67222,-1.1288 0.67222,-1.1288"
       id="path45834-6-7-2"
       sodipodi:nodetypes="cac" />
    <path
       style="fill:none;stroke:#000000;stroke-width:0.199999;stroke-linecap:round;stroke-linejoin:round;stroke-dasharray:none"
       d="m 176.11829,127.40271 c 0,0 1.20562,0.12155 1.7484,0.36648 0.68931,0.31103 1.81831,1.35696 1.81831,1.35696"
       id="path45836-5-3-4"
       sodipodi:nodetypes="cac" />
    <path
       style="fill:#fff6e5;fill-opacity:1;stroke:none;stroke-width:0.1;stroke-linecap:round;stroke-linejoin:round"
       d="m 94.716574,146.14912 c -0.642395,1.85032 -2.110237,3.74008 -3.980281,4.32256 -1.881148,0.58593 -4.370148,0.0862 -5.764905,-1.30547 -1.065029,-1.06266 -1.119138,-2.89953 -1.006649,-4.39983 0.105934,-1.41285 1.901397,-2.58182 1.555235,-3.9557 -0.210482,-0.83538 -1.252776,-1.19648 -1.972457,-1.67001 -1.234155,-0.81203 -3.045045,-0.81994 -3.968652,-1.97298 -1.396116,-1.74292 -1.862985,-4.28764 -1.600858,-6.50534 0.225068,-1.90416 1.025468,-4.07518 2.638869,-5.11123 1.469595,-0.94371 3.561678,-0.75355 5.233628,-0.24869 0.831113,0.25097 1.243589,1.39103 2.098396,1.54284 1.146829,0.20368 2.33577,-1.5362 3.355843,-0.97394 0.366922,0.20224 0.413068,0.79373 0.34833,1.20766 -0.141644,0.90559 -1.293564,1.39829 -1.532413,2.28323 -0.326462,1.20955 -0.45268,2.70682 0.239868,3.75084 0.285001,0.42963 1.230203,0.19896 1.383688,0.69115 0.223092,0.71541 -0.886796,1.24667 -1.083717,1.96972 -0.202706,0.74431 -0.343043,1.59309 -0.06666,2.3133 0.369486,0.96283 1.103876,2.24774 2.13513,2.23902 1.117484,-0.009 1.434073,-1.72596 2.272327,-2.465 0.496338,-0.4376 1.055078,-1.50197 1.616648,-1.15199 0.734596,0.45782 -0.201155,1.72521 -0.42126,2.56233 -0.408633,1.55414 -1.43826,2.93474 -1.658837,4.52649 -0.107886,0.7785 0.436502,1.60857 0.17873,2.35104 z"
       id="path373"
       sodipodi:nodetypes="aaaaaaaaaaaaaaaaaaaaaaaa" />
    <path
       style="fill:#ffeecc;fill-opacity:1;stroke:none;stroke-width:0.1;stroke-linecap:round;stroke-linejoin:round"
       d="m 91.120863,149.11701 c 1.132574,-0.93742 2.127392,-2.14456 2.66902,-3.51135 0.228314,-0.57614 0.02158,-1.2538 0.194204,-1.849 0.2255,-0.77747 0.982397,-1.37232 1.078002,-2.17616 0.05734,-0.48207 0.125584,-1.23305 -0.322325,-1.42029 -0.624823,-0.26119 -1.049634,1.0361 -1.725901,1.07184 -1.125173,0.0595 -2.36604,-0.57033 -3.043538,-1.47064 -0.627609,-0.834 -0.8183,-2.08372 -0.52836,-3.08642 0.147158,-0.50891 0.957087,-0.66253 1.062826,-1.18163 0.07723,-0.37917 -0.315353,-0.71596 -0.376865,-1.098 -0.128913,-0.80064 0.04522,-1.62194 0.0276,-2.4327 -0.0199,-0.91469 0.246927,-1.91653 -0.150531,-2.74061 -0.2523,-0.52311 -0.831557,-0.81725 -1.301973,-1.15786 -1.125119,-0.81467 -2.236352,-1.84475 -3.602873,-2.09416 -1.307414,-0.23863 -2.747933,0.0543 -3.932582,0.65669 -1.203926,0.6122 -2.464766,1.55558 -2.893671,2.83631 -0.581145,1.73533 -0.0082,3.79507 0.815575,5.42924 0.622186,1.23427 1.809491,2.12503 2.930171,2.93412 0.907307,0.65505 2.01954,0.9672 3.001372,1.50413 0.481518,0.26332 1.251528,0.31746 1.415293,0.84128 0.435509,1.39301 -1.631242,2.53535 -1.819163,3.98271 -0.171687,1.32231 -0.114602,2.86991 0.677692,3.94242 0.866875,1.17346 2.446198,1.97164 3.905121,1.97645 0.715272,0.002 1.3699,-0.5003 1.920913,-0.95637 z"
       id="path374"
       sodipodi:nodetypes="aaaaaaaaaaaaaaaaaaaaaaaa" />
    <path
       id="path375"
       style="fill:#ffffcc;fill-opacity:1;stroke-width:0.1;stroke-linecap:round;stroke-linejoin:round"
       d="m 82.955382,126.37952 c 0.273728,-0.0354 0.550355,-0.0288 0.811353,0.0277 1.643934,0.3561 3.248767,1.47697 4.117736,2.91719 0.690835,1.14498 1.335057,2.91295 0.525242,3.97712 -0.394356,0.0329 -0.791445,0.0195 -1.186935,0.0331 -0.734211,0.0253 -1.469848,0.15237 -2.201881,0.0905 -0.337581,-0.0285 -0.746995,0.0202 -0.994072,-0.21156 -0.345387,-0.32402 -0.157931,-0.95196 -0.384101,-1.36805 -0.171892,-0.31623 -0.544528,-0.49234 -0.713468,-0.81016 -0.390564,-0.73474 -0.09119,-1.78156 -0.629903,-2.41575 -0.328524,-0.38674 -1.264241,-0.12602 -1.391601,-0.61723 -0.128174,-0.49434 0.488901,-0.95301 0.922323,-1.2231 0.331253,-0.20642 0.725244,-0.34807 1.125308,-0.39979 z" />
    <path
       id="path376"
       style="fill:#fff4bd;fill-opacity:1;stroke-width:0.1;stroke-linecap:round;stroke-linejoin:round"
       d="m 82.76082,126.68994 c 0.669116,-0.0517 1.336454,0.11861 1.969161,0.3218 1.512158,0.52743 2.910376,1.55374 3.649917,2.99976 0.361467,0.75337 0.63629,1.63201 0.404062,2.46442 -0.103598,0.27849 -0.291534,0.7332 -0.663249,0.62187 -0.423765,-0.1313 -0.839473,-0.47769 -0.895916,-0.93748 0.045,-0.34301 0.374778,-0.79746 -0.04592,-1.04192 -0.484193,-0.31899 -1.204345,-0.14469 -1.583982,-0.64477 -0.423561,-0.5631 -0.278175,-1.3906 -0.793776,-1.89918 -0.377882,-0.34448 -0.907817,-0.13428 -1.349251,-0.0807 -0.323076,0.0194 -0.647829,0.0153 -0.971685,0.0297 -0.417282,0.0401 -0.730192,-0.3272 -0.771054,-0.71499 -0.08994,-0.41394 0.162696,-0.83883 0.55579,-0.98381 0.157043,-0.0702 0.325532,-0.11299 0.495904,-0.13465 z m 0.224639,2.00574 c 0.422292,-0.0231 0.953336,-0.0751 1.233535,0.31618 0.33387,0.45664 0.402649,1.08979 0.232849,1.6223 -0.1187,0.42379 -0.639087,0.65689 -1.028227,0.44673 -0.625573,-0.42162 -0.848887,-1.2589 -0.755516,-1.9766 0.04781,-0.16536 0.162869,-0.33155 0.317362,-0.40861 z"
       sodipodi:nodetypes="sssssssssssssaaaaaaaa" />
    <path
       style="fill:#ffffcc;fill-opacity:1;stroke-width:0.1;stroke-linecap:round;stroke-linejoin:round"
       d="m 89.035583,146.00897 c 0.216374,-0.10897 0.333565,-0.40865 0.323718,-0.65071 -0.01979,-0.48704 -0.485223,-0.84638 -0.755519,-1.25201 -0.252799,-0.37938 -0.663698,-0.67077 -0.808655,-1.10301 -0.234392,-0.69892 0.342609,-1.57647 -0.03215,-2.21128 -0.109914,-0.18619 -0.350585,-0.3604 -0.563283,-0.32159 -0.969812,0.17695 -1.305953,1.48106 -1.885037,2.27888 -0.220457,0.30372 -0.571857,0.5771 -0.602468,0.95115 -0.0282,0.34457 0.178775,0.69345 0.405142,0.95475 0.391951,0.45245 0.976074,0.71899 1.536262,0.92999 0.754706,0.28427 1.661704,0.78659 2.381981,0.42383 z"
       id="path377"
       sodipodi:nodetypes="aaaaaaaaaaa" />
    <path
       style="fill:#fff4bd;fill-opacity:1;stroke-width:0.1;stroke-linecap:round;stroke-linejoin:round"
       d="m 88.987013,145.62291 c 0.2521,-0.13088 0.562546,-0.36444 0.553025,-0.64833 -0.01556,-0.46412 -0.526252,-0.87059 -0.973109,-0.99694 -0.219438,-0.062 -0.443431,0.22678 -0.66346,0.16687 -0.138661,-0.0377 -0.25339,-0.16931 -0.307068,-0.30261 -0.09718,-0.24134 -0.05431,-0.53124 0.02115,-0.78021 0.09814,-0.32381 0.435834,-0.53744 0.540457,-0.85921 0.107902,-0.33185 0.260694,-0.75203 0.07034,-1.0445 -0.142429,-0.21884 -0.484214,-0.3377 -0.735946,-0.26833 -0.377976,0.10415 -0.671386,0.52652 -0.742685,0.91204 -0.04473,0.24194 0.302974,0.46606 0.230558,0.70121 -0.09656,0.31351 -0.624188,0.31135 -0.780108,0.59998 -0.226514,0.4193 -0.435845,1.08003 -0.107718,1.42566 0.292564,0.30818 0.882854,-0.1949 1.274446,-0.0299 0.25339,0.10676 0.36319,0.41389 0.562166,0.60367 0.208274,0.19864 0.384456,0.47155 0.659019,0.55788 0.127406,0.0401 0.280392,0.0242 0.398927,-0.0373 z"
       id="path378"
       sodipodi:nodetypes="aaaaaaaaaaaaaaaaa" />
    <path
       id="path379"
       style="fill:#ffe6b3;fill-opacity:1;stroke:none;stroke-width:0.1;stroke-linecap:round;stroke-linejoin:round"
       d="m 84.108087,125.87243 c 1.61763,-0.16395 3.142235,0.80264 4.016485,2.11572 0.93394,1.32807 1.968247,2.82465 1.850129,4.52102 -0.182352,0.76606 -0.375005,1.52513 -0.405678,2.31554 -0.549099,1.11124 -1.357944,-0.54532 -1.402664,-1.1758 -0.192697,-1.18131 -0.226281,-3.00991 -1.281738,-3.73597 -0.893395,-0.61459 -0.818463,-1.6991 -1.928788,-1.95055 -0.787779,0.0213 -2.497399,0.88358 -2.410103,-0.55523 0.138017,-0.7615 0.76815,-1.45737 1.562357,-1.53473 z m -1.25629,3.05496 c 1.053113,-0.17356 1.481914,1.36801 0.810976,2.02762 -0.64514,0.66882 -1.672726,0.64408 -2.530633,0.80606 -1.110103,0.0968 -2.305308,0.1161 -3.332169,-0.36131 -0.721524,-0.71912 0.208078,-2.00452 1.141443,-1.55755 0.7888,0.63688 2.014278,0.52765 2.662789,-0.25832 0.29107,-0.38561 0.795335,-0.55168 1.247594,-0.6565 z m 4.700686,6.5246 c 1.06191,0.0869 0.150259,1.51826 -0.396313,1.83475 -1.388394,1.18538 -3.308976,1.28904 -5.040716,1.13796 -1.20824,-0.55949 0.411738,-1.95741 1.295571,-1.57958 1.013385,0.2273 1.937982,-0.26648 2.727071,-0.84669 0.432788,-0.26284 0.928269,-0.41817 1.414387,-0.54644 z m 0.0289,5.69794 c 0.880599,-0.24266 2.030838,1.17392 0.568955,1.13159 -0.821456,0.40961 -1.423431,-0.86593 -0.568955,-1.13159 z m 2.37425,0.7225 c 1.092104,-0.17903 1.229904,1.60767 0.146474,1.70003 -0.869565,0.0288 -1.149859,-1.6336 -0.146474,-1.70003 z m -3.35721,0.83714 c 1.199275,-0.24763 1.167915,1.39221 0.268464,1.75208 -1.015834,0.50071 -1.595072,-1.30946 -0.572398,-1.66144 l 0.127351,-0.0528 0.176578,-0.0378 z m 5.546402,-0.63408 c 0.808215,0.23441 0.954489,1.36194 1.090706,2.09264 0.182368,1.10124 -0.46198,2.05896 -1.079076,2.89846 -0.398255,0.79536 -1.59785,2.49049 -2.402227,1.19511 -0.634826,-0.9331 -0.58688,-2.22844 0.142343,-3.09953 0.729673,-0.81216 1.166858,-1.7998 1.682737,-2.7415 0.138135,-0.17771 0.335528,-0.3232 0.565517,-0.34518 z m -3.679866,1.96885 c 1.005684,-0.16809 1.294192,1.53055 0.191661,1.52415 -0.715993,-0.0221 -0.981447,-1.38797 -0.191661,-1.52415 z m -3.523926,0.83867 c 1.384009,0.11403 0.501929,1.98139 1.647435,2.46126 0.328615,0.50038 2.130028,1.32472 0.985764,1.78977 -0.867993,-0.17213 -1.605305,-0.79025 -2.22544,-1.39676 -0.556546,-0.66872 -0.912794,-1.59206 -0.78678,-2.46443 0.05277,-0.17572 0.185658,-0.35886 0.379021,-0.38984 z"
       sodipodi:nodetypes="cccccsccccccccccccccccccccccsccccscccccccccccccccc" />
    <path
       style="fill:#ffe6b3;fill-opacity:1;stroke:none;stroke-width:0.1;stroke-linecap:round;stroke-linejoin:round"
       d="m 89.038407,140.40916 c 0.895206,-0.3105 -0.233979,-1.88653 -0.221151,-2.83397 0.0085,-0.62671 0.779083,-1.6375 0.197013,-1.86995 -0.485494,-0.19388 -0.809213,0.74189 -0.955238,1.24386 -0.215269,0.73999 -0.05167,1.57617 0.204842,2.3029 0.154472,0.43769 0.336016,1.30926 0.774534,1.15716 z"
       id="path380"
       sodipodi:nodetypes="aaaaaa" />
    <path
       id="path381"
       style="fill:#ffdd99;fill-opacity:1;stroke:none;stroke-width:0.1;stroke-linecap:round;stroke-linejoin:round"
       d="m 87.035086,135.96314 c 0.663297,-0.14224 0.866594,0.63279 0.410216,1.02395 0.0092,0.432 0.269483,0.84936 0.224036,1.30541 -0.01242,0.56762 -0.71216,0.45894 -1.048431,0.24975 -0.497997,-0.13606 -0.714394,-0.79897 -1.284686,-0.74778 -0.602468,5.4e-4 -1.173917,0.48945 -1.77605,0.25953 -0.654461,-0.3458 -0.102228,-1.20664 0.52548,-1.02811 0.55869,0.0338 1.18788,0.13966 1.653372,-0.2581 0.41933,-0.28364 0.775087,-0.71126 1.296068,-0.80465 z m 0.634024,5.32453 c 0.510262,-0.17994 1.207305,0.75135 0.493361,0.89426 -0.577261,0.0587 -0.968239,-0.39776 -0.493361,-0.89426 z m 2.078502,1.28791 c 0.420577,0.0117 0.812711,0.93191 0.178551,0.85805 -0.534731,0.36643 -0.708061,-0.82135 -0.178551,-0.85805 z m -3.3923,0.73143 c 0.851379,-0.034 -0.136564,1.31908 -0.276657,0.41684 -0.0079,-0.17506 0.07649,-0.3974 0.276657,-0.41684 z m 2.229379,1.09249 c 0.585432,-0.14049 1.080572,0.89654 0.391429,1.06245 -0.67361,0.24904 -1.09808,-0.86352 -0.391429,-1.06246 z m -3.608116,1.61956 c 0.800315,-0.0434 0.467173,1.0001 0.930838,1.39644 0.328702,0.54356 -0.467176,0.4725 -0.545348,0.0353 -0.167618,-0.44675 -0.743523,-0.80507 -0.596303,-1.31823 0.04604,-0.0706 0.130515,-0.10347 0.210813,-0.11353 z m 4.774258,0.335 c 0.5971,0.0113 0.732904,1.13554 1.400138,0.84036 0.235384,-0.31531 0.984131,-0.90853 0.90342,-0.093 -0.21862,0.66268 -0.552337,1.33547 -1.101149,1.78576 -0.439825,0.38228 -1.117772,0.12313 -1.319187,-0.39327 -0.290824,-0.58004 -0.476543,-1.31157 -0.186809,-1.92425 0.06619,-0.10864 0.175596,-0.19597 0.303587,-0.21558 z" />
    <path
       style="fill:none;stroke:#000000;stroke-width:0.199999;stroke-linecap:round;stroke-linejoin:round;stroke-dasharray:none"
       d="m 90.758621,145.92909 c 0,0 0.04099,0.19172 -0.08515,0.45343 -0.126142,0.26171 -0.289007,0.33191 -0.289007,0.33191"
       id="path382"
       sodipodi:nodetypes="czc" />
    <path
       style="fill:none;stroke:#000000;stroke-width:0.199999;stroke-linecap:round;stroke-linejoin:round;stroke-dasharray:none"
       d="m 91.556892,145.39273 c 0,0 0.04099,0.19171 -0.08515,0.45342 -0.126142,0.26171 -0.289007,0.33191 -0.289007,0.33191"
       id="path383"
       sodipodi:nodetypes="czc" />
    <path
       style="fill:none;stroke:#000000;stroke-width:0.199999;stroke-linecap:round;stroke-linejoin:round;stroke-dasharray:none"
       d="m 92.344455,144.799 c 0,0 0.04099,0.19172 -0.08515,0.45342 -0.126142,0.26171 -0.289012,0.33191 -0.289012,0.33191"
       id="path384"
       sodipodi:nodetypes="czc" />
    <path
       style="fill:none;stroke:#000000;stroke-width:0.199999;stroke-linecap:round;stroke-linejoin:round;stroke-dasharray:none"
       d="m 90.304465,145.75316 c -0.170911,0.27365 -0.265216,0.59181 -0.344783,0.90454 -0.04441,0.17464 -0.120286,0.36206 -0.0723,0.53577 l 0.411924,1.49102 c 0.0231,0.0836 0.156776,0.11845 0.240931,0.0978 0.140765,-0.0346 0.207482,-0.20691 0.281411,-0.33165 m 0.671934,-1.13371 1.089708,-1.83863 c 0.08421,-0.14208 0.151859,-0.29717 0.18855,-0.45823 0.02331,-0.10248 0.02597,-0.20998 0.01816,-0.3148 v 0 l -0.08147,-1.08864 m -0.05276,-0.70519 c -0.0081,-0.109 -0.08364,-0.24132 -0.189731,-0.26741 -0.117196,-0.0288 -0.258568,0.0622 -0.322515,0.16455 l -0.81251,1.30096"
       id="path385"
       sodipodi:nodetypes="cassaccsassccasc" />
    <path
       style="fill:none;stroke:#000000;stroke-width:0.199999;stroke-linecap:round;stroke-linejoin:round;stroke-dasharray:none"
       d="m 89.342542,133.64324 c 0.01019,0.21587 -0.07112,0.45088 -0.142218,0.65202 -0.415096,1.17426 -1.776933,1.78242 -2.869335,2.3662 -0.919173,0.49121 -1.95268,0.96881 -2.993881,0.89918 -0.373584,-0.025 -0.569662,-0.0273 -0.934834,-0.15422 m -2.050712,-1.29833 c -1.161392,-1.16476 -1.849455,-2.60022 -2.005688,-4.25049 m 0.613691,-2.43345 c 0.237266,-0.43103 0.370684,-0.54802 0.69871,-0.88826 1.033296,-1.07177 2.457112,-2.08961 3.944665,-2.07843 0.631208,0.005 1.086786,-0.0109 1.735635,0.30549 m 2.077199,1.40353 c 0.355025,0.22395 0.472503,0.42122 0.711953,0.74677 0.506386,0.68847 0.996033,1.64694 1.038753,2.55317"
       id="path386"
       sodipodi:nodetypes="csasccccssccsc" />
    <path
       style="fill:none;stroke:#000000;stroke-width:0.199999;stroke-linecap:round;stroke-linejoin:round;stroke-dasharray:none"
       d="m 84.541161,137.88337 c 0.697143,0.0175 1.347227,-0.50588 2.006902,-0.79247 0.510419,-0.22176 1.075654,-0.36526 1.507953,-0.71657 0.211772,-0.17209 0.43706,-0.3696 0.590545,-0.60076"
       id="path387"
       sodipodi:nodetypes="casc" />
    <path
       style="fill:none;stroke:#000000;stroke-width:0.199999;stroke-linecap:round;stroke-linejoin:round;stroke-dasharray:none"
       d="m 86.587323,137.57896 c 0.07466,0.12668 0.187926,0.31786 0.231128,0.42968 0.07018,0.18162 -0.01572,0.36373 0.113037,0.44842 0.155231,0.1021 0.42183,0.0452 0.550081,-0.0892 0.108082,-0.1133 0.117717,-0.324 0.05346,-0.46686 -0.04967,-0.11048 -0.188555,-0.0927 -0.297498,-0.20855 -0.06812,-0.0724 -0.140619,-0.24598 -0.215638,-0.34234"
       id="path388"
       sodipodi:nodetypes="csaaasc" />
    <path
       style="fill:none;stroke:#000000;stroke-width:0.199999;stroke-linecap:round;stroke-linejoin:round;stroke-dasharray:none"
       d="m 81.713152,136.93532 c 0,0 0.100405,0.14415 0.06808,0.20977 -0.06038,0.12257 -0.251139,0.15468 -0.385707,0.13299 -0.175383,-0.0282 -0.343408,-0.16483 -0.42684,-0.32313 -0.07451,-0.14138 -0.126948,-0.35859 -0.02312,-0.47858 0.07337,-0.0848 0.334525,-0.0295 0.334525,-0.0295"
       id="path389"
       sodipodi:nodetypes="caaaac" />
    <path
       style="fill:none;stroke:#000000;stroke-width:0.199999;stroke-linecap:round;stroke-linejoin:round;stroke-dasharray:none"
       d="m 78.637559,130.39008 c 0,0 -0.01901,-0.17455 -0.08604,-0.20603 -0.125604,-0.059 -0.292542,0.0319 -0.395123,0.1247 -0.07645,0.0691 -0.117088,0.18125 -0.1233,0.28485 -0.0098,0.16412 0.02917,0.35218 0.139867,0.47376 0.08354,0.0917 0.229089,0.17932 0.34456,0.13678 0.05366,-0.0197 0.08066,-0.15225 0.08066,-0.15225"
       id="path390"
       sodipodi:nodetypes="caaaaac" />
    <path
       style="fill:none;stroke:#000000;stroke-width:0.199999;stroke-linecap:round;stroke-linejoin:round;stroke-dasharray:none"
       d="m 86.067172,127.60443 c 0,0 -0.18085,-0.13429 -0.165631,-0.22641 0.02272,-0.13738 0.206366,-0.20719 0.341704,-0.23539 0.1653,-0.0345 0.357015,0.003 0.498431,0.0967 0.122867,0.0818 0.258493,0.22133 0.247334,0.36876 -0.01003,0.13265 -0.141183,0.26064 -0.269618,0.29093 -0.09627,0.0227 -0.278966,-0.10463 -0.278966,-0.10463"
       id="path391"
       sodipodi:nodetypes="caaaaac" />
    <path
       style="fill:none;stroke:#000000;stroke-width:0.199999;stroke-linecap:round;stroke-linejoin:round;stroke-dasharray:none"
       d="m 78.870969,130.78459 c 0,0 0.187736,0.2766 0.336496,0.31029 0.199877,0.0453 0.398392,-0.10125 0.587388,-0.18146"
       id="path392"
       sodipodi:nodetypes="cac" />
    <path
       style="fill:none;stroke:#000000;stroke-width:0.199999;stroke-linecap:round;stroke-linejoin:round;stroke-dasharray:none"
       d="m 79.990718,130.48535 c 0,0 0.06713,-0.31034 0.193486,-0.35825 0.115414,-0.0438 0.2552,0.0463 0.349075,0.12786 0.0519,0.0451 0.09793,0.18199 0.09793,0.18199"
       id="path393"
       sodipodi:nodetypes="caac" />
    <path
       style="fill:none;stroke:#000000;stroke-width:0.199999;stroke-linecap:round;stroke-linejoin:round;stroke-dasharray:none"
       d="m 80.182363,131.14761 c 0,0 0.179216,0.0896 0.273239,0.0793 0.08935,-0.01 0.23646,-0.12938 0.23646,-0.12938"
       id="path394"
       sodipodi:nodetypes="cac" />
    <path
       style="fill:none;stroke:#000000;stroke-width:0.199999;stroke-linecap:round;stroke-linejoin:round;stroke-dasharray:none"
       d="m 80.950275,130.76758 c 0,0 0.155087,0.0504 0.234246,0.0439 0.24218,-0.0202 0.451321,-0.12354 0.684587,-0.25076"
       id="path395"
       sodipodi:nodetypes="cac" />
    <path
       style="fill:none;stroke:#000000;stroke-width:0.199999;stroke-linecap:round;stroke-linejoin:round;stroke-dasharray:none"
       d="m 82.065708,130.09111 c 0,0 -0.02212,-0.37261 0.08687,-0.50156 0.09589,-0.11347 0.273745,-0.17238 0.419941,-0.14601 0.173594,0.0313 0.410917,0.3374 0.410917,0.3374"
       id="path396"
       sodipodi:nodetypes="caac" />
    <path
       style="fill:none;stroke:#000000;stroke-width:0.199999;stroke-linecap:round;stroke-linejoin:round;stroke-dasharray:none"
       d="m 83.349676,130.08958 c 0.233534,-0.07 0.688568,-0.18969 0.980311,-0.38503 0.149076,-0.0998 0.251919,-0.17545 0.372802,-0.38827"
       id="path397"
       sodipodi:nodetypes="cac" />
    <path
       style="fill:none;stroke:#000000;stroke-width:0.199999;stroke-linecap:round;stroke-linejoin:round;stroke-dasharray:none"
       d="m 82.27619,130.66682 c 0,0 0.267676,0.12143 0.409744,0.12079 0.09362,-4.1e-4 0.197483,-0.0208 0.268306,-0.082 0.05866,-0.0507 0.100172,-0.2109 0.100172,-0.2109"
       id="path398"
       sodipodi:nodetypes="caac" />
    <path
       style="fill:none;stroke:#000000;stroke-width:0.199999;stroke-linecap:round;stroke-linejoin:round;stroke-dasharray:none"
       d="m 84.657704,128.9179 c 0,0 -0.102759,-0.21305 -0.07166,-0.31618 0.03255,-0.10793 0.138795,-0.19437 0.244561,-0.23132 0.10846,-0.0379 0.243037,-0.0268 0.343953,0.0294 0.05977,0.0333 0.123516,0.16479 0.123516,0.16479"
       id="path399"
       sodipodi:nodetypes="caaac" />
    <path
       style="fill:none;stroke:#000000;stroke-width:0.199999;stroke-linecap:round;stroke-linejoin:round;stroke-dasharray:none"
       d="m 85.778885,128.75141 c 0.175623,-0.0255 0.254448,-0.053 0.343575,-0.13851 0.08537,-0.0819 0.126012,-0.20656 0.146344,-0.32341"
       id="path400"
       sodipodi:nodetypes="cac" />
    <path
       style="fill:none;stroke:#000000;stroke-width:0.199999;stroke-linecap:round;stroke-linejoin:round;stroke-dasharray:none"
       d="m 85.119652,129.31851 c 0,0 0.300558,0.0404 0.420124,-0.0333 0.04311,-0.0266 0.07927,-0.13019 0.07927,-0.13019"
       id="path401"
       sodipodi:nodetypes="cac" />
    <path
       style="fill:none;stroke:#000000;stroke-width:0.199999;stroke-linecap:round;stroke-linejoin:round;stroke-dasharray:none"
       d="m 82.723868,136.1034 c 0,0 -0.06136,-0.32115 0.03222,-0.42848 0.08481,-0.0973 0.256834,-0.1235 0.378174,-0.079 0.11494,0.0422 0.228208,0.29006 0.228208,0.29006"
       id="path402"
       sodipodi:nodetypes="caac" />
    <path
       style="fill:none;stroke:#000000;stroke-width:0.199999;stroke-linecap:round;stroke-linejoin:round;stroke-dasharray:none"
       d="m 81.745661,136.54103 c 0,0 0.375636,0.15391 0.570016,0.1353 0.123621,-0.0119 0.205656,0.002 0.339604,-0.15326"
       id="path403"
       sodipodi:nodetypes="cac" />
    <path
       style="fill:none;stroke:#000000;stroke-width:0.199999;stroke-linecap:round;stroke-linejoin:round;stroke-dasharray:none"
       d="m 83.069072,136.52189 c 0,0 0.209996,0.045 0.301156,0.003 0.05245,-0.024 0.09142,-0.0783 0.111917,-0.13259 0.0081,-0.0214 0.0016,-0.0687 0.0016,-0.0687"
       id="path404"
       sodipodi:nodetypes="caac" />
    <path
       style="fill:none;stroke:#000000;stroke-width:0.199999;stroke-linecap:round;stroke-linejoin:round;stroke-dasharray:none"
       d="m 83.829351,136.08953 c 0,0 0.518073,-0.01 0.757449,-0.0964 0.0996,-0.036 0.164329,-0.0818 0.268045,-0.17065"
       id="path405"
       sodipodi:nodetypes="cac" />
    <path
       style="fill:none;stroke:#000000;stroke-width:0.199999;stroke-linecap:round;stroke-linejoin:round;stroke-dasharray:none"
       d="m 84.931323,135.45121 c 0,0 -0.07147,-0.23144 -0.02109,-0.32826 0.04706,-0.0904 0.159499,-0.15193 0.260929,-0.15704 0.07727,-0.004 0.145486,0.057 0.210971,0.099 0.04542,0.0291 0.123863,0.10449 0.123863,0.10449"
       id="path406"
       sodipodi:nodetypes="caaac" />
    <path
       style="fill:none;stroke:#000000;stroke-width:0.199999;stroke-linecap:round;stroke-linejoin:round;stroke-dasharray:none"
       d="m 85.232867,135.74439 c 0,0 0.178483,0.0285 0.255841,-0.007 0.0625,-0.029 0.105246,-0.0933 0.138588,-0.15397 0.0139,-0.0253 0.02346,-0.0836 0.02346,-0.0836"
       id="path407"
       sodipodi:nodetypes="caac" />
    <path
       style="fill:none;stroke:#000000;stroke-width:0.199999;stroke-linecap:round;stroke-linejoin:round;stroke-dasharray:none"
       d="m 85.909235,135.19497 c 0,0 0.197175,-0.0147 0.278299,-0.0646 0.09902,-0.0609 0.163294,-0.17249 0.22364,-0.26767"
       id="path408"
       sodipodi:nodetypes="cac" />
    <path
       style="fill:none;stroke:#000000;stroke-width:0.199999;stroke-linecap:round;stroke-linejoin:round;stroke-dasharray:none"
       d="m 86.515287,134.43031 c -0.0067,-0.0225 0.007,-0.11875 0.03356,-0.16986 0.03915,-0.0756 0.09519,-0.15852 0.175965,-0.18409 0.06928,-0.0219 0.15471,1e-5 0.214428,0.0422 0.04408,0.0312 0.08319,0.13959 0.08319,0.13959"
       id="path409"
       sodipodi:nodetypes="caaac" />
    <path
       style="fill:none;stroke:#000000;stroke-width:0.199999;stroke-linecap:round;stroke-linejoin:round;stroke-dasharray:none"
       d="m 87.458992,134.26929 c 0.161049,-0.0455 0.458905,-0.10507 0.646896,-0.237 0.400862,-0.28137 0.575054,-0.65797 0.944486,-1.12575"
       id="path410"
       sodipodi:nodetypes="cac" />
    <path
       style="fill:none;stroke:#000000;stroke-width:0.199999;stroke-linecap:round;stroke-linejoin:round;stroke-dasharray:none"
       d="m 89.144591,132.52353 c -0.0027,-0.0162 0.01865,-0.19911 0.07511,-0.2752 0.03389,-0.0457 0.09109,-0.0706 0.144332,-0.0901 0.06711,-0.0246 0.148232,-0.0631 0.212282,-0.0306 0.05596,0.0284 0.07304,0.10558 0.08982,0.16634 0.03448,0.12488 0.04874,0.26282 0.01686,0.388 -0.0219,0.086 -0.06512,0.17661 -0.137398,0.22721 -0.03898,0.0273 -0.140104,0.0274 -0.140104,0.0274"
       id="path411"
       sodipodi:nodetypes="caaaaaac" />
    <path
       style="fill:none;stroke:#000000;stroke-width:0.199999;stroke-linecap:round;stroke-linejoin:round;stroke-dasharray:none"
       d="m 86.769258,134.88201 c 0.01149,0.0205 0.089,0.0814 0.144999,0.0943 0.07207,0.0166 0.156045,0.01 0.21959,-0.0279 0.05962,-0.0352 0.104015,-0.10099 0.123052,-0.16798 0.01301,-0.0458 -0.0109,-0.1426 -0.0109,-0.1426"
       id="path412"
       sodipodi:nodetypes="caaac" />
    <path
       style="fill:none;stroke:#000000;stroke-width:0.199999;stroke-linecap:round;stroke-linejoin:round;stroke-dasharray:none"
       d="m 84.046712,138.26863 c 0,0 1.039604,0.49724 1.4993,0.83882 0.303717,0.22568 0.698247,0.59778 1.047492,0.94663"
       id="path413"
       sodipodi:nodetypes="csc" />
    <path
       style="fill:none;stroke:#000000;stroke-width:0.199999;stroke-linecap:round;stroke-linejoin:round;stroke-dasharray:none"
       d="m 88.797916,139.94213 c 0,0 -0.289018,-1.42032 -0.321615,-2.14138 -0.02131,-0.47143 0.08309,-1.41328 0.08309,-1.41328"
       id="path414"
       sodipodi:nodetypes="cac" />
    <path
       style="fill:none;stroke:#000000;stroke-width:0.199999;stroke-linecap:round;stroke-linejoin:round;stroke-dasharray:none"
       d="m 88.76777,143.99325 c -0.196937,0.0671 -0.401237,0.23225 -0.447638,0.43518 -0.03915,0.17116 0.03833,0.39189 0.180454,0.4949 0.155524,0.11271 0.397138,0.0894 0.575748,0.0189 0.179413,-0.0708 0.367935,-0.22047 0.409587,-0.4089 0.0366,-0.16555 -0.0417,-0.37274 -0.174843,-0.47763"
       id="path415"
       sodipodi:nodetypes="caaaac" />
    <path
       style="fill:none;stroke:#000000;stroke-width:0.199999;stroke-linecap:round;stroke-linejoin:round;stroke-dasharray:none"
       d="m 87.128078,143.51398 c 0.0366,-0.16555 -0.0417,-0.37274 -0.174848,-0.47763 -0.143232,-0.11285 -0.370765,-0.12122 -0.543308,-0.0624 -0.196932,0.0671 -0.401232,0.23224 -0.447638,0.43517 -0.03915,0.17117 0.03833,0.3919 0.180459,0.49491 0.155519,0.11271 0.397133,0.0893 0.575743,0.0189"
       id="path416"
       sodipodi:nodetypes="caaaac" />
    <path
       style="fill:none;stroke:#000000;stroke-width:0.199999;stroke-linecap:round;stroke-linejoin:round;stroke-dasharray:none"
       d="m 88.064079,142.07126 c 0.179418,-0.0708 0.36794,-0.22047 0.409592,-0.40891 0.0366,-0.16554 -0.04169,-0.37274 -0.174842,-0.47763 -0.143233,-0.11284 -0.370771,-0.12121 -0.543309,-0.0624 -0.196937,0.0671 -0.401237,0.23225 -0.447638,0.43518 -0.03915,0.17117 0.03833,0.39189 0.180454,0.49491"
       id="path417"
       sodipodi:nodetypes="caaaac" />
    <path
       style="fill:none;stroke:#000000;stroke-width:0.199999;stroke-linecap:round;stroke-linejoin:round;stroke-dasharray:none"
       d="m 89.478482,142.64678 c -0.03915,0.17117 0.03833,0.3919 0.180454,0.49491 0.155524,0.11271 0.397138,0.0893 0.575743,0.0189 0.179419,-0.0708 0.367941,-0.22048 0.409592,-0.40891 0.0366,-0.16554 -0.0417,-0.37274 -0.174842,-0.47763 -0.143232,-0.11285 -0.370771,-0.12121 -0.543309,-0.0624"
       id="path418"
       sodipodi:nodetypes="caaaac" />
    <path
       style="fill:none;stroke:#000000;stroke-width:0.199999;stroke-linecap:round;stroke-linejoin:round;stroke-dasharray:none"
       d="m 87.018923,145.32933 1.49473,0.67682 c 0.193857,0.0878 0.428043,0.11543 0.634934,0.0658 0.206193,-0.0495 0.415725,-0.1697 0.534092,-0.34571 m 0.407781,-0.60639 1.095613,-1.6292 m 0.30658,-0.45589 c 0.139014,-0.20672 0.176696,-0.48971 0.134508,-0.7353 -0.03063,-0.17829 -0.102958,-0.40184 -0.270188,-0.47061 l -1.433548,-0.58946 m -0.580655,-0.23877 -1.272922,-0.52342 c -0.23231,-0.0955 -0.517522,-0.0419 -0.751876,0.0484 -0.21766,0.0839 -0.416727,0.24241 -0.547972,0.43533 l -1.127992,1.65795 m -0.587181,0.86307 c -0.146645,0.21554 -0.156189,0.54354 -0.04805,0.78081 0.08639,0.18954 0.306169,0.29415 0.495844,0.38003"
       id="path419"
       sodipodi:nodetypes="csaccccasccsasccac" />
    <path
       style="fill:none;stroke:#000000;stroke-width:0.199999;stroke-linecap:round;stroke-linejoin:round;stroke-dasharray:none"
       d="m 87.275724,139.90856 c 0,0 -0.527607,-0.75096 -0.83526,-1.0898 -0.25775,-0.28388 -0.841359,-0.78435 -0.841359,-0.78435"
       id="path420"
       sodipodi:nodetypes="cac" />
    <path
       style="fill:none;stroke:#000000;stroke-width:0.199999;stroke-linecap:round;stroke-linejoin:round;stroke-dasharray:none"
       d="m 87.881526,138.74375 c 0,0 0.04012,0.29112 0.06818,0.43527 0.04126,0.212 0.147294,0.63097 0.147294,0.63097"
       id="path421"
       sodipodi:nodetypes="cac" />
    <path
       style="fill:none;stroke:#000000;stroke-width:0.199999;stroke-linecap:round;stroke-linejoin:round;stroke-dasharray:none"
       d="m 87.460814,146.10845 -1.970519,-0.92293 c -0.157969,-0.074 -0.381454,-0.12721 -0.522643,-0.0248 -0.115432,0.0838 -0.165258,0.27968 -0.113579,0.41267 l 0.316307,0.814 m 0.306961,0.78995 c 0.05428,0.13968 0.181526,0.24092 0.293569,0.34037 0.161499,0.14336 0.342517,0.26869 0.537274,0.36191 m 1.340431,0.64155 1.410288,0.67498 c 0.172912,0.0828 0.360458,0.2081 0.548698,0.17205 0.160344,-0.0307 0.430033,-0.1533 0.380205,-0.30887 l -0.524907,-1.63886 c -0.065,-0.20297 -0.183604,-0.39871 -0.344181,-0.53877 -0.123583,-0.10779 -0.298198,-0.13643 -0.446679,-0.20597"
       id="path422"
       sodipodi:nodetypes="csasccaccsassac" />
    <path
       style="fill:none;stroke:#000000;stroke-width:0.199999;stroke-linecap:round;stroke-linejoin:round;stroke-dasharray:none"
       d="m 87.837787,147.59994 c 0,0 -0.236577,0.0295 -0.540294,-0.15731 -0.303728,-0.18687 -0.371589,-0.39801 -0.371589,-0.39801"
       id="path423"
       sodipodi:nodetypes="czc" />
    <path
       style="fill:none;stroke:#000000;stroke-width:0.199999;stroke-linecap:round;stroke-linejoin:round;stroke-dasharray:none"
       d="m 93.44568,143.20613 c 0,0 1.406172,-2.40434 1.855388,-3.71311 0.419634,-1.22259 0.762422,-3.80235 0.762422,-3.80235"
       id="path424"
       sodipodi:nodetypes="cac" />
    <path
       style="fill:none;stroke:#000000;stroke-width:0.199999;stroke-linecap:round;stroke-linejoin:round;stroke-dasharray:none"
       d="m 89.655927,136.20246 c 0,0 0.282788,-0.6601 0.462527,-0.9699 0.22062,-0.38026 0.751664,-1.08363 0.751664,-1.08363"
       id="path425"
       sodipodi:nodetypes="cac" />
    <path
       style="fill:none;stroke:#000000;stroke-width:0.199999;stroke-linecap:round;stroke-linejoin:round;stroke-dasharray:none"
       d="m 88.627205,128.10812 c 0,0 0.75855,-0.44293 1.150114,-0.64127 0.400977,-0.20311 1.226207,-0.56098 1.226207,-0.56098"
       id="path426"
       sodipodi:nodetypes="cac" />
    <path
       style="fill:none;stroke:#000000;stroke-width:0.199999;stroke-linecap:round;stroke-linejoin:round;stroke-dasharray:none"
       d="m 80.251126,134.72198 c 0,0 -0.595018,-0.85087 -0.788478,-1.32795 -0.174957,-0.43146 -0.324786,-1.35848 -0.324786,-1.35848"
       id="path427"
       sodipodi:nodetypes="cac" />
    <path
       style="fill:none;stroke:#000000;stroke-width:0.199999;stroke-linecap:round;stroke-linejoin:round;stroke-dasharray:none"
       d="m 88.334234,131.3653 c 0,0 -0.14218,-0.77072 -0.291821,-1.1297 -0.168504,-0.40424 -0.672217,-1.1288 -0.672217,-1.1288"
       id="path428"
       sodipodi:nodetypes="cac" />
    <path
       style="fill:none;stroke:#000000;stroke-width:0.199999;stroke-linecap:round;stroke-linejoin:round;stroke-dasharray:none"
       d="m 83.923977,127.40271 c 0,0 -1.205616,0.12155 -1.748399,0.36648 -0.689304,0.31103 -1.818304,1.35696 -1.818304,1.35696"
       id="path429"
       sodipodi:nodetypes="cac" />
    <path
       id="text1"
       style="font-size:9.87777px;line-height:1.25;font-family:'Action Jackson';-inkscape-font-specification:'Action Jackson';text-align:justify;letter-spacing:0px;word-spacing:0px;stroke-width:0.264583"
       d="M 121.84591 133.11953 C 121.74623 133.11953 121.68353 133.19188 121.65781 133.33657 L 121.65781 137.85102 C 121.37485 137.65488 121.08833 137.55699 120.79895 137.55699 L 120.73642 137.55699 C 120.15121 137.55699 119.56761 137.66453 118.98562 137.87996 C 117.79913 138.42015 117.20589 139.13593 117.20589 140.0266 C 117.20589 140.55071 117.4533 141.05037 117.94848 141.52625 C 118.72982 142.15969 119.64961 142.47658 120.70748 142.47658 L 120.81342 142.47658 C 120.92596 142.47658 120.9983 142.39459 121.03046 142.2306 C 121.03046 142.1052 120.94221 142.02659 120.76536 141.99444 L 120.73642 141.99444 C 120.19944 141.99444 119.67516 141.89798 119.16391 141.70505 C 118.17999 141.26132 117.68803 140.69506 117.68803 140.00696 C 117.68803 139.74009 117.79896 139.44444 118.02082 139.11968 C 118.70249 138.39943 119.60781 138.03913 120.73642 138.03913 L 120.75089 138.03913 C 121.03706 138.03913 121.27678 138.13559 121.46971 138.32851 C 121.59511 138.41855 121.65781 138.72579 121.65781 139.2499 L 121.65781 142.27401 C 121.65781 142.37047 121.72533 142.438 121.86038 142.47658 L 121.96632 142.47658 C 122.08207 142.42513 122.13995 142.32724 122.13995 142.18254 L 122.13995 133.40892 C 122.13995 133.21599 122.07243 133.11953 121.93738 133.11953 L 121.84591 133.11953 z M 154.60929 133.16294 C 154.47102 133.16294 154.38903 133.24975 154.36331 133.42339 L 154.36331 142.2306 C 154.38581 142.39459 154.46299 142.47658 154.59482 142.47658 L 154.63823 142.47658 C 154.74755 142.47658 154.81507 142.39941 154.8408 142.24507 L 154.8408 133.37998 C 154.8408 133.2803 154.76363 133.20795 154.60929 133.16294 z M 109.9903 135.56486 C 109.93564 135.56486 109.87294 135.60057 109.8022 135.67131 C 109.49352 136.5652 109.13661 137.41551 108.73147 138.22258 C 107.96941 139.63415 107.36365 140.33976 106.91349 140.33976 L 106.76363 140.33976 C 106.07874 140.33976 105.21397 139.50248 104.16895 137.82725 C 103.9696 137.38031 103.80079 137.15649 103.66253 137.15649 C 103.48246 137.18222 103.39226 137.25939 103.39226 137.388 L 103.39226 142.24507 C 103.43084 142.39941 103.50801 142.47658 103.62377 142.47658 L 103.68681 142.47658 C 103.81543 142.47658 103.8926 142.38638 103.91832 142.20631 L 103.91832 138.43497 L 103.93744 138.43497 C 104.97281 140.0684 105.92923 140.88495 106.80704 140.88495 C 107.75558 140.88495 108.73325 139.69024 109.73967 137.30119 L 109.75879 137.30119 L 109.75879 140.61468 C 109.7813 140.79474 109.86525 140.88495 110.00994 140.88495 C 110.19322 140.85922 110.28486 140.78205 110.28486 140.65344 L 110.28486 135.79637 C 110.24628 135.64203 110.16911 135.56486 110.05335 135.56486 L 109.9903 135.56486 z M 134.68027 135.56486 C 134.53236 135.56486 134.44842 135.66327 134.42912 135.85941 L 134.42912 142.18254 C 134.45485 142.37868 134.53202 142.47658 134.66063 142.47658 C 135.38089 142.32224 136.22494 142.07144 137.19278 141.72417 C 138.59149 141.20327 139.54165 140.72722 140.04325 140.29635 C 140.9082 139.72401 141.34085 138.88673 141.34085 137.78384 C 141.34085 137.4205 141.20723 137.05681 140.94035 136.69347 C 140.21688 135.94106 139.39408 135.56486 138.47125 135.56486 L 134.68027 135.56486 z M 134.97431 136.09092 L 138.22011 136.09092 C 138.89856 136.09092 139.46482 136.23705 139.91819 136.52966 C 140.5034 136.91551 140.79566 137.31244 140.79566 137.7208 L 140.79566 138.07788 C 140.79566 138.95569 140.12524 139.75151 138.78441 140.46533 C 137.72976 140.98302 136.45983 141.45086 134.97431 141.86887 L 134.97431 136.09092 z M 113.83451 137.54252 C 113.14642 137.54252 112.55656 137.84976 112.0646 138.46391 C 111.60479 139.11342 111.37472 139.76742 111.37472 140.42658 C 111.37472 140.74169 111.45815 141.05376 111.62535 141.36244 C 111.9501 142.1052 112.65285 142.47658 113.73323 142.47658 L 113.95027 142.47658 C 114.66731 142.47658 115.21858 142.31598 115.60443 141.99444 C 116.07388 141.48962 116.30878 140.97641 116.30878 140.45552 C 116.30878 140.08574 116.235 139.70471 116.08709 139.31243 C 115.58227 138.13238 114.83612 137.54252 113.84898 137.54252 L 113.83451 137.54252 z M 126.65905 137.54252 C 125.91308 137.54252 125.21372 137.70312 124.56099 138.02466 C 123.60601 138.56163 123.12852 139.21132 123.12852 139.97337 L 123.12852 140.04572 C 123.12852 140.44765 123.28481 140.84797 123.59671 141.24668 C 124.37162 142.06661 125.397 142.47658 126.67352 142.47658 L 127.82643 142.47658 C 127.98398 142.44764 128.06259 142.37386 128.06259 142.25489 L 128.06259 142.24042 C 128.06259 142.09894 127.97916 142.01695 127.81196 141.99444 L 126.67352 141.99444 C 126.17835 141.99444 125.68495 141.91049 125.19299 141.74329 C 124.13834 141.29957 123.61118 140.729 123.61118 140.03125 L 123.61118 139.98784 C 123.61118 139.65666 123.74766 139.33494 124.02097 139.02305 C 124.69621 138.35745 125.57546 138.02466 126.65905 138.02466 L 126.71693 138.02466 C 126.82304 138.02466 126.95522 138.0536 127.11277 138.11147 C 127.42467 138.25617 127.58045 138.51036 127.58045 138.8737 C 127.58045 139.04412 127.51631 139.18542 127.38769 139.29796 C 126.94718 139.60986 126.35198 139.76615 125.60279 139.76615 C 125.47739 139.76615 125.34573 139.74204 125.20746 139.69381 C 124.88592 139.58127 124.72532 139.37192 124.72532 139.06645 C 124.70925 138.87031 124.63012 138.77241 124.48864 138.77241 C 124.32466 138.811 124.24266 138.88478 124.24266 138.99411 L 124.24266 139.03751 C 124.24266 139.19829 124.27643 139.37387 124.34395 139.56358 C 124.62691 140.02339 125.03688 140.25294 125.57385 140.25294 C 125.65745 140.25294 125.77998 140.24812 125.94075 140.23848 C 127.35554 140.097 128.06259 139.64701 128.06259 138.88817 L 128.06259 138.8737 C 128.06259 138.67756 128.024 138.4832 127.94683 138.29027 C 127.67674 137.79188 127.26195 137.54252 126.70246 137.54252 L 126.65905 137.54252 z M 151.89886 137.54252 C 151.15288 137.54252 150.45352 137.70312 149.80079 138.02466 C 148.84582 138.56163 148.36832 139.21132 148.36832 139.97337 L 148.36832 140.04572 C 148.36832 140.44765 148.5241 140.84797 148.836 141.24668 C 149.61091 142.06661 150.63681 142.47658 151.91333 142.47658 L 153.06571 142.47658 C 153.22327 142.44764 153.30239 142.37386 153.30239 142.25489 L 153.30239 142.24042 C 153.30239 142.09894 153.21844 142.01695 153.05124 141.99444 L 151.91333 141.99444 C 151.41815 141.99444 150.92424 141.91049 150.43228 141.74329 C 149.37762 141.29957 148.85047 140.729 148.85047 140.03125 L 148.85047 139.98784 C 148.85047 139.65666 148.98695 139.33494 149.26026 139.02305 C 149.9355 138.35745 150.81526 138.02466 151.89886 138.02466 L 151.95674 138.02466 C 152.06284 138.02466 152.1945 138.0536 152.35206 138.11147 C 152.66396 138.25617 152.81973 138.51036 152.81973 138.8737 C 152.81973 139.04412 152.7556 139.18542 152.62698 139.29796 C 152.18647 139.60986 151.59178 139.76615 150.84259 139.76615 C 150.71719 139.76615 150.58501 139.74204 150.44675 139.69381 C 150.12521 139.58127 149.96461 139.37192 149.96461 139.06645 C 149.94853 138.87031 149.86993 138.77241 149.72845 138.77241 C 149.56446 138.811 149.48247 138.88478 149.48247 138.99411 L 149.48247 139.03751 C 149.48247 139.19829 149.51623 139.37387 149.58375 139.56358 C 149.86671 140.02339 150.27668 140.25294 150.81365 140.25294 C 150.89725 140.25294 151.01927 140.24812 151.18004 140.23848 C 152.59482 140.097 153.30239 139.64701 153.30239 138.88817 L 153.30239 138.8737 C 153.30239 138.67756 153.2638 138.4832 153.18663 138.29027 C 152.91654 137.79188 152.50175 137.54252 151.94227 137.54252 L 151.89886 137.54252 z M 142.66221 137.55699 C 142.55289 137.55699 142.48054 137.63416 142.44517 137.7885 C 142.44517 138.66309 142.58217 139.56358 142.85548 140.48962 C 143.29599 141.81437 143.96159 142.47658 144.85226 142.47658 L 145.03054 142.47658 C 145.80867 142.47658 146.42604 142.31116 146.88263 141.97997 L 146.88263 142.1536 C 146.88263 142.36904 146.95497 142.47658 147.09967 142.47658 L 147.1622 142.47658 C 147.25866 142.47658 147.32618 142.40906 147.36477 142.27401 L 147.36477 141.25133 C 147.36477 141.19346 147.36959 141.15969 147.37924 141.15005 C 147.36959 141.09539 147.36477 141.05054 147.36477 141.01517 L 147.36477 137.75956 C 147.36477 137.65023 147.2876 137.58271 147.13326 137.55699 L 147.09967 137.55699 C 146.97105 137.55699 146.8987 137.65971 146.88263 137.86549 L 146.88263 141.13558 L 146.86816 141.23686 C 146.627 141.74168 146.00481 141.99444 145.0016 141.99444 L 144.86673 141.99444 C 144.33619 141.99444 143.89389 141.64379 143.54019 140.94282 C 143.13184 139.96855 142.92783 138.90264 142.92783 137.74509 C 142.92783 137.65184 142.84871 137.58914 142.69115 137.55699 L 142.66221 137.55699 z M 113.83451 138.02466 C 114.34577 138.02466 114.78467 138.23544 115.15123 138.65666 C 115.60139 139.23543 115.82664 139.82529 115.82664 140.42658 L 115.82664 140.44105 C 115.82664 140.66613 115.76199 140.8962 115.63337 141.13093 C 115.41794 141.70649 114.84737 141.99444 113.92133 141.99444 L 113.76217 141.99444 C 113.13838 141.99444 112.68357 141.87191 112.39739 141.62754 C 112.03727 141.23526 111.85686 140.83976 111.85686 140.44105 L 111.85686 140.42658 C 111.85686 140.15648 111.91186 139.87387 112.02119 139.57805 C 112.41668 138.54269 113.02101 138.02466 113.83451 138.02466 z " />
  </g>
</svg>
