<?xml version="1.0" encoding="UTF-8" standalone="no"?>
<!-- Created with Inkscape (http://www.inkscape.org/) -->

<svg
   width="223.33171"
   height="66.166924"
   viewBox="0 0 59.089844 17.506665"
   version="1.1"
   id="svg1"
   inkscape:version="1.3.2 (091e20ef0f, 2023-11-25, custom)"
   sodipodi:docname="navigation.svg"
   xmlns:inkscape="http://www.inkscape.org/namespaces/inkscape"
   xmlns:sodipodi="http://sodipodi.sourceforge.net/DTD/sodipodi-0.dtd"
   xmlns="http://www.w3.org/2000/svg"
   xmlns:svg="http://www.w3.org/2000/svg">
  <sodipodi:namedview
     id="namedview1"
     pagecolor="#ffffff"
     bordercolor="#666666"
     borderopacity="1.0"
     inkscape:showpageshadow="2"
     inkscape:pageopacity="0.0"
     inkscape:pagecheckerboard="0"
     inkscape:deskcolor="#d1d1d1"
     inkscape:document-units="mm"
     inkscape:zoom="1.1392323"
     inkscape:cx="81.633925"
     inkscape:cy="155.80668"
     inkscape:window-width="956"
     inkscape:window-height="1029"
     inkscape:window-x="960"
     inkscape:window-y="0"
     inkscape:window-maximized="1"
     inkscape:current-layer="layer1"
     showgrid="false" />
  <defs
     id="defs1">
    <style
       transform="translate(-130.185, 41.1648)"
       id="style111"><![CDATA[
polygon {
shape-rendering:crispEdges;
stroke-width:0.098900;
}
.s0 {
stroke:#000000;
stroke-width:0.080355;
stroke-linecap:round;
stroke-linejoin:round;
fill:none;
}
.s1 {
stroke:#000000;
stroke-width:0.080355;
stroke-linecap:round;
stroke-linejoin:round;
fill:none;
}
.s2 {
stroke:#19b219;
stroke-width:0.080355;
stroke-linecap:round;
stroke-linejoin:round;
fill:none;
}
.s3 {
stroke:#7f4c00;
stroke-width:0.080355;
stroke-linecap:round;
stroke-linejoin:round;
fill:none;
}
.s4 {
stroke:#00cc00;
stroke-width:0.080355;
stroke-linecap:round;
stroke-linejoin:round;
fill:none;
}
.s5 {
stroke:#000000;
stroke-width:0.053570;
stroke-linecap:round;
stroke-linejoin:round;
fill:none;
}
.s6 {
stroke:#ff19ff;
stroke-width:0.053570;
stroke-linecap:round;
stroke-linejoin:round;
fill:none;
}
.s7 {
stroke:#ff0000;
stroke-width:0.080355;
stroke-linecap:round;
stroke-linejoin:round;
fill:none;
}
.s8 {
stroke:#ffff00;
stroke-width:0.080355;
stroke-linecap:round;
stroke-linejoin:round;
fill:none;
}
.s9 {
stroke:#001919;
stroke-width:0.053570;
stroke-linecap:round;
stroke-linejoin:round;
fill:none;
}
.sa {
stroke:#006666;
stroke-width:0.053570;
stroke-linecap:round;
stroke-linejoin:round;
fill:none;
}
.sb {
stroke:#00ffff;
stroke-width:0.160711;
stroke-linecap:round;
stroke-linejoin:round;
fill:none;
}
.sc {
stroke:#ff0000;
stroke-width:0.428562;
stroke-linecap:round;
stroke-linejoin:round;
fill:none;
}
.sd {
stroke:#191919;
stroke-width:0.053570;
stroke-linecap:round;
stroke-linejoin:round;
fill:none;
}
.se {
stroke:#000000;
stroke-width:0.053570;
stroke-linecap:round;
stroke-linejoin:round;
stroke-dasharray:0.804,0.804;
fill:none;
}
.sf {
stroke:#000000;
stroke-width:0.160711;
stroke-linecap:round;
stroke-linejoin:round;
fill:none;
}
.s100 {
stroke:#ff0000;
stroke-width:0.500000;
stroke-linecap:round;
stroke-linejoin:round;
fill:none;
}
]]></style>
  </defs>
  <g
     inkscape:label="Layer 1"
     inkscape:groupmode="layer"
     id="layer1"
     transform="translate(-24.394838,-129.13435)">
    <path
       id="path1"
       style="fill:#fff6e5;fill-opacity:1;stroke:none;stroke-width:0.2;stroke-linecap:round;stroke-linejoin:round"
       d="m 82.098167,132.95065 c -3.05818,-4.08137 -9.82328,-2.99469 -14.90092,-3.47182 -6.09637,-0.57284 -12.2381,0.4598 -18.35383,0.76266 -7.06671,0.34995 -15.83261,-3.40193 -21.19112,1.21838 -2.83347,2.44313 -4.38548,7.89191 -2.28609,10.98869 4.00279,5.90446 13.97308,3.05375 21.07634,3.70838 6.02613,0.55536 12.12187,0.65873 18.15416,0.17485 5.7026,-0.45742 13.10778,1.37024 16.91618,-2.89884 2.32964,-2.61143 2.68376,-7.68172 0.58528,-10.4823 z"
       sodipodi:nodetypes="aaaaaaaaa" />
    <path
       id="path8"
       style="fill:#ffe6b3;fill-opacity:1;stroke:none;stroke-width:0.2;stroke-linecap:round;stroke-linejoin:round"
       d="m 80.797607,139.18177 c 0.55281,-2.98002 -1.18737,-6.76154 -3.8293,-8.24693 -1.42649,-0.80201 -3.24458,0.4624 -4.87887,0.54733 -7.76097,0.40332 -15.6146,-1.24226 -23.31359,-0.18359 -1.78175,0.245 -3.41181,1.18861 -5.18365,1.49718 -3.16463,0.55112 -6.405,0.62082 -9.61725,0.61312 -1.69972,-0.004 -3.61425,-1.19698 -5.08724,-0.34881 -1.91279,1.10142 -3.28901,3.76396 -2.9245,5.94089 0.26983,1.61149 1.97288,2.82015 3.47939,3.4527 3.00756,1.2628 6.5302,-0.0854 9.78485,0.13209 3.09626,0.20692 6.1502,0.85577 9.24259,1.11411 7.65799,0.63976 15.36003,1.57049 23.02883,1.07701 1.45525,-0.0936 3.00911,-0.0994 4.30775,-0.76277 2.06222,-1.05338 4.56862,-2.55549 4.99099,-4.83233 z"
       sodipodi:nodetypes="aaaaaaaaaaaaaa" />
    <path
       id="path141"
       style="fill:#ffdd99;fill-opacity:1;stroke-width:1;stroke-linecap:round;stroke-linejoin:round"
       d="m 48.993487,132.63901 c -1.45379,0.0516 -2.84569,0.61718 -4.24196,1.02532 -0.77829,0.2275 -1.48923,0.78294 -2.30003,0.79196 -1.15097,0.0128 -2.17653,-1.34604 -3.28919,-1.0513 -0.85381,0.22617 -1.52083,1.11036 -1.79363,1.95043 -0.61628,1.89785 -0.87163,4.70453 0.69032,5.94628 0.63867,0.50774 1.61652,-0.27471 2.43242,-0.27321 0.66732,0.001 1.32589,0.15267 1.98862,0.23077 1.3744,0.16196 2.74136,0.40302 4.12233,0.49318 1.81797,0.1187 3.64417,0.007 5.46518,0.0619 4.27904,0.12964 8.57212,0.16394 12.82744,0.63225 1.9126,0.21049 3.77841,1.20222 5.68927,0.97644 2.73223,-0.32282 6.32862,-0.80614 7.58539,-3.25356 0.94147,-1.83342 0.35025,-4.84491 -1.33012,-6.0383 -1.28892,-0.91538 -3.12876,0.52487 -4.70921,0.56263 -3.80593,0.0909 -7.5855,-0.76087 -11.39218,-0.8117 -1.14243,-0.0153 -2.28378,0.22173 -3.42419,0.15224 -2.80701,-0.17105 -5.51002,-1.49515 -8.32046,-1.39533 z m -14.90137,1.07574 c -2.27196,-1.07133 -5.72158,0.33317 -7.14148,2.40523 -0.81295,1.18634 -0.65958,3.15093 0.1915,4.31022 1.38655,1.88866 4.4617,3.34536 6.60604,2.40125 1.58656,-0.69853 1.96577,-3.07141 1.99003,-4.80477 0.0215,-1.53833 -0.25456,-3.65576 -1.64609,-4.31193 z"
       sodipodi:nodetypes="aaaaaaaaaaaaaaaaaaaaaaaa" />
    <path
       id="text2"
       style="font-size:7.76111px;line-height:1.25;font-family:Tibet;-inkscape-font-specification:Tibet;text-align:justify;letter-spacing:0px;word-spacing:0px;stroke-width:0.264583"
       d="m 65.064707,132.8566 c -0.123794,0 -0.185518,0.0769 -0.185518,0.231 v 2.25877 c -0.482543,0.0935 -0.943785,0.14005 -1.383379,0.14005 h -0.170532 c -0.106109,0 -0.171623,0.0644 -0.196887,0.19327 0,0.0985 0.06551,0.16077 0.196887,0.18603 h 0.170532 c 0.474964,0 0.936206,-0.0455 1.383379,-0.13642 v 4.27467 c 0,0.15411 0.06172,0.23099 0.185518,0.23099 h 0.03411 c 0.07832,0 0.132464,-0.0541 0.162781,-0.16278 v -4.4266 c 0.384013,-0.10611 0.679603,-0.21331 0.886768,-0.32194 0.576019,-0.31328 0.86403,-0.54444 0.86403,-0.6935 v -0.0341 c 0,-0.0859 -0.06063,-0.13895 -0.181901,-0.15916 h -0.02635 c -0.09095,0.0253 -0.136426,0.0518 -0.136426,0.0796 -0.373907,0.33854 -0.842729,0.58486 -1.406116,0.73897 v -2.23604 c 0,-0.0783 -0.05415,-0.13246 -0.162781,-0.16278 z m -33.443437,1.48157 c -0.111161,0.0278 -0.166398,0.0835 -0.166398,0.16691 v 0.076 c 0.75792,1.13688 1.136882,2.24832 1.136882,3.33468 0,0.9095 -0.247933,1.82389 -0.743107,2.7435 -0.262746,0.41938 -0.393775,0.64188 -0.393775,0.66714 v 0.0455 c 0.02779,0.11116 0.08303,0.16691 0.166398,0.16691 h 0.04548 c 0.02779,0 0.05811,-0.0103 0.09095,-0.0305 0.808448,-1.1773 1.212846,-2.3445 1.212846,-3.50159 v -0.13643 c 0,-0.70739 -0.166743,-1.46043 -0.500228,-2.25878 -0.416856,-0.84887 -0.684828,-1.2733 -0.803568,-1.2733 z m -1.841748,0.43615 c -0.171795,0 -0.309312,0.0276 -0.412894,0.0832 -0.66697,0.28549 -1.015615,1.16468 -1.045931,2.63757 0,0.10611 0.072,0.17811 0.216007,0.21601 0.121267,0 0.19327,-0.0823 0.216008,-0.2465 v -0.0832 c 0,-0.144 0.0049,-0.29938 0.01499,-0.46612 0.144005,-1.15204 0.48128,-1.72806 1.011824,-1.72806 0.720024,0 1.080038,0.48237 1.080038,1.44746 -0.06063,0.41685 -0.569533,1.1688 -1.527039,2.25516 -0.376434,0.39412 -0.564823,0.59875 -0.564823,0.61391 -0.298116,0.26527 -0.447001,0.4369 -0.447001,0.51522 0.02274,0.144 0.08986,0.216 0.201021,0.216 h 2.553849 c 0.144005,-0.0177 0.216008,-0.0848 0.216008,-0.20102 -0.02021,-0.14148 -0.08085,-0.21187 -0.181901,-0.21187 h -2.057756 v -0.0191 c 1.493103,-1.56637 2.239657,-2.63395 2.239657,-3.20239 -0.02274,-0.31075 -0.05036,-0.55437 -0.0832,-0.73122 -0.242535,-0.73013 -0.6908,-1.09502 -1.345138,-1.09502 z m 13.430705,0.03 c -0.101056,0 -0.16169,0.0709 -0.181901,0.21239 v 3.53932 c -0.636653,0 -1.458999,-0.26907 -2.467033,-0.80719 -0.495174,-0.27285 -1.087962,-0.68971 -1.777669,-1.25057 -0.293063,-0.29559 -0.474964,-0.44338 -0.545703,-0.44338 h -0.01499 c -0.131373,0.0303 -0.196888,0.091 -0.196888,0.1819 v 3.8163 c 0.03032,0.12127 0.09095,0.1819 0.181901,0.1819 h 0.04909 c 0.121267,-0.0303 0.181901,-0.0909 0.181901,-0.1819 v -3.30832 c 1.748269,1.4931 3.338816,2.23965 4.771285,2.23965 0.15411,-0.0126 0.230994,-0.0733 0.230994,-0.1819 v -3.8163 c 0,-0.096 -0.06063,-0.15664 -0.181901,-0.1819 z m 10.447941,0.7276 c -0.106109,0 -0.170532,0.0644 -0.19327,0.19327 v 0.0382 c 0,0.10611 0.06442,0.17053 0.19327,0.19327 h 0.03772 c 0.106109,0 0.170532,-0.0644 0.19327,-0.19327 v -0.0382 c 0,-0.10611 -0.06442,-0.17053 -0.19327,-0.19327 z m 13.263273,0 c -0.106109,0 -0.170532,0.0644 -0.19327,0.19327 v 0.0382 c 0,0.10611 0.06442,0.17053 0.19327,0.19327 h 0.03824 c 0.106109,0 0.170532,-0.0644 0.19327,-0.19327 v -0.0382 c 0,-0.10611 -0.06442,-0.17053 -0.19327,-0.19327 z m -19.864937,0.82631 c -0.576019,0 -1.129303,0.12615 -1.659847,0.37879 -0.742762,0.42948 -1.114144,0.9362 -1.114144,1.5198 v 0.0796 c 0,0.36128 0.160255,0.71371 0.481108,1.0573 0.611388,0.56086 1.379589,0.84129 2.304252,0.84129 h 0.03411 c 0.121267,-0.0227 0.181901,-0.0807 0.181901,-0.17415 -0.01516,-0.13642 -0.07958,-0.20463 -0.19327,-0.20463 h -0.02274 c -0.44212,0 -0.867648,-0.0812 -1.276925,-0.24288 -0.752867,-0.34865 -1.129647,-0.77796 -1.129647,-1.2883 v -0.0568 c 0,-0.21727 0.08877,-0.44735 0.265617,-0.68988 0.538123,-0.56086 1.247872,-0.84129 2.129586,-0.84129 h 0.04548 c 0.09348,0 0.204467,0.0265 0.333313,0.0796 0.229903,0.10611 0.345199,0.31345 0.345199,0.62167 v 2.61121 c 0,0.1061 0.06063,0.16783 0.181901,0.18551 h 0.01137 c 0.106108,0 0.167833,-0.0655 0.185518,-0.19688 v -3.48299 c -0.01769,-0.13138 -0.07941,-0.19689 -0.185518,-0.19689 h -0.01137 c -0.121268,0 -0.181901,0.0769 -0.181901,0.23099 -0.209692,-0.15411 -0.439767,-0.23099 -0.689881,-0.23099 z m 5.744869,0 c -0.01263,0 -0.04674,0.0114 -0.10232,0.0341 -0.28043,0.52044 -0.532726,0.98008 -0.757576,1.37925 -0.843818,1.38952 -1.423629,2.08463 -1.739429,2.08463 h -0.01137 c -0.0379,0 -0.08337,-0.008 -0.136425,-0.0227 -0.361276,-0.21222 -0.542086,-0.77199 -0.542086,-1.67897 v -1.55391 c 0,-0.10863 -0.06063,-0.17036 -0.181901,-0.18552 h -0.02274 c -0.096,0 -0.153938,0.0655 -0.174149,0.19689 v 1.55391 c 0,0.22232 0.01516,0.45998 0.04547,0.71262 0.16169,0.90445 0.491386,1.3565 0.989087,1.3565 h 0.03411 c 0.482543,0 1.173343,-0.75901 2.072742,-2.27738 0.490122,-0.86655 0.735356,-1.33428 0.735356,-1.40249 v -0.0377 c 0,-0.0758 -0.05306,-0.12884 -0.159164,-0.15916 z m 4.475696,0 c -0.646759,0 -1.241728,0.15267 -1.784904,0.45837 -0.649285,0.41938 -0.974101,0.88441 -0.974101,1.39475 v 0.15141 c 0,0.36633 0.187299,0.73174 0.561206,1.09554 0.611389,0.50528 1.336296,0.75757 2.175061,0.75757 h 0.07958 c 0.08842,0 0.146359,-0.0617 0.174149,-0.18551 0,-0.0606 -0.03899,-0.12127 -0.117305,-0.18191 -0.601284,0 -1.138318,-0.12235 -1.610755,-0.36741 -0.588651,-0.33349 -0.882633,-0.71894 -0.882633,-1.15601 v -0.0796 c 0,-0.24506 0.1072,-0.48869 0.321944,-0.73122 0.522965,-0.51791 1.208885,-0.77721 2.057756,-0.77721 0.199585,0 0.36363,0.0531 0.492476,0.15916 0.15411,0.0682 0.23151,0.30099 0.23151,0.69763 v 2.18643 c 0,0.47749 -0.03192,0.90842 -0.09508,1.29243 -0.229903,1.50321 -0.720945,2.25464 -1.473812,2.25464 -0.472437,0 -0.850307,-0.15267 -1.133264,-0.45837 -0.179375,-0.17432 -0.309312,-0.47531 -0.390157,-0.90227 0,-0.26022 -0.06821,-0.39016 -0.204639,-0.39016 -0.123794,0.0278 -0.186035,0.0808 -0.186035,0.15917 v 0.0946 c 0,0.16421 0.0395,0.36667 0.117822,0.60668 0.303168,0.84634 0.905717,1.26917 1.807642,1.26917 0.401697,0 0.760103,-0.17162 1.075903,-0.51521 0.570967,-0.73519 0.856795,-1.87965 0.856795,-3.43339 v -3.18326 c 0,-0.1238 -0.05684,-0.1958 -0.170532,-0.21601 h -0.02274 c -0.121267,0 -0.181901,0.0758 -0.181901,0.22737 -0.222323,-0.15158 -0.448609,-0.22737 -0.678511,-0.22737 z m 4.649845,0 c -0.576019,0 -1.129303,0.12615 -1.659847,0.37879 -0.742762,0.42948 -1.114144,0.9362 -1.114144,1.5198 v 0.0796 c 0,0.36128 0.160255,0.71371 0.481108,1.0573 0.611389,0.56086 1.379589,0.84129 2.304252,0.84129 h 0.03411 c 0.121267,-0.0227 0.181901,-0.0807 0.181901,-0.17415 -0.01516,-0.13642 -0.07958,-0.20463 -0.19327,-0.20463 h -0.02274 c -0.44212,0 -0.867648,-0.0812 -1.276925,-0.24288 -0.752867,-0.34865 -1.129647,-0.77796 -1.129647,-1.2883 v -0.0568 c 0,-0.21727 0.08877,-0.44735 0.265617,-0.68988 0.538124,-0.56086 1.247872,-0.84129 2.129586,-0.84129 h 0.04548 c 0.09348,0 0.204467,0.0265 0.333313,0.0796 0.229903,0.10611 0.345199,0.31345 0.345199,0.62167 v 2.61121 c 0,0.1061 0.06063,0.16783 0.181901,0.18551 h 0.01137 c 0.106108,0 0.167833,-0.0655 0.185518,-0.19688 v -3.48299 c -0.01769,-0.13138 -0.07941,-0.19689 -0.185518,-0.19689 h -0.01137 c -0.121267,0 -0.181901,0.0769 -0.181901,0.23099 -0.209691,-0.15411 -0.439767,-0.23099 -0.689881,-0.23099 z m 7.821745,0 c -0.54065,0 -1.004074,0.24144 -1.390613,0.72399 -0.361275,0.51033 -0.542086,1.02411 -0.542086,1.54202 0,0.24759 0.06551,0.49282 0.196887,0.73536 0.255167,0.58359 0.80736,0.87539 1.65623,0.87539 h 0.170532 c 0.563388,0 0.996495,-0.12614 1.299663,-0.37878 0.368854,-0.39665 0.553454,-0.79996 0.553454,-1.20923 0,-0.29054 -0.05793,-0.58992 -0.174149,-0.89814 -0.396645,-0.92719 -0.982944,-1.39061 -1.758549,-1.39061 z m 2.899048,0 c -0.09348,0 -0.146532,0.0882 -0.159164,0.2651 v 3.34656 c 0.0076,0.17685 0.06551,0.2651 0.17415,0.2651 h 0.04547 c 0.106109,-0.0278 0.159163,-0.0857 0.159163,-0.17415 v -1.34565 c 0,-0.36633 0.01137,-0.64515 0.03411,-0.83716 0.111162,-0.76044 0.326079,-1.14101 0.644405,-1.14101 h 0.01137 c 0.159163,0 0.416857,0.21112 0.773079,0.63303 0.502754,0.66697 1.007864,1.47686 1.51567,2.42931 0.118741,0.29054 0.222668,0.43563 0.311092,0.43563 h 0.04909 c 0.0859,0 0.142742,-0.0617 0.170532,-0.18551 0,-0.0303 -0.02274,-0.0872 -0.06821,-0.17054 -1.230357,-2.34702 -2.139864,-3.52071 -2.728516,-3.52071 h -0.02274 c -0.265272,0 -0.495348,0.12615 -0.689881,0.37879 v -0.21963 c 0,-0.0859 -0.06063,-0.13895 -0.181901,-0.15916 z m -19.000908,0.0114 c -0.07579,0 -0.128846,0.053 -0.159163,0.15916 v 3.54707 c 0,0.0758 0.05305,0.12885 0.159163,0.15916 h 0.04909 c 0.101056,0 0.1579,-0.0807 0.170532,-0.24236 V 136.597 c 0,-0.1339 -0.05684,-0.20969 -0.170532,-0.22737 z m 13.263273,0 c -0.07579,0 -0.128846,0.053 -0.159163,0.15916 v 3.54707 c 0,0.0758 0.05306,0.12885 0.159163,0.15916 h 0.04961 c 0.101056,0 0.1579,-0.0807 0.170532,-0.24236 V 136.597 c 0,-0.1339 -0.05684,-0.20969 -0.170532,-0.22737 z m 2.838587,0.36742 c 0.401697,0 0.746552,0.16565 1.034562,0.49661 0.353696,0.45475 0.530717,0.91817 0.530717,1.39061 v 0.0114 c 0,0.17685 -0.05087,0.35766 -0.151929,0.54208 -0.169269,0.45223 -0.617534,0.67852 -1.345137,0.67852 h -0.125057 c -0.490122,0 -0.847437,-0.0964 -1.072286,-0.28836 -0.282957,-0.30822 -0.424781,-0.61897 -0.424781,-0.93224 v -0.0114 c 0,-0.21222 0.04329,-0.4342 0.129192,-0.66663 0.310747,-0.8135 0.785539,-1.22059 1.424719,-1.22059 z" />
  </g>
</svg>
