<?xml version="1.0" encoding="UTF-8" standalone="no"?>
<!-- Created with Inkscape (http://www.inkscape.org/) -->

<svg
   width="335.00327"
   height="65.260887"
   viewBox="0 0 88.636277 17.266943"
   version="1.1"
   id="svg1"
   inkscape:version="1.3.2 (091e20ef0f, 2023-11-25, custom)"
   sodipodi:docname="navigation-nuages.svg"
   xmlns:inkscape="http://www.inkscape.org/namespaces/inkscape"
   xmlns:sodipodi="http://sodipodi.sourceforge.net/DTD/sodipodi-0.dtd"
   xmlns="http://www.w3.org/2000/svg"
   xmlns:svg="http://www.w3.org/2000/svg">
  <sodipodi:namedview
     id="namedview1"
     pagecolor="#ffffff"
     bordercolor="#666666"
     borderopacity="1.0"
     inkscape:showpageshadow="2"
     inkscape:pageopacity="0.0"
     inkscape:pagecheckerboard="0"
     inkscape:deskcolor="#d1d1d1"
     inkscape:document-units="mm"
     inkscape:zoom="0.80555885"
     inkscape:cx="160.13728"
     inkscape:cy="-3.1034356"
     inkscape:window-width="956"
     inkscape:window-height="1029"
     inkscape:window-x="960"
     inkscape:window-y="0"
     inkscape:window-maximized="1"
     inkscape:current-layer="layer1"
     showgrid="false" />
  <defs
     id="defs1">
    <style
       transform="translate(-130.185, 41.1648)"
       id="style111"><![CDATA[
polygon {
shape-rendering:crispEdges;
stroke-width:0.098900;
}
.s0 {
stroke:#000000;
stroke-width:0.080355;
stroke-linecap:round;
stroke-linejoin:round;
fill:none;
}
.s1 {
stroke:#000000;
stroke-width:0.080355;
stroke-linecap:round;
stroke-linejoin:round;
fill:none;
}
.s2 {
stroke:#19b219;
stroke-width:0.080355;
stroke-linecap:round;
stroke-linejoin:round;
fill:none;
}
.s3 {
stroke:#7f4c00;
stroke-width:0.080355;
stroke-linecap:round;
stroke-linejoin:round;
fill:none;
}
.s4 {
stroke:#00cc00;
stroke-width:0.080355;
stroke-linecap:round;
stroke-linejoin:round;
fill:none;
}
.s5 {
stroke:#000000;
stroke-width:0.053570;
stroke-linecap:round;
stroke-linejoin:round;
fill:none;
}
.s6 {
stroke:#ff19ff;
stroke-width:0.053570;
stroke-linecap:round;
stroke-linejoin:round;
fill:none;
}
.s7 {
stroke:#ff0000;
stroke-width:0.080355;
stroke-linecap:round;
stroke-linejoin:round;
fill:none;
}
.s8 {
stroke:#ffff00;
stroke-width:0.080355;
stroke-linecap:round;
stroke-linejoin:round;
fill:none;
}
.s9 {
stroke:#001919;
stroke-width:0.053570;
stroke-linecap:round;
stroke-linejoin:round;
fill:none;
}
.sa {
stroke:#006666;
stroke-width:0.053570;
stroke-linecap:round;
stroke-linejoin:round;
fill:none;
}
.sb {
stroke:#00ffff;
stroke-width:0.160711;
stroke-linecap:round;
stroke-linejoin:round;
fill:none;
}
.sc {
stroke:#ff0000;
stroke-width:0.428562;
stroke-linecap:round;
stroke-linejoin:round;
fill:none;
}
.sd {
stroke:#191919;
stroke-width:0.053570;
stroke-linecap:round;
stroke-linejoin:round;
fill:none;
}
.se {
stroke:#000000;
stroke-width:0.053570;
stroke-linecap:round;
stroke-linejoin:round;
stroke-dasharray:0.804,0.804;
fill:none;
}
.sf {
stroke:#000000;
stroke-width:0.160711;
stroke-linecap:round;
stroke-linejoin:round;
fill:none;
}
.s100 {
stroke:#ff0000;
stroke-width:0.500000;
stroke-linecap:round;
stroke-linejoin:round;
fill:none;
}
]]></style>
  </defs>
  <g
     inkscape:label="Layer 1"
     inkscape:groupmode="layer"
     id="layer1"
     transform="translate(-31.099993,-129.20342)">
    <path
       id="path1"
       style="fill:#fff6e5;fill-opacity:1;stroke:none;stroke-width:0.2;stroke-linecap:round;stroke-linejoin:round"
       d="m 89.831417,132.96402 c -3.11755,-4.04621 -9.98962,-2.28697 -15.07798,-2.73366 -5.21544,-0.45784 -10.47625,-0.17097 -15.70637,0.0664 -4.48344,0.20351 -9.94141,-1.68031 -13.41384,1.16308 -2.95315,2.41818 -5.06482,7.64736 -3.21977,10.98869 2.21978,4.01994 8.69547,3.19481 13.25219,3.76368 4.30378,0.53729 8.68065,-0.0528 13.00633,-0.36843 6.80722,-0.49671 15.60361,2.52164 20.33512,-2.39749 2.42968,-2.52604 2.96347,-7.70592 0.82432,-10.4823 z"
       sodipodi:nodetypes="aaaaaaaaa" />
    <path
       id="path8"
       style="fill:#ffe6b3;fill-opacity:1;stroke:none;stroke-width:0.2;stroke-linecap:round;stroke-linejoin:round"
       d="m 88.787847,139.26877 c 0.36655,-2.36076 -1.16731,-5.25953 -3.28171,-6.37169 -2.46541,-1.2968 -5.50437,1.07413 -8.28998,1.05627 -3.00099,-0.0192 -5.92895,-0.95897 -8.91563,-1.25235 -2.52456,-0.24798 -5.06641,-0.5877 -7.5981,-0.42805 -2.08522,0.1315 -4.07959,0.99648 -6.16429,1.13593 -2.38581,0.15959 -5.02019,-1.40599 -7.16494,-0.34881 -2.16139,1.06538 -4.5394,3.56816 -4.11892,5.94089 0.34867,1.96755 2.9985,2.83992 4.90043,3.4527 4.37258,1.40879 9.22803,-0.47892 13.78114,0.13209 3.22934,0.43336 6.22853,2.02048 9.45331,2.48658 2.02175,0.29223 4.0851,0.28027 6.12555,0.18308 2.03598,-0.097 4.23716,0.13497 6.0671,-0.76277 2.20707,-1.08275 4.82885,-2.79462 5.20604,-5.22387 z"
       sodipodi:nodetypes="aaaaaaaaaaaaaa" />
    <path
       id="path141"
       style="fill:#ffdd99;fill-opacity:1;stroke-width:1;stroke-linecap:round;stroke-linejoin:round"
       d="m 76.414997,135.23805 c -1.53032,-0.10112 -3.07101,-0.0593 -4.59528,-0.22872 -1.64702,-0.18312 -3.24808,-0.69888 -4.8984,-0.84949 -2.0401,-0.18618 -4.11764,-0.35448 -6.14543,-0.0633 -1.42617,0.20478 -3.29232,0.0902 -4.13501,1.25889 -1.04582,1.45037 -1.13363,4.10586 0.13842,5.36253 1.06921,1.05628 3.01035,-0.0587 4.50852,0.0615 2.50239,0.20077 5.0269,0.44522 7.45064,1.09926 2.13122,0.5751 3.94153,2.40742 6.14835,2.4604 3.91324,0.094 8.51553,-0.89423 11.09936,-3.83465 0.98914,-1.12566 1.80731,-3.20277 0.90951,-4.40254 -2.10021,-2.8066 -6.9829,-0.63272 -10.48068,-0.86386 z m -24.44275,-1.78227 c -2.42825,-0.92612 -5.90349,0.49004 -7.32725,2.6642 -0.78864,1.2043 -0.6119,3.17221 0.26971,4.31022 1.4113,1.82177 4.41951,2.96234 6.57314,2.14228 1.73279,-0.65982 2.77057,-2.95088 2.80279,-4.80477 0.0284,-1.63165 -0.79363,-3.7304 -2.31839,-4.31193 z"
       sodipodi:nodetypes="aaaaaaaaaaaaaaaaaaa" />
    <path
       id="text2"
       style="font-size:7.76111px;line-height:1.25;font-family:Tibet;-inkscape-font-specification:Tibet;text-align:justify;letter-spacing:0px;word-spacing:0px;stroke-width:0.264583"
       d="m 51.219178,134.33851 c -0.111161,0.0278 -0.166914,0.0835 -0.166914,0.16691 v 0.0755 c 0.75792,1.13688 1.136881,2.24884 1.136881,3.3352 0,0.9095 -0.247416,1.82389 -0.74259,2.7435 -0.262746,0.41938 -0.394291,0.64136 -0.394291,0.66662 v 0.0455 c 0.02779,0.11116 0.08354,0.16691 0.166914,0.16691 h 0.04548 c 0.02779,0 0.05811,-0.0103 0.09095,-0.0305 0.808448,-1.17731 1.212329,-2.34399 1.212329,-3.50108 v -0.13643 c 0,-0.70739 -0.166743,-1.46043 -0.500228,-2.25878 -0.416856,-0.84887 -0.684311,-1.2733 -0.803051,-1.2733 z m -5.544364,0.46612 c -0.121267,0.0303 -0.181901,0.0909 -0.181901,0.1819 v 2.71353 c 0.03032,0.12127 0.09095,0.1819 0.181901,0.1819 h 0.04909 c 0.121267,-0.0303 0.181901,-0.0909 0.181901,-0.1819 v -2.48254 h 1.777669 c 0.179374,0 0.33205,0.0103 0.45837,0.0305 0.646758,0.14653 0.969966,0.34468 0.969966,0.5948 -0.0101,0.2299 -0.0426,0.3452 -0.09819,0.3452 h -0.06459 c -0.394119,0 -0.77308,0.0211 -1.136882,0.0641 -0.394118,0 -0.591178,0.0774 -0.591178,0.23151 v 0.0341 c 0,0.0935 0.06063,0.15899 0.181901,0.19689 0.69476,-0.0783 1.259412,-0.11731 1.693953,-0.11731 h 0.03411 c 0.909504,0.21475 1.364258,0.51631 1.364258,0.90538 v 0.0155 c 0,0.20464 -0.05415,0.3963 -0.162781,0.57567 -0.234955,0.26022 -0.553283,0.48651 -0.954981,0.67851 -0.762973,0.33854 -1.84462,0.65578 -3.244246,0.95137 -0.426962,0.053 -0.640271,0.14619 -0.640271,0.28008 v 0.0496 c 0,0.0707 0.04926,0.13138 0.147795,0.1819 h 0.01499 c 1.053509,-0.18695 1.893712,-0.38401 2.520259,-0.59117 1.821535,-0.50023 2.732133,-1.18127 2.732133,-2.04277 v -0.1819 c 0,-0.12885 -0.05524,-0.28153 -0.166398,-0.45837 -0.275377,-0.33096 -0.697632,-0.56753 -1.266072,-0.709 0.03284,-0.11622 0.04961,-0.21475 0.04961,-0.29559 v -0.1478 c 0,-0.1339 -0.04926,-0.26493 -0.147795,-0.39377 -0.399171,-0.40675 -0.904797,-0.6103 -1.516186,-0.6103 z m 17.132804,0 c -0.101056,0 -0.16169,0.0709 -0.181901,0.21239 v 3.53932 c -0.636653,0 -1.458999,-0.26907 -2.467033,-0.80719 -0.495174,-0.27285 -1.087445,-0.68971 -1.777152,-1.25057 -0.293063,-0.29559 -0.474964,-0.44338 -0.545703,-0.44338 h -0.0155 c -0.131373,0.0303 -0.196887,0.0909 -0.196887,0.1819 v 3.8163 c 0.03032,0.12127 0.09095,0.1819 0.181901,0.1819 h 0.04909 c 0.121268,-0.0303 0.181901,-0.0909 0.181901,-0.1819 v -3.30832 c 1.748269,1.4931 3.338816,2.23966 4.771285,2.23966 0.154111,-0.0126 0.230994,-0.0733 0.230994,-0.18191 v -3.8163 c 0,-0.096 -0.06063,-0.15664 -0.181901,-0.1819 z m 8.628931,1.55391 c -0.576019,0 -1.129303,0.12615 -1.659847,0.37879 -0.742762,0.42949 -1.114144,0.9362 -1.114144,1.5198 v 0.0796 c 0,0.36128 0.160255,0.71371 0.481108,1.0573 0.611389,0.56086 1.379589,0.84129 2.304252,0.84129 h 0.03411 c 0.121267,-0.0227 0.181901,-0.0812 0.181901,-0.17466 -0.01516,-0.13643 -0.07958,-0.20464 -0.19327,-0.20464 h -0.02274 c -0.44212,0 -0.867648,-0.0807 -1.276925,-0.24236 -0.752867,-0.34865 -1.129647,-0.77796 -1.129647,-1.2883 v -0.0568 c 0,-0.21727 0.08877,-0.44735 0.265617,-0.68988 0.538124,-0.56086 1.247872,-0.84129 2.129586,-0.84129 h 0.04547 c 0.09348,0 0.204467,0.0265 0.333313,0.0796 0.229903,0.10611 0.345199,0.31345 0.345199,0.62167 v 2.61069 c 0,0.10611 0.06063,0.16835 0.181901,0.18603 h 0.01137 c 0.106108,0 0.167833,-0.066 0.185518,-0.1974 v -3.48247 c -0.01769,-0.13138 -0.07941,-0.19689 -0.185518,-0.19689 h -0.01137 c -0.121267,0 -0.181901,0.0769 -0.181901,0.23099 -0.209691,-0.15411 -0.439767,-0.23099 -0.689881,-0.23099 z m 4.638477,0 c -0.646759,0 -1.241728,0.15267 -1.784904,0.45837 -0.649285,0.41938 -0.974101,0.88441 -0.974101,1.39475 v 0.15141 c 0,0.36633 0.187299,0.73122 0.561206,1.09502 0.611389,0.50528 1.336296,0.75809 2.175061,0.75809 h 0.07958 c 0.08842,0 0.146359,-0.0617 0.174149,-0.18551 0,-0.0606 -0.03899,-0.12127 -0.117305,-0.1819 -0.601284,0 -1.138318,-0.12288 -1.610755,-0.36794 -0.588651,-0.33349 -0.882633,-0.71842 -0.882633,-1.15549 v -0.0796 c 0,-0.24506 0.1072,-0.4892 0.321944,-0.73174 0.522965,-0.51791 1.208885,-0.77669 2.057756,-0.77669 0.199585,0 0.36363,0.0531 0.492476,0.15916 0.15411,0.0682 0.23151,0.30047 0.23151,0.69712 v 2.18694 c 0,0.47749 -0.03192,0.9079 -0.09508,1.29191 -0.229903,1.50321 -0.720945,2.25465 -1.473812,2.25465 -0.472437,0 -0.850307,-0.15268 -1.133264,-0.45837 -0.179375,-0.17433 -0.309313,-0.4748 -0.390157,-0.90176 0,-0.26022 -0.06821,-0.39067 -0.204639,-0.39067 -0.123794,0.0278 -0.186035,0.0808 -0.186035,0.15916 v 0.0951 c 0,0.16421 0.0395,0.36615 0.117822,0.60616 0.303168,0.84634 0.905717,1.26969 1.807642,1.26969 0.401697,0 0.760103,-0.17214 1.075903,-0.51573 0.570967,-0.73518 0.856795,-1.87913 0.856795,-3.43287 v -3.18326 c 0,-0.1238 -0.05684,-0.1958 -0.170532,-0.21601 h -0.02274 c -0.121267,0 -0.181901,0.0758 -0.181901,0.22738 -0.222323,-0.15159 -0.448609,-0.22738 -0.678511,-0.22738 z m 4.649845,0 c -0.586125,0 -1.135619,0.12615 -1.648478,0.37879 -0.750341,0.42191 -1.125513,0.93241 -1.125513,1.53117 v 0.0568 c 0,0.3158 0.122359,0.63034 0.367419,0.94362 0.608863,0.64423 1.41496,0.96634 2.417941,0.96634 h 0.905888 c 0.123793,-0.0227 0.185518,-0.0812 0.185518,-0.17466 v -0.0114 c 0,-0.11116 -0.06551,-0.17559 -0.196887,-0.19327 H 80.73624 c -0.389066,0 -0.776697,-0.0655 -1.163237,-0.19689 -0.828659,-0.34864 -1.243335,-0.79691 -1.243335,-1.34513 v -0.0341 c 0,-0.26022 0.107717,-0.51303 0.322461,-0.75809 0.530544,-0.52297 1.221345,-0.78445 2.072742,-0.78445 h 0.04548 c 0.08337,0 0.186782,0.0227 0.310576,0.0682 0.24506,0.11369 0.367936,0.31345 0.367936,0.59893 0,0.1339 -0.05087,0.24489 -0.151929,0.33331 -0.346117,0.24506 -0.81333,0.36742 -1.401982,0.36742 -0.09853,0 -0.20194,-0.0189 -0.310575,-0.0568 -0.25264,-0.0884 -0.379305,-0.25247 -0.379305,-0.49248 -0.01263,-0.15411 -0.07436,-0.23099 -0.185518,-0.23099 -0.128847,0.0303 -0.19327,0.0882 -0.19327,0.17415 v 0.0341 c 0,0.12632 0.02653,0.26384 0.07958,0.4129 0.222323,0.36127 0.54444,0.54208 0.966349,0.54208 0.06569,0 0.161518,-0.004 0.287838,-0.0114 1.111616,-0.11117 1.667598,-0.46469 1.667598,-1.06092 v -0.0114 c 0,-0.15411 -0.03032,-0.3073 -0.09095,-0.45889 -0.212217,-0.39159 -0.538124,-0.58704 -0.977718,-0.58704 z m 5.066874,0 c -1.786165,0 -2.679423,0.399 -2.679423,1.19734 v 0.0455 c 0,0.31074 0.279341,0.5863 0.837675,0.8263 0.606336,0.23243 0.909505,0.47876 0.909505,0.73898 0,0.096 -0.06063,0.18804 -0.181901,0.27647 -0.525491,0.27537 -1.273653,0.41289 -2.24379,0.41289 -0.131373,0.0177 -0.196888,0.0783 -0.196888,0.1819 v 0.0382 c 0,0.0758 0.05306,0.12885 0.159164,0.15916 0.586125,0 1.173515,-0.0622 1.762166,-0.18603 0.720024,-0.19706 1.080038,-0.47967 1.080038,-0.84853 0,-0.39917 -0.260393,-0.72129 -0.780831,-0.96635 -0.644232,-0.25516 -0.96635,-0.47008 -0.96635,-0.6444 v -0.0455 c 0,-0.0707 0.02274,-0.1552 0.06821,-0.25373 0.277904,-0.36885 1.026066,-0.55345 2.243791,-0.55345 h 0.07958 c 0.15411,-0.0152 0.230993,-0.072 0.230993,-0.17054 -0.01263,-0.13895 -0.07436,-0.20825 -0.185518,-0.20825 z m -21.612117,0.0114 c -0.0859,0 -0.142742,0.0606 -0.170533,0.1819 0,0.68718 0.107201,1.39423 0.321945,2.12183 0.346116,1.04088 0.869083,1.56166 1.568896,1.56166 h 0.140043 c 0.611389,0 1.09646,-0.13045 1.455208,-0.39067 v 0.13643 c 0,0.16927 0.05684,0.25424 0.170533,0.25424 h 0.04961 c 0.07579,0 0.128847,-0.053 0.159164,-0.15916 v -0.80357 c 0,-0.0455 0.0038,-0.072 0.01137,-0.0796 -0.0076,-0.043 -0.01137,-0.0782 -0.01137,-0.10594 v -2.55798 c 0,-0.0859 -0.06063,-0.13895 -0.181902,-0.15916 h -0.02687 c -0.101056,0 -0.1579,0.0807 -0.170533,0.24236 v 2.56935 l -0.01137,0.0796 c -0.18948,0.39665 -0.678341,0.5948 -1.466577,0.5948 h -0.105937 c -0.416856,0 -0.76441,-0.27503 -1.042314,-0.82579 -0.320853,-0.7655 -0.481107,-1.603 -0.481107,-2.51251 0,-0.0733 -0.06172,-0.12253 -0.185519,-0.14779 z" />
    <path
       style="fill:#fff6e5;fill-opacity:1;stroke:none;stroke-width:0.2;stroke-linecap:round;stroke-linejoin:round;stroke-dasharray:none"
       d="m 116.73764,145.51271 c -3.85205,2.68627 -9.35306,-1.13995 -14.04861,-1.06109 -1.8859,0.0317 -3.889643,1.35455 -5.624943,0.61538 -1.76189,-0.75049 -2.79428,-2.77336 -3.50637,-4.55112 -0.91026,-2.27247 -1.43515,-4.94627 -0.77348,-7.30315 0.43541,-1.55093 1.41302,-3.31333 2.93583,-3.83869 2.71665,-0.93723 5.475343,2.29876 8.345853,2.16194 1.9701,-0.0939 3.60617,-2.2853 5.56083,-2.02188 3.93099,0.52975 8.39143,3.13986 9.70794,6.88152 1.04879,2.9808 -0.005,7.30959 -2.59705,9.11709 z"
       id="path2"
       sodipodi:nodetypes="aaaaaaaaaa" />
    <path
       style="fill:#ffe6b3;fill-opacity:1;stroke:none;stroke-width:0.1;stroke-linecap:round;stroke-linejoin:round"
       d="m 98.939527,142.84875 c 0.6276,-0.28305 0.95495,-1.18984 1.640333,-1.25514 2.80914,-0.26767 10.76811,0.41746 9.47548,-4.80064 -1.29263,-5.2181 -5.77533,3.68749 -10.476473,1.68816 -0.31445,-0.13373 0.28876,-0.63248 0.521883,-0.88232 0.28094,-0.30111 0.93279,-0.298 1.01729,-0.70106 0.0823,-0.39247 -0.55437,-0.6298 -0.63299,-1.02302 -0.0591,-0.29553 0.0324,-0.6125 0.14353,-0.89266 0.16153,-0.40741 0.76163,-0.65085 0.73753,-1.08845 -0.0262,-0.47499 -0.58946,-0.74962 -0.92545,-1.08639 -0.41921,-0.42016 -0.807303,-0.92385 -1.352803,-1.15774 -0.57201,-0.24526 -1.24773,-0.31588 -1.85736,-0.19059 -0.61954,0.12734 -1.30581,0.3972 -1.65816,0.92246 -0.47742,0.7117 -0.47382,1.71288 -0.30423,2.55293 0.12809,0.63449 0.55394,1.18384 0.95983,1.68807 0.3286,0.40822 0.79223,0.68696 1.16913,1.05107 0.18484,0.17857 0.52587,0.29841 0.53494,0.55525 0.0241,0.68305 -1.05075,0.94293 -1.31491,1.57329 -0.24134,0.5759 -0.40727,1.28189 -0.18232,1.86439 0.24613,0.63733 0.86049,1.19344 1.51876,1.37634 0.32273,0.0897 0.68065,-0.0562 0.98599,-0.19395 z"
       id="path13582-5-6"
       sodipodi:nodetypes="aszsaaaaaaaaaaaaaaaaa" />
    <path
       id="path1042-3-1"
       style="fill:#ffffb3;fill-opacity:1;stroke-width:0.1;stroke-linecap:round;stroke-linejoin:round"
       d="m 98.068517,131.56874 c 0.12801,0.0179 0.25213,0.0551 0.363,0.11301 0.6983,0.36446 1.28422,1.06946 1.49824,1.82752 0.170163,0.60267 0.242083,1.48091 -0.25546,1.86119 -0.18217,-0.034 -0.35984,-0.0892 -0.54014,-0.13207 -0.33472,-0.0795 -0.68267,-0.11327 -1.00561,-0.23189 -0.14892,-0.0547 -0.33986,-0.0834 -0.42273,-0.21869 -0.11584,-0.18912 0.0466,-0.44948 -0.004,-0.66541 -0.0384,-0.1641 -0.18492,-0.2898 -0.22185,-0.45425 -0.0854,-0.38021 0.17951,-0.81588 0.0148,-1.16901 -0.10046,-0.21536 -0.55533,-0.21353 -0.552,-0.45114 0.003,-0.23913 0.33885,-0.36982 0.56804,-0.43811 0.17517,-0.0522 0.37065,-0.0674 0.55773,-0.0411 z" />
    <path
       id="path2309-5-8"
       style="fill:#fff4bd;fill-opacity:1;stroke-width:0.1;stroke-linecap:round;stroke-linejoin:round"
       d="m 97.942197,131.68482 c 0.30859,0.0596 0.58888,0.21912 0.84945,0.38926 0.61757,0.42552 1.12188,1.06221 1.276743,1.80687 0.0699,0.385 0.0852,0.81585 -0.122803,1.16301 -0.0813,0.11294 -0.22249,0.295 -0.37657,0.19868 -0.17511,-0.11179 -0.31994,-0.31972 -0.28847,-0.53436 0.0628,-0.14933 0.26804,-0.31371 0.10833,-0.47623 -0.17915,-0.20404 -0.52597,-0.21453 -0.63547,-0.4874 -0.12153,-0.30677 0.0466,-0.66247 -0.12322,-0.95602 -0.12798,-0.20238 -0.39336,-0.1731 -0.59935,-0.2036 -0.1483,-0.0313 -0.29445,-0.0734 -0.4425,-0.10696 -0.19341,-0.0336 -0.28923,-0.23822 -0.25964,-0.41841 0.0107,-0.19809 0.17738,-0.35867 0.37287,-0.37545 0.0796,-0.0123 0.16101,-0.0107 0.24063,6.1e-4 z m -0.14701,0.93364 c 0.19357,0.0419 0.43984,0.0842 0.51792,0.2956 0.0942,0.24758 0.0468,0.54204 -0.0958,0.76149 -0.1061,0.17669 -0.36999,0.2175 -0.5197,0.0744 -0.23028,-0.2679 -0.22742,-0.67369 -0.0964,-0.98625 0.0421,-0.0688 0.11463,-0.12955 0.19394,-0.14522 z"
       sodipodi:nodetypes="sssssssssssssaaaaaaaa" />
    <path
       style="fill:#ffffb3;fill-opacity:1;stroke-width:0.1;stroke-linecap:round;stroke-linejoin:round"
       d="m 98.382797,141.18681 c 0.11122,-0.0224 0.20127,-0.14324 0.22681,-0.25377 0.0514,-0.22241 -0.11429,-0.44235 -0.18611,-0.65901 -0.0672,-0.20265 -0.21665,-0.38515 -0.22857,-0.59831 -0.0193,-0.34467 0.35002,-0.66951 0.25942,-1.00262 -0.0266,-0.0977 -0.11369,-0.20619 -0.21456,-0.21501 -0.4599,-0.0402 -0.77325,0.50709 -1.1336,0.79565 -0.13719,0.10986 -0.32975,0.18979 -0.38991,0.35493 -0.0554,0.15211 -0.005,0.33531 0.0647,0.48136 0.12096,0.25288 0.35174,0.44562 0.57859,0.6103 0.30562,0.22187 0.65301,0.56107 1.02324,0.48648 z"
       id="path10275-6-7"
       sodipodi:nodetypes="aaaaaaaaaaa" />
    <path
       style="fill:#fff4bd;fill-opacity:1;stroke-width:0.1;stroke-linecap:round;stroke-linejoin:round"
       d="m 98.408687,141.00644 c 0.13007,-0.0279 0.2992,-0.0949 0.33007,-0.22429 0.0505,-0.21153 -0.12982,-0.45836 -0.31597,-0.57077 -0.0914,-0.0552 -0.22836,0.0475 -0.32031,-0.007 -0.0579,-0.0342 -0.0935,-0.10785 -0.10119,-0.1747 -0.014,-0.12103 0.0413,-0.24664 0.1062,-0.34973 0.0844,-0.13408 0.26342,-0.18872 0.35052,-0.32108 0.0898,-0.1365 0.21089,-0.30733 0.16116,-0.46299 -0.0372,-0.11648 -0.17684,-0.21249 -0.29912,-0.21235 -0.18361,2.1e-4 -0.36844,0.15461 -0.4484,0.31989 -0.0502,0.10372 0.0791,0.24801 0.0173,0.34523 -0.0824,0.12963 -0.32045,0.0633 -0.42662,0.17432 -0.15424,0.16131 -0.33063,0.43377 -0.22526,0.63051 0.094,0.17541 0.42285,0.0213 0.57926,0.14436 0.10121,0.0796 0.11275,0.23192 0.1791,0.34227 0.0694,0.11551 0.11521,0.26058 0.22852,0.33358 0.0526,0.0339 0.12363,0.0457 0.18478,0.0326 z"
       id="path10570-2-9"
       sodipodi:nodetypes="aaaaaaaaaaaaaaaaa" />
    <path
       id="path14463-9-2"
       style="fill:#ffdd99;fill-opacity:1;stroke:none;stroke-width:0.1;stroke-linecap:round;stroke-linejoin:round"
       d="m 98.651917,131.48252 c 0.75085,0.12634 1.31964,0.75173 1.551813,1.45303 0.25726,0.71546 0.53897,1.51946 0.27549,2.27093 -0.17725,0.32337 -0.35828,0.64231 -0.47005,0.99547 -0.385633,0.43383 -0.545713,-0.41449 -0.487803,-0.70476 0.0593,-0.55737 0.27066,-1.38734 -0.11605,-1.84599 -0.32734,-0.38822 -0.15915,-0.86872 -0.62944,-1.11981 -0.35841,-0.088 -1.23732,0.0897 -1.01966,-0.54931 0.15666,-0.3268 0.52745,-0.56301 0.8957,-0.49956 z m -0.9458,1.22403 c 0.4971,0.0521 0.49979,0.80138 0.11508,1.01616 -0.37421,0.22213 -0.83521,0.0837 -1.24272,0.0505 -0.51333,-0.0938 -1.05548,-0.23314 -1.46009,-0.57595 -0.23676,-0.41414 0.34229,-0.87949 0.70844,-0.56201 0.27733,0.38533 0.8443,0.48781 1.23454,0.2132 0.17922,-0.13809 0.42752,-0.15062 0.64475,-0.14194 z m 1.31466,3.52888 c 0.4688,0.17081 -0.12022,0.70428 -0.40627,0.7795 -0.77386,0.36334 -1.65406,0.17225 -2.41742,-0.1105 -0.47634,-0.40235 0.42843,-0.83299 0.78077,-0.55287 0.4295,0.22818 0.90823,0.11972 1.33647,-0.0446 0.22801,-0.0651 0.47102,-0.0738 0.70645,-0.0716 z m -0.69279,2.57684 c 0.42775,-5.1e-4 0.77172,0.78173 0.11677,0.58151 -0.42174,0.0832 -0.53558,-0.56739 -0.11677,-0.58151 z m 0.98273,0.6204 c 0.51539,0.0544 0.35629,0.87839 -0.14444,0.7859 -0.39627,-0.0947 -0.31693,-0.8802 0.14444,-0.7859 z m -1.61986,-0.0378 c 0.57228,0.0367 0.35498,0.77342 -0.0958,0.82452 -0.52079,0.10029 -0.55815,-0.78896 -0.0527,-0.82123 l 0.0641,-0.008 0.0844,0.005 z m 2.583373,0.40071 c 0.33596,0.20598 0.26235,0.73331 0.23335,1.08017 -0.0541,0.51993 -0.46369,0.87262 -0.846373,1.17531 -0.27839,0.30986 -1.03012,0.9268 -1.23292,0.24214 -0.17112,-0.50003 0.011,-1.07908 0.44824,-1.38215 0.43014,-0.27638 0.74992,-0.66826 1.09955,-1.02964 0.0844,-0.0631 0.191563,-0.10439 0.298153,-0.0858 z m -1.905763,0.43331 c 0.475,0.0487 0.39487,0.85153 -0.10226,0.71207 -0.32061,-0.0987 -0.27129,-0.74841 0.10226,-0.71207 z m -1.69534,-0.0578 c 0.6109,0.22295 -0.0188,0.957 0.43911,1.31561 0.0864,0.26669 0.79784,0.86212 0.22347,0.93039 -0.37067,-0.18525 -0.62708,-0.55574 -0.83201,-0.90647 -0.16851,-0.37094 -0.21501,-0.83206 -0.05,-1.21042 0.0456,-0.0728 0.1283,-0.13907 0.21946,-0.12911 z"
       sodipodi:nodetypes="cccccsccccccccccccccccccccccsccccscccccccccccccccc" />
    <path
       style="fill:#ffdd99;fill-opacity:1;stroke:none;stroke-width:0.1;stroke-linecap:round;stroke-linejoin:round"
       d="m 99.077757,138.65822 c 0.44275,-0.0293 0.12803,-0.88096 0.25119,-1.30725 0.0815,-0.28198 0.55469,-0.64301 0.32061,-0.82008 -0.19524,-0.1477 -0.45735,0.2348 -0.58548,0.4434 -0.18888,0.30753 -0.21857,0.70542 -0.19276,1.0654 0.0155,0.2168 -0.0104,0.6329 0.20644,0.61853 z"
       id="path13710-1-0"
       sodipodi:nodetypes="aaaaaa" />
    <path
       id="path15154-2-2"
       style="fill:#ffd580;fill-opacity:1;stroke:none;stroke-width:0.1;stroke-linecap:round;stroke-linejoin:round"
       d="m 98.723787,136.40218 c 0.31718,0.0179 0.31298,0.39313 0.0584,0.51324 -0.0493,0.19625 0.0165,0.41697 -0.0605,0.61729 -0.0759,0.25481 -0.37847,0.11905 -0.50443,-0.0171 -0.20804,-0.12314 -0.22365,-0.44932 -0.48754,-0.49685 -0.27217,-0.0743 -0.59079,0.0756 -0.83424,-0.1028 -0.25272,-0.23724 0.10331,-0.55759 0.36468,-0.39921 0.24811,0.0845 0.51915,0.21022 0.77865,0.0882 0.22451,-0.0761 0.43815,-0.2252 0.685,-0.20284 z m -0.37324,2.48316 c 0.25272,-0.0181 0.45215,0.48887 0.11202,0.46498 -0.26797,-0.045 -0.388,-0.29958 -0.11202,-0.46498 z m 0.77913,0.83911 c 0.18849,0.0574 0.25159,0.52154 -0.0257,0.40963 -0.28688,0.0992 -0.21802,-0.45865 0.0257,-0.40963 z m -1.62262,-0.0899 c 0.38872,0.0901 -0.22507,0.57879 -0.17658,0.15398 0.0181,-0.08 0.0838,-0.17 0.17658,-0.15398 z m 0.87149,0.76954 c 0.28179,0.009 0.37694,0.53875 0.0452,0.52831 -0.33507,0.029 -0.38894,-0.526 -0.0452,-0.52831 z m -1.8301,0.28446 c 0.36681,0.0795 0.0871,0.50953 0.24739,0.74596 0.0811,0.28619 -0.26951,0.15551 -0.25066,-0.0516 -0.0204,-0.22252 -0.23605,-0.45569 -0.106,-0.6692 0.0295,-0.0262 0.0718,-0.0306 0.10927,-0.0251 z m 2.11462,0.7427 c 0.26826,0.0791 0.19032,0.60361 0.52822,0.55296 0.14536,-0.11324 0.55699,-0.28839 0.41952,0.0699 -0.18083,0.27219 -0.41488,0.53469 -0.71851,0.67006 -0.24598,0.11816 -0.52005,-0.0829 -0.54704,-0.34102 -0.0595,-0.29798 -0.0527,-0.65135 0.154,-0.89215 0.0433,-0.0409 0.10358,-0.0668 0.16381,-0.0598 z" />
    <path
       style="fill:none;stroke:#000000;stroke-width:0.2;stroke-linecap:round;stroke-linejoin:round;stroke-dasharray:none"
       d="m 98.426657,141.48057 -0.0112,0.67516 c -6.3e-4,0.0378 0.0507,0.0688 0.0882,0.0704 0.0627,0.003 0.11151,-0.0614 0.15749,-0.10463 m 0.41784,-0.39308 0.67765,-0.63748 c 0.0524,-0.0493 0.0994,-0.106 0.13438,-0.16901 0.0222,-0.0401 0.0365,-0.0848 0.046,-0.12971 v 0 l -0.0151,-0.521"
       id="path45027-0-7"
       sodipodi:nodetypes="csaccsassc" />
    <path
       style="fill:none;stroke:#000000;stroke-width:0.2;stroke-linecap:round;stroke-linejoin:round;stroke-dasharray:none"
       d="m 99.767847,135.92026 c -0.0164,0.0247 -0.0333,0.0484 -0.0495,0.071 -0.31608,0.44142 -0.95634,0.53001 -1.48167,0.64128 -0.44202,0.0936 -0.92988,0.16759 -1.35403,0.0113 -0.0694,-0.0256 -0.12407,-0.0447 -0.17592,-0.0672 m -1.02323,-1.19 c -0.18825,-0.44755 -0.26488,-0.91966 -0.22407,-1.40615 m 0.783,-1.43908 c 0.0603,-0.0417 0.12327,-0.076 0.21507,-0.1289 0.56043,-0.32299 1.27655,-0.5757 1.89333,-0.38939 0.21378,0.0646 0.38053,0.10916 0.56031,0.23878 m 0.93469,1.12094 c 0.0314,0.0655 0.0533,0.13405 0.0849,0.22194 0.103443,0.28709 0.180053,0.64877 0.153143,0.98187"
       id="path37294-3-9-5"
       sodipodi:nodetypes="csasccccssccsc" />
    <path
       style="fill:none;stroke:#000000;stroke-width:0.2;stroke-linecap:round;stroke-linejoin:round;stroke-dasharray:none"
       d="m 98.171197,137.54138 c 0.052,0.0618 0.16976,0.0705 0.23949,0.0298 0.0588,-0.0343 0.0885,-0.12141 0.0793,-0.18912 -0.007,-0.0524 -0.067,-0.0619 -0.0981,-0.12372 -0.0195,-0.0387 -0.0284,-0.12026 -0.0477,-0.1698"
       id="path37298-9-3-9"
       sodipodi:nodetypes="caasc" />
    <path
       style="fill:none;stroke:#000000;stroke-width:0.2;stroke-linecap:round;stroke-linejoin:round;stroke-dasharray:none"
       d="m 95.983427,136.3296 c -0.0707,-0.0304 -0.12695,-0.10593 -0.14536,-0.18177 -0.0164,-0.0677 -0.0156,-0.16528 0.0406,-0.20521"
       id="path37302-4-6-2"
       sodipodi:nodetypes="cac" />
    <path
       style="fill:none;stroke:#000000;stroke-width:0.2;stroke-linecap:round;stroke-linejoin:round;stroke-dasharray:none"
       d="m 95.691237,132.9272 c -0.0444,0.005 -0.0872,0.0352 -0.11553,0.0703 -0.0451,0.0559 -0.0788,0.13262 -0.0706,0.20375"
       id="path37304-7-0-2"
       sodipodi:nodetypes="cac" />
    <path
       style="fill:none;stroke:#000000;stroke-width:0.2;stroke-linecap:round;stroke-linejoin:round;stroke-dasharray:none"
       d="m 99.294407,132.62681 c 0.0262,-0.0548 0.11097,-0.0616 0.17077,-0.0569 0.0731,0.006 0.14819,0.0451 0.1953,0.10137 0.0414,0.0494 0.0804,0.12432 0.0577,0.18475"
       id="path37306-8-6-8"
       sodipodi:nodetypes="caac" />
    <path
       style="fill:none;stroke:#000000;stroke-width:0.2;stroke-linecap:round;stroke-linejoin:round;stroke-dasharray:none"
       d="m 95.963067,133.302 c 0.0439,0.0246 0.0879,0.0905 0.14016,0.0829"
       id="path37310-4-2-9"
       sodipodi:nodetypes="cc" />
    <path
       style="fill:none;stroke:#000000;stroke-width:0.2;stroke-linecap:round;stroke-linejoin:round;stroke-dasharray:none"
       d="m 96.530757,133.18811 c 0.0492,-0.0209 0.11123,0.0161 0.15322,0.0502"
       id="path37312-5-6-7"
       sodipodi:nodetypes="cc" />
    <path
       style="fill:none;stroke:#000000;stroke-width:0.2;stroke-linecap:round;stroke-linejoin:round;stroke-dasharray:none"
       d="m 96.458367,133.69678 c 0,0 0.0749,0.0442 0.11581,0.0425"
       id="path37314-0-1-3"
       sodipodi:nodetypes="cc" />
    <path
       style="fill:none;stroke:#000000;stroke-width:0.2;stroke-linecap:round;stroke-linejoin:round;stroke-dasharray:none"
       d="m 97.041887,133.52083 c 0.0444,-10e-4 0.0893,-0.008 0.1359,-0.0165"
       id="path37316-3-8-6"
       sodipodi:nodetypes="cc" />
    <path
       style="fill:none;stroke:#000000;stroke-width:0.2;stroke-linecap:round;stroke-linejoin:round;stroke-dasharray:none"
       d="m 97.518617,133.16891 c 0.0537,-0.0358 0.13483,-0.0388 0.19236,-0.01"
       id="path37318-6-7-1"
       sodipodi:nodetypes="cc" />
    <path
       style="fill:none;stroke:#000000;stroke-width:0.2;stroke-linecap:round;stroke-linejoin:round;stroke-dasharray:none"
       d="m 98.077787,133.48753 c 0.0627,-0.006 0.10253,-0.0271 0.15696,-0.0445"
       id="path37320-1-9-2"
       sodipodi:nodetypes="cc" />
    <path
       style="fill:none;stroke:#000000;stroke-width:0.2;stroke-linecap:round;stroke-linejoin:round;stroke-dasharray:none"
       d="m 97.556187,133.77605 c 0.0389,0.0113 0.0846,0.0154 0.12152,-0.002"
       id="path37322-0-2-9"
       sodipodi:nodetypes="cc" />
    <path
       style="fill:none;stroke:#000000;stroke-width:0.2;stroke-linecap:round;stroke-linejoin:round;stroke-dasharray:none"
       d="m 98.504397,133.06166 c 0.0267,-0.0413 0.0646,-0.0504 0.10316,-0.0607 0.0402,-0.0107 0.0897,-0.0345 0.12473,0.001"
       id="path37324-6-0-3"
       sodipodi:nodetypes="cac" />
    <path
       style="fill:none;stroke:#000000;stroke-width:0.2;stroke-linecap:round;stroke-linejoin:round;stroke-dasharray:none"
       d="m 99.140797,133.19977 c 0.0455,-0.0239 0.0494,-0.0183 0.0722,-0.0648"
       id="path37326-3-2-1"
       sodipodi:nodetypes="cc" />
    <path
       style="fill:none;stroke:#000000;stroke-width:0.2;stroke-linecap:round;stroke-linejoin:round;stroke-dasharray:none"
       d="m 98.681907,133.58211 c 0,0 0.0773,0.008 0.11399,-0.002 0.0169,-0.005 0.0459,-0.0261 0.0459,-0.0261"
       id="path37328-2-3-9"
       sodipodi:nodetypes="cac" />
    <path
       style="fill:none;stroke:#000000;stroke-width:0.2;stroke-linecap:round;stroke-linejoin:round;stroke-dasharray:none"
       d="m 96.954357,135.66011 c 0.0471,-0.0304 0.12183,-0.0204 0.1668,0.0131"
       id="path37330-0-7-4"
       sodipodi:nodetypes="cc" />
    <path
       style="fill:none;stroke:#000000;stroke-width:0.2;stroke-linecap:round;stroke-linejoin:round;stroke-dasharray:none"
       d="m 96.346027,136.02221 c 0,0 0.12369,0.0735 0.20674,0.0894"
       id="path37332-6-5-7"
       sodipodi:nodetypes="cc" />
    <path
       style="fill:none;stroke:#000000;stroke-width:0.2;stroke-linecap:round;stroke-linejoin:round;stroke-dasharray:none"
       d="m 96.993007,136.19971 c 0.0247,-0.004 0.0945,0.0337 0.10969,0.0134"
       id="path37334-1-9-8"
       sodipodi:nodetypes="cc" />
    <path
       style="fill:none;stroke:#000000;stroke-width:0.2;stroke-linecap:round;stroke-linejoin:round;stroke-dasharray:none"
       d="m 97.466617,136.13014 c 0.0462,0.007 0.0334,0.006 0.0684,0.004"
       id="path37336-5-2-4"
       sodipodi:nodetypes="cc" />
    <path
       style="fill:none;stroke:#000000;stroke-width:0.2;stroke-linecap:round;stroke-linejoin:round;stroke-dasharray:none"
       d="m 97.650047,135.64225 c 0.002,-0.0443 0.0357,-0.0887 0.0749,-0.10887 0.03,-0.0154 0.0677,-0.003 0.10111,0.002"
       id="path37338-5-2-5"
       sodipodi:nodetypes="cac" />
    <path
       style="fill:none;stroke:#000000;stroke-width:0.2;stroke-linecap:round;stroke-linejoin:round;stroke-dasharray:none"
       d="m 97.984967,136.18111 c 0.0286,0.009 0.0611,-1.2e-4 0.0894,-0.0103"
       id="path37340-4-8-0"
       sodipodi:nodetypes="cc" />
    <path
       style="fill:none;stroke:#000000;stroke-width:0.2;stroke-linecap:round;stroke-linejoin:round;stroke-dasharray:none"
       d="m 98.261797,135.75183 c 0.0182,-0.004 0.0425,-0.01 0.0632,-0.0177"
       id="path37342-7-9-3"
       sodipodi:nodetypes="cc" />
    <path
       style="fill:none;stroke:#000000;stroke-width:0.2;stroke-linecap:round;stroke-linejoin:round;stroke-dasharray:none"
       d="m 98.530787,135.28124 c 0.0254,-0.0267 0.0588,-0.0548 0.0956,-0.0557 0.0316,-7.2e-4 0.0644,0.0191 0.0839,0.0439"
       id="path37344-6-7-6"
       sodipodi:nodetypes="cac" />
    <path
       style="fill:none;stroke:#000000;stroke-width:0.2;stroke-linecap:round;stroke-linejoin:round;stroke-dasharray:none"
       d="m 99.051597,135.5949 c 0.0725,6.1e-4 0.0915,0.016 0.18575,-0.0163 0.12607,-0.0433 0.20451,-0.0577 0.30877,-0.14107"
       id="path37346-5-3-1"
       sodipodi:nodetypes="csc" />
    <path
       style="fill:none;stroke:#000000;stroke-width:0.2;stroke-linecap:round;stroke-linejoin:round;stroke-dasharray:none"
       d="m 100.02433,135.07013 c 0.0309,-0.002 0.0891,0.0244 0.11533,0.0586 0.0167,0.0218 0.0161,0.0532 0.017,0.0807 0.002,0.0574 0.001,0.11912 -0.0244,0.17064 -0.0187,0.038 -0.0526,0.0783 -0.0889,0.0907"
       id="path37348-6-6-0"
       sodipodi:nodetypes="caaac" />
    <path
       style="fill:none;stroke:#000000;stroke-width:0.2;stroke-linecap:round;stroke-linejoin:round;stroke-dasharray:none"
       d="m 98.669737,136.03378 c 0.0279,0.0157 0.0637,0.023 0.0947,0.0151 0.0292,-0.007 0.0556,-0.0296 0.0717,-0.0554"
       id="path37350-9-1-6"
       sodipodi:nodetypes="cac" />
    <path
       style="fill:none;stroke:#000000;stroke-width:0.2;stroke-linecap:round;stroke-linejoin:round;stroke-dasharray:none"
       d="m 97.136117,137.22685 c 0.12175,0.11582 0.29832,0.29056 0.39041,0.4135 0.0705,0.0942 0.15122,0.22544 0.22895,0.36166"
       id="path37775-3-2-3"
       sodipodi:nodetypes="csc" />
    <path
       style="fill:none;stroke:#000000;stroke-width:0.2;stroke-linecap:round;stroke-linejoin:round;stroke-dasharray:none"
       d="m 98.978397,138.12517 c 0.0217,-0.21057 0.0615,-0.54975 0.11036,-0.75006 0.0276,-0.11325 0.0903,-0.28468 0.13962,-0.41221"
       id="path37781-5-9-2"
       sodipodi:nodetypes="csc" />
    <path
       style="fill:none;stroke:#000000;stroke-width:0.2;stroke-linecap:round;stroke-linejoin:round;stroke-dasharray:none"
       d="m 98.615767,140.07434 c -0.037,-0.0671 -0.12607,-0.11673 -0.20201,-0.10942 -0.0831,0.008 -0.15463,0.0851 -0.19207,0.15947 -0.0376,0.0747 -0.0553,0.17772 -0.0142,0.25113"
       id="path42371-3-0"
       sodipodi:nodetypes="caac" />
    <path
       style="fill:none;stroke:#000000;stroke-width:0.2;stroke-linecap:round;stroke-linejoin:round;stroke-dasharray:none"
       d="m 97.516357,139.4314 c -0.0577,0.0544 -0.0757,0.15141 -0.0612,0.22909 0.0166,0.0887 0.0749,0.1866 0.15963,0.2192 0.0714,0.0275 0.1716,0.008 0.22503,-0.0464"
       id="path42397-1-6"
       sodipodi:nodetypes="caac" />
    <path
       style="fill:none;stroke:#000000;stroke-width:0.2;stroke-linecap:round;stroke-linejoin:round;stroke-dasharray:none"
       d="m 98.403087,138.98897 c -0.0478,-0.0564 -0.14032,-0.0842 -0.21175,-0.0661 -0.0768,0.0195 -0.13962,0.0956 -0.16461,0.17062 -0.0285,0.0856 -0.025,0.19959 0.0332,0.26923"
       id="path42399-9-1"
       sodipodi:nodetypes="caac" />
    <path
       style="fill:none;stroke:#000000;stroke-width:0.2;stroke-linecap:round;stroke-linejoin:round;stroke-dasharray:none"
       d="m 98.782577,139.27737 c -0.0478,0.0685 -0.0354,0.17298 -0.003,0.24968 0.0325,0.077 0.0994,0.15723 0.18199,0.1734 0.0725,0.0142 0.16219,-0.0218 0.20674,-0.0805"
       id="path42401-4-5"
       sodipodi:nodetypes="caac" />
    <path
       style="fill:none;stroke:#000000;stroke-width:0.2;stroke-linecap:round;stroke-linejoin:round;stroke-dasharray:none"
       d="m 97.462637,140.3491 0.53835,0.46615 c 0.0698,0.0605 0.16376,0.10064 0.2558,0.10508 0.0917,0.004 0.19351,-0.0204 0.26422,-0.0797 m 0.2436,-0.20433 0.65449,-0.549 m 0.18314,-0.15362 c 0.083,-0.0697 0.13331,-0.18365 0.14581,-0.29173 0.009,-0.0785 0.006,-0.18097 -0.0547,-0.23021 l -0.52361,-0.42207 m -0.21209,-0.17096 -0.46495,-0.37478 c -0.0849,-0.0684 -0.20992,-0.0808 -0.31836,-0.0715 -0.1007,0.009 -0.20281,0.0507 -0.28094,0.11554 l -0.67145,0.55709 m -0.34954,0.29 c -0.0873,0.0724 -0.13136,0.20871 -0.11544,0.32136 0.0127,0.09 0.0913,0.16065 0.15957,0.2198"
       id="path42403-7-5"
       sodipodi:nodetypes="csaccccasccsasccac" />
    <path
       style="fill:none;stroke:#000000;stroke-width:0.2;stroke-linecap:round;stroke-linejoin:round;stroke-dasharray:none"
       d="m 96.533207,140.18706 0.0186,0.22151 m 0.0443,0.52678 c 0.005,0.0652 0.046,0.12313 0.0804,0.17849 0.0496,0.0798 0.10947,0.15442 0.179,0.21727 m 0.47856,0.43253 0.50349,0.45506"
       id="path43051-8-4"
       sodipodi:nodetypes="cccaccc" />
    <path
       style="fill:none;stroke:#000000;stroke-width:0.2;stroke-linecap:round;stroke-linejoin:round;stroke-dasharray:none"
       d="m 100.33821,139.82396 c 0,0 1.5176,0.0702 2.25051,-0.0928 0.87336,-0.19418 1.68721,-0.61391 2.47599,-1.03615 0.40209,-0.21524 0.94826,-0.61438 1.13946,-0.75741"
       id="path2928"
       sodipodi:nodetypes="caac" />
    <path
       style="fill:none;stroke:#000000;stroke-width:0.2;stroke-linecap:round;stroke-linejoin:round;stroke-dasharray:none"
       d="m 100.6915,140.43827 c 0,0 4.17833,-0.0106 6.13221,-0.64879 1.09337,-0.35715 2.98415,-1.73262 2.98415,-1.73262"
       id="path2930"
       sodipodi:nodetypes="cac" />
    <path
       id="path63"
       style="fill:#e5f2ff;fill-opacity:1;stroke:none;stroke-width:0.1;stroke-linecap:round;stroke-linejoin:round;stroke-dasharray:none;stroke-opacity:1"
       inkscape:label="color"
       d="m 115.183,137.38177 c -0.6885,0.83822 0.0805,1.93526 -0.11523,2.89258 0.14143,0.63143 0.54897,0.13644 0.43814,-0.28137 -0.0417,-0.80997 0.0302,-1.64375 -0.13736,-2.43542 -0.0367,-0.06 -0.0824,-0.22718 -0.18555,-0.17579 z m -1.9375,0.32618 c -0.17429,0.4188 -0.14658,0.93184 -0.10156,1.35742 0.30097,0.37916 0.59157,-0.1834 0.4718,-0.47671 0.0183,-0.32238 0.0861,-0.85042 -0.30188,-0.96274 l -0.064,0.0768 z m 3.44336,0.39453 c -0.6145,0.73125 -0.32427,1.77531 -0.49219,2.61328 -0.7628,0.34886 -0.65181,1.38373 -0.7132,2.08617 -0.1552,0.6085 0.57439,0.66408 0.68391,0.10328 0.14993,-0.39471 -0.16998,-0.94958 0.34961,-1.16992 0.54411,-0.36033 0.18758,-1.15568 0.32891,-1.70124 -0.0592,-0.62773 0.24194,-1.35139 -0.0887,-1.9179 l -0.041,-0.0156 z m -6.57422,0.0234 c -0.28245,0.30776 -0.15067,1.00408 0.13477,1.17773 0.40197,-0.22147 0.38967,-1.12073 -0.13477,-1.17773 z m -3.35937,0.0703 c -0.37429,0.43825 -0.22344,1.11332 -0.54108,1.58509 -0.0778,0.51496 -0.0197,1.16714 0.45319,1.47741 0.79526,-0.53096 0.30553,-1.59432 0.26171,-2.34961 0.0139,-0.19199 0.24942,-0.8758 -0.17382,-0.71289 z m 4.83789,0.14062 c -0.51564,0.55929 -0.0133,1.34077 -0.1772,2.00695 -0.009,0.26278 -0.0135,1.08522 0.37837,0.69032 0.23942,-0.64546 -0.0724,-1.35125 0.1875,-2.00781 0.0741,-0.24517 -0.1103,-0.72858 -0.38867,-0.68946 z m -3.50391,0.54688 c -0.37109,0.16966 -0.34932,1.21182 0.16797,0.86328 0.24108,-0.22384 0.28932,-0.90817 -0.16797,-0.86328 z m 6.0332,0.35937 c -0.36012,0.94481 0.0135,1.96183 -0.11914,2.93555 0.13242,0.54863 0.6616,0.16225 0.57618,-0.25977 0.084,-0.81223 -0.0988,-1.63165 -0.1836,-2.43164 -0.0499,-0.0891 -0.14368,-0.34113 -0.27344,-0.24414 z m -5.73046,1.31641 c -0.46912,0.45643 -0.0132,1.20746 -0.34291,1.74148 -0.0425,0.38086 0.0225,0.94776 0.45619,1.07102 0.66452,-0.71755 0.14713,-1.73118 0.14648,-2.57617 -0.0316,-0.11965 -0.11066,-0.26942 -0.25976,-0.23633 z m 2.17773,0.22656 c -0.17842,0.31836 0.0819,1.02456 -0.51172,0.97656 -0.32264,0.19771 -0.26111,1.01978 0.20703,0.89063 0.0545,-0.3975 0.26974,-0.73421 0.61133,-0.88477 0.1565,-0.29796 0.18396,-1.05988 -0.30664,-0.98242 z" />
    <path
       id="path64"
       style="fill:#cce5ff;fill-opacity:1;stroke-width:0.1;stroke-linecap:round;stroke-linejoin:round"
       d="m 115.2248,137.91434 v 4.1e-4 c -0.12177,0.36941 -0.0486,0.8449 -0.085,1.27006 0.0201,0.39418 -0.0381,0.80779 0.0248,1.19127 0.1674,-0.18376 0.25811,-0.68556 0.2149,-1.03329 -0.0341,-0.47462 -0.0528,-0.95087 -0.11054,-1.4235 z m -1.8756,0.16417 c -0.11143,0.20471 -0.0398,0.84576 0.0755,0.92563 0.0346,-0.27295 0.0146,-0.70231 -0.0755,-0.92563 z m 3.22815,1.09846 c -0.45783,0.39264 -0.2934,1.20955 -0.3832,1.78361 -0.11744,0.40769 0.57148,0.98857 0.40218,0.25492 -0.23125,-0.65282 0.54864,-1.07396 0.11178,-1.76299 -0.0453,-0.0909 -0.0744,-0.19116 -0.13076,-0.27554 z m -2.40564,0.70949 c -0.13014,0.43154 0.0686,0.89803 0.0355,1.31832 -0.0116,0.20274 -0.12065,1.00534 0.12663,0.86127 0.0166,-0.43969 0.0674,-0.91281 -0.019,-1.36163 -0.08,-0.23906 0.0516,-0.68808 -0.14313,-0.81796 z m 1.47135,2.08761 c -0.62706,0.54197 0.34629,1.61407 0.22893,0.40424 -0.0504,-0.13307 -0.0165,-0.41513 -0.22893,-0.40424 z"
       sodipodi:nodetypes="ccccccccccccccccccccccc" />
    <path
       id="path65"
       style="fill:#b3d8ff;fill-opacity:1;stroke-width:0.1;stroke-linecap:round;stroke-linejoin:round"
       d="m 116.55384,138.26743 c -0.2731,0.55224 -0.0562,1.22274 -0.12292,1.82445 -0.12053,0.34591 0.14681,1.422 0.24749,0.51561 -0.0281,-0.73735 0.0646,-1.48452 -0.0281,-2.21673 l -0.0346,-0.073 z m -3.1869,0.0598 c -0.13562,0.14898 -0.11775,0.94441 0.0722,0.47889 0.001,-0.14797 0.10594,-0.39596 -0.0722,-0.47889 z m 1.88426,1.62066 c -0.34288,0.12627 0.2003,0.76976 0.0643,0.19304 -0.0118,-0.0664 -0.0208,-0.13806 -0.0643,-0.19304 z m -1.01267,0.72791 c -0.22254,0.54709 -0.0683,1.15844 -0.007,1.71885 0.39429,0.44258 0.23835,-0.44185 0.22151,-0.68062 -0.0345,-0.34747 -0.0865,-0.69353 -0.16789,-1.03328 l -0.0256,-0.002 z m 1.65986,0.0837 c -0.21706,0.29043 -0.15578,1.31608 0.0639,1.21891 0.10156,-0.27408 0.28431,-1.18739 -0.0639,-1.21891 z m -0.18933,1.00727 c -0.30617,0.30224 0.10776,1.5182 0.13365,0.61997 0.011,-0.2083 0.0267,-0.45883 -0.13365,-0.61997 z"
       sodipodi:nodetypes="cccccccccccccccccccccccc" />
    <path
       id="path66"
       style="fill:#99cbff;fill-opacity:1;stroke-width:0.1;stroke-linecap:round;stroke-linejoin:round"
       d="m 115.18797,137.50309 c -0.37837,0.006 0.0478,1.18774 0.10594,0.50436 -0.007,-0.16018 0.005,-0.38392 -0.10594,-0.50436 z m -1.76785,0.71985 c -0.14537,0.0799 -0.20026,0.66447 -0.0294,0.74931 0.0751,-0.22664 0.13003,-0.5339 0.0294,-0.74931 z m -3.27215,0.0749 c -0.25684,0.14337 -0.18203,0.97075 0.17363,0.74414 0.10355,-0.20012 0.12409,-0.72403 -0.17363,-0.74414 z m 5.08186,0.004 c -0.2025,0.1955 -0.0974,0.74486 -0.0176,1.01441 0.24049,-0.14865 0.0869,-0.77575 0.0176,-1.01441 z m -3.62252,0.28629 c -0.0219,0.001 -0.046,0.006 -0.0729,0.0145 -0.13,0.71754 -0.0139,1.45177 -0.0212,2.17609 0.45614,-0.038 0.23121,-0.86695 0.28732,-1.25677 -0.0742,-0.20704 0.13445,-0.9538 -0.19327,-0.93379 z m -4.92425,0.11059 c -0.0137,4.3e-4 -0.028,0.002 -0.0429,0.004 -0.17583,0.65687 -0.13033,1.385 -0.10387,2.06861 0.48863,0.15916 0.54262,-0.66807 0.4837,-1.02216 -0.0548,-0.30276 0.0875,-1.06346 -0.33694,-1.05006 z m 1.44074,0.1881 c -0.029,-0.002 -0.0638,0.004 -0.1049,0.0227 -0.26683,0.17707 -0.0767,1.02454 0.21859,0.61133 0.0171,-0.1506 0.089,-0.61762 -0.11369,-0.63407 z m 8.49044,0.51676 c -0.004,2.5e-4 -0.009,0.001 -0.0139,0.003 -0.17042,0.27067 -0.17779,0.71369 -0.13333,1.05265 0.0685,0.27478 -0.0871,0.83802 0.18862,0.93586 0.136,-0.6118 0.0396,-1.2393 -0.004,-1.8526 -0.009,-0.0313 0.0213,-0.12691 -0.0258,-0.13694 v -0.001 c -0.004,-0.001 -0.007,-0.001 -0.0114,-0.001 z m -1.39216,0.0491 c -0.18201,0.13702 -0.18462,0.78115 0.0284,0.87436 0.0491,-0.22775 0.19005,-0.7494 -0.0284,-0.87436 z m -1.03095,0.77928 c -0.0348,0.22869 -0.19878,0.78211 0.0651,0.8909 0.0429,-0.2406 0.13052,-0.75304 -0.0651,-0.8909 z m -5.83633,0.48472 -0.0388,0.0915 c -0.1265,0.71732 -0.0476,1.47963 0.008,2.19108 0.37721,0.17426 0.32334,-0.54142 0.36897,-0.78497 -0.0679,-0.46879 0.0787,-1.17982 -0.24805,-1.48983 z m 2.39417,0.47697 c -0.0329,0.003 -0.0719,0.0155 -0.11679,0.0419 -0.24482,0.21903 -0.25508,0.9753 0.15038,0.57258 0.14686,-0.12992 0.19693,-0.63233 -0.0336,-0.61444 z m 3.5698,0.20309 c -0.0222,-8e-4 -0.047,4.8e-4 -0.0754,0.006 -0.0866,0.19421 -0.16573,0.86139 0.0801,0.83199 -0.003,-0.2223 0.32824,-0.82319 -0.005,-0.83716 z m 1.52084,0.24443 c -0.27204,0.20511 -0.155,0.88472 -0.0408,1.156 0.30882,0.14305 0.1166,-0.54624 0.11679,-0.76894 -0.0377,-0.12322 3.2e-4,-0.27891 -0.076,-0.38706 z m -5.59397,0.21343 c -0.43332,-0.0149 -0.2796,0.96869 0.0212,0.48472 -0.0456,-0.18841 0.36009,-0.46758 -0.0212,-0.48472 z" />
    <path
       style="fill:none;stroke:#000000;stroke-width:0.2;stroke-linecap:round;stroke-linejoin:round;stroke-dasharray:none;stroke-opacity:1"
       d="m 114.24674,139.70012 v 0.64559"
       id="path71-5"
       sodipodi:nodetypes="cc" />
    <path
       style="fill:none;stroke:#000000;stroke-width:0.2;stroke-linecap:round;stroke-linejoin:round;stroke-dasharray:none;stroke-opacity:1"
       d="m 113.39923,138.06785 v 0.64559"
       id="path73-9"
       sodipodi:nodetypes="cc" />
    <path
       style="fill:none;stroke:#000000;stroke-width:0.2;stroke-linecap:round;stroke-linejoin:round;stroke-dasharray:none;stroke-opacity:1"
       d="m 110.71719,141.05973 v 0.64559"
       id="path73-9-0"
       sodipodi:nodetypes="cc" />
    <path
       style="fill:none;stroke:#000000;stroke-width:0.2;stroke-linecap:round;stroke-linejoin:round;stroke-dasharray:none;stroke-opacity:1"
       d="m 108.07136,138.94306 v 0.64559"
       id="path73-9-6"
       sodipodi:nodetypes="cc" />
    <path
       style="fill:none;stroke:#000000;stroke-width:0.2;stroke-linecap:round;stroke-linejoin:round;stroke-dasharray:none;stroke-opacity:1"
       d="m 110.18802,138.41389 v 0.64559"
       id="path73-9-7"
       sodipodi:nodetypes="cc" />
    <path
       style="fill:none;stroke:#000000;stroke-width:0.2;stroke-linecap:round;stroke-linejoin:round;stroke-dasharray:none;stroke-opacity:1"
       d="m 110.12111,141.89992 v 0.64559"
       id="path73-9-3"
       sodipodi:nodetypes="cc" />
    <path
       style="fill:none;stroke:#000000;stroke-width:0.2;stroke-linecap:round;stroke-linejoin:round;stroke-dasharray:none;stroke-opacity:1"
       d="m 115.2188,137.79429 v 0.64559"
       id="path74-3"
       sodipodi:nodetypes="cc" />
    <path
       style="fill:none;stroke:#000000;stroke-width:0.2;stroke-linecap:round;stroke-linejoin:round;stroke-dasharray:none;stroke-opacity:1"
       d="m 114.26244,140.75802 v 1.42684"
       id="path76-4"
       sodipodi:nodetypes="cc" />
    <path
       style="fill:none;stroke:#000000;stroke-width:0.2;stroke-linecap:round;stroke-linejoin:round;stroke-dasharray:none;stroke-opacity:1"
       d="m 115.23157,138.87588 v 1.42684"
       id="path77-5"
       sodipodi:nodetypes="cc" />
    <path
       style="fill:none;stroke:#000000;stroke-width:0.2;stroke-linecap:round;stroke-linejoin:round;stroke-dasharray:none;stroke-opacity:1"
       d="m 106.71481,138.48229 v 0.64559"
       id="path74-3-2"
       sodipodi:nodetypes="cc" />
    <path
       style="fill:none;stroke:#000000;stroke-width:0.2;stroke-linecap:round;stroke-linejoin:round;stroke-dasharray:none;stroke-opacity:1"
       d="m 106.72758,139.56388 v 1.42684"
       id="path77-5-8"
       sodipodi:nodetypes="cc" />
    <path
       style="fill:none;stroke:#000000;stroke-width:0.2;stroke-linecap:round;stroke-linejoin:round;stroke-dasharray:none;stroke-opacity:1"
       d="m 115.73268,142.31961 v 0.64559"
       id="path84-3"
       sodipodi:nodetypes="cc" />
    <path
       style="fill:none;stroke:#000000;stroke-width:0.2;stroke-linecap:round;stroke-linejoin:round;stroke-dasharray:none;stroke-opacity:1"
       d="m 116.5871,139.06065 v 1.42684"
       id="path85-0"
       sodipodi:nodetypes="cc" />
    <path
       style="fill:none;stroke:#000000;stroke-width:0.2;stroke-linecap:round;stroke-linejoin:round;stroke-dasharray:none;stroke-opacity:1"
       d="m 116.5871,141.02475 v 0.6456"
       id="path86-7"
       sodipodi:nodetypes="cc" />
    <path
       style="fill:#f5faff;fill-opacity:1;stroke:none;stroke-width:0.200001;stroke-linecap:round;stroke-linejoin:round;stroke-dasharray:none;stroke-opacity:1"
       d="m 109.14548,133.86926 c 0.29728,-0.33195 0.51412,-0.7332 0.82786,-1.04963 0.4639,-0.46788 0.88407,-1.19337 1.54148,-1.23729 0.80482,-0.0538 1.51155,0.66996 2.07186,1.25019 0.30184,0.31259 0.32661,0.83195 0.63408,1.13901 0.51689,0.51618 1.3434,0.60999 1.91619,1.06334 0.48216,0.3816 0.73417,1.01702 1.24164,1.36424 0.21416,0.14654 0.5577,0.0827 0.72644,0.27984 0.1807,0.21111 0.344,0.59344 0.17608,0.81485 -0.59578,0.7856 -1.96779,0.12869 -2.9525,0.17826 -0.91281,0.046 -1.82572,0.11297 -2.73968,0.11046 -1.29106,-0.004 -2.58529,-0.0409 -3.86912,-0.1773 -1.23322,-0.13102 -3.38374,0.59241 -3.6694,-0.6144 -0.13192,-0.55728 0.90148,-0.71023 1.38743,-1.01323 0.38925,-0.2427 0.84754,-0.37004 1.21789,-0.6407 0.56281,-0.4113 1.02471,-0.94835 1.48975,-1.46764 z"
       id="path135-0"
       sodipodi:nodetypes="aaaaaaaaaaaaaaaa" />
    <path
       id="path136-9"
       style="fill:#e5f2ff;fill-opacity:1;stroke:none;stroke-width:0.200001;stroke-linecap:round;stroke-linejoin:round;stroke-dasharray:none;stroke-opacity:1"
       d="m 112.12426,135.11511 c -0.10248,-0.0113 -0.20593,0.0157 -0.30748,0.0336 -0.3932,0.0691 -0.84041,0.0494 -1.1636,0.28373 -0.34946,0.25341 -0.83333,0.69608 -0.68252,1.10055 0.18627,0.49956 0.99838,0.40729 1.52715,0.47557 0.31145,0.0402 0.65006,0.0754 0.94116,-0.0424 0.25089,-0.10155 0.50619,-0.28726 0.60823,-0.53796 0.12899,-0.31691 0.13375,-0.75291 -0.0754,-1.0237 -0.18248,-0.23626 -0.55082,-0.25656 -0.84754,-0.28936 z"
       sodipodi:nodetypes="aaaaaaaaa" />
    <path
       style="fill:#e5f2ff;fill-opacity:1;stroke:none;stroke-width:0.200001;stroke-linecap:round;stroke-linejoin:round;stroke-dasharray:none;stroke-opacity:1"
       d="m 113.06775,134.43071 c -0.44749,0.18804 -1.08098,0.096 -1.43733,-0.23364 -0.12279,-0.11356 0.0282,-0.40784 -0.11886,-0.48747 -0.26677,-0.14443 -0.71208,0.60326 -0.84822,0.29742 l -0.38395,-0.86255 c -0.051,-0.11447 0.25243,0.0187 0.35188,-0.0445 0.33527,-0.21313 0.28511,-0.84447 0.65153,-0.99796 0.37624,-0.15761 0.85364,0.0259 1.19961,0.24196 0.49794,0.31106 1.05879,0.81189 1.07024,1.39889 0.005,0.28046 -0.22628,0.57915 -0.4849,0.68782 z"
       id="path137-1"
       sodipodi:nodetypes="aassssaaaa" />
    <path
       style="fill:#e5f2ff;fill-opacity:1;stroke:none;stroke-width:0.200001;stroke-linecap:round;stroke-linejoin:round;stroke-dasharray:none;stroke-opacity:1"
       d="m 115.18382,137.31708 c -0.20954,-0.0572 -0.44837,-0.11984 -0.58371,-0.28975 -0.20071,-0.25198 -0.2268,-0.61771 -0.22521,-0.93986 0.001,-0.23262 0.0106,-0.50691 0.16931,-0.67702 0.17118,-0.18355 0.4673,-0.26719 0.71595,-0.23309 0.5172,0.071 0.88451,0.55668 1.30365,0.86788 0.3084,0.22897 0.60313,0.47664 0.88876,0.73347 0.163,0.14657 0.47597,0.24091 0.46994,0.46003 -0.004,0.12947 -0.16939,0.21495 -0.29219,0.25614 -0.77521,0.25999 -1.65775,0.0377 -2.4465,-0.1778 z"
       id="path138-7"
       sodipodi:nodetypes="aaaaaaaaaa" />
    <path
       style="fill:#cce5ff;fill-opacity:1;stroke:none;stroke-width:0.200001;stroke-linecap:round;stroke-linejoin:round;stroke-dasharray:none;stroke-opacity:1"
       d="m 107.01566,136.85596 c -0.0534,-0.6689 1.27973,-0.42297 1.94234,-0.5289 1.32099,-0.21118 2.67157,-0.26457 4.00802,-0.2054 0.34769,0.0154 0.71588,0.004 1.03393,0.14538 0.49345,0.21926 1.4113,0.52645 1.24252,1.03937 -0.10886,0.33084 -0.69522,0.0437 -1.04295,0.0636 -0.44411,0.0254 -0.88785,0.0783 -1.33263,0.0709 -0.67527,-0.0113 -1.34629,-0.11018 -2.01851,-0.17529 -1.27887,-0.12386 -3.73044,0.87111 -3.83272,-0.40966 z"
       id="path140-1"
       sodipodi:nodetypes="aaaaaaaaa" />
    <path
       style="fill:none;stroke:#000000;stroke-width:0.2;stroke-linecap:round;stroke-linejoin:round;stroke-dasharray:none"
       d="m 110.55873,133.44412 c 0.14334,-0.0207 0.33231,-8.6e-4 0.41822,-0.11782 0.091,-0.1235 -0.0269,-0.30736 -0.0121,-0.46004 0.0142,-0.14676 0.004,-0.31699 0.0963,-0.43172 0.0921,-0.11414 0.25453,-0.16271 0.39962,-0.18424 0.16525,-0.0245 0.49644,0.0686 0.49644,0.0686"
       id="path145-7"
       sodipodi:nodetypes="caaaac" />
    <path
       style="fill:none;stroke:#000000;stroke-width:0.2;stroke-linecap:round;stroke-linejoin:round;stroke-dasharray:none"
       d="m 111.4727,133.09757 c 0.29528,0.0445 -0.0711,-0.49218 0.25066,-0.39156"
       id="path147-6"
       sodipodi:nodetypes="caac" />
    <path
       style="fill:none;stroke:#000000;stroke-width:0.2;stroke-linecap:round;stroke-linejoin:round;stroke-dasharray:none"
       d="m 112.17883,132.82661 c 0,0 0.14601,-0.0647 0.19232,-0.12559 0.0557,-0.0733 -0.007,-0.24834 0.0834,-0.26312 0.26385,-0.0429 0.35869,0.40617 0.47229,0.64816 0.10192,0.21709 0.2028,0.45903 0.1767,0.69744 -0.016,0.14622 -0.0583,0.34936 -0.19835,0.39421 -0.0859,0.0275 -0.16063,-0.0823 -0.23942,-0.12622 -0.0728,-0.0406 -0.13204,-0.12398 -0.21528,-0.12687 -0.11993,-0.004 -0.20967,0.20278 -0.32208,0.16079 -0.10955,-0.041 -0.13425,-0.32413 -0.13425,-0.32413"
       id="path148-7"
       sodipodi:nodetypes="caaaaaaaac" />
    <path
       style="fill:none;stroke:#000000;stroke-width:0.2;stroke-linecap:round;stroke-linejoin:round;stroke-dasharray:none"
       d="m 112.30764,134.59735 c 0,0 -0.0116,0.26073 0.0833,0.31072 0.17926,0.0944 0.37184,-0.2246 0.57321,-0.20224 0.0917,0.0102 0.14223,0.14324 0.23438,0.14704 0.25449,0.0105 0.42408,-0.33885 0.67847,-0.35147 0.17923,-0.009 0.42195,0.0376 0.50018,0.19908 0.10514,0.21706 -0.0371,0.52196 -0.20681,0.69338 -0.20315,0.20525 -0.62326,0.0522 -0.82762,0.25617 -0.0827,0.0825 -0.13901,0.22311 -0.10413,0.33459 0.0586,0.18723 0.26927,0.3381 0.46398,0.36208 0.14658,0.018 0.40501,-0.17968 0.40501,-0.17968"
       id="path149-3"
       sodipodi:nodetypes="caaaaaaaaac" />
    <path
       style="fill:none;stroke:#000000;stroke-width:0.2;stroke-linecap:round;stroke-linejoin:round;stroke-dasharray:none"
       d="m 111.59541,135.87219 c 0.10444,-0.0811 0.12357,-0.26524 0.24816,-0.30968 0.20026,-0.0714 0.48573,-0.0286 0.62382,0.13301 0.15312,0.17925 0.14646,0.49712 0.0376,0.70623 -0.0677,0.13002 -0.23071,0.26748 -0.37309,0.23271 -0.12271,-0.03 -0.1929,-0.32618 -0.1929,-0.32618"
       id="path150-6"
       sodipodi:nodetypes="caaaac" />
    <path
       style="fill:none;stroke:#000000;stroke-width:0.2;stroke-linecap:round;stroke-linejoin:round;stroke-dasharray:none"
       d="m 114.56004,135.79307 c 0,0 0.15381,-0.14629 0.25142,-0.15072 0.12614,-0.006 0.27309,0.0582 0.34122,0.16451 0.0631,0.0985 0.0783,0.25866 0.006,0.35097 -0.0624,0.08 -0.21172,0.0133 -0.29648,0.0691 -0.0621,0.0409 -0.13243,0.17959 -0.13243,0.17959"
       id="path151-5"
       sodipodi:nodetypes="caaaac" />
    <path
       style="fill:none;stroke:#000000;stroke-width:0.2;stroke-linecap:round;stroke-linejoin:round;stroke-dasharray:none"
       d="m 115.59948,136.47633 c 0,0 0.23988,0.18504 0.35809,0.13658 0.17514,-0.0717 0.0493,-0.48468 0.23592,-0.51651 0.18429,-0.0315 0.25732,0.27132 0.38896,0.40407 0.11979,0.12079 0.22135,0.26543 0.36472,0.35699 0.20572,0.13137 0.70965,0.25932 0.68482,0.25932 h -4.64695"
       id="path152-6"
       sodipodi:nodetypes="caaaasc" />
    <path
       style="fill:none;stroke:#000000;stroke-width:0.2;stroke-linecap:round;stroke-linejoin:round;stroke-dasharray:none"
       d="m 111.80327,137.13127 h 0.37561"
       id="path153-3"
       sodipodi:nodetypes="cc" />
    <path
       style="fill:none;stroke:#000000;stroke-width:0.2;stroke-linecap:round;stroke-linejoin:round;stroke-dasharray:none"
       d="m 110.18586,133.28468 c -0.0982,0.2067 -0.19529,0.43705 -0.17017,0.66402 0.0154,0.13919 0.0561,0.33263 0.19101,0.37533 0.0828,0.0262 0.1547,-0.0782 0.23058,-0.12018 0.0701,-0.0386 0.12713,-0.11801 0.20732,-0.12081 0.1155,-0.004 0.20191,0.19308 0.31017,0.15309 0.10552,-0.0391 0.12924,-0.3086 0.12924,-0.3086"
       id="path19723-3"
       sodipodi:nodetypes="caaaaac" />
    <path
       style="fill:none;stroke:#000000;stroke-width:0.2;stroke-linecap:round;stroke-linejoin:round;stroke-dasharray:none"
       d="m 110.78225,134.72354 c 0,0 0.0114,0.24823 -0.0801,0.29583 -0.17262,0.0899 -0.35808,-0.21383 -0.552,-0.19254 -0.0882,0.0103 -0.13692,0.13633 -0.22572,0.14006 -0.24507,0.0103 -0.40839,-0.3226 -0.65339,-0.33464 -0.17259,-0.009 -0.40634,0.0359 -0.48169,0.18954 -0.10137,0.20666 0.0357,0.49696 0.19918,0.66015 0.19564,0.19541 0.6002,0.0496 0.79701,0.24391 0.0796,0.0786 0.13394,0.21242 0.10035,0.31855 -0.0565,0.17827 -0.25932,0.3219 -0.44682,0.34474 -0.14117,0.0172 -0.39004,-0.17109 -0.39004,-0.17109"
       id="path19725-3"
       sodipodi:nodetypes="caaaaaaaaac" />
    <path
       style="fill:none;stroke:#000000;stroke-width:0.2;stroke-linecap:round;stroke-linejoin:round;stroke-dasharray:none"
       d="m 111.22977,135.64246 c -0.19287,-0.0679 -0.46777,-0.0272 -0.60077,0.12654 -0.14745,0.17067 -0.14103,0.47331 -0.0362,0.67239 0.0651,0.12375 0.22219,0.25467 0.35931,0.22156 0.11817,-0.0285 0.18575,-0.31055 0.18575,-0.31055"
       id="path19727-8"
       sodipodi:nodetypes="caaac" />
    <path
       style="fill:none;stroke:#000000;stroke-width:0.2;stroke-linecap:round;stroke-linejoin:round;stroke-dasharray:none"
       d="m 108.61314,135.86197 c 0,0 -0.14811,-0.13936 -0.24211,-0.14351 -0.12145,-0.006 -0.26299,0.0555 -0.32861,0.15663 -0.0608,0.0937 -0.0753,0.24626 -0.005,0.33415 0.0601,0.0762 0.20389,0.0129 0.28552,0.0658 0.0599,0.0389 0.12754,0.171 0.12754,0.171"
       id="path19729-6"
       sodipodi:nodetypes="caaaac" />
    <path
       style="fill:none;stroke:#000000;stroke-width:0.2;stroke-linecap:round;stroke-linejoin:round;stroke-dasharray:none"
       d="m 107.61216,136.51247 c 0,0 -0.23102,0.17618 -0.34487,0.13002 -0.16866,-0.0681 -0.0476,-0.46145 -0.22719,-0.49175 -0.17748,-0.03 -0.2478,0.25833 -0.37457,0.3847 -0.11538,0.11497 -0.21317,0.25272 -0.35125,0.3399 -0.1981,0.12501 -0.6834,0.24688 -0.65948,0.24688 h 4.4751"
       id="path19731-0"
       sodipodi:nodetypes="caaaasc" />
    <path
       style="fill:none;stroke:#000000;stroke-width:0.2;stroke-linecap:round;stroke-linejoin:round;stroke-dasharray:none;stroke-opacity:1"
       d="m 111.61084,138.54781 v 0.64559"
       id="path3"
       sodipodi:nodetypes="cc" />
    <path
       style="fill:none;stroke:#000000;stroke-width:0.2;stroke-linecap:round;stroke-linejoin:round;stroke-dasharray:none;stroke-opacity:1"
       d="m 111.62361,139.6294 v 1.42684"
       id="path4"
       sodipodi:nodetypes="cc" />
    <path
       style="fill:none;stroke:#000000;stroke-width:0.2;stroke-linecap:round;stroke-linejoin:round;stroke-dasharray:none;stroke-opacity:1"
       d="m 108.43799,140.63137 v 0.64559"
       id="path5"
       sodipodi:nodetypes="cc" />
    <path
       style="fill:none;stroke:#000000;stroke-width:0.2;stroke-linecap:round;stroke-linejoin:round;stroke-dasharray:none;stroke-opacity:1"
       d="m 108.45076,141.71296 v 1.42684"
       id="path6"
       sodipodi:nodetypes="cc" />
  </g>
</svg>
