<?xml version="1.0" encoding="UTF-8" standalone="no"?>
<!-- Created with Inkscape (http://www.inkscape.org/) -->

<svg
   width="282.91681"
   height="66.020767"
   viewBox="0 0 74.855067 17.467994"
   version="1.1"
   id="svg1"
   inkscape:version="1.3.2 (091e20ef0f, 2023-11-25, custom)"
   sodipodi:docname="navigation-iles.svg"
   xmlns:inkscape="http://www.inkscape.org/namespaces/inkscape"
   xmlns:sodipodi="http://sodipodi.sourceforge.net/DTD/sodipodi-0.dtd"
   xmlns="http://www.w3.org/2000/svg"
   xmlns:svg="http://www.w3.org/2000/svg">
  <sodipodi:namedview
     id="namedview1"
     pagecolor="#ffffff"
     bordercolor="#666666"
     borderopacity="1.0"
     inkscape:showpageshadow="2"
     inkscape:pageopacity="0.0"
     inkscape:pagecheckerboard="0"
     inkscape:deskcolor="#d1d1d1"
     inkscape:document-units="mm"
     inkscape:zoom="0.66391977"
     inkscape:cx="144.59578"
     inkscape:cy="-64.013758"
     inkscape:window-width="956"
     inkscape:window-height="1029"
     inkscape:window-x="960"
     inkscape:window-y="0"
     inkscape:window-maximized="1"
     inkscape:current-layer="layer1"
     showgrid="false" />
  <defs
     id="defs1">
    <style
       transform="translate(-130.185, 41.1648)"
       id="style111"><![CDATA[
polygon {
shape-rendering:crispEdges;
stroke-width:0.098900;
}
.s0 {
stroke:#000000;
stroke-width:0.080355;
stroke-linecap:round;
stroke-linejoin:round;
fill:none;
}
.s1 {
stroke:#000000;
stroke-width:0.080355;
stroke-linecap:round;
stroke-linejoin:round;
fill:none;
}
.s2 {
stroke:#19b219;
stroke-width:0.080355;
stroke-linecap:round;
stroke-linejoin:round;
fill:none;
}
.s3 {
stroke:#7f4c00;
stroke-width:0.080355;
stroke-linecap:round;
stroke-linejoin:round;
fill:none;
}
.s4 {
stroke:#00cc00;
stroke-width:0.080355;
stroke-linecap:round;
stroke-linejoin:round;
fill:none;
}
.s5 {
stroke:#000000;
stroke-width:0.053570;
stroke-linecap:round;
stroke-linejoin:round;
fill:none;
}
.s6 {
stroke:#ff19ff;
stroke-width:0.053570;
stroke-linecap:round;
stroke-linejoin:round;
fill:none;
}
.s7 {
stroke:#ff0000;
stroke-width:0.080355;
stroke-linecap:round;
stroke-linejoin:round;
fill:none;
}
.s8 {
stroke:#ffff00;
stroke-width:0.080355;
stroke-linecap:round;
stroke-linejoin:round;
fill:none;
}
.s9 {
stroke:#001919;
stroke-width:0.053570;
stroke-linecap:round;
stroke-linejoin:round;
fill:none;
}
.sa {
stroke:#006666;
stroke-width:0.053570;
stroke-linecap:round;
stroke-linejoin:round;
fill:none;
}
.sb {
stroke:#00ffff;
stroke-width:0.160711;
stroke-linecap:round;
stroke-linejoin:round;
fill:none;
}
.sc {
stroke:#ff0000;
stroke-width:0.428562;
stroke-linecap:round;
stroke-linejoin:round;
fill:none;
}
.sd {
stroke:#191919;
stroke-width:0.053570;
stroke-linecap:round;
stroke-linejoin:round;
fill:none;
}
.se {
stroke:#000000;
stroke-width:0.053570;
stroke-linecap:round;
stroke-linejoin:round;
stroke-dasharray:0.804,0.804;
fill:none;
}
.sf {
stroke:#000000;
stroke-width:0.160711;
stroke-linecap:round;
stroke-linejoin:round;
fill:none;
}
.s100 {
stroke:#ff0000;
stroke-width:0.500000;
stroke-linecap:round;
stroke-linejoin:round;
fill:none;
}
]]></style>
  </defs>
  <g
     inkscape:label="Layer 1"
     inkscape:groupmode="layer"
     id="layer1"
     transform="translate(-24.083139,-129.48293)">
    <path
       id="path1"
       style="fill:#fff6e5;fill-opacity:1;stroke:none;stroke-width:0.2;stroke-linecap:round;stroke-linejoin:round"
       d="m 68.959071,132.98829 c -3.9699,-4.76967 -12.10858,-3.25531 -18.31354,-3.34711 -4.02472,-0.0596 -8.90757,-0.83083 -11.93776,1.81869 -2.8734,2.51243 -5.09594,7.66473 -3.21977,10.98869 1.99556,3.53548 7.72338,2.86891 11.77611,3.10807 7.28502,0.42989 16.88734,2.44624 21.67838,-3.0585 2.08112,-2.39114 2.04447,-7.0734 0.0166,-9.50984 z"
       sodipodi:nodetypes="aaaaaaa" />
    <path
       id="path8"
       style="fill:#ffe6b3;fill-opacity:1;stroke:none;stroke-width:0.2;stroke-linecap:round;stroke-linejoin:round"
       d="m 66.735201,137.73871 c -0.17336,-1.8403 -1.17342,-3.79669 -2.6948,-4.84653 -1.82123,-1.25674 -4.3787,-0.64195 -6.56889,-0.95719 -2.77888,-0.39997 -5.53617,-1.35199 -8.33874,-1.18532 -2.99041,0.17784 -6.23354,0.58866 -8.68503,2.3104 -1.97194,1.38494 -4.5394,3.56816 -4.11892,5.94089 0.34867,1.96755 3.02181,2.77182 4.90043,3.4527 3.14963,1.14154 6.69296,0.4013 10.01687,0.81953 2.25032,0.28314 4.44626,1.31683 6.70761,1.14242 2.58943,-0.19972 5.55567,-0.63124 7.38932,-2.47047 1.04277,-1.04594 1.53066,-2.736 1.39215,-4.20643 z"
       sodipodi:nodetypes="aaaaaaaaaaa" />
    <path
       id="path141"
       style="fill:#ffdd99;fill-opacity:1;stroke-width:1;stroke-linecap:round;stroke-linejoin:round"
       d="m 56.017941,134.10152 c -1.52433,-0.39765 -2.67074,-2.40957 -4.22049,-2.12673 -1.48817,0.27159 -2.63688,1.89279 -3.07013,3.34218 -0.5752,1.92429 -0.334,4.42069 0.97225,5.94628 0.65834,0.76888 1.88023,0.82861 2.88566,0.94562 1.60214,0.18645 3.22723,-0.16521 4.82141,-0.4106 2.11779,-0.32598 5.19909,0.44849 6.27256,-1.40595 1.05577,-1.82388 -0.20438,-4.75158 -1.87336,-6.0383 -1.52939,-1.1791 -3.9193,0.23496 -5.7879,-0.2525 z m -16.9007,-0.13841 c -1.7238,1.11939 -2.393,4.23004 -1.36905,6.01219 0.69827,1.21531 2.6599,0.88975 4.01222,1.25828 0.80184,0.21851 1.70636,0.97523 2.42861,0.56407 1.95411,-1.11245 3.18663,-4.49388 2.04192,-6.42927 -1.23049,-2.0804 -5.08655,-2.72164 -7.1137,-1.40527 z"
       sodipodi:nodetypes="aaaaaaaaaaaaaaa" />
    <path
       id="text2"
       style="font-size:7.76111px;line-height:1.25;font-family:Tibet;-inkscape-font-specification:Tibet;text-align:justify;letter-spacing:0px;word-spacing:0px;stroke-width:0.264583"
       d="m 52.73307,132.91735 c -0.108635,0 -0.173059,0.0682 -0.19327,0.20463 v 6.92 c 0.01769,0.12884 0.07832,0.19327 0.181901,0.19327 h 0.03411 c 0.0859,0 0.138953,-0.0606 0.159164,-0.18191 v -6.96546 c 0,-0.0783 -0.06063,-0.13516 -0.181901,-0.17053 z m -2.069125,0.45837 c -0.07579,0 -0.197059,0.14182 -0.363802,0.42478 -0.242534,0.33348 -0.363802,0.53542 -0.363802,0.60616 v 0.015 c 0,0.0935 0.05575,0.14923 0.166915,0.16691 h 0.02997 c 0.02779,0 0.05811,-0.0103 0.09095,-0.0305 l 0.485242,-0.68213 0.242362,0.33383 c 0.138952,0.25264 0.250459,0.37879 0.33383,0.37879 h 0.02997 c 0.09348,0 0.14923,-0.0557 0.166915,-0.16691 v -0.015 c 0,-0.0783 -0.07579,-0.20986 -0.227376,-0.39429 -0.25264,-0.42444 -0.419383,-0.63665 -0.500228,-0.63665 z m -6.893119,0.96273 c -0.111161,0.0278 -0.166915,0.0835 -0.166915,0.16691 v 0.0755 c 0.75792,1.13688 1.136882,2.24884 1.136882,3.3352 0,0.9095 -0.247416,1.82389 -0.742591,2.7435 -0.262745,0.41938 -0.394291,0.64188 -0.394291,0.66714 v 0.0455 c 0.02779,0.11116 0.08354,0.16639 0.166915,0.16639 h 0.04548 c 0.02779,0 0.05811,-0.01 0.09095,-0.03 0.808448,-1.1773 1.212329,-2.3445 1.212329,-3.50159 v -0.13643 c 0,-0.70739 -0.166743,-1.46043 -0.500228,-2.25878 -0.416856,-0.84887 -0.684311,-1.2733 -0.803052,-1.2733 z m -3.126424,0.45475 c -0.725077,0 -1.345483,0.30208 -1.860868,0.90589 -0.406751,0.50275 -0.682302,1.11288 -0.826306,1.83038 0,0.11874 0.0774,0.18534 0.23151,0.2005 h 2.455664 c 0.15411,-0.0177 0.230994,-0.0783 0.230994,-0.1819 v -0.0682 c 0,-0.10358 -0.07688,-0.16422 -0.230994,-0.1819 h -2.209684 c 0.434541,-1.39458 1.177305,-2.09187 2.228288,-2.09187 0.68718,0 1.26969,0.68753 1.74718,2.06189 0.197059,0.59876 0.372472,1.40055 0.526583,2.40606 0,0.37391 0.072,0.56121 0.216007,0.56121 h 0.04961 c 0.103583,0 0.164217,-0.0606 0.181901,-0.18191 0,-0.30822 -0.08877,-0.89073 -0.265616,-1.74718 -0.54065,-2.34197 -1.342441,-3.51296 -2.406055,-3.51296 z m 10.050033,0.0114 c -0.106109,0 -0.17214,0.0655 -0.197404,0.19689 v 5.03638 c 0,0.11369 0.07091,0.17972 0.21239,0.19741 h 0.01912 c 0.131373,0 0.196887,-0.0936 0.196887,-0.28061 v -4.86947 c 0,-0.18695 -0.06551,-0.2806 -0.196887,-0.2806 z m 5.778975,1.55391 c -0.586125,0 -1.135619,0.12615 -1.648478,0.37879 -0.750341,0.42191 -1.125513,0.93241 -1.125513,1.53117 v 0.0568 c 0,0.3158 0.122359,0.63034 0.36742,0.94362 0.608862,0.64423 1.414959,0.96635 2.41794,0.96635 h 0.905888 c 0.123793,-0.0227 0.185518,-0.0812 0.185518,-0.17467 v -0.0114 c 0,-0.11116 -0.06551,-0.17558 -0.196887,-0.19327 h -0.894519 c -0.389066,0 -0.776697,-0.0655 -1.163237,-0.19689 -0.828659,-0.34864 -1.243335,-0.79691 -1.243335,-1.34513 v -0.0341 c 0,-0.26022 0.107717,-0.51303 0.322461,-0.75809 0.530544,-0.52297 1.221345,-0.78445 2.072742,-0.78445 h 0.04547 c 0.08337,0 0.186782,0.0227 0.310576,0.0682 0.24506,0.11369 0.367936,0.31345 0.367936,0.59893 0,0.1339 -0.05087,0.24489 -0.151929,0.33331 -0.346117,0.24506 -0.81333,0.36742 -1.401982,0.36742 -0.09853,0 -0.20194,-0.019 -0.310575,-0.0568 -0.25264,-0.0884 -0.379305,-0.25247 -0.379305,-0.49248 -0.01263,-0.15411 -0.07436,-0.23099 -0.185518,-0.23099 -0.128847,0.0303 -0.19327,0.0883 -0.19327,0.17415 v 0.0341 c 0,0.12632 0.02653,0.26384 0.07958,0.4129 0.222323,0.36127 0.54444,0.54209 0.966349,0.54209 0.06569,0 0.161518,-0.004 0.287838,-0.0114 1.111616,-0.11117 1.667598,-0.46469 1.667598,-1.06092 v -0.0114 c 0,-0.15411 -0.03032,-0.3073 -0.09095,-0.45889 -0.212218,-0.39159 -0.538125,-0.58704 -0.977719,-0.58704 z m 5.066874,0 c -1.786165,0 -2.679423,0.399 -2.679423,1.19734 v 0.0455 c 0,0.31074 0.279341,0.5863 0.837675,0.8263 0.606336,0.23243 0.909505,0.47876 0.909505,0.73898 0,0.096 -0.06063,0.18804 -0.181901,0.27647 -0.525491,0.27537 -1.273653,0.41289 -2.24379,0.41289 -0.131373,0.0177 -0.196888,0.0783 -0.196888,0.1819 v 0.0382 c 0,0.0758 0.05306,0.12885 0.159164,0.15917 0.586125,0 1.173515,-0.0623 1.762166,-0.18604 0.720024,-0.19706 1.080038,-0.47967 1.080038,-0.84853 0,-0.39917 -0.260393,-0.72129 -0.780831,-0.96635 -0.644232,-0.25516 -0.96635,-0.47008 -0.96635,-0.6444 v -0.0455 c 0,-0.0707 0.02274,-0.1552 0.06821,-0.25373 0.277904,-0.36885 1.026066,-0.55345 2.243791,-0.55345 h 0.07958 c 0.15411,-0.0152 0.230993,-0.072 0.230993,-0.17053 -0.01263,-0.13896 -0.07436,-0.20826 -0.185518,-0.20826 z" />
    <path
       style="fill:#fff6e5;fill-opacity:1;stroke:none;stroke-width:0.2;stroke-linecap:round;stroke-linejoin:round;stroke-dasharray:none"
       d="m 96.298138,145.99327 c -3.85205,2.68627 -9.35306,-1.13995 -14.04861,-1.06109 -1.8859,0.0317 -3.88964,1.35455 -5.62494,0.61538 -1.76189,-0.75049 -2.79428,-2.77336 -3.50637,-4.55112 -0.91026,-2.27247 -1.43515,-4.94627 -0.77348,-7.30315 0.43541,-1.55093 1.42833,-3.27088 2.93583,-3.83869 2.6478,-0.99732 5.50146,1.4582 8.32329,1.66504 4.29386,0.31474 9.27605,-2.98534 12.89928,-0.65973 1.81619,1.16574 2.28319,3.8609 2.39205,6.01627 0.15939,3.1559 -0.005,7.30959 -2.59705,9.11709 z"
       id="path2"
       sodipodi:nodetypes="aaaaaaaaaa" />
    <path
       style="fill:#ffe6b3;fill-opacity:1;stroke:none;stroke-width:0.1;stroke-linecap:round;stroke-linejoin:round"
       d="m 78.500028,143.32931 c 0.6276,-0.28305 0.95495,-1.18984 1.64033,-1.25514 2.80914,-0.26767 12.10634,3.6662 10.754,-2.10423 -1.35234,-5.77043 -7.06741,0.86563 -11.75499,-1.00825 -0.26604,-0.21445 0.28876,-0.63248 0.52188,-0.88232 0.28094,-0.30111 0.93279,-0.298 1.01729,-0.70106 0.0823,-0.39247 -0.55437,-0.6298 -0.63299,-1.02302 -0.0591,-0.29553 0.0324,-0.6125 0.14353,-0.89266 0.16153,-0.40741 0.76163,-0.65085 0.73753,-1.08845 -0.0262,-0.47499 -0.58946,-0.74962 -0.92545,-1.08639 -0.41921,-0.42016 -0.8073,-0.92385 -1.3528,-1.15774 -0.57201,-0.24526 -1.24773,-0.31588 -1.85736,-0.19059 -0.61954,0.12734 -1.30581,0.3972 -1.65816,0.92246 -0.47742,0.7117 -0.47382,1.71288 -0.30423,2.55293 0.12809,0.63449 0.55394,1.18384 0.95983,1.68807 0.3286,0.40822 0.79223,0.68696 1.16913,1.05107 0.18484,0.17857 0.52587,0.29841 0.53494,0.55525 0.0241,0.68305 -1.05075,0.94293 -1.31491,1.57329 -0.24134,0.5759 -0.40727,1.28189 -0.18232,1.86439 0.24613,0.63733 0.86049,1.19344 1.51876,1.37634 0.32273,0.0897 0.68065,-0.0562 0.98599,-0.19395 z"
       id="path13582-5-6"
       sodipodi:nodetypes="aszsaaaaaaaaaaaaaaaaaa" />
    <path
       id="path1042-3-1"
       style="fill:#ffffb3;fill-opacity:1;stroke-width:0.1;stroke-linecap:round;stroke-linejoin:round"
       d="m 77.629018,132.0493 c 0.12801,0.0179 0.25213,0.0551 0.363,0.11301 0.6983,0.36446 1.28422,1.06946 1.49824,1.82752 0.17016,0.60267 0.24208,1.48091 -0.25546,1.86119 -0.18217,-0.034 -0.35984,-0.0892 -0.54014,-0.13207 -0.33472,-0.0795 -0.68267,-0.11327 -1.00561,-0.23189 -0.14892,-0.0547 -0.33986,-0.0834 -0.42273,-0.21869 -0.11584,-0.18912 0.0466,-0.44948 -0.004,-0.66541 -0.0384,-0.1641 -0.18492,-0.2898 -0.22185,-0.45425 -0.0854,-0.38021 0.17951,-0.81588 0.0148,-1.16901 -0.10046,-0.21536 -0.55533,-0.21353 -0.552,-0.45114 0.003,-0.23913 0.33885,-0.36982 0.56804,-0.43811 0.17517,-0.0522 0.37065,-0.0674 0.55773,-0.0411 z" />
    <path
       id="path2309-5-8"
       style="fill:#fff4bd;fill-opacity:1;stroke-width:0.1;stroke-linecap:round;stroke-linejoin:round"
       d="m 77.502698,132.16538 c 0.30859,0.0596 0.58888,0.21912 0.84945,0.38926 0.61757,0.42552 1.12188,1.06221 1.27674,1.80687 0.0699,0.385 0.0852,0.81585 -0.1228,1.16301 -0.0813,0.11294 -0.22249,0.295 -0.37657,0.19868 -0.17511,-0.11179 -0.31994,-0.31972 -0.28847,-0.53436 0.0628,-0.14933 0.26804,-0.31371 0.10833,-0.47623 -0.17915,-0.20404 -0.52597,-0.21453 -0.63547,-0.4874 -0.12153,-0.30677 0.0466,-0.66247 -0.12322,-0.95602 -0.12798,-0.20238 -0.39336,-0.1731 -0.59935,-0.2036 -0.1483,-0.0313 -0.29445,-0.0734 -0.4425,-0.10696 -0.19341,-0.0336 -0.28923,-0.23822 -0.25964,-0.41841 0.0107,-0.19809 0.17738,-0.35867 0.37287,-0.37545 0.0796,-0.0123 0.16101,-0.0107 0.24063,6.1e-4 z m -0.14701,0.93364 c 0.19357,0.0419 0.43984,0.0842 0.51792,0.2956 0.0942,0.24758 0.0468,0.54204 -0.0958,0.76149 -0.1061,0.17669 -0.36999,0.2175 -0.5197,0.0744 -0.23028,-0.2679 -0.22742,-0.67369 -0.0964,-0.98625 0.0421,-0.0688 0.11463,-0.12955 0.19394,-0.14522 z"
       sodipodi:nodetypes="sssssssssssssaaaaaaaa" />
    <path
       style="fill:#ffffb3;fill-opacity:1;stroke-width:0.1;stroke-linecap:round;stroke-linejoin:round"
       d="m 77.943298,141.66737 c 0.11122,-0.0224 0.20127,-0.14324 0.22681,-0.25377 0.0514,-0.22241 -0.11429,-0.44235 -0.18611,-0.65901 -0.0672,-0.20265 -0.21665,-0.38515 -0.22857,-0.59831 -0.0193,-0.34467 0.35002,-0.66951 0.25942,-1.00262 -0.0266,-0.0977 -0.11369,-0.20619 -0.21456,-0.21501 -0.4599,-0.0402 -0.77325,0.50709 -1.1336,0.79565 -0.13719,0.10986 -0.32975,0.18979 -0.38991,0.35493 -0.0554,0.15211 -0.005,0.33531 0.0647,0.48136 0.12096,0.25288 0.35174,0.44562 0.57859,0.6103 0.30562,0.22187 0.65301,0.56107 1.02324,0.48648 z"
       id="path10275-6-7"
       sodipodi:nodetypes="aaaaaaaaaaa" />
    <path
       style="fill:#fff4bd;fill-opacity:1;stroke-width:0.1;stroke-linecap:round;stroke-linejoin:round"
       d="m 77.969188,141.487 c 0.13007,-0.0279 0.2992,-0.0949 0.33007,-0.22429 0.0505,-0.21153 -0.12982,-0.45836 -0.31597,-0.57077 -0.0914,-0.0552 -0.22836,0.0475 -0.32031,-0.007 -0.0579,-0.0342 -0.0935,-0.10785 -0.10119,-0.1747 -0.014,-0.12103 0.0413,-0.24664 0.1062,-0.34973 0.0844,-0.13408 0.26342,-0.18872 0.35052,-0.32108 0.0898,-0.1365 0.21089,-0.30733 0.16116,-0.46299 -0.0372,-0.11648 -0.17684,-0.21249 -0.29912,-0.21235 -0.18361,2.1e-4 -0.36844,0.15461 -0.4484,0.31989 -0.0502,0.10372 0.0791,0.24801 0.0173,0.34523 -0.0824,0.12963 -0.32045,0.0633 -0.42662,0.17432 -0.15424,0.16131 -0.33063,0.43377 -0.22526,0.63051 0.094,0.17541 0.42285,0.0213 0.57926,0.14436 0.10121,0.0796 0.11275,0.23192 0.1791,0.34227 0.0694,0.11551 0.11521,0.26058 0.22852,0.33358 0.0526,0.0339 0.12363,0.0457 0.18478,0.0326 z"
       id="path10570-2-9"
       sodipodi:nodetypes="aaaaaaaaaaaaaaaaa" />
    <path
       id="path14463-9-2"
       style="fill:#ffdd99;fill-opacity:1;stroke:none;stroke-width:0.1;stroke-linecap:round;stroke-linejoin:round"
       d="m 78.212418,131.96308 c 0.75085,0.12634 1.31964,0.75173 1.55181,1.45303 0.25726,0.71546 0.53897,1.51946 0.27549,2.27093 -0.17725,0.32337 -0.35828,0.64231 -0.47005,0.99547 -0.38563,0.43383 -0.54571,-0.41449 -0.4878,-0.70476 0.0593,-0.55737 0.27066,-1.38734 -0.11605,-1.84599 -0.32734,-0.38822 -0.15915,-0.86872 -0.62944,-1.11981 -0.35841,-0.088 -1.23732,0.0897 -1.01966,-0.54931 0.15666,-0.3268 0.52745,-0.56301 0.8957,-0.49956 z m -0.9458,1.22403 c 0.4971,0.0521 0.49979,0.80138 0.11508,1.01616 -0.37421,0.22213 -0.83521,0.0837 -1.24272,0.0505 -0.51333,-0.0938 -1.05548,-0.23314 -1.46009,-0.57595 -0.23676,-0.41414 0.34229,-0.87949 0.70844,-0.56201 0.27733,0.38533 0.8443,0.48781 1.23454,0.2132 0.17922,-0.13809 0.42752,-0.15062 0.64475,-0.14194 z m 1.31466,3.52888 c 0.4688,0.17081 -0.12022,0.70428 -0.40627,0.7795 -0.77386,0.36334 -1.65406,0.17225 -2.41742,-0.1105 -0.47634,-0.40235 0.42843,-0.83299 0.78077,-0.55287 0.4295,0.22818 0.90823,0.11972 1.33647,-0.0446 0.22801,-0.0651 0.47102,-0.0738 0.70645,-0.0716 z m -0.69279,2.57684 c 0.42775,-5.1e-4 0.77172,0.78173 0.11677,0.58151 -0.42174,0.0832 -0.53558,-0.56739 -0.11677,-0.58151 z m 0.98273,0.6204 c 0.51539,0.0544 0.35629,0.87839 -0.14444,0.7859 -0.39627,-0.0947 -0.31693,-0.8802 0.14444,-0.7859 z m -1.61986,-0.0378 c 0.57228,0.0367 0.35498,0.77342 -0.0958,0.82452 -0.52079,0.10029 -0.55815,-0.78896 -0.0527,-0.82123 l 0.0641,-0.008 0.0844,0.005 z m 2.58337,0.40071 c 0.33596,0.20598 0.26235,0.73331 0.23335,1.08017 -0.0541,0.51993 -0.46369,0.87262 -0.84637,1.17531 -0.27839,0.30986 -1.03012,0.9268 -1.23292,0.24214 -0.17112,-0.50003 0.011,-1.07908 0.44824,-1.38215 0.43014,-0.27638 0.74992,-0.66826 1.09955,-1.02964 0.0844,-0.0631 0.19156,-0.10439 0.29815,-0.0858 z m -1.90576,0.43331 c 0.475,0.0487 0.39487,0.85153 -0.10226,0.71207 -0.32061,-0.0987 -0.27129,-0.74841 0.10226,-0.71207 z m -1.69534,-0.0578 c 0.6109,0.22295 -0.0188,0.957 0.43911,1.31561 0.0864,0.26669 0.79784,0.86212 0.22347,0.93039 -0.37067,-0.18525 -0.62708,-0.55574 -0.83201,-0.90647 -0.16851,-0.37094 -0.21501,-0.83206 -0.05,-1.21042 0.0456,-0.0728 0.1283,-0.13907 0.21946,-0.12911 z"
       sodipodi:nodetypes="cccccsccccccccccccccccccccccsccccscccccccccccccccc" />
    <path
       style="fill:#ffdd99;fill-opacity:1;stroke:none;stroke-width:0.1;stroke-linecap:round;stroke-linejoin:round"
       d="m 78.638258,139.13878 c 0.44275,-0.0293 0.12803,-0.88096 0.25119,-1.30725 0.0815,-0.28198 0.55469,-0.64301 0.32061,-0.82008 -0.19524,-0.1477 -0.45735,0.2348 -0.58548,0.4434 -0.18888,0.30753 -0.21857,0.70542 -0.19276,1.0654 0.0155,0.2168 -0.0104,0.6329 0.20644,0.61853 z"
       id="path13710-1-0"
       sodipodi:nodetypes="aaaaaa" />
    <path
       id="path15154-2-2"
       style="fill:#ffd580;fill-opacity:1;stroke:none;stroke-width:0.1;stroke-linecap:round;stroke-linejoin:round"
       d="m 78.284288,136.88274 c 0.31718,0.0179 0.31298,0.39313 0.0584,0.51324 -0.0493,0.19625 0.0165,0.41697 -0.0605,0.61729 -0.0759,0.25481 -0.37847,0.11905 -0.50443,-0.0171 -0.20804,-0.12314 -0.22365,-0.44932 -0.48754,-0.49685 -0.27217,-0.0743 -0.59079,0.0756 -0.83424,-0.1028 -0.25272,-0.23724 0.10331,-0.55759 0.36468,-0.39921 0.24811,0.0845 0.51915,0.21022 0.77865,0.0882 0.22451,-0.0761 0.43815,-0.2252 0.685,-0.20284 z m -0.37324,2.48316 c 0.25272,-0.0181 0.45215,0.48887 0.11202,0.46498 -0.26797,-0.045 -0.388,-0.29958 -0.11202,-0.46498 z m 0.77913,0.83911 c 0.18849,0.0574 0.25159,0.52154 -0.0257,0.40963 -0.28688,0.0992 -0.21802,-0.45865 0.0257,-0.40963 z m -1.62262,-0.0899 c 0.38872,0.0901 -0.22507,0.57879 -0.17658,0.15398 0.0181,-0.08 0.0838,-0.17 0.17658,-0.15398 z m 0.87149,0.76954 c 0.28179,0.009 0.37694,0.53875 0.0452,0.52831 -0.33507,0.029 -0.38894,-0.526 -0.0452,-0.52831 z m -1.8301,0.28446 c 0.36681,0.0795 0.0871,0.50953 0.24739,0.74596 0.0811,0.28619 -0.26951,0.15551 -0.25066,-0.0516 -0.0204,-0.22252 -0.23605,-0.45569 -0.106,-0.6692 0.0295,-0.0262 0.0718,-0.0306 0.10927,-0.0251 z m 2.11462,0.7427 c 0.26826,0.0791 0.19032,0.60361 0.52822,0.55296 0.14536,-0.11324 0.55699,-0.28839 0.41952,0.0699 -0.18083,0.27219 -0.41488,0.53469 -0.71851,0.67006 -0.24598,0.11816 -0.52005,-0.0829 -0.54704,-0.34102 -0.0595,-0.29798 -0.0527,-0.65135 0.154,-0.89215 0.0433,-0.0409 0.10358,-0.0668 0.16381,-0.0598 z" />
    <path
       style="fill:none;stroke:#000000;stroke-width:0.2;stroke-linecap:round;stroke-linejoin:round;stroke-dasharray:none"
       d="m 77.987158,141.96113 -0.0112,0.67516 c -6.3e-4,0.0378 0.0507,0.0688 0.0882,0.0704 0.0627,0.003 0.11151,-0.0614 0.15749,-0.10463 m 0.41784,-0.39308 0.67765,-0.63748 c 0.0524,-0.0493 0.0994,-0.106 0.13438,-0.16901 0.0222,-0.0401 0.0365,-0.0848 0.046,-0.12971 v 0 l -0.0151,-0.521"
       id="path45027-0-7"
       sodipodi:nodetypes="csaccsassc" />
    <path
       style="fill:none;stroke:#000000;stroke-width:0.2;stroke-linecap:round;stroke-linejoin:round;stroke-dasharray:none"
       d="m 79.328348,136.40082 c -0.0164,0.0247 -0.0333,0.0484 -0.0495,0.071 -0.31608,0.44142 -0.95634,0.53001 -1.48167,0.64128 -0.44202,0.0936 -0.92988,0.16759 -1.35403,0.0113 -0.0694,-0.0256 -0.12407,-0.0447 -0.17592,-0.0672 m -1.02323,-1.19 c -0.18825,-0.44755 -0.26488,-0.91966 -0.22407,-1.40615 m 0.783,-1.43908 c 0.0603,-0.0417 0.12327,-0.076 0.21507,-0.1289 0.56043,-0.32299 1.27655,-0.5757 1.89333,-0.38939 0.21378,0.0646 0.38053,0.10916 0.56031,0.23878 m 0.93469,1.12094 c 0.0314,0.0655 0.0533,0.13405 0.0849,0.22194 0.10344,0.28709 0.18005,0.64877 0.15314,0.98187"
       id="path37294-3-9-5"
       sodipodi:nodetypes="csasccccssccsc" />
    <path
       style="fill:none;stroke:#000000;stroke-width:0.2;stroke-linecap:round;stroke-linejoin:round;stroke-dasharray:none"
       d="m 77.731698,138.02194 c 0.052,0.0618 0.16976,0.0705 0.23949,0.0298 0.0588,-0.0343 0.0885,-0.12141 0.0793,-0.18912 -0.007,-0.0524 -0.067,-0.0619 -0.0981,-0.12372 -0.0195,-0.0387 -0.0284,-0.12026 -0.0477,-0.1698"
       id="path37298-9-3-9"
       sodipodi:nodetypes="caasc" />
    <path
       style="fill:none;stroke:#000000;stroke-width:0.2;stroke-linecap:round;stroke-linejoin:round;stroke-dasharray:none"
       d="m 75.543928,136.81016 c -0.0707,-0.0304 -0.12695,-0.10593 -0.14536,-0.18177 -0.0164,-0.0677 -0.0156,-0.16528 0.0406,-0.20521"
       id="path37302-4-6-2"
       sodipodi:nodetypes="cac" />
    <path
       style="fill:none;stroke:#000000;stroke-width:0.2;stroke-linecap:round;stroke-linejoin:round;stroke-dasharray:none"
       d="m 75.251738,133.40776 c -0.0444,0.005 -0.0872,0.0352 -0.11553,0.0703 -0.0451,0.0559 -0.0788,0.13262 -0.0706,0.20375"
       id="path37304-7-0-2"
       sodipodi:nodetypes="cac" />
    <path
       style="fill:none;stroke:#000000;stroke-width:0.2;stroke-linecap:round;stroke-linejoin:round;stroke-dasharray:none"
       d="m 78.854908,133.10737 c 0.0262,-0.0548 0.11097,-0.0616 0.17077,-0.0569 0.0731,0.006 0.14819,0.0451 0.1953,0.10137 0.0414,0.0494 0.0804,0.12432 0.0577,0.18475"
       id="path37306-8-6-8"
       sodipodi:nodetypes="caac" />
    <path
       style="fill:none;stroke:#000000;stroke-width:0.2;stroke-linecap:round;stroke-linejoin:round;stroke-dasharray:none"
       d="m 75.523568,133.78256 c 0.0439,0.0246 0.0879,0.0905 0.14016,0.0829"
       id="path37310-4-2-9"
       sodipodi:nodetypes="cc" />
    <path
       style="fill:none;stroke:#000000;stroke-width:0.2;stroke-linecap:round;stroke-linejoin:round;stroke-dasharray:none"
       d="m 76.091258,133.66867 c 0.0492,-0.0209 0.11123,0.0161 0.15322,0.0502"
       id="path37312-5-6-7"
       sodipodi:nodetypes="cc" />
    <path
       style="fill:none;stroke:#000000;stroke-width:0.2;stroke-linecap:round;stroke-linejoin:round;stroke-dasharray:none"
       d="m 76.018868,134.17734 c 0,0 0.0749,0.0442 0.11581,0.0425"
       id="path37314-0-1-3"
       sodipodi:nodetypes="cc" />
    <path
       style="fill:none;stroke:#000000;stroke-width:0.2;stroke-linecap:round;stroke-linejoin:round;stroke-dasharray:none"
       d="m 76.602388,134.00139 c 0.0444,-10e-4 0.0893,-0.008 0.1359,-0.0165"
       id="path37316-3-8-6"
       sodipodi:nodetypes="cc" />
    <path
       style="fill:none;stroke:#000000;stroke-width:0.2;stroke-linecap:round;stroke-linejoin:round;stroke-dasharray:none"
       d="m 77.079118,133.64947 c 0.0537,-0.0358 0.13483,-0.0388 0.19236,-0.01"
       id="path37318-6-7-1"
       sodipodi:nodetypes="cc" />
    <path
       style="fill:none;stroke:#000000;stroke-width:0.2;stroke-linecap:round;stroke-linejoin:round;stroke-dasharray:none"
       d="m 77.638288,133.96809 c 0.0627,-0.006 0.10253,-0.0271 0.15696,-0.0445"
       id="path37320-1-9-2"
       sodipodi:nodetypes="cc" />
    <path
       style="fill:none;stroke:#000000;stroke-width:0.2;stroke-linecap:round;stroke-linejoin:round;stroke-dasharray:none"
       d="m 77.116688,134.25661 c 0.0389,0.0113 0.0846,0.0154 0.12152,-0.002"
       id="path37322-0-2-9"
       sodipodi:nodetypes="cc" />
    <path
       style="fill:none;stroke:#000000;stroke-width:0.2;stroke-linecap:round;stroke-linejoin:round;stroke-dasharray:none"
       d="m 78.064898,133.54222 c 0.0267,-0.0413 0.0646,-0.0504 0.10316,-0.0607 0.0402,-0.0107 0.0897,-0.0345 0.12473,0.001"
       id="path37324-6-0-3"
       sodipodi:nodetypes="cac" />
    <path
       style="fill:none;stroke:#000000;stroke-width:0.2;stroke-linecap:round;stroke-linejoin:round;stroke-dasharray:none"
       d="m 78.701298,133.68033 c 0.0455,-0.0239 0.0494,-0.0183 0.0722,-0.0648"
       id="path37326-3-2-1"
       sodipodi:nodetypes="cc" />
    <path
       style="fill:none;stroke:#000000;stroke-width:0.2;stroke-linecap:round;stroke-linejoin:round;stroke-dasharray:none"
       d="m 78.242408,134.06267 c 0,0 0.0773,0.008 0.11399,-0.002 0.0169,-0.005 0.0459,-0.0261 0.0459,-0.0261"
       id="path37328-2-3-9"
       sodipodi:nodetypes="cac" />
    <path
       style="fill:none;stroke:#000000;stroke-width:0.2;stroke-linecap:round;stroke-linejoin:round;stroke-dasharray:none"
       d="m 76.514858,136.14067 c 0.0471,-0.0304 0.12183,-0.0204 0.1668,0.0131"
       id="path37330-0-7-4"
       sodipodi:nodetypes="cc" />
    <path
       style="fill:none;stroke:#000000;stroke-width:0.2;stroke-linecap:round;stroke-linejoin:round;stroke-dasharray:none"
       d="m 75.906528,136.50277 c 0,0 0.12369,0.0735 0.20674,0.0894"
       id="path37332-6-5-7"
       sodipodi:nodetypes="cc" />
    <path
       style="fill:none;stroke:#000000;stroke-width:0.2;stroke-linecap:round;stroke-linejoin:round;stroke-dasharray:none"
       d="m 76.553508,136.68027 c 0.0247,-0.004 0.0945,0.0337 0.10969,0.0134"
       id="path37334-1-9-8"
       sodipodi:nodetypes="cc" />
    <path
       style="fill:none;stroke:#000000;stroke-width:0.2;stroke-linecap:round;stroke-linejoin:round;stroke-dasharray:none"
       d="m 77.027118,136.6107 c 0.0462,0.007 0.0334,0.006 0.0684,0.004"
       id="path37336-5-2-4"
       sodipodi:nodetypes="cc" />
    <path
       style="fill:none;stroke:#000000;stroke-width:0.2;stroke-linecap:round;stroke-linejoin:round;stroke-dasharray:none"
       d="m 77.210548,136.12281 c 0.002,-0.0443 0.0357,-0.0887 0.0749,-0.10887 0.03,-0.0154 0.0677,-0.003 0.10111,0.002"
       id="path37338-5-2-5"
       sodipodi:nodetypes="cac" />
    <path
       style="fill:none;stroke:#000000;stroke-width:0.2;stroke-linecap:round;stroke-linejoin:round;stroke-dasharray:none"
       d="m 77.545468,136.66167 c 0.0286,0.009 0.0611,-1.2e-4 0.0894,-0.0103"
       id="path37340-4-8-0"
       sodipodi:nodetypes="cc" />
    <path
       style="fill:none;stroke:#000000;stroke-width:0.2;stroke-linecap:round;stroke-linejoin:round;stroke-dasharray:none"
       d="m 77.822298,136.23239 c 0.0182,-0.004 0.0425,-0.01 0.0632,-0.0177"
       id="path37342-7-9-3"
       sodipodi:nodetypes="cc" />
    <path
       style="fill:none;stroke:#000000;stroke-width:0.2;stroke-linecap:round;stroke-linejoin:round;stroke-dasharray:none"
       d="m 78.091288,135.7618 c 0.0254,-0.0267 0.0588,-0.0548 0.0956,-0.0557 0.0316,-7.2e-4 0.0644,0.0191 0.0839,0.0439"
       id="path37344-6-7-6"
       sodipodi:nodetypes="cac" />
    <path
       style="fill:none;stroke:#000000;stroke-width:0.2;stroke-linecap:round;stroke-linejoin:round;stroke-dasharray:none"
       d="m 78.612098,136.07546 c 0.0725,6.1e-4 0.0915,0.016 0.18575,-0.0163 0.12607,-0.0433 0.20451,-0.0577 0.30877,-0.14107"
       id="path37346-5-3-1"
       sodipodi:nodetypes="csc" />
    <path
       style="fill:none;stroke:#000000;stroke-width:0.2;stroke-linecap:round;stroke-linejoin:round;stroke-dasharray:none"
       d="m 79.584828,135.55069 c 0.0309,-0.002 0.0891,0.0244 0.11533,0.0586 0.0167,0.0218 0.0161,0.0532 0.017,0.0807 0.002,0.0574 0.001,0.11912 -0.0244,0.17064 -0.0187,0.038 -0.0526,0.0783 -0.0889,0.0907"
       id="path37348-6-6-0"
       sodipodi:nodetypes="caaac" />
    <path
       style="fill:none;stroke:#000000;stroke-width:0.2;stroke-linecap:round;stroke-linejoin:round;stroke-dasharray:none"
       d="m 78.230238,136.51434 c 0.0279,0.0157 0.0637,0.023 0.0947,0.0151 0.0292,-0.007 0.0556,-0.0296 0.0717,-0.0554"
       id="path37350-9-1-6"
       sodipodi:nodetypes="cac" />
    <path
       style="fill:none;stroke:#000000;stroke-width:0.2;stroke-linecap:round;stroke-linejoin:round;stroke-dasharray:none"
       d="m 76.696618,137.70741 c 0.12175,0.11582 0.29832,0.29056 0.39041,0.4135 0.0705,0.0942 0.15122,0.22544 0.22895,0.36166"
       id="path37775-3-2-3"
       sodipodi:nodetypes="csc" />
    <path
       style="fill:none;stroke:#000000;stroke-width:0.2;stroke-linecap:round;stroke-linejoin:round;stroke-dasharray:none"
       d="m 78.538898,138.60573 c 0.0217,-0.21057 0.0615,-0.54975 0.11036,-0.75006 0.0276,-0.11325 0.0903,-0.28468 0.13962,-0.41221"
       id="path37781-5-9-2"
       sodipodi:nodetypes="csc" />
    <path
       style="fill:none;stroke:#000000;stroke-width:0.2;stroke-linecap:round;stroke-linejoin:round;stroke-dasharray:none"
       d="m 78.176268,140.5549 c -0.037,-0.0671 -0.12607,-0.11673 -0.20201,-0.10942 -0.0831,0.008 -0.15463,0.0851 -0.19207,0.15947 -0.0376,0.0747 -0.0553,0.17772 -0.0142,0.25113"
       id="path42371-3-0"
       sodipodi:nodetypes="caac" />
    <path
       style="fill:none;stroke:#000000;stroke-width:0.2;stroke-linecap:round;stroke-linejoin:round;stroke-dasharray:none"
       d="m 77.076858,139.91196 c -0.0577,0.0544 -0.0757,0.15141 -0.0612,0.22909 0.0166,0.0887 0.0749,0.1866 0.15963,0.2192 0.0714,0.0275 0.1716,0.008 0.22503,-0.0464"
       id="path42397-1-6"
       sodipodi:nodetypes="caac" />
    <path
       style="fill:none;stroke:#000000;stroke-width:0.2;stroke-linecap:round;stroke-linejoin:round;stroke-dasharray:none"
       d="m 77.963588,139.46953 c -0.0478,-0.0564 -0.14032,-0.0842 -0.21175,-0.0661 -0.0768,0.0195 -0.13962,0.0956 -0.16461,0.17062 -0.0285,0.0856 -0.025,0.19959 0.0332,0.26923"
       id="path42399-9-1"
       sodipodi:nodetypes="caac" />
    <path
       style="fill:none;stroke:#000000;stroke-width:0.2;stroke-linecap:round;stroke-linejoin:round;stroke-dasharray:none"
       d="m 78.343078,139.75793 c -0.0478,0.0685 -0.0354,0.17298 -0.003,0.24968 0.0325,0.077 0.0994,0.15723 0.18199,0.1734 0.0725,0.0142 0.16219,-0.0218 0.20674,-0.0805"
       id="path42401-4-5"
       sodipodi:nodetypes="caac" />
    <path
       style="fill:none;stroke:#000000;stroke-width:0.2;stroke-linecap:round;stroke-linejoin:round;stroke-dasharray:none"
       d="m 77.023138,140.82966 0.53835,0.46615 c 0.0698,0.0605 0.16376,0.10064 0.2558,0.10508 0.0917,0.004 0.19351,-0.0204 0.26422,-0.0797 m 0.2436,-0.20433 0.65449,-0.549 m 0.18314,-0.15362 c 0.083,-0.0697 0.13331,-0.18365 0.14581,-0.29173 0.009,-0.0785 0.006,-0.18097 -0.0547,-0.23021 l -0.52361,-0.42207 m -0.21209,-0.17096 -0.46495,-0.37478 c -0.0849,-0.0684 -0.20992,-0.0808 -0.31836,-0.0715 -0.1007,0.009 -0.20281,0.0507 -0.28094,0.11554 l -0.67145,0.55709 m -0.34954,0.29 c -0.0873,0.0724 -0.13136,0.20871 -0.11544,0.32136 0.0127,0.09 0.0913,0.16065 0.15957,0.2198"
       id="path42403-7-5"
       sodipodi:nodetypes="csaccccasccsasccac" />
    <path
       style="fill:none;stroke:#000000;stroke-width:0.2;stroke-linecap:round;stroke-linejoin:round;stroke-dasharray:none"
       d="m 76.093708,140.66762 0.0186,0.22151 m 0.0443,0.52678 c 0.005,0.0652 0.046,0.12313 0.0804,0.17849 0.0496,0.0798 0.10947,0.15442 0.179,0.21727 m 0.47856,0.43253 0.50349,0.45506"
       id="path43051-8-4"
       sodipodi:nodetypes="cccaccc" />
    <path
       id="path17014"
       style="fill:#e9ffe5;fill-opacity:1;stroke:none;stroke-width:0.2;stroke-linecap:round;stroke-linejoin:round;stroke-dasharray:none"
       d="m 88.038418,132.23148 c -1.86499,0.0179 -3.84647,1.20314 -4.17639,3.14873 -0.36379,1.5029 0.53231,3.11988 1.9596,3.67744 1.99188,0.97973 4.18997,0.084 6.25179,-0.0944 1.50512,-0.24548 3.06338,-0.37909 4.52893,-0.73236 0.77536,-0.57774 1.71296,-1.39073 1.44531,-2.47442 0.0207,-0.6406 0.12822,-1.57811 -0.65403,-1.81593 -1.37624,-0.76545 -2.87482,-1.58005 -4.49856,-1.3907 z"
       sodipodi:nodetypes="ccccccccc" />
    <path
       id="path19211"
       style="fill:#d9f7d4;fill-opacity:1;stroke:none;stroke-width:0.2;stroke-linecap:round;stroke-linejoin:round;stroke-dasharray:none"
       d="m 96.391938,137.66312 c -1.00664,0.70519 -2.24836,-0.34335 -3.29297,0.27734 -0.57969,0.21117 -1.34463,0.63934 -1.9043,0.18359 -0.21242,-0.7036 -1.17236,-0.36146 -1.64683,-0.13163 -0.79468,0.44405 -1.71737,0.64208 -2.48403,1.12187 -0.47735,0.67716 0.39388,1.26194 0.56446,1.87109 0.41838,1.2508 0.31034,2.84185 1.51758,3.6836 1.06942,0.99183 2.81414,1.4276 4.06445,0.50585 0.86584,-0.52639 1.54484,-1.43642 2.5,-1.89453 1.43064,-1.26329 1.50514,-3.36437 1.21679,-5.12304 -0.0747,-0.23184 -0.2684,-0.50182 -0.53515,-0.49414 z" />
    <path
       id="path20126"
       style="fill:#d4ffcc;fill-opacity:1;stroke:none;stroke-width:0.2;stroke-linecap:round;stroke-linejoin:round;stroke-dasharray:none"
       d="m 87.358738,132.47366 c -1.18857,0.29612 -1.12071,1.9607 -2.21875,2.43164 -0.59439,0.42017 -1.64308,0.99634 -1.25196,1.88282 0.73062,1.08485 2.23271,0.97134 3.37696,0.96289 0.52284,-0.16094 1.00353,-0.96928 1.58398,-0.58594 0.28229,0.80846 -1.16775,1.28606 -0.59375,2.0625 0.78638,0.71302 1.92142,0.15925 2.85117,0.16786 0.48926,0.0399 0.54971,-0.19973 0.43399,-0.61122 0.23796,-0.48986 0.93713,0.14312 1.25,-0.2793 0.28766,-0.27979 0.43861,0.31656 0.96679,0.0488 0.38544,-0.16535 0.68794,-0.51683 1.14453,-0.48242 0.43037,-0.25623 0.42041,-1.12811 1.08399,-0.97852 0.43574,-0.078 0.8124,-0.14054 1.25976,-0.1289 0.77257,-0.27284 0.53235,-1.36013 0.40239,-1.95518 -0.0153,-0.48779 -0.70168,-0.56418 -0.75395,-1.05654 -0.356,-0.44535 -1.06663,0.0291 -1.375,-0.46875 -0.57896,-0.1629 -0.95958,-0.60811 -1.57812,-0.66602 -0.44755,0.18673 -1.05985,-0.31047 -1.44918,0.20194 -0.33161,0.29306 -0.85708,0.17457 -1.14262,-0.0262 -0.44118,0.44931 -0.53384,-0.25937 -0.87305,-0.38086 -0.74494,0.01 -1.5161,0.23826 -2.2429,-0.0754 -0.26424,-0.12382 -0.60267,0.009 -0.87428,-0.0633 z m 2.69726,1.10547 c 0.0292,0.59992 -0.55546,-0.15986 -0.0277,-0.0167 z m -0.44141,0.13867 c 0.64818,0.53127 -0.7353,0.25953 0,0 z m 2.09571,3.0293 c 0.24171,0.0615 0.84919,0.0635 0.71484,0.4082 -0.42719,-0.1395 -0.86122,-0.0621 -1.1914,0.26953 -0.47026,0.25286 -0.54703,-0.67441 -0.0254,-0.62304 0.16571,-0.0312 0.33414,-0.0418 0.50196,-0.0547 z"
       sodipodi:nodetypes="ccccccccccccccccccccccccccccscccs" />
    <path
       id="path21099"
       style="fill:#bfffb3;fill-opacity:1;stroke:none;stroke-width:0.2;stroke-linecap:round;stroke-linejoin:round;stroke-dasharray:none"
       d="m 87.616548,132.8096 c -0.63803,0.29086 -1.69648,0.43512 -1.86328,1.23242 0.37767,0.50545 0.95596,-0.12644 1.35937,-0.25976 0.43462,0.25804 -0.19712,0.73635 -0.28906,1.03711 -0.0187,0.48133 0.72205,0.58958 0.79854,0.0742 0.11422,-0.36613 0.6402,-0.92174 0.90458,-0.36134 -0.16122,0.48215 0.18234,0.87963 0.61915,1.02539 0.30231,0.34092 -0.67914,0.84196 -0.0918,1.00781 0.41288,0.008 0.6591,-0.36699 0.91797,-0.61133 0.27609,0.17863 0.33101,0.63594 0.74545,0.66293 0.61261,-0.0282 0.22801,-0.72715 -0.056,-0.94027 -0.10504,-0.41213 0.57417,-0.48747 0.58458,-0.95313 0.29769,-0.63887 1.3115,-0.50149 1.63222,0.0371 0.12867,0.51567 0.0646,1.07319 -0.29297,1.49805 0.0695,0.56257 0.78244,0.21748 0.879,-0.17008 0.31438,-0.41666 0.19306,-0.98868 0.19882,-1.42036 0.51364,-0.084 1.12114,-0.22998 1.63897,-0.33339 0.11789,0.31764 -0.68555,0.36441 -0.26475,0.77944 0.16119,0.37499 -0.28173,1.02864 0.27843,1.17759 0.73302,-0.0599 0.66921,-0.98065 0.43554,-1.44726 0.16617,-0.59003 0.81107,0.0396 0.82497,0.41009 0.28109,0.5039 -0.23732,1.29911 0.35081,1.64655 0.58433,-0.0888 0.28903,-0.83539 0.47852,-1.22461 0.17893,-0.77921 -0.43675,-1.65006 -1.26758,-1.58789 -0.36572,-0.2865 -0.18707,-1.11673 -0.85221,-1.04246 -0.5443,-0.13961 -1.09373,0.1386 -1.59077,-0.14182 -0.52766,-0.13033 -0.84913,0.54293 -1.34433,0.24379 -0.69159,-0.25776 -1.57562,-0.37487 -2.14042,0.22564 -0.3583,0.42329 -0.53662,0.95291 -0.41211,1.51172 -0.48178,0.27935 -0.8631,-0.52507 -0.78711,-0.95898 -0.17273,-0.54167 0.58529,-0.3243 0.32031,-0.80469 -0.26195,-0.44662 -0.74805,0.1937 -1.1506,0.0448 -0.2495,0.0163 -0.46324,-0.16542 -0.56424,-0.35729 z m 3.50976,0.6543 c 0.12121,0.54923 -0.55099,-0.27716 0,0 z m 1.06446,0.5664 c 0.32547,0.42658 -0.57696,0.10589 0,0 z m -7.30469,0.39649 c -1.13166,0.54192 -0.95151,2.12674 -0.31445,2.97851 0.15656,0.3801 1.09758,0.26774 0.65516,-0.15205 -0.44445,-0.2083 -0.5294,-0.81488 -0.0516,-1.0374 0.59468,-0.3673 1.30455,0.18958 1.33594,0.81445 0.42461,0.33134 0.84545,-0.46272 0.42176,-0.73896 -0.52119,-0.6992 -0.92811,-2.10836 -2.04676,-1.86455 z" />
    <path
       id="path22458"
       style="fill:#a9ff99;fill-opacity:1;stroke:none;stroke-width:0.2;stroke-linecap:round;stroke-linejoin:round;stroke-dasharray:none"
       d="m 89.011078,132.69632 c -0.40709,0.0464 -0.78891,0.92696 -0.11914,0.77539 0.42339,-0.11611 0.88507,-0.20505 1.29883,-0.0469 0.42081,-0.16794 -0.0149,-0.72202 -0.35472,-0.64855 z m -1.82227,0.0449 c -0.43328,0.0476 -0.24806,0.83142 0.17188,0.60352 0.58914,-0.12276 0.56541,0.43234 0.0391,0.49414 -0.25252,0.43187 -0.48796,-0.0386 -0.60351,-0.28321 -0.28133,-0.28643 -0.99859,0.12607 -0.50586,0.39063 0.21122,0.16182 0.92027,0.11715 0.50586,0.56055 -0.27601,0.29309 0.0489,1.16165 0.41997,0.67045 0.28298,-0.36896 0.39277,-1.13894 1.00971,-1.01225 0.44747,0.26534 0.5116,1.16258 1.10157,1.0957 0.24554,-0.45077 -0.32664,-0.86234 -0.48633,-1.25976 -0.17402,-0.32936 -0.6502,-0.33981 -0.84243,-0.50182 0.35443,-0.25453 -0.0478,-0.79288 -0.49156,-0.71498 -0.10328,-0.0285 -0.20937,-0.0741 -0.31836,-0.043 z m 6.06055,0.24414 c -0.36208,0.12733 -0.70385,0.39583 -0.88867,0.70703 0.11503,0.38567 0.56333,0.66077 0.43928,1.10611 0.0277,0.33731 0.44476,1.01642 0.72673,0.46811 0.11025,-0.47815 -0.2693,-0.95371 -0.16406,-1.40234 0.46511,-0.38545 0.67103,0.0348 0.98597,0.23194 0.45124,0.0408 0.46557,-0.0826 0.66052,-0.27296 0.12119,0.15398 0.0682,0.61484 0.45703,0.57227 0.4697,-0.35471 -0.007,-1.22474 -0.58789,-1.11719 -0.55225,0.2458 -0.71523,-0.131 -1.20005,-0.23845 -0.14615,0.005 -0.28535,-0.0759 -0.42886,-0.0545 z m -2.85156,0.60156 c -0.39205,0.38155 -0.40671,1.02604 -0.39594,1.5331 0.0709,0.54577 0.63719,1.42819 1.24945,1.05675 0.1315,-0.54949 -0.75622,-0.83506 -0.58398,-1.45508 -0.10001,-0.39515 0.45329,-1.06334 -0.13281,-1.1875 l -0.0933,0.036 z m 6.16992,0.51954 c -0.47195,-0.15601 -0.74114,0.4835 -0.27226,0.66764 0.53378,0.11817 0.47352,0.60809 0.39921,1.03939 -0.015,0.3625 0.43419,1.0181 0.77539,0.59375 0.38963,-0.46338 0.18104,-1.0582 -0.0483,-1.54109 -0.0737,-0.41973 -0.35747,-0.87863 -0.85407,-0.75969 z m -1.14258,0.61718 c -0.40696,0.21502 0.0662,0.76078 -0.17578,1.07813 0.0927,0.53983 0.73512,0.29694 0.81641,-0.11524 0.13857,-0.40674 -0.19411,-0.97196 -0.64063,-0.96289 z m -10.08008,0.77539 c -0.83351,0.0325 -1.62989,1.32462 -0.82421,1.88477 0.67418,-0.032 0.12678,-1.03255 0.62109,-1.26758 -0.0183,-0.5225 0.33101,0.0988 0.67117,0.0146 0.30108,0.18666 1.04499,0.2033 0.77024,-0.31736 -0.292,-0.36976 -0.82185,-0.2958 -1.23829,-0.31446 z m 4.28711,0.52539 c -0.40962,-0.0324 -0.9052,0.87474 -0.26562,0.81055 0.35792,-0.0199 0.99964,-0.86485 0.26562,-0.81055 z m 0.95118,0.4961 c -0.0429,0.39381 0.2293,-0.029 0,0 z"
       sodipodi:nodetypes="cccccccccccccccccsccccccccccccccccccccccccccccccccccccccccccc" />
    <path
       id="path23905"
       style="fill:#cee8c9;fill-opacity:1;stroke:none;stroke-width:0.2;stroke-linecap:round;stroke-linejoin:round;stroke-dasharray:none"
       d="m 92.425138,138.00491 c -1.45329,0.44595 -3.49873,-0.44556 -4.50781,0.69141 -0.49406,0.55667 -0.24945,1.50834 -0.074,2.23166 0.36775,1.5161 0.87095,3.41921 2.281,4.0867 0.95836,0.45367 2.20849,-0.0388 3.13099,-0.56153 1.2511,-0.70895 2.33366,-1.90372 2.83537,-3.25136 0.35067,-0.94193 0.66585,-2.27423 -0.0132,-3.01524 -0.76458,-0.83436 -2.26661,-0.50851 -3.38086,-0.31054 -0.0986,0.0175 -0.17572,0.0995 -0.27149,0.1289 z m -3.60547,1.82227 c 0.93972,0.28757 1.90081,2.3806 1,2.77344 -0.31361,0.13676 -0.32783,-0.60123 -0.4707,-0.91211 -0.2605,-0.56683 -0.87397,-1.1344 -0.70312,-1.73438 0.0196,-0.069 0.10521,-0.14794 0.17382,-0.12695 z m 1.28125,3.23047 c 0.14329,0.32125 0.99823,0.42519 0.78516,0.70508 -0.23837,0.31311 -1.04385,-0.24635 -0.99414,-0.63672 0.009,-0.0727 0.14964,-0.11142 0.20898,-0.0684 1e-5,10e-6 -10e-6,3e-5 0,4e-5 z"
       sodipodi:nodetypes="aaaaaaaaaaaaaaaaaaa" />
    <path
       id="path22840"
       style="fill:#ffffe5;fill-opacity:1;stroke:none;stroke-width:0.2;stroke-linecap:round;stroke-linejoin:round;stroke-dasharray:none"
       d="m 94.227878,135.29788 c -0.57454,0.45965 -0.35745,1.55468 0.24218,1.86914 0.5475,-0.25662 0.2956,-1.04271 0.25,-1.52539 -0.04,-0.20929 -0.25431,-0.50909 -0.49218,-0.34375 z m -2.49024,0.65625 c -0.7474,0.39946 -0.57629,1.61938 -0.0215,2.09961 0.65326,0.12635 0.54622,-0.78843 0.55899,-1.20324 -0.0259,-0.32874 -0.14296,-0.86528 -0.53751,-0.89637 z m -3.79101,0.1875 c -0.54029,0.54599 -0.48972,1.63059 0.15429,2.08594 0.59885,-0.0319 0.25336,-0.82691 0.345,-1.21323 0.0313,-0.31828 -0.0291,-1.06494 -0.49929,-0.87271 z m 8.33007,0.10742 c -0.39067,0.28849 -0.25449,0.90311 -0.55859,1.26172 -0.15847,0.47557 0.41478,0.7113 0.67383,0.2793 0.26192,-0.35907 0.1796,-0.83691 0.24805,-1.25781 -0.004,-0.18688 -0.17551,-0.35358 -0.36329,-0.28321 z m -10.73632,0.16797 c -0.31703,0.57835 0.56037,0.84011 0.66598,1.35789 0.25872,0.35217 0.26144,1.12597 0.78519,1.14211 0.48753,-0.44149 0.0321,-1.19854 -0.25919,-1.65078 -0.29732,-0.37758 -0.72147,-0.76549 -1.19198,-0.84922 z m 4.89453,3.45703 c -0.59401,0.52409 0.23873,1.27025 0.0849,1.92214 -0.0131,0.71309 -0.57431,1.57365 -0.0341,2.197 0.65084,0.21967 0.71767,-0.73851 0.77734,-1.17382 0.0907,-1.01399 -0.1235,-2.14637 -0.74804,-2.94532 l -0.0469,-0.006 z" />
    <path
       id="path35"
       style="fill:#fffbcc;fill-opacity:1;stroke:none;stroke-width:0.2;stroke-linecap:round;stroke-linejoin:round;stroke-dasharray:none"
       d="m 94.247408,135.76859 c -0.32492,0.3397 -0.16339,0.97816 0.21875,1.20703 0.21458,-0.35724 0.0835,-0.97015 -0.21875,-1.20703 z m -6.38672,0.76562 c -0.17681,0.51491 -0.0765,1.18129 0.27734,1.57617 0.34267,-0.31978 -0.11542,-0.84126 -0.0548,-1.2504 -0.0403,-0.11143 -0.0349,-0.43578 -0.22257,-0.32577 z m 8.49805,0.0723 c -0.4511,0.22671 -0.43488,0.87492 -0.53907,1.28125 0.50286,0.005 0.92133,-0.80126 0.71289,-1.24805 -0.0489,-0.0375 -0.11496,-0.0443 -0.17382,-0.0332 z m -10.40235,0.11523 c -0.25456,0.52744 0.54741,0.82797 0.64649,1.31641 0.0764,0.34919 0.60397,1.08562 0.47121,0.26616 -0.11772,-0.64243 -0.58526,-1.23722 -1.1177,-1.58257 z m 5.75586,0.46875 c -0.13965,0.38769 0.023,1.12948 0.35938,0.44336 0.1326,-0.31318 0.0388,-0.86492 -0.33008,-0.91602 -0.01,0.15756 -0.0195,0.31511 -0.0293,0.47266 z m -1.18359,3.1543 c -0.12801,0.63513 0.43709,1.22165 0.20703,1.86367 0.0288,0.44357 -0.33015,0.97691 0.01,1.35703 0.64288,-0.54903 0.16705,-1.49886 0.22681,-2.21322 -0.0498,-0.31285 0.0393,-1.10068 -0.4436,-1.00748 z" />
    <path
       style="fill:none;stroke:#000000;stroke-width:0.2;stroke-linecap:round;stroke-linejoin:round;stroke-dasharray:none"
       d="m 79.898708,140.30452 c 0,0 1.51094,0.0366 2.25051,-0.0928 1.11371,-0.19487 2.20342,-0.58094 3.23511,-1.01934 0.16502,-0.0701 0.49687,-0.255 0.68807,-0.39803"
       id="path2928"
       sodipodi:nodetypes="casc" />
    <path
       style="fill:none;stroke:#000000;stroke-width:0.2;stroke-linecap:round;stroke-linejoin:round;stroke-dasharray:none"
       d="m 80.251998,140.91883 c 0,0 3.22182,0.66712 4.81647,1.0693 0.97428,0.24573 2.90059,0.82043 2.90059,0.82043"
       id="path2930"
       sodipodi:nodetypes="cac" />
    <path
       style="fill:none;stroke:#000000;stroke-width:0.2;stroke-linecap:round;stroke-linejoin:round;stroke-dasharray:none"
       d="m 88.097608,142.39779 0.69923,-0.40049"
       id="path2932"
       sodipodi:nodetypes="cc" />
    <path
       style="fill:none;stroke:#000000;stroke-width:0.2;stroke-linecap:round;stroke-linejoin:round;stroke-dasharray:none"
       d="m 88.389808,142.76007 0.59031,-0.33811"
       id="path2934"
       sodipodi:nodetypes="cc" />
    <path
       style="fill:none;stroke:#000000;stroke-width:0.2;stroke-linecap:round;stroke-linejoin:round;stroke-dasharray:none"
       d="m 88.629398,143.09952 c 0.018,-0.0103 0.48037,-0.27514 0.48037,-0.27514"
       id="path2936"
       sodipodi:nodetypes="cc" />
    <path
       style="fill:none;stroke:#000000;stroke-width:0.2;stroke-linecap:round;stroke-linejoin:round;stroke-dasharray:none"
       d="m 89.058548,143.34597 0.62584,1.54042 0.6477,0.19174"
       id="path2968"
       sodipodi:nodetypes="ccc" />
    <path
       style="fill:none;stroke:#000000;stroke-width:0.2;stroke-linecap:round;stroke-linejoin:round;stroke-dasharray:none"
       d="m 88.238718,141.71511 0.12341,-0.93993 -0.93772,-0.81129 -0.13989,-0.91468"
       id="path2970"
       sodipodi:nodetypes="cccc" />
    <path
       style="fill:none;stroke:#000000;stroke-width:0.2;stroke-linecap:round;stroke-linejoin:round;stroke-dasharray:none"
       d="m 90.909508,145.27617 -0.35282,-3.78709 -0.44098,-1.9731"
       id="path2972"
       sodipodi:nodetypes="ccc" />
    <path
       style="fill:none;stroke:#000000;stroke-width:0.2;stroke-linecap:round;stroke-linejoin:round;stroke-dasharray:none"
       d="m 91.600018,145.38823 0.64409,0.0989 0.80459,-0.85256"
       id="path2974"
       sodipodi:nodetypes="ccc" />
    <path
       style="fill:none;stroke:#000000;stroke-width:0.2;stroke-linecap:round;stroke-linejoin:round;stroke-dasharray:none"
       d="m 86.340188,137.42166 c 0,0 -0.11426,-0.1533 -0.18021,-0.22221 -0.15451,-0.16148 -0.50172,-0.44497 -0.50172,-0.44497"
       id="path2980"
       sodipodi:nodetypes="cac" />
    <path
       style="fill:none;stroke:#000000;stroke-width:0.2;stroke-linecap:round;stroke-linejoin:round;stroke-dasharray:none"
       d="m 85.762448,137.58287 c 0,0 -0.78254,0.19569 -1.07435,-0.0115 -0.19614,-0.13928 -0.1635,-0.45192 -0.24401,-0.67833 -0.0987,-0.27771 -0.43169,-0.57396 -0.29318,-0.8342 0.0723,-0.13579 0.29549,-0.0895 0.44703,-0.1172 0.10029,-0.0184 0.30417,-0.0323 0.30417,-0.0323"
       id="path2982"
       sodipodi:nodetypes="caaaac" />
    <path
       style="fill:none;stroke:#000000;stroke-width:0.2;stroke-linecap:round;stroke-linejoin:round;stroke-dasharray:none"
       d="m 84.409938,135.249 c 0,0 0.29897,-0.36666 0.46447,-0.53527 0.0794,-0.0809 0.14104,-0.20746 0.2527,-0.22771 0.28329,-0.0514 0.55782,0.1663 0.80376,0.31572 0.15562,0.0945 0.41138,0.35911 0.41138,0.35911"
       id="path2984"
       sodipodi:nodetypes="caaac" />
    <path
       style="fill:none;stroke:#000000;stroke-width:0.2;stroke-linecap:round;stroke-linejoin:round;stroke-dasharray:none"
       d="m 85.931298,135.75961 c 0,0 0.51943,-0.12455 0.7185,0.008 0.20483,0.13677 0.2578,0.43487 0.29006,0.6787 0.0286,0.21646 -0.092,0.64856 -0.092,0.64856"
       id="path2986"
       sodipodi:nodetypes="caac" />
    <path
       style="fill:none;stroke:#000000;stroke-width:0.2;stroke-linecap:round;stroke-linejoin:round;stroke-dasharray:none"
       d="m 88.228808,138.10993 c 0,0 -0.17982,-0.47664 -0.22039,-0.72636 -0.0348,-0.214 -0.0179,-0.65016 -0.0179,-0.65016"
       id="path2988"
       sodipodi:nodetypes="cac" />
    <path
       style="fill:none;stroke:#000000;stroke-width:0.2;stroke-linecap:round;stroke-linejoin:round;stroke-dasharray:none"
       d="m 86.911468,135.2578 c 0,0 0.0528,-0.54589 0.21877,-0.74451 0.0506,-0.0605 0.15067,-0.056 0.21155,-0.10614 0.19804,-0.16305 0.2348,-0.50684 0.47041,-0.60862 0.24447,-0.1056 0.57213,-0.0679 0.79542,0.0771 0.30412,0.19748 0.29287,0.67639 0.5351,0.94598 0.098,0.10905 0.35764,0.25629 0.35764,0.25629"
       id="path2990"
       sodipodi:nodetypes="caaaaac" />
    <path
       style="fill:none;stroke:#000000;stroke-width:0.2;stroke-linecap:round;stroke-linejoin:round;stroke-dasharray:none"
       d="m 88.589648,136.58221 c 0,0 0.39194,0.1272 0.57645,0.0689 0.22946,-0.0725 0.45388,-0.25625 0.53701,-0.48166 0.0642,-0.17413 -0.0741,-0.55171 -0.0741,-0.55171"
       id="path2992"
       sodipodi:nodetypes="caac" />
    <path
       style="fill:none;stroke:#000000;stroke-width:0.2;stroke-linecap:round;stroke-linejoin:round;stroke-dasharray:none"
       d="m 85.667458,134.02169 c 0,0 0.18453,-0.21396 0.30819,-0.27431 0.22993,-0.11224 0.50465,-0.19017 0.75529,-0.13833 0.1366,0.0283 0.34771,0.23244 0.34771,0.23244"
       id="path2994"
       sodipodi:nodetypes="caac" />
    <path
       style="fill:none;stroke:#000000;stroke-width:0.2;stroke-linecap:round;stroke-linejoin:round;stroke-dasharray:none"
       d="m 86.766098,133.15529 c 0,0 0.47043,-0.27881 0.73399,-0.30064 0.23667,-0.0196 0.69466,0.15788 0.69466,0.15788"
       id="path2996"
       sodipodi:nodetypes="cac" />
    <path
       style="fill:none;stroke:#000000;stroke-width:0.2;stroke-linecap:round;stroke-linejoin:round;stroke-dasharray:none"
       d="m 88.533938,133.35949 c 0,0 0.12557,-0.11235 0.27162,-0.20889"
       id="path2998"
       sodipodi:nodetypes="cc" />
    <path
       style="fill:none;stroke:#000000;stroke-width:0.2;stroke-linecap:round;stroke-linejoin:round;stroke-dasharray:none"
       d="m 86.477808,138.55746 0.72744,-0.78354"
       id="path3026"
       sodipodi:nodetypes="cc" />
    <path
       style="fill:none;stroke:#000000;stroke-width:0.2;stroke-linecap:round;stroke-linejoin:round;stroke-dasharray:none"
       d="m 86.309478,138.07597 0.54532,-0.57952"
       id="path3028"
       sodipodi:nodetypes="cc" />
    <path
       style="fill:none;stroke:#000000;stroke-width:0.2;stroke-linecap:round;stroke-linejoin:round;stroke-dasharray:none"
       d="m 86.977658,138.71423 0.54532,-0.57951"
       id="path3030"
       sodipodi:nodetypes="cc" />
    <path
       style="fill:none;stroke:#000000;stroke-width:0.2;stroke-linecap:round;stroke-linejoin:round;stroke-dasharray:none"
       d="m 87.765158,138.67855 c 0,0 0.90629,-0.31182 1.37723,-0.38704 0.13855,-0.0221 0.42056,-0.018 0.42056,-0.018"
       id="path3032"
       sodipodi:nodetypes="cac" />
    <path
       style="fill:none;stroke:#000000;stroke-width:0.2;stroke-linecap:round;stroke-linejoin:round;stroke-dasharray:none"
       d="m 89.197718,137.66595 c 0,0 0.30012,-0.17358 0.46533,-0.22003 0.18657,-0.0525 0.37998,-0.0876 0.57455,-0.10307"
       id="path3034"
       sodipodi:nodetypes="csc" />
    <path
       style="fill:none;stroke:#000000;stroke-width:0.2;stroke-linecap:round;stroke-linejoin:round;stroke-dasharray:none"
       d="m 90.310058,138.83038 c 0,0 0.34596,-0.19167 0.65142,-0.31437"
       id="path3036"
       sodipodi:nodetypes="cc" />
    <path
       style="fill:none;stroke:#000000;stroke-width:0.2;stroke-linecap:round;stroke-linejoin:round;stroke-opacity:1"
       d="m 93.999288,143.44883 c 0,-0.13144 0.20853,-2.50762 0.20853,-2.50762"
       id="path3"
       sodipodi:nodetypes="cc" />
    <path
       style="fill:none;stroke:#000000;stroke-width:0.2;stroke-linecap:round;stroke-linejoin:round;stroke-opacity:1"
       d="m 94.688938,142.82814 1.28842,-1.38709 -0.0134,-3.32171"
       id="path4" />
    <path
       style="fill:none;stroke:#000000;stroke-width:0.2;stroke-linecap:round;stroke-linejoin:round;stroke-opacity:1"
       d="m 92.728388,140.8382 c -0.0331,-0.0796 -0.12751,-0.71747 -0.13186,-1.08018 -0.003,-0.2113 -0.0365,-0.44385 0.0617,-0.63093 0.0875,-0.16667 0.43158,-0.36431 0.43158,-0.36431"
       id="path5"
       sodipodi:nodetypes="cssc" />
    <path
       style="fill:none;stroke:#000000;stroke-width:0.2;stroke-linecap:round;stroke-linejoin:round;stroke-opacity:1"
       d="m 91.853268,138.16291 c 0.068,0.009 1.75303,-0.31698 1.75303,-0.31698 l 0.61848,0.81625 -0.044,1.07946"
       id="path6" />
    <path
       style="fill:none;stroke:#000000;stroke-width:0.2;stroke-linecap:round;stroke-linejoin:round;stroke-opacity:1"
       d="m 94.287888,137.49811 c 0.0801,-0.01 0.83529,-0.42179 0.83529,-0.42179 l 0.64206,0.4524"
       id="path7" />
    <path
       style="fill:none;stroke:#000000;stroke-width:0.2;stroke-linecap:round;stroke-linejoin:round;stroke-opacity:1"
       d="m 91.784068,137.81845 0.0882,-0.98908 -0.0776,-0.73657"
       id="path9" />
    <path
       style="fill:none;stroke:#000000;stroke-width:0.2;stroke-linecap:round;stroke-linejoin:round;stroke-opacity:1"
       d="m 91.128078,136.04318 c 0,-0.0602 -0.46511,-0.67354 -0.57573,-1.06016 -0.11038,-0.38577 -0.22115,-0.82909 -0.072,-1.20159 0.13651,-0.34092 0.44479,-0.68798 0.80669,-0.75032 0.44343,-0.0764 0.89039,0.2512 1.23906,0.53562 0.35671,0.29098 0.67281,0.68693 0.79149,1.13171 0.10271,0.38494 0.0415,0.82041 -0.106,1.19052 -0.084,0.21073 -0.2055,0.4671 -0.42238,0.53358 -0.10388,0.0318 -0.31079,-0.0983 -0.31079,-0.0983"
       id="path10"
       sodipodi:nodetypes="caaaaaaac" />
    <path
       style="fill:none;stroke:#000000;stroke-width:0.2;stroke-linecap:round;stroke-linejoin:round;stroke-opacity:1"
       d="m 94.555308,137.03177 c 0,0 -0.25348,-0.47158 -0.30203,-0.73059 -0.043,-0.22925 0.015,-0.69958 0.015,-0.69958"
       id="path11"
       sodipodi:nodetypes="cac" />
    <path
       style="fill:none;stroke:#000000;stroke-width:0.2;stroke-linecap:round;stroke-linejoin:round;stroke-opacity:1"
       d="m 93.652898,134.30227 c 0,0 0.53016,-0.67173 0.91582,-0.72451 0.29831,-0.0408 0.6824,0.0887 0.83291,0.34948 0.0795,0.13768 -0.0602,0.47308 -0.0602,0.47308"
       id="path12"
       sodipodi:nodetypes="caac" />
    <path
       style="fill:none;stroke:#000000;stroke-width:0.2;stroke-linecap:round;stroke-linejoin:round;stroke-opacity:1"
       d="m 94.917028,135.0525 c 0,0 0.54465,-0.19886 0.74107,-0.0482 0.2029,0.15563 0.25375,0.51841 0.1503,0.75226 -0.11745,0.2655 -0.46123,0.5007 -0.74677,0.44822 -0.0706,-0.013 -0.13311,-0.16916 -0.13311,-0.16916"
       id="path13"
       sodipodi:nodetypes="caaac" />
    <path
       style="fill:none;stroke:#000000;stroke-width:0.2;stroke-linecap:round;stroke-linejoin:round;stroke-opacity:1"
       d="m 96.062148,137.65832 c 0,0 0.21331,-0.46826 0.27803,-0.71596 0.0374,-0.14324 0.0623,-0.43975 0.0623,-0.43975"
       id="path14"
       sodipodi:nodetypes="cac" />
    <path
       style="fill:none;stroke:#000000;stroke-width:0.2;stroke-linecap:round;stroke-linejoin:round;stroke-opacity:1"
       d="m 96.764278,136.79562 c 0.0492,-0.0167 0.3594,-0.22766 0.45269,-0.40815 0.12639,-0.24453 0.12426,-0.54629 0.0964,-0.82013 -0.0373,-0.36609 -0.0546,-0.82459 -0.34705,-1.04798 -0.26405,-0.20171 -0.70084,-0.20726 -0.99541,-0.0535 -0.0687,0.0359 -0.12258,0.19773 -0.12258,0.19773"
       id="path15"
       sodipodi:nodetypes="caaaac" />
    <path
       style="fill:none;stroke:#000000;stroke-width:0.2;stroke-linecap:round;stroke-linejoin:round;stroke-opacity:1"
       d="m 89.418238,132.82784 c 0,0 0.39955,0.005 0.57475,0.0883 0.14511,0.0687 0.35835,0.32181 0.35835,0.32181"
       id="path16"
       sodipodi:nodetypes="cac" />
    <path
       style="fill:none;stroke:#000000;stroke-width:0.2;stroke-linecap:round;stroke-linejoin:round;stroke-opacity:1"
       d="m 92.904188,133.41046 c 0,0 0.24041,-0.257 0.40156,-0.30422 0.20496,-0.0601 0.46577,-0.0751 0.63878,0.0501 0.0657,0.0475 0.0938,0.2244 0.0938,0.2244"
       id="path17"
       sodipodi:nodetypes="caac" />
  </g>
</svg>
