<?xml version="1.0" encoding="UTF-8" standalone="no"?>
<!-- Created with Inkscape (http://www.inkscape.org/) -->

<svg
   width="342.83716"
   height="72.317734"
   viewBox="0 0 90.708991 19.134067"
   version="1.1"
   id="svg1"
   inkscape:version="1.3.2 (091e20ef0f, 2023-11-25, custom)"
   sodipodi:docname="remorquage.svg"
   xmlns:inkscape="http://www.inkscape.org/namespaces/inkscape"
   xmlns:sodipodi="http://sodipodi.sourceforge.net/DTD/sodipodi-0.dtd"
   xmlns="http://www.w3.org/2000/svg"
   xmlns:svg="http://www.w3.org/2000/svg">
  <sodipodi:namedview
     id="namedview1"
     pagecolor="#ffffff"
     bordercolor="#666666"
     borderopacity="1.0"
     inkscape:showpageshadow="2"
     inkscape:pageopacity="0.0"
     inkscape:pagecheckerboard="0"
     inkscape:deskcolor="#d1d1d1"
     inkscape:document-units="mm"
     inkscape:zoom="0.45591324"
     inkscape:cx="157.92479"
     inkscape:cy="108.57329"
     inkscape:window-width="956"
     inkscape:window-height="1029"
     inkscape:window-x="960"
     inkscape:window-y="0"
     inkscape:window-maximized="1"
     inkscape:current-layer="layer1"
     showgrid="false" />
  <defs
     id="defs1">
    <style
       transform="translate(-130.185, 41.1648)"
       id="style111"><![CDATA[
polygon {
shape-rendering:crispEdges;
stroke-width:0.098900;
}
.s0 {
stroke:#000000;
stroke-width:0.080355;
stroke-linecap:round;
stroke-linejoin:round;
fill:none;
}
.s1 {
stroke:#000000;
stroke-width:0.080355;
stroke-linecap:round;
stroke-linejoin:round;
fill:none;
}
.s2 {
stroke:#19b219;
stroke-width:0.080355;
stroke-linecap:round;
stroke-linejoin:round;
fill:none;
}
.s3 {
stroke:#7f4c00;
stroke-width:0.080355;
stroke-linecap:round;
stroke-linejoin:round;
fill:none;
}
.s4 {
stroke:#00cc00;
stroke-width:0.080355;
stroke-linecap:round;
stroke-linejoin:round;
fill:none;
}
.s5 {
stroke:#000000;
stroke-width:0.053570;
stroke-linecap:round;
stroke-linejoin:round;
fill:none;
}
.s6 {
stroke:#ff19ff;
stroke-width:0.053570;
stroke-linecap:round;
stroke-linejoin:round;
fill:none;
}
.s7 {
stroke:#ff0000;
stroke-width:0.080355;
stroke-linecap:round;
stroke-linejoin:round;
fill:none;
}
.s8 {
stroke:#ffff00;
stroke-width:0.080355;
stroke-linecap:round;
stroke-linejoin:round;
fill:none;
}
.s9 {
stroke:#001919;
stroke-width:0.053570;
stroke-linecap:round;
stroke-linejoin:round;
fill:none;
}
.sa {
stroke:#006666;
stroke-width:0.053570;
stroke-linecap:round;
stroke-linejoin:round;
fill:none;
}
.sb {
stroke:#00ffff;
stroke-width:0.160711;
stroke-linecap:round;
stroke-linejoin:round;
fill:none;
}
.sc {
stroke:#ff0000;
stroke-width:0.428562;
stroke-linecap:round;
stroke-linejoin:round;
fill:none;
}
.sd {
stroke:#191919;
stroke-width:0.053570;
stroke-linecap:round;
stroke-linejoin:round;
fill:none;
}
.se {
stroke:#000000;
stroke-width:0.053570;
stroke-linecap:round;
stroke-linejoin:round;
stroke-dasharray:0.804,0.804;
fill:none;
}
.sf {
stroke:#000000;
stroke-width:0.160711;
stroke-linecap:round;
stroke-linejoin:round;
fill:none;
}
.s100 {
stroke:#ff0000;
stroke-width:0.500000;
stroke-linecap:round;
stroke-linejoin:round;
fill:none;
}
]]></style>
  </defs>
  <g
     inkscape:label="Layer 1"
     inkscape:groupmode="layer"
     id="layer1"
     transform="translate(-25.526932,-128.15287)">
    <path
       style="fill:#fff6e5;fill-opacity:1;stroke:none;stroke-width:0.2;stroke-linecap:round;stroke-linejoin:round;stroke-dasharray:none"
       d="m 113.2373,145.91476 c -3.85205,2.68627 -9.35306,-1.13995 -14.048614,-1.06109 -1.8859,0.0317 -3.88964,1.35455 -5.624939,0.61538 -1.761884,-0.75049 -2.79428,-2.77336 -3.50637,-4.55112 -0.910254,-2.27247 -1.435144,-4.94627 -0.773474,-7.30315 0.435408,-1.55093 1.413018,-3.31333 2.935829,-3.83869 2.716644,-0.93723 5.475334,2.29876 8.345848,2.16194 1.9701,-0.0939 3.60617,-2.2853 5.56083,-2.02188 3.93099,0.52975 8.39143,3.13986 9.70794,6.88152 1.04879,2.9808 -0.005,7.30959 -2.59705,9.11709 z"
       id="path2"
       sodipodi:nodetypes="aaaaaaaaaa" />
    <path
       style="fill:#ffe6b3;fill-opacity:1;stroke:none;stroke-width:0.1;stroke-linecap:round;stroke-linejoin:round"
       d="m 95.439186,143.2508 c 0.6276,-0.28305 0.95495,-1.18984 1.64033,-1.25514 2.80914,-0.26767 12.106344,3.6662 10.754004,-2.10423 -1.35234,-5.77043 -7.06741,0.86563 -11.754994,-1.00825 -0.26604,-0.21445 0.28876,-0.63248 0.52188,-0.88232 0.28094,-0.30111 0.93279,-0.298 1.01729,-0.70106 0.0823,-0.39247 -0.55437,-0.6298 -0.63299,-1.02302 -0.0591,-0.29553 0.0324,-0.6125 0.14353,-0.89266 0.16153,-0.40741 0.76163,-0.65085 0.73753,-1.08845 -0.0262,-0.47499 -0.58946,-0.74962 -0.92545,-1.08639 -0.41921,-0.42016 -0.8073,-0.92385 -1.3528,-1.15774 -0.57201,-0.24526 -1.247724,-0.31588 -1.857354,-0.19059 -0.61954,0.12734 -1.30581,0.3972 -1.65816,0.92246 -0.47742,0.7117 -0.47382,1.71288 -0.30423,2.55293 0.12809,0.63449 0.55394,1.18384 0.95983,1.68807 0.3286,0.40822 0.79223,0.68696 1.16913,1.05107 0.18484,0.17857 0.52587,0.29841 0.53494,0.55525 0.0241,0.68305 -1.05075,0.94293 -1.31491,1.57329 -0.24134,0.5759 -0.40727,1.28189 -0.18232,1.86439 0.24613,0.63733 0.86049,1.19344 1.51876,1.37634 0.32273,0.0897 0.680644,-0.0562 0.985984,-0.19395 z"
       id="path13582-5-6"
       sodipodi:nodetypes="aszsaaaaaaaaaaaaaaaaaa" />
    <path
       id="path1042-3-1"
       style="fill:#ffffb3;fill-opacity:1;stroke-width:0.1;stroke-linecap:round;stroke-linejoin:round"
       d="m 94.568182,131.97079 c 0.12801,0.0179 0.252124,0.0551 0.362994,0.11301 0.6983,0.36446 1.28422,1.06946 1.49824,1.82752 0.17016,0.60267 0.24208,1.48091 -0.25546,1.86119 -0.18217,-0.034 -0.35984,-0.0892 -0.54014,-0.13207 -0.33472,-0.0795 -0.68267,-0.11327 -1.005604,-0.23189 -0.14892,-0.0547 -0.33986,-0.0834 -0.42273,-0.21869 -0.11584,-0.18912 0.0466,-0.44948 -0.004,-0.66541 -0.0384,-0.1641 -0.18492,-0.2898 -0.22185,-0.45425 -0.0854,-0.38021 0.17951,-0.81588 0.0148,-1.16901 -0.10046,-0.21536 -0.55533,-0.21353 -0.552,-0.45114 0.003,-0.23913 0.33885,-0.36982 0.56804,-0.43811 0.17517,-0.0522 0.37065,-0.0674 0.55773,-0.0411 z" />
    <path
       id="path2309-5-8"
       style="fill:#fff4bd;fill-opacity:1;stroke-width:0.1;stroke-linecap:round;stroke-linejoin:round"
       d="m 94.441862,132.08687 c 0.30859,0.0596 0.588874,0.21912 0.849444,0.38926 0.61757,0.42552 1.12188,1.06221 1.27674,1.80687 0.0699,0.385 0.0852,0.81585 -0.1228,1.16301 -0.0813,0.11294 -0.22249,0.295 -0.37657,0.19868 -0.17511,-0.11179 -0.31994,-0.31972 -0.28847,-0.53436 0.0628,-0.14933 0.26804,-0.31371 0.10833,-0.47623 -0.17915,-0.20404 -0.52597,-0.21453 -0.63547,-0.4874 -0.12153,-0.30677 0.0466,-0.66247 -0.12322,-0.95602 -0.12798,-0.20238 -0.393354,-0.1731 -0.599344,-0.2036 -0.1483,-0.0313 -0.29445,-0.0734 -0.4425,-0.10696 -0.19341,-0.0336 -0.28923,-0.23822 -0.25964,-0.41841 0.0107,-0.19809 0.17738,-0.35867 0.37287,-0.37545 0.0796,-0.0123 0.16101,-0.0107 0.24063,6.1e-4 z m -0.14701,0.93364 c 0.19357,0.0419 0.43984,0.0842 0.517914,0.2956 0.0942,0.24758 0.0468,0.54204 -0.0958,0.76149 -0.1061,0.17669 -0.36999,0.2175 -0.5197,0.0744 -0.23028,-0.2679 -0.22742,-0.67369 -0.0964,-0.98625 0.0421,-0.0688 0.11463,-0.12955 0.19394,-0.14522 z"
       sodipodi:nodetypes="sssssssssssssaaaaaaaa" />
    <path
       style="fill:#ffffb3;fill-opacity:1;stroke-width:0.1;stroke-linecap:round;stroke-linejoin:round"
       d="m 94.882456,141.58886 c 0.11122,-0.0224 0.20127,-0.14324 0.22681,-0.25377 0.0514,-0.22241 -0.11429,-0.44235 -0.18611,-0.65901 -0.0672,-0.20265 -0.216644,-0.38515 -0.228564,-0.59831 -0.0193,-0.34467 0.350014,-0.66951 0.259414,-1.00262 -0.0266,-0.0977 -0.11369,-0.20619 -0.214554,-0.21501 -0.4599,-0.0402 -0.77325,0.50709 -1.1336,0.79565 -0.13719,0.10986 -0.32975,0.18979 -0.38991,0.35493 -0.0554,0.15211 -0.005,0.33531 0.0647,0.48136 0.12096,0.25288 0.35174,0.44562 0.57859,0.6103 0.30562,0.22187 0.65301,0.56107 1.023234,0.48648 z"
       id="path10275-6-7"
       sodipodi:nodetypes="aaaaaaaaaaa" />
    <path
       style="fill:#fff4bd;fill-opacity:1;stroke-width:0.1;stroke-linecap:round;stroke-linejoin:round"
       d="m 94.908346,141.40849 c 0.13007,-0.0279 0.2992,-0.0949 0.33007,-0.22429 0.0505,-0.21153 -0.12982,-0.45836 -0.31597,-0.57077 -0.0914,-0.0552 -0.228354,0.0475 -0.320304,-0.007 -0.0579,-0.0342 -0.0935,-0.10785 -0.10119,-0.1747 -0.014,-0.12103 0.0413,-0.24664 0.1062,-0.34973 0.0844,-0.13408 0.263414,-0.18872 0.350514,-0.32108 0.0898,-0.1365 0.21089,-0.30733 0.16116,-0.46299 -0.0372,-0.11648 -0.17684,-0.21249 -0.29912,-0.21235 -0.183604,2.1e-4 -0.368434,0.15461 -0.448394,0.31989 -0.0502,0.10372 0.0791,0.24801 0.0173,0.34523 -0.0824,0.12963 -0.32045,0.0633 -0.42662,0.17432 -0.15424,0.16131 -0.33063,0.43377 -0.22526,0.63051 0.094,0.17541 0.42285,0.0213 0.57926,0.14436 0.10121,0.0796 0.11275,0.23192 0.1791,0.34227 0.0694,0.11551 0.11521,0.26058 0.22852,0.33358 0.0526,0.0339 0.123624,0.0457 0.184774,0.0326 z"
       id="path10570-2-9"
       sodipodi:nodetypes="aaaaaaaaaaaaaaaaa" />
    <path
       id="path14463-9-2"
       style="fill:#ffdd99;fill-opacity:1;stroke:none;stroke-width:0.1;stroke-linecap:round;stroke-linejoin:round"
       d="m 95.151576,131.88457 c 0.75085,0.12634 1.31964,0.75173 1.55181,1.45303 0.25726,0.71546 0.53897,1.51946 0.27549,2.27093 -0.17725,0.32337 -0.35828,0.64231 -0.47005,0.99547 -0.38563,0.43383 -0.54571,-0.41449 -0.4878,-0.70476 0.0593,-0.55737 0.27066,-1.38734 -0.11605,-1.84599 -0.32734,-0.38822 -0.15915,-0.86872 -0.62944,-1.11981 -0.35841,-0.088 -1.237314,0.0897 -1.019654,-0.54931 0.15666,-0.3268 0.527444,-0.56301 0.895694,-0.49956 z m -0.945794,1.22403 c 0.4971,0.0521 0.49979,0.80138 0.11508,1.01616 -0.37421,0.22213 -0.83521,0.0837 -1.24272,0.0505 -0.51333,-0.0938 -1.05548,-0.23314 -1.46009,-0.57595 -0.23676,-0.41414 0.34229,-0.87949 0.70844,-0.56201 0.27733,0.38533 0.8443,0.48781 1.23454,0.2132 0.17922,-0.13809 0.42752,-0.15062 0.64475,-0.14194 z m 1.314654,3.52888 c 0.4688,0.17081 -0.12022,0.70428 -0.40627,0.7795 -0.773854,0.36334 -1.654054,0.17225 -2.417414,-0.1105 -0.47634,-0.40235 0.42843,-0.83299 0.78077,-0.55287 0.4295,0.22818 0.90823,0.11972 1.336464,-0.0446 0.22801,-0.0651 0.47102,-0.0738 0.70645,-0.0716 z m -0.69279,2.57684 c 0.42775,-5.1e-4 0.77172,0.78173 0.11677,0.58151 -0.421734,0.0832 -0.535574,-0.56739 -0.11677,-0.58151 z m 0.98273,0.6204 c 0.51539,0.0544 0.35629,0.87839 -0.14444,0.7859 -0.39627,-0.0947 -0.31693,-0.8802 0.14444,-0.7859 z m -1.619854,-0.0378 c 0.57228,0.0367 0.35498,0.77342 -0.0958,0.82452 -0.52079,0.10029 -0.55815,-0.78896 -0.0527,-0.82123 l 0.0641,-0.008 0.0844,0.005 z m 2.583364,0.40071 c 0.33596,0.20598 0.26235,0.73331 0.23335,1.08017 -0.0541,0.51993 -0.46369,0.87262 -0.84637,1.17531 -0.27839,0.30986 -1.03012,0.9268 -1.23292,0.24214 -0.171114,-0.50003 0.011,-1.07908 0.44824,-1.38215 0.43014,-0.27638 0.74992,-0.66826 1.09955,-1.02964 0.0844,-0.0631 0.19156,-0.10439 0.29815,-0.0858 z m -1.90576,0.43331 c 0.475,0.0487 0.39487,0.85153 -0.102254,0.71207 -0.32061,-0.0987 -0.27129,-0.74841 0.102254,-0.71207 z m -1.695334,-0.0578 c 0.6109,0.22295 -0.0188,0.957 0.43911,1.31561 0.0864,0.26669 0.79784,0.86212 0.22347,0.93039 -0.37067,-0.18525 -0.62708,-0.55574 -0.83201,-0.90647 -0.16851,-0.37094 -0.21501,-0.83206 -0.05,-1.21042 0.0456,-0.0728 0.1283,-0.13907 0.21946,-0.12911 z"
       sodipodi:nodetypes="cccccsccccccccccccccccccccccsccccscccccccccccccccc" />
    <path
       style="fill:#ffdd99;fill-opacity:1;stroke:none;stroke-width:0.1;stroke-linecap:round;stroke-linejoin:round"
       d="m 95.577416,139.06027 c 0.44275,-0.0293 0.12803,-0.88096 0.25119,-1.30725 0.0815,-0.28198 0.55469,-0.64301 0.32061,-0.82008 -0.19524,-0.1477 -0.45735,0.2348 -0.58548,0.4434 -0.18888,0.30753 -0.21857,0.70542 -0.19276,1.0654 0.0155,0.2168 -0.0104,0.6329 0.20644,0.61853 z"
       id="path13710-1-0"
       sodipodi:nodetypes="aaaaaa" />
    <path
       id="path15154-2-2"
       style="fill:#ffd580;fill-opacity:1;stroke:none;stroke-width:0.1;stroke-linecap:round;stroke-linejoin:round"
       d="m 95.223446,136.80423 c 0.31718,0.0179 0.31298,0.39313 0.0584,0.51324 -0.0493,0.19625 0.0165,0.41697 -0.0605,0.61729 -0.0759,0.25481 -0.37847,0.11905 -0.504424,-0.0171 -0.20804,-0.12314 -0.22365,-0.44932 -0.48754,-0.49685 -0.27217,-0.0743 -0.59079,0.0756 -0.83424,-0.1028 -0.25272,-0.23724 0.10331,-0.55759 0.36468,-0.39921 0.24811,0.0845 0.51915,0.21022 0.77865,0.0882 0.22451,-0.0761 0.438144,-0.2252 0.684994,-0.20284 z m -0.37324,2.48316 c 0.25272,-0.0181 0.45215,0.48887 0.11202,0.46498 -0.267964,-0.045 -0.387994,-0.29958 -0.11202,-0.46498 z m 0.77913,0.83911 c 0.18849,0.0574 0.25159,0.52154 -0.0257,0.40963 -0.28688,0.0992 -0.21802,-0.45865 0.0257,-0.40963 z m -1.622614,-0.0899 c 0.38872,0.0901 -0.22507,0.57879 -0.17658,0.15398 0.0181,-0.08 0.0838,-0.17 0.17658,-0.15398 z m 0.871484,0.76954 c 0.28179,0.009 0.37694,0.53875 0.0452,0.52831 -0.335064,0.029 -0.388934,-0.526 -0.0452,-0.52831 z m -1.830094,0.28446 c 0.36681,0.0795 0.0871,0.50953 0.24739,0.74596 0.0811,0.28619 -0.26951,0.15551 -0.25066,-0.0516 -0.0204,-0.22252 -0.23605,-0.45569 -0.106,-0.6692 0.0295,-0.0262 0.0718,-0.0306 0.10927,-0.0251 z m 2.114614,0.7427 c 0.26826,0.0791 0.19032,0.60361 0.52822,0.55296 0.14536,-0.11324 0.55699,-0.28839 0.41952,0.0699 -0.18083,0.27219 -0.41488,0.53469 -0.71851,0.67006 -0.24598,0.11816 -0.52005,-0.0829 -0.54704,-0.34102 -0.0595,-0.29798 -0.0527,-0.65135 0.154,-0.89215 0.0433,-0.0409 0.10358,-0.0668 0.16381,-0.0598 z" />
    <path
       style="fill:none;stroke:#000000;stroke-width:0.2;stroke-linecap:round;stroke-linejoin:round;stroke-dasharray:none"
       d="m 94.926316,141.88262 -0.0112,0.67516 c -6.3e-4,0.0378 0.0507,0.0688 0.0882,0.0704 0.0627,0.003 0.11151,-0.0614 0.15749,-0.10463 m 0.41784,-0.39308 0.67765,-0.63748 c 0.0524,-0.0493 0.0994,-0.106 0.13438,-0.16901 0.0222,-0.0401 0.0365,-0.0848 0.046,-0.12971 v 0 l -0.0151,-0.521"
       id="path45027-0-7"
       sodipodi:nodetypes="csaccsassc" />
    <path
       style="fill:none;stroke:#000000;stroke-width:0.2;stroke-linecap:round;stroke-linejoin:round;stroke-dasharray:none"
       d="m 96.267506,136.32231 c -0.0164,0.0247 -0.0333,0.0484 -0.0495,0.071 -0.31608,0.44142 -0.95634,0.53001 -1.481664,0.64128 -0.44202,0.0936 -0.92988,0.16759 -1.35403,0.0113 -0.0694,-0.0256 -0.12407,-0.0447 -0.17592,-0.0672 m -1.02323,-1.19 c -0.18825,-0.44755 -0.26488,-0.91966 -0.22407,-1.40615 m 0.783,-1.43908 c 0.0603,-0.0417 0.12327,-0.076 0.21507,-0.1289 0.56043,-0.32299 1.27655,-0.5757 1.893324,-0.38939 0.21378,0.0646 0.38053,0.10916 0.56031,0.23878 m 0.93469,1.12094 c 0.0314,0.0655 0.0533,0.13405 0.0849,0.22194 0.10344,0.28709 0.18005,0.64877 0.15314,0.98187"
       id="path37294-3-9-5"
       sodipodi:nodetypes="csasccccssccsc" />
    <path
       style="fill:none;stroke:#000000;stroke-width:0.2;stroke-linecap:round;stroke-linejoin:round;stroke-dasharray:none"
       d="m 94.670862,137.94343 c 0.052,0.0618 0.169754,0.0705 0.239484,0.0298 0.0588,-0.0343 0.0885,-0.12141 0.0793,-0.18912 -0.007,-0.0524 -0.067,-0.0619 -0.0981,-0.12372 -0.0195,-0.0387 -0.0284,-0.12026 -0.0477,-0.1698"
       id="path37298-9-3-9"
       sodipodi:nodetypes="caasc" />
    <path
       style="fill:none;stroke:#000000;stroke-width:0.2;stroke-linecap:round;stroke-linejoin:round;stroke-dasharray:none"
       d="m 92.483092,136.73165 c -0.0707,-0.0304 -0.12695,-0.10593 -0.14536,-0.18177 -0.0164,-0.0677 -0.0156,-0.16528 0.0406,-0.20521"
       id="path37302-4-6-2"
       sodipodi:nodetypes="cac" />
    <path
       style="fill:none;stroke:#000000;stroke-width:0.2;stroke-linecap:round;stroke-linejoin:round;stroke-dasharray:none"
       d="m 92.190902,133.32925 c -0.0444,0.005 -0.0872,0.0352 -0.11553,0.0703 -0.0451,0.0559 -0.0788,0.13262 -0.0706,0.20375"
       id="path37304-7-0-2"
       sodipodi:nodetypes="cac" />
    <path
       style="fill:none;stroke:#000000;stroke-width:0.2;stroke-linecap:round;stroke-linejoin:round;stroke-dasharray:none"
       d="m 95.794066,133.02886 c 0.0262,-0.0548 0.11097,-0.0616 0.17077,-0.0569 0.0731,0.006 0.14819,0.0451 0.1953,0.10137 0.0414,0.0494 0.0804,0.12432 0.0577,0.18475"
       id="path37306-8-6-8"
       sodipodi:nodetypes="caac" />
    <path
       style="fill:none;stroke:#000000;stroke-width:0.2;stroke-linecap:round;stroke-linejoin:round;stroke-dasharray:none"
       d="m 92.462732,133.70405 c 0.0439,0.0246 0.0879,0.0905 0.14016,0.0829"
       id="path37310-4-2-9"
       sodipodi:nodetypes="cc" />
    <path
       style="fill:none;stroke:#000000;stroke-width:0.2;stroke-linecap:round;stroke-linejoin:round;stroke-dasharray:none"
       d="m 93.030422,133.59016 c 0.0492,-0.0209 0.11123,0.0161 0.15322,0.0502"
       id="path37312-5-6-7"
       sodipodi:nodetypes="cc" />
    <path
       style="fill:none;stroke:#000000;stroke-width:0.2;stroke-linecap:round;stroke-linejoin:round;stroke-dasharray:none"
       d="m 92.958032,134.09883 c 0,0 0.0749,0.0442 0.11581,0.0425"
       id="path37314-0-1-3"
       sodipodi:nodetypes="cc" />
    <path
       style="fill:none;stroke:#000000;stroke-width:0.2;stroke-linecap:round;stroke-linejoin:round;stroke-dasharray:none"
       d="m 93.541552,133.92288 c 0.0444,-0.001 0.0893,-0.008 0.1359,-0.0165"
       id="path37316-3-8-6"
       sodipodi:nodetypes="cc" />
    <path
       style="fill:none;stroke:#000000;stroke-width:0.2;stroke-linecap:round;stroke-linejoin:round;stroke-dasharray:none"
       d="m 94.018282,133.57096 c 0.0537,-0.0358 0.13483,-0.0388 0.19236,-0.01"
       id="path37318-6-7-1"
       sodipodi:nodetypes="cc" />
    <path
       style="fill:none;stroke:#000000;stroke-width:0.2;stroke-linecap:round;stroke-linejoin:round;stroke-dasharray:none"
       d="m 94.577452,133.88958 c 0.0627,-0.006 0.10253,-0.0271 0.15696,-0.0445"
       id="path37320-1-9-2"
       sodipodi:nodetypes="cc" />
    <path
       style="fill:none;stroke:#000000;stroke-width:0.2;stroke-linecap:round;stroke-linejoin:round;stroke-dasharray:none"
       d="m 94.055852,134.1781 c 0.0389,0.0113 0.0846,0.0154 0.12152,-0.002"
       id="path37322-0-2-9"
       sodipodi:nodetypes="cc" />
    <path
       style="fill:none;stroke:#000000;stroke-width:0.2;stroke-linecap:round;stroke-linejoin:round;stroke-dasharray:none"
       d="m 95.004056,133.46371 c 0.0267,-0.0413 0.0646,-0.0504 0.10316,-0.0607 0.0402,-0.0107 0.0897,-0.0345 0.12473,0.001"
       id="path37324-6-0-3"
       sodipodi:nodetypes="cac" />
    <path
       style="fill:none;stroke:#000000;stroke-width:0.2;stroke-linecap:round;stroke-linejoin:round;stroke-dasharray:none"
       d="m 95.640456,133.60182 c 0.0455,-0.0239 0.0494,-0.0183 0.0722,-0.0648"
       id="path37326-3-2-1"
       sodipodi:nodetypes="cc" />
    <path
       style="fill:none;stroke:#000000;stroke-width:0.2;stroke-linecap:round;stroke-linejoin:round;stroke-dasharray:none"
       d="m 95.181566,133.98416 c 0,0 0.0773,0.008 0.11399,-0.002 0.0169,-0.005 0.0459,-0.0261 0.0459,-0.0261"
       id="path37328-2-3-9"
       sodipodi:nodetypes="cac" />
    <path
       style="fill:none;stroke:#000000;stroke-width:0.2;stroke-linecap:round;stroke-linejoin:round;stroke-dasharray:none"
       d="m 93.454022,136.06216 c 0.0471,-0.0304 0.12183,-0.0204 0.1668,0.0131"
       id="path37330-0-7-4"
       sodipodi:nodetypes="cc" />
    <path
       style="fill:none;stroke:#000000;stroke-width:0.2;stroke-linecap:round;stroke-linejoin:round;stroke-dasharray:none"
       d="m 92.845692,136.42426 c 0,0 0.12369,0.0735 0.20674,0.0894"
       id="path37332-6-5-7"
       sodipodi:nodetypes="cc" />
    <path
       style="fill:none;stroke:#000000;stroke-width:0.2;stroke-linecap:round;stroke-linejoin:round;stroke-dasharray:none"
       d="m 93.492672,136.60176 c 0.0247,-0.004 0.0945,0.0337 0.10969,0.0134"
       id="path37334-1-9-8"
       sodipodi:nodetypes="cc" />
    <path
       style="fill:none;stroke:#000000;stroke-width:0.2;stroke-linecap:round;stroke-linejoin:round;stroke-dasharray:none"
       d="m 93.966282,136.53219 c 0.0462,0.007 0.0334,0.006 0.0684,0.004"
       id="path37336-5-2-4"
       sodipodi:nodetypes="cc" />
    <path
       style="fill:none;stroke:#000000;stroke-width:0.2;stroke-linecap:round;stroke-linejoin:round;stroke-dasharray:none"
       d="m 94.149712,136.0443 c 0.002,-0.0443 0.0357,-0.0887 0.0749,-0.10887 0.03,-0.0154 0.0677,-0.003 0.10111,0.002"
       id="path37338-5-2-5"
       sodipodi:nodetypes="cac" />
    <path
       style="fill:none;stroke:#000000;stroke-width:0.2;stroke-linecap:round;stroke-linejoin:round;stroke-dasharray:none"
       d="m 94.484632,136.58316 c 0.0286,0.009 0.0611,-1.2e-4 0.0894,-0.0103"
       id="path37340-4-8-0"
       sodipodi:nodetypes="cc" />
    <path
       style="fill:none;stroke:#000000;stroke-width:0.2;stroke-linecap:round;stroke-linejoin:round;stroke-dasharray:none"
       d="m 94.761462,136.15388 c 0.0182,-0.004 0.0425,-0.01 0.0632,-0.0177"
       id="path37342-7-9-3"
       sodipodi:nodetypes="cc" />
    <path
       style="fill:none;stroke:#000000;stroke-width:0.2;stroke-linecap:round;stroke-linejoin:round;stroke-dasharray:none"
       d="m 95.030446,135.68329 c 0.0254,-0.0267 0.0588,-0.0548 0.0956,-0.0557 0.0316,-7.2e-4 0.0644,0.0191 0.0839,0.0439"
       id="path37344-6-7-6"
       sodipodi:nodetypes="cac" />
    <path
       style="fill:none;stroke:#000000;stroke-width:0.2;stroke-linecap:round;stroke-linejoin:round;stroke-dasharray:none"
       d="m 95.551256,135.99695 c 0.0725,6.1e-4 0.0915,0.016 0.18575,-0.0163 0.12607,-0.0433 0.20451,-0.0577 0.30877,-0.14107"
       id="path37346-5-3-1"
       sodipodi:nodetypes="csc" />
    <path
       style="fill:none;stroke:#000000;stroke-width:0.2;stroke-linecap:round;stroke-linejoin:round;stroke-dasharray:none"
       d="m 96.523986,135.47218 c 0.0309,-0.002 0.0891,0.0244 0.11533,0.0586 0.0167,0.0218 0.0161,0.0532 0.017,0.0807 0.002,0.0574 10e-4,0.11912 -0.0244,0.17064 -0.0187,0.038 -0.0526,0.0783 -0.0889,0.0907"
       id="path37348-6-6-0"
       sodipodi:nodetypes="caaac" />
    <path
       style="fill:none;stroke:#000000;stroke-width:0.2;stroke-linecap:round;stroke-linejoin:round;stroke-dasharray:none"
       d="m 95.169396,136.43583 c 0.0279,0.0157 0.0637,0.023 0.0947,0.0151 0.0292,-0.007 0.0556,-0.0296 0.0717,-0.0554"
       id="path37350-9-1-6"
       sodipodi:nodetypes="cac" />
    <path
       style="fill:none;stroke:#000000;stroke-width:0.2;stroke-linecap:round;stroke-linejoin:round;stroke-dasharray:none"
       d="m 93.635782,137.6289 c 0.12175,0.11582 0.29832,0.29056 0.39041,0.4135 0.0705,0.0942 0.15122,0.22544 0.22895,0.36166"
       id="path37775-3-2-3"
       sodipodi:nodetypes="csc" />
    <path
       style="fill:none;stroke:#000000;stroke-width:0.2;stroke-linecap:round;stroke-linejoin:round;stroke-dasharray:none"
       d="m 95.478056,138.52722 c 0.0217,-0.21057 0.0615,-0.54975 0.11036,-0.75006 0.0276,-0.11325 0.0903,-0.28468 0.13962,-0.41221"
       id="path37781-5-9-2"
       sodipodi:nodetypes="csc" />
    <path
       style="fill:none;stroke:#000000;stroke-width:0.2;stroke-linecap:round;stroke-linejoin:round;stroke-dasharray:none"
       d="m 95.115426,140.47639 c -0.037,-0.0671 -0.12607,-0.11673 -0.20201,-0.10942 -0.0831,0.008 -0.154624,0.0851 -0.192064,0.15947 -0.0376,0.0747 -0.0553,0.17772 -0.0142,0.25113"
       id="path42371-3-0"
       sodipodi:nodetypes="caac" />
    <path
       style="fill:none;stroke:#000000;stroke-width:0.2;stroke-linecap:round;stroke-linejoin:round;stroke-dasharray:none"
       d="m 94.016022,139.83345 c -0.0577,0.0544 -0.0757,0.15141 -0.0612,0.22909 0.0166,0.0887 0.0749,0.1866 0.15963,0.2192 0.0714,0.0275 0.1716,0.008 0.22503,-0.0464"
       id="path42397-1-6"
       sodipodi:nodetypes="caac" />
    <path
       style="fill:none;stroke:#000000;stroke-width:0.2;stroke-linecap:round;stroke-linejoin:round;stroke-dasharray:none"
       d="m 94.902746,139.39102 c -0.0478,-0.0564 -0.140314,-0.0842 -0.211744,-0.0661 -0.0768,0.0195 -0.13962,0.0956 -0.16461,0.17062 -0.0285,0.0856 -0.025,0.19959 0.0332,0.26923"
       id="path42399-9-1"
       sodipodi:nodetypes="caac" />
    <path
       style="fill:none;stroke:#000000;stroke-width:0.2;stroke-linecap:round;stroke-linejoin:round;stroke-dasharray:none"
       d="m 95.282236,139.67942 c -0.0478,0.0685 -0.0354,0.17298 -0.003,0.24968 0.0325,0.077 0.0994,0.15723 0.18199,0.1734 0.0725,0.0142 0.16219,-0.0218 0.20674,-0.0805"
       id="path42401-4-5"
       sodipodi:nodetypes="caac" />
    <path
       style="fill:none;stroke:#000000;stroke-width:0.2;stroke-linecap:round;stroke-linejoin:round;stroke-dasharray:none"
       d="m 93.962302,140.75115 0.53835,0.46615 c 0.0698,0.0605 0.16376,0.10064 0.2558,0.10508 0.0917,0.004 0.193504,-0.0204 0.264214,-0.0797 m 0.2436,-0.20433 0.65449,-0.549 m 0.18314,-0.15362 c 0.083,-0.0697 0.13331,-0.18365 0.14581,-0.29173 0.009,-0.0785 0.006,-0.18097 -0.0547,-0.23021 l -0.52361,-0.42207 m -0.21209,-0.17096 -0.46495,-0.37478 c -0.0849,-0.0684 -0.20992,-0.0808 -0.318354,-0.0715 -0.1007,0.009 -0.20281,0.0507 -0.28094,0.11554 l -0.67145,0.55709 m -0.34954,0.29 c -0.0873,0.0724 -0.13136,0.20871 -0.11544,0.32136 0.0127,0.09 0.0913,0.16065 0.15957,0.2198"
       id="path42403-7-5"
       sodipodi:nodetypes="csaccccasccsasccac" />
    <path
       style="fill:none;stroke:#000000;stroke-width:0.2;stroke-linecap:round;stroke-linejoin:round;stroke-dasharray:none"
       d="m 93.032872,140.58911 0.0186,0.22151 m 0.0443,0.52678 c 0.005,0.0652 0.046,0.12313 0.0804,0.17849 0.0496,0.0798 0.10947,0.15442 0.179,0.21727 m 0.47856,0.43253 0.50349,0.45506"
       id="path43051-8-4"
       sodipodi:nodetypes="cccaccc" />
    <path
       id="path17014"
       style="fill:#e9ffe5;fill-opacity:1;stroke:none;stroke-width:0.2;stroke-linecap:round;stroke-linejoin:round;stroke-dasharray:none"
       d="m 105.51558,132.13339 c -1.33628,0.0315 -2.78579,0.30708 -3.6866,1.23145 -0.88326,0.90637 -1.34369,2.4661 -0.9617,3.67264 0.34939,1.10357 1.55953,1.86014 2.65255,2.24121 0.83606,0.29148 1.78554,0.0854 2.65514,-0.0811 0.74719,-0.14309 1.44725,-0.45353 2.14871,-0.7612 l -2.4381,-6.30245 c -0.12274,-0.001 -0.24472,-0.003 -0.37,-5.1e-4 z" />
    <path
       id="path19211"
       style="fill:#d9f7d4;fill-opacity:1;stroke:none;stroke-width:0.2;stroke-linecap:round;stroke-linejoin:round;stroke-dasharray:none"
       d="m 108.04617,137.71909 c -0.54689,0.16706 -1.09042,0.34594 -1.63246,0.5271 -0.84587,0.28272 -2.14649,0.11578 -2.50889,0.9307 -0.25656,0.57695 0.50101,1.16092 0.70022,1.7601 0.31162,0.93726 0.22564,2.03766 0.77153,2.8608 0.52008,0.78424 1.31103,1.51414 2.22519,1.73737 0.91176,0.22264 2.01003,0.0391 2.76779,-0.5147 0.14776,-0.10799 0.25547,-0.24989 0.34313,-0.40876 z" />
    <path
       id="path20126"
       style="fill:#d4ffcc;fill-opacity:1;stroke:none;stroke-width:0.2;stroke-linecap:round;stroke-linejoin:round;stroke-dasharray:none"
       d="m 104.56111,132.37885 c -0.19783,-0.001 -0.39007,0.0304 -0.5736,0.11524 -0.62877,0.29069 -0.7604,1.16016 -1.18908,1.70429 -0.63628,0.80766 -2.29712,1.31137 -2.04587,2.30839 0.282,1.11906 2.09589,1.19623 3.24993,1.19269 0.62736,-0.002 1.31147,-1.09527 1.76269,-0.65939 0.50414,0.48701 -1.05133,1.40722 -0.66818,1.99419 0.54636,0.83701 1.98812,0.32255 2.98638,0.27182 0.18626,-0.009 0.37264,-0.0257 0.55862,-0.0465 l -2.54299,-6.57479 c -0.51306,-0.0947 -1.04298,-0.30302 -1.5379,-0.30593 z" />
    <path
       id="path21099"
       style="fill:#bfffb3;fill-opacity:1;stroke:none;stroke-width:0.2;stroke-linecap:round;stroke-linejoin:round;stroke-dasharray:none"
       d="m 104.56266,132.67806 c -0.008,0.001 -0.0125,0.0186 0,0.061 0.0233,-0.0328 0.0107,-0.0625 0,-0.061 z m 0,0.061 c -0.0191,0.0269 -0.0613,0.0554 -0.15554,0.0723 -0.33454,0.0602 -1.27454,0.39234 -1.63143,0.8599 -0.35688,0.46756 0.27669,0.58084 0.59015,0.40721 0.31346,-0.17362 0.91499,-0.64202 0.89142,-0.2465 -0.0236,0.39553 -0.82801,0.94781 -0.32091,1.26453 0.50709,0.31671 0.59043,-0.33547 0.91157,-0.74415 0.32114,-0.40867 0.7737,-0.017 0.6103,0.46251 -0.1634,0.47948 0.89845,0.57125 0.69194,0.88005 -0.2065,0.30879 -0.63907,0.90027 -0.0832,0.78806 0.55588,-0.11221 0.98675,-0.6794 0.87954,-1.18235 -0.10722,-0.50295 -0.93911,-0.45946 -0.95343,-0.96015 -0.0143,-0.50069 -0.17719,-1.17096 0.31729,-0.96067 0.0259,0.011 0.0469,0.0228 0.0708,0.0341 l -0.21394,-0.55242 c -0.10984,-0.0217 -0.22489,-0.006 -0.34882,0.0703 -0.44817,0.27766 -1.07389,0.18884 -1.21904,-0.10387 -0.0188,-0.0378 -0.0301,-0.0666 -0.0367,-0.0889 z m -2.497,1.54874 c -0.0265,0.002 -0.0532,0.005 -0.0801,0.009 -0.86158,0.15055 -1.14403,1.39388 -0.92656,1.96939 0.21747,0.57551 0.20746,0.83365 0.55449,1.17254 0.34703,0.33888 1.03089,-0.009 0.5364,-0.26717 -0.49449,-0.25802 -0.50602,-0.82428 0.0439,-1.06247 0.54995,-0.23819 1.05007,-0.005 1.16685,0.64027 0.11679,0.64505 1.00287,0.1271 0.55656,-0.48576 -0.43237,-0.5937 -1.03126,-2.02416 -1.85157,-1.9761 z m 5.03018,0.9741 c -0.005,0.0569 -0.008,0.11278 -0.004,0.16692 0.019,0.24108 0.20232,0.71977 0.42065,0.91105 z" />
    <path
       id="path22458"
       style="fill:#a9ff99;fill-opacity:1;stroke:none;stroke-width:0.2;stroke-linecap:round;stroke-linejoin:round;stroke-dasharray:none"
       d="m 106.06025,132.58401 c -0.54658,0.1148 -1.0308,1.01101 -0.11782,0.80408 0.10756,-0.0151 0.24672,-0.0664 0.3762,-0.13487 z m -1.84588,0.0692 c -0.48494,0.004 -0.50851,0.8386 0.16898,0.58188 0.96893,0.3886 0.9588,-0.46676 0.0667,-0.5271 -0.0874,-0.039 -0.16637,-0.0553 -0.23565,-0.0548 z m -0.79117,0.7488 c -1.2167,0.0811 0.77766,1.20971 0.46922,0.26613 -0.0949,-0.15987 -0.27473,-0.28329 -0.46922,-0.26613 z m 1.59835,0.11627 c -0.81226,-0.0465 -1.94221,1.40794 -1.08107,1.76526 0.54407,-0.25455 0.6458,-1.87377 1.47846,-0.99425 0.0981,0.3873 0.91767,1.5108 0.94051,0.6041 -0.34383,-0.49078 -0.54445,-1.30688 -1.26038,-1.36581 -0.0255,-0.005 -0.0513,-0.008 -0.0775,-0.009 z m 1.8464,1.15497 c 0.0199,0.38221 0.26504,0.78219 0.45785,1.18339 z m -4.36304,0.73949 c -0.84941,-0.0582 -1.58145,0.83058 -1.33842,1.64847 0.62058,0.78878 0.73908,-0.31082 0.67954,-0.77101 0.32866,-0.94547 2.13086,0.67701 1.64693,-0.6413 -0.2229,-0.19423 -0.54188,-0.17124 -0.81648,-0.21136 -0.0574,-0.0126 -0.11494,-0.0209 -0.17157,-0.0248 z m -0.36587,0.50952 c 0.15615,0.005 -0.0965,0.0621 0,0 z m 4.55579,0.015 c -0.71801,-0.0336 -1.12219,1.27029 -0.11988,0.69763 0.15092,-0.12694 0.59169,-0.59035 0.19016,-0.69039 -0.0238,-0.004 -0.0471,-0.006 -0.0703,-0.007 z m 0.81959,0.40618 c 0.0244,0.0972 0.04,0.19409 0.0398,0.29042 0.0305,0.003 0.0536,0.003 0.0729,0.001 z" />
    <path
       id="path23905"
       style="fill:#cee8c9;fill-opacity:1;stroke:none;stroke-width:0.2;stroke-linecap:round;stroke-linejoin:round;stroke-dasharray:none"
       d="m 108.23944,138.21881 c -0.44121,0.0495 -0.87497,0.0676 -1.28467,0.0413 -1.51285,-0.0969 -3.453,0.34414 -2.2996,2.32079 0.93104,1.59557 1.00129,3.69112 2.79001,4.57594 1.23404,0.61044 2.24081,-0.15013 3.05356,-1.09864 z m -2.79621,1.46192 c 1.96956,0.20776 0.22681,3.34528 2.33474,3.61218 0.43649,1.34457 -1.5291,-0.50441 -1.35702,-1.24023 -0.26183,-0.81144 -0.42711,-1.69017 -0.97772,-2.37195 z" />
    <path
       id="path22840"
       style="fill:#ffffe5;fill-opacity:1;stroke:none;stroke-width:0.2;stroke-linecap:round;stroke-linejoin:round;stroke-dasharray:none"
       d="m 111.23898,135.17047 c -0.62646,0.15206 -0.44731,1.81279 0.18754,1.92486 0.24035,0.0424 0.30801,-0.41647 0.31624,-0.66041 0.0153,-0.45344 -0.0629,-1.37147 -0.50378,-1.26445 z m -6.33071,0.83967 c -0.5793,0.42972 -0.47154,2.11269 0.2488,2.1495 0.33659,0.0172 0.20403,-0.65057 0.21801,-0.98731 0.0142,-0.34256 0.0692,-0.74591 -0.13773,-1.01932 -0.0722,-0.0954 -0.23304,-0.21411 -0.32908,-0.14287 z m 3.75074,-0.13223 c -0.69546,0.16583 -0.57125,1.9903 0.12763,2.14108 0.30683,0.0662 0.42669,-0.51963 0.4386,-0.83329 0.018,-0.47469 -0.10415,-1.41797 -0.56623,-1.30779 z m -6.20012,0.48443 c -0.31164,0.35348 0.42823,0.84035 0.66909,1.24539 0.25113,0.4223 0.3367,1.37273 0.80772,1.23296 0.3859,-0.1145 0.14475,-0.83057 0.004,-1.20758 -0.16406,-0.43859 -0.54132,-0.78899 -0.92526,-1.05709 -0.1626,-0.11354 -0.4241,-0.36244 -0.55526,-0.21368 z m 4.90083,3.43614 c -0.52586,0.18904 0.0711,1.11535 0.1007,1.67337 0.0441,0.83164 -0.70294,2.33671 0.11453,2.4958 0.49859,0.097 0.57051,-0.88117 0.63564,-1.38493 0.0923,-0.71408 -0.0907,-1.46506 -0.37214,-2.12779 -0.10587,-0.24928 -0.22388,-0.74807 -0.47873,-0.65645 z"
       sodipodi:nodetypes="aaaaaaaaaaaaaaaaaaaaaaaaa" />
    <path
       id="path25628"
       style="fill:#fffbcc;fill-opacity:1;stroke:none;stroke-width:0.2;stroke-linecap:round;stroke-linejoin:round;stroke-dasharray:none"
       d="m 111.23648,135.61304 c -0.47404,0.22918 -0.15108,1.06534 0.1229,1.3008 0.29311,-0.23033 0.0494,-0.99915 -0.1229,-1.3008 z m -6.44251,0.77085 c -0.23751,0.51194 -0.0222,1.17105 0.20136,1.63573 0.45127,0.0354 -0.011,-0.8311 0.0306,-1.15438 -0.0693,-0.14384 3.1e-4,-0.4917 -0.23191,-0.48135 z m 3.78918,0.17477 c 0.22961,0.44 -0.11231,0.87126 0.0535,1.29766 0.47143,-0.0584 0.56316,-1.0657 0.0896,-1.27581 -0.0446,-0.0362 -0.0944,-0.0243 -0.14309,-0.0219 z m -5.68751,0.025 c -0.4195,0.39291 0.4974,0.76772 0.54212,1.23648 0.22457,0.18602 0.39058,1.11522 0.62885,0.70441 -0.11691,-0.56773 -0.249,-1.17981 -0.77322,-1.52098 -0.11867,-0.15122 -0.22557,-0.32206 -0.39775,-0.41991 z m 0.53308,0.80797 c 0.23897,0.25876 0.065,0.31904 0,0 z m 4.06906,2.7572 c -0.34491,0.50823 0.41536,1.10892 0.15291,1.72961 0.085,0.53156 -0.31931,1.21388 -0.004,1.63279 0.44563,-0.29866 0.38143,-1.02355 0.29433,-1.50797 -0.0563,-0.57485 -0.003,-1.37209 -0.25534,-1.79825 -0.0616,0.0211 -0.17146,0.0384 -0.18823,-0.0562 z" />
    <path
       style="fill:none;stroke:#000000;stroke-width:0.2;stroke-linecap:round;stroke-linejoin:round;stroke-dasharray:none"
       d="m 96.837866,140.22601 c 0,0 1.51094,0.0366 2.25051,-0.0928 1.113714,-0.19487 2.203424,-0.58094 3.235114,-1.01934 0.16502,-0.0701 0.49687,-0.255 0.68807,-0.39803"
       id="path2928"
       sodipodi:nodetypes="casc" />
    <path
       style="fill:none;stroke:#000000;stroke-width:0.2;stroke-linecap:round;stroke-linejoin:round;stroke-dasharray:none"
       d="m 97.191156,140.84032 c 0,0 3.221824,0.66712 4.816474,1.0693 0.97428,0.24573 2.90059,0.82043 2.90059,0.82043"
       id="path2930"
       sodipodi:nodetypes="cac" />
    <path
       style="fill:none;stroke:#000000;stroke-width:0.2;stroke-linecap:round;stroke-linejoin:round;stroke-dasharray:none"
       d="m 105.03677,142.31928 0.69923,-0.40049"
       id="path2932"
       sodipodi:nodetypes="cc" />
    <path
       style="fill:none;stroke:#000000;stroke-width:0.2;stroke-linecap:round;stroke-linejoin:round;stroke-dasharray:none"
       d="m 105.32897,142.68156 0.59031,-0.33811"
       id="path2934"
       sodipodi:nodetypes="cc" />
    <path
       style="fill:none;stroke:#000000;stroke-width:0.2;stroke-linecap:round;stroke-linejoin:round;stroke-dasharray:none"
       d="m 105.56856,143.02101 c 0.018,-0.0103 0.48037,-0.27514 0.48037,-0.27514"
       id="path2936"
       sodipodi:nodetypes="cc" />
    <path
       style="fill:none;stroke:#000000;stroke-width:0.2;stroke-linecap:round;stroke-linejoin:round;stroke-dasharray:none"
       d="m 105.99771,143.26746 0.62584,1.54042 0.6477,0.19174"
       id="path2968"
       sodipodi:nodetypes="ccc" />
    <path
       style="fill:none;stroke:#000000;stroke-width:0.2;stroke-linecap:round;stroke-linejoin:round;stroke-dasharray:none"
       d="m 105.17788,141.6366 0.12341,-0.93993 -0.93772,-0.81129 -0.13989,-0.91468"
       id="path2970"
       sodipodi:nodetypes="cccc" />
    <path
       style="fill:none;stroke:#000000;stroke-width:0.2;stroke-linecap:round;stroke-linejoin:round;stroke-dasharray:none"
       d="m 107.84867,145.19766 -0.35282,-3.78709 -0.44098,-1.9731"
       id="path2972"
       sodipodi:nodetypes="ccc" />
    <path
       style="fill:none;stroke:#000000;stroke-width:0.2;stroke-linecap:round;stroke-linejoin:round;stroke-dasharray:none"
       d="m 108.53918,145.30972 0.64409,0.0989 0.80459,-0.85256"
       id="path2974"
       sodipodi:nodetypes="ccc" />
    <path
       style="fill:none;stroke:#000000;stroke-width:0.2;stroke-linecap:round;stroke-linejoin:round;stroke-dasharray:none"
       d="m 103.27935,137.34315 c 0,0 -0.11426,-0.1533 -0.18021,-0.22221 -0.15451,-0.16148 -0.50172,-0.44497 -0.50172,-0.44497"
       id="path2980"
       sodipodi:nodetypes="cac" />
    <path
       style="fill:none;stroke:#000000;stroke-width:0.2;stroke-linecap:round;stroke-linejoin:round;stroke-dasharray:none"
       d="m 102.70161,137.50436 c 0,0 -0.78254,0.19569 -1.07435,-0.0115 -0.19614,-0.13928 -0.1635,-0.45192 -0.24401,-0.67833 -0.0987,-0.27771 -0.43169,-0.57396 -0.29318,-0.8342 0.0723,-0.13579 0.29549,-0.0895 0.44703,-0.1172 0.10029,-0.0184 0.30417,-0.0323 0.30417,-0.0323"
       id="path2982"
       sodipodi:nodetypes="caaaac" />
    <path
       style="fill:none;stroke:#000000;stroke-width:0.2;stroke-linecap:round;stroke-linejoin:round;stroke-dasharray:none"
       d="m 101.3491,135.17049 c 0,0 0.29897,-0.36666 0.46447,-0.53527 0.0794,-0.0809 0.14104,-0.20746 0.2527,-0.22771 0.28329,-0.0514 0.55782,0.1663 0.80376,0.31572 0.15562,0.0945 0.41138,0.35911 0.41138,0.35911"
       id="path2984"
       sodipodi:nodetypes="caaac" />
    <path
       style="fill:none;stroke:#000000;stroke-width:0.2;stroke-linecap:round;stroke-linejoin:round;stroke-dasharray:none"
       d="m 102.87046,135.6811 c 0,0 0.51943,-0.12455 0.7185,0.008 0.20483,0.13677 0.2578,0.43487 0.29006,0.6787 0.0286,0.21646 -0.092,0.64856 -0.092,0.64856"
       id="path2986"
       sodipodi:nodetypes="caac" />
    <path
       style="fill:none;stroke:#000000;stroke-width:0.2;stroke-linecap:round;stroke-linejoin:round;stroke-dasharray:none"
       d="m 105.16797,138.03142 c 0,0 -0.17982,-0.47664 -0.22039,-0.72636 -0.0348,-0.214 -0.0179,-0.65016 -0.0179,-0.65016"
       id="path2988"
       sodipodi:nodetypes="cac" />
    <path
       style="fill:none;stroke:#000000;stroke-width:0.2;stroke-linecap:round;stroke-linejoin:round;stroke-dasharray:none"
       d="m 103.85063,135.17929 c 0,0 0.0528,-0.54589 0.21877,-0.74451 0.0506,-0.0605 0.15067,-0.056 0.21155,-0.10614 0.19804,-0.16305 0.2348,-0.50684 0.47041,-0.60862 0.24447,-0.1056 0.57213,-0.0679 0.79542,0.0771 0.30412,0.19748 0.29287,0.67639 0.5351,0.94598 0.098,0.10905 0.35764,0.25629 0.35764,0.25629"
       id="path2990"
       sodipodi:nodetypes="caaaaac" />
    <path
       style="fill:none;stroke:#000000;stroke-width:0.2;stroke-linecap:round;stroke-linejoin:round;stroke-dasharray:none"
       d="m 105.52881,136.5037 c 0,0 0.39194,0.1272 0.57645,0.0689 0.22946,-0.0725 0.45388,-0.25625 0.53701,-0.48166 0.0642,-0.17413 -0.0741,-0.55171 -0.0741,-0.55171"
       id="path2992"
       sodipodi:nodetypes="caac" />
    <path
       style="fill:none;stroke:#000000;stroke-width:0.2;stroke-linecap:round;stroke-linejoin:round;stroke-dasharray:none"
       d="m 102.60662,133.94318 c 0,0 0.18453,-0.21396 0.30819,-0.27431 0.22993,-0.11224 0.50465,-0.19017 0.75529,-0.13833 0.1366,0.0283 0.34771,0.23244 0.34771,0.23244"
       id="path2994"
       sodipodi:nodetypes="caac" />
    <path
       style="fill:none;stroke:#000000;stroke-width:0.2;stroke-linecap:round;stroke-linejoin:round;stroke-dasharray:none"
       d="m 103.70526,133.07678 c 0,0 0.47043,-0.27881 0.73399,-0.30064 0.23667,-0.0196 0.69466,0.15788 0.69466,0.15788"
       id="path2996"
       sodipodi:nodetypes="cac" />
    <path
       style="fill:none;stroke:#000000;stroke-width:0.2;stroke-linecap:round;stroke-linejoin:round;stroke-dasharray:none"
       d="m 105.4731,133.28098 c 0,0 0.12557,-0.11235 0.27162,-0.20889"
       id="path2998"
       sodipodi:nodetypes="cc" />
    <path
       style="fill:none;stroke:#000000;stroke-width:0.2;stroke-linecap:round;stroke-linejoin:round;stroke-dasharray:none"
       d="m 103.41697,138.47895 0.72744,-0.78354"
       id="path3026"
       sodipodi:nodetypes="cc" />
    <path
       style="fill:none;stroke:#000000;stroke-width:0.2;stroke-linecap:round;stroke-linejoin:round;stroke-dasharray:none"
       d="m 103.24864,137.99746 0.54532,-0.57952"
       id="path3028"
       sodipodi:nodetypes="cc" />
    <path
       style="fill:none;stroke:#000000;stroke-width:0.2;stroke-linecap:round;stroke-linejoin:round;stroke-dasharray:none"
       d="m 103.91682,138.63572 0.54532,-0.57951"
       id="path3030"
       sodipodi:nodetypes="cc" />
    <path
       style="fill:none;stroke:#000000;stroke-width:0.2;stroke-linecap:round;stroke-linejoin:round;stroke-dasharray:none"
       d="m 104.70432,138.60004 c 0,0 0.90629,-0.31182 1.37723,-0.38704 0.13855,-0.0221 0.42056,-0.018 0.42056,-0.018"
       id="path3032"
       sodipodi:nodetypes="cac" />
    <path
       style="fill:none;stroke:#000000;stroke-width:0.2;stroke-linecap:round;stroke-linejoin:round;stroke-dasharray:none"
       d="m 106.13688,137.58744 c 0,0 0.30012,-0.17358 0.46533,-0.22003 0.18657,-0.0525 0.37998,-0.0876 0.57455,-0.10307"
       id="path3034"
       sodipodi:nodetypes="csc" />
    <path
       style="fill:none;stroke:#000000;stroke-width:0.2;stroke-linecap:round;stroke-linejoin:round;stroke-dasharray:none"
       d="m 107.24922,138.75187 c 0,0 0.34596,-0.19167 0.65142,-0.31437"
       id="path3036"
       sodipodi:nodetypes="cc" />
    <path
       id="path63"
       style="fill:#e5f2ff;fill-opacity:1;stroke:none;stroke-width:0.1;stroke-linecap:round;stroke-linejoin:round;stroke-dasharray:none;stroke-opacity:1"
       inkscape:label="color"
       d="m 111.73724,137.81728 c -0.38693,0.18865 -0.17273,0.91312 -0.2182,1.31502 0.15013,0.50877 0.16531,0.97387 0.18438,1.50064 -0.054,0.19313 0.12614,0.57331 0.18768,0.21656 0.0673,-0.45402 -0.0697,-0.91658 0.005,-1.37277 0.0186,-0.55297 0.006,-1.12419 -0.15097,-1.65738 z m -1.9585,0.25575 c -0.001,0.38241 -0.0893,0.81142 -0.0606,1.22963 -0.0701,0.398 0.36908,0.33296 0.26193,-0.0544 0.0712,-0.34541 0.10586,-0.88187 -0.10684,-1.15621 z m 3.3486,0.52549 c -0.19229,0.36034 -0.14769,0.86231 -0.25286,1.275 -0.0802,0.45244 -0.078,0.92023 4.1e-4,1.36741 0.046,0.25288 -0.0693,1.03878 0.25657,0.82498 0.12401,-0.4069 -0.0559,-0.9366 0.18397,-1.26635 -0.17256,-0.37857 -0.02,-0.84067 -0.0231,-1.26222 -0.0599,-0.24607 0.22536,-0.9627 -0.16499,-0.93882 z m -2.5063,1.07412 c -0.0115,8e-4 -0.0236,0.003 -0.0367,0.007 0.001,0.4203 -0.0187,0.97088 -0.005,1.44001 0.0699,0.57257 -0.0182,1.15362 0.0808,1.72297 0.47684,0.0189 0.29198,-0.84142 0.33,-1.19869 0.0153,-0.53494 -0.12657,-1.05616 -0.14479,-1.58892 -0.0572,-0.12623 -0.0529,-0.39784 -0.22481,-0.38237 z m 1.7601,1.64708 c -0.19005,0.44229 -0.21385,0.95771 -0.28132,1.43712 0.0348,0.29347 -0.21419,0.90977 0.15139,0.95367 0.004,-0.32419 0.44766,-0.10961 0.33246,-0.51438 0.0488,-0.61221 0.0491,-1.23019 0.0177,-1.84176 -0.0986,0.0197 -0.12877,0.006 -0.22027,-0.0346 z"
       sodipodi:nodetypes="cccccccccccccccccccccccccccccccccc" />
    <path
       id="path64"
       style="fill:#cce5ff;fill-opacity:1;stroke-width:0.1;stroke-linecap:round;stroke-linejoin:round"
       d="m 111.72446,138.31639 v 4.1e-4 c -0.12177,0.36941 -0.0486,0.8449 -0.085,1.27006 0.0201,0.39418 -0.0381,0.80779 0.0248,1.19127 0.1674,-0.18376 0.25811,-0.68556 0.2149,-1.03329 -0.0341,-0.47462 -0.0528,-0.95087 -0.11054,-1.4235 z m -1.8756,0.16417 c -0.11143,0.20471 -0.0398,0.84576 0.0755,0.92563 0.0346,-0.27295 0.0146,-0.70231 -0.0755,-0.92563 z m 3.22815,1.09846 c -0.45783,0.39264 -0.2934,1.20955 -0.3832,1.78361 -0.11744,0.40769 0.57148,0.98857 0.40218,0.25492 -0.23125,-0.65282 0.54864,-1.07396 0.11178,-1.76299 -0.0453,-0.0909 -0.0744,-0.19116 -0.13076,-0.27554 z m -2.40564,0.70949 c -0.13014,0.43154 0.0686,0.89803 0.0355,1.31832 -0.0116,0.20274 -0.12065,1.00534 0.12663,0.86127 0.0166,-0.43969 0.0674,-0.91281 -0.019,-1.36163 -0.08,-0.23906 0.0516,-0.68808 -0.14313,-0.81796 z m 1.47135,2.08761 c -0.62706,0.54197 0.34629,1.61407 0.22893,0.40424 -0.0504,-0.13307 -0.0165,-0.41513 -0.22893,-0.40424 z"
       sodipodi:nodetypes="ccccccccccccccccccccccc" />
    <path
       id="path65"
       style="fill:#b3d8ff;fill-opacity:1;stroke-width:0.1;stroke-linecap:round;stroke-linejoin:round"
       d="m 113.0535,138.66948 c -0.2731,0.55224 -0.0562,1.22274 -0.12292,1.82445 -0.12053,0.34591 0.14681,1.422 0.24749,0.51561 -0.0281,-0.73735 0.0646,-1.48452 -0.0281,-2.21673 l -0.0346,-0.073 z m -3.1869,0.0598 c -0.13562,0.14898 -0.11775,0.94441 0.0722,0.47889 0.001,-0.14797 0.10594,-0.39596 -0.0722,-0.47889 z m 1.88426,1.62066 c -0.34288,0.12627 0.2003,0.76976 0.0643,0.19304 -0.0118,-0.0664 -0.0208,-0.13806 -0.0643,-0.19304 z m -1.01267,0.72791 c -0.22254,0.54709 -0.0683,1.15844 -0.007,1.71885 0.39429,0.44258 0.23835,-0.44185 0.22151,-0.68062 -0.0345,-0.34747 -0.0865,-0.69353 -0.16789,-1.03328 l -0.0256,-0.002 z m 1.65986,0.0837 c -0.21706,0.29043 -0.15578,1.31608 0.0639,1.21891 0.10156,-0.27408 0.28431,-1.18739 -0.0639,-1.21891 z m -0.18933,1.00727 c -0.30617,0.30224 0.10776,1.5182 0.13365,0.61997 0.011,-0.2083 0.0267,-0.45883 -0.13365,-0.61997 z"
       sodipodi:nodetypes="cccccccccccccccccccccccc" />
    <path
       id="path66"
       style="fill:#99cbff;fill-opacity:1;stroke-width:0.1;stroke-linecap:round;stroke-linejoin:round"
       d="m 111.68774,137.90513 c -0.37837,0.006 0.0479,1.18786 0.10601,0.50448 -0.007,-0.16018 0.005,-0.38404 -0.10601,-0.50448 z m -1.76793,0.71983 c -0.14537,0.0799 -0.20051,0.66466 -0.0297,0.7495 0.0751,-0.22664 0.13028,-0.53409 0.0297,-0.7495 z m 1.8096,0.0784 c -0.2025,0.1955 -0.0971,0.74517 -0.0173,1.01472 0.24049,-0.14865 0.0866,-0.77606 0.0173,-1.01472 z m 1.39586,1.10299 c -0.007,-0.002 -0.0149,-0.002 -0.0252,0.002 -0.17042,0.27067 -0.1781,0.71371 -0.13364,1.05267 0.0685,0.27478 -0.0868,0.8381 0.18892,0.93594 0.136,-0.6118 0.0397,-1.2396 -0.004,-1.8529 -0.009,-0.0313 0.0211,-0.12692 -0.026,-0.13695 z m -1.40329,0.0479 c -0.18201,0.13703 -0.18494,0.78127 0.0281,0.87448 0.0491,-0.22775 0.19037,-0.74952 -0.0281,-0.87448 z m -1.03123,0.77953 c -0.0348,0.22869 -0.1987,0.78177 0.0652,0.89056 0.0429,-0.2406 0.13044,-0.7527 -0.0652,-0.89056 z m 0.12788,1.16446 c -0.0222,-8e-4 -0.0475,7.9e-4 -0.0759,0.006 -0.0866,0.19421 -0.16543,0.8614 0.0804,0.832 -0.003,-0.2223 0.32841,-0.82339 -0.005,-0.83736 z m 1.52085,0.24461 c -0.27204,0.20511 -0.15498,0.88452 -0.0408,1.1558 0.30882,0.14305 0.11613,-0.54577 0.11632,-0.76847 -0.0377,-0.12322 7.9e-4,-0.27918 -0.0755,-0.38733 z"
       sodipodi:nodetypes="cccccccccccccccccccccccccccsccss" />
    <path
       style="fill:none;stroke:#000000;stroke-width:0.2;stroke-linecap:round;stroke-linejoin:round;stroke-dasharray:none;stroke-opacity:1"
       d="m 110.7464,140.10217 v 0.64559"
       id="path71-5"
       sodipodi:nodetypes="cc" />
    <path
       style="fill:none;stroke:#000000;stroke-width:0.2;stroke-linecap:round;stroke-linejoin:round;stroke-dasharray:none;stroke-opacity:1"
       d="m 109.89889,138.4699 v 0.64559"
       id="path73-9"
       sodipodi:nodetypes="cc" />
    <path
       style="fill:none;stroke:#000000;stroke-width:0.2;stroke-linecap:round;stroke-linejoin:round;stroke-dasharray:none;stroke-opacity:1"
       d="m 111.71846,138.19634 v 0.64559"
       id="path74-3"
       sodipodi:nodetypes="cc" />
    <path
       style="fill:none;stroke:#000000;stroke-width:0.2;stroke-linecap:round;stroke-linejoin:round;stroke-dasharray:none;stroke-opacity:1"
       d="m 110.7621,141.16007 v 1.42684"
       id="path76-4"
       sodipodi:nodetypes="cc" />
    <path
       style="fill:none;stroke:#000000;stroke-width:0.2;stroke-linecap:round;stroke-linejoin:round;stroke-dasharray:none;stroke-opacity:1"
       d="m 111.73123,139.27793 v 1.42684"
       id="path77-5"
       sodipodi:nodetypes="cc" />
    <path
       style="fill:none;stroke:#000000;stroke-width:0.2;stroke-linecap:round;stroke-linejoin:round;stroke-dasharray:none;stroke-opacity:1"
       d="m 112.23234,142.72166 v 0.64559"
       id="path84-3"
       sodipodi:nodetypes="cc" />
    <path
       style="fill:none;stroke:#000000;stroke-width:0.2;stroke-linecap:round;stroke-linejoin:round;stroke-dasharray:none;stroke-opacity:1"
       d="m 113.08676,139.4627 v 1.42684"
       id="path85-0"
       sodipodi:nodetypes="cc" />
    <path
       style="fill:none;stroke:#000000;stroke-width:0.2;stroke-linecap:round;stroke-linejoin:round;stroke-dasharray:none;stroke-opacity:1"
       d="m 113.08676,141.4268 v 0.6456"
       id="path86-7"
       sodipodi:nodetypes="cc" />
    <path
       style="fill:#f5faff;fill-opacity:1;stroke:none;stroke-width:0.200001;stroke-linecap:round;stroke-linejoin:round;stroke-dasharray:none;stroke-opacity:1"
       d="m 106.33661,133.3227 c 0.0463,-0.0328 0.0919,-0.0663 0.13639,-0.10102 0.5196,-0.40514 0.88407,-1.19337 1.54148,-1.23729 0.80482,-0.0538 1.51155,0.66996 2.07186,1.25019 0.30184,0.31259 0.32661,0.83195 0.63408,1.13901 0.51689,0.51618 1.3434,0.60999 1.91619,1.06334 0.48216,0.3816 0.73417,1.01702 1.24164,1.36424 0.21416,0.14654 0.55991,0.0808 0.72644,0.27984 0.21243,0.25386 0.39794,0.71921 0.18797,0.97511 -0.62681,0.7639 -1.97906,-0.0565 -2.96439,0.018 -0.77294,0.0585 -1.52735,0.28872 -2.30106,0.33585 -0.4007,0.0244 -0.80205,0.0298 -1.20361,0.0238 z"
       id="path135-0"
       sodipodi:nodetypes="csaaaaaaaascc" />
    <path
       id="path136-9"
       style="fill:#e5f2ff;fill-opacity:1;stroke:none;stroke-width:0.200001;stroke-linecap:round;stroke-linejoin:round;stroke-dasharray:none;stroke-opacity:1"
       d="m 108.62392,135.51716 c -0.10629,0.003 -0.2107,0.0147 -0.30748,0.0336 -0.24877,0.0486 -0.45521,0.19675 -0.65288,0.3664 l 0.60549,1.69442 c 0.24743,-0.0641 0.43734,-0.1344 0.66958,-0.2434 0.24507,-0.11503 0.5062,-0.28718 0.60823,-0.53796 0.12893,-0.31688 0.14838,-0.76497 -0.0754,-1.0237 -0.19353,-0.22373 -0.52863,-0.298 -0.8475,-0.28939 z"
       sodipodi:nodetypes="scccsssss" />
    <path
       style="fill:#e5f2ff;fill-opacity:1;stroke:none;stroke-width:0.200001;stroke-linecap:round;stroke-linejoin:round;stroke-dasharray:none;stroke-opacity:1"
       d="m 109.56741,134.83276 c -0.44749,0.18804 -1.08098,0.096 -1.43733,-0.23364 -0.12279,-0.11356 0.0282,-0.40784 -0.11886,-0.48747 -0.26677,-0.14443 -0.71208,0.60326 -0.84822,0.29742 l -0.38395,-0.86255 c -0.051,-0.11447 0.25243,0.0187 0.35188,-0.0445 0.33527,-0.21313 0.28511,-0.84447 0.65153,-0.99796 0.37624,-0.15761 0.85364,0.0259 1.19961,0.24196 0.49794,0.31106 1.05879,0.81189 1.07024,1.39889 0.005,0.28046 -0.22628,0.57915 -0.4849,0.68782 z"
       id="path137-1"
       sodipodi:nodetypes="aassssaaaa" />
    <path
       style="fill:#e5f2ff;fill-opacity:1;stroke:none;stroke-width:0.200001;stroke-linecap:round;stroke-linejoin:round;stroke-dasharray:none;stroke-opacity:1"
       d="m 111.68348,137.71913 c -0.20954,-0.0572 -0.44837,-0.11984 -0.58371,-0.28975 -0.20071,-0.25198 -0.2268,-0.61771 -0.22521,-0.93986 10e-4,-0.23262 0.0106,-0.50691 0.16931,-0.67702 0.17118,-0.18355 0.4673,-0.26719 0.71595,-0.23309 0.5172,0.071 0.88451,0.55668 1.30365,0.86788 0.3084,0.22897 0.60313,0.47664 0.88876,0.73347 0.163,0.14657 0.47597,0.24091 0.46994,0.46003 -0.004,0.12947 -0.16939,0.21495 -0.29219,0.25614 -0.77521,0.25999 -1.65775,0.0377 -2.4465,-0.1778 z"
       id="path138-7"
       sodipodi:nodetypes="aaaaaaaaaa" />
    <path
       style="fill:#cce5ff;fill-opacity:1;stroke:none;stroke-width:0.200001;stroke-linecap:round;stroke-linejoin:round;stroke-dasharray:none;stroke-opacity:1"
       d="m 108.02196,136.89798 c -0.0618,-0.18679 0.35758,-0.16663 0.54208,-0.22946 0.28814,-0.0981 0.59725,-0.14183 0.90164,-0.14481 0.34802,-0.003 0.71588,0.004 1.03393,0.14538 0.49345,0.21926 1.4113,0.52645 1.24252,1.03937 -0.10886,0.33084 -0.69522,0.0437 -1.04295,0.0636 -0.44411,0.0254 -0.88819,0.0896 -1.33263,0.0709 -0.27021,-0.0114 -0.53332,-0.10535 -0.80372,-0.11113 -0.0795,-0.002 -0.22516,0.11985 -0.25391,0.033 z"
       id="path140-1"
       sodipodi:nodetypes="ssaaaaasss" />
    <path
       style="fill:none;stroke:#000000;stroke-width:0.2;stroke-linecap:round;stroke-linejoin:round;stroke-dasharray:none"
       d="m 107.05839,133.84617 c 0.14334,-0.0207 0.33231,-8.6e-4 0.41822,-0.11782 0.091,-0.1235 -0.0269,-0.30736 -0.0121,-0.46004 0.0142,-0.14676 0.004,-0.31699 0.0963,-0.43172 0.0921,-0.11414 0.25453,-0.16271 0.39962,-0.18424 0.16525,-0.0245 0.49644,0.0686 0.49644,0.0686"
       id="path145-7"
       sodipodi:nodetypes="caaaac" />
    <path
       style="fill:none;stroke:#000000;stroke-width:0.2;stroke-linecap:round;stroke-linejoin:round;stroke-dasharray:none"
       d="m 107.97236,133.49962 c 0.29528,0.0445 -0.0711,-0.49218 0.25066,-0.39156"
       id="path147-6"
       sodipodi:nodetypes="caac" />
    <path
       style="fill:none;stroke:#000000;stroke-width:0.2;stroke-linecap:round;stroke-linejoin:round;stroke-dasharray:none"
       d="m 108.67849,133.22866 c 0,0 0.14601,-0.0647 0.19232,-0.12559 0.0557,-0.0733 -0.007,-0.24834 0.0834,-0.26312 0.26385,-0.0429 0.35869,0.40617 0.47229,0.64816 0.10192,0.21709 0.2028,0.45903 0.1767,0.69744 -0.016,0.14622 -0.0583,0.34936 -0.19835,0.39421 -0.0859,0.0275 -0.16063,-0.0823 -0.23942,-0.12622 -0.0728,-0.0406 -0.13204,-0.12398 -0.21528,-0.12687 -0.11993,-0.004 -0.20967,0.20278 -0.32208,0.16079 -0.10955,-0.041 -0.13425,-0.32413 -0.13425,-0.32413"
       id="path148-7"
       sodipodi:nodetypes="caaaaaaaac" />
    <path
       style="fill:none;stroke:#000000;stroke-width:0.2;stroke-linecap:round;stroke-linejoin:round;stroke-dasharray:none"
       d="m 108.8073,134.9994 c 0,0 -0.0116,0.26073 0.0833,0.31072 0.17926,0.0944 0.37184,-0.2246 0.57321,-0.20224 0.0917,0.0102 0.14223,0.14324 0.23438,0.14704 0.25449,0.0105 0.42408,-0.33885 0.67847,-0.35147 0.17923,-0.009 0.42195,0.0376 0.50018,0.19908 0.10514,0.21706 -0.0371,0.52196 -0.20681,0.69338 -0.20315,0.20525 -0.62326,0.0522 -0.82762,0.25617 -0.0827,0.0825 -0.13901,0.22311 -0.10413,0.33459 0.0586,0.18723 0.26927,0.3381 0.46398,0.36208 0.14658,0.018 0.40501,-0.17968 0.40501,-0.17968"
       id="path149-3"
       sodipodi:nodetypes="caaaaaaaaac" />
    <path
       style="fill:none;stroke:#000000;stroke-width:0.2;stroke-linecap:round;stroke-linejoin:round;stroke-dasharray:none"
       d="m 108.09507,136.27424 c 0.10444,-0.0811 0.12357,-0.26524 0.24816,-0.30968 0.20026,-0.0714 0.48573,-0.0286 0.62382,0.13301 0.15312,0.17925 0.14646,0.49712 0.0376,0.70623 -0.0677,0.13002 -0.23071,0.26748 -0.37309,0.23271 -0.12271,-0.03 -0.1929,-0.32618 -0.1929,-0.32618"
       id="path150-6"
       sodipodi:nodetypes="caaaac" />
    <path
       style="fill:none;stroke:#000000;stroke-width:0.2;stroke-linecap:round;stroke-linejoin:round;stroke-dasharray:none"
       d="m 111.0597,136.19512 c 0,0 0.15381,-0.14629 0.25142,-0.15072 0.12614,-0.006 0.27309,0.0582 0.34122,0.16451 0.0631,0.0985 0.0783,0.25866 0.006,0.35097 -0.0624,0.08 -0.21172,0.0133 -0.29648,0.0691 -0.0621,0.0409 -0.13243,0.17959 -0.13243,0.17959"
       id="path151-5"
       sodipodi:nodetypes="caaaac" />
    <path
       style="fill:none;stroke:#000000;stroke-width:0.2;stroke-linecap:round;stroke-linejoin:round;stroke-dasharray:none"
       d="m 112.09914,136.87838 c 0,0 0.23988,0.18504 0.35809,0.13658 0.17514,-0.0717 0.0493,-0.48468 0.23592,-0.51651 0.18429,-0.0315 0.25732,0.27132 0.38896,0.40407 0.11979,0.12079 0.22135,0.26543 0.36472,0.35699 0.20572,0.13137 0.70965,0.25932 0.68482,0.25932 h -4.64695"
       id="path152-6"
       sodipodi:nodetypes="caaaasc" />
    <path
       style="fill:none;stroke:#000000;stroke-width:0.2;stroke-linecap:round;stroke-linejoin:round;stroke-dasharray:none"
       d="m 108.30293,137.53332 h 0.37561"
       id="path153-3"
       sodipodi:nodetypes="cc" />
    <path
       style="fill:none;fill-opacity:1;stroke:#1a1a1a;stroke-width:0.2;stroke-linecap:round;stroke-linejoin:round;stroke-dasharray:none;stroke-opacity:1"
       d="m 105.80918,131.93556 5.12651,13.25317"
       id="path251" />
    <path
       id="path1"
       style="fill:#fff6e5;fill-opacity:1;stroke:none;stroke-width:0.2;stroke-linecap:round;stroke-linejoin:round"
       d="m 85.278117,132.23536 c -7.0577,-5.54173 -17.87409,-1.84432 -26.84624,-1.99387 -9.95554,-0.16594 -22.34176,-5.32594 -29.8459,1.21838 -2.80451,2.4458 -4.16633,7.98612 -1.96819,10.98869 5.64587,7.71208 18.87507,3.77481 28.43267,3.70838 11.17695,-0.0777 27.27981,4.6905 33.18654,-4.79848 1.68948,-2.7141 -0.44442,-7.14874 -2.95888,-9.1231 z"
       sodipodi:nodetypes="aaaaaaa" />
    <path
       id="path8"
       style="fill:#ffe6b3;fill-opacity:1;stroke:none;stroke-width:0.2;stroke-linecap:round;stroke-linejoin:round"
       d="m 87.256987,140.51267 c 0.82628,-2.95947 -1.50319,-6.7132 -4.18477,-8.21331 -2.0053,-1.1218 -4.57375,0.55532 -6.87148,0.54733 -5.97696,-0.0208 -11.89706,-1.89405 -17.86403,-1.54811 -2.48006,0.14379 -4.83551,1.19054 -7.30074,1.49718 -4.48508,0.55788 -9.03521,0.91028 -13.54508,0.61312 -2.50197,-0.16486 -5.1378,-2.39434 -7.40489,-1.3232 -2.38966,1.12906 -4.2896,4.30441 -3.87897,6.91528 0.32348,2.05677 2.62485,3.53205 4.58042,4.24667 4.4197,1.61508 9.39646,-0.7524 14.10115,-0.66188 4.35419,0.0838 8.67841,0.74102 13.0174,1.11411 5.85482,0.50343 11.69084,1.71723 17.56386,1.51725 1.8899,-0.0644 3.83232,-0.21492 5.60564,-0.87157 2.27358,-0.8419 5.52952,-1.49773 6.18149,-3.83287 z"
       sodipodi:nodetypes="aaaaaaaaaaaaaa" />
    <path
       id="path141"
       style="fill:#ffdd99;fill-opacity:1;stroke-width:1;stroke-linecap:round;stroke-linejoin:round"
       d="m 54.090017,134.13146 c -1.41712,0.0666 -2.74366,0.82999 -4.16085,0.89519 -1.02441,0.0471 -2.02909,-0.38891 -3.05438,-0.3682 -1.01124,0.0204 -1.98939,0.58915 -2.9954,0.48449 -1.59631,-0.16607 -2.90487,-1.9624 -4.49297,-1.73065 -1.05268,0.15362 -2.1359,0.96076 -2.52617,1.95043 -0.73678,1.86839 -0.60873,4.70765 0.97225,5.94628 0.90178,0.7065 2.28028,-0.27472 3.42586,-0.27321 0.93677,0.001 1.86731,0.15266 2.80081,0.23077 1.93552,0.16194 3.86523,0.41514 5.80594,0.49318 1.8905,0.076 3.78697,-0.13048 5.67604,-0.0247 1.77225,0.0992 3.51658,0.52423 5.28916,0.61751 6.66703,0.35083 13.42702,0.78098 20.02753,-0.22184 1.60015,-0.24311 3.89077,0.0376 4.65211,-1.39068 0.99133,-1.85969 -0.0737,-4.94174 -1.87336,-6.0383 -1.6745,-1.02031 -3.83391,0.92743 -5.79225,1.02698 -5.23351,0.26603 -10.4411,-0.97017 -15.6779,-1.16076 -1.45062,-0.0528 -2.90564,0.0897 -4.35474,0.005 -1.24712,-0.073 -2.4738,-0.49999 -3.72168,-0.44138 z m -22.13055,-1.41516 c -2.16639,-0.44941 -4.82298,2.37037 -4.80156,4.58278 0.0131,1.35205 2.1933,1.64937 2.988,2.74329 0.47293,0.651 0.19929,2.15567 1.00294,2.19573 1.85187,0.0923 2.68378,-2.95443 2.80279,-4.80477 0.10956,-1.7033 -0.32093,-4.37033 -1.99217,-4.71703 z"
       sodipodi:nodetypes="aaaaaaaaaaaaaaaaaaaaaaaaaa" />
    <path
       id="text2"
       style="font-size:7.76111px;line-height:1.25;font-family:Tibet;-inkscape-font-specification:Tibet;text-align:justify;letter-spacing:0px;word-spacing:0px;stroke-width:0.264583"
       d="m 31.62165,134.33854 c -0.111161,0.0278 -0.166914,0.083 -0.166914,0.1664 v 0.076 c 0.75792,1.13688 1.136881,2.24833 1.136881,3.33468 0,0.90951 -0.247416,1.82441 -0.74259,2.74402 -0.262746,0.41938 -0.394291,0.64136 -0.394291,0.66663 v 0.0455 c 0.02779,0.11116 0.08354,0.16692 0.166914,0.16692 h 0.04548 c 0.02779,0 0.05811,-0.0103 0.09095,-0.0305 0.808448,-1.17731 1.212329,-2.34451 1.212329,-3.5016 v -0.13642 c 0,-0.7074 -0.166743,-1.45992 -0.500228,-2.25826 -0.416856,-0.84887 -0.68431,-1.27331 -0.803051,-1.27331 z m -1.989542,0.45837 -0.0987,0.015 c -0.04547,0.005 -0.204639,0.27411 -0.47749,0.80718 -0.505281,0.82108 -0.758094,1.33268 -0.758094,1.53479 v 0.0341 c 0,0.12126 0.06063,0.23007 0.181901,0.32608 0.06821,0.144 0.793637,0.216 2.175578,0.216 v 2.20917 c 0,0.19706 0.07039,0.29559 0.211874,0.29559 0.11874,0 0.190743,-0.0769 0.216007,-0.23099 v -4.97593 c 0,-0.12632 -0.06551,-0.2032 -0.196887,-0.23099 -0.138952,0 -0.215835,0.0823 -0.230994,0.2465 v 2.25826 h -0.527099 c -0.775605,0 -1.242819,-0.0379 -1.401982,-0.11369 v -0.0527 c 0,-0.0606 0.04438,-0.16944 0.132808,-0.32608 0.464858,-0.79076 0.788066,-1.38464 0.969967,-1.78129 0,-0.12632 -0.06551,-0.2032 -0.196887,-0.23099 z m 8.814449,0.008 c -0.141479,0.0177 -0.21239,0.0832 -0.21239,0.19689 v 5.03638 c 0,0.11369 0.07091,0.17921 0.21239,0.19689 h 0.01912 c 0.131373,0 0.196887,-0.0985 0.196887,-0.29559 v -4.72167 h 2.467033 c 0.368855,0 0.654167,0.0162 0.856279,0.0491 0.833712,0.15916 1.250569,0.33509 1.250569,0.5271 v 0.0491 c 0,0.0404 -0.02113,0.0832 -0.06408,0.12867 -0.406751,0.24759 -1.432645,0.6482 -3.077332,1.20148 -0.40675,0.0909 -0.610299,0.20085 -0.610299,0.3297 0,0.0581 0.01677,0.10737 0.04961,0.14779 1.697741,1.16467 2.575324,1.74718 2.633431,1.74718 h 0.06459 c 0.08337,0 0.144005,-0.0606 0.181901,-0.1819 0,-0.0505 -0.01625,-0.0998 -0.04909,-0.14779 -0.0379,-0.0505 -0.768201,-0.53939 -2.190564,-1.46658 v -0.0305 c 1.063614,-0.33096 1.985581,-0.66554 2.766239,-1.00407 0.482543,-0.1718 0.723987,-0.42461 0.723987,-0.7581 0,-0.15663 -0.06063,-0.29415 -0.181901,-0.41289 -0.500227,-0.39412 -1.179659,-0.59118 -2.038635,-0.59118 z m 26.667623,1.54203 c -0.421909,0 -0.851743,0.0682 -1.288811,0.20463 -1.076246,0.42697 -1.614371,1.03221 -1.614371,1.8154 v 0.0227 c 0,0.33854 0.139125,0.6807 0.417029,1.02682 0.649284,0.63665 1.457563,0.95498 2.425175,0.95498 h 0.0987 c 0.234955,0 0.461241,-0.0742 0.678511,-0.22325 h 0.01137 v 3.66438 c 0.02526,0.13642 0.08969,0.20464 0.19327,0.20464 0.113688,0 0.180293,-0.0682 0.200504,-0.20464 v -7.27604 c 0,-0.10611 -0.06282,-0.16944 -0.189135,-0.18965 h -0.02274 c -0.101056,0 -0.16169,0.0682 -0.181901,0.20463 v 2.70992 c 0,0.091 -0.01137,0.18678 -0.03411,0.28783 -0.128846,0.28549 -0.360012,0.4284 -0.693497,0.4284 h -0.06098 c -0.378961,0 -0.77687,-0.0709 -1.193726,-0.21239 -0.836239,-0.3638 -1.254187,-0.82613 -1.254187,-1.38699 v -0.0114 c 0,-0.32086 0.139125,-0.62024 0.417029,-0.89814 0.555808,-0.48507 1.253097,-0.7276 2.091862,-0.7276 h 0.01137 c 0.121267,0 0.18948,-0.0682 0.204638,-0.20464 v -0.0114 c 0,-0.096 -0.06442,-0.15555 -0.19327,-0.17828 z m -18.982304,0.0114 c -0.586125,0 -1.135619,0.12667 -1.648478,0.37931 -0.750341,0.42191 -1.125513,0.9319 -1.125513,1.53065 v 0.0568 c 0,0.3158 0.122359,0.63034 0.367419,0.94361 0.608863,0.64423 1.41496,0.96635 2.417941,0.96635 h 0.905888 c 0.123793,-0.0227 0.185518,-0.0807 0.185518,-0.17415 v -0.0114 c 0,-0.11116 -0.06551,-0.17558 -0.196887,-0.19327 h -0.894519 c -0.389066,0 -0.776698,-0.0655 -1.163237,-0.19689 -0.828659,-0.34864 -1.243335,-0.79742 -1.243335,-1.34565 v -0.0341 c 0,-0.26022 0.107717,-0.51251 0.322461,-0.75757 0.530544,-0.52297 1.221345,-0.78445 2.072742,-0.78445 h 0.04548 c 0.08337,0 0.186782,0.0227 0.310575,0.0682 0.245061,0.11369 0.367937,0.31293 0.367937,0.59841 0,0.1339 -0.05087,0.24541 -0.151929,0.33383 -0.346117,0.24507 -0.81333,0.36742 -1.401982,0.36742 -0.09853,0 -0.20194,-0.0189 -0.310575,-0.0568 -0.25264,-0.0884 -0.379305,-0.25247 -0.379305,-0.49248 -0.01263,-0.15411 -0.07436,-0.23151 -0.185518,-0.23151 -0.128847,0.0303 -0.19327,0.0888 -0.19327,0.17467 v 0.0341 c 0,0.12632 0.02653,0.26383 0.07958,0.41289 0.222324,0.36128 0.544441,0.54209 0.96635,0.54209 0.06569,0 0.161517,-0.004 0.287837,-0.0114 1.111617,-0.11116 1.667599,-0.46521 1.667599,-1.06144 v -0.0114 c 0,-0.15411 -0.03032,-0.30678 -0.09095,-0.45837 -0.212217,-0.39159 -0.538124,-0.58756 -0.977718,-0.58756 z m 1.94045,0 c -0.106109,0 -0.16835,0.066 -0.186035,0.19741 v 3.50521 c 0,0.096 0.06224,0.15394 0.186035,0.17415 h 0.01137 c 0.103582,0 0.164216,-0.0617 0.181901,-0.18552 v -1.80402 c 0.07074,-1.00551 0.296508,-1.50792 0.677995,-1.50792 h 0.01137 c 0.179375,0 0.482544,0.27285 0.909506,0.81855 0.520438,0.73519 0.996838,1.51694 1.428853,2.3456 0.08337,0.22232 0.174322,0.33331 0.272851,0.33331 h 0.03772 c 0.0859,0 0.138952,-0.0617 0.159164,-0.18552 v -0.0114 l -0.01137,-0.0682 c -0.522965,-1.02067 -1.051903,-1.90256 -1.5875,-2.64532 0.118741,-0.39159 0.295245,-0.58704 0.5302,-0.58704 h 0.01137 c 0.151584,0 0.404397,0.20682 0.758093,0.62115 0.570967,0.76803 1.096632,1.61581 1.576648,2.543 0.0859,0.22232 0.177939,0.33331 0.276469,0.33331 h 0.03411 c 0.07579,0 0.128847,-0.0531 0.159164,-0.15916 v -0.0718 c -1.250568,-2.4304 -2.185512,-3.64578 -2.80448,-3.64578 h -0.03411 c -0.328432,0 -0.589915,0.20734 -0.784448,0.62167 -0.363801,-0.41433 -0.67455,-0.62167 -0.932243,-0.62167 h -0.03411 c -0.242535,0 -0.460724,0.12667 -0.655257,0.37931 v -0.19327 c 0,-0.10358 -0.06063,-0.16582 -0.181901,-0.18604 z m 7.658447,0 c -0.54065,0 -1.004073,0.24145 -1.390613,0.72399 -0.361275,0.51033 -0.542085,1.02463 -0.542085,1.54254 0,0.24759 0.06603,0.49231 0.197404,0.73484 0.255166,0.5836 0.806842,0.8754 1.655712,0.8754 h 0.170533 c 0.563387,0 0.997011,-0.12615 1.300179,-0.37879 0.368854,-0.39664 0.552938,-0.79943 0.552938,-1.20871 0,-0.29054 -0.05794,-0.58992 -0.17415,-0.89814 -0.396645,-0.92719 -0.982944,-1.39113 -1.758549,-1.39113 z m 2.914551,0 -0.06098,0.0114 c -0.07579,0.0354 -0.113688,0.11656 -0.113688,0.24288 v 3.36879 c 0.0076,0.16927 0.06603,0.25373 0.174666,0.25373 h 0.04547 c 0.07579,0 0.128847,-0.0531 0.159164,-0.15916 v -1.59887 c 0,-0.42191 0.09962,-0.7175 0.299206,-0.88677 0.159163,-0.14906 0.332395,-0.27193 0.519348,-0.36794 0.770552,-0.32338 1.597779,-0.48472 2.482019,-0.48472 0.138952,-0.0253 0.208256,-0.0859 0.208256,-0.1819 -0.02526,-0.13137 -0.08211,-0.19741 -0.170532,-0.19741 h -0.01499 c -0.717498,0 -1.437524,0.10772 -2.160075,0.32246 -0.416856,0.11622 -0.804488,0.3382 -1.163236,0.66663 v -0.82992 c 0,-0.0758 -0.05306,-0.12885 -0.159164,-0.15917 z m 15.843994,0 c -0.576019,0 -1.129303,0.12667 -1.659847,0.37931 -0.742762,0.42949 -1.114144,0.93569 -1.114144,1.51929 v 0.0796 c 0,0.36127 0.160772,0.71371 0.481625,1.0573 0.611388,0.56086 1.379072,0.84129 2.303735,0.84129 h 0.03411 c 0.121268,-0.0227 0.181901,-0.0807 0.181901,-0.17415 -0.01516,-0.13643 -0.07958,-0.20464 -0.193269,-0.20464 h -0.02274 c -0.44212,0 -0.867648,-0.0807 -1.276925,-0.24236 -0.752867,-0.34864 -1.12913,-0.77848 -1.12913,-1.28881 v -0.0568 c 0,-0.21727 0.08825,-0.44682 0.2651,-0.68936 0.538124,-0.56086 1.247872,-0.84129 2.129586,-0.84129 h 0.04547 c 0.09348,0 0.204984,0.0265 0.33383,0.0796 0.229903,0.10611 0.344682,0.31293 0.344682,0.62115 v 2.61121 c 0,0.10611 0.06063,0.16784 0.181901,0.18552 h 0.01137 c 0.106109,0 0.167833,-0.0655 0.185518,-0.19689 v -3.48247 c -0.01769,-0.13137 -0.07941,-0.19741 -0.185518,-0.19741 h -0.01137 c -0.121267,0 -0.181901,0.0774 -0.181901,0.23151 -0.209691,-0.15411 -0.439767,-0.23151 -0.68988,-0.23151 z m 4.638477,0 c -0.646759,0 -1.241728,0.1532 -1.784904,0.45889 -0.649285,0.41938 -0.973584,0.8839 -0.973584,1.39423 v 0.15193 c 0,0.36633 0.186782,0.73122 0.560689,1.09502 0.611389,0.50528 1.336296,0.7581 2.175061,0.7581 h 0.07958 c 0.08842,0 0.146876,-0.0623 0.174666,-0.18604 0,-0.0606 -0.0395,-0.12127 -0.117822,-0.1819 -0.601284,0 -1.137801,-0.12236 -1.610238,-0.36742 -0.588651,-0.33348 -0.88315,-0.71893 -0.88315,-1.156 v -0.0796 c 0,-0.24506 0.1072,-0.48869 0.321944,-0.73122 0.522965,-0.51792 1.208885,-0.7767 2.057756,-0.7767 0.199585,0 0.364146,0.0531 0.492993,0.15916 0.15411,0.0682 0.230993,0.30047 0.230993,0.69712 v 2.18643 c 0,0.47749 -0.03141,0.90841 -0.09457,1.29242 -0.229903,1.50321 -0.721462,2.25465 -1.474329,2.25465 -0.472437,0 -0.850307,-0.15268 -1.133264,-0.45837 -0.179375,-0.17432 -0.309312,-0.47479 -0.390157,-0.90176 0,-0.26022 -0.06821,-0.39067 -0.204639,-0.39067 -0.123794,0.0278 -0.185518,0.0809 -0.185518,0.15916 v 0.0951 c 0,0.16421 0.03899,0.36615 0.117305,0.60616 0.303168,0.84635 0.905717,1.26969 1.807642,1.26969 0.401697,0 0.76062,-0.17214 1.07642,-0.51573 0.570966,-0.73518 0.856278,-1.87964 0.856278,-3.43338 v -3.18327 c 0,-0.12379 -0.05684,-0.19579 -0.170532,-0.21601 h -0.02274 c -0.121267,0 -0.181901,0.0758 -0.181901,0.22738 -0.222323,-0.15158 -0.448609,-0.22738 -0.678511,-0.22738 z m 4.649845,0 c -0.586125,0 -1.135619,0.12667 -1.648478,0.37931 -0.750341,0.42191 -1.125513,0.9319 -1.125513,1.53065 v 0.0568 c 0,0.3158 0.122875,0.63034 0.367936,0.94361 0.608863,0.64423 1.414443,0.96635 2.417424,0.96635 h 0.905888 c 0.123793,-0.0227 0.185518,-0.0807 0.185518,-0.17415 v -0.0114 c 0,-0.11116 -0.06551,-0.17558 -0.196887,-0.19327 h -0.894519 c -0.389066,0 -0.776697,-0.0655 -1.163237,-0.19689 -0.828659,-0.34864 -1.242818,-0.79742 -1.242818,-1.34565 v -0.0341 c 0,-0.26022 0.1072,-0.51251 0.321944,-0.75757 0.530544,-0.52297 1.221345,-0.78445 2.072742,-0.78445 h 0.04547 c 0.08337,0 0.187299,0.0227 0.311092,0.0682 0.245061,0.11369 0.36742,0.31293 0.36742,0.59841 0,0.1339 -0.05036,0.24541 -0.151412,0.33383 -0.346117,0.24507 -0.813847,0.36742 -1.402498,0.36742 -0.09853,0 -0.201941,-0.0189 -0.310576,-0.0568 -0.25264,-0.0884 -0.378788,-0.25247 -0.378788,-0.49248 -0.01263,-0.15411 -0.07487,-0.23151 -0.186035,-0.23151 -0.128847,0.0303 -0.19327,0.0888 -0.19327,0.17467 v 0.0341 c 0,0.12632 0.02653,0.26383 0.07958,0.41289 0.222323,0.36128 0.54444,0.54209 0.966349,0.54209 0.06569,0 0.162034,-0.004 0.288354,-0.0114 1.111617,-0.11116 1.667082,-0.46521 1.667082,-1.06144 v -0.0114 c 0,-0.15411 -0.03032,-0.30678 -0.09095,-0.45837 -0.212218,-0.39159 -0.538125,-0.58756 -0.977719,-0.58756 z m -16.545243,0.0114 c -0.0859,0 -0.142742,0.0606 -0.170533,0.1819 0,0.68718 0.107201,1.39475 0.321945,2.12235 0.346116,1.04088 0.869083,1.56115 1.568896,1.56115 h 0.14056 c 0.611389,0 1.096459,-0.12994 1.455208,-0.39016 v 0.13643 c 0,0.16927 0.05684,0.25373 0.170533,0.25373 h 0.04909 c 0.07579,0 0.128847,-0.0531 0.159164,-0.15916 v -0.80306 c 0,-0.0455 0.0038,-0.072 0.01137,-0.0796 -0.0076,-0.0429 -0.01137,-0.0787 -0.01137,-0.10645 v -2.55798 c 0,-0.0859 -0.06063,-0.13896 -0.181901,-0.15917 h -0.02636 c -0.101056,0 -0.157901,0.0812 -0.170533,0.24288 v 2.56935 l -0.01137,0.0796 c -0.189481,0.39664 -0.678341,0.59479 -1.466578,0.59479 h -0.106453 c -0.416856,0 -0.763893,-0.27555 -1.041797,-0.8263 -0.320853,-0.7655 -0.481624,-1.60301 -0.481624,-2.51251 0,-0.0733 -0.06172,-0.12253 -0.185519,-0.1478 z m -11.501624,0.36794 c 0.401698,0 0.746553,0.16513 1.034562,0.49609 0.353696,0.45475 0.530717,0.9187 0.530717,1.39113 v 0.0114 c 0,0.17685 -0.05036,0.35714 -0.151412,0.54157 -0.169268,0.45223 -0.618051,0.67851 -1.345654,0.67851 h -0.125057 c -0.490122,0 -0.847436,-0.0958 -1.072286,-0.28784 -0.282957,-0.30822 -0.424263,-0.61897 -0.424263,-0.93224 v -0.0114 c 0,-0.21222 0.04278,-0.43471 0.128674,-0.66714 0.310747,-0.8135 0.78554,-1.22008 1.424719,-1.22008 z" />
  </g>
</svg>
